M48
; DRILL file {KiCad 8.0.6} date 2025-04-03T21:43:29+0200
; FORMAT={-:-/ absolute / metric / decimal}
; #@! TF.CreationDate,2025-04-03T21:43:29+02:00
; #@! TF.GenerationSoftware,Kicad,Pcbnew,8.0.6
; #@! TF.FileFunction,Plated,1,2,PTH
FMAT,2
METRIC
; #@! TA.AperFunction,Plated,PTH,ViaDrill
T1C0.300
; #@! TA.AperFunction,Plated,PTH,ComponentDrill
T2C2.100
%
G90
G05
T1
X101.0Y-104.0
X105.0Y-100.0
X105.0Y-108.0
X110.0Y-100.0
X110.0Y-108.0
X115.0Y-100.0
X115.0Y-108.0
X120.0Y-100.0
X120.0Y-108.0
X125.0Y-100.0
X125.0Y-103.0
X125.0Y-104.0
X125.0Y-105.0
X125.0Y-108.0
X130.0Y-100.0
X130.0Y-108.0
X135.0Y-100.0
X135.0Y-103.0
X135.0Y-104.0
X135.0Y-105.0
X135.0Y-108.0
X140.0Y-100.0
X140.0Y-108.0
X145.0Y-100.0
X145.0Y-103.0
X145.0Y-104.0
X145.0Y-105.0
X145.0Y-108.0
X150.0Y-100.0
X150.0Y-108.0
X155.0Y-100.0
X155.0Y-103.0
X155.0Y-104.0
X155.0Y-105.0
X155.0Y-108.0
X160.0Y-100.0
X160.0Y-108.0
X165.0Y-100.0
X165.0Y-103.0
X165.0Y-104.0
X165.0Y-105.0
X165.0Y-108.0
X170.0Y-100.0
X170.0Y-108.0
X175.0Y-100.0
X175.0Y-108.0
X180.0Y-100.0
X180.0Y-108.0
X185.0Y-100.0
X185.0Y-108.0
X189.0Y-104.0
T2
X115.0Y-104.0
X175.0Y-104.0
M30
