%TF.GenerationSoftware,KiCad,Pcbnew,8.0.6*%
%TF.CreationDate,2025-04-03T21:43:30+02:00*%
%TF.ProjectId,UV-LEDs,55562d4c-4544-4732-9e6b-696361645f70,v1.0*%
%TF.SameCoordinates,Original*%
%TF.FileFunction,Drillmap*%
%TF.FilePolarity,Positive*%
%FSLAX45Y45*%
G04 Gerber Fmt 4.5, Leading zero omitted, Abs format (unit mm)*
G04 Created by KiCad (PCBNEW 8.0.6) date 2025-04-03 21:43:30*
%MOMM*%
%LPD*%
G01*
G04 APERTURE LIST*
%ADD10C,0.050000*%
%ADD11C,0.200000*%
%ADD12C,0.100000*%
%ADD13C,0.210000*%
G04 APERTURE END LIST*
D10*
X10500000Y-9900000D02*
X18500000Y-9900000D01*
X18500000Y-9900000D02*
G75*
G02*
X18500000Y-10900000I0J-500000D01*
G01*
X10500000Y-10900000D02*
G75*
G02*
X10500000Y-9900000I0J500000D01*
G01*
X18500000Y-10900000D02*
X10500000Y-10900000D01*
D11*
D12*
X10085000Y-10385000D02*
X10115000Y-10415000D01*
X10115000Y-10385000D02*
X10085000Y-10415000D01*
X10485000Y-9985000D02*
X10515000Y-10015000D01*
X10515000Y-9985000D02*
X10485000Y-10015000D01*
X10485000Y-10785000D02*
X10515000Y-10815000D01*
X10515000Y-10785000D02*
X10485000Y-10815000D01*
X10985000Y-9985000D02*
X11015000Y-10015000D01*
X11015000Y-9985000D02*
X10985000Y-10015000D01*
X10985000Y-10785000D02*
X11015000Y-10815000D01*
X11015000Y-10785000D02*
X10985000Y-10815000D01*
X11485000Y-9985000D02*
X11515000Y-10015000D01*
X11515000Y-9985000D02*
X11485000Y-10015000D01*
X11485000Y-10785000D02*
X11515000Y-10815000D01*
X11515000Y-10785000D02*
X11485000Y-10815000D01*
X11985000Y-9985000D02*
X12015000Y-10015000D01*
X12015000Y-9985000D02*
X11985000Y-10015000D01*
X11985000Y-10785000D02*
X12015000Y-10815000D01*
X12015000Y-10785000D02*
X11985000Y-10815000D01*
X12485000Y-9985000D02*
X12515000Y-10015000D01*
X12515000Y-9985000D02*
X12485000Y-10015000D01*
X12485000Y-10285000D02*
X12515000Y-10315000D01*
X12515000Y-10285000D02*
X12485000Y-10315000D01*
X12485000Y-10385000D02*
X12515000Y-10415000D01*
X12515000Y-10385000D02*
X12485000Y-10415000D01*
X12485000Y-10485000D02*
X12515000Y-10515000D01*
X12515000Y-10485000D02*
X12485000Y-10515000D01*
X12485000Y-10785000D02*
X12515000Y-10815000D01*
X12515000Y-10785000D02*
X12485000Y-10815000D01*
X12985000Y-9985000D02*
X13015000Y-10015000D01*
X13015000Y-9985000D02*
X12985000Y-10015000D01*
X12985000Y-10785000D02*
X13015000Y-10815000D01*
X13015000Y-10785000D02*
X12985000Y-10815000D01*
X13485000Y-9985000D02*
X13515000Y-10015000D01*
X13515000Y-9985000D02*
X13485000Y-10015000D01*
X13485000Y-10285000D02*
X13515000Y-10315000D01*
X13515000Y-10285000D02*
X13485000Y-10315000D01*
X13485000Y-10385000D02*
X13515000Y-10415000D01*
X13515000Y-10385000D02*
X13485000Y-10415000D01*
X13485000Y-10485000D02*
X13515000Y-10515000D01*
X13515000Y-10485000D02*
X13485000Y-10515000D01*
X13485000Y-10785000D02*
X13515000Y-10815000D01*
X13515000Y-10785000D02*
X13485000Y-10815000D01*
X13985000Y-9985000D02*
X14015000Y-10015000D01*
X14015000Y-9985000D02*
X13985000Y-10015000D01*
X13985000Y-10785000D02*
X14015000Y-10815000D01*
X14015000Y-10785000D02*
X13985000Y-10815000D01*
X14485000Y-9985000D02*
X14515000Y-10015000D01*
X14515000Y-9985000D02*
X14485000Y-10015000D01*
X14485000Y-10285000D02*
X14515000Y-10315000D01*
X14515000Y-10285000D02*
X14485000Y-10315000D01*
X14485000Y-10385000D02*
X14515000Y-10415000D01*
X14515000Y-10385000D02*
X14485000Y-10415000D01*
X14485000Y-10485000D02*
X14515000Y-10515000D01*
X14515000Y-10485000D02*
X14485000Y-10515000D01*
X14485000Y-10785000D02*
X14515000Y-10815000D01*
X14515000Y-10785000D02*
X14485000Y-10815000D01*
X14985000Y-9985000D02*
X15015000Y-10015000D01*
X15015000Y-9985000D02*
X14985000Y-10015000D01*
X14985000Y-10785000D02*
X15015000Y-10815000D01*
X15015000Y-10785000D02*
X14985000Y-10815000D01*
X15485000Y-9985000D02*
X15515000Y-10015000D01*
X15515000Y-9985000D02*
X15485000Y-10015000D01*
X15485000Y-10285000D02*
X15515000Y-10315000D01*
X15515000Y-10285000D02*
X15485000Y-10315000D01*
X15485000Y-10385000D02*
X15515000Y-10415000D01*
X15515000Y-10385000D02*
X15485000Y-10415000D01*
X15485000Y-10485000D02*
X15515000Y-10515000D01*
X15515000Y-10485000D02*
X15485000Y-10515000D01*
X15485000Y-10785000D02*
X15515000Y-10815000D01*
X15515000Y-10785000D02*
X15485000Y-10815000D01*
X15985000Y-9985000D02*
X16015000Y-10015000D01*
X16015000Y-9985000D02*
X15985000Y-10015000D01*
X15985000Y-10785000D02*
X16015000Y-10815000D01*
X16015000Y-10785000D02*
X15985000Y-10815000D01*
X16485000Y-9985000D02*
X16515000Y-10015000D01*
X16515000Y-9985000D02*
X16485000Y-10015000D01*
X16485000Y-10285000D02*
X16515000Y-10315000D01*
X16515000Y-10285000D02*
X16485000Y-10315000D01*
X16485000Y-10385000D02*
X16515000Y-10415000D01*
X16515000Y-10385000D02*
X16485000Y-10415000D01*
X16485000Y-10485000D02*
X16515000Y-10515000D01*
X16515000Y-10485000D02*
X16485000Y-10515000D01*
X16485000Y-10785000D02*
X16515000Y-10815000D01*
X16515000Y-10785000D02*
X16485000Y-10815000D01*
X16985000Y-9985000D02*
X17015000Y-10015000D01*
X17015000Y-9985000D02*
X16985000Y-10015000D01*
X16985000Y-10785000D02*
X17015000Y-10815000D01*
X17015000Y-10785000D02*
X16985000Y-10815000D01*
X17485000Y-9985000D02*
X17515000Y-10015000D01*
X17515000Y-9985000D02*
X17485000Y-10015000D01*
X17485000Y-10785000D02*
X17515000Y-10815000D01*
X17515000Y-10785000D02*
X17485000Y-10815000D01*
X17985000Y-9985000D02*
X18015000Y-10015000D01*
X18015000Y-9985000D02*
X17985000Y-10015000D01*
X17985000Y-10785000D02*
X18015000Y-10815000D01*
X18015000Y-10785000D02*
X17985000Y-10815000D01*
X18485000Y-9985000D02*
X18515000Y-10015000D01*
X18515000Y-9985000D02*
X18485000Y-10015000D01*
X18485000Y-10785000D02*
X18515000Y-10815000D01*
X18515000Y-10785000D02*
X18485000Y-10815000D01*
X18885000Y-10385000D02*
X18915000Y-10415000D01*
X18915000Y-10385000D02*
X18885000Y-10415000D01*
D13*
X11605000Y-10400000D02*
G75*
G02*
X11395000Y-10400000I-105000J0D01*
G01*
X11395000Y-10400000D02*
G75*
G02*
X11605000Y-10400000I105000J0D01*
G01*
X17605000Y-10400000D02*
G75*
G02*
X17395000Y-10400000I-105000J0D01*
G01*
X17395000Y-10400000D02*
G75*
G02*
X17605000Y-10400000I105000J0D01*
G01*
D11*
X10258277Y-11213984D02*
X10258277Y-11013984D01*
X10258277Y-11013984D02*
X10305896Y-11013984D01*
X10305896Y-11013984D02*
X10334467Y-11023508D01*
X10334467Y-11023508D02*
X10353515Y-11042555D01*
X10353515Y-11042555D02*
X10363039Y-11061603D01*
X10363039Y-11061603D02*
X10372563Y-11099698D01*
X10372563Y-11099698D02*
X10372563Y-11128270D01*
X10372563Y-11128270D02*
X10363039Y-11166365D01*
X10363039Y-11166365D02*
X10353515Y-11185412D01*
X10353515Y-11185412D02*
X10334467Y-11204460D01*
X10334467Y-11204460D02*
X10305896Y-11213984D01*
X10305896Y-11213984D02*
X10258277Y-11213984D01*
X10458277Y-11213984D02*
X10458277Y-11080650D01*
X10458277Y-11118746D02*
X10467801Y-11099698D01*
X10467801Y-11099698D02*
X10477324Y-11090174D01*
X10477324Y-11090174D02*
X10496372Y-11080650D01*
X10496372Y-11080650D02*
X10515420Y-11080650D01*
X10582086Y-11213984D02*
X10582086Y-11080650D01*
X10582086Y-11013984D02*
X10572563Y-11023508D01*
X10572563Y-11023508D02*
X10582086Y-11033031D01*
X10582086Y-11033031D02*
X10591610Y-11023508D01*
X10591610Y-11023508D02*
X10582086Y-11013984D01*
X10582086Y-11013984D02*
X10582086Y-11033031D01*
X10705896Y-11213984D02*
X10686848Y-11204460D01*
X10686848Y-11204460D02*
X10677324Y-11185412D01*
X10677324Y-11185412D02*
X10677324Y-11013984D01*
X10810658Y-11213984D02*
X10791610Y-11204460D01*
X10791610Y-11204460D02*
X10782086Y-11185412D01*
X10782086Y-11185412D02*
X10782086Y-11013984D01*
X11039229Y-11213984D02*
X11039229Y-11013984D01*
X11039229Y-11013984D02*
X11105896Y-11156841D01*
X11105896Y-11156841D02*
X11172563Y-11013984D01*
X11172563Y-11013984D02*
X11172563Y-11213984D01*
X11353515Y-11213984D02*
X11353515Y-11109222D01*
X11353515Y-11109222D02*
X11343991Y-11090174D01*
X11343991Y-11090174D02*
X11324943Y-11080650D01*
X11324943Y-11080650D02*
X11286848Y-11080650D01*
X11286848Y-11080650D02*
X11267801Y-11090174D01*
X11353515Y-11204460D02*
X11334467Y-11213984D01*
X11334467Y-11213984D02*
X11286848Y-11213984D01*
X11286848Y-11213984D02*
X11267801Y-11204460D01*
X11267801Y-11204460D02*
X11258277Y-11185412D01*
X11258277Y-11185412D02*
X11258277Y-11166365D01*
X11258277Y-11166365D02*
X11267801Y-11147317D01*
X11267801Y-11147317D02*
X11286848Y-11137793D01*
X11286848Y-11137793D02*
X11334467Y-11137793D01*
X11334467Y-11137793D02*
X11353515Y-11128270D01*
X11448753Y-11080650D02*
X11448753Y-11280650D01*
X11448753Y-11090174D02*
X11467801Y-11080650D01*
X11467801Y-11080650D02*
X11505896Y-11080650D01*
X11505896Y-11080650D02*
X11524943Y-11090174D01*
X11524943Y-11090174D02*
X11534467Y-11099698D01*
X11534467Y-11099698D02*
X11543991Y-11118746D01*
X11543991Y-11118746D02*
X11543991Y-11175889D01*
X11543991Y-11175889D02*
X11534467Y-11194936D01*
X11534467Y-11194936D02*
X11524943Y-11204460D01*
X11524943Y-11204460D02*
X11505896Y-11213984D01*
X11505896Y-11213984D02*
X11467801Y-11213984D01*
X11467801Y-11213984D02*
X11448753Y-11204460D01*
X11629705Y-11194936D02*
X11639229Y-11204460D01*
X11639229Y-11204460D02*
X11629705Y-11213984D01*
X11629705Y-11213984D02*
X11620182Y-11204460D01*
X11620182Y-11204460D02*
X11629705Y-11194936D01*
X11629705Y-11194936D02*
X11629705Y-11213984D01*
X11629705Y-11090174D02*
X11639229Y-11099698D01*
X11639229Y-11099698D02*
X11629705Y-11109222D01*
X11629705Y-11109222D02*
X11620182Y-11099698D01*
X11620182Y-11099698D02*
X11629705Y-11090174D01*
X11629705Y-11090174D02*
X11629705Y-11109222D01*
D12*
X9967500Y-11527500D02*
X9997500Y-11557500D01*
X9997500Y-11527500D02*
X9967500Y-11557500D01*
D11*
X10296372Y-11433984D02*
X10315420Y-11433984D01*
X10315420Y-11433984D02*
X10334467Y-11443508D01*
X10334467Y-11443508D02*
X10343991Y-11453031D01*
X10343991Y-11453031D02*
X10353515Y-11472079D01*
X10353515Y-11472079D02*
X10363039Y-11510174D01*
X10363039Y-11510174D02*
X10363039Y-11557793D01*
X10363039Y-11557793D02*
X10353515Y-11595888D01*
X10353515Y-11595888D02*
X10343991Y-11614936D01*
X10343991Y-11614936D02*
X10334467Y-11624460D01*
X10334467Y-11624460D02*
X10315420Y-11633984D01*
X10315420Y-11633984D02*
X10296372Y-11633984D01*
X10296372Y-11633984D02*
X10277324Y-11624460D01*
X10277324Y-11624460D02*
X10267801Y-11614936D01*
X10267801Y-11614936D02*
X10258277Y-11595888D01*
X10258277Y-11595888D02*
X10248753Y-11557793D01*
X10248753Y-11557793D02*
X10248753Y-11510174D01*
X10248753Y-11510174D02*
X10258277Y-11472079D01*
X10258277Y-11472079D02*
X10267801Y-11453031D01*
X10267801Y-11453031D02*
X10277324Y-11443508D01*
X10277324Y-11443508D02*
X10296372Y-11433984D01*
X10448753Y-11614936D02*
X10458277Y-11624460D01*
X10458277Y-11624460D02*
X10448753Y-11633984D01*
X10448753Y-11633984D02*
X10439229Y-11624460D01*
X10439229Y-11624460D02*
X10448753Y-11614936D01*
X10448753Y-11614936D02*
X10448753Y-11633984D01*
X10524944Y-11433984D02*
X10648753Y-11433984D01*
X10648753Y-11433984D02*
X10582086Y-11510174D01*
X10582086Y-11510174D02*
X10610658Y-11510174D01*
X10610658Y-11510174D02*
X10629705Y-11519698D01*
X10629705Y-11519698D02*
X10639229Y-11529222D01*
X10639229Y-11529222D02*
X10648753Y-11548269D01*
X10648753Y-11548269D02*
X10648753Y-11595888D01*
X10648753Y-11595888D02*
X10639229Y-11614936D01*
X10639229Y-11614936D02*
X10629705Y-11624460D01*
X10629705Y-11624460D02*
X10610658Y-11633984D01*
X10610658Y-11633984D02*
X10553515Y-11633984D01*
X10553515Y-11633984D02*
X10534467Y-11624460D01*
X10534467Y-11624460D02*
X10524944Y-11614936D01*
X10772563Y-11433984D02*
X10791610Y-11433984D01*
X10791610Y-11433984D02*
X10810658Y-11443508D01*
X10810658Y-11443508D02*
X10820182Y-11453031D01*
X10820182Y-11453031D02*
X10829705Y-11472079D01*
X10829705Y-11472079D02*
X10839229Y-11510174D01*
X10839229Y-11510174D02*
X10839229Y-11557793D01*
X10839229Y-11557793D02*
X10829705Y-11595888D01*
X10829705Y-11595888D02*
X10820182Y-11614936D01*
X10820182Y-11614936D02*
X10810658Y-11624460D01*
X10810658Y-11624460D02*
X10791610Y-11633984D01*
X10791610Y-11633984D02*
X10772563Y-11633984D01*
X10772563Y-11633984D02*
X10753515Y-11624460D01*
X10753515Y-11624460D02*
X10743991Y-11614936D01*
X10743991Y-11614936D02*
X10734467Y-11595888D01*
X10734467Y-11595888D02*
X10724944Y-11557793D01*
X10724944Y-11557793D02*
X10724944Y-11510174D01*
X10724944Y-11510174D02*
X10734467Y-11472079D01*
X10734467Y-11472079D02*
X10743991Y-11453031D01*
X10743991Y-11453031D02*
X10753515Y-11443508D01*
X10753515Y-11443508D02*
X10772563Y-11433984D01*
X10963039Y-11433984D02*
X10982086Y-11433984D01*
X10982086Y-11433984D02*
X11001134Y-11443508D01*
X11001134Y-11443508D02*
X11010658Y-11453031D01*
X11010658Y-11453031D02*
X11020182Y-11472079D01*
X11020182Y-11472079D02*
X11029705Y-11510174D01*
X11029705Y-11510174D02*
X11029705Y-11557793D01*
X11029705Y-11557793D02*
X11020182Y-11595888D01*
X11020182Y-11595888D02*
X11010658Y-11614936D01*
X11010658Y-11614936D02*
X11001134Y-11624460D01*
X11001134Y-11624460D02*
X10982086Y-11633984D01*
X10982086Y-11633984D02*
X10963039Y-11633984D01*
X10963039Y-11633984D02*
X10943991Y-11624460D01*
X10943991Y-11624460D02*
X10934467Y-11614936D01*
X10934467Y-11614936D02*
X10924944Y-11595888D01*
X10924944Y-11595888D02*
X10915420Y-11557793D01*
X10915420Y-11557793D02*
X10915420Y-11510174D01*
X10915420Y-11510174D02*
X10924944Y-11472079D01*
X10924944Y-11472079D02*
X10934467Y-11453031D01*
X10934467Y-11453031D02*
X10943991Y-11443508D01*
X10943991Y-11443508D02*
X10963039Y-11433984D01*
X11115420Y-11633984D02*
X11115420Y-11500650D01*
X11115420Y-11519698D02*
X11124944Y-11510174D01*
X11124944Y-11510174D02*
X11143991Y-11500650D01*
X11143991Y-11500650D02*
X11172563Y-11500650D01*
X11172563Y-11500650D02*
X11191610Y-11510174D01*
X11191610Y-11510174D02*
X11201134Y-11529222D01*
X11201134Y-11529222D02*
X11201134Y-11633984D01*
X11201134Y-11529222D02*
X11210658Y-11510174D01*
X11210658Y-11510174D02*
X11229705Y-11500650D01*
X11229705Y-11500650D02*
X11258277Y-11500650D01*
X11258277Y-11500650D02*
X11277324Y-11510174D01*
X11277324Y-11510174D02*
X11286848Y-11529222D01*
X11286848Y-11529222D02*
X11286848Y-11633984D01*
X11382086Y-11633984D02*
X11382086Y-11500650D01*
X11382086Y-11519698D02*
X11391610Y-11510174D01*
X11391610Y-11510174D02*
X11410658Y-11500650D01*
X11410658Y-11500650D02*
X11439229Y-11500650D01*
X11439229Y-11500650D02*
X11458277Y-11510174D01*
X11458277Y-11510174D02*
X11467801Y-11529222D01*
X11467801Y-11529222D02*
X11467801Y-11633984D01*
X11467801Y-11529222D02*
X11477324Y-11510174D01*
X11477324Y-11510174D02*
X11496372Y-11500650D01*
X11496372Y-11500650D02*
X11524943Y-11500650D01*
X11524943Y-11500650D02*
X11543991Y-11510174D01*
X11543991Y-11510174D02*
X11553515Y-11529222D01*
X11553515Y-11529222D02*
X11553515Y-11633984D01*
X11943991Y-11424460D02*
X11772563Y-11681603D01*
X12201134Y-11433984D02*
X12220182Y-11433984D01*
X12220182Y-11433984D02*
X12239229Y-11443508D01*
X12239229Y-11443508D02*
X12248753Y-11453031D01*
X12248753Y-11453031D02*
X12258277Y-11472079D01*
X12258277Y-11472079D02*
X12267801Y-11510174D01*
X12267801Y-11510174D02*
X12267801Y-11557793D01*
X12267801Y-11557793D02*
X12258277Y-11595888D01*
X12258277Y-11595888D02*
X12248753Y-11614936D01*
X12248753Y-11614936D02*
X12239229Y-11624460D01*
X12239229Y-11624460D02*
X12220182Y-11633984D01*
X12220182Y-11633984D02*
X12201134Y-11633984D01*
X12201134Y-11633984D02*
X12182086Y-11624460D01*
X12182086Y-11624460D02*
X12172563Y-11614936D01*
X12172563Y-11614936D02*
X12163039Y-11595888D01*
X12163039Y-11595888D02*
X12153515Y-11557793D01*
X12153515Y-11557793D02*
X12153515Y-11510174D01*
X12153515Y-11510174D02*
X12163039Y-11472079D01*
X12163039Y-11472079D02*
X12172563Y-11453031D01*
X12172563Y-11453031D02*
X12182086Y-11443508D01*
X12182086Y-11443508D02*
X12201134Y-11433984D01*
X12353515Y-11614936D02*
X12363039Y-11624460D01*
X12363039Y-11624460D02*
X12353515Y-11633984D01*
X12353515Y-11633984D02*
X12343991Y-11624460D01*
X12343991Y-11624460D02*
X12353515Y-11614936D01*
X12353515Y-11614936D02*
X12353515Y-11633984D01*
X12486848Y-11433984D02*
X12505896Y-11433984D01*
X12505896Y-11433984D02*
X12524944Y-11443508D01*
X12524944Y-11443508D02*
X12534467Y-11453031D01*
X12534467Y-11453031D02*
X12543991Y-11472079D01*
X12543991Y-11472079D02*
X12553515Y-11510174D01*
X12553515Y-11510174D02*
X12553515Y-11557793D01*
X12553515Y-11557793D02*
X12543991Y-11595888D01*
X12543991Y-11595888D02*
X12534467Y-11614936D01*
X12534467Y-11614936D02*
X12524944Y-11624460D01*
X12524944Y-11624460D02*
X12505896Y-11633984D01*
X12505896Y-11633984D02*
X12486848Y-11633984D01*
X12486848Y-11633984D02*
X12467801Y-11624460D01*
X12467801Y-11624460D02*
X12458277Y-11614936D01*
X12458277Y-11614936D02*
X12448753Y-11595888D01*
X12448753Y-11595888D02*
X12439229Y-11557793D01*
X12439229Y-11557793D02*
X12439229Y-11510174D01*
X12439229Y-11510174D02*
X12448753Y-11472079D01*
X12448753Y-11472079D02*
X12458277Y-11453031D01*
X12458277Y-11453031D02*
X12467801Y-11443508D01*
X12467801Y-11443508D02*
X12486848Y-11433984D01*
X12743991Y-11633984D02*
X12629706Y-11633984D01*
X12686848Y-11633984D02*
X12686848Y-11433984D01*
X12686848Y-11433984D02*
X12667801Y-11462555D01*
X12667801Y-11462555D02*
X12648753Y-11481603D01*
X12648753Y-11481603D02*
X12629706Y-11491127D01*
X12934467Y-11633984D02*
X12820182Y-11633984D01*
X12877325Y-11633984D02*
X12877325Y-11433984D01*
X12877325Y-11433984D02*
X12858277Y-11462555D01*
X12858277Y-11462555D02*
X12839229Y-11481603D01*
X12839229Y-11481603D02*
X12820182Y-11491127D01*
X13048753Y-11519698D02*
X13029706Y-11510174D01*
X13029706Y-11510174D02*
X13020182Y-11500650D01*
X13020182Y-11500650D02*
X13010658Y-11481603D01*
X13010658Y-11481603D02*
X13010658Y-11472079D01*
X13010658Y-11472079D02*
X13020182Y-11453031D01*
X13020182Y-11453031D02*
X13029706Y-11443508D01*
X13029706Y-11443508D02*
X13048753Y-11433984D01*
X13048753Y-11433984D02*
X13086848Y-11433984D01*
X13086848Y-11433984D02*
X13105896Y-11443508D01*
X13105896Y-11443508D02*
X13115420Y-11453031D01*
X13115420Y-11453031D02*
X13124944Y-11472079D01*
X13124944Y-11472079D02*
X13124944Y-11481603D01*
X13124944Y-11481603D02*
X13115420Y-11500650D01*
X13115420Y-11500650D02*
X13105896Y-11510174D01*
X13105896Y-11510174D02*
X13086848Y-11519698D01*
X13086848Y-11519698D02*
X13048753Y-11519698D01*
X13048753Y-11519698D02*
X13029706Y-11529222D01*
X13029706Y-11529222D02*
X13020182Y-11538746D01*
X13020182Y-11538746D02*
X13010658Y-11557793D01*
X13010658Y-11557793D02*
X13010658Y-11595888D01*
X13010658Y-11595888D02*
X13020182Y-11614936D01*
X13020182Y-11614936D02*
X13029706Y-11624460D01*
X13029706Y-11624460D02*
X13048753Y-11633984D01*
X13048753Y-11633984D02*
X13086848Y-11633984D01*
X13086848Y-11633984D02*
X13105896Y-11624460D01*
X13105896Y-11624460D02*
X13115420Y-11614936D01*
X13115420Y-11614936D02*
X13124944Y-11595888D01*
X13124944Y-11595888D02*
X13124944Y-11557793D01*
X13124944Y-11557793D02*
X13115420Y-11538746D01*
X13115420Y-11538746D02*
X13105896Y-11529222D01*
X13105896Y-11529222D02*
X13086848Y-11519698D01*
X13201134Y-11433984D02*
X13201134Y-11472079D01*
X13277325Y-11433984D02*
X13277325Y-11472079D01*
X13572563Y-11710174D02*
X13563039Y-11700650D01*
X13563039Y-11700650D02*
X13543991Y-11672079D01*
X13543991Y-11672079D02*
X13534468Y-11653031D01*
X13534468Y-11653031D02*
X13524944Y-11624460D01*
X13524944Y-11624460D02*
X13515420Y-11576841D01*
X13515420Y-11576841D02*
X13515420Y-11538746D01*
X13515420Y-11538746D02*
X13524944Y-11491127D01*
X13524944Y-11491127D02*
X13534468Y-11462555D01*
X13534468Y-11462555D02*
X13543991Y-11443508D01*
X13543991Y-11443508D02*
X13563039Y-11414936D01*
X13563039Y-11414936D02*
X13572563Y-11405412D01*
X13743991Y-11433984D02*
X13648753Y-11433984D01*
X13648753Y-11433984D02*
X13639229Y-11529222D01*
X13639229Y-11529222D02*
X13648753Y-11519698D01*
X13648753Y-11519698D02*
X13667801Y-11510174D01*
X13667801Y-11510174D02*
X13715420Y-11510174D01*
X13715420Y-11510174D02*
X13734468Y-11519698D01*
X13734468Y-11519698D02*
X13743991Y-11529222D01*
X13743991Y-11529222D02*
X13753515Y-11548269D01*
X13753515Y-11548269D02*
X13753515Y-11595888D01*
X13753515Y-11595888D02*
X13743991Y-11614936D01*
X13743991Y-11614936D02*
X13734468Y-11624460D01*
X13734468Y-11624460D02*
X13715420Y-11633984D01*
X13715420Y-11633984D02*
X13667801Y-11633984D01*
X13667801Y-11633984D02*
X13648753Y-11624460D01*
X13648753Y-11624460D02*
X13639229Y-11614936D01*
X13943991Y-11633984D02*
X13829706Y-11633984D01*
X13886848Y-11633984D02*
X13886848Y-11433984D01*
X13886848Y-11433984D02*
X13867801Y-11462555D01*
X13867801Y-11462555D02*
X13848753Y-11481603D01*
X13848753Y-11481603D02*
X13829706Y-11491127D01*
X14182087Y-11633984D02*
X14182087Y-11433984D01*
X14267801Y-11633984D02*
X14267801Y-11529222D01*
X14267801Y-11529222D02*
X14258277Y-11510174D01*
X14258277Y-11510174D02*
X14239230Y-11500650D01*
X14239230Y-11500650D02*
X14210658Y-11500650D01*
X14210658Y-11500650D02*
X14191610Y-11510174D01*
X14191610Y-11510174D02*
X14182087Y-11519698D01*
X14391610Y-11633984D02*
X14372563Y-11624460D01*
X14372563Y-11624460D02*
X14363039Y-11614936D01*
X14363039Y-11614936D02*
X14353515Y-11595888D01*
X14353515Y-11595888D02*
X14353515Y-11538746D01*
X14353515Y-11538746D02*
X14363039Y-11519698D01*
X14363039Y-11519698D02*
X14372563Y-11510174D01*
X14372563Y-11510174D02*
X14391610Y-11500650D01*
X14391610Y-11500650D02*
X14420182Y-11500650D01*
X14420182Y-11500650D02*
X14439230Y-11510174D01*
X14439230Y-11510174D02*
X14448753Y-11519698D01*
X14448753Y-11519698D02*
X14458277Y-11538746D01*
X14458277Y-11538746D02*
X14458277Y-11595888D01*
X14458277Y-11595888D02*
X14448753Y-11614936D01*
X14448753Y-11614936D02*
X14439230Y-11624460D01*
X14439230Y-11624460D02*
X14420182Y-11633984D01*
X14420182Y-11633984D02*
X14391610Y-11633984D01*
X14572563Y-11633984D02*
X14553515Y-11624460D01*
X14553515Y-11624460D02*
X14543991Y-11605412D01*
X14543991Y-11605412D02*
X14543991Y-11433984D01*
X14724944Y-11624460D02*
X14705896Y-11633984D01*
X14705896Y-11633984D02*
X14667801Y-11633984D01*
X14667801Y-11633984D02*
X14648753Y-11624460D01*
X14648753Y-11624460D02*
X14639230Y-11605412D01*
X14639230Y-11605412D02*
X14639230Y-11529222D01*
X14639230Y-11529222D02*
X14648753Y-11510174D01*
X14648753Y-11510174D02*
X14667801Y-11500650D01*
X14667801Y-11500650D02*
X14705896Y-11500650D01*
X14705896Y-11500650D02*
X14724944Y-11510174D01*
X14724944Y-11510174D02*
X14734468Y-11529222D01*
X14734468Y-11529222D02*
X14734468Y-11548269D01*
X14734468Y-11548269D02*
X14639230Y-11567317D01*
X14810658Y-11624460D02*
X14829706Y-11633984D01*
X14829706Y-11633984D02*
X14867801Y-11633984D01*
X14867801Y-11633984D02*
X14886849Y-11624460D01*
X14886849Y-11624460D02*
X14896372Y-11605412D01*
X14896372Y-11605412D02*
X14896372Y-11595888D01*
X14896372Y-11595888D02*
X14886849Y-11576841D01*
X14886849Y-11576841D02*
X14867801Y-11567317D01*
X14867801Y-11567317D02*
X14839230Y-11567317D01*
X14839230Y-11567317D02*
X14820182Y-11557793D01*
X14820182Y-11557793D02*
X14810658Y-11538746D01*
X14810658Y-11538746D02*
X14810658Y-11529222D01*
X14810658Y-11529222D02*
X14820182Y-11510174D01*
X14820182Y-11510174D02*
X14839230Y-11500650D01*
X14839230Y-11500650D02*
X14867801Y-11500650D01*
X14867801Y-11500650D02*
X14886849Y-11510174D01*
X14963039Y-11710174D02*
X14972563Y-11700650D01*
X14972563Y-11700650D02*
X14991611Y-11672079D01*
X14991611Y-11672079D02*
X15001134Y-11653031D01*
X15001134Y-11653031D02*
X15010658Y-11624460D01*
X15010658Y-11624460D02*
X15020182Y-11576841D01*
X15020182Y-11576841D02*
X15020182Y-11538746D01*
X15020182Y-11538746D02*
X15010658Y-11491127D01*
X15010658Y-11491127D02*
X15001134Y-11462555D01*
X15001134Y-11462555D02*
X14991611Y-11443508D01*
X14991611Y-11443508D02*
X14972563Y-11414936D01*
X14972563Y-11414936D02*
X14963039Y-11405412D01*
X9997500Y-11806500D02*
G75*
G02*
X9797500Y-11806500I-100000J0D01*
G01*
X9797500Y-11806500D02*
G75*
G02*
X9997500Y-11806500I100000J0D01*
G01*
X10248753Y-11717031D02*
X10258277Y-11707508D01*
X10258277Y-11707508D02*
X10277324Y-11697984D01*
X10277324Y-11697984D02*
X10324944Y-11697984D01*
X10324944Y-11697984D02*
X10343991Y-11707508D01*
X10343991Y-11707508D02*
X10353515Y-11717031D01*
X10353515Y-11717031D02*
X10363039Y-11736079D01*
X10363039Y-11736079D02*
X10363039Y-11755127D01*
X10363039Y-11755127D02*
X10353515Y-11783698D01*
X10353515Y-11783698D02*
X10239229Y-11897984D01*
X10239229Y-11897984D02*
X10363039Y-11897984D01*
X10448753Y-11878936D02*
X10458277Y-11888460D01*
X10458277Y-11888460D02*
X10448753Y-11897984D01*
X10448753Y-11897984D02*
X10439229Y-11888460D01*
X10439229Y-11888460D02*
X10448753Y-11878936D01*
X10448753Y-11878936D02*
X10448753Y-11897984D01*
X10648753Y-11897984D02*
X10534467Y-11897984D01*
X10591610Y-11897984D02*
X10591610Y-11697984D01*
X10591610Y-11697984D02*
X10572563Y-11726555D01*
X10572563Y-11726555D02*
X10553515Y-11745603D01*
X10553515Y-11745603D02*
X10534467Y-11755127D01*
X10772563Y-11697984D02*
X10791610Y-11697984D01*
X10791610Y-11697984D02*
X10810658Y-11707508D01*
X10810658Y-11707508D02*
X10820182Y-11717031D01*
X10820182Y-11717031D02*
X10829705Y-11736079D01*
X10829705Y-11736079D02*
X10839229Y-11774174D01*
X10839229Y-11774174D02*
X10839229Y-11821793D01*
X10839229Y-11821793D02*
X10829705Y-11859888D01*
X10829705Y-11859888D02*
X10820182Y-11878936D01*
X10820182Y-11878936D02*
X10810658Y-11888460D01*
X10810658Y-11888460D02*
X10791610Y-11897984D01*
X10791610Y-11897984D02*
X10772563Y-11897984D01*
X10772563Y-11897984D02*
X10753515Y-11888460D01*
X10753515Y-11888460D02*
X10743991Y-11878936D01*
X10743991Y-11878936D02*
X10734467Y-11859888D01*
X10734467Y-11859888D02*
X10724944Y-11821793D01*
X10724944Y-11821793D02*
X10724944Y-11774174D01*
X10724944Y-11774174D02*
X10734467Y-11736079D01*
X10734467Y-11736079D02*
X10743991Y-11717031D01*
X10743991Y-11717031D02*
X10753515Y-11707508D01*
X10753515Y-11707508D02*
X10772563Y-11697984D01*
X10963039Y-11697984D02*
X10982086Y-11697984D01*
X10982086Y-11697984D02*
X11001134Y-11707508D01*
X11001134Y-11707508D02*
X11010658Y-11717031D01*
X11010658Y-11717031D02*
X11020182Y-11736079D01*
X11020182Y-11736079D02*
X11029705Y-11774174D01*
X11029705Y-11774174D02*
X11029705Y-11821793D01*
X11029705Y-11821793D02*
X11020182Y-11859888D01*
X11020182Y-11859888D02*
X11010658Y-11878936D01*
X11010658Y-11878936D02*
X11001134Y-11888460D01*
X11001134Y-11888460D02*
X10982086Y-11897984D01*
X10982086Y-11897984D02*
X10963039Y-11897984D01*
X10963039Y-11897984D02*
X10943991Y-11888460D01*
X10943991Y-11888460D02*
X10934467Y-11878936D01*
X10934467Y-11878936D02*
X10924944Y-11859888D01*
X10924944Y-11859888D02*
X10915420Y-11821793D01*
X10915420Y-11821793D02*
X10915420Y-11774174D01*
X10915420Y-11774174D02*
X10924944Y-11736079D01*
X10924944Y-11736079D02*
X10934467Y-11717031D01*
X10934467Y-11717031D02*
X10943991Y-11707508D01*
X10943991Y-11707508D02*
X10963039Y-11697984D01*
X11115420Y-11897984D02*
X11115420Y-11764650D01*
X11115420Y-11783698D02*
X11124944Y-11774174D01*
X11124944Y-11774174D02*
X11143991Y-11764650D01*
X11143991Y-11764650D02*
X11172563Y-11764650D01*
X11172563Y-11764650D02*
X11191610Y-11774174D01*
X11191610Y-11774174D02*
X11201134Y-11793222D01*
X11201134Y-11793222D02*
X11201134Y-11897984D01*
X11201134Y-11793222D02*
X11210658Y-11774174D01*
X11210658Y-11774174D02*
X11229705Y-11764650D01*
X11229705Y-11764650D02*
X11258277Y-11764650D01*
X11258277Y-11764650D02*
X11277324Y-11774174D01*
X11277324Y-11774174D02*
X11286848Y-11793222D01*
X11286848Y-11793222D02*
X11286848Y-11897984D01*
X11382086Y-11897984D02*
X11382086Y-11764650D01*
X11382086Y-11783698D02*
X11391610Y-11774174D01*
X11391610Y-11774174D02*
X11410658Y-11764650D01*
X11410658Y-11764650D02*
X11439229Y-11764650D01*
X11439229Y-11764650D02*
X11458277Y-11774174D01*
X11458277Y-11774174D02*
X11467801Y-11793222D01*
X11467801Y-11793222D02*
X11467801Y-11897984D01*
X11467801Y-11793222D02*
X11477324Y-11774174D01*
X11477324Y-11774174D02*
X11496372Y-11764650D01*
X11496372Y-11764650D02*
X11524943Y-11764650D01*
X11524943Y-11764650D02*
X11543991Y-11774174D01*
X11543991Y-11774174D02*
X11553515Y-11793222D01*
X11553515Y-11793222D02*
X11553515Y-11897984D01*
X11943991Y-11688460D02*
X11772563Y-11945603D01*
X12201134Y-11697984D02*
X12220182Y-11697984D01*
X12220182Y-11697984D02*
X12239229Y-11707508D01*
X12239229Y-11707508D02*
X12248753Y-11717031D01*
X12248753Y-11717031D02*
X12258277Y-11736079D01*
X12258277Y-11736079D02*
X12267801Y-11774174D01*
X12267801Y-11774174D02*
X12267801Y-11821793D01*
X12267801Y-11821793D02*
X12258277Y-11859888D01*
X12258277Y-11859888D02*
X12248753Y-11878936D01*
X12248753Y-11878936D02*
X12239229Y-11888460D01*
X12239229Y-11888460D02*
X12220182Y-11897984D01*
X12220182Y-11897984D02*
X12201134Y-11897984D01*
X12201134Y-11897984D02*
X12182086Y-11888460D01*
X12182086Y-11888460D02*
X12172563Y-11878936D01*
X12172563Y-11878936D02*
X12163039Y-11859888D01*
X12163039Y-11859888D02*
X12153515Y-11821793D01*
X12153515Y-11821793D02*
X12153515Y-11774174D01*
X12153515Y-11774174D02*
X12163039Y-11736079D01*
X12163039Y-11736079D02*
X12172563Y-11717031D01*
X12172563Y-11717031D02*
X12182086Y-11707508D01*
X12182086Y-11707508D02*
X12201134Y-11697984D01*
X12353515Y-11878936D02*
X12363039Y-11888460D01*
X12363039Y-11888460D02*
X12353515Y-11897984D01*
X12353515Y-11897984D02*
X12343991Y-11888460D01*
X12343991Y-11888460D02*
X12353515Y-11878936D01*
X12353515Y-11878936D02*
X12353515Y-11897984D01*
X12486848Y-11697984D02*
X12505896Y-11697984D01*
X12505896Y-11697984D02*
X12524944Y-11707508D01*
X12524944Y-11707508D02*
X12534467Y-11717031D01*
X12534467Y-11717031D02*
X12543991Y-11736079D01*
X12543991Y-11736079D02*
X12553515Y-11774174D01*
X12553515Y-11774174D02*
X12553515Y-11821793D01*
X12553515Y-11821793D02*
X12543991Y-11859888D01*
X12543991Y-11859888D02*
X12534467Y-11878936D01*
X12534467Y-11878936D02*
X12524944Y-11888460D01*
X12524944Y-11888460D02*
X12505896Y-11897984D01*
X12505896Y-11897984D02*
X12486848Y-11897984D01*
X12486848Y-11897984D02*
X12467801Y-11888460D01*
X12467801Y-11888460D02*
X12458277Y-11878936D01*
X12458277Y-11878936D02*
X12448753Y-11859888D01*
X12448753Y-11859888D02*
X12439229Y-11821793D01*
X12439229Y-11821793D02*
X12439229Y-11774174D01*
X12439229Y-11774174D02*
X12448753Y-11736079D01*
X12448753Y-11736079D02*
X12458277Y-11717031D01*
X12458277Y-11717031D02*
X12467801Y-11707508D01*
X12467801Y-11707508D02*
X12486848Y-11697984D01*
X12667801Y-11783698D02*
X12648753Y-11774174D01*
X12648753Y-11774174D02*
X12639229Y-11764650D01*
X12639229Y-11764650D02*
X12629706Y-11745603D01*
X12629706Y-11745603D02*
X12629706Y-11736079D01*
X12629706Y-11736079D02*
X12639229Y-11717031D01*
X12639229Y-11717031D02*
X12648753Y-11707508D01*
X12648753Y-11707508D02*
X12667801Y-11697984D01*
X12667801Y-11697984D02*
X12705896Y-11697984D01*
X12705896Y-11697984D02*
X12724944Y-11707508D01*
X12724944Y-11707508D02*
X12734467Y-11717031D01*
X12734467Y-11717031D02*
X12743991Y-11736079D01*
X12743991Y-11736079D02*
X12743991Y-11745603D01*
X12743991Y-11745603D02*
X12734467Y-11764650D01*
X12734467Y-11764650D02*
X12724944Y-11774174D01*
X12724944Y-11774174D02*
X12705896Y-11783698D01*
X12705896Y-11783698D02*
X12667801Y-11783698D01*
X12667801Y-11783698D02*
X12648753Y-11793222D01*
X12648753Y-11793222D02*
X12639229Y-11802746D01*
X12639229Y-11802746D02*
X12629706Y-11821793D01*
X12629706Y-11821793D02*
X12629706Y-11859888D01*
X12629706Y-11859888D02*
X12639229Y-11878936D01*
X12639229Y-11878936D02*
X12648753Y-11888460D01*
X12648753Y-11888460D02*
X12667801Y-11897984D01*
X12667801Y-11897984D02*
X12705896Y-11897984D01*
X12705896Y-11897984D02*
X12724944Y-11888460D01*
X12724944Y-11888460D02*
X12734467Y-11878936D01*
X12734467Y-11878936D02*
X12743991Y-11859888D01*
X12743991Y-11859888D02*
X12743991Y-11821793D01*
X12743991Y-11821793D02*
X12734467Y-11802746D01*
X12734467Y-11802746D02*
X12724944Y-11793222D01*
X12724944Y-11793222D02*
X12705896Y-11783698D01*
X12820182Y-11717031D02*
X12829706Y-11707508D01*
X12829706Y-11707508D02*
X12848753Y-11697984D01*
X12848753Y-11697984D02*
X12896372Y-11697984D01*
X12896372Y-11697984D02*
X12915420Y-11707508D01*
X12915420Y-11707508D02*
X12924944Y-11717031D01*
X12924944Y-11717031D02*
X12934467Y-11736079D01*
X12934467Y-11736079D02*
X12934467Y-11755127D01*
X12934467Y-11755127D02*
X12924944Y-11783698D01*
X12924944Y-11783698D02*
X12810658Y-11897984D01*
X12810658Y-11897984D02*
X12934467Y-11897984D01*
X13001134Y-11697984D02*
X13134467Y-11697984D01*
X13134467Y-11697984D02*
X13048753Y-11897984D01*
X13201134Y-11697984D02*
X13201134Y-11736079D01*
X13277325Y-11697984D02*
X13277325Y-11736079D01*
X13572563Y-11974174D02*
X13563039Y-11964650D01*
X13563039Y-11964650D02*
X13543991Y-11936079D01*
X13543991Y-11936079D02*
X13534468Y-11917031D01*
X13534468Y-11917031D02*
X13524944Y-11888460D01*
X13524944Y-11888460D02*
X13515420Y-11840841D01*
X13515420Y-11840841D02*
X13515420Y-11802746D01*
X13515420Y-11802746D02*
X13524944Y-11755127D01*
X13524944Y-11755127D02*
X13534468Y-11726555D01*
X13534468Y-11726555D02*
X13543991Y-11707508D01*
X13543991Y-11707508D02*
X13563039Y-11678936D01*
X13563039Y-11678936D02*
X13572563Y-11669412D01*
X13639229Y-11717031D02*
X13648753Y-11707508D01*
X13648753Y-11707508D02*
X13667801Y-11697984D01*
X13667801Y-11697984D02*
X13715420Y-11697984D01*
X13715420Y-11697984D02*
X13734468Y-11707508D01*
X13734468Y-11707508D02*
X13743991Y-11717031D01*
X13743991Y-11717031D02*
X13753515Y-11736079D01*
X13753515Y-11736079D02*
X13753515Y-11755127D01*
X13753515Y-11755127D02*
X13743991Y-11783698D01*
X13743991Y-11783698D02*
X13629706Y-11897984D01*
X13629706Y-11897984D02*
X13753515Y-11897984D01*
X13991610Y-11897984D02*
X13991610Y-11697984D01*
X14077325Y-11897984D02*
X14077325Y-11793222D01*
X14077325Y-11793222D02*
X14067801Y-11774174D01*
X14067801Y-11774174D02*
X14048753Y-11764650D01*
X14048753Y-11764650D02*
X14020182Y-11764650D01*
X14020182Y-11764650D02*
X14001134Y-11774174D01*
X14001134Y-11774174D02*
X13991610Y-11783698D01*
X14201134Y-11897984D02*
X14182087Y-11888460D01*
X14182087Y-11888460D02*
X14172563Y-11878936D01*
X14172563Y-11878936D02*
X14163039Y-11859888D01*
X14163039Y-11859888D02*
X14163039Y-11802746D01*
X14163039Y-11802746D02*
X14172563Y-11783698D01*
X14172563Y-11783698D02*
X14182087Y-11774174D01*
X14182087Y-11774174D02*
X14201134Y-11764650D01*
X14201134Y-11764650D02*
X14229706Y-11764650D01*
X14229706Y-11764650D02*
X14248753Y-11774174D01*
X14248753Y-11774174D02*
X14258277Y-11783698D01*
X14258277Y-11783698D02*
X14267801Y-11802746D01*
X14267801Y-11802746D02*
X14267801Y-11859888D01*
X14267801Y-11859888D02*
X14258277Y-11878936D01*
X14258277Y-11878936D02*
X14248753Y-11888460D01*
X14248753Y-11888460D02*
X14229706Y-11897984D01*
X14229706Y-11897984D02*
X14201134Y-11897984D01*
X14382087Y-11897984D02*
X14363039Y-11888460D01*
X14363039Y-11888460D02*
X14353515Y-11869412D01*
X14353515Y-11869412D02*
X14353515Y-11697984D01*
X14534468Y-11888460D02*
X14515420Y-11897984D01*
X14515420Y-11897984D02*
X14477325Y-11897984D01*
X14477325Y-11897984D02*
X14458277Y-11888460D01*
X14458277Y-11888460D02*
X14448753Y-11869412D01*
X14448753Y-11869412D02*
X14448753Y-11793222D01*
X14448753Y-11793222D02*
X14458277Y-11774174D01*
X14458277Y-11774174D02*
X14477325Y-11764650D01*
X14477325Y-11764650D02*
X14515420Y-11764650D01*
X14515420Y-11764650D02*
X14534468Y-11774174D01*
X14534468Y-11774174D02*
X14543991Y-11793222D01*
X14543991Y-11793222D02*
X14543991Y-11812269D01*
X14543991Y-11812269D02*
X14448753Y-11831317D01*
X14620182Y-11888460D02*
X14639230Y-11897984D01*
X14639230Y-11897984D02*
X14677325Y-11897984D01*
X14677325Y-11897984D02*
X14696372Y-11888460D01*
X14696372Y-11888460D02*
X14705896Y-11869412D01*
X14705896Y-11869412D02*
X14705896Y-11859888D01*
X14705896Y-11859888D02*
X14696372Y-11840841D01*
X14696372Y-11840841D02*
X14677325Y-11831317D01*
X14677325Y-11831317D02*
X14648753Y-11831317D01*
X14648753Y-11831317D02*
X14629706Y-11821793D01*
X14629706Y-11821793D02*
X14620182Y-11802746D01*
X14620182Y-11802746D02*
X14620182Y-11793222D01*
X14620182Y-11793222D02*
X14629706Y-11774174D01*
X14629706Y-11774174D02*
X14648753Y-11764650D01*
X14648753Y-11764650D02*
X14677325Y-11764650D01*
X14677325Y-11764650D02*
X14696372Y-11774174D01*
X14772563Y-11974174D02*
X14782087Y-11964650D01*
X14782087Y-11964650D02*
X14801134Y-11936079D01*
X14801134Y-11936079D02*
X14810658Y-11917031D01*
X14810658Y-11917031D02*
X14820182Y-11888460D01*
X14820182Y-11888460D02*
X14829706Y-11840841D01*
X14829706Y-11840841D02*
X14829706Y-11802746D01*
X14829706Y-11802746D02*
X14820182Y-11755127D01*
X14820182Y-11755127D02*
X14810658Y-11726555D01*
X14810658Y-11726555D02*
X14801134Y-11707508D01*
X14801134Y-11707508D02*
X14782087Y-11678936D01*
X14782087Y-11678936D02*
X14772563Y-11669412D01*
M02*
