G04 #@! TF.GenerationSoftware,KiCad,Pcbnew,8.0.6*
G04 #@! TF.CreationDate,2025-04-03T21:43:26+02:00*
G04 #@! TF.ProjectId,UV-LEDs,55562d4c-4544-4732-9e6b-696361645f70,v1.0*
G04 #@! TF.SameCoordinates,Original*
G04 #@! TF.FileFunction,Copper,L1,Top*
G04 #@! TF.FilePolarity,Positive*
%FSLAX46Y46*%
G04 Gerber Fmt 4.6, Leading zero omitted, Abs format (unit mm)*
G04 Created by KiCad (PCBNEW 8.0.6) date 2025-04-03 21:43:26*
%MOMM*%
%LPD*%
G01*
G04 APERTURE LIST*
G04 Aperture macros list*
%AMRoundRect*
0 Rectangle with rounded corners*
0 $1 Rounding radius*
0 $2 $3 $4 $5 $6 $7 $8 $9 X,Y pos of 4 corners*
0 Add a 4 corners polygon primitive as box body*
4,1,4,$2,$3,$4,$5,$6,$7,$8,$9,$2,$3,0*
0 Add four circle primitives for the rounded corners*
1,1,$1+$1,$2,$3*
1,1,$1+$1,$4,$5*
1,1,$1+$1,$6,$7*
1,1,$1+$1,$8,$9*
0 Add four rect primitives between the rounded corners*
20,1,$1+$1,$2,$3,$4,$5,0*
20,1,$1+$1,$4,$5,$6,$7,0*
20,1,$1+$1,$6,$7,$8,$9,0*
20,1,$1+$1,$8,$9,$2,$3,0*%
G04 Aperture macros list end*
G04 #@! TA.AperFunction,SMDPad,CuDef*
%ADD10R,0.500000X3.300000*%
G04 #@! TD*
G04 #@! TA.AperFunction,SMDPad,CuDef*
%ADD11R,1.300000X3.300000*%
G04 #@! TD*
G04 #@! TA.AperFunction,ComponentPad*
%ADD12RoundRect,0.250002X-1.699998X-1.699998X1.699998X-1.699998X1.699998X1.699998X-1.699998X1.699998X0*%
G04 #@! TD*
G04 #@! TA.AperFunction,ViaPad*
%ADD13C,0.600000*%
G04 #@! TD*
G04 APERTURE END LIST*
D10*
X163600000Y-104000000D03*
X166400000Y-104000000D03*
D11*
X165000000Y-104000000D03*
D10*
X143600000Y-104000000D03*
X146400000Y-104000000D03*
D11*
X145000000Y-104000000D03*
D10*
X123600000Y-104000000D03*
X126400000Y-104000000D03*
D11*
X125000000Y-104000000D03*
D10*
X133600000Y-104000000D03*
X136400000Y-104000000D03*
D11*
X135000000Y-104000000D03*
D12*
X115000000Y-104000000D03*
X175000000Y-104000000D03*
D10*
X153600000Y-104000000D03*
X156400000Y-104000000D03*
D11*
X155000000Y-104000000D03*
D13*
X165000000Y-104000000D03*
X155000000Y-105000000D03*
X155000000Y-108000000D03*
X185000000Y-100000000D03*
X101000000Y-104000000D03*
X105000000Y-100000000D03*
X115000000Y-100000000D03*
X165000000Y-108000000D03*
X170000000Y-100000000D03*
X180000000Y-100000000D03*
X145000000Y-100000000D03*
X189000000Y-104000000D03*
X135000000Y-104000000D03*
X175000000Y-100000000D03*
X160000000Y-108000000D03*
X125000000Y-104000000D03*
X155000000Y-104000000D03*
X150000000Y-108000000D03*
X120000000Y-100000000D03*
X180000000Y-108000000D03*
X125000000Y-105000000D03*
X125000000Y-103000000D03*
X135000000Y-103000000D03*
X160000000Y-100000000D03*
X165000000Y-100000000D03*
X145000000Y-105000000D03*
X115000000Y-108000000D03*
X105000000Y-108000000D03*
X165000000Y-105000000D03*
X145000000Y-108000000D03*
X155000000Y-103000000D03*
X110000000Y-108000000D03*
X140000000Y-108000000D03*
X135000000Y-100000000D03*
X145000000Y-103000000D03*
X110000000Y-100000000D03*
X175000000Y-108000000D03*
X140000000Y-100000000D03*
X150000000Y-100000000D03*
X130000000Y-100000000D03*
X145000000Y-104000000D03*
X130000000Y-108000000D03*
X135000000Y-108000000D03*
X120000000Y-108000000D03*
X155000000Y-100000000D03*
X170000000Y-108000000D03*
X125000000Y-100000000D03*
X165000000Y-103000000D03*
X135000000Y-105000000D03*
X185000000Y-108000000D03*
X125000000Y-108000000D03*
G04 #@! TA.AperFunction,Conductor*
G36*
X123943039Y-101019685D02*
G01*
X123988794Y-101072489D01*
X124000000Y-101124000D01*
X124000000Y-101941102D01*
X123980315Y-102008141D01*
X123975267Y-102015413D01*
X123906203Y-102107669D01*
X123906202Y-102107671D01*
X123855908Y-102242517D01*
X123849501Y-102302116D01*
X123849500Y-102302135D01*
X123849500Y-105697870D01*
X123849501Y-105697876D01*
X123855908Y-105757483D01*
X123906202Y-105892328D01*
X123906204Y-105892331D01*
X123975266Y-105984586D01*
X123999684Y-106050050D01*
X124000000Y-106058897D01*
X124000000Y-106876000D01*
X123980315Y-106943039D01*
X123927511Y-106988794D01*
X123876000Y-107000000D01*
X112124000Y-107000000D01*
X112056961Y-106980315D01*
X112011206Y-106927511D01*
X112000000Y-106876000D01*
X112000000Y-105749984D01*
X112550001Y-105749984D01*
X112560494Y-105852695D01*
X112615641Y-106019117D01*
X112615643Y-106019122D01*
X112707684Y-106168344D01*
X112831655Y-106292315D01*
X112980877Y-106384356D01*
X112980882Y-106384358D01*
X113147304Y-106439505D01*
X113147311Y-106439506D01*
X113250021Y-106449999D01*
X113999999Y-106449999D01*
X116000000Y-106449999D01*
X116749970Y-106449999D01*
X116749984Y-106449998D01*
X116852695Y-106439505D01*
X117019117Y-106384358D01*
X117019122Y-106384356D01*
X117168344Y-106292315D01*
X117292315Y-106168344D01*
X117384356Y-106019122D01*
X117384358Y-106019117D01*
X117439505Y-105852695D01*
X117439506Y-105852688D01*
X117449999Y-105749984D01*
X117450000Y-105749971D01*
X117450000Y-105000000D01*
X116000000Y-105000000D01*
X116000000Y-106449999D01*
X113999999Y-106449999D01*
X114000000Y-106449998D01*
X114000000Y-105000000D01*
X112550001Y-105000000D01*
X112550001Y-105749984D01*
X112000000Y-105749984D01*
X112000000Y-103896584D01*
X113950000Y-103896584D01*
X113950000Y-104103416D01*
X113990350Y-104306274D01*
X114069502Y-104497362D01*
X114184411Y-104669336D01*
X114330664Y-104815589D01*
X114502638Y-104930498D01*
X114693726Y-105009650D01*
X114896584Y-105050000D01*
X115103416Y-105050000D01*
X115306274Y-105009650D01*
X115497362Y-104930498D01*
X115669336Y-104815589D01*
X115815589Y-104669336D01*
X115930498Y-104497362D01*
X116009650Y-104306274D01*
X116050000Y-104103416D01*
X116050000Y-103896584D01*
X116009650Y-103693726D01*
X115930498Y-103502638D01*
X115815589Y-103330664D01*
X115669336Y-103184411D01*
X115497362Y-103069502D01*
X115329571Y-103000000D01*
X116000000Y-103000000D01*
X117449999Y-103000000D01*
X117449999Y-102250030D01*
X117449998Y-102250015D01*
X117439505Y-102147304D01*
X117384358Y-101980882D01*
X117384356Y-101980877D01*
X117292315Y-101831655D01*
X117168344Y-101707684D01*
X117019122Y-101615643D01*
X117019117Y-101615641D01*
X116852695Y-101560494D01*
X116852688Y-101560493D01*
X116749984Y-101550000D01*
X116000000Y-101550000D01*
X116000000Y-103000000D01*
X115329571Y-103000000D01*
X115306274Y-102990350D01*
X115103416Y-102950000D01*
X114896584Y-102950000D01*
X114693726Y-102990350D01*
X114502638Y-103069502D01*
X114330664Y-103184411D01*
X114184411Y-103330664D01*
X114069502Y-103502638D01*
X113990350Y-103693726D01*
X113950000Y-103896584D01*
X112000000Y-103896584D01*
X112000000Y-102250015D01*
X112550000Y-102250015D01*
X112550000Y-103000000D01*
X114000000Y-103000000D01*
X114000000Y-101550000D01*
X113250030Y-101550000D01*
X113250014Y-101550001D01*
X113147304Y-101560494D01*
X112980882Y-101615641D01*
X112980877Y-101615643D01*
X112831655Y-101707684D01*
X112707684Y-101831655D01*
X112615643Y-101980877D01*
X112615641Y-101980882D01*
X112560494Y-102147304D01*
X112560493Y-102147311D01*
X112550000Y-102250015D01*
X112000000Y-102250015D01*
X112000000Y-101124000D01*
X112019685Y-101056961D01*
X112072489Y-101011206D01*
X112124000Y-101000000D01*
X123876000Y-101000000D01*
X123943039Y-101019685D01*
G37*
G04 #@! TD.AperFunction*
G04 #@! TA.AperFunction,Conductor*
G36*
X143846288Y-101018954D02*
G01*
X143927070Y-101072930D01*
X143981046Y-101153712D01*
X144000000Y-101249000D01*
X144000000Y-101899497D01*
X143981046Y-101994785D01*
X143950335Y-102048717D01*
X143906205Y-102107667D01*
X143855908Y-102242518D01*
X143849500Y-102302123D01*
X143849500Y-105697865D01*
X143849500Y-105697868D01*
X143849501Y-105697872D01*
X143851567Y-105717093D01*
X143855908Y-105757480D01*
X143855909Y-105757483D01*
X143906204Y-105892331D01*
X143950335Y-105951282D01*
X143992265Y-106038921D01*
X144000000Y-106100502D01*
X144000000Y-106751000D01*
X143981046Y-106846288D01*
X143927070Y-106927070D01*
X143846288Y-106981046D01*
X143751000Y-107000000D01*
X136249000Y-107000000D01*
X136153712Y-106981046D01*
X136072930Y-106927070D01*
X136018954Y-106846288D01*
X136000000Y-106751000D01*
X136000000Y-106100502D01*
X136018954Y-106005214D01*
X136049663Y-105951284D01*
X136093796Y-105892331D01*
X136144091Y-105757483D01*
X136150500Y-105697873D01*
X136150499Y-102302128D01*
X136144091Y-102242517D01*
X136093796Y-102107669D01*
X136049665Y-102048717D01*
X136007735Y-101961077D01*
X136000000Y-101899497D01*
X136000000Y-101249000D01*
X136018954Y-101153712D01*
X136072930Y-101072930D01*
X136153712Y-101018954D01*
X136249000Y-101000000D01*
X143751000Y-101000000D01*
X143846288Y-101018954D01*
G37*
G04 #@! TD.AperFunction*
G04 #@! TA.AperFunction,Conductor*
G36*
X133846288Y-101018954D02*
G01*
X133927070Y-101072930D01*
X133981046Y-101153712D01*
X134000000Y-101249000D01*
X134000000Y-101899497D01*
X133981046Y-101994785D01*
X133950335Y-102048717D01*
X133906205Y-102107667D01*
X133855908Y-102242518D01*
X133849500Y-102302123D01*
X133849500Y-105697865D01*
X133849500Y-105697868D01*
X133849501Y-105697872D01*
X133851567Y-105717093D01*
X133855908Y-105757480D01*
X133855909Y-105757483D01*
X133906204Y-105892331D01*
X133950335Y-105951282D01*
X133992265Y-106038921D01*
X134000000Y-106100502D01*
X134000000Y-106751000D01*
X133981046Y-106846288D01*
X133927070Y-106927070D01*
X133846288Y-106981046D01*
X133751000Y-107000000D01*
X126249000Y-107000000D01*
X126153712Y-106981046D01*
X126072930Y-106927070D01*
X126018954Y-106846288D01*
X126000000Y-106751000D01*
X126000000Y-106100502D01*
X126018954Y-106005214D01*
X126049663Y-105951284D01*
X126093796Y-105892331D01*
X126144091Y-105757483D01*
X126150500Y-105697873D01*
X126150499Y-102302128D01*
X126144091Y-102242517D01*
X126093796Y-102107669D01*
X126049665Y-102048717D01*
X126007735Y-101961077D01*
X126000000Y-101899497D01*
X126000000Y-101249000D01*
X126018954Y-101153712D01*
X126072930Y-101072930D01*
X126153712Y-101018954D01*
X126249000Y-101000000D01*
X133751000Y-101000000D01*
X133846288Y-101018954D01*
G37*
G04 #@! TD.AperFunction*
G04 #@! TA.AperFunction,Conductor*
G36*
X153846288Y-101018954D02*
G01*
X153927070Y-101072930D01*
X153981046Y-101153712D01*
X154000000Y-101249000D01*
X154000000Y-101899497D01*
X153981046Y-101994785D01*
X153950335Y-102048717D01*
X153906205Y-102107667D01*
X153855908Y-102242518D01*
X153849500Y-102302123D01*
X153849500Y-105697865D01*
X153849500Y-105697868D01*
X153849501Y-105697872D01*
X153851567Y-105717093D01*
X153855908Y-105757480D01*
X153855909Y-105757483D01*
X153906204Y-105892331D01*
X153950335Y-105951282D01*
X153992265Y-106038921D01*
X154000000Y-106100502D01*
X154000000Y-106751000D01*
X153981046Y-106846288D01*
X153927070Y-106927070D01*
X153846288Y-106981046D01*
X153751000Y-107000000D01*
X146249000Y-107000000D01*
X146153712Y-106981046D01*
X146072930Y-106927070D01*
X146018954Y-106846288D01*
X146000000Y-106751000D01*
X146000000Y-106100502D01*
X146018954Y-106005214D01*
X146049663Y-105951284D01*
X146093796Y-105892331D01*
X146144091Y-105757483D01*
X146150500Y-105697873D01*
X146150499Y-102302128D01*
X146144091Y-102242517D01*
X146093796Y-102107669D01*
X146049665Y-102048717D01*
X146007735Y-101961077D01*
X146000000Y-101899497D01*
X146000000Y-101249000D01*
X146018954Y-101153712D01*
X146072930Y-101072930D01*
X146153712Y-101018954D01*
X146249000Y-101000000D01*
X153751000Y-101000000D01*
X153846288Y-101018954D01*
G37*
G04 #@! TD.AperFunction*
G04 #@! TA.AperFunction,Conductor*
G36*
X163846288Y-101018954D02*
G01*
X163927070Y-101072930D01*
X163981046Y-101153712D01*
X164000000Y-101249000D01*
X164000000Y-101899497D01*
X163981046Y-101994785D01*
X163950335Y-102048717D01*
X163906205Y-102107667D01*
X163855908Y-102242518D01*
X163849500Y-102302123D01*
X163849500Y-105697865D01*
X163849500Y-105697868D01*
X163849501Y-105697872D01*
X163851567Y-105717093D01*
X163855908Y-105757480D01*
X163855909Y-105757483D01*
X163906204Y-105892331D01*
X163950335Y-105951282D01*
X163992265Y-106038921D01*
X164000000Y-106100502D01*
X164000000Y-106751000D01*
X163981046Y-106846288D01*
X163927070Y-106927070D01*
X163846288Y-106981046D01*
X163751000Y-107000000D01*
X156249000Y-107000000D01*
X156153712Y-106981046D01*
X156072930Y-106927070D01*
X156018954Y-106846288D01*
X156000000Y-106751000D01*
X156000000Y-106100502D01*
X156018954Y-106005214D01*
X156049663Y-105951284D01*
X156093796Y-105892331D01*
X156144091Y-105757483D01*
X156150500Y-105697873D01*
X156150499Y-102302128D01*
X156144091Y-102242517D01*
X156093796Y-102107669D01*
X156049665Y-102048717D01*
X156007735Y-101961077D01*
X156000000Y-101899497D01*
X156000000Y-101249000D01*
X156018954Y-101153712D01*
X156072930Y-101072930D01*
X156153712Y-101018954D01*
X156249000Y-101000000D01*
X163751000Y-101000000D01*
X163846288Y-101018954D01*
G37*
G04 #@! TD.AperFunction*
G04 #@! TA.AperFunction,Conductor*
G36*
X178846288Y-101018954D02*
G01*
X178927070Y-101072930D01*
X178981046Y-101153712D01*
X179000000Y-101249000D01*
X179000000Y-106751000D01*
X178981046Y-106846288D01*
X178927070Y-106927070D01*
X178846288Y-106981046D01*
X178751000Y-107000000D01*
X166249000Y-107000000D01*
X166153712Y-106981046D01*
X166072930Y-106927070D01*
X166018954Y-106846288D01*
X166000000Y-106751000D01*
X166000000Y-106100502D01*
X166018954Y-106005214D01*
X166049663Y-105951284D01*
X166093796Y-105892331D01*
X166144091Y-105757483D01*
X166150500Y-105697873D01*
X166150500Y-105000001D01*
X172550001Y-105000001D01*
X172550001Y-105749982D01*
X172560494Y-105852697D01*
X172560495Y-105852700D01*
X172615640Y-106019117D01*
X172707681Y-106168340D01*
X172831659Y-106292318D01*
X172980883Y-106384359D01*
X172980881Y-106384359D01*
X173147300Y-106439504D01*
X173147307Y-106439505D01*
X173250025Y-106449999D01*
X173999998Y-106449999D01*
X174000000Y-106449998D01*
X174000000Y-105000001D01*
X173999999Y-105000000D01*
X172550002Y-105000000D01*
X172550001Y-105000001D01*
X166150500Y-105000001D01*
X166150500Y-103896584D01*
X173950000Y-103896584D01*
X173950000Y-104103416D01*
X173990350Y-104306274D01*
X174069502Y-104497362D01*
X174184411Y-104669336D01*
X174330664Y-104815589D01*
X174502638Y-104930498D01*
X174693726Y-105009650D01*
X174896584Y-105050000D01*
X175103416Y-105050000D01*
X175306274Y-105009650D01*
X175329569Y-105000001D01*
X176000000Y-105000001D01*
X176000000Y-106449998D01*
X176000001Y-106449999D01*
X176749966Y-106449999D01*
X176749982Y-106449998D01*
X176852697Y-106439505D01*
X176852700Y-106439504D01*
X177019117Y-106384359D01*
X177168340Y-106292318D01*
X177292318Y-106168340D01*
X177384359Y-106019117D01*
X177439504Y-105852699D01*
X177439505Y-105852692D01*
X177449999Y-105749979D01*
X177450000Y-105749969D01*
X177450000Y-105000001D01*
X177449999Y-105000000D01*
X176000001Y-105000000D01*
X176000000Y-105000001D01*
X175329569Y-105000001D01*
X175497362Y-104930498D01*
X175669336Y-104815589D01*
X175815589Y-104669336D01*
X175930498Y-104497362D01*
X176009650Y-104306274D01*
X176050000Y-104103416D01*
X176050000Y-103896584D01*
X176009650Y-103693726D01*
X175930498Y-103502638D01*
X175815589Y-103330664D01*
X175669336Y-103184411D01*
X175497362Y-103069502D01*
X175306274Y-102990350D01*
X175103416Y-102950000D01*
X174896584Y-102950000D01*
X174693726Y-102990350D01*
X174502638Y-103069502D01*
X174330664Y-103184411D01*
X174184411Y-103330664D01*
X174069502Y-103502638D01*
X173990350Y-103693726D01*
X173950000Y-103896584D01*
X166150500Y-103896584D01*
X166150499Y-102302128D01*
X166144898Y-102250020D01*
X172550000Y-102250020D01*
X172550000Y-102999999D01*
X172550001Y-103000000D01*
X173999999Y-103000000D01*
X174000000Y-102999999D01*
X174000000Y-101550001D01*
X176000000Y-101550001D01*
X176000000Y-102999999D01*
X176000001Y-103000000D01*
X177449998Y-103000000D01*
X177449999Y-102999999D01*
X177449999Y-102250034D01*
X177449998Y-102250017D01*
X177439505Y-102147302D01*
X177439504Y-102147299D01*
X177384359Y-101980882D01*
X177292318Y-101831659D01*
X177168340Y-101707681D01*
X177019116Y-101615640D01*
X177019118Y-101615640D01*
X176852699Y-101560495D01*
X176852692Y-101560494D01*
X176749979Y-101550000D01*
X176000001Y-101550000D01*
X176000000Y-101550001D01*
X174000000Y-101550001D01*
X173999999Y-101550000D01*
X173250025Y-101550000D01*
X173147302Y-101560494D01*
X173147299Y-101560495D01*
X172980882Y-101615640D01*
X172831659Y-101707681D01*
X172707681Y-101831659D01*
X172615640Y-101980882D01*
X172560495Y-102147300D01*
X172560494Y-102147307D01*
X172550000Y-102250020D01*
X166144898Y-102250020D01*
X166144091Y-102242517D01*
X166093796Y-102107669D01*
X166049665Y-102048717D01*
X166007735Y-101961077D01*
X166000000Y-101899497D01*
X166000000Y-101249000D01*
X166018954Y-101153712D01*
X166072930Y-101072930D01*
X166153712Y-101018954D01*
X166249000Y-101000000D01*
X178751000Y-101000000D01*
X178846288Y-101018954D01*
G37*
G04 #@! TD.AperFunction*
G04 #@! TA.AperFunction,Conductor*
G36*
X185002855Y-99500632D02*
G01*
X185409440Y-99519429D01*
X185420837Y-99520485D01*
X185821117Y-99576322D01*
X185832353Y-99578423D01*
X186225776Y-99670955D01*
X186236766Y-99674082D01*
X186619989Y-99802525D01*
X186630643Y-99806653D01*
X187000365Y-99969901D01*
X187010592Y-99974993D01*
X187248010Y-100107234D01*
X187363669Y-100171656D01*
X187373407Y-100177685D01*
X187706830Y-100406084D01*
X187715967Y-100412985D01*
X188004555Y-100652625D01*
X188026883Y-100671166D01*
X188035347Y-100678882D01*
X188321117Y-100964652D01*
X188328833Y-100973116D01*
X188587012Y-101284029D01*
X188593915Y-101293169D01*
X188822314Y-101626592D01*
X188828343Y-101636330D01*
X188847978Y-101671581D01*
X188974926Y-101899497D01*
X189024999Y-101989394D01*
X189030102Y-101999643D01*
X189193341Y-102369343D01*
X189197479Y-102380023D01*
X189325913Y-102763220D01*
X189329047Y-102774236D01*
X189421573Y-103167633D01*
X189423678Y-103178892D01*
X189479513Y-103579160D01*
X189480570Y-103590564D01*
X189499235Y-103994273D01*
X189499235Y-104005727D01*
X189480570Y-104409435D01*
X189479513Y-104420839D01*
X189423678Y-104821107D01*
X189421573Y-104832366D01*
X189329047Y-105225763D01*
X189325913Y-105236779D01*
X189197479Y-105619976D01*
X189193341Y-105630656D01*
X189030104Y-106000352D01*
X189024999Y-106010605D01*
X188828343Y-106363669D01*
X188822314Y-106373407D01*
X188593915Y-106706830D01*
X188587012Y-106715970D01*
X188328833Y-107026883D01*
X188321117Y-107035347D01*
X188035347Y-107321117D01*
X188026883Y-107328833D01*
X187715970Y-107587012D01*
X187706830Y-107593915D01*
X187373407Y-107822314D01*
X187363669Y-107828343D01*
X187010605Y-108024999D01*
X187000352Y-108030104D01*
X186630656Y-108193341D01*
X186619976Y-108197479D01*
X186236779Y-108325913D01*
X186225763Y-108329047D01*
X185832366Y-108421573D01*
X185821107Y-108423678D01*
X185420839Y-108479513D01*
X185409435Y-108480570D01*
X185002855Y-108499368D01*
X184997128Y-108499500D01*
X105002872Y-108499500D01*
X104997145Y-108499368D01*
X104590564Y-108480570D01*
X104579160Y-108479513D01*
X104178892Y-108423678D01*
X104167633Y-108421573D01*
X103774236Y-108329047D01*
X103763220Y-108325913D01*
X103581560Y-108265027D01*
X103380021Y-108197478D01*
X103369343Y-108193341D01*
X102999647Y-108030104D01*
X102989399Y-108025001D01*
X102874474Y-107960989D01*
X102636330Y-107828343D01*
X102626592Y-107822314D01*
X102293169Y-107593915D01*
X102284029Y-107587012D01*
X101973116Y-107328833D01*
X101964652Y-107321117D01*
X101678882Y-107035347D01*
X101671166Y-107026883D01*
X101412985Y-106715967D01*
X101406084Y-106706830D01*
X101358706Y-106637667D01*
X101177685Y-106373407D01*
X101171656Y-106363669D01*
X101084370Y-106206961D01*
X100974993Y-106010592D01*
X100969901Y-106000365D01*
X100806653Y-105630643D01*
X100802525Y-105619989D01*
X100674082Y-105236766D01*
X100670955Y-105225776D01*
X100578423Y-104832353D01*
X100576322Y-104821117D01*
X100520485Y-104420837D01*
X100519429Y-104409435D01*
X100507901Y-104160085D01*
X100500764Y-104005710D01*
X100500764Y-103994289D01*
X100507901Y-103839914D01*
X102149500Y-103839914D01*
X102149500Y-104160085D01*
X102185345Y-104478216D01*
X102185347Y-104478228D01*
X102256589Y-104790362D01*
X102256590Y-104790364D01*
X102362332Y-105092559D01*
X102501243Y-105381010D01*
X102501245Y-105381013D01*
X102671581Y-105652101D01*
X102871198Y-105902413D01*
X103097587Y-106128802D01*
X103347899Y-106328419D01*
X103618987Y-106498755D01*
X103907442Y-106637668D01*
X104209637Y-106743410D01*
X104521771Y-106814653D01*
X104839915Y-106850499D01*
X104839916Y-106850500D01*
X104839919Y-106850500D01*
X105160084Y-106850500D01*
X105160084Y-106850499D01*
X105478229Y-106814653D01*
X105790363Y-106743410D01*
X106092558Y-106637668D01*
X106381013Y-106498755D01*
X106652101Y-106328419D01*
X106902413Y-106128802D01*
X107128802Y-105902413D01*
X107328419Y-105652101D01*
X107498755Y-105381013D01*
X107637668Y-105092558D01*
X107743410Y-104790363D01*
X107814653Y-104478229D01*
X107850500Y-104160081D01*
X107850500Y-103839919D01*
X107814653Y-103521771D01*
X107743410Y-103209637D01*
X107637668Y-102907442D01*
X107498755Y-102618987D01*
X107328419Y-102347899D01*
X107128802Y-102097587D01*
X106902413Y-101871198D01*
X106652101Y-101671581D01*
X106381013Y-101501245D01*
X106381010Y-101501243D01*
X106092559Y-101362332D01*
X105790364Y-101256590D01*
X105790362Y-101256589D01*
X105549471Y-101201607D01*
X105478229Y-101185347D01*
X105478225Y-101185346D01*
X105478216Y-101185345D01*
X105160085Y-101149500D01*
X105160081Y-101149500D01*
X104839919Y-101149500D01*
X104839914Y-101149500D01*
X104521783Y-101185345D01*
X104521771Y-101185347D01*
X104209637Y-101256589D01*
X104209635Y-101256590D01*
X103907440Y-101362332D01*
X103618989Y-101501243D01*
X103347900Y-101671580D01*
X103097587Y-101871197D01*
X102871197Y-102097587D01*
X102671580Y-102347900D01*
X102501243Y-102618989D01*
X102362332Y-102907440D01*
X102256590Y-103209635D01*
X102256589Y-103209637D01*
X102185347Y-103521771D01*
X102185345Y-103521783D01*
X102149500Y-103839914D01*
X100507901Y-103839914D01*
X100519429Y-103590557D01*
X100520486Y-103579160D01*
X100528490Y-103521783D01*
X100576323Y-103178878D01*
X100578422Y-103167649D01*
X100670957Y-102774217D01*
X100674080Y-102763238D01*
X100802527Y-102380002D01*
X100806650Y-102369363D01*
X100969905Y-101999625D01*
X100974988Y-101989416D01*
X101171659Y-101636324D01*
X101177685Y-101626592D01*
X101406094Y-101293154D01*
X101412976Y-101284042D01*
X101545873Y-101124000D01*
X111494500Y-101124000D01*
X111494500Y-102275768D01*
X111494500Y-103946368D01*
X111494500Y-105724225D01*
X111494500Y-106876000D01*
X111494501Y-106876009D01*
X111506052Y-106983450D01*
X111506054Y-106983462D01*
X111517260Y-107034972D01*
X111551383Y-107137497D01*
X111551386Y-107137503D01*
X111629171Y-107258537D01*
X111629179Y-107258548D01*
X111674923Y-107311340D01*
X111674926Y-107311343D01*
X111674930Y-107311347D01*
X111783664Y-107405567D01*
X111783667Y-107405568D01*
X111783668Y-107405569D01*
X111910413Y-107463453D01*
X111914541Y-107465338D01*
X111981580Y-107485023D01*
X111981584Y-107485024D01*
X112124000Y-107505500D01*
X112124003Y-107505500D01*
X123875990Y-107505500D01*
X123876000Y-107505500D01*
X123983456Y-107493947D01*
X124034967Y-107482741D01*
X124069197Y-107471347D01*
X124137497Y-107448616D01*
X124137501Y-107448613D01*
X124137504Y-107448613D01*
X124258543Y-107370825D01*
X124311347Y-107325070D01*
X124405567Y-107216336D01*
X124465338Y-107085459D01*
X124485023Y-107018420D01*
X124485024Y-107018416D01*
X124505500Y-106876000D01*
X124505500Y-106274000D01*
X124525185Y-106206961D01*
X124577989Y-106161206D01*
X124629500Y-106150000D01*
X124750000Y-106150000D01*
X124750000Y-101850000D01*
X125250000Y-101850000D01*
X125250000Y-106150000D01*
X125370500Y-106150000D01*
X125437539Y-106169685D01*
X125483294Y-106222489D01*
X125494500Y-106274000D01*
X125494500Y-106750997D01*
X125504212Y-106849614D01*
X125523167Y-106944908D01*
X125523172Y-106944929D01*
X125536546Y-106997327D01*
X125536548Y-106997332D01*
X125536549Y-106997335D01*
X125598644Y-107127126D01*
X125652620Y-107207908D01*
X125685053Y-107251233D01*
X125792092Y-107347380D01*
X125852335Y-107387632D01*
X125872869Y-107401353D01*
X125872874Y-107401356D01*
X125919401Y-107428962D01*
X125919403Y-107428963D01*
X125919405Y-107428963D01*
X125919409Y-107428966D01*
X126055094Y-107476833D01*
X126150382Y-107495787D01*
X126249000Y-107505500D01*
X126249002Y-107505500D01*
X133750998Y-107505500D01*
X133751000Y-107505500D01*
X133849618Y-107495787D01*
X133944906Y-107476833D01*
X133997335Y-107463451D01*
X134127126Y-107401356D01*
X134207908Y-107347380D01*
X134251233Y-107314947D01*
X134347380Y-107207908D01*
X134401356Y-107127126D01*
X134428966Y-107080591D01*
X134476833Y-106944906D01*
X134495787Y-106849618D01*
X134505500Y-106751000D01*
X134505500Y-106274000D01*
X134525185Y-106206961D01*
X134577989Y-106161206D01*
X134629500Y-106150000D01*
X134750000Y-106150000D01*
X134750000Y-101850000D01*
X135250000Y-101850000D01*
X135250000Y-106150000D01*
X135370500Y-106150000D01*
X135437539Y-106169685D01*
X135483294Y-106222489D01*
X135494500Y-106274000D01*
X135494500Y-106750997D01*
X135504212Y-106849614D01*
X135523167Y-106944908D01*
X135523172Y-106944929D01*
X135536546Y-106997327D01*
X135536548Y-106997332D01*
X135536549Y-106997335D01*
X135598644Y-107127126D01*
X135652620Y-107207908D01*
X135685053Y-107251233D01*
X135792092Y-107347380D01*
X135852335Y-107387632D01*
X135872869Y-107401353D01*
X135872874Y-107401356D01*
X135919401Y-107428962D01*
X135919403Y-107428963D01*
X135919405Y-107428963D01*
X135919409Y-107428966D01*
X136055094Y-107476833D01*
X136150382Y-107495787D01*
X136249000Y-107505500D01*
X136249002Y-107505500D01*
X143750998Y-107505500D01*
X143751000Y-107505500D01*
X143849618Y-107495787D01*
X143944906Y-107476833D01*
X143997335Y-107463451D01*
X144127126Y-107401356D01*
X144207908Y-107347380D01*
X144251233Y-107314947D01*
X144347380Y-107207908D01*
X144401356Y-107127126D01*
X144428966Y-107080591D01*
X144476833Y-106944906D01*
X144495787Y-106849618D01*
X144505500Y-106751000D01*
X144505500Y-106274000D01*
X144525185Y-106206961D01*
X144577989Y-106161206D01*
X144629500Y-106150000D01*
X144750000Y-106150000D01*
X144750000Y-101850000D01*
X145250000Y-101850000D01*
X145250000Y-106150000D01*
X145370500Y-106150000D01*
X145437539Y-106169685D01*
X145483294Y-106222489D01*
X145494500Y-106274000D01*
X145494500Y-106750997D01*
X145504212Y-106849614D01*
X145523167Y-106944908D01*
X145523172Y-106944929D01*
X145536546Y-106997327D01*
X145536548Y-106997332D01*
X145536549Y-106997335D01*
X145598644Y-107127126D01*
X145652620Y-107207908D01*
X145685053Y-107251233D01*
X145792092Y-107347380D01*
X145852335Y-107387632D01*
X145872869Y-107401353D01*
X145872874Y-107401356D01*
X145919401Y-107428962D01*
X145919403Y-107428963D01*
X145919405Y-107428963D01*
X145919409Y-107428966D01*
X146055094Y-107476833D01*
X146150382Y-107495787D01*
X146249000Y-107505500D01*
X146249002Y-107505500D01*
X153750998Y-107505500D01*
X153751000Y-107505500D01*
X153849618Y-107495787D01*
X153944906Y-107476833D01*
X153997335Y-107463451D01*
X154127126Y-107401356D01*
X154207908Y-107347380D01*
X154251233Y-107314947D01*
X154347380Y-107207908D01*
X154401356Y-107127126D01*
X154428966Y-107080591D01*
X154476833Y-106944906D01*
X154495787Y-106849618D01*
X154505500Y-106751000D01*
X154505500Y-106274000D01*
X154525185Y-106206961D01*
X154577989Y-106161206D01*
X154629500Y-106150000D01*
X154750000Y-106150000D01*
X154750000Y-101850000D01*
X155250000Y-101850000D01*
X155250000Y-106150000D01*
X155370500Y-106150000D01*
X155437539Y-106169685D01*
X155483294Y-106222489D01*
X155494500Y-106274000D01*
X155494500Y-106750997D01*
X155504212Y-106849614D01*
X155523167Y-106944908D01*
X155523172Y-106944929D01*
X155536546Y-106997327D01*
X155536548Y-106997332D01*
X155536549Y-106997335D01*
X155598644Y-107127126D01*
X155652620Y-107207908D01*
X155685053Y-107251233D01*
X155792092Y-107347380D01*
X155852335Y-107387632D01*
X155872869Y-107401353D01*
X155872874Y-107401356D01*
X155919401Y-107428962D01*
X155919403Y-107428963D01*
X155919405Y-107428963D01*
X155919409Y-107428966D01*
X156055094Y-107476833D01*
X156150382Y-107495787D01*
X156249000Y-107505500D01*
X156249002Y-107505500D01*
X163750998Y-107505500D01*
X163751000Y-107505500D01*
X163849618Y-107495787D01*
X163944906Y-107476833D01*
X163997335Y-107463451D01*
X164127126Y-107401356D01*
X164207908Y-107347380D01*
X164251233Y-107314947D01*
X164347380Y-107207908D01*
X164401356Y-107127126D01*
X164428966Y-107080591D01*
X164476833Y-106944906D01*
X164495787Y-106849618D01*
X164505500Y-106751000D01*
X164505500Y-106274000D01*
X164525185Y-106206961D01*
X164577989Y-106161206D01*
X164629500Y-106150000D01*
X164750000Y-106150000D01*
X164750000Y-101850000D01*
X165250000Y-101850000D01*
X165250000Y-106150000D01*
X165370500Y-106150000D01*
X165437539Y-106169685D01*
X165483294Y-106222489D01*
X165494500Y-106274000D01*
X165494500Y-106750997D01*
X165504212Y-106849614D01*
X165523167Y-106944908D01*
X165523172Y-106944929D01*
X165536546Y-106997327D01*
X165536548Y-106997332D01*
X165536549Y-106997335D01*
X165598644Y-107127126D01*
X165652620Y-107207908D01*
X165685053Y-107251233D01*
X165792092Y-107347380D01*
X165852335Y-107387632D01*
X165872869Y-107401353D01*
X165872874Y-107401356D01*
X165919401Y-107428962D01*
X165919403Y-107428963D01*
X165919405Y-107428963D01*
X165919409Y-107428966D01*
X166055094Y-107476833D01*
X166150382Y-107495787D01*
X166249000Y-107505500D01*
X166249002Y-107505500D01*
X178750998Y-107505500D01*
X178751000Y-107505500D01*
X178849618Y-107495787D01*
X178944906Y-107476833D01*
X178997335Y-107463451D01*
X179127126Y-107401356D01*
X179207908Y-107347380D01*
X179251233Y-107314947D01*
X179347380Y-107207908D01*
X179401356Y-107127126D01*
X179428966Y-107080591D01*
X179476833Y-106944906D01*
X179495787Y-106849618D01*
X179505500Y-106751000D01*
X179505500Y-103839914D01*
X182149500Y-103839914D01*
X182149500Y-104160085D01*
X182185345Y-104478216D01*
X182185347Y-104478228D01*
X182256589Y-104790362D01*
X182256590Y-104790364D01*
X182362332Y-105092559D01*
X182501243Y-105381010D01*
X182501245Y-105381013D01*
X182671581Y-105652101D01*
X182871198Y-105902413D01*
X183097587Y-106128802D01*
X183347899Y-106328419D01*
X183618987Y-106498755D01*
X183907442Y-106637668D01*
X184209637Y-106743410D01*
X184521771Y-106814653D01*
X184839915Y-106850499D01*
X184839916Y-106850500D01*
X184839919Y-106850500D01*
X185160084Y-106850500D01*
X185160084Y-106850499D01*
X185478229Y-106814653D01*
X185790363Y-106743410D01*
X186092558Y-106637668D01*
X186381013Y-106498755D01*
X186652101Y-106328419D01*
X186902413Y-106128802D01*
X187128802Y-105902413D01*
X187328419Y-105652101D01*
X187498755Y-105381013D01*
X187637668Y-105092558D01*
X187743410Y-104790363D01*
X187814653Y-104478229D01*
X187850500Y-104160081D01*
X187850500Y-103839919D01*
X187814653Y-103521771D01*
X187743410Y-103209637D01*
X187637668Y-102907442D01*
X187498755Y-102618987D01*
X187328419Y-102347899D01*
X187128802Y-102097587D01*
X186902413Y-101871198D01*
X186652101Y-101671581D01*
X186381013Y-101501245D01*
X186381010Y-101501243D01*
X186092559Y-101362332D01*
X185790364Y-101256590D01*
X185790362Y-101256589D01*
X185549471Y-101201607D01*
X185478229Y-101185347D01*
X185478225Y-101185346D01*
X185478216Y-101185345D01*
X185160085Y-101149500D01*
X185160081Y-101149500D01*
X184839919Y-101149500D01*
X184839914Y-101149500D01*
X184521783Y-101185345D01*
X184521771Y-101185347D01*
X184209637Y-101256589D01*
X184209635Y-101256590D01*
X183907440Y-101362332D01*
X183618989Y-101501243D01*
X183347900Y-101671580D01*
X183097587Y-101871197D01*
X182871197Y-102097587D01*
X182671580Y-102347900D01*
X182501243Y-102618989D01*
X182362332Y-102907440D01*
X182256590Y-103209635D01*
X182256589Y-103209637D01*
X182185347Y-103521771D01*
X182185345Y-103521783D01*
X182149500Y-103839914D01*
X179505500Y-103839914D01*
X179505500Y-101249000D01*
X179495787Y-101150382D01*
X179476833Y-101055094D01*
X179466995Y-101016549D01*
X179463453Y-101002672D01*
X179463452Y-101002670D01*
X179463451Y-101002665D01*
X179401356Y-100872874D01*
X179347380Y-100792092D01*
X179314947Y-100748767D01*
X179207908Y-100652620D01*
X179167654Y-100625723D01*
X179127130Y-100598646D01*
X179127125Y-100598643D01*
X179080598Y-100571037D01*
X179080596Y-100571036D01*
X179080591Y-100571034D01*
X178982839Y-100536549D01*
X178944904Y-100523166D01*
X178849616Y-100504212D01*
X178770424Y-100496413D01*
X178751000Y-100494500D01*
X166249000Y-100494500D01*
X166227453Y-100496622D01*
X166150385Y-100504212D01*
X166055091Y-100523167D01*
X166055070Y-100523172D01*
X166002672Y-100536546D01*
X166002667Y-100536548D01*
X165872873Y-100598644D01*
X165872869Y-100598647D01*
X165792087Y-100652623D01*
X165757010Y-100678882D01*
X165748767Y-100685053D01*
X165748765Y-100685054D01*
X165748764Y-100685056D01*
X165652625Y-100792086D01*
X165652620Y-100792092D01*
X165598646Y-100872869D01*
X165598643Y-100872874D01*
X165571037Y-100919401D01*
X165571036Y-100919403D01*
X165523166Y-101055095D01*
X165523166Y-101055096D01*
X165504212Y-101150383D01*
X165504212Y-101150384D01*
X165494500Y-101249002D01*
X165494500Y-101726000D01*
X165474815Y-101793039D01*
X165422011Y-101838794D01*
X165370500Y-101850000D01*
X165250000Y-101850000D01*
X164750000Y-101850000D01*
X164629500Y-101850000D01*
X164562461Y-101830315D01*
X164516706Y-101777511D01*
X164505500Y-101726000D01*
X164505500Y-101249002D01*
X164505500Y-101249000D01*
X164495787Y-101150382D01*
X164476833Y-101055094D01*
X164466995Y-101016549D01*
X164463453Y-101002672D01*
X164463452Y-101002670D01*
X164463451Y-101002665D01*
X164401356Y-100872874D01*
X164347380Y-100792092D01*
X164314947Y-100748767D01*
X164207908Y-100652620D01*
X164167654Y-100625723D01*
X164127130Y-100598646D01*
X164127125Y-100598643D01*
X164080598Y-100571037D01*
X164080596Y-100571036D01*
X164080591Y-100571034D01*
X163982839Y-100536549D01*
X163944904Y-100523166D01*
X163849616Y-100504212D01*
X163770424Y-100496413D01*
X163751000Y-100494500D01*
X156249000Y-100494500D01*
X156227453Y-100496622D01*
X156150385Y-100504212D01*
X156055091Y-100523167D01*
X156055070Y-100523172D01*
X156002672Y-100536546D01*
X156002667Y-100536548D01*
X155872873Y-100598644D01*
X155872869Y-100598647D01*
X155792087Y-100652623D01*
X155757010Y-100678882D01*
X155748767Y-100685053D01*
X155748765Y-100685054D01*
X155748764Y-100685056D01*
X155652625Y-100792086D01*
X155652620Y-100792092D01*
X155598646Y-100872869D01*
X155598643Y-100872874D01*
X155571037Y-100919401D01*
X155571036Y-100919403D01*
X155523166Y-101055095D01*
X155523166Y-101055096D01*
X155504212Y-101150383D01*
X155504212Y-101150384D01*
X155494500Y-101249002D01*
X155494500Y-101726000D01*
X155474815Y-101793039D01*
X155422011Y-101838794D01*
X155370500Y-101850000D01*
X155250000Y-101850000D01*
X154750000Y-101850000D01*
X154629500Y-101850000D01*
X154562461Y-101830315D01*
X154516706Y-101777511D01*
X154505500Y-101726000D01*
X154505500Y-101249002D01*
X154505500Y-101249000D01*
X154495787Y-101150382D01*
X154476833Y-101055094D01*
X154466995Y-101016549D01*
X154463453Y-101002672D01*
X154463452Y-101002670D01*
X154463451Y-101002665D01*
X154401356Y-100872874D01*
X154347380Y-100792092D01*
X154314947Y-100748767D01*
X154207908Y-100652620D01*
X154167654Y-100625723D01*
X154127130Y-100598646D01*
X154127125Y-100598643D01*
X154080598Y-100571037D01*
X154080596Y-100571036D01*
X154080591Y-100571034D01*
X153982839Y-100536549D01*
X153944904Y-100523166D01*
X153849616Y-100504212D01*
X153770424Y-100496413D01*
X153751000Y-100494500D01*
X146249000Y-100494500D01*
X146227453Y-100496622D01*
X146150385Y-100504212D01*
X146055091Y-100523167D01*
X146055070Y-100523172D01*
X146002672Y-100536546D01*
X146002667Y-100536548D01*
X145872873Y-100598644D01*
X145872869Y-100598647D01*
X145792087Y-100652623D01*
X145757010Y-100678882D01*
X145748767Y-100685053D01*
X145748765Y-100685054D01*
X145748764Y-100685056D01*
X145652625Y-100792086D01*
X145652620Y-100792092D01*
X145598646Y-100872869D01*
X145598643Y-100872874D01*
X145571037Y-100919401D01*
X145571036Y-100919403D01*
X145523166Y-101055095D01*
X145523166Y-101055096D01*
X145504212Y-101150383D01*
X145504212Y-101150384D01*
X145494500Y-101249002D01*
X145494500Y-101726000D01*
X145474815Y-101793039D01*
X145422011Y-101838794D01*
X145370500Y-101850000D01*
X145250000Y-101850000D01*
X144750000Y-101850000D01*
X144629500Y-101850000D01*
X144562461Y-101830315D01*
X144516706Y-101777511D01*
X144505500Y-101726000D01*
X144505500Y-101249002D01*
X144505500Y-101249000D01*
X144495787Y-101150382D01*
X144476833Y-101055094D01*
X144466995Y-101016549D01*
X144463453Y-101002672D01*
X144463452Y-101002670D01*
X144463451Y-101002665D01*
X144401356Y-100872874D01*
X144347380Y-100792092D01*
X144314947Y-100748767D01*
X144207908Y-100652620D01*
X144167654Y-100625723D01*
X144127130Y-100598646D01*
X144127125Y-100598643D01*
X144080598Y-100571037D01*
X144080596Y-100571036D01*
X144080591Y-100571034D01*
X143982839Y-100536549D01*
X143944904Y-100523166D01*
X143849616Y-100504212D01*
X143770424Y-100496413D01*
X143751000Y-100494500D01*
X136249000Y-100494500D01*
X136227453Y-100496622D01*
X136150385Y-100504212D01*
X136055091Y-100523167D01*
X136055070Y-100523172D01*
X136002672Y-100536546D01*
X136002667Y-100536548D01*
X135872873Y-100598644D01*
X135872869Y-100598647D01*
X135792087Y-100652623D01*
X135757010Y-100678882D01*
X135748767Y-100685053D01*
X135748765Y-100685054D01*
X135748764Y-100685056D01*
X135652625Y-100792086D01*
X135652620Y-100792092D01*
X135598646Y-100872869D01*
X135598643Y-100872874D01*
X135571037Y-100919401D01*
X135571036Y-100919403D01*
X135523166Y-101055095D01*
X135523166Y-101055096D01*
X135504212Y-101150383D01*
X135504212Y-101150384D01*
X135494500Y-101249002D01*
X135494500Y-101726000D01*
X135474815Y-101793039D01*
X135422011Y-101838794D01*
X135370500Y-101850000D01*
X135250000Y-101850000D01*
X134750000Y-101850000D01*
X134629500Y-101850000D01*
X134562461Y-101830315D01*
X134516706Y-101777511D01*
X134505500Y-101726000D01*
X134505500Y-101249002D01*
X134505500Y-101249000D01*
X134495787Y-101150382D01*
X134476833Y-101055094D01*
X134466995Y-101016549D01*
X134463453Y-101002672D01*
X134463452Y-101002670D01*
X134463451Y-101002665D01*
X134401356Y-100872874D01*
X134347380Y-100792092D01*
X134314947Y-100748767D01*
X134207908Y-100652620D01*
X134167654Y-100625723D01*
X134127130Y-100598646D01*
X134127125Y-100598643D01*
X134080598Y-100571037D01*
X134080596Y-100571036D01*
X134080591Y-100571034D01*
X133982839Y-100536549D01*
X133944904Y-100523166D01*
X133849616Y-100504212D01*
X133770424Y-100496413D01*
X133751000Y-100494500D01*
X126249000Y-100494500D01*
X126227453Y-100496622D01*
X126150385Y-100504212D01*
X126055091Y-100523167D01*
X126055070Y-100523172D01*
X126002672Y-100536546D01*
X126002667Y-100536548D01*
X125872873Y-100598644D01*
X125872869Y-100598647D01*
X125792087Y-100652623D01*
X125757010Y-100678882D01*
X125748767Y-100685053D01*
X125748765Y-100685054D01*
X125748764Y-100685056D01*
X125652625Y-100792086D01*
X125652620Y-100792092D01*
X125598646Y-100872869D01*
X125598643Y-100872874D01*
X125571037Y-100919401D01*
X125571036Y-100919403D01*
X125523166Y-101055095D01*
X125523166Y-101055096D01*
X125504212Y-101150383D01*
X125504212Y-101150384D01*
X125494500Y-101249002D01*
X125494500Y-101726000D01*
X125474815Y-101793039D01*
X125422011Y-101838794D01*
X125370500Y-101850000D01*
X125250000Y-101850000D01*
X124750000Y-101850000D01*
X124629500Y-101850000D01*
X124562461Y-101830315D01*
X124516706Y-101777511D01*
X124505500Y-101726000D01*
X124505500Y-101124010D01*
X124505500Y-101124000D01*
X124493947Y-101016544D01*
X124482741Y-100965033D01*
X124467553Y-100919401D01*
X124448616Y-100862502D01*
X124448613Y-100862496D01*
X124409126Y-100801054D01*
X124370825Y-100741457D01*
X124370820Y-100741451D01*
X124325076Y-100688659D01*
X124325072Y-100688656D01*
X124325070Y-100688653D01*
X124216336Y-100594433D01*
X124216333Y-100594431D01*
X124216331Y-100594430D01*
X124085465Y-100534664D01*
X124085460Y-100534662D01*
X124085459Y-100534662D01*
X124018420Y-100514977D01*
X124018422Y-100514977D01*
X124018417Y-100514976D01*
X123943556Y-100504213D01*
X123876000Y-100494500D01*
X112124000Y-100494500D01*
X112123991Y-100494500D01*
X112123990Y-100494501D01*
X112016549Y-100506052D01*
X112016537Y-100506054D01*
X111965027Y-100517260D01*
X111862502Y-100551383D01*
X111862496Y-100551386D01*
X111741462Y-100629171D01*
X111741451Y-100629179D01*
X111688659Y-100674923D01*
X111594433Y-100783664D01*
X111594430Y-100783668D01*
X111534664Y-100914534D01*
X111514976Y-100981582D01*
X111509949Y-101016549D01*
X111494500Y-101124000D01*
X101545873Y-101124000D01*
X101671177Y-100973103D01*
X101678871Y-100964663D01*
X101964663Y-100678871D01*
X101973103Y-100671177D01*
X102284042Y-100412976D01*
X102293154Y-100406094D01*
X102626597Y-100177681D01*
X102636324Y-100171659D01*
X102989416Y-99974988D01*
X102999625Y-99969905D01*
X103369363Y-99806650D01*
X103380002Y-99802527D01*
X103763238Y-99674080D01*
X103774217Y-99670957D01*
X104167649Y-99578422D01*
X104178878Y-99576323D01*
X104579164Y-99520485D01*
X104590557Y-99519429D01*
X104997145Y-99500632D01*
X105002872Y-99500500D01*
X105065892Y-99500500D01*
X184934108Y-99500500D01*
X184997128Y-99500500D01*
X185002855Y-99500632D01*
G37*
G04 #@! TD.AperFunction*
M02*
