%TF.GenerationSoftware,KiCad,Pcbnew,8.0.6*%
%TF.CreationDate,2025-04-03T20:59:11+02:00*%
%TF.ProjectId,UV-Lamp,55562d4c-616d-4702-9e6b-696361645f70,v2.0*%
%TF.SameCoordinates,Original*%
%TF.FileFunction,Drillmap*%
%TF.FilePolarity,Positive*%
%FSLAX45Y45*%
G04 Gerber Fmt 4.5, Leading zero omitted, Abs format (unit mm)*
G04 Created by KiCad (PCBNEW 8.0.6) date 2025-04-03 20:59:11*
%MOMM*%
%LPD*%
G01*
G04 APERTURE LIST*
%ADD10C,0.050000*%
%ADD11C,0.200000*%
%ADD12C,0.100000*%
%ADD13C,0.110000*%
%ADD14C,0.120000*%
%ADD15C,0.175000*%
%ADD16C,0.210000*%
%ADD17C,0.220000*%
G04 APERTURE END LIST*
D10*
X10710000Y-5580000D02*
X17110000Y-5580000D01*
X17110000Y-15280000D01*
X10710000Y-15280000D01*
X10710000Y-5580000D01*
D11*
D12*
X10905000Y-5705000D02*
X10935000Y-5735000D01*
X10935000Y-5705000D02*
X10905000Y-5735000D01*
X10905000Y-6205000D02*
X10935000Y-6235000D01*
X10935000Y-6205000D02*
X10905000Y-6235000D01*
X10905000Y-6705000D02*
X10935000Y-6735000D01*
X10935000Y-6705000D02*
X10905000Y-6735000D01*
X10905000Y-7205000D02*
X10935000Y-7235000D01*
X10935000Y-7205000D02*
X10905000Y-7235000D01*
X10905000Y-7705000D02*
X10935000Y-7735000D01*
X10935000Y-7705000D02*
X10905000Y-7735000D01*
X10905000Y-8205000D02*
X10935000Y-8235000D01*
X10935000Y-8205000D02*
X10905000Y-8235000D01*
X10905000Y-8705000D02*
X10935000Y-8735000D01*
X10935000Y-8705000D02*
X10905000Y-8735000D01*
X10905000Y-9205000D02*
X10935000Y-9235000D01*
X10935000Y-9205000D02*
X10905000Y-9235000D01*
X10905000Y-9705000D02*
X10935000Y-9735000D01*
X10935000Y-9705000D02*
X10905000Y-9735000D01*
X10905000Y-10205000D02*
X10935000Y-10235000D01*
X10935000Y-10205000D02*
X10905000Y-10235000D01*
X10905000Y-10705000D02*
X10935000Y-10735000D01*
X10935000Y-10705000D02*
X10905000Y-10735000D01*
X10905000Y-11205000D02*
X10935000Y-11235000D01*
X10935000Y-11205000D02*
X10905000Y-11235000D01*
X10905000Y-11705000D02*
X10935000Y-11735000D01*
X10935000Y-11705000D02*
X10905000Y-11735000D01*
X10905000Y-12205000D02*
X10935000Y-12235000D01*
X10935000Y-12205000D02*
X10905000Y-12235000D01*
X11405000Y-5705000D02*
X11435000Y-5735000D01*
X11435000Y-5705000D02*
X11405000Y-5735000D01*
X11405000Y-8205000D02*
X11435000Y-8235000D01*
X11435000Y-8205000D02*
X11405000Y-8235000D01*
X11405000Y-8705000D02*
X11435000Y-8735000D01*
X11435000Y-8705000D02*
X11405000Y-8735000D01*
X11405000Y-9205000D02*
X11435000Y-9235000D01*
X11435000Y-9205000D02*
X11405000Y-9235000D01*
X11405000Y-9705000D02*
X11435000Y-9735000D01*
X11435000Y-9705000D02*
X11405000Y-9735000D01*
X11405000Y-10205000D02*
X11435000Y-10235000D01*
X11435000Y-10205000D02*
X11405000Y-10235000D01*
X11405000Y-10705000D02*
X11435000Y-10735000D01*
X11435000Y-10705000D02*
X11405000Y-10735000D01*
X11405000Y-11205000D02*
X11435000Y-11235000D01*
X11435000Y-11205000D02*
X11405000Y-11235000D01*
X11405000Y-11705000D02*
X11435000Y-11735000D01*
X11435000Y-11705000D02*
X11405000Y-11735000D01*
X11405000Y-12205000D02*
X11435000Y-12235000D01*
X11435000Y-12205000D02*
X11405000Y-12235000D01*
X11905000Y-5705000D02*
X11935000Y-5735000D01*
X11935000Y-5705000D02*
X11905000Y-5735000D01*
X11905000Y-6705000D02*
X11935000Y-6735000D01*
X11935000Y-6705000D02*
X11905000Y-6735000D01*
X11905000Y-7205000D02*
X11935000Y-7235000D01*
X11935000Y-7205000D02*
X11905000Y-7235000D01*
X11905000Y-8205000D02*
X11935000Y-8235000D01*
X11935000Y-8205000D02*
X11905000Y-8235000D01*
X11905000Y-8705000D02*
X11935000Y-8735000D01*
X11935000Y-8705000D02*
X11905000Y-8735000D01*
X11905000Y-9205000D02*
X11935000Y-9235000D01*
X11935000Y-9205000D02*
X11905000Y-9235000D01*
X11905000Y-9705000D02*
X11935000Y-9735000D01*
X11935000Y-9705000D02*
X11905000Y-9735000D01*
X11905000Y-10205000D02*
X11935000Y-10235000D01*
X11935000Y-10205000D02*
X11905000Y-10235000D01*
X11905000Y-10705000D02*
X11935000Y-10735000D01*
X11935000Y-10705000D02*
X11905000Y-10735000D01*
X11905000Y-11205000D02*
X11935000Y-11235000D01*
X11935000Y-11205000D02*
X11905000Y-11235000D01*
X11905000Y-11705000D02*
X11935000Y-11735000D01*
X11935000Y-11705000D02*
X11905000Y-11735000D01*
X11905000Y-12205000D02*
X11935000Y-12235000D01*
X11935000Y-12205000D02*
X11905000Y-12235000D01*
X12365000Y-7195000D02*
X12395000Y-7225000D01*
X12395000Y-7195000D02*
X12365000Y-7225000D01*
X12405000Y-5705000D02*
X12435000Y-5735000D01*
X12435000Y-5705000D02*
X12405000Y-5735000D01*
X12405000Y-6205000D02*
X12435000Y-6235000D01*
X12435000Y-6205000D02*
X12405000Y-6235000D01*
X12865000Y-6115000D02*
X12895000Y-6145000D01*
X12895000Y-6115000D02*
X12865000Y-6145000D01*
X12905000Y-5705000D02*
X12935000Y-5735000D01*
X12935000Y-5705000D02*
X12905000Y-5735000D01*
X12905000Y-7705000D02*
X12935000Y-7735000D01*
X12935000Y-7705000D02*
X12905000Y-7735000D01*
X12905000Y-8205000D02*
X12935000Y-8235000D01*
X12935000Y-8205000D02*
X12905000Y-8235000D01*
X12905000Y-8705000D02*
X12935000Y-8735000D01*
X12935000Y-8705000D02*
X12905000Y-8735000D01*
X12905000Y-9205000D02*
X12935000Y-9235000D01*
X12935000Y-9205000D02*
X12905000Y-9235000D01*
X12905000Y-10705000D02*
X12935000Y-10735000D01*
X12935000Y-10705000D02*
X12905000Y-10735000D01*
X12905000Y-11205000D02*
X12935000Y-11235000D01*
X12935000Y-11205000D02*
X12905000Y-11235000D01*
X12975000Y-7045000D02*
X13005000Y-7075000D01*
X13005000Y-7045000D02*
X12975000Y-7075000D01*
X13405000Y-5705000D02*
X13435000Y-5735000D01*
X13435000Y-5705000D02*
X13405000Y-5735000D01*
X13405000Y-7705000D02*
X13435000Y-7735000D01*
X13435000Y-7705000D02*
X13405000Y-7735000D01*
X13405000Y-8205000D02*
X13435000Y-8235000D01*
X13435000Y-8205000D02*
X13405000Y-8235000D01*
X13405000Y-8705000D02*
X13435000Y-8735000D01*
X13435000Y-8705000D02*
X13405000Y-8735000D01*
X13405000Y-10705000D02*
X13435000Y-10735000D01*
X13435000Y-10705000D02*
X13405000Y-10735000D01*
X13685000Y-6865000D02*
X13715000Y-6895000D01*
X13715000Y-6865000D02*
X13685000Y-6895000D01*
X13835000Y-6285000D02*
X13865000Y-6315000D01*
X13865000Y-6285000D02*
X13835000Y-6315000D01*
X13905000Y-5705000D02*
X13935000Y-5735000D01*
X13935000Y-5705000D02*
X13905000Y-5735000D01*
X13905000Y-6865000D02*
X13935000Y-6895000D01*
X13935000Y-6865000D02*
X13905000Y-6895000D01*
X13905000Y-8205000D02*
X13935000Y-8235000D01*
X13935000Y-8205000D02*
X13905000Y-8235000D01*
X13985000Y-6575000D02*
X14015000Y-6605000D01*
X14015000Y-6575000D02*
X13985000Y-6605000D01*
X13995000Y-11445000D02*
X14025000Y-11475000D01*
X14025000Y-11445000D02*
X13995000Y-11475000D01*
X14135000Y-10265000D02*
X14165000Y-10295000D01*
X14165000Y-10265000D02*
X14135000Y-10295000D01*
X14145000Y-9965000D02*
X14175000Y-9995000D01*
X14175000Y-9965000D02*
X14145000Y-9995000D01*
X14165000Y-9255000D02*
X14195000Y-9285000D01*
X14195000Y-9255000D02*
X14165000Y-9285000D01*
X14165000Y-9555000D02*
X14195000Y-9585000D01*
X14195000Y-9555000D02*
X14165000Y-9585000D01*
X14185000Y-12175000D02*
X14215000Y-12205000D01*
X14215000Y-12175000D02*
X14185000Y-12205000D01*
X14205000Y-11535000D02*
X14235000Y-11565000D01*
X14235000Y-11535000D02*
X14205000Y-11565000D01*
X14205000Y-11785000D02*
X14235000Y-11815000D01*
X14235000Y-11785000D02*
X14205000Y-11815000D01*
X14405000Y-5705000D02*
X14435000Y-5735000D01*
X14435000Y-5705000D02*
X14405000Y-5735000D01*
X14405000Y-6705000D02*
X14435000Y-6735000D01*
X14435000Y-6705000D02*
X14405000Y-6735000D01*
X14405000Y-8205000D02*
X14435000Y-8235000D01*
X14435000Y-8205000D02*
X14405000Y-8235000D01*
X14455000Y-11445000D02*
X14485000Y-11475000D01*
X14485000Y-11445000D02*
X14455000Y-11475000D01*
X14555000Y-9755000D02*
X14585000Y-9785000D01*
X14585000Y-9755000D02*
X14555000Y-9785000D01*
X14585000Y-9225000D02*
X14615000Y-9255000D01*
X14615000Y-9225000D02*
X14585000Y-9255000D01*
X14594997Y-11962564D02*
X14624997Y-11992564D01*
X14624997Y-11962564D02*
X14594997Y-11992564D01*
X14785000Y-9645000D02*
X14815000Y-9675000D01*
X14815000Y-9645000D02*
X14785000Y-9675000D01*
X14885000Y-11845000D02*
X14915000Y-11875000D01*
X14915000Y-11845000D02*
X14885000Y-11875000D01*
X14905000Y-5705000D02*
X14935000Y-5735000D01*
X14935000Y-5705000D02*
X14905000Y-5735000D01*
X14905000Y-6705000D02*
X14935000Y-6735000D01*
X14935000Y-6705000D02*
X14905000Y-6735000D01*
X14905000Y-8705000D02*
X14935000Y-8735000D01*
X14935000Y-8705000D02*
X14905000Y-8735000D01*
X14905000Y-11205000D02*
X14935000Y-11235000D01*
X14935000Y-11205000D02*
X14905000Y-11235000D01*
X14935000Y-12425000D02*
X14965000Y-12455000D01*
X14965000Y-12425000D02*
X14935000Y-12455000D01*
X15345000Y-9945000D02*
X15375000Y-9975000D01*
X15375000Y-9945000D02*
X15345000Y-9975000D01*
X15405000Y-5705000D02*
X15435000Y-5735000D01*
X15435000Y-5705000D02*
X15405000Y-5735000D01*
X15405000Y-6705000D02*
X15435000Y-6735000D01*
X15435000Y-6705000D02*
X15405000Y-6735000D01*
X15405000Y-7705000D02*
X15435000Y-7735000D01*
X15435000Y-7705000D02*
X15405000Y-7735000D01*
X15405000Y-11205000D02*
X15435000Y-11235000D01*
X15435000Y-11205000D02*
X15405000Y-11235000D01*
X15405000Y-12205000D02*
X15435000Y-12235000D01*
X15435000Y-12205000D02*
X15405000Y-12235000D01*
X15855000Y-9585000D02*
X15885000Y-9615000D01*
X15885000Y-9585000D02*
X15855000Y-9615000D01*
X15905000Y-5705000D02*
X15935000Y-5735000D01*
X15935000Y-5705000D02*
X15905000Y-5735000D01*
X15905000Y-6205000D02*
X15935000Y-6235000D01*
X15935000Y-6205000D02*
X15905000Y-6235000D01*
X15905000Y-6705000D02*
X15935000Y-6735000D01*
X15935000Y-6705000D02*
X15905000Y-6735000D01*
X15905000Y-7705000D02*
X15935000Y-7735000D01*
X15935000Y-7705000D02*
X15905000Y-7735000D01*
X15905000Y-8205000D02*
X15935000Y-8235000D01*
X15935000Y-8205000D02*
X15905000Y-8235000D01*
X16405000Y-6205000D02*
X16435000Y-6235000D01*
X16435000Y-6205000D02*
X16405000Y-6235000D01*
X16405000Y-6705000D02*
X16435000Y-6735000D01*
X16435000Y-6705000D02*
X16405000Y-6735000D01*
X16405000Y-7705000D02*
X16435000Y-7735000D01*
X16435000Y-7705000D02*
X16405000Y-7735000D01*
X16405000Y-12205000D02*
X16435000Y-12235000D01*
X16435000Y-12205000D02*
X16405000Y-12235000D01*
X16905000Y-7705000D02*
X16935000Y-7735000D01*
X16935000Y-7705000D02*
X16905000Y-7735000D01*
X16905000Y-12205000D02*
X16935000Y-12235000D01*
X16935000Y-12205000D02*
X16905000Y-12235000D01*
X13280000Y-6225000D02*
G75*
G02*
X13250000Y-6225000I-15000J0D01*
G01*
X13250000Y-6225000D02*
G75*
G02*
X13280000Y-6225000I15000J0D01*
G01*
X13280000Y-6355000D02*
G75*
G02*
X13250000Y-6355000I-15000J0D01*
G01*
X13250000Y-6355000D02*
G75*
G02*
X13280000Y-6355000I15000J0D01*
G01*
X13280000Y-6485000D02*
G75*
G02*
X13250000Y-6485000I-15000J0D01*
G01*
X13250000Y-6485000D02*
G75*
G02*
X13280000Y-6485000I15000J0D01*
G01*
X13410000Y-6225000D02*
G75*
G02*
X13380000Y-6225000I-15000J0D01*
G01*
X13380000Y-6225000D02*
G75*
G02*
X13410000Y-6225000I15000J0D01*
G01*
X13410000Y-6355000D02*
G75*
G02*
X13380000Y-6355000I-15000J0D01*
G01*
X13380000Y-6355000D02*
G75*
G02*
X13410000Y-6355000I15000J0D01*
G01*
X13410000Y-6485000D02*
G75*
G02*
X13380000Y-6485000I-15000J0D01*
G01*
X13380000Y-6485000D02*
G75*
G02*
X13410000Y-6485000I15000J0D01*
G01*
D13*
X16710000Y-8025000D02*
X16710000Y-8135000D01*
X16655000Y-8080000D02*
X16765000Y-8080000D01*
X16710000Y-8485000D02*
X16710000Y-8595000D01*
X16655000Y-8540000D02*
X16765000Y-8540000D01*
X16710000Y-8945000D02*
X16710000Y-9055000D01*
X16655000Y-9000000D02*
X16765000Y-9000000D01*
D14*
X14873177Y-13872427D02*
X14873177Y-13787573D01*
X14788323Y-13787573D01*
X14788323Y-13872427D01*
X14873177Y-13872427D01*
X15548177Y-13872427D02*
X15548177Y-13787573D01*
X15463323Y-13787573D01*
X15463323Y-13872427D01*
X15548177Y-13872427D01*
D15*
X16710000Y-6767500D02*
X16797500Y-6680000D01*
X16710000Y-6592500D01*
X16622500Y-6680000D01*
X16710000Y-6767500D01*
X16710000Y-7307500D02*
X16797500Y-7220000D01*
X16710000Y-7132500D01*
X16622500Y-7220000D01*
X16710000Y-7307500D01*
D16*
X14005000Y-14775000D02*
X14215000Y-14985000D01*
X14215000Y-14775000D02*
X14005000Y-14985000D01*
X14215000Y-14880000D02*
G75*
G02*
X14005000Y-14880000I-105000J0D01*
G01*
X14005000Y-14880000D02*
G75*
G02*
X14215000Y-14880000I105000J0D01*
G01*
X15405000Y-14775000D02*
X15615000Y-14985000D01*
X15615000Y-14775000D02*
X15405000Y-14985000D01*
X15615000Y-14880000D02*
G75*
G02*
X15405000Y-14880000I-105000J0D01*
G01*
X15405000Y-14880000D02*
G75*
G02*
X15615000Y-14880000I105000J0D01*
G01*
X16605000Y-9775000D02*
X16815000Y-9985000D01*
X16815000Y-9775000D02*
X16605000Y-9985000D01*
X16815000Y-9880000D02*
G75*
G02*
X16605000Y-9880000I-105000J0D01*
G01*
X16605000Y-9880000D02*
G75*
G02*
X16815000Y-9880000I105000J0D01*
G01*
X16605000Y-10375000D02*
X16815000Y-10585000D01*
X16815000Y-10375000D02*
X16605000Y-10585000D01*
X16815000Y-10480000D02*
G75*
G02*
X16605000Y-10480000I-105000J0D01*
G01*
X16605000Y-10480000D02*
G75*
G02*
X16815000Y-10480000I105000J0D01*
G01*
X16605000Y-10975000D02*
X16815000Y-11185000D01*
X16815000Y-10975000D02*
X16605000Y-11185000D01*
X16815000Y-11080000D02*
G75*
G02*
X16605000Y-11080000I-105000J0D01*
G01*
X16605000Y-11080000D02*
G75*
G02*
X16815000Y-11080000I105000J0D01*
G01*
X16605000Y-11575000D02*
X16815000Y-11785000D01*
X16815000Y-11575000D02*
X16605000Y-11785000D01*
X16815000Y-11680000D02*
G75*
G02*
X16605000Y-11680000I-105000J0D01*
G01*
X16605000Y-11680000D02*
G75*
G02*
X16815000Y-11680000I105000J0D01*
G01*
D17*
X11270750Y-6120000D02*
X11490750Y-6340000D01*
X11490750Y-6120000D02*
X11270750Y-6340000D01*
X11380750Y-6120000D02*
X11380750Y-6340000D01*
X11270750Y-6230000D02*
X11490750Y-6230000D01*
X11820750Y-6120000D02*
X12040750Y-6340000D01*
X12040750Y-6120000D02*
X11820750Y-6340000D01*
X11930750Y-6120000D02*
X11930750Y-6340000D01*
X11820750Y-6230000D02*
X12040750Y-6230000D01*
D11*
X10968277Y-15593984D02*
X10968277Y-15393984D01*
X10968277Y-15393984D02*
X11015896Y-15393984D01*
X11015896Y-15393984D02*
X11044467Y-15403508D01*
X11044467Y-15403508D02*
X11063515Y-15422555D01*
X11063515Y-15422555D02*
X11073039Y-15441603D01*
X11073039Y-15441603D02*
X11082563Y-15479698D01*
X11082563Y-15479698D02*
X11082563Y-15508269D01*
X11082563Y-15508269D02*
X11073039Y-15546365D01*
X11073039Y-15546365D02*
X11063515Y-15565412D01*
X11063515Y-15565412D02*
X11044467Y-15584460D01*
X11044467Y-15584460D02*
X11015896Y-15593984D01*
X11015896Y-15593984D02*
X10968277Y-15593984D01*
X11168277Y-15593984D02*
X11168277Y-15460650D01*
X11168277Y-15498746D02*
X11177801Y-15479698D01*
X11177801Y-15479698D02*
X11187324Y-15470174D01*
X11187324Y-15470174D02*
X11206372Y-15460650D01*
X11206372Y-15460650D02*
X11225420Y-15460650D01*
X11292086Y-15593984D02*
X11292086Y-15460650D01*
X11292086Y-15393984D02*
X11282562Y-15403508D01*
X11282562Y-15403508D02*
X11292086Y-15413031D01*
X11292086Y-15413031D02*
X11301610Y-15403508D01*
X11301610Y-15403508D02*
X11292086Y-15393984D01*
X11292086Y-15393984D02*
X11292086Y-15413031D01*
X11415896Y-15593984D02*
X11396848Y-15584460D01*
X11396848Y-15584460D02*
X11387324Y-15565412D01*
X11387324Y-15565412D02*
X11387324Y-15393984D01*
X11520658Y-15593984D02*
X11501610Y-15584460D01*
X11501610Y-15584460D02*
X11492086Y-15565412D01*
X11492086Y-15565412D02*
X11492086Y-15393984D01*
X11749229Y-15593984D02*
X11749229Y-15393984D01*
X11749229Y-15393984D02*
X11815896Y-15536841D01*
X11815896Y-15536841D02*
X11882562Y-15393984D01*
X11882562Y-15393984D02*
X11882562Y-15593984D01*
X12063515Y-15593984D02*
X12063515Y-15489222D01*
X12063515Y-15489222D02*
X12053991Y-15470174D01*
X12053991Y-15470174D02*
X12034943Y-15460650D01*
X12034943Y-15460650D02*
X11996848Y-15460650D01*
X11996848Y-15460650D02*
X11977801Y-15470174D01*
X12063515Y-15584460D02*
X12044467Y-15593984D01*
X12044467Y-15593984D02*
X11996848Y-15593984D01*
X11996848Y-15593984D02*
X11977801Y-15584460D01*
X11977801Y-15584460D02*
X11968277Y-15565412D01*
X11968277Y-15565412D02*
X11968277Y-15546365D01*
X11968277Y-15546365D02*
X11977801Y-15527317D01*
X11977801Y-15527317D02*
X11996848Y-15517793D01*
X11996848Y-15517793D02*
X12044467Y-15517793D01*
X12044467Y-15517793D02*
X12063515Y-15508269D01*
X12158753Y-15460650D02*
X12158753Y-15660650D01*
X12158753Y-15470174D02*
X12177801Y-15460650D01*
X12177801Y-15460650D02*
X12215896Y-15460650D01*
X12215896Y-15460650D02*
X12234943Y-15470174D01*
X12234943Y-15470174D02*
X12244467Y-15479698D01*
X12244467Y-15479698D02*
X12253991Y-15498746D01*
X12253991Y-15498746D02*
X12253991Y-15555888D01*
X12253991Y-15555888D02*
X12244467Y-15574936D01*
X12244467Y-15574936D02*
X12234943Y-15584460D01*
X12234943Y-15584460D02*
X12215896Y-15593984D01*
X12215896Y-15593984D02*
X12177801Y-15593984D01*
X12177801Y-15593984D02*
X12158753Y-15584460D01*
X12339705Y-15574936D02*
X12349229Y-15584460D01*
X12349229Y-15584460D02*
X12339705Y-15593984D01*
X12339705Y-15593984D02*
X12330182Y-15584460D01*
X12330182Y-15584460D02*
X12339705Y-15574936D01*
X12339705Y-15574936D02*
X12339705Y-15593984D01*
X12339705Y-15470174D02*
X12349229Y-15479698D01*
X12349229Y-15479698D02*
X12339705Y-15489222D01*
X12339705Y-15489222D02*
X12330182Y-15479698D01*
X12330182Y-15479698D02*
X12339705Y-15470174D01*
X12339705Y-15470174D02*
X12339705Y-15489222D01*
D12*
X10677500Y-15907500D02*
X10707500Y-15937500D01*
X10707500Y-15907500D02*
X10677500Y-15937500D01*
D11*
X11006372Y-15813984D02*
X11025420Y-15813984D01*
X11025420Y-15813984D02*
X11044467Y-15823508D01*
X11044467Y-15823508D02*
X11053991Y-15833031D01*
X11053991Y-15833031D02*
X11063515Y-15852079D01*
X11063515Y-15852079D02*
X11073039Y-15890174D01*
X11073039Y-15890174D02*
X11073039Y-15937793D01*
X11073039Y-15937793D02*
X11063515Y-15975888D01*
X11063515Y-15975888D02*
X11053991Y-15994936D01*
X11053991Y-15994936D02*
X11044467Y-16004460D01*
X11044467Y-16004460D02*
X11025420Y-16013984D01*
X11025420Y-16013984D02*
X11006372Y-16013984D01*
X11006372Y-16013984D02*
X10987324Y-16004460D01*
X10987324Y-16004460D02*
X10977801Y-15994936D01*
X10977801Y-15994936D02*
X10968277Y-15975888D01*
X10968277Y-15975888D02*
X10958753Y-15937793D01*
X10958753Y-15937793D02*
X10958753Y-15890174D01*
X10958753Y-15890174D02*
X10968277Y-15852079D01*
X10968277Y-15852079D02*
X10977801Y-15833031D01*
X10977801Y-15833031D02*
X10987324Y-15823508D01*
X10987324Y-15823508D02*
X11006372Y-15813984D01*
X11158753Y-15994936D02*
X11168277Y-16004460D01*
X11168277Y-16004460D02*
X11158753Y-16013984D01*
X11158753Y-16013984D02*
X11149229Y-16004460D01*
X11149229Y-16004460D02*
X11158753Y-15994936D01*
X11158753Y-15994936D02*
X11158753Y-16013984D01*
X11234943Y-15813984D02*
X11358753Y-15813984D01*
X11358753Y-15813984D02*
X11292086Y-15890174D01*
X11292086Y-15890174D02*
X11320658Y-15890174D01*
X11320658Y-15890174D02*
X11339705Y-15899698D01*
X11339705Y-15899698D02*
X11349229Y-15909222D01*
X11349229Y-15909222D02*
X11358753Y-15928269D01*
X11358753Y-15928269D02*
X11358753Y-15975888D01*
X11358753Y-15975888D02*
X11349229Y-15994936D01*
X11349229Y-15994936D02*
X11339705Y-16004460D01*
X11339705Y-16004460D02*
X11320658Y-16013984D01*
X11320658Y-16013984D02*
X11263515Y-16013984D01*
X11263515Y-16013984D02*
X11244467Y-16004460D01*
X11244467Y-16004460D02*
X11234943Y-15994936D01*
X11482562Y-15813984D02*
X11501610Y-15813984D01*
X11501610Y-15813984D02*
X11520658Y-15823508D01*
X11520658Y-15823508D02*
X11530182Y-15833031D01*
X11530182Y-15833031D02*
X11539705Y-15852079D01*
X11539705Y-15852079D02*
X11549229Y-15890174D01*
X11549229Y-15890174D02*
X11549229Y-15937793D01*
X11549229Y-15937793D02*
X11539705Y-15975888D01*
X11539705Y-15975888D02*
X11530182Y-15994936D01*
X11530182Y-15994936D02*
X11520658Y-16004460D01*
X11520658Y-16004460D02*
X11501610Y-16013984D01*
X11501610Y-16013984D02*
X11482562Y-16013984D01*
X11482562Y-16013984D02*
X11463515Y-16004460D01*
X11463515Y-16004460D02*
X11453991Y-15994936D01*
X11453991Y-15994936D02*
X11444467Y-15975888D01*
X11444467Y-15975888D02*
X11434943Y-15937793D01*
X11434943Y-15937793D02*
X11434943Y-15890174D01*
X11434943Y-15890174D02*
X11444467Y-15852079D01*
X11444467Y-15852079D02*
X11453991Y-15833031D01*
X11453991Y-15833031D02*
X11463515Y-15823508D01*
X11463515Y-15823508D02*
X11482562Y-15813984D01*
X11673039Y-15813984D02*
X11692086Y-15813984D01*
X11692086Y-15813984D02*
X11711134Y-15823508D01*
X11711134Y-15823508D02*
X11720658Y-15833031D01*
X11720658Y-15833031D02*
X11730182Y-15852079D01*
X11730182Y-15852079D02*
X11739705Y-15890174D01*
X11739705Y-15890174D02*
X11739705Y-15937793D01*
X11739705Y-15937793D02*
X11730182Y-15975888D01*
X11730182Y-15975888D02*
X11720658Y-15994936D01*
X11720658Y-15994936D02*
X11711134Y-16004460D01*
X11711134Y-16004460D02*
X11692086Y-16013984D01*
X11692086Y-16013984D02*
X11673039Y-16013984D01*
X11673039Y-16013984D02*
X11653991Y-16004460D01*
X11653991Y-16004460D02*
X11644467Y-15994936D01*
X11644467Y-15994936D02*
X11634943Y-15975888D01*
X11634943Y-15975888D02*
X11625420Y-15937793D01*
X11625420Y-15937793D02*
X11625420Y-15890174D01*
X11625420Y-15890174D02*
X11634943Y-15852079D01*
X11634943Y-15852079D02*
X11644467Y-15833031D01*
X11644467Y-15833031D02*
X11653991Y-15823508D01*
X11653991Y-15823508D02*
X11673039Y-15813984D01*
X11825420Y-16013984D02*
X11825420Y-15880650D01*
X11825420Y-15899698D02*
X11834943Y-15890174D01*
X11834943Y-15890174D02*
X11853991Y-15880650D01*
X11853991Y-15880650D02*
X11882563Y-15880650D01*
X11882563Y-15880650D02*
X11901610Y-15890174D01*
X11901610Y-15890174D02*
X11911134Y-15909222D01*
X11911134Y-15909222D02*
X11911134Y-16013984D01*
X11911134Y-15909222D02*
X11920658Y-15890174D01*
X11920658Y-15890174D02*
X11939705Y-15880650D01*
X11939705Y-15880650D02*
X11968277Y-15880650D01*
X11968277Y-15880650D02*
X11987324Y-15890174D01*
X11987324Y-15890174D02*
X11996848Y-15909222D01*
X11996848Y-15909222D02*
X11996848Y-16013984D01*
X12092086Y-16013984D02*
X12092086Y-15880650D01*
X12092086Y-15899698D02*
X12101610Y-15890174D01*
X12101610Y-15890174D02*
X12120658Y-15880650D01*
X12120658Y-15880650D02*
X12149229Y-15880650D01*
X12149229Y-15880650D02*
X12168277Y-15890174D01*
X12168277Y-15890174D02*
X12177801Y-15909222D01*
X12177801Y-15909222D02*
X12177801Y-16013984D01*
X12177801Y-15909222D02*
X12187324Y-15890174D01*
X12187324Y-15890174D02*
X12206372Y-15880650D01*
X12206372Y-15880650D02*
X12234943Y-15880650D01*
X12234943Y-15880650D02*
X12253991Y-15890174D01*
X12253991Y-15890174D02*
X12263515Y-15909222D01*
X12263515Y-15909222D02*
X12263515Y-16013984D01*
X12653991Y-15804460D02*
X12482563Y-16061603D01*
X12911134Y-15813984D02*
X12930182Y-15813984D01*
X12930182Y-15813984D02*
X12949229Y-15823508D01*
X12949229Y-15823508D02*
X12958753Y-15833031D01*
X12958753Y-15833031D02*
X12968277Y-15852079D01*
X12968277Y-15852079D02*
X12977801Y-15890174D01*
X12977801Y-15890174D02*
X12977801Y-15937793D01*
X12977801Y-15937793D02*
X12968277Y-15975888D01*
X12968277Y-15975888D02*
X12958753Y-15994936D01*
X12958753Y-15994936D02*
X12949229Y-16004460D01*
X12949229Y-16004460D02*
X12930182Y-16013984D01*
X12930182Y-16013984D02*
X12911134Y-16013984D01*
X12911134Y-16013984D02*
X12892086Y-16004460D01*
X12892086Y-16004460D02*
X12882563Y-15994936D01*
X12882563Y-15994936D02*
X12873039Y-15975888D01*
X12873039Y-15975888D02*
X12863515Y-15937793D01*
X12863515Y-15937793D02*
X12863515Y-15890174D01*
X12863515Y-15890174D02*
X12873039Y-15852079D01*
X12873039Y-15852079D02*
X12882563Y-15833031D01*
X12882563Y-15833031D02*
X12892086Y-15823508D01*
X12892086Y-15823508D02*
X12911134Y-15813984D01*
X13063515Y-15994936D02*
X13073039Y-16004460D01*
X13073039Y-16004460D02*
X13063515Y-16013984D01*
X13063515Y-16013984D02*
X13053991Y-16004460D01*
X13053991Y-16004460D02*
X13063515Y-15994936D01*
X13063515Y-15994936D02*
X13063515Y-16013984D01*
X13196848Y-15813984D02*
X13215896Y-15813984D01*
X13215896Y-15813984D02*
X13234944Y-15823508D01*
X13234944Y-15823508D02*
X13244467Y-15833031D01*
X13244467Y-15833031D02*
X13253991Y-15852079D01*
X13253991Y-15852079D02*
X13263515Y-15890174D01*
X13263515Y-15890174D02*
X13263515Y-15937793D01*
X13263515Y-15937793D02*
X13253991Y-15975888D01*
X13253991Y-15975888D02*
X13244467Y-15994936D01*
X13244467Y-15994936D02*
X13234944Y-16004460D01*
X13234944Y-16004460D02*
X13215896Y-16013984D01*
X13215896Y-16013984D02*
X13196848Y-16013984D01*
X13196848Y-16013984D02*
X13177801Y-16004460D01*
X13177801Y-16004460D02*
X13168277Y-15994936D01*
X13168277Y-15994936D02*
X13158753Y-15975888D01*
X13158753Y-15975888D02*
X13149229Y-15937793D01*
X13149229Y-15937793D02*
X13149229Y-15890174D01*
X13149229Y-15890174D02*
X13158753Y-15852079D01*
X13158753Y-15852079D02*
X13168277Y-15833031D01*
X13168277Y-15833031D02*
X13177801Y-15823508D01*
X13177801Y-15823508D02*
X13196848Y-15813984D01*
X13453991Y-16013984D02*
X13339706Y-16013984D01*
X13396848Y-16013984D02*
X13396848Y-15813984D01*
X13396848Y-15813984D02*
X13377801Y-15842555D01*
X13377801Y-15842555D02*
X13358753Y-15861603D01*
X13358753Y-15861603D02*
X13339706Y-15871127D01*
X13644467Y-16013984D02*
X13530182Y-16013984D01*
X13587325Y-16013984D02*
X13587325Y-15813984D01*
X13587325Y-15813984D02*
X13568277Y-15842555D01*
X13568277Y-15842555D02*
X13549229Y-15861603D01*
X13549229Y-15861603D02*
X13530182Y-15871127D01*
X13758753Y-15899698D02*
X13739706Y-15890174D01*
X13739706Y-15890174D02*
X13730182Y-15880650D01*
X13730182Y-15880650D02*
X13720658Y-15861603D01*
X13720658Y-15861603D02*
X13720658Y-15852079D01*
X13720658Y-15852079D02*
X13730182Y-15833031D01*
X13730182Y-15833031D02*
X13739706Y-15823508D01*
X13739706Y-15823508D02*
X13758753Y-15813984D01*
X13758753Y-15813984D02*
X13796848Y-15813984D01*
X13796848Y-15813984D02*
X13815896Y-15823508D01*
X13815896Y-15823508D02*
X13825420Y-15833031D01*
X13825420Y-15833031D02*
X13834944Y-15852079D01*
X13834944Y-15852079D02*
X13834944Y-15861603D01*
X13834944Y-15861603D02*
X13825420Y-15880650D01*
X13825420Y-15880650D02*
X13815896Y-15890174D01*
X13815896Y-15890174D02*
X13796848Y-15899698D01*
X13796848Y-15899698D02*
X13758753Y-15899698D01*
X13758753Y-15899698D02*
X13739706Y-15909222D01*
X13739706Y-15909222D02*
X13730182Y-15918746D01*
X13730182Y-15918746D02*
X13720658Y-15937793D01*
X13720658Y-15937793D02*
X13720658Y-15975888D01*
X13720658Y-15975888D02*
X13730182Y-15994936D01*
X13730182Y-15994936D02*
X13739706Y-16004460D01*
X13739706Y-16004460D02*
X13758753Y-16013984D01*
X13758753Y-16013984D02*
X13796848Y-16013984D01*
X13796848Y-16013984D02*
X13815896Y-16004460D01*
X13815896Y-16004460D02*
X13825420Y-15994936D01*
X13825420Y-15994936D02*
X13834944Y-15975888D01*
X13834944Y-15975888D02*
X13834944Y-15937793D01*
X13834944Y-15937793D02*
X13825420Y-15918746D01*
X13825420Y-15918746D02*
X13815896Y-15909222D01*
X13815896Y-15909222D02*
X13796848Y-15899698D01*
X13911134Y-15813984D02*
X13911134Y-15852079D01*
X13987325Y-15813984D02*
X13987325Y-15852079D01*
X14282563Y-16090174D02*
X14273039Y-16080650D01*
X14273039Y-16080650D02*
X14253991Y-16052079D01*
X14253991Y-16052079D02*
X14244468Y-16033031D01*
X14244468Y-16033031D02*
X14234944Y-16004460D01*
X14234944Y-16004460D02*
X14225420Y-15956841D01*
X14225420Y-15956841D02*
X14225420Y-15918746D01*
X14225420Y-15918746D02*
X14234944Y-15871127D01*
X14234944Y-15871127D02*
X14244468Y-15842555D01*
X14244468Y-15842555D02*
X14253991Y-15823508D01*
X14253991Y-15823508D02*
X14273039Y-15794936D01*
X14273039Y-15794936D02*
X14282563Y-15785412D01*
X14368277Y-16013984D02*
X14406372Y-16013984D01*
X14406372Y-16013984D02*
X14425420Y-16004460D01*
X14425420Y-16004460D02*
X14434944Y-15994936D01*
X14434944Y-15994936D02*
X14453991Y-15966365D01*
X14453991Y-15966365D02*
X14463515Y-15928269D01*
X14463515Y-15928269D02*
X14463515Y-15852079D01*
X14463515Y-15852079D02*
X14453991Y-15833031D01*
X14453991Y-15833031D02*
X14444468Y-15823508D01*
X14444468Y-15823508D02*
X14425420Y-15813984D01*
X14425420Y-15813984D02*
X14387325Y-15813984D01*
X14387325Y-15813984D02*
X14368277Y-15823508D01*
X14368277Y-15823508D02*
X14358753Y-15833031D01*
X14358753Y-15833031D02*
X14349229Y-15852079D01*
X14349229Y-15852079D02*
X14349229Y-15899698D01*
X14349229Y-15899698D02*
X14358753Y-15918746D01*
X14358753Y-15918746D02*
X14368277Y-15928269D01*
X14368277Y-15928269D02*
X14387325Y-15937793D01*
X14387325Y-15937793D02*
X14425420Y-15937793D01*
X14425420Y-15937793D02*
X14444468Y-15928269D01*
X14444468Y-15928269D02*
X14453991Y-15918746D01*
X14453991Y-15918746D02*
X14463515Y-15899698D01*
X14558753Y-16013984D02*
X14596848Y-16013984D01*
X14596848Y-16013984D02*
X14615896Y-16004460D01*
X14615896Y-16004460D02*
X14625420Y-15994936D01*
X14625420Y-15994936D02*
X14644468Y-15966365D01*
X14644468Y-15966365D02*
X14653991Y-15928269D01*
X14653991Y-15928269D02*
X14653991Y-15852079D01*
X14653991Y-15852079D02*
X14644468Y-15833031D01*
X14644468Y-15833031D02*
X14634944Y-15823508D01*
X14634944Y-15823508D02*
X14615896Y-15813984D01*
X14615896Y-15813984D02*
X14577801Y-15813984D01*
X14577801Y-15813984D02*
X14558753Y-15823508D01*
X14558753Y-15823508D02*
X14549229Y-15833031D01*
X14549229Y-15833031D02*
X14539706Y-15852079D01*
X14539706Y-15852079D02*
X14539706Y-15899698D01*
X14539706Y-15899698D02*
X14549229Y-15918746D01*
X14549229Y-15918746D02*
X14558753Y-15928269D01*
X14558753Y-15928269D02*
X14577801Y-15937793D01*
X14577801Y-15937793D02*
X14615896Y-15937793D01*
X14615896Y-15937793D02*
X14634944Y-15928269D01*
X14634944Y-15928269D02*
X14644468Y-15918746D01*
X14644468Y-15918746D02*
X14653991Y-15899698D01*
X14892087Y-16013984D02*
X14892087Y-15813984D01*
X14977801Y-16013984D02*
X14977801Y-15909222D01*
X14977801Y-15909222D02*
X14968277Y-15890174D01*
X14968277Y-15890174D02*
X14949230Y-15880650D01*
X14949230Y-15880650D02*
X14920658Y-15880650D01*
X14920658Y-15880650D02*
X14901610Y-15890174D01*
X14901610Y-15890174D02*
X14892087Y-15899698D01*
X15101610Y-16013984D02*
X15082563Y-16004460D01*
X15082563Y-16004460D02*
X15073039Y-15994936D01*
X15073039Y-15994936D02*
X15063515Y-15975888D01*
X15063515Y-15975888D02*
X15063515Y-15918746D01*
X15063515Y-15918746D02*
X15073039Y-15899698D01*
X15073039Y-15899698D02*
X15082563Y-15890174D01*
X15082563Y-15890174D02*
X15101610Y-15880650D01*
X15101610Y-15880650D02*
X15130182Y-15880650D01*
X15130182Y-15880650D02*
X15149230Y-15890174D01*
X15149230Y-15890174D02*
X15158753Y-15899698D01*
X15158753Y-15899698D02*
X15168277Y-15918746D01*
X15168277Y-15918746D02*
X15168277Y-15975888D01*
X15168277Y-15975888D02*
X15158753Y-15994936D01*
X15158753Y-15994936D02*
X15149230Y-16004460D01*
X15149230Y-16004460D02*
X15130182Y-16013984D01*
X15130182Y-16013984D02*
X15101610Y-16013984D01*
X15282563Y-16013984D02*
X15263515Y-16004460D01*
X15263515Y-16004460D02*
X15253991Y-15985412D01*
X15253991Y-15985412D02*
X15253991Y-15813984D01*
X15434944Y-16004460D02*
X15415896Y-16013984D01*
X15415896Y-16013984D02*
X15377801Y-16013984D01*
X15377801Y-16013984D02*
X15358753Y-16004460D01*
X15358753Y-16004460D02*
X15349230Y-15985412D01*
X15349230Y-15985412D02*
X15349230Y-15909222D01*
X15349230Y-15909222D02*
X15358753Y-15890174D01*
X15358753Y-15890174D02*
X15377801Y-15880650D01*
X15377801Y-15880650D02*
X15415896Y-15880650D01*
X15415896Y-15880650D02*
X15434944Y-15890174D01*
X15434944Y-15890174D02*
X15444468Y-15909222D01*
X15444468Y-15909222D02*
X15444468Y-15928269D01*
X15444468Y-15928269D02*
X15349230Y-15947317D01*
X15520658Y-16004460D02*
X15539706Y-16013984D01*
X15539706Y-16013984D02*
X15577801Y-16013984D01*
X15577801Y-16013984D02*
X15596849Y-16004460D01*
X15596849Y-16004460D02*
X15606372Y-15985412D01*
X15606372Y-15985412D02*
X15606372Y-15975888D01*
X15606372Y-15975888D02*
X15596849Y-15956841D01*
X15596849Y-15956841D02*
X15577801Y-15947317D01*
X15577801Y-15947317D02*
X15549230Y-15947317D01*
X15549230Y-15947317D02*
X15530182Y-15937793D01*
X15530182Y-15937793D02*
X15520658Y-15918746D01*
X15520658Y-15918746D02*
X15520658Y-15909222D01*
X15520658Y-15909222D02*
X15530182Y-15890174D01*
X15530182Y-15890174D02*
X15549230Y-15880650D01*
X15549230Y-15880650D02*
X15577801Y-15880650D01*
X15577801Y-15880650D02*
X15596849Y-15890174D01*
X15673039Y-16090174D02*
X15682563Y-16080650D01*
X15682563Y-16080650D02*
X15701611Y-16052079D01*
X15701611Y-16052079D02*
X15711134Y-16033031D01*
X15711134Y-16033031D02*
X15720658Y-16004460D01*
X15720658Y-16004460D02*
X15730182Y-15956841D01*
X15730182Y-15956841D02*
X15730182Y-15918746D01*
X15730182Y-15918746D02*
X15720658Y-15871127D01*
X15720658Y-15871127D02*
X15711134Y-15842555D01*
X15711134Y-15842555D02*
X15701611Y-15823508D01*
X15701611Y-15823508D02*
X15682563Y-15794936D01*
X15682563Y-15794936D02*
X15673039Y-15785412D01*
D12*
X10707500Y-16186500D02*
G75*
G02*
X10677500Y-16186500I-15000J0D01*
G01*
X10677500Y-16186500D02*
G75*
G02*
X10707500Y-16186500I15000J0D01*
G01*
D11*
X11006372Y-16077984D02*
X11025420Y-16077984D01*
X11025420Y-16077984D02*
X11044467Y-16087508D01*
X11044467Y-16087508D02*
X11053991Y-16097031D01*
X11053991Y-16097031D02*
X11063515Y-16116079D01*
X11063515Y-16116079D02*
X11073039Y-16154174D01*
X11073039Y-16154174D02*
X11073039Y-16201793D01*
X11073039Y-16201793D02*
X11063515Y-16239888D01*
X11063515Y-16239888D02*
X11053991Y-16258936D01*
X11053991Y-16258936D02*
X11044467Y-16268460D01*
X11044467Y-16268460D02*
X11025420Y-16277984D01*
X11025420Y-16277984D02*
X11006372Y-16277984D01*
X11006372Y-16277984D02*
X10987324Y-16268460D01*
X10987324Y-16268460D02*
X10977801Y-16258936D01*
X10977801Y-16258936D02*
X10968277Y-16239888D01*
X10968277Y-16239888D02*
X10958753Y-16201793D01*
X10958753Y-16201793D02*
X10958753Y-16154174D01*
X10958753Y-16154174D02*
X10968277Y-16116079D01*
X10968277Y-16116079D02*
X10977801Y-16097031D01*
X10977801Y-16097031D02*
X10987324Y-16087508D01*
X10987324Y-16087508D02*
X11006372Y-16077984D01*
X11158753Y-16258936D02*
X11168277Y-16268460D01*
X11168277Y-16268460D02*
X11158753Y-16277984D01*
X11158753Y-16277984D02*
X11149229Y-16268460D01*
X11149229Y-16268460D02*
X11158753Y-16258936D01*
X11158753Y-16258936D02*
X11158753Y-16277984D01*
X11234943Y-16077984D02*
X11358753Y-16077984D01*
X11358753Y-16077984D02*
X11292086Y-16154174D01*
X11292086Y-16154174D02*
X11320658Y-16154174D01*
X11320658Y-16154174D02*
X11339705Y-16163698D01*
X11339705Y-16163698D02*
X11349229Y-16173222D01*
X11349229Y-16173222D02*
X11358753Y-16192269D01*
X11358753Y-16192269D02*
X11358753Y-16239888D01*
X11358753Y-16239888D02*
X11349229Y-16258936D01*
X11349229Y-16258936D02*
X11339705Y-16268460D01*
X11339705Y-16268460D02*
X11320658Y-16277984D01*
X11320658Y-16277984D02*
X11263515Y-16277984D01*
X11263515Y-16277984D02*
X11244467Y-16268460D01*
X11244467Y-16268460D02*
X11234943Y-16258936D01*
X11482562Y-16077984D02*
X11501610Y-16077984D01*
X11501610Y-16077984D02*
X11520658Y-16087508D01*
X11520658Y-16087508D02*
X11530182Y-16097031D01*
X11530182Y-16097031D02*
X11539705Y-16116079D01*
X11539705Y-16116079D02*
X11549229Y-16154174D01*
X11549229Y-16154174D02*
X11549229Y-16201793D01*
X11549229Y-16201793D02*
X11539705Y-16239888D01*
X11539705Y-16239888D02*
X11530182Y-16258936D01*
X11530182Y-16258936D02*
X11520658Y-16268460D01*
X11520658Y-16268460D02*
X11501610Y-16277984D01*
X11501610Y-16277984D02*
X11482562Y-16277984D01*
X11482562Y-16277984D02*
X11463515Y-16268460D01*
X11463515Y-16268460D02*
X11453991Y-16258936D01*
X11453991Y-16258936D02*
X11444467Y-16239888D01*
X11444467Y-16239888D02*
X11434943Y-16201793D01*
X11434943Y-16201793D02*
X11434943Y-16154174D01*
X11434943Y-16154174D02*
X11444467Y-16116079D01*
X11444467Y-16116079D02*
X11453991Y-16097031D01*
X11453991Y-16097031D02*
X11463515Y-16087508D01*
X11463515Y-16087508D02*
X11482562Y-16077984D01*
X11673039Y-16077984D02*
X11692086Y-16077984D01*
X11692086Y-16077984D02*
X11711134Y-16087508D01*
X11711134Y-16087508D02*
X11720658Y-16097031D01*
X11720658Y-16097031D02*
X11730182Y-16116079D01*
X11730182Y-16116079D02*
X11739705Y-16154174D01*
X11739705Y-16154174D02*
X11739705Y-16201793D01*
X11739705Y-16201793D02*
X11730182Y-16239888D01*
X11730182Y-16239888D02*
X11720658Y-16258936D01*
X11720658Y-16258936D02*
X11711134Y-16268460D01*
X11711134Y-16268460D02*
X11692086Y-16277984D01*
X11692086Y-16277984D02*
X11673039Y-16277984D01*
X11673039Y-16277984D02*
X11653991Y-16268460D01*
X11653991Y-16268460D02*
X11644467Y-16258936D01*
X11644467Y-16258936D02*
X11634943Y-16239888D01*
X11634943Y-16239888D02*
X11625420Y-16201793D01*
X11625420Y-16201793D02*
X11625420Y-16154174D01*
X11625420Y-16154174D02*
X11634943Y-16116079D01*
X11634943Y-16116079D02*
X11644467Y-16097031D01*
X11644467Y-16097031D02*
X11653991Y-16087508D01*
X11653991Y-16087508D02*
X11673039Y-16077984D01*
X11825420Y-16277984D02*
X11825420Y-16144650D01*
X11825420Y-16163698D02*
X11834943Y-16154174D01*
X11834943Y-16154174D02*
X11853991Y-16144650D01*
X11853991Y-16144650D02*
X11882563Y-16144650D01*
X11882563Y-16144650D02*
X11901610Y-16154174D01*
X11901610Y-16154174D02*
X11911134Y-16173222D01*
X11911134Y-16173222D02*
X11911134Y-16277984D01*
X11911134Y-16173222D02*
X11920658Y-16154174D01*
X11920658Y-16154174D02*
X11939705Y-16144650D01*
X11939705Y-16144650D02*
X11968277Y-16144650D01*
X11968277Y-16144650D02*
X11987324Y-16154174D01*
X11987324Y-16154174D02*
X11996848Y-16173222D01*
X11996848Y-16173222D02*
X11996848Y-16277984D01*
X12092086Y-16277984D02*
X12092086Y-16144650D01*
X12092086Y-16163698D02*
X12101610Y-16154174D01*
X12101610Y-16154174D02*
X12120658Y-16144650D01*
X12120658Y-16144650D02*
X12149229Y-16144650D01*
X12149229Y-16144650D02*
X12168277Y-16154174D01*
X12168277Y-16154174D02*
X12177801Y-16173222D01*
X12177801Y-16173222D02*
X12177801Y-16277984D01*
X12177801Y-16173222D02*
X12187324Y-16154174D01*
X12187324Y-16154174D02*
X12206372Y-16144650D01*
X12206372Y-16144650D02*
X12234943Y-16144650D01*
X12234943Y-16144650D02*
X12253991Y-16154174D01*
X12253991Y-16154174D02*
X12263515Y-16173222D01*
X12263515Y-16173222D02*
X12263515Y-16277984D01*
X12653991Y-16068460D02*
X12482563Y-16325603D01*
X12911134Y-16077984D02*
X12930182Y-16077984D01*
X12930182Y-16077984D02*
X12949229Y-16087508D01*
X12949229Y-16087508D02*
X12958753Y-16097031D01*
X12958753Y-16097031D02*
X12968277Y-16116079D01*
X12968277Y-16116079D02*
X12977801Y-16154174D01*
X12977801Y-16154174D02*
X12977801Y-16201793D01*
X12977801Y-16201793D02*
X12968277Y-16239888D01*
X12968277Y-16239888D02*
X12958753Y-16258936D01*
X12958753Y-16258936D02*
X12949229Y-16268460D01*
X12949229Y-16268460D02*
X12930182Y-16277984D01*
X12930182Y-16277984D02*
X12911134Y-16277984D01*
X12911134Y-16277984D02*
X12892086Y-16268460D01*
X12892086Y-16268460D02*
X12882563Y-16258936D01*
X12882563Y-16258936D02*
X12873039Y-16239888D01*
X12873039Y-16239888D02*
X12863515Y-16201793D01*
X12863515Y-16201793D02*
X12863515Y-16154174D01*
X12863515Y-16154174D02*
X12873039Y-16116079D01*
X12873039Y-16116079D02*
X12882563Y-16097031D01*
X12882563Y-16097031D02*
X12892086Y-16087508D01*
X12892086Y-16087508D02*
X12911134Y-16077984D01*
X13063515Y-16258936D02*
X13073039Y-16268460D01*
X13073039Y-16268460D02*
X13063515Y-16277984D01*
X13063515Y-16277984D02*
X13053991Y-16268460D01*
X13053991Y-16268460D02*
X13063515Y-16258936D01*
X13063515Y-16258936D02*
X13063515Y-16277984D01*
X13196848Y-16077984D02*
X13215896Y-16077984D01*
X13215896Y-16077984D02*
X13234944Y-16087508D01*
X13234944Y-16087508D02*
X13244467Y-16097031D01*
X13244467Y-16097031D02*
X13253991Y-16116079D01*
X13253991Y-16116079D02*
X13263515Y-16154174D01*
X13263515Y-16154174D02*
X13263515Y-16201793D01*
X13263515Y-16201793D02*
X13253991Y-16239888D01*
X13253991Y-16239888D02*
X13244467Y-16258936D01*
X13244467Y-16258936D02*
X13234944Y-16268460D01*
X13234944Y-16268460D02*
X13215896Y-16277984D01*
X13215896Y-16277984D02*
X13196848Y-16277984D01*
X13196848Y-16277984D02*
X13177801Y-16268460D01*
X13177801Y-16268460D02*
X13168277Y-16258936D01*
X13168277Y-16258936D02*
X13158753Y-16239888D01*
X13158753Y-16239888D02*
X13149229Y-16201793D01*
X13149229Y-16201793D02*
X13149229Y-16154174D01*
X13149229Y-16154174D02*
X13158753Y-16116079D01*
X13158753Y-16116079D02*
X13168277Y-16097031D01*
X13168277Y-16097031D02*
X13177801Y-16087508D01*
X13177801Y-16087508D02*
X13196848Y-16077984D01*
X13453991Y-16277984D02*
X13339706Y-16277984D01*
X13396848Y-16277984D02*
X13396848Y-16077984D01*
X13396848Y-16077984D02*
X13377801Y-16106555D01*
X13377801Y-16106555D02*
X13358753Y-16125603D01*
X13358753Y-16125603D02*
X13339706Y-16135127D01*
X13644467Y-16277984D02*
X13530182Y-16277984D01*
X13587325Y-16277984D02*
X13587325Y-16077984D01*
X13587325Y-16077984D02*
X13568277Y-16106555D01*
X13568277Y-16106555D02*
X13549229Y-16125603D01*
X13549229Y-16125603D02*
X13530182Y-16135127D01*
X13758753Y-16163698D02*
X13739706Y-16154174D01*
X13739706Y-16154174D02*
X13730182Y-16144650D01*
X13730182Y-16144650D02*
X13720658Y-16125603D01*
X13720658Y-16125603D02*
X13720658Y-16116079D01*
X13720658Y-16116079D02*
X13730182Y-16097031D01*
X13730182Y-16097031D02*
X13739706Y-16087508D01*
X13739706Y-16087508D02*
X13758753Y-16077984D01*
X13758753Y-16077984D02*
X13796848Y-16077984D01*
X13796848Y-16077984D02*
X13815896Y-16087508D01*
X13815896Y-16087508D02*
X13825420Y-16097031D01*
X13825420Y-16097031D02*
X13834944Y-16116079D01*
X13834944Y-16116079D02*
X13834944Y-16125603D01*
X13834944Y-16125603D02*
X13825420Y-16144650D01*
X13825420Y-16144650D02*
X13815896Y-16154174D01*
X13815896Y-16154174D02*
X13796848Y-16163698D01*
X13796848Y-16163698D02*
X13758753Y-16163698D01*
X13758753Y-16163698D02*
X13739706Y-16173222D01*
X13739706Y-16173222D02*
X13730182Y-16182746D01*
X13730182Y-16182746D02*
X13720658Y-16201793D01*
X13720658Y-16201793D02*
X13720658Y-16239888D01*
X13720658Y-16239888D02*
X13730182Y-16258936D01*
X13730182Y-16258936D02*
X13739706Y-16268460D01*
X13739706Y-16268460D02*
X13758753Y-16277984D01*
X13758753Y-16277984D02*
X13796848Y-16277984D01*
X13796848Y-16277984D02*
X13815896Y-16268460D01*
X13815896Y-16268460D02*
X13825420Y-16258936D01*
X13825420Y-16258936D02*
X13834944Y-16239888D01*
X13834944Y-16239888D02*
X13834944Y-16201793D01*
X13834944Y-16201793D02*
X13825420Y-16182746D01*
X13825420Y-16182746D02*
X13815896Y-16173222D01*
X13815896Y-16173222D02*
X13796848Y-16163698D01*
X13911134Y-16077984D02*
X13911134Y-16116079D01*
X13987325Y-16077984D02*
X13987325Y-16116079D01*
X14282563Y-16354174D02*
X14273039Y-16344650D01*
X14273039Y-16344650D02*
X14253991Y-16316079D01*
X14253991Y-16316079D02*
X14244468Y-16297031D01*
X14244468Y-16297031D02*
X14234944Y-16268460D01*
X14234944Y-16268460D02*
X14225420Y-16220841D01*
X14225420Y-16220841D02*
X14225420Y-16182746D01*
X14225420Y-16182746D02*
X14234944Y-16135127D01*
X14234944Y-16135127D02*
X14244468Y-16106555D01*
X14244468Y-16106555D02*
X14253991Y-16087508D01*
X14253991Y-16087508D02*
X14273039Y-16058936D01*
X14273039Y-16058936D02*
X14282563Y-16049412D01*
X14444468Y-16077984D02*
X14406372Y-16077984D01*
X14406372Y-16077984D02*
X14387325Y-16087508D01*
X14387325Y-16087508D02*
X14377801Y-16097031D01*
X14377801Y-16097031D02*
X14358753Y-16125603D01*
X14358753Y-16125603D02*
X14349229Y-16163698D01*
X14349229Y-16163698D02*
X14349229Y-16239888D01*
X14349229Y-16239888D02*
X14358753Y-16258936D01*
X14358753Y-16258936D02*
X14368277Y-16268460D01*
X14368277Y-16268460D02*
X14387325Y-16277984D01*
X14387325Y-16277984D02*
X14425420Y-16277984D01*
X14425420Y-16277984D02*
X14444468Y-16268460D01*
X14444468Y-16268460D02*
X14453991Y-16258936D01*
X14453991Y-16258936D02*
X14463515Y-16239888D01*
X14463515Y-16239888D02*
X14463515Y-16192269D01*
X14463515Y-16192269D02*
X14453991Y-16173222D01*
X14453991Y-16173222D02*
X14444468Y-16163698D01*
X14444468Y-16163698D02*
X14425420Y-16154174D01*
X14425420Y-16154174D02*
X14387325Y-16154174D01*
X14387325Y-16154174D02*
X14368277Y-16163698D01*
X14368277Y-16163698D02*
X14358753Y-16173222D01*
X14358753Y-16173222D02*
X14349229Y-16192269D01*
X14701610Y-16277984D02*
X14701610Y-16077984D01*
X14787325Y-16277984D02*
X14787325Y-16173222D01*
X14787325Y-16173222D02*
X14777801Y-16154174D01*
X14777801Y-16154174D02*
X14758753Y-16144650D01*
X14758753Y-16144650D02*
X14730182Y-16144650D01*
X14730182Y-16144650D02*
X14711134Y-16154174D01*
X14711134Y-16154174D02*
X14701610Y-16163698D01*
X14911134Y-16277984D02*
X14892087Y-16268460D01*
X14892087Y-16268460D02*
X14882563Y-16258936D01*
X14882563Y-16258936D02*
X14873039Y-16239888D01*
X14873039Y-16239888D02*
X14873039Y-16182746D01*
X14873039Y-16182746D02*
X14882563Y-16163698D01*
X14882563Y-16163698D02*
X14892087Y-16154174D01*
X14892087Y-16154174D02*
X14911134Y-16144650D01*
X14911134Y-16144650D02*
X14939706Y-16144650D01*
X14939706Y-16144650D02*
X14958753Y-16154174D01*
X14958753Y-16154174D02*
X14968277Y-16163698D01*
X14968277Y-16163698D02*
X14977801Y-16182746D01*
X14977801Y-16182746D02*
X14977801Y-16239888D01*
X14977801Y-16239888D02*
X14968277Y-16258936D01*
X14968277Y-16258936D02*
X14958753Y-16268460D01*
X14958753Y-16268460D02*
X14939706Y-16277984D01*
X14939706Y-16277984D02*
X14911134Y-16277984D01*
X15092087Y-16277984D02*
X15073039Y-16268460D01*
X15073039Y-16268460D02*
X15063515Y-16249412D01*
X15063515Y-16249412D02*
X15063515Y-16077984D01*
X15244468Y-16268460D02*
X15225420Y-16277984D01*
X15225420Y-16277984D02*
X15187325Y-16277984D01*
X15187325Y-16277984D02*
X15168277Y-16268460D01*
X15168277Y-16268460D02*
X15158753Y-16249412D01*
X15158753Y-16249412D02*
X15158753Y-16173222D01*
X15158753Y-16173222D02*
X15168277Y-16154174D01*
X15168277Y-16154174D02*
X15187325Y-16144650D01*
X15187325Y-16144650D02*
X15225420Y-16144650D01*
X15225420Y-16144650D02*
X15244468Y-16154174D01*
X15244468Y-16154174D02*
X15253991Y-16173222D01*
X15253991Y-16173222D02*
X15253991Y-16192269D01*
X15253991Y-16192269D02*
X15158753Y-16211317D01*
X15330182Y-16268460D02*
X15349230Y-16277984D01*
X15349230Y-16277984D02*
X15387325Y-16277984D01*
X15387325Y-16277984D02*
X15406372Y-16268460D01*
X15406372Y-16268460D02*
X15415896Y-16249412D01*
X15415896Y-16249412D02*
X15415896Y-16239888D01*
X15415896Y-16239888D02*
X15406372Y-16220841D01*
X15406372Y-16220841D02*
X15387325Y-16211317D01*
X15387325Y-16211317D02*
X15358753Y-16211317D01*
X15358753Y-16211317D02*
X15339706Y-16201793D01*
X15339706Y-16201793D02*
X15330182Y-16182746D01*
X15330182Y-16182746D02*
X15330182Y-16173222D01*
X15330182Y-16173222D02*
X15339706Y-16154174D01*
X15339706Y-16154174D02*
X15358753Y-16144650D01*
X15358753Y-16144650D02*
X15387325Y-16144650D01*
X15387325Y-16144650D02*
X15406372Y-16154174D01*
X15482563Y-16354174D02*
X15492087Y-16344650D01*
X15492087Y-16344650D02*
X15511134Y-16316079D01*
X15511134Y-16316079D02*
X15520658Y-16297031D01*
X15520658Y-16297031D02*
X15530182Y-16268460D01*
X15530182Y-16268460D02*
X15539706Y-16220841D01*
X15539706Y-16220841D02*
X15539706Y-16182746D01*
X15539706Y-16182746D02*
X15530182Y-16135127D01*
X15530182Y-16135127D02*
X15520658Y-16106555D01*
X15520658Y-16106555D02*
X15511134Y-16087508D01*
X15511134Y-16087508D02*
X15492087Y-16058936D01*
X15492087Y-16058936D02*
X15482563Y-16049412D01*
D13*
X10652500Y-16395500D02*
X10652500Y-16505500D01*
X10597500Y-16450500D02*
X10707500Y-16450500D01*
D11*
X11073039Y-16541984D02*
X10958753Y-16541984D01*
X11015896Y-16541984D02*
X11015896Y-16341984D01*
X11015896Y-16341984D02*
X10996848Y-16370555D01*
X10996848Y-16370555D02*
X10977801Y-16389603D01*
X10977801Y-16389603D02*
X10958753Y-16399127D01*
X11158753Y-16522936D02*
X11168277Y-16532460D01*
X11168277Y-16532460D02*
X11158753Y-16541984D01*
X11158753Y-16541984D02*
X11149229Y-16532460D01*
X11149229Y-16532460D02*
X11158753Y-16522936D01*
X11158753Y-16522936D02*
X11158753Y-16541984D01*
X11358753Y-16541984D02*
X11244467Y-16541984D01*
X11301610Y-16541984D02*
X11301610Y-16341984D01*
X11301610Y-16341984D02*
X11282562Y-16370555D01*
X11282562Y-16370555D02*
X11263515Y-16389603D01*
X11263515Y-16389603D02*
X11244467Y-16399127D01*
X11482562Y-16341984D02*
X11501610Y-16341984D01*
X11501610Y-16341984D02*
X11520658Y-16351508D01*
X11520658Y-16351508D02*
X11530182Y-16361031D01*
X11530182Y-16361031D02*
X11539705Y-16380079D01*
X11539705Y-16380079D02*
X11549229Y-16418174D01*
X11549229Y-16418174D02*
X11549229Y-16465793D01*
X11549229Y-16465793D02*
X11539705Y-16503888D01*
X11539705Y-16503888D02*
X11530182Y-16522936D01*
X11530182Y-16522936D02*
X11520658Y-16532460D01*
X11520658Y-16532460D02*
X11501610Y-16541984D01*
X11501610Y-16541984D02*
X11482562Y-16541984D01*
X11482562Y-16541984D02*
X11463515Y-16532460D01*
X11463515Y-16532460D02*
X11453991Y-16522936D01*
X11453991Y-16522936D02*
X11444467Y-16503888D01*
X11444467Y-16503888D02*
X11434943Y-16465793D01*
X11434943Y-16465793D02*
X11434943Y-16418174D01*
X11434943Y-16418174D02*
X11444467Y-16380079D01*
X11444467Y-16380079D02*
X11453991Y-16361031D01*
X11453991Y-16361031D02*
X11463515Y-16351508D01*
X11463515Y-16351508D02*
X11482562Y-16341984D01*
X11673039Y-16341984D02*
X11692086Y-16341984D01*
X11692086Y-16341984D02*
X11711134Y-16351508D01*
X11711134Y-16351508D02*
X11720658Y-16361031D01*
X11720658Y-16361031D02*
X11730182Y-16380079D01*
X11730182Y-16380079D02*
X11739705Y-16418174D01*
X11739705Y-16418174D02*
X11739705Y-16465793D01*
X11739705Y-16465793D02*
X11730182Y-16503888D01*
X11730182Y-16503888D02*
X11720658Y-16522936D01*
X11720658Y-16522936D02*
X11711134Y-16532460D01*
X11711134Y-16532460D02*
X11692086Y-16541984D01*
X11692086Y-16541984D02*
X11673039Y-16541984D01*
X11673039Y-16541984D02*
X11653991Y-16532460D01*
X11653991Y-16532460D02*
X11644467Y-16522936D01*
X11644467Y-16522936D02*
X11634943Y-16503888D01*
X11634943Y-16503888D02*
X11625420Y-16465793D01*
X11625420Y-16465793D02*
X11625420Y-16418174D01*
X11625420Y-16418174D02*
X11634943Y-16380079D01*
X11634943Y-16380079D02*
X11644467Y-16361031D01*
X11644467Y-16361031D02*
X11653991Y-16351508D01*
X11653991Y-16351508D02*
X11673039Y-16341984D01*
X11825420Y-16541984D02*
X11825420Y-16408650D01*
X11825420Y-16427698D02*
X11834943Y-16418174D01*
X11834943Y-16418174D02*
X11853991Y-16408650D01*
X11853991Y-16408650D02*
X11882563Y-16408650D01*
X11882563Y-16408650D02*
X11901610Y-16418174D01*
X11901610Y-16418174D02*
X11911134Y-16437222D01*
X11911134Y-16437222D02*
X11911134Y-16541984D01*
X11911134Y-16437222D02*
X11920658Y-16418174D01*
X11920658Y-16418174D02*
X11939705Y-16408650D01*
X11939705Y-16408650D02*
X11968277Y-16408650D01*
X11968277Y-16408650D02*
X11987324Y-16418174D01*
X11987324Y-16418174D02*
X11996848Y-16437222D01*
X11996848Y-16437222D02*
X11996848Y-16541984D01*
X12092086Y-16541984D02*
X12092086Y-16408650D01*
X12092086Y-16427698D02*
X12101610Y-16418174D01*
X12101610Y-16418174D02*
X12120658Y-16408650D01*
X12120658Y-16408650D02*
X12149229Y-16408650D01*
X12149229Y-16408650D02*
X12168277Y-16418174D01*
X12168277Y-16418174D02*
X12177801Y-16437222D01*
X12177801Y-16437222D02*
X12177801Y-16541984D01*
X12177801Y-16437222D02*
X12187324Y-16418174D01*
X12187324Y-16418174D02*
X12206372Y-16408650D01*
X12206372Y-16408650D02*
X12234943Y-16408650D01*
X12234943Y-16408650D02*
X12253991Y-16418174D01*
X12253991Y-16418174D02*
X12263515Y-16437222D01*
X12263515Y-16437222D02*
X12263515Y-16541984D01*
X12653991Y-16332460D02*
X12482563Y-16589603D01*
X12911134Y-16341984D02*
X12930182Y-16341984D01*
X12930182Y-16341984D02*
X12949229Y-16351508D01*
X12949229Y-16351508D02*
X12958753Y-16361031D01*
X12958753Y-16361031D02*
X12968277Y-16380079D01*
X12968277Y-16380079D02*
X12977801Y-16418174D01*
X12977801Y-16418174D02*
X12977801Y-16465793D01*
X12977801Y-16465793D02*
X12968277Y-16503888D01*
X12968277Y-16503888D02*
X12958753Y-16522936D01*
X12958753Y-16522936D02*
X12949229Y-16532460D01*
X12949229Y-16532460D02*
X12930182Y-16541984D01*
X12930182Y-16541984D02*
X12911134Y-16541984D01*
X12911134Y-16541984D02*
X12892086Y-16532460D01*
X12892086Y-16532460D02*
X12882563Y-16522936D01*
X12882563Y-16522936D02*
X12873039Y-16503888D01*
X12873039Y-16503888D02*
X12863515Y-16465793D01*
X12863515Y-16465793D02*
X12863515Y-16418174D01*
X12863515Y-16418174D02*
X12873039Y-16380079D01*
X12873039Y-16380079D02*
X12882563Y-16361031D01*
X12882563Y-16361031D02*
X12892086Y-16351508D01*
X12892086Y-16351508D02*
X12911134Y-16341984D01*
X13063515Y-16522936D02*
X13073039Y-16532460D01*
X13073039Y-16532460D02*
X13063515Y-16541984D01*
X13063515Y-16541984D02*
X13053991Y-16532460D01*
X13053991Y-16532460D02*
X13063515Y-16522936D01*
X13063515Y-16522936D02*
X13063515Y-16541984D01*
X13196848Y-16341984D02*
X13215896Y-16341984D01*
X13215896Y-16341984D02*
X13234944Y-16351508D01*
X13234944Y-16351508D02*
X13244467Y-16361031D01*
X13244467Y-16361031D02*
X13253991Y-16380079D01*
X13253991Y-16380079D02*
X13263515Y-16418174D01*
X13263515Y-16418174D02*
X13263515Y-16465793D01*
X13263515Y-16465793D02*
X13253991Y-16503888D01*
X13253991Y-16503888D02*
X13244467Y-16522936D01*
X13244467Y-16522936D02*
X13234944Y-16532460D01*
X13234944Y-16532460D02*
X13215896Y-16541984D01*
X13215896Y-16541984D02*
X13196848Y-16541984D01*
X13196848Y-16541984D02*
X13177801Y-16532460D01*
X13177801Y-16532460D02*
X13168277Y-16522936D01*
X13168277Y-16522936D02*
X13158753Y-16503888D01*
X13158753Y-16503888D02*
X13149229Y-16465793D01*
X13149229Y-16465793D02*
X13149229Y-16418174D01*
X13149229Y-16418174D02*
X13158753Y-16380079D01*
X13158753Y-16380079D02*
X13168277Y-16361031D01*
X13168277Y-16361031D02*
X13177801Y-16351508D01*
X13177801Y-16351508D02*
X13196848Y-16341984D01*
X13434944Y-16408650D02*
X13434944Y-16541984D01*
X13387325Y-16332460D02*
X13339706Y-16475317D01*
X13339706Y-16475317D02*
X13463515Y-16475317D01*
X13520658Y-16341984D02*
X13644467Y-16341984D01*
X13644467Y-16341984D02*
X13577801Y-16418174D01*
X13577801Y-16418174D02*
X13606372Y-16418174D01*
X13606372Y-16418174D02*
X13625420Y-16427698D01*
X13625420Y-16427698D02*
X13634944Y-16437222D01*
X13634944Y-16437222D02*
X13644467Y-16456269D01*
X13644467Y-16456269D02*
X13644467Y-16503888D01*
X13644467Y-16503888D02*
X13634944Y-16522936D01*
X13634944Y-16522936D02*
X13625420Y-16532460D01*
X13625420Y-16532460D02*
X13606372Y-16541984D01*
X13606372Y-16541984D02*
X13549229Y-16541984D01*
X13549229Y-16541984D02*
X13530182Y-16532460D01*
X13530182Y-16532460D02*
X13520658Y-16522936D01*
X13711134Y-16341984D02*
X13834944Y-16341984D01*
X13834944Y-16341984D02*
X13768277Y-16418174D01*
X13768277Y-16418174D02*
X13796848Y-16418174D01*
X13796848Y-16418174D02*
X13815896Y-16427698D01*
X13815896Y-16427698D02*
X13825420Y-16437222D01*
X13825420Y-16437222D02*
X13834944Y-16456269D01*
X13834944Y-16456269D02*
X13834944Y-16503888D01*
X13834944Y-16503888D02*
X13825420Y-16522936D01*
X13825420Y-16522936D02*
X13815896Y-16532460D01*
X13815896Y-16532460D02*
X13796848Y-16541984D01*
X13796848Y-16541984D02*
X13739706Y-16541984D01*
X13739706Y-16541984D02*
X13720658Y-16532460D01*
X13720658Y-16532460D02*
X13711134Y-16522936D01*
X13911134Y-16341984D02*
X13911134Y-16380079D01*
X13987325Y-16341984D02*
X13987325Y-16380079D01*
X14282563Y-16618174D02*
X14273039Y-16608650D01*
X14273039Y-16608650D02*
X14253991Y-16580079D01*
X14253991Y-16580079D02*
X14244468Y-16561031D01*
X14244468Y-16561031D02*
X14234944Y-16532460D01*
X14234944Y-16532460D02*
X14225420Y-16484841D01*
X14225420Y-16484841D02*
X14225420Y-16446746D01*
X14225420Y-16446746D02*
X14234944Y-16399127D01*
X14234944Y-16399127D02*
X14244468Y-16370555D01*
X14244468Y-16370555D02*
X14253991Y-16351508D01*
X14253991Y-16351508D02*
X14273039Y-16322936D01*
X14273039Y-16322936D02*
X14282563Y-16313412D01*
X14339706Y-16341984D02*
X14463515Y-16341984D01*
X14463515Y-16341984D02*
X14396848Y-16418174D01*
X14396848Y-16418174D02*
X14425420Y-16418174D01*
X14425420Y-16418174D02*
X14444468Y-16427698D01*
X14444468Y-16427698D02*
X14453991Y-16437222D01*
X14453991Y-16437222D02*
X14463515Y-16456269D01*
X14463515Y-16456269D02*
X14463515Y-16503888D01*
X14463515Y-16503888D02*
X14453991Y-16522936D01*
X14453991Y-16522936D02*
X14444468Y-16532460D01*
X14444468Y-16532460D02*
X14425420Y-16541984D01*
X14425420Y-16541984D02*
X14368277Y-16541984D01*
X14368277Y-16541984D02*
X14349229Y-16532460D01*
X14349229Y-16532460D02*
X14339706Y-16522936D01*
X14701610Y-16541984D02*
X14701610Y-16341984D01*
X14787325Y-16541984D02*
X14787325Y-16437222D01*
X14787325Y-16437222D02*
X14777801Y-16418174D01*
X14777801Y-16418174D02*
X14758753Y-16408650D01*
X14758753Y-16408650D02*
X14730182Y-16408650D01*
X14730182Y-16408650D02*
X14711134Y-16418174D01*
X14711134Y-16418174D02*
X14701610Y-16427698D01*
X14911134Y-16541984D02*
X14892087Y-16532460D01*
X14892087Y-16532460D02*
X14882563Y-16522936D01*
X14882563Y-16522936D02*
X14873039Y-16503888D01*
X14873039Y-16503888D02*
X14873039Y-16446746D01*
X14873039Y-16446746D02*
X14882563Y-16427698D01*
X14882563Y-16427698D02*
X14892087Y-16418174D01*
X14892087Y-16418174D02*
X14911134Y-16408650D01*
X14911134Y-16408650D02*
X14939706Y-16408650D01*
X14939706Y-16408650D02*
X14958753Y-16418174D01*
X14958753Y-16418174D02*
X14968277Y-16427698D01*
X14968277Y-16427698D02*
X14977801Y-16446746D01*
X14977801Y-16446746D02*
X14977801Y-16503888D01*
X14977801Y-16503888D02*
X14968277Y-16522936D01*
X14968277Y-16522936D02*
X14958753Y-16532460D01*
X14958753Y-16532460D02*
X14939706Y-16541984D01*
X14939706Y-16541984D02*
X14911134Y-16541984D01*
X15092087Y-16541984D02*
X15073039Y-16532460D01*
X15073039Y-16532460D02*
X15063515Y-16513412D01*
X15063515Y-16513412D02*
X15063515Y-16341984D01*
X15244468Y-16532460D02*
X15225420Y-16541984D01*
X15225420Y-16541984D02*
X15187325Y-16541984D01*
X15187325Y-16541984D02*
X15168277Y-16532460D01*
X15168277Y-16532460D02*
X15158753Y-16513412D01*
X15158753Y-16513412D02*
X15158753Y-16437222D01*
X15158753Y-16437222D02*
X15168277Y-16418174D01*
X15168277Y-16418174D02*
X15187325Y-16408650D01*
X15187325Y-16408650D02*
X15225420Y-16408650D01*
X15225420Y-16408650D02*
X15244468Y-16418174D01*
X15244468Y-16418174D02*
X15253991Y-16437222D01*
X15253991Y-16437222D02*
X15253991Y-16456269D01*
X15253991Y-16456269D02*
X15158753Y-16475317D01*
X15330182Y-16532460D02*
X15349230Y-16541984D01*
X15349230Y-16541984D02*
X15387325Y-16541984D01*
X15387325Y-16541984D02*
X15406372Y-16532460D01*
X15406372Y-16532460D02*
X15415896Y-16513412D01*
X15415896Y-16513412D02*
X15415896Y-16503888D01*
X15415896Y-16503888D02*
X15406372Y-16484841D01*
X15406372Y-16484841D02*
X15387325Y-16475317D01*
X15387325Y-16475317D02*
X15358753Y-16475317D01*
X15358753Y-16475317D02*
X15339706Y-16465793D01*
X15339706Y-16465793D02*
X15330182Y-16446746D01*
X15330182Y-16446746D02*
X15330182Y-16437222D01*
X15330182Y-16437222D02*
X15339706Y-16418174D01*
X15339706Y-16418174D02*
X15358753Y-16408650D01*
X15358753Y-16408650D02*
X15387325Y-16408650D01*
X15387325Y-16408650D02*
X15406372Y-16418174D01*
X15482563Y-16618174D02*
X15492087Y-16608650D01*
X15492087Y-16608650D02*
X15511134Y-16580079D01*
X15511134Y-16580079D02*
X15520658Y-16561031D01*
X15520658Y-16561031D02*
X15530182Y-16532460D01*
X15530182Y-16532460D02*
X15539706Y-16484841D01*
X15539706Y-16484841D02*
X15539706Y-16446746D01*
X15539706Y-16446746D02*
X15530182Y-16399127D01*
X15530182Y-16399127D02*
X15520658Y-16370555D01*
X15520658Y-16370555D02*
X15511134Y-16351508D01*
X15511134Y-16351508D02*
X15492087Y-16322936D01*
X15492087Y-16322936D02*
X15482563Y-16313412D01*
D14*
X10689927Y-16756927D02*
X10689927Y-16672073D01*
X10605073Y-16672073D01*
X10605073Y-16756927D01*
X10689927Y-16756927D01*
D11*
X11073039Y-16805984D02*
X10958753Y-16805984D01*
X11015896Y-16805984D02*
X11015896Y-16605984D01*
X11015896Y-16605984D02*
X10996848Y-16634555D01*
X10996848Y-16634555D02*
X10977801Y-16653603D01*
X10977801Y-16653603D02*
X10958753Y-16663127D01*
X11158753Y-16786936D02*
X11168277Y-16796460D01*
X11168277Y-16796460D02*
X11158753Y-16805984D01*
X11158753Y-16805984D02*
X11149229Y-16796460D01*
X11149229Y-16796460D02*
X11158753Y-16786936D01*
X11158753Y-16786936D02*
X11158753Y-16805984D01*
X11244467Y-16625031D02*
X11253991Y-16615508D01*
X11253991Y-16615508D02*
X11273039Y-16605984D01*
X11273039Y-16605984D02*
X11320658Y-16605984D01*
X11320658Y-16605984D02*
X11339705Y-16615508D01*
X11339705Y-16615508D02*
X11349229Y-16625031D01*
X11349229Y-16625031D02*
X11358753Y-16644079D01*
X11358753Y-16644079D02*
X11358753Y-16663127D01*
X11358753Y-16663127D02*
X11349229Y-16691698D01*
X11349229Y-16691698D02*
X11234943Y-16805984D01*
X11234943Y-16805984D02*
X11358753Y-16805984D01*
X11482562Y-16605984D02*
X11501610Y-16605984D01*
X11501610Y-16605984D02*
X11520658Y-16615508D01*
X11520658Y-16615508D02*
X11530182Y-16625031D01*
X11530182Y-16625031D02*
X11539705Y-16644079D01*
X11539705Y-16644079D02*
X11549229Y-16682174D01*
X11549229Y-16682174D02*
X11549229Y-16729793D01*
X11549229Y-16729793D02*
X11539705Y-16767888D01*
X11539705Y-16767888D02*
X11530182Y-16786936D01*
X11530182Y-16786936D02*
X11520658Y-16796460D01*
X11520658Y-16796460D02*
X11501610Y-16805984D01*
X11501610Y-16805984D02*
X11482562Y-16805984D01*
X11482562Y-16805984D02*
X11463515Y-16796460D01*
X11463515Y-16796460D02*
X11453991Y-16786936D01*
X11453991Y-16786936D02*
X11444467Y-16767888D01*
X11444467Y-16767888D02*
X11434943Y-16729793D01*
X11434943Y-16729793D02*
X11434943Y-16682174D01*
X11434943Y-16682174D02*
X11444467Y-16644079D01*
X11444467Y-16644079D02*
X11453991Y-16625031D01*
X11453991Y-16625031D02*
X11463515Y-16615508D01*
X11463515Y-16615508D02*
X11482562Y-16605984D01*
X11673039Y-16605984D02*
X11692086Y-16605984D01*
X11692086Y-16605984D02*
X11711134Y-16615508D01*
X11711134Y-16615508D02*
X11720658Y-16625031D01*
X11720658Y-16625031D02*
X11730182Y-16644079D01*
X11730182Y-16644079D02*
X11739705Y-16682174D01*
X11739705Y-16682174D02*
X11739705Y-16729793D01*
X11739705Y-16729793D02*
X11730182Y-16767888D01*
X11730182Y-16767888D02*
X11720658Y-16786936D01*
X11720658Y-16786936D02*
X11711134Y-16796460D01*
X11711134Y-16796460D02*
X11692086Y-16805984D01*
X11692086Y-16805984D02*
X11673039Y-16805984D01*
X11673039Y-16805984D02*
X11653991Y-16796460D01*
X11653991Y-16796460D02*
X11644467Y-16786936D01*
X11644467Y-16786936D02*
X11634943Y-16767888D01*
X11634943Y-16767888D02*
X11625420Y-16729793D01*
X11625420Y-16729793D02*
X11625420Y-16682174D01*
X11625420Y-16682174D02*
X11634943Y-16644079D01*
X11634943Y-16644079D02*
X11644467Y-16625031D01*
X11644467Y-16625031D02*
X11653991Y-16615508D01*
X11653991Y-16615508D02*
X11673039Y-16605984D01*
X11825420Y-16805984D02*
X11825420Y-16672650D01*
X11825420Y-16691698D02*
X11834943Y-16682174D01*
X11834943Y-16682174D02*
X11853991Y-16672650D01*
X11853991Y-16672650D02*
X11882563Y-16672650D01*
X11882563Y-16672650D02*
X11901610Y-16682174D01*
X11901610Y-16682174D02*
X11911134Y-16701222D01*
X11911134Y-16701222D02*
X11911134Y-16805984D01*
X11911134Y-16701222D02*
X11920658Y-16682174D01*
X11920658Y-16682174D02*
X11939705Y-16672650D01*
X11939705Y-16672650D02*
X11968277Y-16672650D01*
X11968277Y-16672650D02*
X11987324Y-16682174D01*
X11987324Y-16682174D02*
X11996848Y-16701222D01*
X11996848Y-16701222D02*
X11996848Y-16805984D01*
X12092086Y-16805984D02*
X12092086Y-16672650D01*
X12092086Y-16691698D02*
X12101610Y-16682174D01*
X12101610Y-16682174D02*
X12120658Y-16672650D01*
X12120658Y-16672650D02*
X12149229Y-16672650D01*
X12149229Y-16672650D02*
X12168277Y-16682174D01*
X12168277Y-16682174D02*
X12177801Y-16701222D01*
X12177801Y-16701222D02*
X12177801Y-16805984D01*
X12177801Y-16701222D02*
X12187324Y-16682174D01*
X12187324Y-16682174D02*
X12206372Y-16672650D01*
X12206372Y-16672650D02*
X12234943Y-16672650D01*
X12234943Y-16672650D02*
X12253991Y-16682174D01*
X12253991Y-16682174D02*
X12263515Y-16701222D01*
X12263515Y-16701222D02*
X12263515Y-16805984D01*
X12653991Y-16596460D02*
X12482563Y-16853603D01*
X12911134Y-16605984D02*
X12930182Y-16605984D01*
X12930182Y-16605984D02*
X12949229Y-16615508D01*
X12949229Y-16615508D02*
X12958753Y-16625031D01*
X12958753Y-16625031D02*
X12968277Y-16644079D01*
X12968277Y-16644079D02*
X12977801Y-16682174D01*
X12977801Y-16682174D02*
X12977801Y-16729793D01*
X12977801Y-16729793D02*
X12968277Y-16767888D01*
X12968277Y-16767888D02*
X12958753Y-16786936D01*
X12958753Y-16786936D02*
X12949229Y-16796460D01*
X12949229Y-16796460D02*
X12930182Y-16805984D01*
X12930182Y-16805984D02*
X12911134Y-16805984D01*
X12911134Y-16805984D02*
X12892086Y-16796460D01*
X12892086Y-16796460D02*
X12882563Y-16786936D01*
X12882563Y-16786936D02*
X12873039Y-16767888D01*
X12873039Y-16767888D02*
X12863515Y-16729793D01*
X12863515Y-16729793D02*
X12863515Y-16682174D01*
X12863515Y-16682174D02*
X12873039Y-16644079D01*
X12873039Y-16644079D02*
X12882563Y-16625031D01*
X12882563Y-16625031D02*
X12892086Y-16615508D01*
X12892086Y-16615508D02*
X12911134Y-16605984D01*
X13063515Y-16786936D02*
X13073039Y-16796460D01*
X13073039Y-16796460D02*
X13063515Y-16805984D01*
X13063515Y-16805984D02*
X13053991Y-16796460D01*
X13053991Y-16796460D02*
X13063515Y-16786936D01*
X13063515Y-16786936D02*
X13063515Y-16805984D01*
X13196848Y-16605984D02*
X13215896Y-16605984D01*
X13215896Y-16605984D02*
X13234944Y-16615508D01*
X13234944Y-16615508D02*
X13244467Y-16625031D01*
X13244467Y-16625031D02*
X13253991Y-16644079D01*
X13253991Y-16644079D02*
X13263515Y-16682174D01*
X13263515Y-16682174D02*
X13263515Y-16729793D01*
X13263515Y-16729793D02*
X13253991Y-16767888D01*
X13253991Y-16767888D02*
X13244467Y-16786936D01*
X13244467Y-16786936D02*
X13234944Y-16796460D01*
X13234944Y-16796460D02*
X13215896Y-16805984D01*
X13215896Y-16805984D02*
X13196848Y-16805984D01*
X13196848Y-16805984D02*
X13177801Y-16796460D01*
X13177801Y-16796460D02*
X13168277Y-16786936D01*
X13168277Y-16786936D02*
X13158753Y-16767888D01*
X13158753Y-16767888D02*
X13149229Y-16729793D01*
X13149229Y-16729793D02*
X13149229Y-16682174D01*
X13149229Y-16682174D02*
X13158753Y-16644079D01*
X13158753Y-16644079D02*
X13168277Y-16625031D01*
X13168277Y-16625031D02*
X13177801Y-16615508D01*
X13177801Y-16615508D02*
X13196848Y-16605984D01*
X13434944Y-16672650D02*
X13434944Y-16805984D01*
X13387325Y-16596460D02*
X13339706Y-16739317D01*
X13339706Y-16739317D02*
X13463515Y-16739317D01*
X13520658Y-16605984D02*
X13653991Y-16605984D01*
X13653991Y-16605984D02*
X13568277Y-16805984D01*
X13720658Y-16625031D02*
X13730182Y-16615508D01*
X13730182Y-16615508D02*
X13749229Y-16605984D01*
X13749229Y-16605984D02*
X13796848Y-16605984D01*
X13796848Y-16605984D02*
X13815896Y-16615508D01*
X13815896Y-16615508D02*
X13825420Y-16625031D01*
X13825420Y-16625031D02*
X13834944Y-16644079D01*
X13834944Y-16644079D02*
X13834944Y-16663127D01*
X13834944Y-16663127D02*
X13825420Y-16691698D01*
X13825420Y-16691698D02*
X13711134Y-16805984D01*
X13711134Y-16805984D02*
X13834944Y-16805984D01*
X13911134Y-16605984D02*
X13911134Y-16644079D01*
X13987325Y-16605984D02*
X13987325Y-16644079D01*
X14282563Y-16882174D02*
X14273039Y-16872650D01*
X14273039Y-16872650D02*
X14253991Y-16844079D01*
X14253991Y-16844079D02*
X14244468Y-16825031D01*
X14244468Y-16825031D02*
X14234944Y-16796460D01*
X14234944Y-16796460D02*
X14225420Y-16748841D01*
X14225420Y-16748841D02*
X14225420Y-16710746D01*
X14225420Y-16710746D02*
X14234944Y-16663127D01*
X14234944Y-16663127D02*
X14244468Y-16634555D01*
X14244468Y-16634555D02*
X14253991Y-16615508D01*
X14253991Y-16615508D02*
X14273039Y-16586936D01*
X14273039Y-16586936D02*
X14282563Y-16577412D01*
X14349229Y-16625031D02*
X14358753Y-16615508D01*
X14358753Y-16615508D02*
X14377801Y-16605984D01*
X14377801Y-16605984D02*
X14425420Y-16605984D01*
X14425420Y-16605984D02*
X14444468Y-16615508D01*
X14444468Y-16615508D02*
X14453991Y-16625031D01*
X14453991Y-16625031D02*
X14463515Y-16644079D01*
X14463515Y-16644079D02*
X14463515Y-16663127D01*
X14463515Y-16663127D02*
X14453991Y-16691698D01*
X14453991Y-16691698D02*
X14339706Y-16805984D01*
X14339706Y-16805984D02*
X14463515Y-16805984D01*
X14701610Y-16805984D02*
X14701610Y-16605984D01*
X14787325Y-16805984D02*
X14787325Y-16701222D01*
X14787325Y-16701222D02*
X14777801Y-16682174D01*
X14777801Y-16682174D02*
X14758753Y-16672650D01*
X14758753Y-16672650D02*
X14730182Y-16672650D01*
X14730182Y-16672650D02*
X14711134Y-16682174D01*
X14711134Y-16682174D02*
X14701610Y-16691698D01*
X14911134Y-16805984D02*
X14892087Y-16796460D01*
X14892087Y-16796460D02*
X14882563Y-16786936D01*
X14882563Y-16786936D02*
X14873039Y-16767888D01*
X14873039Y-16767888D02*
X14873039Y-16710746D01*
X14873039Y-16710746D02*
X14882563Y-16691698D01*
X14882563Y-16691698D02*
X14892087Y-16682174D01*
X14892087Y-16682174D02*
X14911134Y-16672650D01*
X14911134Y-16672650D02*
X14939706Y-16672650D01*
X14939706Y-16672650D02*
X14958753Y-16682174D01*
X14958753Y-16682174D02*
X14968277Y-16691698D01*
X14968277Y-16691698D02*
X14977801Y-16710746D01*
X14977801Y-16710746D02*
X14977801Y-16767888D01*
X14977801Y-16767888D02*
X14968277Y-16786936D01*
X14968277Y-16786936D02*
X14958753Y-16796460D01*
X14958753Y-16796460D02*
X14939706Y-16805984D01*
X14939706Y-16805984D02*
X14911134Y-16805984D01*
X15092087Y-16805984D02*
X15073039Y-16796460D01*
X15073039Y-16796460D02*
X15063515Y-16777412D01*
X15063515Y-16777412D02*
X15063515Y-16605984D01*
X15244468Y-16796460D02*
X15225420Y-16805984D01*
X15225420Y-16805984D02*
X15187325Y-16805984D01*
X15187325Y-16805984D02*
X15168277Y-16796460D01*
X15168277Y-16796460D02*
X15158753Y-16777412D01*
X15158753Y-16777412D02*
X15158753Y-16701222D01*
X15158753Y-16701222D02*
X15168277Y-16682174D01*
X15168277Y-16682174D02*
X15187325Y-16672650D01*
X15187325Y-16672650D02*
X15225420Y-16672650D01*
X15225420Y-16672650D02*
X15244468Y-16682174D01*
X15244468Y-16682174D02*
X15253991Y-16701222D01*
X15253991Y-16701222D02*
X15253991Y-16720269D01*
X15253991Y-16720269D02*
X15158753Y-16739317D01*
X15330182Y-16796460D02*
X15349230Y-16805984D01*
X15349230Y-16805984D02*
X15387325Y-16805984D01*
X15387325Y-16805984D02*
X15406372Y-16796460D01*
X15406372Y-16796460D02*
X15415896Y-16777412D01*
X15415896Y-16777412D02*
X15415896Y-16767888D01*
X15415896Y-16767888D02*
X15406372Y-16748841D01*
X15406372Y-16748841D02*
X15387325Y-16739317D01*
X15387325Y-16739317D02*
X15358753Y-16739317D01*
X15358753Y-16739317D02*
X15339706Y-16729793D01*
X15339706Y-16729793D02*
X15330182Y-16710746D01*
X15330182Y-16710746D02*
X15330182Y-16701222D01*
X15330182Y-16701222D02*
X15339706Y-16682174D01*
X15339706Y-16682174D02*
X15358753Y-16672650D01*
X15358753Y-16672650D02*
X15387325Y-16672650D01*
X15387325Y-16672650D02*
X15406372Y-16682174D01*
X15482563Y-16882174D02*
X15492087Y-16872650D01*
X15492087Y-16872650D02*
X15511134Y-16844079D01*
X15511134Y-16844079D02*
X15520658Y-16825031D01*
X15520658Y-16825031D02*
X15530182Y-16796460D01*
X15530182Y-16796460D02*
X15539706Y-16748841D01*
X15539706Y-16748841D02*
X15539706Y-16710746D01*
X15539706Y-16710746D02*
X15530182Y-16663127D01*
X15530182Y-16663127D02*
X15520658Y-16634555D01*
X15520658Y-16634555D02*
X15511134Y-16615508D01*
X15511134Y-16615508D02*
X15492087Y-16586936D01*
X15492087Y-16586936D02*
X15482563Y-16577412D01*
D15*
X10620000Y-17066000D02*
X10707500Y-16978500D01*
X10620000Y-16891000D01*
X10532500Y-16978500D01*
X10620000Y-17066000D01*
D11*
X11073039Y-17069984D02*
X10958753Y-17069984D01*
X11015896Y-17069984D02*
X11015896Y-16869984D01*
X11015896Y-16869984D02*
X10996848Y-16898555D01*
X10996848Y-16898555D02*
X10977801Y-16917603D01*
X10977801Y-16917603D02*
X10958753Y-16927127D01*
X11158753Y-17050936D02*
X11168277Y-17060460D01*
X11168277Y-17060460D02*
X11158753Y-17069984D01*
X11158753Y-17069984D02*
X11149229Y-17060460D01*
X11149229Y-17060460D02*
X11158753Y-17050936D01*
X11158753Y-17050936D02*
X11158753Y-17069984D01*
X11234943Y-16869984D02*
X11368277Y-16869984D01*
X11368277Y-16869984D02*
X11282562Y-17069984D01*
X11539705Y-16869984D02*
X11444467Y-16869984D01*
X11444467Y-16869984D02*
X11434943Y-16965222D01*
X11434943Y-16965222D02*
X11444467Y-16955698D01*
X11444467Y-16955698D02*
X11463515Y-16946174D01*
X11463515Y-16946174D02*
X11511134Y-16946174D01*
X11511134Y-16946174D02*
X11530182Y-16955698D01*
X11530182Y-16955698D02*
X11539705Y-16965222D01*
X11539705Y-16965222D02*
X11549229Y-16984270D01*
X11549229Y-16984270D02*
X11549229Y-17031889D01*
X11549229Y-17031889D02*
X11539705Y-17050936D01*
X11539705Y-17050936D02*
X11530182Y-17060460D01*
X11530182Y-17060460D02*
X11511134Y-17069984D01*
X11511134Y-17069984D02*
X11463515Y-17069984D01*
X11463515Y-17069984D02*
X11444467Y-17060460D01*
X11444467Y-17060460D02*
X11434943Y-17050936D01*
X11673039Y-16869984D02*
X11692086Y-16869984D01*
X11692086Y-16869984D02*
X11711134Y-16879508D01*
X11711134Y-16879508D02*
X11720658Y-16889031D01*
X11720658Y-16889031D02*
X11730182Y-16908079D01*
X11730182Y-16908079D02*
X11739705Y-16946174D01*
X11739705Y-16946174D02*
X11739705Y-16993793D01*
X11739705Y-16993793D02*
X11730182Y-17031889D01*
X11730182Y-17031889D02*
X11720658Y-17050936D01*
X11720658Y-17050936D02*
X11711134Y-17060460D01*
X11711134Y-17060460D02*
X11692086Y-17069984D01*
X11692086Y-17069984D02*
X11673039Y-17069984D01*
X11673039Y-17069984D02*
X11653991Y-17060460D01*
X11653991Y-17060460D02*
X11644467Y-17050936D01*
X11644467Y-17050936D02*
X11634943Y-17031889D01*
X11634943Y-17031889D02*
X11625420Y-16993793D01*
X11625420Y-16993793D02*
X11625420Y-16946174D01*
X11625420Y-16946174D02*
X11634943Y-16908079D01*
X11634943Y-16908079D02*
X11644467Y-16889031D01*
X11644467Y-16889031D02*
X11653991Y-16879508D01*
X11653991Y-16879508D02*
X11673039Y-16869984D01*
X11825420Y-17069984D02*
X11825420Y-16936650D01*
X11825420Y-16955698D02*
X11834943Y-16946174D01*
X11834943Y-16946174D02*
X11853991Y-16936650D01*
X11853991Y-16936650D02*
X11882563Y-16936650D01*
X11882563Y-16936650D02*
X11901610Y-16946174D01*
X11901610Y-16946174D02*
X11911134Y-16965222D01*
X11911134Y-16965222D02*
X11911134Y-17069984D01*
X11911134Y-16965222D02*
X11920658Y-16946174D01*
X11920658Y-16946174D02*
X11939705Y-16936650D01*
X11939705Y-16936650D02*
X11968277Y-16936650D01*
X11968277Y-16936650D02*
X11987324Y-16946174D01*
X11987324Y-16946174D02*
X11996848Y-16965222D01*
X11996848Y-16965222D02*
X11996848Y-17069984D01*
X12092086Y-17069984D02*
X12092086Y-16936650D01*
X12092086Y-16955698D02*
X12101610Y-16946174D01*
X12101610Y-16946174D02*
X12120658Y-16936650D01*
X12120658Y-16936650D02*
X12149229Y-16936650D01*
X12149229Y-16936650D02*
X12168277Y-16946174D01*
X12168277Y-16946174D02*
X12177801Y-16965222D01*
X12177801Y-16965222D02*
X12177801Y-17069984D01*
X12177801Y-16965222D02*
X12187324Y-16946174D01*
X12187324Y-16946174D02*
X12206372Y-16936650D01*
X12206372Y-16936650D02*
X12234943Y-16936650D01*
X12234943Y-16936650D02*
X12253991Y-16946174D01*
X12253991Y-16946174D02*
X12263515Y-16965222D01*
X12263515Y-16965222D02*
X12263515Y-17069984D01*
X12653991Y-16860460D02*
X12482563Y-17117603D01*
X12911134Y-16869984D02*
X12930182Y-16869984D01*
X12930182Y-16869984D02*
X12949229Y-16879508D01*
X12949229Y-16879508D02*
X12958753Y-16889031D01*
X12958753Y-16889031D02*
X12968277Y-16908079D01*
X12968277Y-16908079D02*
X12977801Y-16946174D01*
X12977801Y-16946174D02*
X12977801Y-16993793D01*
X12977801Y-16993793D02*
X12968277Y-17031889D01*
X12968277Y-17031889D02*
X12958753Y-17050936D01*
X12958753Y-17050936D02*
X12949229Y-17060460D01*
X12949229Y-17060460D02*
X12930182Y-17069984D01*
X12930182Y-17069984D02*
X12911134Y-17069984D01*
X12911134Y-17069984D02*
X12892086Y-17060460D01*
X12892086Y-17060460D02*
X12882563Y-17050936D01*
X12882563Y-17050936D02*
X12873039Y-17031889D01*
X12873039Y-17031889D02*
X12863515Y-16993793D01*
X12863515Y-16993793D02*
X12863515Y-16946174D01*
X12863515Y-16946174D02*
X12873039Y-16908079D01*
X12873039Y-16908079D02*
X12882563Y-16889031D01*
X12882563Y-16889031D02*
X12892086Y-16879508D01*
X12892086Y-16879508D02*
X12911134Y-16869984D01*
X13063515Y-17050936D02*
X13073039Y-17060460D01*
X13073039Y-17060460D02*
X13063515Y-17069984D01*
X13063515Y-17069984D02*
X13053991Y-17060460D01*
X13053991Y-17060460D02*
X13063515Y-17050936D01*
X13063515Y-17050936D02*
X13063515Y-17069984D01*
X13196848Y-16869984D02*
X13215896Y-16869984D01*
X13215896Y-16869984D02*
X13234944Y-16879508D01*
X13234944Y-16879508D02*
X13244467Y-16889031D01*
X13244467Y-16889031D02*
X13253991Y-16908079D01*
X13253991Y-16908079D02*
X13263515Y-16946174D01*
X13263515Y-16946174D02*
X13263515Y-16993793D01*
X13263515Y-16993793D02*
X13253991Y-17031889D01*
X13253991Y-17031889D02*
X13244467Y-17050936D01*
X13244467Y-17050936D02*
X13234944Y-17060460D01*
X13234944Y-17060460D02*
X13215896Y-17069984D01*
X13215896Y-17069984D02*
X13196848Y-17069984D01*
X13196848Y-17069984D02*
X13177801Y-17060460D01*
X13177801Y-17060460D02*
X13168277Y-17050936D01*
X13168277Y-17050936D02*
X13158753Y-17031889D01*
X13158753Y-17031889D02*
X13149229Y-16993793D01*
X13149229Y-16993793D02*
X13149229Y-16946174D01*
X13149229Y-16946174D02*
X13158753Y-16908079D01*
X13158753Y-16908079D02*
X13168277Y-16889031D01*
X13168277Y-16889031D02*
X13177801Y-16879508D01*
X13177801Y-16879508D02*
X13196848Y-16869984D01*
X13434944Y-16869984D02*
X13396848Y-16869984D01*
X13396848Y-16869984D02*
X13377801Y-16879508D01*
X13377801Y-16879508D02*
X13368277Y-16889031D01*
X13368277Y-16889031D02*
X13349229Y-16917603D01*
X13349229Y-16917603D02*
X13339706Y-16955698D01*
X13339706Y-16955698D02*
X13339706Y-17031889D01*
X13339706Y-17031889D02*
X13349229Y-17050936D01*
X13349229Y-17050936D02*
X13358753Y-17060460D01*
X13358753Y-17060460D02*
X13377801Y-17069984D01*
X13377801Y-17069984D02*
X13415896Y-17069984D01*
X13415896Y-17069984D02*
X13434944Y-17060460D01*
X13434944Y-17060460D02*
X13444467Y-17050936D01*
X13444467Y-17050936D02*
X13453991Y-17031889D01*
X13453991Y-17031889D02*
X13453991Y-16984270D01*
X13453991Y-16984270D02*
X13444467Y-16965222D01*
X13444467Y-16965222D02*
X13434944Y-16955698D01*
X13434944Y-16955698D02*
X13415896Y-16946174D01*
X13415896Y-16946174D02*
X13377801Y-16946174D01*
X13377801Y-16946174D02*
X13358753Y-16955698D01*
X13358753Y-16955698D02*
X13349229Y-16965222D01*
X13349229Y-16965222D02*
X13339706Y-16984270D01*
X13568277Y-16955698D02*
X13549229Y-16946174D01*
X13549229Y-16946174D02*
X13539706Y-16936650D01*
X13539706Y-16936650D02*
X13530182Y-16917603D01*
X13530182Y-16917603D02*
X13530182Y-16908079D01*
X13530182Y-16908079D02*
X13539706Y-16889031D01*
X13539706Y-16889031D02*
X13549229Y-16879508D01*
X13549229Y-16879508D02*
X13568277Y-16869984D01*
X13568277Y-16869984D02*
X13606372Y-16869984D01*
X13606372Y-16869984D02*
X13625420Y-16879508D01*
X13625420Y-16879508D02*
X13634944Y-16889031D01*
X13634944Y-16889031D02*
X13644467Y-16908079D01*
X13644467Y-16908079D02*
X13644467Y-16917603D01*
X13644467Y-16917603D02*
X13634944Y-16936650D01*
X13634944Y-16936650D02*
X13625420Y-16946174D01*
X13625420Y-16946174D02*
X13606372Y-16955698D01*
X13606372Y-16955698D02*
X13568277Y-16955698D01*
X13568277Y-16955698D02*
X13549229Y-16965222D01*
X13549229Y-16965222D02*
X13539706Y-16974746D01*
X13539706Y-16974746D02*
X13530182Y-16993793D01*
X13530182Y-16993793D02*
X13530182Y-17031889D01*
X13530182Y-17031889D02*
X13539706Y-17050936D01*
X13539706Y-17050936D02*
X13549229Y-17060460D01*
X13549229Y-17060460D02*
X13568277Y-17069984D01*
X13568277Y-17069984D02*
X13606372Y-17069984D01*
X13606372Y-17069984D02*
X13625420Y-17060460D01*
X13625420Y-17060460D02*
X13634944Y-17050936D01*
X13634944Y-17050936D02*
X13644467Y-17031889D01*
X13644467Y-17031889D02*
X13644467Y-16993793D01*
X13644467Y-16993793D02*
X13634944Y-16974746D01*
X13634944Y-16974746D02*
X13625420Y-16965222D01*
X13625420Y-16965222D02*
X13606372Y-16955698D01*
X13739706Y-17069984D02*
X13777801Y-17069984D01*
X13777801Y-17069984D02*
X13796848Y-17060460D01*
X13796848Y-17060460D02*
X13806372Y-17050936D01*
X13806372Y-17050936D02*
X13825420Y-17022365D01*
X13825420Y-17022365D02*
X13834944Y-16984270D01*
X13834944Y-16984270D02*
X13834944Y-16908079D01*
X13834944Y-16908079D02*
X13825420Y-16889031D01*
X13825420Y-16889031D02*
X13815896Y-16879508D01*
X13815896Y-16879508D02*
X13796848Y-16869984D01*
X13796848Y-16869984D02*
X13758753Y-16869984D01*
X13758753Y-16869984D02*
X13739706Y-16879508D01*
X13739706Y-16879508D02*
X13730182Y-16889031D01*
X13730182Y-16889031D02*
X13720658Y-16908079D01*
X13720658Y-16908079D02*
X13720658Y-16955698D01*
X13720658Y-16955698D02*
X13730182Y-16974746D01*
X13730182Y-16974746D02*
X13739706Y-16984270D01*
X13739706Y-16984270D02*
X13758753Y-16993793D01*
X13758753Y-16993793D02*
X13796848Y-16993793D01*
X13796848Y-16993793D02*
X13815896Y-16984270D01*
X13815896Y-16984270D02*
X13825420Y-16974746D01*
X13825420Y-16974746D02*
X13834944Y-16955698D01*
X13911134Y-16869984D02*
X13911134Y-16908079D01*
X13987325Y-16869984D02*
X13987325Y-16908079D01*
X14282563Y-17146174D02*
X14273039Y-17136650D01*
X14273039Y-17136650D02*
X14253991Y-17108079D01*
X14253991Y-17108079D02*
X14244468Y-17089031D01*
X14244468Y-17089031D02*
X14234944Y-17060460D01*
X14234944Y-17060460D02*
X14225420Y-17012841D01*
X14225420Y-17012841D02*
X14225420Y-16974746D01*
X14225420Y-16974746D02*
X14234944Y-16927127D01*
X14234944Y-16927127D02*
X14244468Y-16898555D01*
X14244468Y-16898555D02*
X14253991Y-16879508D01*
X14253991Y-16879508D02*
X14273039Y-16850936D01*
X14273039Y-16850936D02*
X14282563Y-16841412D01*
X14349229Y-16889031D02*
X14358753Y-16879508D01*
X14358753Y-16879508D02*
X14377801Y-16869984D01*
X14377801Y-16869984D02*
X14425420Y-16869984D01*
X14425420Y-16869984D02*
X14444468Y-16879508D01*
X14444468Y-16879508D02*
X14453991Y-16889031D01*
X14453991Y-16889031D02*
X14463515Y-16908079D01*
X14463515Y-16908079D02*
X14463515Y-16927127D01*
X14463515Y-16927127D02*
X14453991Y-16955698D01*
X14453991Y-16955698D02*
X14339706Y-17069984D01*
X14339706Y-17069984D02*
X14463515Y-17069984D01*
X14701610Y-17069984D02*
X14701610Y-16869984D01*
X14787325Y-17069984D02*
X14787325Y-16965222D01*
X14787325Y-16965222D02*
X14777801Y-16946174D01*
X14777801Y-16946174D02*
X14758753Y-16936650D01*
X14758753Y-16936650D02*
X14730182Y-16936650D01*
X14730182Y-16936650D02*
X14711134Y-16946174D01*
X14711134Y-16946174D02*
X14701610Y-16955698D01*
X14911134Y-17069984D02*
X14892087Y-17060460D01*
X14892087Y-17060460D02*
X14882563Y-17050936D01*
X14882563Y-17050936D02*
X14873039Y-17031889D01*
X14873039Y-17031889D02*
X14873039Y-16974746D01*
X14873039Y-16974746D02*
X14882563Y-16955698D01*
X14882563Y-16955698D02*
X14892087Y-16946174D01*
X14892087Y-16946174D02*
X14911134Y-16936650D01*
X14911134Y-16936650D02*
X14939706Y-16936650D01*
X14939706Y-16936650D02*
X14958753Y-16946174D01*
X14958753Y-16946174D02*
X14968277Y-16955698D01*
X14968277Y-16955698D02*
X14977801Y-16974746D01*
X14977801Y-16974746D02*
X14977801Y-17031889D01*
X14977801Y-17031889D02*
X14968277Y-17050936D01*
X14968277Y-17050936D02*
X14958753Y-17060460D01*
X14958753Y-17060460D02*
X14939706Y-17069984D01*
X14939706Y-17069984D02*
X14911134Y-17069984D01*
X15092087Y-17069984D02*
X15073039Y-17060460D01*
X15073039Y-17060460D02*
X15063515Y-17041412D01*
X15063515Y-17041412D02*
X15063515Y-16869984D01*
X15244468Y-17060460D02*
X15225420Y-17069984D01*
X15225420Y-17069984D02*
X15187325Y-17069984D01*
X15187325Y-17069984D02*
X15168277Y-17060460D01*
X15168277Y-17060460D02*
X15158753Y-17041412D01*
X15158753Y-17041412D02*
X15158753Y-16965222D01*
X15158753Y-16965222D02*
X15168277Y-16946174D01*
X15168277Y-16946174D02*
X15187325Y-16936650D01*
X15187325Y-16936650D02*
X15225420Y-16936650D01*
X15225420Y-16936650D02*
X15244468Y-16946174D01*
X15244468Y-16946174D02*
X15253991Y-16965222D01*
X15253991Y-16965222D02*
X15253991Y-16984270D01*
X15253991Y-16984270D02*
X15158753Y-17003317D01*
X15330182Y-17060460D02*
X15349230Y-17069984D01*
X15349230Y-17069984D02*
X15387325Y-17069984D01*
X15387325Y-17069984D02*
X15406372Y-17060460D01*
X15406372Y-17060460D02*
X15415896Y-17041412D01*
X15415896Y-17041412D02*
X15415896Y-17031889D01*
X15415896Y-17031889D02*
X15406372Y-17012841D01*
X15406372Y-17012841D02*
X15387325Y-17003317D01*
X15387325Y-17003317D02*
X15358753Y-17003317D01*
X15358753Y-17003317D02*
X15339706Y-16993793D01*
X15339706Y-16993793D02*
X15330182Y-16974746D01*
X15330182Y-16974746D02*
X15330182Y-16965222D01*
X15330182Y-16965222D02*
X15339706Y-16946174D01*
X15339706Y-16946174D02*
X15358753Y-16936650D01*
X15358753Y-16936650D02*
X15387325Y-16936650D01*
X15387325Y-16936650D02*
X15406372Y-16946174D01*
X15482563Y-17146174D02*
X15492087Y-17136650D01*
X15492087Y-17136650D02*
X15511134Y-17108079D01*
X15511134Y-17108079D02*
X15520658Y-17089031D01*
X15520658Y-17089031D02*
X15530182Y-17060460D01*
X15530182Y-17060460D02*
X15539706Y-17012841D01*
X15539706Y-17012841D02*
X15539706Y-16974746D01*
X15539706Y-16974746D02*
X15530182Y-16927127D01*
X15530182Y-16927127D02*
X15520658Y-16898555D01*
X15520658Y-16898555D02*
X15511134Y-16879508D01*
X15511134Y-16879508D02*
X15492087Y-16850936D01*
X15492087Y-16850936D02*
X15482563Y-16841412D01*
X10507500Y-17173500D02*
X10707500Y-17373500D01*
X10707500Y-17173500D02*
X10507500Y-17373500D01*
X10707500Y-17273500D02*
G75*
G02*
X10507500Y-17273500I-100000J0D01*
G01*
X10507500Y-17273500D02*
G75*
G02*
X10707500Y-17273500I100000J0D01*
G01*
X10958753Y-17184031D02*
X10968277Y-17174508D01*
X10968277Y-17174508D02*
X10987324Y-17164984D01*
X10987324Y-17164984D02*
X11034944Y-17164984D01*
X11034944Y-17164984D02*
X11053991Y-17174508D01*
X11053991Y-17174508D02*
X11063515Y-17184031D01*
X11063515Y-17184031D02*
X11073039Y-17203079D01*
X11073039Y-17203079D02*
X11073039Y-17222127D01*
X11073039Y-17222127D02*
X11063515Y-17250698D01*
X11063515Y-17250698D02*
X10949229Y-17364984D01*
X10949229Y-17364984D02*
X11073039Y-17364984D01*
X11158753Y-17345936D02*
X11168277Y-17355460D01*
X11168277Y-17355460D02*
X11158753Y-17364984D01*
X11158753Y-17364984D02*
X11149229Y-17355460D01*
X11149229Y-17355460D02*
X11158753Y-17345936D01*
X11158753Y-17345936D02*
X11158753Y-17364984D01*
X11358753Y-17364984D02*
X11244467Y-17364984D01*
X11301610Y-17364984D02*
X11301610Y-17164984D01*
X11301610Y-17164984D02*
X11282562Y-17193555D01*
X11282562Y-17193555D02*
X11263515Y-17212603D01*
X11263515Y-17212603D02*
X11244467Y-17222127D01*
X11482562Y-17164984D02*
X11501610Y-17164984D01*
X11501610Y-17164984D02*
X11520658Y-17174508D01*
X11520658Y-17174508D02*
X11530182Y-17184031D01*
X11530182Y-17184031D02*
X11539705Y-17203079D01*
X11539705Y-17203079D02*
X11549229Y-17241174D01*
X11549229Y-17241174D02*
X11549229Y-17288793D01*
X11549229Y-17288793D02*
X11539705Y-17326889D01*
X11539705Y-17326889D02*
X11530182Y-17345936D01*
X11530182Y-17345936D02*
X11520658Y-17355460D01*
X11520658Y-17355460D02*
X11501610Y-17364984D01*
X11501610Y-17364984D02*
X11482562Y-17364984D01*
X11482562Y-17364984D02*
X11463515Y-17355460D01*
X11463515Y-17355460D02*
X11453991Y-17345936D01*
X11453991Y-17345936D02*
X11444467Y-17326889D01*
X11444467Y-17326889D02*
X11434943Y-17288793D01*
X11434943Y-17288793D02*
X11434943Y-17241174D01*
X11434943Y-17241174D02*
X11444467Y-17203079D01*
X11444467Y-17203079D02*
X11453991Y-17184031D01*
X11453991Y-17184031D02*
X11463515Y-17174508D01*
X11463515Y-17174508D02*
X11482562Y-17164984D01*
X11673039Y-17164984D02*
X11692086Y-17164984D01*
X11692086Y-17164984D02*
X11711134Y-17174508D01*
X11711134Y-17174508D02*
X11720658Y-17184031D01*
X11720658Y-17184031D02*
X11730182Y-17203079D01*
X11730182Y-17203079D02*
X11739705Y-17241174D01*
X11739705Y-17241174D02*
X11739705Y-17288793D01*
X11739705Y-17288793D02*
X11730182Y-17326889D01*
X11730182Y-17326889D02*
X11720658Y-17345936D01*
X11720658Y-17345936D02*
X11711134Y-17355460D01*
X11711134Y-17355460D02*
X11692086Y-17364984D01*
X11692086Y-17364984D02*
X11673039Y-17364984D01*
X11673039Y-17364984D02*
X11653991Y-17355460D01*
X11653991Y-17355460D02*
X11644467Y-17345936D01*
X11644467Y-17345936D02*
X11634943Y-17326889D01*
X11634943Y-17326889D02*
X11625420Y-17288793D01*
X11625420Y-17288793D02*
X11625420Y-17241174D01*
X11625420Y-17241174D02*
X11634943Y-17203079D01*
X11634943Y-17203079D02*
X11644467Y-17184031D01*
X11644467Y-17184031D02*
X11653991Y-17174508D01*
X11653991Y-17174508D02*
X11673039Y-17164984D01*
X11825420Y-17364984D02*
X11825420Y-17231650D01*
X11825420Y-17250698D02*
X11834943Y-17241174D01*
X11834943Y-17241174D02*
X11853991Y-17231650D01*
X11853991Y-17231650D02*
X11882563Y-17231650D01*
X11882563Y-17231650D02*
X11901610Y-17241174D01*
X11901610Y-17241174D02*
X11911134Y-17260222D01*
X11911134Y-17260222D02*
X11911134Y-17364984D01*
X11911134Y-17260222D02*
X11920658Y-17241174D01*
X11920658Y-17241174D02*
X11939705Y-17231650D01*
X11939705Y-17231650D02*
X11968277Y-17231650D01*
X11968277Y-17231650D02*
X11987324Y-17241174D01*
X11987324Y-17241174D02*
X11996848Y-17260222D01*
X11996848Y-17260222D02*
X11996848Y-17364984D01*
X12092086Y-17364984D02*
X12092086Y-17231650D01*
X12092086Y-17250698D02*
X12101610Y-17241174D01*
X12101610Y-17241174D02*
X12120658Y-17231650D01*
X12120658Y-17231650D02*
X12149229Y-17231650D01*
X12149229Y-17231650D02*
X12168277Y-17241174D01*
X12168277Y-17241174D02*
X12177801Y-17260222D01*
X12177801Y-17260222D02*
X12177801Y-17364984D01*
X12177801Y-17260222D02*
X12187324Y-17241174D01*
X12187324Y-17241174D02*
X12206372Y-17231650D01*
X12206372Y-17231650D02*
X12234943Y-17231650D01*
X12234943Y-17231650D02*
X12253991Y-17241174D01*
X12253991Y-17241174D02*
X12263515Y-17260222D01*
X12263515Y-17260222D02*
X12263515Y-17364984D01*
X12653991Y-17155460D02*
X12482563Y-17412603D01*
X12911134Y-17164984D02*
X12930182Y-17164984D01*
X12930182Y-17164984D02*
X12949229Y-17174508D01*
X12949229Y-17174508D02*
X12958753Y-17184031D01*
X12958753Y-17184031D02*
X12968277Y-17203079D01*
X12968277Y-17203079D02*
X12977801Y-17241174D01*
X12977801Y-17241174D02*
X12977801Y-17288793D01*
X12977801Y-17288793D02*
X12968277Y-17326889D01*
X12968277Y-17326889D02*
X12958753Y-17345936D01*
X12958753Y-17345936D02*
X12949229Y-17355460D01*
X12949229Y-17355460D02*
X12930182Y-17364984D01*
X12930182Y-17364984D02*
X12911134Y-17364984D01*
X12911134Y-17364984D02*
X12892086Y-17355460D01*
X12892086Y-17355460D02*
X12882563Y-17345936D01*
X12882563Y-17345936D02*
X12873039Y-17326889D01*
X12873039Y-17326889D02*
X12863515Y-17288793D01*
X12863515Y-17288793D02*
X12863515Y-17241174D01*
X12863515Y-17241174D02*
X12873039Y-17203079D01*
X12873039Y-17203079D02*
X12882563Y-17184031D01*
X12882563Y-17184031D02*
X12892086Y-17174508D01*
X12892086Y-17174508D02*
X12911134Y-17164984D01*
X13063515Y-17345936D02*
X13073039Y-17355460D01*
X13073039Y-17355460D02*
X13063515Y-17364984D01*
X13063515Y-17364984D02*
X13053991Y-17355460D01*
X13053991Y-17355460D02*
X13063515Y-17345936D01*
X13063515Y-17345936D02*
X13063515Y-17364984D01*
X13196848Y-17164984D02*
X13215896Y-17164984D01*
X13215896Y-17164984D02*
X13234944Y-17174508D01*
X13234944Y-17174508D02*
X13244467Y-17184031D01*
X13244467Y-17184031D02*
X13253991Y-17203079D01*
X13253991Y-17203079D02*
X13263515Y-17241174D01*
X13263515Y-17241174D02*
X13263515Y-17288793D01*
X13263515Y-17288793D02*
X13253991Y-17326889D01*
X13253991Y-17326889D02*
X13244467Y-17345936D01*
X13244467Y-17345936D02*
X13234944Y-17355460D01*
X13234944Y-17355460D02*
X13215896Y-17364984D01*
X13215896Y-17364984D02*
X13196848Y-17364984D01*
X13196848Y-17364984D02*
X13177801Y-17355460D01*
X13177801Y-17355460D02*
X13168277Y-17345936D01*
X13168277Y-17345936D02*
X13158753Y-17326889D01*
X13158753Y-17326889D02*
X13149229Y-17288793D01*
X13149229Y-17288793D02*
X13149229Y-17241174D01*
X13149229Y-17241174D02*
X13158753Y-17203079D01*
X13158753Y-17203079D02*
X13168277Y-17184031D01*
X13168277Y-17184031D02*
X13177801Y-17174508D01*
X13177801Y-17174508D02*
X13196848Y-17164984D01*
X13377801Y-17250698D02*
X13358753Y-17241174D01*
X13358753Y-17241174D02*
X13349229Y-17231650D01*
X13349229Y-17231650D02*
X13339706Y-17212603D01*
X13339706Y-17212603D02*
X13339706Y-17203079D01*
X13339706Y-17203079D02*
X13349229Y-17184031D01*
X13349229Y-17184031D02*
X13358753Y-17174508D01*
X13358753Y-17174508D02*
X13377801Y-17164984D01*
X13377801Y-17164984D02*
X13415896Y-17164984D01*
X13415896Y-17164984D02*
X13434944Y-17174508D01*
X13434944Y-17174508D02*
X13444467Y-17184031D01*
X13444467Y-17184031D02*
X13453991Y-17203079D01*
X13453991Y-17203079D02*
X13453991Y-17212603D01*
X13453991Y-17212603D02*
X13444467Y-17231650D01*
X13444467Y-17231650D02*
X13434944Y-17241174D01*
X13434944Y-17241174D02*
X13415896Y-17250698D01*
X13415896Y-17250698D02*
X13377801Y-17250698D01*
X13377801Y-17250698D02*
X13358753Y-17260222D01*
X13358753Y-17260222D02*
X13349229Y-17269746D01*
X13349229Y-17269746D02*
X13339706Y-17288793D01*
X13339706Y-17288793D02*
X13339706Y-17326889D01*
X13339706Y-17326889D02*
X13349229Y-17345936D01*
X13349229Y-17345936D02*
X13358753Y-17355460D01*
X13358753Y-17355460D02*
X13377801Y-17364984D01*
X13377801Y-17364984D02*
X13415896Y-17364984D01*
X13415896Y-17364984D02*
X13434944Y-17355460D01*
X13434944Y-17355460D02*
X13444467Y-17345936D01*
X13444467Y-17345936D02*
X13453991Y-17326889D01*
X13453991Y-17326889D02*
X13453991Y-17288793D01*
X13453991Y-17288793D02*
X13444467Y-17269746D01*
X13444467Y-17269746D02*
X13434944Y-17260222D01*
X13434944Y-17260222D02*
X13415896Y-17250698D01*
X13530182Y-17184031D02*
X13539706Y-17174508D01*
X13539706Y-17174508D02*
X13558753Y-17164984D01*
X13558753Y-17164984D02*
X13606372Y-17164984D01*
X13606372Y-17164984D02*
X13625420Y-17174508D01*
X13625420Y-17174508D02*
X13634944Y-17184031D01*
X13634944Y-17184031D02*
X13644467Y-17203079D01*
X13644467Y-17203079D02*
X13644467Y-17222127D01*
X13644467Y-17222127D02*
X13634944Y-17250698D01*
X13634944Y-17250698D02*
X13520658Y-17364984D01*
X13520658Y-17364984D02*
X13644467Y-17364984D01*
X13711134Y-17164984D02*
X13844467Y-17164984D01*
X13844467Y-17164984D02*
X13758753Y-17364984D01*
X13911134Y-17164984D02*
X13911134Y-17203079D01*
X13987325Y-17164984D02*
X13987325Y-17203079D01*
X14282563Y-17441174D02*
X14273039Y-17431650D01*
X14273039Y-17431650D02*
X14253991Y-17403079D01*
X14253991Y-17403079D02*
X14244468Y-17384031D01*
X14244468Y-17384031D02*
X14234944Y-17355460D01*
X14234944Y-17355460D02*
X14225420Y-17307841D01*
X14225420Y-17307841D02*
X14225420Y-17269746D01*
X14225420Y-17269746D02*
X14234944Y-17222127D01*
X14234944Y-17222127D02*
X14244468Y-17193555D01*
X14244468Y-17193555D02*
X14253991Y-17174508D01*
X14253991Y-17174508D02*
X14273039Y-17145936D01*
X14273039Y-17145936D02*
X14282563Y-17136412D01*
X14444468Y-17164984D02*
X14406372Y-17164984D01*
X14406372Y-17164984D02*
X14387325Y-17174508D01*
X14387325Y-17174508D02*
X14377801Y-17184031D01*
X14377801Y-17184031D02*
X14358753Y-17212603D01*
X14358753Y-17212603D02*
X14349229Y-17250698D01*
X14349229Y-17250698D02*
X14349229Y-17326889D01*
X14349229Y-17326889D02*
X14358753Y-17345936D01*
X14358753Y-17345936D02*
X14368277Y-17355460D01*
X14368277Y-17355460D02*
X14387325Y-17364984D01*
X14387325Y-17364984D02*
X14425420Y-17364984D01*
X14425420Y-17364984D02*
X14444468Y-17355460D01*
X14444468Y-17355460D02*
X14453991Y-17345936D01*
X14453991Y-17345936D02*
X14463515Y-17326889D01*
X14463515Y-17326889D02*
X14463515Y-17279270D01*
X14463515Y-17279270D02*
X14453991Y-17260222D01*
X14453991Y-17260222D02*
X14444468Y-17250698D01*
X14444468Y-17250698D02*
X14425420Y-17241174D01*
X14425420Y-17241174D02*
X14387325Y-17241174D01*
X14387325Y-17241174D02*
X14368277Y-17250698D01*
X14368277Y-17250698D02*
X14358753Y-17260222D01*
X14358753Y-17260222D02*
X14349229Y-17279270D01*
X14701610Y-17364984D02*
X14701610Y-17164984D01*
X14787325Y-17364984D02*
X14787325Y-17260222D01*
X14787325Y-17260222D02*
X14777801Y-17241174D01*
X14777801Y-17241174D02*
X14758753Y-17231650D01*
X14758753Y-17231650D02*
X14730182Y-17231650D01*
X14730182Y-17231650D02*
X14711134Y-17241174D01*
X14711134Y-17241174D02*
X14701610Y-17250698D01*
X14911134Y-17364984D02*
X14892087Y-17355460D01*
X14892087Y-17355460D02*
X14882563Y-17345936D01*
X14882563Y-17345936D02*
X14873039Y-17326889D01*
X14873039Y-17326889D02*
X14873039Y-17269746D01*
X14873039Y-17269746D02*
X14882563Y-17250698D01*
X14882563Y-17250698D02*
X14892087Y-17241174D01*
X14892087Y-17241174D02*
X14911134Y-17231650D01*
X14911134Y-17231650D02*
X14939706Y-17231650D01*
X14939706Y-17231650D02*
X14958753Y-17241174D01*
X14958753Y-17241174D02*
X14968277Y-17250698D01*
X14968277Y-17250698D02*
X14977801Y-17269746D01*
X14977801Y-17269746D02*
X14977801Y-17326889D01*
X14977801Y-17326889D02*
X14968277Y-17345936D01*
X14968277Y-17345936D02*
X14958753Y-17355460D01*
X14958753Y-17355460D02*
X14939706Y-17364984D01*
X14939706Y-17364984D02*
X14911134Y-17364984D01*
X15092087Y-17364984D02*
X15073039Y-17355460D01*
X15073039Y-17355460D02*
X15063515Y-17336412D01*
X15063515Y-17336412D02*
X15063515Y-17164984D01*
X15244468Y-17355460D02*
X15225420Y-17364984D01*
X15225420Y-17364984D02*
X15187325Y-17364984D01*
X15187325Y-17364984D02*
X15168277Y-17355460D01*
X15168277Y-17355460D02*
X15158753Y-17336412D01*
X15158753Y-17336412D02*
X15158753Y-17260222D01*
X15158753Y-17260222D02*
X15168277Y-17241174D01*
X15168277Y-17241174D02*
X15187325Y-17231650D01*
X15187325Y-17231650D02*
X15225420Y-17231650D01*
X15225420Y-17231650D02*
X15244468Y-17241174D01*
X15244468Y-17241174D02*
X15253991Y-17260222D01*
X15253991Y-17260222D02*
X15253991Y-17279270D01*
X15253991Y-17279270D02*
X15158753Y-17298317D01*
X15330182Y-17355460D02*
X15349230Y-17364984D01*
X15349230Y-17364984D02*
X15387325Y-17364984D01*
X15387325Y-17364984D02*
X15406372Y-17355460D01*
X15406372Y-17355460D02*
X15415896Y-17336412D01*
X15415896Y-17336412D02*
X15415896Y-17326889D01*
X15415896Y-17326889D02*
X15406372Y-17307841D01*
X15406372Y-17307841D02*
X15387325Y-17298317D01*
X15387325Y-17298317D02*
X15358753Y-17298317D01*
X15358753Y-17298317D02*
X15339706Y-17288793D01*
X15339706Y-17288793D02*
X15330182Y-17269746D01*
X15330182Y-17269746D02*
X15330182Y-17260222D01*
X15330182Y-17260222D02*
X15339706Y-17241174D01*
X15339706Y-17241174D02*
X15358753Y-17231650D01*
X15358753Y-17231650D02*
X15387325Y-17231650D01*
X15387325Y-17231650D02*
X15406372Y-17241174D01*
X15482563Y-17441174D02*
X15492087Y-17431650D01*
X15492087Y-17431650D02*
X15511134Y-17403079D01*
X15511134Y-17403079D02*
X15520658Y-17384031D01*
X15520658Y-17384031D02*
X15530182Y-17355460D01*
X15530182Y-17355460D02*
X15539706Y-17307841D01*
X15539706Y-17307841D02*
X15539706Y-17269746D01*
X15539706Y-17269746D02*
X15530182Y-17222127D01*
X15530182Y-17222127D02*
X15520658Y-17193555D01*
X15520658Y-17193555D02*
X15511134Y-17174508D01*
X15511134Y-17174508D02*
X15492087Y-17145936D01*
X15492087Y-17145936D02*
X15482563Y-17136412D01*
X10507500Y-17493500D02*
X10707500Y-17693500D01*
X10707500Y-17493500D02*
X10507500Y-17693500D01*
X10607500Y-17493500D02*
X10607500Y-17693500D01*
X10507500Y-17593500D02*
X10707500Y-17593500D01*
X10958753Y-17504031D02*
X10968277Y-17494508D01*
X10968277Y-17494508D02*
X10987324Y-17484984D01*
X10987324Y-17484984D02*
X11034944Y-17484984D01*
X11034944Y-17484984D02*
X11053991Y-17494508D01*
X11053991Y-17494508D02*
X11063515Y-17504031D01*
X11063515Y-17504031D02*
X11073039Y-17523079D01*
X11073039Y-17523079D02*
X11073039Y-17542127D01*
X11073039Y-17542127D02*
X11063515Y-17570698D01*
X11063515Y-17570698D02*
X10949229Y-17684984D01*
X10949229Y-17684984D02*
X11073039Y-17684984D01*
X11158753Y-17665936D02*
X11168277Y-17675460D01*
X11168277Y-17675460D02*
X11158753Y-17684984D01*
X11158753Y-17684984D02*
X11149229Y-17675460D01*
X11149229Y-17675460D02*
X11158753Y-17665936D01*
X11158753Y-17665936D02*
X11158753Y-17684984D01*
X11244467Y-17504031D02*
X11253991Y-17494508D01*
X11253991Y-17494508D02*
X11273039Y-17484984D01*
X11273039Y-17484984D02*
X11320658Y-17484984D01*
X11320658Y-17484984D02*
X11339705Y-17494508D01*
X11339705Y-17494508D02*
X11349229Y-17504031D01*
X11349229Y-17504031D02*
X11358753Y-17523079D01*
X11358753Y-17523079D02*
X11358753Y-17542127D01*
X11358753Y-17542127D02*
X11349229Y-17570698D01*
X11349229Y-17570698D02*
X11234943Y-17684984D01*
X11234943Y-17684984D02*
X11358753Y-17684984D01*
X11482562Y-17484984D02*
X11501610Y-17484984D01*
X11501610Y-17484984D02*
X11520658Y-17494508D01*
X11520658Y-17494508D02*
X11530182Y-17504031D01*
X11530182Y-17504031D02*
X11539705Y-17523079D01*
X11539705Y-17523079D02*
X11549229Y-17561174D01*
X11549229Y-17561174D02*
X11549229Y-17608793D01*
X11549229Y-17608793D02*
X11539705Y-17646889D01*
X11539705Y-17646889D02*
X11530182Y-17665936D01*
X11530182Y-17665936D02*
X11520658Y-17675460D01*
X11520658Y-17675460D02*
X11501610Y-17684984D01*
X11501610Y-17684984D02*
X11482562Y-17684984D01*
X11482562Y-17684984D02*
X11463515Y-17675460D01*
X11463515Y-17675460D02*
X11453991Y-17665936D01*
X11453991Y-17665936D02*
X11444467Y-17646889D01*
X11444467Y-17646889D02*
X11434943Y-17608793D01*
X11434943Y-17608793D02*
X11434943Y-17561174D01*
X11434943Y-17561174D02*
X11444467Y-17523079D01*
X11444467Y-17523079D02*
X11453991Y-17504031D01*
X11453991Y-17504031D02*
X11463515Y-17494508D01*
X11463515Y-17494508D02*
X11482562Y-17484984D01*
X11673039Y-17484984D02*
X11692086Y-17484984D01*
X11692086Y-17484984D02*
X11711134Y-17494508D01*
X11711134Y-17494508D02*
X11720658Y-17504031D01*
X11720658Y-17504031D02*
X11730182Y-17523079D01*
X11730182Y-17523079D02*
X11739705Y-17561174D01*
X11739705Y-17561174D02*
X11739705Y-17608793D01*
X11739705Y-17608793D02*
X11730182Y-17646889D01*
X11730182Y-17646889D02*
X11720658Y-17665936D01*
X11720658Y-17665936D02*
X11711134Y-17675460D01*
X11711134Y-17675460D02*
X11692086Y-17684984D01*
X11692086Y-17684984D02*
X11673039Y-17684984D01*
X11673039Y-17684984D02*
X11653991Y-17675460D01*
X11653991Y-17675460D02*
X11644467Y-17665936D01*
X11644467Y-17665936D02*
X11634943Y-17646889D01*
X11634943Y-17646889D02*
X11625420Y-17608793D01*
X11625420Y-17608793D02*
X11625420Y-17561174D01*
X11625420Y-17561174D02*
X11634943Y-17523079D01*
X11634943Y-17523079D02*
X11644467Y-17504031D01*
X11644467Y-17504031D02*
X11653991Y-17494508D01*
X11653991Y-17494508D02*
X11673039Y-17484984D01*
X11825420Y-17684984D02*
X11825420Y-17551650D01*
X11825420Y-17570698D02*
X11834943Y-17561174D01*
X11834943Y-17561174D02*
X11853991Y-17551650D01*
X11853991Y-17551650D02*
X11882563Y-17551650D01*
X11882563Y-17551650D02*
X11901610Y-17561174D01*
X11901610Y-17561174D02*
X11911134Y-17580222D01*
X11911134Y-17580222D02*
X11911134Y-17684984D01*
X11911134Y-17580222D02*
X11920658Y-17561174D01*
X11920658Y-17561174D02*
X11939705Y-17551650D01*
X11939705Y-17551650D02*
X11968277Y-17551650D01*
X11968277Y-17551650D02*
X11987324Y-17561174D01*
X11987324Y-17561174D02*
X11996848Y-17580222D01*
X11996848Y-17580222D02*
X11996848Y-17684984D01*
X12092086Y-17684984D02*
X12092086Y-17551650D01*
X12092086Y-17570698D02*
X12101610Y-17561174D01*
X12101610Y-17561174D02*
X12120658Y-17551650D01*
X12120658Y-17551650D02*
X12149229Y-17551650D01*
X12149229Y-17551650D02*
X12168277Y-17561174D01*
X12168277Y-17561174D02*
X12177801Y-17580222D01*
X12177801Y-17580222D02*
X12177801Y-17684984D01*
X12177801Y-17580222D02*
X12187324Y-17561174D01*
X12187324Y-17561174D02*
X12206372Y-17551650D01*
X12206372Y-17551650D02*
X12234943Y-17551650D01*
X12234943Y-17551650D02*
X12253991Y-17561174D01*
X12253991Y-17561174D02*
X12263515Y-17580222D01*
X12263515Y-17580222D02*
X12263515Y-17684984D01*
X12653991Y-17475460D02*
X12482563Y-17732603D01*
X12911134Y-17484984D02*
X12930182Y-17484984D01*
X12930182Y-17484984D02*
X12949229Y-17494508D01*
X12949229Y-17494508D02*
X12958753Y-17504031D01*
X12958753Y-17504031D02*
X12968277Y-17523079D01*
X12968277Y-17523079D02*
X12977801Y-17561174D01*
X12977801Y-17561174D02*
X12977801Y-17608793D01*
X12977801Y-17608793D02*
X12968277Y-17646889D01*
X12968277Y-17646889D02*
X12958753Y-17665936D01*
X12958753Y-17665936D02*
X12949229Y-17675460D01*
X12949229Y-17675460D02*
X12930182Y-17684984D01*
X12930182Y-17684984D02*
X12911134Y-17684984D01*
X12911134Y-17684984D02*
X12892086Y-17675460D01*
X12892086Y-17675460D02*
X12882563Y-17665936D01*
X12882563Y-17665936D02*
X12873039Y-17646889D01*
X12873039Y-17646889D02*
X12863515Y-17608793D01*
X12863515Y-17608793D02*
X12863515Y-17561174D01*
X12863515Y-17561174D02*
X12873039Y-17523079D01*
X12873039Y-17523079D02*
X12882563Y-17504031D01*
X12882563Y-17504031D02*
X12892086Y-17494508D01*
X12892086Y-17494508D02*
X12911134Y-17484984D01*
X13063515Y-17665936D02*
X13073039Y-17675460D01*
X13073039Y-17675460D02*
X13063515Y-17684984D01*
X13063515Y-17684984D02*
X13053991Y-17675460D01*
X13053991Y-17675460D02*
X13063515Y-17665936D01*
X13063515Y-17665936D02*
X13063515Y-17684984D01*
X13196848Y-17484984D02*
X13215896Y-17484984D01*
X13215896Y-17484984D02*
X13234944Y-17494508D01*
X13234944Y-17494508D02*
X13244467Y-17504031D01*
X13244467Y-17504031D02*
X13253991Y-17523079D01*
X13253991Y-17523079D02*
X13263515Y-17561174D01*
X13263515Y-17561174D02*
X13263515Y-17608793D01*
X13263515Y-17608793D02*
X13253991Y-17646889D01*
X13253991Y-17646889D02*
X13244467Y-17665936D01*
X13244467Y-17665936D02*
X13234944Y-17675460D01*
X13234944Y-17675460D02*
X13215896Y-17684984D01*
X13215896Y-17684984D02*
X13196848Y-17684984D01*
X13196848Y-17684984D02*
X13177801Y-17675460D01*
X13177801Y-17675460D02*
X13168277Y-17665936D01*
X13168277Y-17665936D02*
X13158753Y-17646889D01*
X13158753Y-17646889D02*
X13149229Y-17608793D01*
X13149229Y-17608793D02*
X13149229Y-17561174D01*
X13149229Y-17561174D02*
X13158753Y-17523079D01*
X13158753Y-17523079D02*
X13168277Y-17504031D01*
X13168277Y-17504031D02*
X13177801Y-17494508D01*
X13177801Y-17494508D02*
X13196848Y-17484984D01*
X13377801Y-17570698D02*
X13358753Y-17561174D01*
X13358753Y-17561174D02*
X13349229Y-17551650D01*
X13349229Y-17551650D02*
X13339706Y-17532603D01*
X13339706Y-17532603D02*
X13339706Y-17523079D01*
X13339706Y-17523079D02*
X13349229Y-17504031D01*
X13349229Y-17504031D02*
X13358753Y-17494508D01*
X13358753Y-17494508D02*
X13377801Y-17484984D01*
X13377801Y-17484984D02*
X13415896Y-17484984D01*
X13415896Y-17484984D02*
X13434944Y-17494508D01*
X13434944Y-17494508D02*
X13444467Y-17504031D01*
X13444467Y-17504031D02*
X13453991Y-17523079D01*
X13453991Y-17523079D02*
X13453991Y-17532603D01*
X13453991Y-17532603D02*
X13444467Y-17551650D01*
X13444467Y-17551650D02*
X13434944Y-17561174D01*
X13434944Y-17561174D02*
X13415896Y-17570698D01*
X13415896Y-17570698D02*
X13377801Y-17570698D01*
X13377801Y-17570698D02*
X13358753Y-17580222D01*
X13358753Y-17580222D02*
X13349229Y-17589746D01*
X13349229Y-17589746D02*
X13339706Y-17608793D01*
X13339706Y-17608793D02*
X13339706Y-17646889D01*
X13339706Y-17646889D02*
X13349229Y-17665936D01*
X13349229Y-17665936D02*
X13358753Y-17675460D01*
X13358753Y-17675460D02*
X13377801Y-17684984D01*
X13377801Y-17684984D02*
X13415896Y-17684984D01*
X13415896Y-17684984D02*
X13434944Y-17675460D01*
X13434944Y-17675460D02*
X13444467Y-17665936D01*
X13444467Y-17665936D02*
X13453991Y-17646889D01*
X13453991Y-17646889D02*
X13453991Y-17608793D01*
X13453991Y-17608793D02*
X13444467Y-17589746D01*
X13444467Y-17589746D02*
X13434944Y-17580222D01*
X13434944Y-17580222D02*
X13415896Y-17570698D01*
X13625420Y-17484984D02*
X13587325Y-17484984D01*
X13587325Y-17484984D02*
X13568277Y-17494508D01*
X13568277Y-17494508D02*
X13558753Y-17504031D01*
X13558753Y-17504031D02*
X13539706Y-17532603D01*
X13539706Y-17532603D02*
X13530182Y-17570698D01*
X13530182Y-17570698D02*
X13530182Y-17646889D01*
X13530182Y-17646889D02*
X13539706Y-17665936D01*
X13539706Y-17665936D02*
X13549229Y-17675460D01*
X13549229Y-17675460D02*
X13568277Y-17684984D01*
X13568277Y-17684984D02*
X13606372Y-17684984D01*
X13606372Y-17684984D02*
X13625420Y-17675460D01*
X13625420Y-17675460D02*
X13634944Y-17665936D01*
X13634944Y-17665936D02*
X13644467Y-17646889D01*
X13644467Y-17646889D02*
X13644467Y-17599270D01*
X13644467Y-17599270D02*
X13634944Y-17580222D01*
X13634944Y-17580222D02*
X13625420Y-17570698D01*
X13625420Y-17570698D02*
X13606372Y-17561174D01*
X13606372Y-17561174D02*
X13568277Y-17561174D01*
X13568277Y-17561174D02*
X13549229Y-17570698D01*
X13549229Y-17570698D02*
X13539706Y-17580222D01*
X13539706Y-17580222D02*
X13530182Y-17599270D01*
X13815896Y-17484984D02*
X13777801Y-17484984D01*
X13777801Y-17484984D02*
X13758753Y-17494508D01*
X13758753Y-17494508D02*
X13749229Y-17504031D01*
X13749229Y-17504031D02*
X13730182Y-17532603D01*
X13730182Y-17532603D02*
X13720658Y-17570698D01*
X13720658Y-17570698D02*
X13720658Y-17646889D01*
X13720658Y-17646889D02*
X13730182Y-17665936D01*
X13730182Y-17665936D02*
X13739706Y-17675460D01*
X13739706Y-17675460D02*
X13758753Y-17684984D01*
X13758753Y-17684984D02*
X13796848Y-17684984D01*
X13796848Y-17684984D02*
X13815896Y-17675460D01*
X13815896Y-17675460D02*
X13825420Y-17665936D01*
X13825420Y-17665936D02*
X13834944Y-17646889D01*
X13834944Y-17646889D02*
X13834944Y-17599270D01*
X13834944Y-17599270D02*
X13825420Y-17580222D01*
X13825420Y-17580222D02*
X13815896Y-17570698D01*
X13815896Y-17570698D02*
X13796848Y-17561174D01*
X13796848Y-17561174D02*
X13758753Y-17561174D01*
X13758753Y-17561174D02*
X13739706Y-17570698D01*
X13739706Y-17570698D02*
X13730182Y-17580222D01*
X13730182Y-17580222D02*
X13720658Y-17599270D01*
X13911134Y-17484984D02*
X13911134Y-17523079D01*
X13987325Y-17484984D02*
X13987325Y-17523079D01*
X14282563Y-17761174D02*
X14273039Y-17751650D01*
X14273039Y-17751650D02*
X14253991Y-17723079D01*
X14253991Y-17723079D02*
X14244468Y-17704031D01*
X14244468Y-17704031D02*
X14234944Y-17675460D01*
X14234944Y-17675460D02*
X14225420Y-17627841D01*
X14225420Y-17627841D02*
X14225420Y-17589746D01*
X14225420Y-17589746D02*
X14234944Y-17542127D01*
X14234944Y-17542127D02*
X14244468Y-17513555D01*
X14244468Y-17513555D02*
X14253991Y-17494508D01*
X14253991Y-17494508D02*
X14273039Y-17465936D01*
X14273039Y-17465936D02*
X14282563Y-17456412D01*
X14349229Y-17504031D02*
X14358753Y-17494508D01*
X14358753Y-17494508D02*
X14377801Y-17484984D01*
X14377801Y-17484984D02*
X14425420Y-17484984D01*
X14425420Y-17484984D02*
X14444468Y-17494508D01*
X14444468Y-17494508D02*
X14453991Y-17504031D01*
X14453991Y-17504031D02*
X14463515Y-17523079D01*
X14463515Y-17523079D02*
X14463515Y-17542127D01*
X14463515Y-17542127D02*
X14453991Y-17570698D01*
X14453991Y-17570698D02*
X14339706Y-17684984D01*
X14339706Y-17684984D02*
X14463515Y-17684984D01*
X14701610Y-17684984D02*
X14701610Y-17484984D01*
X14787325Y-17684984D02*
X14787325Y-17580222D01*
X14787325Y-17580222D02*
X14777801Y-17561174D01*
X14777801Y-17561174D02*
X14758753Y-17551650D01*
X14758753Y-17551650D02*
X14730182Y-17551650D01*
X14730182Y-17551650D02*
X14711134Y-17561174D01*
X14711134Y-17561174D02*
X14701610Y-17570698D01*
X14911134Y-17684984D02*
X14892087Y-17675460D01*
X14892087Y-17675460D02*
X14882563Y-17665936D01*
X14882563Y-17665936D02*
X14873039Y-17646889D01*
X14873039Y-17646889D02*
X14873039Y-17589746D01*
X14873039Y-17589746D02*
X14882563Y-17570698D01*
X14882563Y-17570698D02*
X14892087Y-17561174D01*
X14892087Y-17561174D02*
X14911134Y-17551650D01*
X14911134Y-17551650D02*
X14939706Y-17551650D01*
X14939706Y-17551650D02*
X14958753Y-17561174D01*
X14958753Y-17561174D02*
X14968277Y-17570698D01*
X14968277Y-17570698D02*
X14977801Y-17589746D01*
X14977801Y-17589746D02*
X14977801Y-17646889D01*
X14977801Y-17646889D02*
X14968277Y-17665936D01*
X14968277Y-17665936D02*
X14958753Y-17675460D01*
X14958753Y-17675460D02*
X14939706Y-17684984D01*
X14939706Y-17684984D02*
X14911134Y-17684984D01*
X15092087Y-17684984D02*
X15073039Y-17675460D01*
X15073039Y-17675460D02*
X15063515Y-17656412D01*
X15063515Y-17656412D02*
X15063515Y-17484984D01*
X15244468Y-17675460D02*
X15225420Y-17684984D01*
X15225420Y-17684984D02*
X15187325Y-17684984D01*
X15187325Y-17684984D02*
X15168277Y-17675460D01*
X15168277Y-17675460D02*
X15158753Y-17656412D01*
X15158753Y-17656412D02*
X15158753Y-17580222D01*
X15158753Y-17580222D02*
X15168277Y-17561174D01*
X15168277Y-17561174D02*
X15187325Y-17551650D01*
X15187325Y-17551650D02*
X15225420Y-17551650D01*
X15225420Y-17551650D02*
X15244468Y-17561174D01*
X15244468Y-17561174D02*
X15253991Y-17580222D01*
X15253991Y-17580222D02*
X15253991Y-17599270D01*
X15253991Y-17599270D02*
X15158753Y-17618317D01*
X15330182Y-17675460D02*
X15349230Y-17684984D01*
X15349230Y-17684984D02*
X15387325Y-17684984D01*
X15387325Y-17684984D02*
X15406372Y-17675460D01*
X15406372Y-17675460D02*
X15415896Y-17656412D01*
X15415896Y-17656412D02*
X15415896Y-17646889D01*
X15415896Y-17646889D02*
X15406372Y-17627841D01*
X15406372Y-17627841D02*
X15387325Y-17618317D01*
X15387325Y-17618317D02*
X15358753Y-17618317D01*
X15358753Y-17618317D02*
X15339706Y-17608793D01*
X15339706Y-17608793D02*
X15330182Y-17589746D01*
X15330182Y-17589746D02*
X15330182Y-17580222D01*
X15330182Y-17580222D02*
X15339706Y-17561174D01*
X15339706Y-17561174D02*
X15358753Y-17551650D01*
X15358753Y-17551650D02*
X15387325Y-17551650D01*
X15387325Y-17551650D02*
X15406372Y-17561174D01*
X15482563Y-17761174D02*
X15492087Y-17751650D01*
X15492087Y-17751650D02*
X15511134Y-17723079D01*
X15511134Y-17723079D02*
X15520658Y-17704031D01*
X15520658Y-17704031D02*
X15530182Y-17675460D01*
X15530182Y-17675460D02*
X15539706Y-17627841D01*
X15539706Y-17627841D02*
X15539706Y-17589746D01*
X15539706Y-17589746D02*
X15530182Y-17542127D01*
X15530182Y-17542127D02*
X15520658Y-17513555D01*
X15520658Y-17513555D02*
X15511134Y-17494508D01*
X15511134Y-17494508D02*
X15492087Y-17465936D01*
X15492087Y-17465936D02*
X15482563Y-17456412D01*
M02*
