G04 #@! TF.GenerationSoftware,KiCad,Pcbnew,8.0.6*
G04 #@! TF.CreationDate,2025-04-03T20:59:00+02:00*
G04 #@! TF.ProjectId,UV-Lamp,55562d4c-616d-4702-9e6b-696361645f70,v2.0*
G04 #@! TF.SameCoordinates,Original*
G04 #@! TF.FileFunction,Legend,Bot*
G04 #@! TF.FilePolarity,Positive*
%FSLAX46Y46*%
G04 Gerber Fmt 4.6, Leading zero omitted, Abs format (unit mm)*
G04 Created by KiCad (PCBNEW 8.0.6) date 2025-04-03 20:59:00*
%MOMM*%
%LPD*%
G01*
G04 APERTURE LIST*
G04 Aperture macros list*
%AMRoundRect*
0 Rectangle with rounded corners*
0 $1 Rounding radius*
0 $2 $3 $4 $5 $6 $7 $8 $9 X,Y pos of 4 corners*
0 Add a 4 corners polygon primitive as box body*
4,1,4,$2,$3,$4,$5,$6,$7,$8,$9,$2,$3,0*
0 Add four circle primitives for the rounded corners*
1,1,$1+$1,$2,$3*
1,1,$1+$1,$4,$5*
1,1,$1+$1,$6,$7*
1,1,$1+$1,$8,$9*
0 Add four rect primitives between the rounded corners*
20,1,$1+$1,$2,$3,$4,$5,0*
20,1,$1+$1,$4,$5,$6,$7,0*
20,1,$1+$1,$6,$7,$8,$9,0*
20,1,$1+$1,$8,$9,$2,$3,0*%
G04 Aperture macros list end*
%ADD10C,0.150000*%
%ADD11C,0.120000*%
%ADD12C,0.000000*%
%ADD13RoundRect,0.250002X-1.699998X-1.699998X1.699998X-1.699998X1.699998X1.699998X-1.699998X1.699998X0*%
%ADD14C,5.700000*%
%ADD15RoundRect,0.250000X1.125000X-1.125000X1.125000X1.125000X-1.125000X1.125000X-1.125000X-1.125000X0*%
%ADD16C,2.750000*%
%ADD17RoundRect,0.249999X1.300001X-1.300001X1.300001X1.300001X-1.300001X1.300001X-1.300001X-1.300001X0*%
%ADD18C,3.100000*%
%ADD19RoundRect,0.250001X0.799999X-0.799999X0.799999X0.799999X-0.799999X0.799999X-0.799999X-0.799999X0*%
%ADD20C,2.100000*%
%ADD21R,2.500000X2.500000*%
%ADD22C,2.500000*%
%ADD23C,4.000000*%
G04 APERTURE END LIST*
D10*
X159614285Y-143154819D02*
X159614285Y-142154819D01*
X159614285Y-142154819D02*
X159233333Y-142154819D01*
X159233333Y-142154819D02*
X159138095Y-142202438D01*
X159138095Y-142202438D02*
X159090476Y-142250057D01*
X159090476Y-142250057D02*
X159042857Y-142345295D01*
X159042857Y-142345295D02*
X159042857Y-142488152D01*
X159042857Y-142488152D02*
X159090476Y-142583390D01*
X159090476Y-142583390D02*
X159138095Y-142631009D01*
X159138095Y-142631009D02*
X159233333Y-142678628D01*
X159233333Y-142678628D02*
X159614285Y-142678628D01*
X158661904Y-143107200D02*
X158519047Y-143154819D01*
X158519047Y-143154819D02*
X158280952Y-143154819D01*
X158280952Y-143154819D02*
X158185714Y-143107200D01*
X158185714Y-143107200D02*
X158138095Y-143059580D01*
X158138095Y-143059580D02*
X158090476Y-142964342D01*
X158090476Y-142964342D02*
X158090476Y-142869104D01*
X158090476Y-142869104D02*
X158138095Y-142773866D01*
X158138095Y-142773866D02*
X158185714Y-142726247D01*
X158185714Y-142726247D02*
X158280952Y-142678628D01*
X158280952Y-142678628D02*
X158471428Y-142631009D01*
X158471428Y-142631009D02*
X158566666Y-142583390D01*
X158566666Y-142583390D02*
X158614285Y-142535771D01*
X158614285Y-142535771D02*
X158661904Y-142440533D01*
X158661904Y-142440533D02*
X158661904Y-142345295D01*
X158661904Y-142345295D02*
X158614285Y-142250057D01*
X158614285Y-142250057D02*
X158566666Y-142202438D01*
X158566666Y-142202438D02*
X158471428Y-142154819D01*
X158471428Y-142154819D02*
X158233333Y-142154819D01*
X158233333Y-142154819D02*
X158090476Y-142202438D01*
X157138095Y-143154819D02*
X157709523Y-143154819D01*
X157423809Y-143154819D02*
X157423809Y-142154819D01*
X157423809Y-142154819D02*
X157519047Y-142297676D01*
X157519047Y-142297676D02*
X157614285Y-142392914D01*
X157614285Y-142392914D02*
X157709523Y-142440533D01*
D11*
X107857500Y-56400000D02*
X107857500Y-143800000D01*
X107857500Y-143800000D02*
X160257500Y-143800000D01*
X160257500Y-56400000D02*
X107857500Y-56400000D01*
X160257500Y-143800000D02*
X160257500Y-56400000D01*
X160757500Y-137100000D02*
X160757500Y-139600000D01*
D12*
G36*
X150488928Y-147937506D02*
G01*
X150582812Y-147951432D01*
X150674880Y-147974494D01*
X150764243Y-148006469D01*
X150850042Y-148047049D01*
X150931451Y-148095843D01*
X151007685Y-148152382D01*
X151078010Y-148216121D01*
X151141748Y-148286446D01*
X151198287Y-148362680D01*
X151247082Y-148444088D01*
X151287662Y-148529887D01*
X151319636Y-148619251D01*
X151342698Y-148711318D01*
X151356625Y-148805203D01*
X151361282Y-148900000D01*
X151356625Y-148994797D01*
X151342698Y-149088682D01*
X151319636Y-149180749D01*
X151287662Y-149270113D01*
X151247082Y-149355912D01*
X151198287Y-149437320D01*
X151141748Y-149513554D01*
X151078010Y-149583879D01*
X151007685Y-149647618D01*
X150931451Y-149704157D01*
X150850042Y-149752951D01*
X150764243Y-149793531D01*
X150674880Y-149825506D01*
X150582812Y-149848568D01*
X150488928Y-149862494D01*
X150394130Y-149867151D01*
X150124879Y-149867151D01*
X149496446Y-149867151D01*
X148118417Y-149867151D01*
X146435057Y-149867151D01*
X146275121Y-149867151D01*
X146005870Y-149867151D01*
X145911072Y-149862494D01*
X145817188Y-149848568D01*
X145725120Y-149825506D01*
X145635757Y-149793531D01*
X145549958Y-149752951D01*
X145468549Y-149704157D01*
X145392315Y-149647618D01*
X145337460Y-149597900D01*
X148118417Y-149597900D01*
X148318740Y-149597900D01*
X148318740Y-149166559D01*
X149496446Y-149166559D01*
X149496446Y-149331341D01*
X150124879Y-149331341D01*
X150124879Y-148331341D01*
X149924556Y-148331341D01*
X149924556Y-149166559D01*
X149496446Y-149166559D01*
X148318740Y-149166559D01*
X148318740Y-148202100D01*
X148118417Y-148202100D01*
X148118417Y-149597900D01*
X145337460Y-149597900D01*
X145321990Y-149583879D01*
X145258252Y-149513554D01*
X145201713Y-149437320D01*
X145152918Y-149355912D01*
X145141297Y-149331341D01*
X146275121Y-149331341D01*
X146435057Y-149331341D01*
X146481637Y-149220499D01*
X146530910Y-149109837D01*
X146582876Y-148999354D01*
X146637534Y-148888871D01*
X146694884Y-148778209D01*
X146754927Y-148667367D01*
X146754927Y-149331341D01*
X146934249Y-149331341D01*
X146934249Y-148331341D01*
X146774313Y-148331341D01*
X146729079Y-148405452D01*
X146683845Y-148485622D01*
X146639216Y-148568619D01*
X146595800Y-148651212D01*
X146554604Y-148732391D01*
X146516640Y-148811147D01*
X146482916Y-148883845D01*
X146454443Y-148946850D01*
X146454443Y-148331341D01*
X146275121Y-148331341D01*
X146275121Y-149331341D01*
X145141297Y-149331341D01*
X145112338Y-149270113D01*
X145080364Y-149180749D01*
X145057302Y-149088682D01*
X145043375Y-148994797D01*
X145038718Y-148900000D01*
X145043375Y-148805203D01*
X145057302Y-148711318D01*
X145080364Y-148619251D01*
X145112338Y-148529887D01*
X145152918Y-148444088D01*
X145201713Y-148362680D01*
X145258252Y-148286446D01*
X145321990Y-148216121D01*
X145392315Y-148152382D01*
X145468549Y-148095843D01*
X145549958Y-148047049D01*
X145635757Y-148006469D01*
X145725120Y-147974494D01*
X145817188Y-147951432D01*
X145911072Y-147937506D01*
X146005870Y-147932849D01*
X146275121Y-147932849D01*
X150124879Y-147932849D01*
X150394130Y-147932849D01*
X150488928Y-147937506D01*
G37*
G36*
X163820840Y-84058643D02*
G01*
X163811349Y-84142246D01*
X163782876Y-84202423D01*
X163731381Y-84238772D01*
X163652827Y-84250889D01*
X163578312Y-84238974D01*
X163529241Y-84203231D01*
X163501979Y-84147698D01*
X163492892Y-84076414D01*
X163493700Y-84027141D01*
X163497738Y-83977868D01*
X163820840Y-83977868D01*
X163820840Y-84058643D01*
G37*
G36*
X163820840Y-89712924D02*
G01*
X163811349Y-89796527D01*
X163782876Y-89856704D01*
X163731381Y-89893053D01*
X163652827Y-89905170D01*
X163578312Y-89893255D01*
X163529241Y-89857512D01*
X163501979Y-89801979D01*
X163492892Y-89730695D01*
X163493700Y-89681422D01*
X163497738Y-89632149D01*
X163820840Y-89632149D01*
X163820840Y-89712924D01*
G37*
G36*
X164171405Y-80764620D02*
G01*
X164171405Y-80782391D01*
X164145557Y-80896284D01*
X164074475Y-80970598D01*
X163967044Y-81010985D01*
X163901817Y-81020073D01*
X163830533Y-81023102D01*
X163704523Y-81013409D01*
X163596284Y-80979483D01*
X163521163Y-80913247D01*
X163492892Y-80805008D01*
X163493700Y-80775929D01*
X163497738Y-80746850D01*
X164169790Y-80746850D01*
X164171405Y-80764620D01*
G37*
G36*
X164867151Y-80226656D02*
G01*
X164867151Y-80761389D01*
X164867151Y-82582068D01*
X164867151Y-83977868D01*
X164867151Y-85213732D01*
X164867151Y-86078029D01*
X164867151Y-86861551D01*
X164867151Y-88236349D01*
X164867151Y-89632149D01*
X164867151Y-90868013D01*
X164867151Y-91732310D01*
X164867151Y-92510985D01*
X164867151Y-92780237D01*
X164862494Y-92875034D01*
X164848568Y-92968919D01*
X164825506Y-93060986D01*
X164793531Y-93150350D01*
X164752951Y-93236149D01*
X164704157Y-93317557D01*
X164647618Y-93393791D01*
X164583879Y-93464116D01*
X164513554Y-93527855D01*
X164437320Y-93584394D01*
X164355912Y-93633188D01*
X164270113Y-93673768D01*
X164180749Y-93705743D01*
X164088682Y-93728805D01*
X163994797Y-93742731D01*
X163900000Y-93747388D01*
X163805203Y-93742731D01*
X163711318Y-93728805D01*
X163619251Y-93705743D01*
X163529887Y-93673768D01*
X163444088Y-93633188D01*
X163362680Y-93584394D01*
X163286446Y-93527855D01*
X163216121Y-93464116D01*
X163152382Y-93393791D01*
X163095843Y-93317557D01*
X163047049Y-93236149D01*
X163006469Y-93150350D01*
X162974494Y-93060986D01*
X162951432Y-92968919D01*
X162937506Y-92875034D01*
X162932849Y-92780237D01*
X162932849Y-92510985D01*
X162932849Y-92176575D01*
X163331341Y-92176575D01*
X163331341Y-92312278D01*
X164166559Y-92312278D01*
X164166559Y-92510985D01*
X164331341Y-92510985D01*
X164331341Y-91903554D01*
X164166559Y-91903554D01*
X164166559Y-92113570D01*
X163607593Y-92113570D01*
X163664943Y-92010178D01*
X163704523Y-91911632D01*
X163539742Y-91847011D01*
X163502585Y-91931018D01*
X163452504Y-92021486D01*
X163394346Y-92107108D01*
X163331341Y-92176575D01*
X162932849Y-92176575D01*
X162932849Y-91057027D01*
X163331341Y-91057027D01*
X163331341Y-91221809D01*
X163418578Y-91250081D01*
X163533279Y-91286430D01*
X163657674Y-91325202D01*
X163773990Y-91362359D01*
X163650404Y-91402746D01*
X163527625Y-91443134D01*
X163416963Y-91478675D01*
X163331341Y-91507754D01*
X163331341Y-91672536D01*
X163460582Y-91683643D01*
X163586591Y-91694346D01*
X163710380Y-91704039D01*
X163832956Y-91712116D01*
X163955331Y-91718780D01*
X164078514Y-91724233D01*
X164203514Y-91728675D01*
X164331341Y-91732310D01*
X164331341Y-91549758D01*
X163554281Y-91559451D01*
X163977544Y-91436672D01*
X163977544Y-91291276D01*
X163554281Y-91173344D01*
X164331341Y-91181422D01*
X164331341Y-90998869D01*
X164206139Y-91003918D01*
X164076090Y-91009370D01*
X163944023Y-91015226D01*
X163812763Y-91021486D01*
X163683926Y-91028554D01*
X163559128Y-91036834D01*
X163440792Y-91046325D01*
X163331341Y-91057027D01*
X162932849Y-91057027D01*
X162932849Y-90191115D01*
X163331341Y-90191115D01*
X163331341Y-90375283D01*
X163428271Y-90373667D01*
X163528433Y-90372052D01*
X163630008Y-90370436D01*
X163731179Y-90368821D01*
X163830937Y-90367205D01*
X163928271Y-90365590D01*
X164021365Y-90364378D01*
X164108401Y-90363974D01*
X163995315Y-90397092D01*
X163874152Y-90432633D01*
X163764297Y-90464136D01*
X163685137Y-90486753D01*
X163685137Y-90632149D01*
X163761066Y-90651535D01*
X163861228Y-90679806D01*
X163979160Y-90713732D01*
X164108401Y-90750081D01*
X164021365Y-90749677D01*
X163928271Y-90748465D01*
X163831139Y-90746850D01*
X163731987Y-90745234D01*
X163631220Y-90743619D01*
X163529241Y-90742003D01*
X163428473Y-90740792D01*
X163331341Y-90740388D01*
X163331341Y-90924556D01*
X163455937Y-90919709D01*
X163584168Y-90914863D01*
X163713813Y-90909612D01*
X163842649Y-90903554D01*
X163970073Y-90896486D01*
X164095477Y-90888207D01*
X164216640Y-90878716D01*
X164331341Y-90868013D01*
X164331341Y-90703231D01*
X164225727Y-90667690D01*
X164112439Y-90632149D01*
X163997940Y-90596607D01*
X163888691Y-90561066D01*
X163994911Y-90524717D01*
X164110016Y-90486753D01*
X164225121Y-90449596D01*
X164331341Y-90415670D01*
X164331341Y-90250889D01*
X164216438Y-90238772D01*
X164094669Y-90228271D01*
X163968659Y-90219184D01*
X163841034Y-90211309D01*
X163712197Y-90204645D01*
X163582553Y-90199192D01*
X163454725Y-90194750D01*
X163331341Y-90191115D01*
X162932849Y-90191115D01*
X162932849Y-89708078D01*
X163320032Y-89708078D01*
X163328738Y-89825651D01*
X163354856Y-89924197D01*
X163398384Y-90003716D01*
X163461659Y-90062053D01*
X163547011Y-90097056D01*
X163654443Y-90108724D01*
X163762951Y-90096966D01*
X163849381Y-90061694D01*
X163913732Y-90002908D01*
X163958158Y-89922581D01*
X163984814Y-89822689D01*
X163993700Y-89703231D01*
X163993700Y-89632149D01*
X164331341Y-89632149D01*
X164331341Y-89433441D01*
X163344265Y-89433441D01*
X163332956Y-89498869D01*
X163325687Y-89572375D01*
X163321648Y-89645073D01*
X163320032Y-89708078D01*
X162932849Y-89708078D01*
X162932849Y-88036026D01*
X163202100Y-88036026D01*
X163202100Y-88236349D01*
X164597900Y-88236349D01*
X164597900Y-88036026D01*
X163202100Y-88036026D01*
X162932849Y-88036026D01*
X162932849Y-86502908D01*
X163308724Y-86502908D01*
X163326494Y-86620840D01*
X163379806Y-86721002D01*
X163469467Y-86790468D01*
X163594669Y-86816317D01*
X163694023Y-86796931D01*
X163786914Y-86745234D01*
X163874152Y-86672536D01*
X163954927Y-86590145D01*
X164000969Y-86541680D01*
X164055897Y-86489984D01*
X164113247Y-86448788D01*
X164166559Y-86431826D01*
X164166559Y-86861551D01*
X164331341Y-86861551D01*
X164331341Y-86208885D01*
X164290953Y-86204847D01*
X164257027Y-86205654D01*
X164179483Y-86213126D01*
X164108401Y-86235541D01*
X164043174Y-86269467D01*
X163983199Y-86311470D01*
X163927868Y-86359128D01*
X163876575Y-86410016D01*
X163828312Y-86460905D01*
X163782068Y-86508562D01*
X163694830Y-86584491D01*
X163609208Y-86614378D01*
X163514701Y-86577221D01*
X163481583Y-86483522D01*
X163504200Y-86384976D01*
X163580129Y-86283199D01*
X163441195Y-86184653D01*
X163382229Y-86254321D01*
X163341034Y-86334087D01*
X163316801Y-86418700D01*
X163308724Y-86502908D01*
X162932849Y-86502908D01*
X162932849Y-85402746D01*
X163331341Y-85402746D01*
X163331341Y-85567528D01*
X163418578Y-85595800D01*
X163533279Y-85632149D01*
X163657674Y-85670921D01*
X163773990Y-85708078D01*
X163650404Y-85748465D01*
X163527625Y-85788853D01*
X163416963Y-85824394D01*
X163331341Y-85853473D01*
X163331341Y-86018255D01*
X163460582Y-86029362D01*
X163586591Y-86040065D01*
X163710380Y-86049758D01*
X163832956Y-86057835D01*
X163955331Y-86064499D01*
X164078514Y-86069952D01*
X164203514Y-86074394D01*
X164331341Y-86078029D01*
X164331341Y-85895477D01*
X163554281Y-85905170D01*
X163977544Y-85782391D01*
X163977544Y-85636995D01*
X163554281Y-85519063D01*
X164331341Y-85527141D01*
X164331341Y-85344588D01*
X164206139Y-85349637D01*
X164076090Y-85355089D01*
X163944023Y-85360945D01*
X163812763Y-85367205D01*
X163683926Y-85374273D01*
X163559128Y-85382553D01*
X163440792Y-85392044D01*
X163331341Y-85402746D01*
X162932849Y-85402746D01*
X162932849Y-84536834D01*
X163331341Y-84536834D01*
X163331341Y-84721002D01*
X163428271Y-84719386D01*
X163528433Y-84717771D01*
X163630008Y-84716155D01*
X163731179Y-84714540D01*
X163830937Y-84712924D01*
X163928271Y-84711309D01*
X164021365Y-84710097D01*
X164108401Y-84709693D01*
X163995315Y-84742811D01*
X163874152Y-84778352D01*
X163764297Y-84809855D01*
X163685137Y-84832472D01*
X163685137Y-84977868D01*
X163761066Y-84997254D01*
X163861228Y-85025525D01*
X163979160Y-85059451D01*
X164108401Y-85095800D01*
X164021365Y-85095396D01*
X163928271Y-85094184D01*
X163831139Y-85092569D01*
X163731987Y-85090953D01*
X163631220Y-85089338D01*
X163529241Y-85087722D01*
X163428473Y-85086511D01*
X163331341Y-85086107D01*
X163331341Y-85270275D01*
X163455937Y-85265428D01*
X163584168Y-85260582D01*
X163713813Y-85255331D01*
X163842649Y-85249273D01*
X163970073Y-85242205D01*
X164095477Y-85233926D01*
X164216640Y-85224435D01*
X164331341Y-85213732D01*
X164331341Y-85048950D01*
X164225727Y-85013409D01*
X164112439Y-84977868D01*
X163997940Y-84942326D01*
X163888691Y-84906785D01*
X163994911Y-84870436D01*
X164110016Y-84832472D01*
X164225121Y-84795315D01*
X164331341Y-84761389D01*
X164331341Y-84596607D01*
X164216438Y-84584491D01*
X164094669Y-84573990D01*
X163968659Y-84564903D01*
X163841034Y-84557027D01*
X163712197Y-84550363D01*
X163582553Y-84544911D01*
X163454725Y-84540468D01*
X163331341Y-84536834D01*
X162932849Y-84536834D01*
X162932849Y-84053796D01*
X163320032Y-84053796D01*
X163328738Y-84171370D01*
X163354856Y-84269916D01*
X163398384Y-84349435D01*
X163461659Y-84407772D01*
X163547011Y-84442775D01*
X163654443Y-84454443D01*
X163762951Y-84442685D01*
X163849381Y-84407413D01*
X163913732Y-84348627D01*
X163958158Y-84268300D01*
X163984814Y-84168408D01*
X163993700Y-84048950D01*
X163993700Y-83977868D01*
X164331341Y-83977868D01*
X164331341Y-83779160D01*
X163344265Y-83779160D01*
X163332956Y-83844588D01*
X163325687Y-83918094D01*
X163321648Y-83990792D01*
X163320032Y-84053796D01*
X162932849Y-84053796D01*
X162932849Y-82381745D01*
X163202100Y-82381745D01*
X163202100Y-82582068D01*
X164597900Y-82582068D01*
X164597900Y-82381745D01*
X163202100Y-82381745D01*
X162932849Y-82381745D01*
X162932849Y-80787237D01*
X163320032Y-80787237D01*
X163327302Y-80881543D01*
X163349111Y-80967367D01*
X163386470Y-81042690D01*
X163440388Y-81105493D01*
X163511066Y-81155775D01*
X163598708Y-81193538D01*
X163704725Y-81217165D01*
X163830533Y-81225040D01*
X163959168Y-81216357D01*
X164067205Y-81190307D01*
X164155856Y-81148910D01*
X164226333Y-81094184D01*
X164279443Y-81026939D01*
X164315994Y-80947981D01*
X164337197Y-80858926D01*
X164344265Y-80761389D01*
X164338611Y-80657189D01*
X164320032Y-80548142D01*
X163344265Y-80548142D01*
X163324879Y-80675767D01*
X163320032Y-80787237D01*
X162932849Y-80787237D01*
X162932849Y-79727464D01*
X163331341Y-79727464D01*
X163331341Y-79887399D01*
X163405452Y-79932633D01*
X163485622Y-79977868D01*
X163568619Y-80022496D01*
X163651212Y-80065913D01*
X163732391Y-80107108D01*
X163811147Y-80145073D01*
X163883845Y-80178796D01*
X163946850Y-80207270D01*
X163331341Y-80207270D01*
X163331341Y-80386591D01*
X164331341Y-80386591D01*
X164331341Y-80226656D01*
X164220499Y-80180075D01*
X164109837Y-80130802D01*
X163999354Y-80078837D01*
X163888871Y-80024179D01*
X163778209Y-79966828D01*
X163667367Y-79906785D01*
X164331341Y-79906785D01*
X164331341Y-79727464D01*
X163331341Y-79727464D01*
X162932849Y-79727464D01*
X162932849Y-79321971D01*
X163308724Y-79321971D01*
X163317609Y-79426171D01*
X163337803Y-79506139D01*
X163362036Y-79561874D01*
X163381422Y-79594992D01*
X163539742Y-79543296D01*
X163499354Y-79456058D01*
X163481583Y-79349435D01*
X163507431Y-79229887D01*
X163579321Y-79149919D01*
X163689176Y-79104685D01*
X163756422Y-79094386D01*
X163830533Y-79090953D01*
X163939580Y-79097236D01*
X164027625Y-79116083D01*
X164094669Y-79147496D01*
X164158279Y-79217367D01*
X164179483Y-79313893D01*
X164177868Y-79352666D01*
X164173021Y-79391438D01*
X163807916Y-79391438D01*
X163807916Y-79590145D01*
X164307108Y-79590145D01*
X164336187Y-79479483D01*
X164348304Y-79396486D01*
X164352342Y-79297738D01*
X164344063Y-79208683D01*
X164319225Y-79128918D01*
X164278029Y-79059249D01*
X164220679Y-79000485D01*
X164147173Y-78953231D01*
X164057512Y-78918094D01*
X163951898Y-78896284D01*
X163830533Y-78889015D01*
X163710380Y-78897496D01*
X163605170Y-78922940D01*
X163515307Y-78962924D01*
X163441195Y-79015024D01*
X163383239Y-79078433D01*
X163341842Y-79152342D01*
X163317003Y-79234330D01*
X163308724Y-79321971D01*
X162932849Y-79321971D01*
X162932849Y-78889015D01*
X162932849Y-78619763D01*
X162937506Y-78524966D01*
X162951432Y-78431081D01*
X162974494Y-78339014D01*
X163006469Y-78249650D01*
X163047049Y-78163851D01*
X163095843Y-78082443D01*
X163152382Y-78006209D01*
X163216121Y-77935884D01*
X163286446Y-77872145D01*
X163362680Y-77815606D01*
X163444088Y-77766812D01*
X163529887Y-77726232D01*
X163619251Y-77694257D01*
X163711318Y-77671195D01*
X163805203Y-77657269D01*
X163900000Y-77652612D01*
X163994797Y-77657269D01*
X164088682Y-77671195D01*
X164180749Y-77694257D01*
X164270113Y-77726232D01*
X164355912Y-77766812D01*
X164437320Y-77815606D01*
X164513554Y-77872145D01*
X164583879Y-77935884D01*
X164647618Y-78006209D01*
X164704157Y-78082443D01*
X164752951Y-78163851D01*
X164793531Y-78249650D01*
X164825506Y-78339014D01*
X164848568Y-78431081D01*
X164862494Y-78524966D01*
X164867151Y-78619763D01*
X164867151Y-78889015D01*
X164867151Y-79297738D01*
X164867151Y-80226656D01*
G37*
G36*
X164171405Y-101149111D02*
G01*
X164171405Y-101166882D01*
X164145557Y-101280775D01*
X164074475Y-101355089D01*
X163967044Y-101395477D01*
X163901817Y-101404564D01*
X163830533Y-101407593D01*
X163704523Y-101397900D01*
X163596284Y-101363974D01*
X163521163Y-101297738D01*
X163492892Y-101189499D01*
X163493700Y-101160420D01*
X163497738Y-101131341D01*
X164169790Y-101131341D01*
X164171405Y-101149111D01*
G37*
G36*
X164171405Y-110842165D02*
G01*
X164171405Y-110859935D01*
X164145557Y-110973829D01*
X164074475Y-111048142D01*
X163967044Y-111088530D01*
X163901817Y-111097617D01*
X163830533Y-111100646D01*
X163704523Y-111090953D01*
X163596284Y-111057027D01*
X163521163Y-110990792D01*
X163492892Y-110882553D01*
X163493700Y-110853473D01*
X163497738Y-110824394D01*
X164169790Y-110824394D01*
X164171405Y-110842165D01*
G37*
G36*
X164867151Y-100611147D02*
G01*
X164867151Y-101145880D01*
X164867151Y-102966559D01*
X164867151Y-104554604D01*
X164867151Y-105619225D01*
X164867151Y-106438288D01*
X164867151Y-107813086D01*
X164867151Y-109375283D01*
X164867151Y-110304200D01*
X164867151Y-110838934D01*
X164867151Y-112659612D01*
X164867151Y-114247658D01*
X164867151Y-115312278D01*
X164867151Y-116126494D01*
X164867151Y-116395746D01*
X164862494Y-116490543D01*
X164848568Y-116584428D01*
X164825506Y-116676495D01*
X164793531Y-116765859D01*
X164752951Y-116851658D01*
X164704157Y-116933066D01*
X164647618Y-117009300D01*
X164583879Y-117079625D01*
X164513554Y-117143364D01*
X164437320Y-117199903D01*
X164355912Y-117248697D01*
X164270113Y-117289277D01*
X164180749Y-117321252D01*
X164088682Y-117344314D01*
X163994797Y-117358240D01*
X163900000Y-117362897D01*
X163805203Y-117358240D01*
X163711318Y-117344314D01*
X163619251Y-117321252D01*
X163529887Y-117289277D01*
X163444088Y-117248697D01*
X163362680Y-117199903D01*
X163286446Y-117143364D01*
X163216121Y-117079625D01*
X163152382Y-117009300D01*
X163095843Y-116933066D01*
X163047049Y-116851658D01*
X163006469Y-116765859D01*
X162974494Y-116676495D01*
X162951432Y-116584428D01*
X162937506Y-116490543D01*
X162932849Y-116395746D01*
X162932849Y-116126494D01*
X162932849Y-115792084D01*
X163331341Y-115792084D01*
X163331341Y-115927787D01*
X164166559Y-115927787D01*
X164166559Y-116126494D01*
X164331341Y-116126494D01*
X164331341Y-115519063D01*
X164166559Y-115519063D01*
X164166559Y-115729079D01*
X163607593Y-115729079D01*
X163664943Y-115625687D01*
X163704523Y-115527141D01*
X163539742Y-115462520D01*
X163502585Y-115546527D01*
X163452504Y-115636995D01*
X163394346Y-115722617D01*
X163331341Y-115792084D01*
X162932849Y-115792084D01*
X162932849Y-114649919D01*
X163331341Y-114649919D01*
X163331341Y-114848627D01*
X163725525Y-114848627D01*
X163725525Y-115113570D01*
X163331341Y-115113570D01*
X163331341Y-115312278D01*
X164331341Y-115312278D01*
X164331341Y-115113570D01*
X163890307Y-115113570D01*
X163890307Y-114848627D01*
X164331341Y-114848627D01*
X164331341Y-114649919D01*
X163331341Y-114649919D01*
X162932849Y-114649919D01*
X162932849Y-114267044D01*
X163308724Y-114267044D01*
X163317609Y-114363166D01*
X163337803Y-114438288D01*
X163362036Y-114492407D01*
X163381422Y-114525525D01*
X163539742Y-114473829D01*
X163498546Y-114384168D01*
X163481583Y-114263813D01*
X163498546Y-114172536D01*
X163555089Y-114093376D01*
X163660905Y-114036834D01*
X163735218Y-114020477D01*
X163825687Y-114015024D01*
X163930964Y-114021576D01*
X164018471Y-114041231D01*
X164088207Y-114073990D01*
X164156664Y-114151737D01*
X164179483Y-114267044D01*
X164161712Y-114395477D01*
X164126171Y-114477060D01*
X164282876Y-114527141D01*
X164330533Y-114413247D01*
X164346890Y-114335905D01*
X164352342Y-114247658D01*
X164337264Y-114117699D01*
X164292030Y-114009998D01*
X164216640Y-113924556D01*
X164141620Y-113875788D01*
X164052262Y-113840953D01*
X163948566Y-113820053D01*
X163830533Y-113813086D01*
X163713005Y-113821567D01*
X163609208Y-113847011D01*
X163519750Y-113887601D01*
X163445234Y-113941519D01*
X163386268Y-114007754D01*
X163343457Y-114085299D01*
X163317407Y-114172334D01*
X163308724Y-114267044D01*
X162932849Y-114267044D01*
X162932849Y-112459289D01*
X163202100Y-112459289D01*
X163202100Y-112659612D01*
X164597900Y-112659612D01*
X164597900Y-112459289D01*
X163202100Y-112459289D01*
X162932849Y-112459289D01*
X162932849Y-110864782D01*
X163320032Y-110864782D01*
X163327302Y-110959087D01*
X163349111Y-111044911D01*
X163386470Y-111120234D01*
X163440388Y-111183037D01*
X163511066Y-111233320D01*
X163598708Y-111271082D01*
X163704725Y-111294709D01*
X163830533Y-111302585D01*
X163959168Y-111293901D01*
X164067205Y-111267851D01*
X164155856Y-111226454D01*
X164226333Y-111171729D01*
X164279443Y-111104483D01*
X164315994Y-111025525D01*
X164337197Y-110936470D01*
X164344265Y-110838934D01*
X164338611Y-110734733D01*
X164320032Y-110625687D01*
X163344265Y-110625687D01*
X163324879Y-110753312D01*
X163320032Y-110864782D01*
X162932849Y-110864782D01*
X162932849Y-109805008D01*
X163331341Y-109805008D01*
X163331341Y-109964943D01*
X163405452Y-110010178D01*
X163485622Y-110055412D01*
X163568619Y-110100040D01*
X163651212Y-110143457D01*
X163732391Y-110184653D01*
X163811147Y-110222617D01*
X163883845Y-110256341D01*
X163946850Y-110284814D01*
X163331341Y-110284814D01*
X163331341Y-110464136D01*
X164331341Y-110464136D01*
X164331341Y-110304200D01*
X164220499Y-110257620D01*
X164109837Y-110208347D01*
X163999354Y-110156381D01*
X163888871Y-110101723D01*
X163778209Y-110044373D01*
X163667367Y-109984330D01*
X164331341Y-109984330D01*
X164331341Y-109805008D01*
X163331341Y-109805008D01*
X162932849Y-109805008D01*
X162932849Y-109399515D01*
X163308724Y-109399515D01*
X163317609Y-109503716D01*
X163337803Y-109583683D01*
X163362036Y-109639418D01*
X163381422Y-109672536D01*
X163539742Y-109620840D01*
X163499354Y-109533603D01*
X163481583Y-109426979D01*
X163507431Y-109307431D01*
X163579321Y-109227464D01*
X163689176Y-109182229D01*
X163756422Y-109171931D01*
X163830533Y-109168498D01*
X163939580Y-109174780D01*
X164027625Y-109193628D01*
X164094669Y-109225040D01*
X164158279Y-109294911D01*
X164179483Y-109391438D01*
X164177868Y-109430210D01*
X164173021Y-109468982D01*
X163807916Y-109468982D01*
X163807916Y-109667690D01*
X164307108Y-109667690D01*
X164336187Y-109557027D01*
X164348304Y-109474031D01*
X164352342Y-109375283D01*
X164344063Y-109286228D01*
X164319225Y-109206462D01*
X164278029Y-109136793D01*
X164220679Y-109078029D01*
X164147173Y-109030775D01*
X164057512Y-108995638D01*
X163951898Y-108973829D01*
X163830533Y-108966559D01*
X163710380Y-108975040D01*
X163605170Y-109000485D01*
X163515307Y-109040468D01*
X163441195Y-109092569D01*
X163383239Y-109155977D01*
X163341842Y-109229887D01*
X163317003Y-109311874D01*
X163308724Y-109399515D01*
X162932849Y-109399515D01*
X162932849Y-107612763D01*
X163202100Y-107612763D01*
X163202100Y-107813086D01*
X164597900Y-107813086D01*
X164597900Y-107612763D01*
X163202100Y-107612763D01*
X162932849Y-107612763D01*
X162932849Y-106079645D01*
X163308724Y-106079645D01*
X163326494Y-106197577D01*
X163379806Y-106297738D01*
X163469467Y-106367205D01*
X163594669Y-106393053D01*
X163694023Y-106373667D01*
X163786914Y-106321971D01*
X163874152Y-106249273D01*
X163954927Y-106166882D01*
X164000969Y-106118417D01*
X164055897Y-106066721D01*
X164113247Y-106025525D01*
X164166559Y-106008562D01*
X164166559Y-106438288D01*
X164331341Y-106438288D01*
X164331341Y-105785622D01*
X164290953Y-105781583D01*
X164257027Y-105782391D01*
X164179483Y-105789863D01*
X164108401Y-105812278D01*
X164043174Y-105846204D01*
X163983199Y-105888207D01*
X163927868Y-105935864D01*
X163876575Y-105986753D01*
X163828312Y-106037641D01*
X163782068Y-106085299D01*
X163694830Y-106161228D01*
X163609208Y-106191115D01*
X163514701Y-106153958D01*
X163481583Y-106060258D01*
X163504200Y-105961712D01*
X163580129Y-105859935D01*
X163441195Y-105761389D01*
X163382229Y-105831058D01*
X163341034Y-105910824D01*
X163316801Y-105995436D01*
X163308724Y-106079645D01*
X162932849Y-106079645D01*
X162932849Y-104956866D01*
X163331341Y-104956866D01*
X163331341Y-105155574D01*
X163725525Y-105155574D01*
X163725525Y-105420517D01*
X163331341Y-105420517D01*
X163331341Y-105619225D01*
X164331341Y-105619225D01*
X164331341Y-105420517D01*
X163890307Y-105420517D01*
X163890307Y-105155574D01*
X164331341Y-105155574D01*
X164331341Y-104956866D01*
X163331341Y-104956866D01*
X162932849Y-104956866D01*
X162932849Y-104573990D01*
X163308724Y-104573990D01*
X163317609Y-104670113D01*
X163337803Y-104745234D01*
X163362036Y-104799354D01*
X163381422Y-104832472D01*
X163539742Y-104780775D01*
X163498546Y-104691115D01*
X163481583Y-104570759D01*
X163498546Y-104479483D01*
X163555089Y-104400323D01*
X163660905Y-104343780D01*
X163735218Y-104327423D01*
X163825687Y-104321971D01*
X163930964Y-104328523D01*
X164018471Y-104348178D01*
X164088207Y-104380937D01*
X164156664Y-104458683D01*
X164179483Y-104573990D01*
X164161712Y-104702423D01*
X164126171Y-104784006D01*
X164282876Y-104834087D01*
X164330533Y-104720194D01*
X164346890Y-104642851D01*
X164352342Y-104554604D01*
X164337264Y-104424645D01*
X164292030Y-104316945D01*
X164216640Y-104231502D01*
X164141620Y-104182734D01*
X164052262Y-104147900D01*
X163948566Y-104126999D01*
X163830533Y-104120032D01*
X163713005Y-104128514D01*
X163609208Y-104153958D01*
X163519750Y-104194548D01*
X163445234Y-104248465D01*
X163386268Y-104314701D01*
X163343457Y-104392246D01*
X163317407Y-104479281D01*
X163308724Y-104573990D01*
X162932849Y-104573990D01*
X162932849Y-102766236D01*
X163202100Y-102766236D01*
X163202100Y-102966559D01*
X164597900Y-102966559D01*
X164597900Y-102766236D01*
X163202100Y-102766236D01*
X162932849Y-102766236D01*
X162932849Y-101171729D01*
X163320032Y-101171729D01*
X163327302Y-101266034D01*
X163349111Y-101351858D01*
X163386470Y-101427181D01*
X163440388Y-101489984D01*
X163511066Y-101540267D01*
X163598708Y-101578029D01*
X163704725Y-101601656D01*
X163830533Y-101609532D01*
X163959168Y-101600848D01*
X164067205Y-101574798D01*
X164155856Y-101533401D01*
X164226333Y-101478675D01*
X164279443Y-101411430D01*
X164315994Y-101332472D01*
X164337197Y-101243417D01*
X164344265Y-101145880D01*
X164338611Y-101041680D01*
X164320032Y-100932633D01*
X163344265Y-100932633D01*
X163324879Y-101060258D01*
X163320032Y-101171729D01*
X162932849Y-101171729D01*
X162932849Y-100111955D01*
X163331341Y-100111955D01*
X163331341Y-100271890D01*
X163405452Y-100317124D01*
X163485622Y-100362359D01*
X163568619Y-100406987D01*
X163651212Y-100450404D01*
X163732391Y-100491599D01*
X163811147Y-100529564D01*
X163883845Y-100563288D01*
X163946850Y-100591761D01*
X163331341Y-100591761D01*
X163331341Y-100771082D01*
X164331341Y-100771082D01*
X164331341Y-100611147D01*
X164220499Y-100564567D01*
X164109837Y-100515293D01*
X163999354Y-100463328D01*
X163888871Y-100408670D01*
X163778209Y-100351319D01*
X163667367Y-100291276D01*
X164331341Y-100291276D01*
X164331341Y-100111955D01*
X163331341Y-100111955D01*
X162932849Y-100111955D01*
X162932849Y-99706462D01*
X163308724Y-99706462D01*
X163317609Y-99810662D01*
X163337803Y-99890630D01*
X163362036Y-99946365D01*
X163381422Y-99979483D01*
X163539742Y-99927787D01*
X163499354Y-99840549D01*
X163481583Y-99733926D01*
X163507431Y-99614378D01*
X163579321Y-99534410D01*
X163689176Y-99489176D01*
X163756422Y-99478877D01*
X163830533Y-99475444D01*
X163939580Y-99481727D01*
X164027625Y-99500574D01*
X164094669Y-99531987D01*
X164158279Y-99601858D01*
X164179483Y-99698384D01*
X164177868Y-99737157D01*
X164173021Y-99775929D01*
X163807916Y-99775929D01*
X163807916Y-99974637D01*
X164307108Y-99974637D01*
X164336187Y-99863974D01*
X164348304Y-99780977D01*
X164352342Y-99682229D01*
X164344063Y-99593174D01*
X164319225Y-99513409D01*
X164278029Y-99443740D01*
X164220679Y-99384976D01*
X164147173Y-99337722D01*
X164057512Y-99302585D01*
X163951898Y-99280775D01*
X163830533Y-99273506D01*
X163710380Y-99281987D01*
X163605170Y-99307431D01*
X163515307Y-99347415D01*
X163441195Y-99399515D01*
X163383239Y-99462924D01*
X163341842Y-99536834D01*
X163317003Y-99618821D01*
X163308724Y-99706462D01*
X162932849Y-99706462D01*
X162932849Y-99273506D01*
X162932849Y-99004254D01*
X162937506Y-98909457D01*
X162951432Y-98815572D01*
X162974494Y-98723505D01*
X163006469Y-98634141D01*
X163047049Y-98548342D01*
X163095843Y-98466934D01*
X163152382Y-98390700D01*
X163216121Y-98320375D01*
X163286446Y-98256636D01*
X163362680Y-98200097D01*
X163444088Y-98151303D01*
X163529887Y-98110723D01*
X163619251Y-98078748D01*
X163711318Y-98055686D01*
X163805203Y-98041760D01*
X163900000Y-98037103D01*
X163994797Y-98041760D01*
X164088682Y-98055686D01*
X164180749Y-98078748D01*
X164270113Y-98110723D01*
X164355912Y-98151303D01*
X164437320Y-98200097D01*
X164513554Y-98256636D01*
X164583879Y-98320375D01*
X164647618Y-98390700D01*
X164704157Y-98466934D01*
X164752951Y-98548342D01*
X164793531Y-98634141D01*
X164825506Y-98723505D01*
X164848568Y-98815572D01*
X164862494Y-98909457D01*
X164867151Y-99004254D01*
X164867151Y-99273506D01*
X164867151Y-99682229D01*
X164867151Y-100611147D01*
G37*
G36*
X164171405Y-67264459D02*
G01*
X164171405Y-67282229D01*
X164145557Y-67396123D01*
X164074475Y-67470436D01*
X163967044Y-67510824D01*
X163901817Y-67519911D01*
X163830533Y-67522940D01*
X163704523Y-67513247D01*
X163596284Y-67479321D01*
X163521163Y-67413086D01*
X163492892Y-67304847D01*
X163493700Y-67275767D01*
X163497738Y-67246688D01*
X164169790Y-67246688D01*
X164171405Y-67264459D01*
G37*
G36*
X164867151Y-66726494D02*
G01*
X164867151Y-67261228D01*
X164867151Y-69081906D01*
X164867151Y-70681260D01*
X164867151Y-71343619D01*
X164867151Y-72212763D01*
X164867151Y-72959128D01*
X164867151Y-73723263D01*
X164867151Y-74211147D01*
X164867151Y-74480398D01*
X164862494Y-74575196D01*
X164848568Y-74669080D01*
X164825506Y-74761148D01*
X164793531Y-74850511D01*
X164752951Y-74936310D01*
X164704157Y-75017719D01*
X164647618Y-75093953D01*
X164583879Y-75164278D01*
X164513554Y-75228017D01*
X164437320Y-75284555D01*
X164355912Y-75333350D01*
X164270113Y-75373930D01*
X164180749Y-75405905D01*
X164088682Y-75428966D01*
X163994797Y-75442893D01*
X163900000Y-75447550D01*
X163805203Y-75442893D01*
X163711318Y-75428966D01*
X163619251Y-75405905D01*
X163529887Y-75373930D01*
X163444088Y-75333350D01*
X163362680Y-75284555D01*
X163286446Y-75228017D01*
X163216121Y-75164278D01*
X163152382Y-75093953D01*
X163095843Y-75017719D01*
X163047049Y-74936310D01*
X163006469Y-74850511D01*
X162974494Y-74761148D01*
X162951432Y-74669080D01*
X162937506Y-74575196D01*
X162932849Y-74480398D01*
X162932849Y-74211147D01*
X162932849Y-73443780D01*
X163331341Y-73443780D01*
X163331341Y-73653796D01*
X163415145Y-73665913D01*
X163511470Y-73682876D01*
X163615670Y-73703271D01*
X163723102Y-73725687D01*
X163831341Y-73749919D01*
X163937964Y-73775767D01*
X164038328Y-73802221D01*
X164127787Y-73828271D01*
X164039540Y-73854120D01*
X163939580Y-73879968D01*
X163832956Y-73905008D01*
X163724717Y-73928433D01*
X163617084Y-73950242D01*
X163512278Y-73970436D01*
X163415347Y-73988207D01*
X163331341Y-74002746D01*
X163331341Y-74211147D01*
X163433926Y-74189540D01*
X163547819Y-74163489D01*
X163670396Y-74133199D01*
X163799031Y-74098869D01*
X163887345Y-74073829D01*
X163976737Y-74047173D01*
X164067205Y-74018901D01*
X164157225Y-73989463D01*
X164245270Y-73959307D01*
X164331341Y-73928433D01*
X164331341Y-73723263D01*
X164212601Y-73683279D01*
X164079321Y-73640872D01*
X163985712Y-73612332D01*
X163892281Y-73584868D01*
X163799031Y-73558481D01*
X163707575Y-73533531D01*
X163619530Y-73510375D01*
X163534895Y-73489015D01*
X163421809Y-73462359D01*
X163331341Y-73443780D01*
X162932849Y-73443780D01*
X162932849Y-72976898D01*
X163308724Y-72976898D01*
X163313974Y-73055452D01*
X163329725Y-73123102D01*
X163388691Y-73225687D01*
X163478352Y-73285460D01*
X163589822Y-73304847D01*
X163704523Y-73270921D01*
X163788530Y-73180452D01*
X163828514Y-73249313D01*
X163883845Y-73300808D01*
X163952908Y-73332916D01*
X164034087Y-73343619D01*
X164161712Y-73321002D01*
X164262682Y-73251535D01*
X164300646Y-73198223D01*
X164328918Y-73131987D01*
X164346486Y-73052423D01*
X164352342Y-72959128D01*
X164346688Y-72880775D01*
X164332956Y-72801616D01*
X164315186Y-72731341D01*
X164297415Y-72681260D01*
X164131018Y-72720032D01*
X164164943Y-72816155D01*
X164178271Y-72880977D01*
X164182714Y-72957512D01*
X164171809Y-73044144D01*
X164139095Y-73100485D01*
X164030856Y-73141680D01*
X163963611Y-73125929D01*
X163920194Y-73078675D01*
X163896567Y-73007189D01*
X163888691Y-72918740D01*
X163888691Y-72857351D01*
X163723910Y-72857351D01*
X163723910Y-72931664D01*
X163717447Y-72993053D01*
X163696446Y-73047981D01*
X163657674Y-73087561D01*
X163596284Y-73102908D01*
X163509855Y-73069790D01*
X163478352Y-72978514D01*
X163496931Y-72866236D01*
X163542973Y-72770113D01*
X163397577Y-72699031D01*
X163338611Y-72814540D01*
X163316195Y-72891074D01*
X163308724Y-72976898D01*
X162932849Y-72976898D01*
X162932849Y-72212763D01*
X164061551Y-72212763D01*
X164098708Y-72312924D01*
X164203716Y-72356543D01*
X164311955Y-72312924D01*
X164349111Y-72212763D01*
X164339418Y-72157835D01*
X164311147Y-72111793D01*
X164265913Y-72079483D01*
X164203716Y-72067367D01*
X164143134Y-72079483D01*
X164098708Y-72111793D01*
X164071244Y-72157835D01*
X164061551Y-72212763D01*
X162932849Y-72212763D01*
X162932849Y-71361389D01*
X163308724Y-71361389D01*
X163313974Y-71439943D01*
X163329725Y-71507593D01*
X163388691Y-71610178D01*
X163478352Y-71669952D01*
X163589822Y-71689338D01*
X163704523Y-71655412D01*
X163788530Y-71564943D01*
X163828514Y-71633805D01*
X163883845Y-71685299D01*
X163952908Y-71717407D01*
X164034087Y-71728110D01*
X164161712Y-71705493D01*
X164262682Y-71636026D01*
X164300646Y-71582714D01*
X164328918Y-71516478D01*
X164346486Y-71436914D01*
X164352342Y-71343619D01*
X164346688Y-71265267D01*
X164332956Y-71186107D01*
X164315186Y-71115832D01*
X164297415Y-71065751D01*
X164131018Y-71104523D01*
X164164943Y-71200646D01*
X164178271Y-71265468D01*
X164182714Y-71342003D01*
X164171809Y-71428635D01*
X164139095Y-71484976D01*
X164030856Y-71526171D01*
X163963611Y-71510420D01*
X163920194Y-71463166D01*
X163896567Y-71391680D01*
X163888691Y-71303231D01*
X163888691Y-71241842D01*
X163723910Y-71241842D01*
X163723910Y-71316155D01*
X163717447Y-71377544D01*
X163696446Y-71432472D01*
X163657674Y-71472052D01*
X163596284Y-71487399D01*
X163509855Y-71454281D01*
X163478352Y-71363005D01*
X163496931Y-71250727D01*
X163542973Y-71154604D01*
X163397577Y-71083522D01*
X163338611Y-71199031D01*
X163316195Y-71275565D01*
X163308724Y-71361389D01*
X162932849Y-71361389D01*
X162932849Y-70510016D01*
X163544588Y-70510016D01*
X163544588Y-70681260D01*
X163825687Y-70681260D01*
X163825687Y-70934895D01*
X163988853Y-70934895D01*
X163988853Y-70681260D01*
X164269952Y-70681260D01*
X164269952Y-70510016D01*
X163988853Y-70510016D01*
X163988853Y-70256381D01*
X163825687Y-70256381D01*
X163825687Y-70510016D01*
X163544588Y-70510016D01*
X162932849Y-70510016D01*
X162932849Y-68881583D01*
X163202100Y-68881583D01*
X163202100Y-69081906D01*
X164597900Y-69081906D01*
X164597900Y-68881583D01*
X163202100Y-68881583D01*
X162932849Y-68881583D01*
X162932849Y-67287076D01*
X163320032Y-67287076D01*
X163327302Y-67381381D01*
X163349111Y-67467205D01*
X163386470Y-67542528D01*
X163440388Y-67605331D01*
X163511066Y-67655614D01*
X163598708Y-67693376D01*
X163704725Y-67717003D01*
X163830533Y-67724879D01*
X163959168Y-67716195D01*
X164067205Y-67690145D01*
X164155856Y-67648748D01*
X164226333Y-67594023D01*
X164279443Y-67526777D01*
X164315994Y-67447819D01*
X164337197Y-67358764D01*
X164344265Y-67261228D01*
X164338611Y-67157027D01*
X164320032Y-67047981D01*
X163344265Y-67047981D01*
X163324879Y-67175606D01*
X163320032Y-67287076D01*
X162932849Y-67287076D01*
X162932849Y-66227302D01*
X163331341Y-66227302D01*
X163331341Y-66387237D01*
X163405452Y-66432472D01*
X163485622Y-66477706D01*
X163568619Y-66522334D01*
X163651212Y-66565751D01*
X163732391Y-66606947D01*
X163811147Y-66644911D01*
X163883845Y-66678635D01*
X163946850Y-66707108D01*
X163331341Y-66707108D01*
X163331341Y-66886430D01*
X164331341Y-66886430D01*
X164331341Y-66726494D01*
X164220499Y-66679914D01*
X164109837Y-66630641D01*
X163999354Y-66578675D01*
X163888871Y-66524017D01*
X163778209Y-66466667D01*
X163667367Y-66406624D01*
X164331341Y-66406624D01*
X164331341Y-66227302D01*
X163331341Y-66227302D01*
X162932849Y-66227302D01*
X162932849Y-65821809D01*
X163308724Y-65821809D01*
X163317609Y-65926010D01*
X163337803Y-66005977D01*
X163362036Y-66061712D01*
X163381422Y-66094830D01*
X163539742Y-66043134D01*
X163499354Y-65955897D01*
X163481583Y-65849273D01*
X163507431Y-65729725D01*
X163579321Y-65649758D01*
X163689176Y-65604523D01*
X163756422Y-65594225D01*
X163830533Y-65590792D01*
X163939580Y-65597074D01*
X164027625Y-65615922D01*
X164094669Y-65647334D01*
X164158279Y-65717205D01*
X164179483Y-65813732D01*
X164177868Y-65852504D01*
X164173021Y-65891276D01*
X163807916Y-65891276D01*
X163807916Y-66089984D01*
X164307108Y-66089984D01*
X164336187Y-65979321D01*
X164348304Y-65896325D01*
X164352342Y-65797577D01*
X164344063Y-65708522D01*
X164319225Y-65628756D01*
X164278029Y-65559087D01*
X164220679Y-65500323D01*
X164147173Y-65453069D01*
X164057512Y-65417932D01*
X163951898Y-65396123D01*
X163830533Y-65388853D01*
X163710380Y-65397334D01*
X163605170Y-65422779D01*
X163515307Y-65462763D01*
X163441195Y-65514863D01*
X163383239Y-65578271D01*
X163341842Y-65652181D01*
X163317003Y-65734168D01*
X163308724Y-65821809D01*
X162932849Y-65821809D01*
X162932849Y-65388853D01*
X162932849Y-65119602D01*
X162937506Y-65024804D01*
X162951432Y-64930920D01*
X162974494Y-64838852D01*
X163006469Y-64749489D01*
X163047049Y-64663690D01*
X163095843Y-64582281D01*
X163152382Y-64506047D01*
X163216121Y-64435722D01*
X163286446Y-64371983D01*
X163362680Y-64315445D01*
X163444088Y-64266650D01*
X163529887Y-64226070D01*
X163619251Y-64194095D01*
X163711318Y-64171034D01*
X163805203Y-64157107D01*
X163900000Y-64152450D01*
X163994797Y-64157107D01*
X164088682Y-64171034D01*
X164180749Y-64194095D01*
X164270113Y-64226070D01*
X164355912Y-64266650D01*
X164437320Y-64315445D01*
X164513554Y-64371983D01*
X164583879Y-64435722D01*
X164647618Y-64506047D01*
X164704157Y-64582281D01*
X164752951Y-64663690D01*
X164793531Y-64749489D01*
X164825506Y-64838852D01*
X164848568Y-64930920D01*
X164862494Y-65024804D01*
X164867151Y-65119602D01*
X164867151Y-65388853D01*
X164867151Y-65797577D01*
X164867151Y-66726494D01*
G37*
%LPC*%
D13*
X141100000Y-148800000D03*
D14*
X167100000Y-59800000D03*
X167100000Y-148800000D03*
X111100000Y-148800000D03*
D15*
X167100000Y-72200000D03*
D16*
X167100000Y-66800000D03*
D17*
X167100000Y-116800000D03*
D18*
X167100000Y-110800000D03*
X167100000Y-104800000D03*
X167100000Y-98800000D03*
D13*
X155100000Y-148800000D03*
D19*
X167100000Y-90000000D03*
D20*
X167100000Y-85400000D03*
X167100000Y-80800000D03*
D21*
X155057500Y-138300000D03*
D22*
X148307500Y-138300000D03*
D23*
X113807500Y-62300000D03*
X119307500Y-62300000D03*
%LPD*%
M02*
