M48
; DRILL file {KiCad 8.0.6} date 2025-04-03T20:59:10+0200
; FORMAT={-:-/ absolute / metric / decimal}
; #@! TF.CreationDate,2025-04-03T20:59:10+02:00
; #@! TF.GenerationSoftware,Kicad,Pcbnew,8.0.6
; #@! TF.FileFunction,Plated,1,2,PTH
FMAT,2
METRIC
; #@! TA.AperFunction,Plated,PTH,ViaDrill
T1C0.300
; #@! TA.AperFunction,Plated,PTH,ComponentDrill
T2C0.300
; #@! TA.AperFunction,Plated,PTH,ComponentDrill
T3C1.100
; #@! TA.AperFunction,Plated,PTH,ComponentDrill
T4C1.200
; #@! TA.AperFunction,Plated,PTH,ComponentDrill
T5C1.750
; #@! TA.AperFunction,Plated,PTH,ComponentDrill
T6C2.100
; #@! TA.AperFunction,Plated,PTH,ComponentDrill
T7C2.200
%
G90
G05
T1
X109.2Y-57.2
X109.2Y-62.2
X109.2Y-67.2
X109.2Y-72.2
X109.2Y-77.2
X109.2Y-82.2
X109.2Y-87.2
X109.2Y-92.2
X109.2Y-97.2
X109.2Y-102.2
X109.2Y-107.2
X109.2Y-112.2
X109.2Y-117.2
X109.2Y-122.2
X114.2Y-57.2
X114.2Y-82.2
X114.2Y-87.2
X114.2Y-92.2
X114.2Y-97.2
X114.2Y-102.2
X114.2Y-107.2
X114.2Y-112.2
X114.2Y-117.2
X114.2Y-122.2
X119.2Y-57.2
X119.2Y-67.2
X119.2Y-72.2
X119.2Y-82.2
X119.2Y-87.2
X119.2Y-92.2
X119.2Y-97.2
X119.2Y-102.2
X119.2Y-107.2
X119.2Y-112.2
X119.2Y-117.2
X119.2Y-122.2
X123.8Y-72.1
X124.2Y-57.2
X124.2Y-62.2
X128.8Y-61.3
X129.2Y-57.2
X129.2Y-77.2
X129.2Y-82.2
X129.2Y-87.2
X129.2Y-92.2
X129.2Y-107.2
X129.2Y-112.2
X129.9Y-70.6
X134.2Y-57.2
X134.2Y-77.2
X134.2Y-82.2
X134.2Y-87.2
X134.2Y-107.2
X137.0Y-68.8
X138.5Y-63.0
X139.2Y-57.2
X139.2Y-68.8
X139.2Y-82.2
X140.0Y-65.9
X140.1Y-114.6
X141.5Y-102.8
X141.6Y-99.8
X141.8Y-92.7
X141.8Y-95.7
X142.0Y-121.9
X142.2Y-115.5
X142.2Y-118.0
X144.2Y-57.2
X144.2Y-67.2
X144.2Y-82.2
X144.7Y-114.6
X145.7Y-97.7
X146.0Y-92.4
X146.1Y-119.776
X148.0Y-96.6
X149.0Y-118.6
X149.2Y-57.2
X149.2Y-67.2
X149.2Y-87.2
X149.2Y-112.2
X149.5Y-124.4
X153.6Y-99.6
X154.2Y-57.2
X154.2Y-67.2
X154.2Y-77.2
X154.2Y-112.2
X154.2Y-122.2
X158.7Y-96.0
X159.2Y-57.2
X159.2Y-62.2
X159.2Y-67.2
X159.2Y-77.2
X159.2Y-82.2
X164.2Y-62.2
X164.2Y-67.2
X164.2Y-77.2
X164.2Y-122.2
X169.2Y-77.2
X169.2Y-122.2
T2
X132.65Y-62.25
X132.65Y-63.55
X132.65Y-64.85
X133.95Y-62.25
X133.95Y-63.55
X133.95Y-64.85
T3
X167.1Y-80.8
X167.1Y-85.4
X167.1Y-90.0
T4
X148.308Y-138.3
X155.058Y-138.3
T5
X167.1Y-66.8
X167.1Y-72.2
T6
X141.1Y-148.8
X155.1Y-148.8
X167.1Y-98.8
X167.1Y-104.8
X167.1Y-110.8
X167.1Y-116.8
T7
X113.807Y-62.3
X119.307Y-62.3
M30
