G04 #@! TF.GenerationSoftware,KiCad,Pcbnew,8.0.6*
G04 #@! TF.CreationDate,2025-04-03T20:59:00+02:00*
G04 #@! TF.ProjectId,UV-Lamp,55562d4c-616d-4702-9e6b-696361645f70,v2.0*
G04 #@! TF.SameCoordinates,Original*
G04 #@! TF.FileFunction,Copper,L2,Bot*
G04 #@! TF.FilePolarity,Positive*
%FSLAX46Y46*%
G04 Gerber Fmt 4.6, Leading zero omitted, Abs format (unit mm)*
G04 Created by KiCad (PCBNEW 8.0.6) date 2025-04-03 20:59:00*
%MOMM*%
%LPD*%
G01*
G04 APERTURE LIST*
G04 Aperture macros list*
%AMRoundRect*
0 Rectangle with rounded corners*
0 $1 Rounding radius*
0 $2 $3 $4 $5 $6 $7 $8 $9 X,Y pos of 4 corners*
0 Add a 4 corners polygon primitive as box body*
4,1,4,$2,$3,$4,$5,$6,$7,$8,$9,$2,$3,0*
0 Add four circle primitives for the rounded corners*
1,1,$1+$1,$2,$3*
1,1,$1+$1,$4,$5*
1,1,$1+$1,$6,$7*
1,1,$1+$1,$8,$9*
0 Add four rect primitives between the rounded corners*
20,1,$1+$1,$2,$3,$4,$5,0*
20,1,$1+$1,$4,$5,$6,$7,0*
20,1,$1+$1,$6,$7,$8,$9,0*
20,1,$1+$1,$8,$9,$2,$3,0*%
G04 Aperture macros list end*
G04 #@! TA.AperFunction,ComponentPad*
%ADD10RoundRect,0.250002X-1.699998X-1.699998X1.699998X-1.699998X1.699998X1.699998X-1.699998X1.699998X0*%
G04 #@! TD*
G04 #@! TA.AperFunction,HeatsinkPad*
%ADD11C,0.600000*%
G04 #@! TD*
G04 #@! TA.AperFunction,HeatsinkPad*
%ADD12R,1.800000X3.100000*%
G04 #@! TD*
G04 #@! TA.AperFunction,ComponentPad*
%ADD13RoundRect,0.250000X1.125000X-1.125000X1.125000X1.125000X-1.125000X1.125000X-1.125000X-1.125000X0*%
G04 #@! TD*
G04 #@! TA.AperFunction,ComponentPad*
%ADD14C,2.750000*%
G04 #@! TD*
G04 #@! TA.AperFunction,ComponentPad*
%ADD15RoundRect,0.249999X1.300001X-1.300001X1.300001X1.300001X-1.300001X1.300001X-1.300001X-1.300001X0*%
G04 #@! TD*
G04 #@! TA.AperFunction,ComponentPad*
%ADD16C,3.100000*%
G04 #@! TD*
G04 #@! TA.AperFunction,ComponentPad*
%ADD17RoundRect,0.250001X0.799999X-0.799999X0.799999X0.799999X-0.799999X0.799999X-0.799999X-0.799999X0*%
G04 #@! TD*
G04 #@! TA.AperFunction,ComponentPad*
%ADD18C,2.100000*%
G04 #@! TD*
G04 #@! TA.AperFunction,ComponentPad*
%ADD19R,2.500000X2.500000*%
G04 #@! TD*
G04 #@! TA.AperFunction,ComponentPad*
%ADD20C,2.500000*%
G04 #@! TD*
G04 #@! TA.AperFunction,ComponentPad*
%ADD21C,4.000000*%
G04 #@! TD*
G04 #@! TA.AperFunction,ViaPad*
%ADD22C,0.600000*%
G04 #@! TD*
G04 #@! TA.AperFunction,Conductor*
%ADD23C,0.300000*%
G04 #@! TD*
G04 #@! TA.AperFunction,Conductor*
%ADD24C,0.200000*%
G04 #@! TD*
G04 APERTURE END LIST*
D10*
X141100000Y-148800000D03*
D11*
X132650000Y-62250000D03*
X132650000Y-63550000D03*
X132650000Y-64850000D03*
D12*
X133300000Y-63550000D03*
D11*
X133950000Y-62250000D03*
X133950000Y-63550000D03*
X133950000Y-64850000D03*
D13*
X167100000Y-72200000D03*
D14*
X167100000Y-66800000D03*
D15*
X167100000Y-116800000D03*
D16*
X167100000Y-110800000D03*
X167100000Y-104800000D03*
X167100000Y-98800000D03*
D10*
X155100000Y-148800000D03*
D17*
X167100000Y-90000000D03*
D18*
X167100000Y-85400000D03*
X167100000Y-80800000D03*
D19*
X155057500Y-138300000D03*
D20*
X148307500Y-138300000D03*
D21*
X113807500Y-62300000D03*
X119307500Y-62300000D03*
D22*
X144200000Y-82200000D03*
X123800000Y-72100000D03*
X154200000Y-77200000D03*
X119200000Y-57200000D03*
X119200000Y-112200000D03*
X149200000Y-57200000D03*
X154200000Y-122200000D03*
X109200000Y-122200000D03*
X149200000Y-87200000D03*
X142200000Y-115500000D03*
X140100000Y-114600000D03*
X149200000Y-67200000D03*
X154200000Y-67200000D03*
X159200000Y-82200000D03*
X141500000Y-102800000D03*
X109200000Y-92200000D03*
X129200000Y-82200000D03*
X138500000Y-63000000D03*
X128800000Y-61300000D03*
X114200000Y-92200000D03*
X124200000Y-62200000D03*
X149200000Y-112200000D03*
X158700000Y-96000000D03*
X119200000Y-97200000D03*
X139200000Y-57200000D03*
X114200000Y-117200000D03*
X109200000Y-67200000D03*
X109200000Y-57200000D03*
X159200000Y-77200000D03*
X134200000Y-107200000D03*
X119200000Y-82200000D03*
X149000000Y-118600000D03*
X129200000Y-57200000D03*
X154200000Y-112200000D03*
X109200000Y-117200000D03*
X119200000Y-92200000D03*
X141800000Y-92700000D03*
X114200000Y-102200000D03*
X140000000Y-65900000D03*
X144700000Y-114600000D03*
X114200000Y-122200000D03*
X109200000Y-72200000D03*
X159200000Y-62200000D03*
X114200000Y-112200000D03*
X134200000Y-77200000D03*
X109200000Y-102200000D03*
X129200000Y-87200000D03*
X109200000Y-107200000D03*
X144200000Y-57200000D03*
X169200000Y-77200000D03*
X159200000Y-67200000D03*
X134200000Y-57200000D03*
X129200000Y-107200000D03*
X114200000Y-107200000D03*
X114200000Y-97200000D03*
X114200000Y-87200000D03*
X169200000Y-122200000D03*
X114200000Y-82200000D03*
X154200000Y-57200000D03*
X164200000Y-67200000D03*
X142000000Y-121900000D03*
X134200000Y-82200000D03*
X142200000Y-118000000D03*
X109200000Y-97200000D03*
X119200000Y-122200000D03*
X141800000Y-95700000D03*
X146000000Y-92400000D03*
X124200000Y-57200000D03*
X109200000Y-62200000D03*
X109200000Y-87200000D03*
X119200000Y-107200000D03*
X153600000Y-99600000D03*
X119200000Y-117200000D03*
X109200000Y-77200000D03*
X114200000Y-57200000D03*
X164200000Y-62200000D03*
X119200000Y-102200000D03*
X119200000Y-67200000D03*
X141600000Y-99800000D03*
X109200000Y-112200000D03*
X148000000Y-96600000D03*
X119200000Y-87200000D03*
X159200000Y-57200000D03*
X129200000Y-112200000D03*
X134200000Y-87200000D03*
X129200000Y-92200000D03*
X164200000Y-77200000D03*
X139200000Y-82200000D03*
X144200000Y-67200000D03*
X119200000Y-72200000D03*
X109200000Y-82200000D03*
X129200000Y-77200000D03*
X164200000Y-122200000D03*
X129900000Y-70600000D03*
X139200000Y-68800000D03*
X137000000Y-68800000D03*
X145700000Y-97700000D03*
X146099968Y-119775645D03*
X149500000Y-124400000D03*
D23*
X137000000Y-68800000D02*
X139200000Y-68800000D01*
D24*
X145700000Y-97700000D02*
X154800000Y-97700000D01*
X154800000Y-97700000D02*
X167100000Y-85400000D01*
X146099968Y-119775645D02*
X146099968Y-111000032D01*
X146099968Y-111000032D02*
X167100000Y-90000000D01*
D23*
X149500000Y-124400000D02*
X157100000Y-116800000D01*
X157100000Y-116800000D02*
X167100000Y-116800000D01*
G04 #@! TA.AperFunction,Conductor*
G36*
X170525000Y-56320462D02*
G01*
X170579538Y-56375000D01*
X170599500Y-56449500D01*
X170599500Y-125051000D01*
X170579538Y-125125500D01*
X170525000Y-125180038D01*
X170450500Y-125200000D01*
X149881799Y-125200000D01*
X149807299Y-125180038D01*
X149752761Y-125125500D01*
X149732799Y-125051000D01*
X149752761Y-124976500D01*
X149796693Y-124932566D01*
X149795093Y-124930481D01*
X149802841Y-124924536D01*
X149928282Y-124828282D01*
X150024536Y-124702841D01*
X150085044Y-124556762D01*
X150094316Y-124486328D01*
X150123830Y-124415074D01*
X150136674Y-124400427D01*
X157242962Y-117294141D01*
X157309757Y-117255577D01*
X157348321Y-117250500D01*
X165100501Y-117250500D01*
X165175001Y-117270462D01*
X165229539Y-117325000D01*
X165249501Y-117399500D01*
X165249501Y-118143108D01*
X165260122Y-118231560D01*
X165260124Y-118231569D01*
X165315638Y-118372342D01*
X165315639Y-118372343D01*
X165407077Y-118492923D01*
X165527657Y-118584361D01*
X165668435Y-118639877D01*
X165756897Y-118650500D01*
X168443102Y-118650499D01*
X168531565Y-118639877D01*
X168672343Y-118584361D01*
X168792923Y-118492923D01*
X168884361Y-118372343D01*
X168939877Y-118231565D01*
X168950500Y-118143103D01*
X168950499Y-115456898D01*
X168939877Y-115368435D01*
X168884361Y-115227657D01*
X168792923Y-115107077D01*
X168672343Y-115015639D01*
X168672341Y-115015638D01*
X168672342Y-115015638D01*
X168531564Y-114960122D01*
X168443103Y-114949500D01*
X165756902Y-114949500D01*
X165756891Y-114949501D01*
X165668439Y-114960122D01*
X165668430Y-114960124D01*
X165527657Y-115015638D01*
X165407077Y-115107076D01*
X165407076Y-115107077D01*
X165315638Y-115227657D01*
X165260122Y-115368435D01*
X165249500Y-115456893D01*
X165249500Y-116200500D01*
X165229538Y-116275000D01*
X165175000Y-116329538D01*
X165100500Y-116349500D01*
X157040687Y-116349500D01*
X156950326Y-116373712D01*
X156950326Y-116373713D01*
X156926113Y-116380201D01*
X156823389Y-116439508D01*
X156823388Y-116439509D01*
X149499578Y-123763317D01*
X149432783Y-123801881D01*
X149413669Y-123805683D01*
X149343237Y-123814956D01*
X149197159Y-123875463D01*
X149071718Y-123971717D01*
X149071717Y-123971718D01*
X148975463Y-124097159D01*
X148914954Y-124243242D01*
X148894318Y-124399997D01*
X148894318Y-124400002D01*
X148914954Y-124556757D01*
X148975463Y-124702840D01*
X149071717Y-124828281D01*
X149071718Y-124828282D01*
X149204907Y-124930481D01*
X149203306Y-124932566D01*
X149247241Y-124976504D01*
X149267201Y-125051005D01*
X149247236Y-125125504D01*
X149192697Y-125180040D01*
X149118201Y-125200000D01*
X107749500Y-125200000D01*
X107675000Y-125180038D01*
X107620462Y-125125500D01*
X107600500Y-125051000D01*
X107600500Y-119775642D01*
X145494286Y-119775642D01*
X145494286Y-119775647D01*
X145514922Y-119932402D01*
X145575431Y-120078485D01*
X145575432Y-120078486D01*
X145671686Y-120203927D01*
X145797127Y-120300181D01*
X145943206Y-120360689D01*
X145943209Y-120360689D01*
X145943211Y-120360690D01*
X145943208Y-120360690D01*
X146099965Y-120381327D01*
X146099968Y-120381327D01*
X146099971Y-120381327D01*
X146256725Y-120360690D01*
X146256726Y-120360689D01*
X146256730Y-120360689D01*
X146402809Y-120300181D01*
X146528250Y-120203927D01*
X146624504Y-120078486D01*
X146685012Y-119932407D01*
X146705650Y-119775645D01*
X146685012Y-119618883D01*
X146624504Y-119472804D01*
X146531258Y-119351282D01*
X146501743Y-119280024D01*
X146500468Y-119260577D01*
X146500468Y-111227642D01*
X146520430Y-111153142D01*
X146544105Y-111122287D01*
X146866392Y-110800000D01*
X165045210Y-110800000D01*
X165064348Y-111079792D01*
X165064349Y-111079795D01*
X165121407Y-111354374D01*
X165215323Y-111618630D01*
X165344349Y-111867638D01*
X165482745Y-112063700D01*
X166201377Y-111345067D01*
X166284411Y-111469336D01*
X166430664Y-111615589D01*
X166554930Y-111698621D01*
X165837741Y-112415810D01*
X165915040Y-112478700D01*
X166154666Y-112624419D01*
X166411891Y-112736146D01*
X166681944Y-112811812D01*
X166681942Y-112811812D01*
X166959777Y-112850000D01*
X167240223Y-112850000D01*
X167518056Y-112811812D01*
X167788108Y-112736146D01*
X168045332Y-112624419D01*
X168045333Y-112624419D01*
X168284958Y-112478700D01*
X168362257Y-112415811D01*
X167645068Y-111698621D01*
X167769336Y-111615589D01*
X167915589Y-111469336D01*
X167998621Y-111345068D01*
X168717254Y-112063701D01*
X168855645Y-111867646D01*
X168855649Y-111867639D01*
X168984676Y-111618630D01*
X169078592Y-111354374D01*
X169135650Y-111079795D01*
X169135651Y-111079792D01*
X169154789Y-110800000D01*
X169135651Y-110520207D01*
X169135650Y-110520204D01*
X169078592Y-110245625D01*
X168984676Y-109981369D01*
X168855650Y-109732361D01*
X168717253Y-109536298D01*
X167998621Y-110254930D01*
X167915589Y-110130664D01*
X167769336Y-109984411D01*
X167645067Y-109901377D01*
X168362258Y-109184188D01*
X168362257Y-109184187D01*
X168284961Y-109121301D01*
X168284957Y-109121298D01*
X168045333Y-108975580D01*
X167788108Y-108863853D01*
X167518055Y-108788187D01*
X167518057Y-108788187D01*
X167240223Y-108750000D01*
X166959777Y-108750000D01*
X166681943Y-108788187D01*
X166411891Y-108863853D01*
X166154667Y-108975580D01*
X166154666Y-108975580D01*
X165915042Y-109121298D01*
X165915040Y-109121300D01*
X165837741Y-109184187D01*
X165837741Y-109184188D01*
X166554931Y-109901378D01*
X166430664Y-109984411D01*
X166284411Y-110130664D01*
X166201378Y-110254931D01*
X165482744Y-109536297D01*
X165344349Y-109732361D01*
X165215323Y-109981369D01*
X165121407Y-110245625D01*
X165064349Y-110520204D01*
X165064348Y-110520207D01*
X165045210Y-110800000D01*
X146866392Y-110800000D01*
X152866397Y-104799994D01*
X165244773Y-104799994D01*
X165244773Y-104800005D01*
X165263655Y-105064012D01*
X165263657Y-105064028D01*
X165319921Y-105322672D01*
X165319922Y-105322676D01*
X165319923Y-105322678D01*
X165412426Y-105570689D01*
X165412427Y-105570690D01*
X165539281Y-105803008D01*
X165634888Y-105930724D01*
X165697913Y-106014915D01*
X165885085Y-106202087D01*
X166011846Y-106296979D01*
X166096991Y-106360718D01*
X166213150Y-106424145D01*
X166329311Y-106487574D01*
X166577322Y-106580077D01*
X166835974Y-106636343D01*
X166835985Y-106636343D01*
X166835987Y-106636344D01*
X167099995Y-106655227D01*
X167100000Y-106655227D01*
X167100005Y-106655227D01*
X167364012Y-106636344D01*
X167364011Y-106636344D01*
X167364026Y-106636343D01*
X167622678Y-106580077D01*
X167870689Y-106487574D01*
X168056710Y-106385998D01*
X168103008Y-106360718D01*
X168103011Y-106360716D01*
X168314915Y-106202087D01*
X168502087Y-106014915D01*
X168660716Y-105803011D01*
X168787574Y-105570689D01*
X168880077Y-105322678D01*
X168936343Y-105064026D01*
X168955227Y-104800000D01*
X168936343Y-104535974D01*
X168880077Y-104277322D01*
X168787574Y-104029311D01*
X168724145Y-103913150D01*
X168660718Y-103796991D01*
X168596979Y-103711846D01*
X168502087Y-103585085D01*
X168314915Y-103397913D01*
X168230724Y-103334888D01*
X168103008Y-103239281D01*
X167928769Y-103144140D01*
X167870689Y-103112426D01*
X167622678Y-103019923D01*
X167622676Y-103019922D01*
X167622672Y-103019921D01*
X167364028Y-102963657D01*
X167364012Y-102963655D01*
X167100005Y-102944773D01*
X167099995Y-102944773D01*
X166835987Y-102963655D01*
X166835971Y-102963657D01*
X166577327Y-103019921D01*
X166577322Y-103019923D01*
X166329311Y-103112426D01*
X166329309Y-103112426D01*
X166329309Y-103112427D01*
X166096991Y-103239281D01*
X165885086Y-103397912D01*
X165697912Y-103585086D01*
X165539281Y-103796991D01*
X165412427Y-104029309D01*
X165319921Y-104277327D01*
X165263657Y-104535971D01*
X165263655Y-104535987D01*
X165244773Y-104799994D01*
X152866397Y-104799994D01*
X158866391Y-98800000D01*
X165045210Y-98800000D01*
X165064348Y-99079792D01*
X165064349Y-99079795D01*
X165121407Y-99354374D01*
X165215323Y-99618630D01*
X165344349Y-99867638D01*
X165482745Y-100063700D01*
X166201377Y-99345067D01*
X166284411Y-99469336D01*
X166430664Y-99615589D01*
X166554930Y-99698621D01*
X165837741Y-100415810D01*
X165915040Y-100478700D01*
X166154666Y-100624419D01*
X166411891Y-100736146D01*
X166681944Y-100811812D01*
X166681942Y-100811812D01*
X166959777Y-100850000D01*
X167240223Y-100850000D01*
X167518056Y-100811812D01*
X167788108Y-100736146D01*
X168045332Y-100624419D01*
X168045333Y-100624419D01*
X168284958Y-100478700D01*
X168362257Y-100415811D01*
X167645068Y-99698621D01*
X167769336Y-99615589D01*
X167915589Y-99469336D01*
X167998621Y-99345068D01*
X168717254Y-100063701D01*
X168855645Y-99867646D01*
X168855649Y-99867639D01*
X168984676Y-99618630D01*
X169078592Y-99354374D01*
X169135650Y-99079795D01*
X169135651Y-99079792D01*
X169154789Y-98800000D01*
X169135651Y-98520207D01*
X169135650Y-98520204D01*
X169078592Y-98245625D01*
X168984676Y-97981369D01*
X168855650Y-97732361D01*
X168717253Y-97536298D01*
X167998621Y-98254930D01*
X167915589Y-98130664D01*
X167769336Y-97984411D01*
X167645067Y-97901377D01*
X168362258Y-97184188D01*
X168362257Y-97184187D01*
X168284961Y-97121301D01*
X168284957Y-97121298D01*
X168045333Y-96975580D01*
X167788108Y-96863853D01*
X167518055Y-96788187D01*
X167518057Y-96788187D01*
X167240223Y-96750000D01*
X166959777Y-96750000D01*
X166681943Y-96788187D01*
X166411891Y-96863853D01*
X166154667Y-96975580D01*
X166154666Y-96975580D01*
X165915042Y-97121298D01*
X165915040Y-97121300D01*
X165837741Y-97184187D01*
X165837741Y-97184188D01*
X166554931Y-97901378D01*
X166430664Y-97984411D01*
X166284411Y-98130664D01*
X166201378Y-98254931D01*
X165482744Y-97536297D01*
X165344349Y-97732361D01*
X165215323Y-97981369D01*
X165121407Y-98245625D01*
X165064349Y-98520204D01*
X165064348Y-98520207D01*
X165045210Y-98800000D01*
X158866391Y-98800000D01*
X166272252Y-91394139D01*
X166339047Y-91355576D01*
X166377611Y-91350499D01*
X167943095Y-91350499D01*
X167943098Y-91350499D01*
X168031564Y-91339876D01*
X168172342Y-91284361D01*
X168292922Y-91192922D01*
X168384361Y-91072342D01*
X168439876Y-90931564D01*
X168450500Y-90843099D01*
X168450499Y-89156902D01*
X168439876Y-89068436D01*
X168384361Y-88927658D01*
X168292922Y-88807078D01*
X168292920Y-88807076D01*
X168234638Y-88762879D01*
X168172342Y-88715639D01*
X168172340Y-88715638D01*
X168031565Y-88660124D01*
X168031560Y-88660123D01*
X167959704Y-88651494D01*
X167943099Y-88649500D01*
X167943098Y-88649500D01*
X166256905Y-88649500D01*
X166256899Y-88649501D01*
X166168439Y-88660123D01*
X166168432Y-88660125D01*
X166027660Y-88715638D01*
X166027658Y-88715638D01*
X165907079Y-88807076D01*
X165907076Y-88807079D01*
X165815638Y-88927658D01*
X165815638Y-88927660D01*
X165760124Y-89068434D01*
X165760123Y-89068439D01*
X165749500Y-89156900D01*
X165749500Y-90722388D01*
X165729538Y-90796888D01*
X165705859Y-90827747D01*
X145779486Y-110754121D01*
X145779485Y-110754122D01*
X145726761Y-110845442D01*
X145726762Y-110845442D01*
X145726761Y-110845445D01*
X145699468Y-110947301D01*
X145699468Y-119260577D01*
X145679506Y-119335077D01*
X145668678Y-119351282D01*
X145575431Y-119472804D01*
X145514922Y-119618887D01*
X145494286Y-119775642D01*
X107600500Y-119775642D01*
X107600500Y-97699997D01*
X145094318Y-97699997D01*
X145094318Y-97700002D01*
X145114954Y-97856757D01*
X145175463Y-98002840D01*
X145251379Y-98101775D01*
X145271718Y-98128282D01*
X145397159Y-98224536D01*
X145543238Y-98285044D01*
X145543241Y-98285044D01*
X145543243Y-98285045D01*
X145543240Y-98285045D01*
X145699997Y-98305682D01*
X145700000Y-98305682D01*
X145700003Y-98305682D01*
X145856757Y-98285045D01*
X145856758Y-98285044D01*
X145856762Y-98285044D01*
X146002841Y-98224536D01*
X146124362Y-98131290D01*
X146195619Y-98101775D01*
X146215067Y-98100500D01*
X154852725Y-98100500D01*
X154852727Y-98100500D01*
X154954588Y-98073207D01*
X155045913Y-98020480D01*
X166396265Y-86670126D01*
X166463058Y-86631564D01*
X166540186Y-86631564D01*
X166564593Y-86640448D01*
X166636332Y-86673901D01*
X166636333Y-86673901D01*
X166636337Y-86673903D01*
X166864592Y-86735063D01*
X167100000Y-86755659D01*
X167335408Y-86735063D01*
X167563663Y-86673903D01*
X167777830Y-86574035D01*
X167971401Y-86438495D01*
X168138495Y-86271401D01*
X168274035Y-86077830D01*
X168373903Y-85863663D01*
X168435063Y-85635408D01*
X168455659Y-85400000D01*
X168435063Y-85164592D01*
X168373903Y-84936337D01*
X168274035Y-84722171D01*
X168138495Y-84528599D01*
X167971401Y-84361505D01*
X167777830Y-84225965D01*
X167563663Y-84126097D01*
X167563661Y-84126096D01*
X167335409Y-84064937D01*
X167100000Y-84044341D01*
X166864590Y-84064937D01*
X166636340Y-84126096D01*
X166636339Y-84126096D01*
X166636337Y-84126097D01*
X166422171Y-84225965D01*
X166422168Y-84225966D01*
X166422168Y-84225967D01*
X166228596Y-84361507D01*
X166061507Y-84528596D01*
X166061505Y-84528599D01*
X165925965Y-84722171D01*
X165826097Y-84936337D01*
X165826096Y-84936340D01*
X165764937Y-85164590D01*
X165744341Y-85400000D01*
X165764937Y-85635409D01*
X165826096Y-85863661D01*
X165826099Y-85863668D01*
X165859551Y-85935407D01*
X165872944Y-86011363D01*
X165846564Y-86083840D01*
X165829870Y-86103735D01*
X154677748Y-97255859D01*
X154610953Y-97294423D01*
X154572389Y-97299500D01*
X146215067Y-97299500D01*
X146140567Y-97279538D01*
X146124362Y-97268710D01*
X146002840Y-97175463D01*
X145922944Y-97142369D01*
X145856762Y-97114956D01*
X145856760Y-97114955D01*
X145856756Y-97114954D01*
X145856759Y-97114954D01*
X145700003Y-97094318D01*
X145699997Y-97094318D01*
X145543242Y-97114954D01*
X145397159Y-97175463D01*
X145271718Y-97271717D01*
X145271717Y-97271718D01*
X145175463Y-97397159D01*
X145114954Y-97543242D01*
X145094318Y-97699997D01*
X107600500Y-97699997D01*
X107600500Y-80800000D01*
X165545207Y-80800000D01*
X165564349Y-81043226D01*
X165564350Y-81043230D01*
X165621305Y-81280459D01*
X165714667Y-81505858D01*
X165714670Y-81505863D01*
X165838503Y-81707941D01*
X166576211Y-80970232D01*
X166587482Y-81012292D01*
X166659890Y-81137708D01*
X166762292Y-81240110D01*
X166887708Y-81312518D01*
X166929765Y-81323787D01*
X166192058Y-82061494D01*
X166394142Y-82185332D01*
X166394141Y-82185332D01*
X166619540Y-82278694D01*
X166856769Y-82335649D01*
X166856773Y-82335650D01*
X167100000Y-82354792D01*
X167343226Y-82335650D01*
X167343230Y-82335649D01*
X167580459Y-82278694D01*
X167805858Y-82185332D01*
X168007941Y-82061495D01*
X167270234Y-81323787D01*
X167312292Y-81312518D01*
X167437708Y-81240110D01*
X167540110Y-81137708D01*
X167612518Y-81012292D01*
X167623787Y-80970233D01*
X168361495Y-81707941D01*
X168485332Y-81505858D01*
X168578694Y-81280459D01*
X168635649Y-81043230D01*
X168635650Y-81043226D01*
X168654792Y-80800000D01*
X168635650Y-80556773D01*
X168635649Y-80556769D01*
X168578694Y-80319540D01*
X168485332Y-80094141D01*
X168361494Y-79892058D01*
X167623787Y-80629764D01*
X167612518Y-80587708D01*
X167540110Y-80462292D01*
X167437708Y-80359890D01*
X167312292Y-80287482D01*
X167270232Y-80276211D01*
X168007941Y-79538503D01*
X167805863Y-79414670D01*
X167805858Y-79414667D01*
X167580459Y-79321305D01*
X167343230Y-79264350D01*
X167343226Y-79264349D01*
X167100000Y-79245207D01*
X166856773Y-79264349D01*
X166856769Y-79264350D01*
X166619540Y-79321305D01*
X166394141Y-79414667D01*
X166394136Y-79414670D01*
X166192057Y-79538503D01*
X166929766Y-80276212D01*
X166887708Y-80287482D01*
X166762292Y-80359890D01*
X166659890Y-80462292D01*
X166587482Y-80587708D01*
X166576212Y-80629766D01*
X165838503Y-79892057D01*
X165714670Y-80094136D01*
X165714667Y-80094141D01*
X165621305Y-80319540D01*
X165564350Y-80556769D01*
X165564349Y-80556773D01*
X165545207Y-80800000D01*
X107600500Y-80800000D01*
X107600500Y-71031894D01*
X165424500Y-71031894D01*
X165424500Y-73368105D01*
X165435122Y-73456563D01*
X165490638Y-73597341D01*
X165490639Y-73597342D01*
X165582078Y-73717922D01*
X165702658Y-73809361D01*
X165843436Y-73864877D01*
X165931898Y-73875500D01*
X165931899Y-73875500D01*
X168268101Y-73875500D01*
X168268102Y-73875500D01*
X168356564Y-73864877D01*
X168497342Y-73809361D01*
X168617922Y-73717922D01*
X168709361Y-73597342D01*
X168764877Y-73456564D01*
X168775500Y-73368102D01*
X168775500Y-71031898D01*
X168764877Y-70943436D01*
X168709361Y-70802658D01*
X168617922Y-70682078D01*
X168617920Y-70682076D01*
X168570982Y-70646482D01*
X168497342Y-70590639D01*
X168497341Y-70590638D01*
X168356563Y-70535122D01*
X168268105Y-70524500D01*
X168268102Y-70524500D01*
X165931898Y-70524500D01*
X165931894Y-70524500D01*
X165843436Y-70535122D01*
X165702658Y-70590638D01*
X165702658Y-70590639D01*
X165582079Y-70682076D01*
X165582076Y-70682079D01*
X165490639Y-70802658D01*
X165490638Y-70802658D01*
X165435122Y-70943436D01*
X165424500Y-71031894D01*
X107600500Y-71031894D01*
X107600500Y-68799997D01*
X136394318Y-68799997D01*
X136394318Y-68800002D01*
X136414954Y-68956757D01*
X136475463Y-69102840D01*
X136475464Y-69102841D01*
X136571718Y-69228282D01*
X136697159Y-69324536D01*
X136843238Y-69385044D01*
X136843241Y-69385044D01*
X136843243Y-69385045D01*
X136843240Y-69385045D01*
X136999997Y-69405682D01*
X137000000Y-69405682D01*
X137000003Y-69405682D01*
X137156757Y-69385045D01*
X137156758Y-69385044D01*
X137156762Y-69385044D01*
X137302841Y-69324536D01*
X137359201Y-69281289D01*
X137430457Y-69251775D01*
X137449905Y-69250500D01*
X138750095Y-69250500D01*
X138824595Y-69270462D01*
X138840795Y-69281287D01*
X138897159Y-69324536D01*
X139043238Y-69385044D01*
X139043241Y-69385044D01*
X139043243Y-69385045D01*
X139043240Y-69385045D01*
X139199997Y-69405682D01*
X139200000Y-69405682D01*
X139200003Y-69405682D01*
X139356757Y-69385045D01*
X139356758Y-69385044D01*
X139356762Y-69385044D01*
X139502841Y-69324536D01*
X139628282Y-69228282D01*
X139724536Y-69102841D01*
X139785044Y-68956762D01*
X139805682Y-68800000D01*
X139805682Y-68799997D01*
X139785045Y-68643241D01*
X139724536Y-68497159D01*
X139628282Y-68371718D01*
X139628281Y-68371717D01*
X139502840Y-68275463D01*
X139422944Y-68242369D01*
X139356762Y-68214956D01*
X139356760Y-68214955D01*
X139356756Y-68214954D01*
X139356759Y-68214954D01*
X139200003Y-68194318D01*
X139199997Y-68194318D01*
X139043242Y-68214954D01*
X138897159Y-68275463D01*
X138856913Y-68306345D01*
X138840798Y-68318710D01*
X138769543Y-68348225D01*
X138750095Y-68349500D01*
X137449905Y-68349500D01*
X137375405Y-68329538D01*
X137359204Y-68318712D01*
X137302841Y-68275464D01*
X137302840Y-68275463D01*
X137222944Y-68242369D01*
X137156762Y-68214956D01*
X137156760Y-68214955D01*
X137156756Y-68214954D01*
X137156759Y-68214954D01*
X137000003Y-68194318D01*
X136999997Y-68194318D01*
X136843242Y-68214954D01*
X136697159Y-68275463D01*
X136571718Y-68371717D01*
X136571717Y-68371718D01*
X136475463Y-68497159D01*
X136414955Y-68643241D01*
X136394318Y-68799997D01*
X107600500Y-68799997D01*
X107600500Y-66799994D01*
X165220211Y-66799994D01*
X165220211Y-66800005D01*
X165239343Y-67067508D01*
X165239345Y-67067524D01*
X165296354Y-67329592D01*
X165390085Y-67580897D01*
X165518619Y-67816288D01*
X165609179Y-67937264D01*
X166327545Y-67218898D01*
X166420343Y-67357780D01*
X166542220Y-67479657D01*
X166681099Y-67572453D01*
X165962733Y-68290819D01*
X166083711Y-68381380D01*
X166319102Y-68509914D01*
X166570407Y-68603645D01*
X166832475Y-68660654D01*
X166832491Y-68660656D01*
X167099995Y-68679789D01*
X167100005Y-68679789D01*
X167367508Y-68660656D01*
X167367524Y-68660654D01*
X167629592Y-68603645D01*
X167880897Y-68509914D01*
X168116288Y-68381381D01*
X168237264Y-68290818D01*
X167518900Y-67572453D01*
X167657780Y-67479657D01*
X167779657Y-67357780D01*
X167872453Y-67218899D01*
X168590818Y-67937264D01*
X168681381Y-67816288D01*
X168809914Y-67580897D01*
X168903645Y-67329592D01*
X168960654Y-67067524D01*
X168960656Y-67067508D01*
X168979789Y-66800005D01*
X168979789Y-66799994D01*
X168960656Y-66532491D01*
X168960654Y-66532475D01*
X168903645Y-66270407D01*
X168809914Y-66019102D01*
X168681380Y-65783711D01*
X168590818Y-65662733D01*
X167872452Y-66381098D01*
X167779657Y-66242220D01*
X167657780Y-66120343D01*
X167518898Y-66027545D01*
X168237265Y-65309179D01*
X168116288Y-65218619D01*
X167880897Y-65090085D01*
X167629592Y-64996354D01*
X167367524Y-64939345D01*
X167367508Y-64939343D01*
X167100005Y-64920211D01*
X167099995Y-64920211D01*
X166832491Y-64939343D01*
X166832475Y-64939345D01*
X166570407Y-64996354D01*
X166319102Y-65090085D01*
X166083713Y-65218618D01*
X165962734Y-65309180D01*
X166681100Y-66027546D01*
X166542220Y-66120343D01*
X166420343Y-66242220D01*
X166327546Y-66381100D01*
X165609180Y-65662734D01*
X165518618Y-65783713D01*
X165390085Y-66019102D01*
X165296354Y-66270407D01*
X165239345Y-66532475D01*
X165239343Y-66532491D01*
X165220211Y-66799994D01*
X107600500Y-66799994D01*
X107600500Y-65566661D01*
X132286891Y-65566661D01*
X132300697Y-65575336D01*
X132470858Y-65634877D01*
X132649999Y-65655062D01*
X132650001Y-65655062D01*
X132829140Y-65634877D01*
X132999303Y-65575335D01*
X132999306Y-65575333D01*
X133013107Y-65566661D01*
X133586891Y-65566661D01*
X133600697Y-65575336D01*
X133770858Y-65634877D01*
X133949999Y-65655062D01*
X133950001Y-65655062D01*
X134129140Y-65634877D01*
X134299303Y-65575335D01*
X134299306Y-65575333D01*
X134313107Y-65566661D01*
X134313107Y-65566660D01*
X133950000Y-65203553D01*
X133586891Y-65566661D01*
X133013107Y-65566661D01*
X133013107Y-65566660D01*
X132650000Y-65203553D01*
X132286891Y-65566661D01*
X107600500Y-65566661D01*
X107600500Y-64849999D01*
X131844938Y-64849999D01*
X131844938Y-64850000D01*
X131865122Y-65029140D01*
X131865122Y-65029141D01*
X131924664Y-65199304D01*
X131933337Y-65213106D01*
X132296445Y-64849999D01*
X132266609Y-64820163D01*
X132500000Y-64820163D01*
X132500000Y-64879837D01*
X132522836Y-64934968D01*
X132565032Y-64977164D01*
X132620163Y-65000000D01*
X132679837Y-65000000D01*
X132734968Y-64977164D01*
X132777164Y-64934968D01*
X132800000Y-64879837D01*
X132800000Y-64820163D01*
X132777164Y-64765032D01*
X132734968Y-64722836D01*
X132679837Y-64700000D01*
X132620163Y-64700000D01*
X132565032Y-64722836D01*
X132522836Y-64765032D01*
X132500000Y-64820163D01*
X132266609Y-64820163D01*
X131933338Y-64486892D01*
X131933337Y-64486892D01*
X131924666Y-64500692D01*
X131924664Y-64500696D01*
X131865122Y-64670859D01*
X131844938Y-64849999D01*
X107600500Y-64849999D01*
X107600500Y-62299999D01*
X111502064Y-62299999D01*
X111502064Y-62300000D01*
X111521787Y-62600922D01*
X111576608Y-62876525D01*
X111580620Y-62896691D01*
X111677555Y-63182252D01*
X111686649Y-63200692D01*
X111810931Y-63452714D01*
X111895872Y-63579837D01*
X111978475Y-63703461D01*
X112177311Y-63930189D01*
X112404039Y-64129025D01*
X112404045Y-64129029D01*
X112654785Y-64296568D01*
X112748220Y-64342644D01*
X112925248Y-64429945D01*
X113210809Y-64526880D01*
X113506580Y-64585713D01*
X113807500Y-64605436D01*
X114108420Y-64585713D01*
X114404191Y-64526880D01*
X114689752Y-64429945D01*
X114960218Y-64296566D01*
X115210961Y-64129025D01*
X115437689Y-63930189D01*
X115636525Y-63703461D01*
X115804066Y-63452718D01*
X115937445Y-63182252D01*
X116034380Y-62896691D01*
X116093213Y-62600920D01*
X116112936Y-62300000D01*
X116802557Y-62300000D01*
X116822308Y-62613944D01*
X116822309Y-62613954D01*
X116881255Y-62922957D01*
X116978460Y-63222122D01*
X116978468Y-63222143D01*
X117112403Y-63506768D01*
X117280955Y-63772363D01*
X117371786Y-63882159D01*
X118371208Y-62882736D01*
X118468467Y-63016602D01*
X118590898Y-63139033D01*
X118724762Y-63236290D01*
X117722472Y-64238579D01*
X117722472Y-64238580D01*
X117965285Y-64414994D01*
X118240939Y-64566536D01*
X118240947Y-64566540D01*
X118533424Y-64682339D01*
X118533433Y-64682342D01*
X118838118Y-64760573D01*
X118838124Y-64760574D01*
X119150212Y-64799999D01*
X119150212Y-64800000D01*
X119464788Y-64800000D01*
X119464787Y-64799999D01*
X119776875Y-64760574D01*
X119776881Y-64760573D01*
X120081566Y-64682342D01*
X120081575Y-64682339D01*
X120374052Y-64566540D01*
X120374060Y-64566536D01*
X120649719Y-64414991D01*
X120892526Y-64238580D01*
X120892526Y-64238579D01*
X119890237Y-63236290D01*
X120024102Y-63139033D01*
X120146533Y-63016602D01*
X120243790Y-62882736D01*
X121243213Y-63882159D01*
X121334038Y-63772371D01*
X121334044Y-63772364D01*
X121475161Y-63549999D01*
X131844938Y-63549999D01*
X131844938Y-63550000D01*
X131865122Y-63729140D01*
X131865122Y-63729141D01*
X131924664Y-63899304D01*
X131933337Y-63913106D01*
X132296445Y-63549999D01*
X132266609Y-63520163D01*
X132500000Y-63520163D01*
X132500000Y-63579837D01*
X132522836Y-63634968D01*
X132565032Y-63677164D01*
X132620163Y-63700000D01*
X132679837Y-63700000D01*
X132734968Y-63677164D01*
X132777164Y-63634968D01*
X132800000Y-63579837D01*
X132800000Y-63520163D01*
X132777164Y-63465032D01*
X132734968Y-63422836D01*
X132679837Y-63400000D01*
X132620163Y-63400000D01*
X132565032Y-63422836D01*
X132522836Y-63465032D01*
X132500000Y-63520163D01*
X132266609Y-63520163D01*
X131933338Y-63186892D01*
X131933337Y-63186892D01*
X131924666Y-63200692D01*
X131924664Y-63200696D01*
X131865122Y-63370859D01*
X131844938Y-63549999D01*
X121475161Y-63549999D01*
X121502596Y-63506768D01*
X121636531Y-63222143D01*
X121636539Y-63222122D01*
X121733744Y-62922957D01*
X121738123Y-62900000D01*
X132353553Y-62900000D01*
X132898194Y-63444641D01*
X132936758Y-63511436D01*
X132936758Y-63588564D01*
X132898194Y-63655359D01*
X132353553Y-64200000D01*
X132650000Y-64496447D01*
X133300000Y-65146446D01*
X133626284Y-64820163D01*
X133800000Y-64820163D01*
X133800000Y-64879837D01*
X133822836Y-64934968D01*
X133865032Y-64977164D01*
X133920163Y-65000000D01*
X133979837Y-65000000D01*
X134034968Y-64977164D01*
X134077164Y-64934968D01*
X134100000Y-64879837D01*
X134100000Y-64849999D01*
X134303553Y-64849999D01*
X134666660Y-65213107D01*
X134666661Y-65213107D01*
X134675333Y-65199306D01*
X134675335Y-65199303D01*
X134734877Y-65029140D01*
X134755062Y-64850000D01*
X134755062Y-64849999D01*
X134734877Y-64670859D01*
X134734877Y-64670858D01*
X134675336Y-64500697D01*
X134666660Y-64486891D01*
X134303553Y-64849999D01*
X134100000Y-64849999D01*
X134100000Y-64820163D01*
X134077164Y-64765032D01*
X134034968Y-64722836D01*
X133979837Y-64700000D01*
X133920163Y-64700000D01*
X133865032Y-64722836D01*
X133822836Y-64765032D01*
X133800000Y-64820163D01*
X133626284Y-64820163D01*
X133950000Y-64496447D01*
X134246446Y-64200000D01*
X133701805Y-63655359D01*
X133663241Y-63588564D01*
X133663241Y-63520163D01*
X133800000Y-63520163D01*
X133800000Y-63579837D01*
X133822836Y-63634968D01*
X133865032Y-63677164D01*
X133920163Y-63700000D01*
X133979837Y-63700000D01*
X134034968Y-63677164D01*
X134077164Y-63634968D01*
X134100000Y-63579837D01*
X134100000Y-63549999D01*
X134303553Y-63549999D01*
X134666660Y-63913107D01*
X134666661Y-63913107D01*
X134675333Y-63899306D01*
X134675335Y-63899303D01*
X134734877Y-63729140D01*
X134755062Y-63550000D01*
X134755062Y-63549999D01*
X134734877Y-63370859D01*
X134734877Y-63370858D01*
X134675336Y-63200697D01*
X134666660Y-63186891D01*
X134303553Y-63549999D01*
X134100000Y-63549999D01*
X134100000Y-63520163D01*
X134077164Y-63465032D01*
X134034968Y-63422836D01*
X133979837Y-63400000D01*
X133920163Y-63400000D01*
X133865032Y-63422836D01*
X133822836Y-63465032D01*
X133800000Y-63520163D01*
X133663241Y-63520163D01*
X133663241Y-63511436D01*
X133701805Y-63444641D01*
X133950000Y-63196447D01*
X134246446Y-62900000D01*
X134246446Y-62899999D01*
X133566610Y-62220163D01*
X133800000Y-62220163D01*
X133800000Y-62279837D01*
X133822836Y-62334968D01*
X133865032Y-62377164D01*
X133920163Y-62400000D01*
X133979837Y-62400000D01*
X134034968Y-62377164D01*
X134077164Y-62334968D01*
X134100000Y-62279837D01*
X134100000Y-62249999D01*
X134303553Y-62249999D01*
X134666660Y-62613107D01*
X134666661Y-62613107D01*
X134675333Y-62599306D01*
X134675335Y-62599303D01*
X134734877Y-62429140D01*
X134755062Y-62250000D01*
X134755062Y-62249999D01*
X134734877Y-62070859D01*
X134734877Y-62070858D01*
X134675336Y-61900697D01*
X134666660Y-61886891D01*
X134303553Y-62249999D01*
X134100000Y-62249999D01*
X134100000Y-62220163D01*
X134077164Y-62165032D01*
X134034968Y-62122836D01*
X133979837Y-62100000D01*
X133920163Y-62100000D01*
X133865032Y-62122836D01*
X133822836Y-62165032D01*
X133800000Y-62220163D01*
X133566610Y-62220163D01*
X133300000Y-61953553D01*
X132353553Y-62900000D01*
X121738123Y-62900000D01*
X121792690Y-62613954D01*
X121792691Y-62613944D01*
X121812442Y-62300000D01*
X121809296Y-62249999D01*
X131844938Y-62249999D01*
X131844938Y-62250000D01*
X131865122Y-62429140D01*
X131865122Y-62429141D01*
X131924664Y-62599304D01*
X131933337Y-62613106D01*
X132296445Y-62249999D01*
X132266609Y-62220163D01*
X132500000Y-62220163D01*
X132500000Y-62279837D01*
X132522836Y-62334968D01*
X132565032Y-62377164D01*
X132620163Y-62400000D01*
X132679837Y-62400000D01*
X132734968Y-62377164D01*
X132777164Y-62334968D01*
X132800000Y-62279837D01*
X132800000Y-62220163D01*
X132777164Y-62165032D01*
X132734968Y-62122836D01*
X132679837Y-62100000D01*
X132620163Y-62100000D01*
X132565032Y-62122836D01*
X132522836Y-62165032D01*
X132500000Y-62220163D01*
X132266609Y-62220163D01*
X131933338Y-61886892D01*
X131933337Y-61886892D01*
X131924666Y-61900692D01*
X131924664Y-61900696D01*
X131865122Y-62070859D01*
X131844938Y-62249999D01*
X121809296Y-62249999D01*
X121792691Y-61986055D01*
X121792690Y-61986045D01*
X121733744Y-61677042D01*
X121687051Y-61533337D01*
X132286892Y-61533337D01*
X132286892Y-61533338D01*
X132649999Y-61896445D01*
X133013106Y-61533337D01*
X133013107Y-61533337D01*
X133586892Y-61533337D01*
X133586892Y-61533338D01*
X133949999Y-61896445D01*
X134313106Y-61533337D01*
X134313107Y-61533337D01*
X134299303Y-61524664D01*
X134299305Y-61524664D01*
X134129140Y-61465122D01*
X133950001Y-61444938D01*
X133949999Y-61444938D01*
X133770859Y-61465122D01*
X133600696Y-61524664D01*
X133600692Y-61524666D01*
X133586892Y-61533337D01*
X133013107Y-61533337D01*
X132999303Y-61524664D01*
X132999305Y-61524664D01*
X132829140Y-61465122D01*
X132650001Y-61444938D01*
X132649999Y-61444938D01*
X132470859Y-61465122D01*
X132300696Y-61524664D01*
X132300692Y-61524666D01*
X132286892Y-61533337D01*
X121687051Y-61533337D01*
X121636539Y-61377877D01*
X121636531Y-61377856D01*
X121502596Y-61093231D01*
X121334044Y-60827636D01*
X121243212Y-60717839D01*
X120243789Y-61717261D01*
X120146533Y-61583398D01*
X120024102Y-61460967D01*
X119890236Y-61363708D01*
X120892526Y-60361419D01*
X120892526Y-60361418D01*
X120649714Y-60185005D01*
X120374060Y-60033463D01*
X120374052Y-60033459D01*
X120081575Y-59917660D01*
X120081566Y-59917657D01*
X119776881Y-59839426D01*
X119776875Y-59839425D01*
X119464787Y-59800000D01*
X119150212Y-59800000D01*
X118838124Y-59839425D01*
X118838118Y-59839426D01*
X118533433Y-59917657D01*
X118533424Y-59917660D01*
X118240947Y-60033459D01*
X118240939Y-60033463D01*
X117965289Y-60185003D01*
X117722472Y-60361419D01*
X118724762Y-61363709D01*
X118590898Y-61460967D01*
X118468467Y-61583398D01*
X118371209Y-61717262D01*
X117371786Y-60717839D01*
X117371785Y-60717839D01*
X117280966Y-60827620D01*
X117280958Y-60827632D01*
X117112403Y-61093231D01*
X116978468Y-61377856D01*
X116978460Y-61377877D01*
X116881255Y-61677042D01*
X116822309Y-61986045D01*
X116822308Y-61986055D01*
X116802557Y-62300000D01*
X116112936Y-62300000D01*
X116093213Y-61999080D01*
X116034380Y-61703309D01*
X115937445Y-61417748D01*
X115830064Y-61200000D01*
X115804068Y-61147285D01*
X115636529Y-60896545D01*
X115636526Y-60896541D01*
X115636525Y-60896539D01*
X115437689Y-60669811D01*
X115210961Y-60470975D01*
X115046999Y-60361419D01*
X114960214Y-60303431D01*
X114775802Y-60212490D01*
X114689752Y-60170055D01*
X114404191Y-60073120D01*
X114404186Y-60073119D01*
X114404183Y-60073118D01*
X114108422Y-60014287D01*
X113807500Y-59994564D01*
X113506577Y-60014287D01*
X113210816Y-60073118D01*
X113210811Y-60073119D01*
X113210809Y-60073120D01*
X113072230Y-60120161D01*
X112925250Y-60170054D01*
X112654785Y-60303431D01*
X112404045Y-60470970D01*
X112404041Y-60470973D01*
X112177311Y-60669811D01*
X111978473Y-60896541D01*
X111978470Y-60896545D01*
X111810931Y-61147285D01*
X111677554Y-61417750D01*
X111641262Y-61524664D01*
X111589537Y-61677042D01*
X111580622Y-61703304D01*
X111580618Y-61703316D01*
X111521787Y-61999077D01*
X111502064Y-62299999D01*
X107600500Y-62299999D01*
X107600500Y-59639919D01*
X164249500Y-59639919D01*
X164249500Y-59960080D01*
X164285346Y-60278225D01*
X164356586Y-60590348D01*
X164356587Y-60590353D01*
X164356590Y-60590363D01*
X164439614Y-60827632D01*
X164462331Y-60892554D01*
X164462334Y-60892563D01*
X164601245Y-61181013D01*
X164771575Y-61452093D01*
X164771579Y-61452098D01*
X164771581Y-61452101D01*
X164971198Y-61702413D01*
X165197587Y-61928802D01*
X165447899Y-62128419D01*
X165447902Y-62128421D01*
X165447906Y-62128424D01*
X165506168Y-62165032D01*
X165718987Y-62298755D01*
X166007442Y-62437668D01*
X166309637Y-62543410D01*
X166621771Y-62614653D01*
X166939919Y-62650500D01*
X167260081Y-62650500D01*
X167578229Y-62614653D01*
X167890363Y-62543410D01*
X168192558Y-62437668D01*
X168481013Y-62298755D01*
X168752101Y-62128419D01*
X169002413Y-61928802D01*
X169228802Y-61702413D01*
X169428419Y-61452101D01*
X169598755Y-61181013D01*
X169737668Y-60892558D01*
X169843410Y-60590363D01*
X169914653Y-60278229D01*
X169950500Y-59960081D01*
X169950500Y-59639919D01*
X169914653Y-59321771D01*
X169843410Y-59009637D01*
X169737668Y-58707442D01*
X169598755Y-58418987D01*
X169533710Y-58315469D01*
X169428424Y-58147906D01*
X169428421Y-58147902D01*
X169428419Y-58147899D01*
X169228802Y-57897587D01*
X169002413Y-57671198D01*
X168752101Y-57471581D01*
X168752098Y-57471579D01*
X168752093Y-57471575D01*
X168481013Y-57301245D01*
X168192563Y-57162334D01*
X168192560Y-57162333D01*
X168192558Y-57162332D01*
X167890363Y-57056590D01*
X167890353Y-57056587D01*
X167890348Y-57056586D01*
X167578225Y-56985346D01*
X167260081Y-56949500D01*
X166939919Y-56949500D01*
X166621774Y-56985346D01*
X166309651Y-57056586D01*
X166309643Y-57056588D01*
X166309637Y-57056590D01*
X166007445Y-57162331D01*
X166007436Y-57162334D01*
X165718986Y-57301245D01*
X165447906Y-57471575D01*
X165197582Y-57671202D01*
X164971202Y-57897582D01*
X164771575Y-58147906D01*
X164601245Y-58418986D01*
X164462334Y-58707436D01*
X164462332Y-58707442D01*
X164356590Y-59009637D01*
X164356588Y-59009643D01*
X164356586Y-59009651D01*
X164285346Y-59321774D01*
X164249500Y-59639919D01*
X107600500Y-59639919D01*
X107600500Y-56449500D01*
X107620462Y-56375000D01*
X107675000Y-56320462D01*
X107749500Y-56300500D01*
X170450500Y-56300500D01*
X170525000Y-56320462D01*
G37*
G04 #@! TD.AperFunction*
M02*
