G04 #@! TF.GenerationSoftware,KiCad,Pcbnew,8.0.6*
G04 #@! TF.CreationDate,2025-04-03T21:30:13+02:00*
G04 #@! TF.ProjectId,UV-Controller,55562d43-6f6e-4747-926f-6c6c65722e6b,v2.0*
G04 #@! TF.SameCoordinates,Original*
G04 #@! TF.FileFunction,Copper,L1,Top*
G04 #@! TF.FilePolarity,Positive*
%FSLAX46Y46*%
G04 Gerber Fmt 4.6, Leading zero omitted, Abs format (unit mm)*
G04 Created by KiCad (PCBNEW 8.0.6) date 2025-04-03 21:30:13*
%MOMM*%
%LPD*%
G01*
G04 APERTURE LIST*
G04 Aperture macros list*
%AMRoundRect*
0 Rectangle with rounded corners*
0 $1 Rounding radius*
0 $2 $3 $4 $5 $6 $7 $8 $9 X,Y pos of 4 corners*
0 Add a 4 corners polygon primitive as box body*
4,1,4,$2,$3,$4,$5,$6,$7,$8,$9,$2,$3,0*
0 Add four circle primitives for the rounded corners*
1,1,$1+$1,$2,$3*
1,1,$1+$1,$4,$5*
1,1,$1+$1,$6,$7*
1,1,$1+$1,$8,$9*
0 Add four rect primitives between the rounded corners*
20,1,$1+$1,$2,$3,$4,$5,0*
20,1,$1+$1,$4,$5,$6,$7,0*
20,1,$1+$1,$6,$7,$8,$9,0*
20,1,$1+$1,$8,$9,$2,$3,0*%
G04 Aperture macros list end*
G04 #@! TA.AperFunction,SMDPad,CuDef*
%ADD10RoundRect,0.250000X-0.250000X-0.475000X0.250000X-0.475000X0.250000X0.475000X-0.250000X0.475000X0*%
G04 #@! TD*
G04 #@! TA.AperFunction,SMDPad,CuDef*
%ADD11R,1.800000X1.200000*%
G04 #@! TD*
G04 #@! TA.AperFunction,SMDPad,CuDef*
%ADD12R,0.900000X0.300000*%
G04 #@! TD*
G04 #@! TA.AperFunction,SMDPad,CuDef*
%ADD13R,0.250000X1.650000*%
G04 #@! TD*
G04 #@! TA.AperFunction,ComponentPad*
%ADD14RoundRect,0.249999X-1.300001X-1.300001X1.300001X-1.300001X1.300001X1.300001X-1.300001X1.300001X0*%
G04 #@! TD*
G04 #@! TA.AperFunction,ComponentPad*
%ADD15C,3.100000*%
G04 #@! TD*
G04 #@! TA.AperFunction,ComponentPad*
%ADD16RoundRect,0.250001X0.799999X-0.799999X0.799999X0.799999X-0.799999X0.799999X-0.799999X-0.799999X0*%
G04 #@! TD*
G04 #@! TA.AperFunction,ComponentPad*
%ADD17C,2.100000*%
G04 #@! TD*
G04 #@! TA.AperFunction,ComponentPad*
%ADD18C,1.950000*%
G04 #@! TD*
G04 #@! TA.AperFunction,ComponentPad*
%ADD19C,4.460000*%
G04 #@! TD*
G04 #@! TA.AperFunction,ComponentPad*
%ADD20RoundRect,0.250000X-0.350000X-0.625000X0.350000X-0.625000X0.350000X0.625000X-0.350000X0.625000X0*%
G04 #@! TD*
G04 #@! TA.AperFunction,ComponentPad*
%ADD21O,1.200000X1.750000*%
G04 #@! TD*
G04 #@! TA.AperFunction,SMDPad,CuDef*
%ADD22RoundRect,0.250000X-0.450000X0.262500X-0.450000X-0.262500X0.450000X-0.262500X0.450000X0.262500X0*%
G04 #@! TD*
G04 #@! TA.AperFunction,SMDPad,CuDef*
%ADD23RoundRect,0.135000X-0.135000X-0.185000X0.135000X-0.185000X0.135000X0.185000X-0.135000X0.185000X0*%
G04 #@! TD*
G04 #@! TA.AperFunction,SMDPad,CuDef*
%ADD24RoundRect,0.250000X-0.262500X-0.450000X0.262500X-0.450000X0.262500X0.450000X-0.262500X0.450000X0*%
G04 #@! TD*
G04 #@! TA.AperFunction,SMDPad,CuDef*
%ADD25RoundRect,0.140000X-0.140000X-0.170000X0.140000X-0.170000X0.140000X0.170000X-0.140000X0.170000X0*%
G04 #@! TD*
G04 #@! TA.AperFunction,SMDPad,CuDef*
%ADD26RoundRect,0.250000X-0.475000X0.250000X-0.475000X-0.250000X0.475000X-0.250000X0.475000X0.250000X0*%
G04 #@! TD*
G04 #@! TA.AperFunction,SMDPad,CuDef*
%ADD27RoundRect,0.140000X-0.170000X0.140000X-0.170000X-0.140000X0.170000X-0.140000X0.170000X0.140000X0*%
G04 #@! TD*
G04 #@! TA.AperFunction,SMDPad,CuDef*
%ADD28RoundRect,0.250000X0.475000X-0.250000X0.475000X0.250000X-0.475000X0.250000X-0.475000X-0.250000X0*%
G04 #@! TD*
G04 #@! TA.AperFunction,SMDPad,CuDef*
%ADD29R,2.300000X2.400000*%
G04 #@! TD*
G04 #@! TA.AperFunction,SMDPad,CuDef*
%ADD30RoundRect,0.050000X-0.387500X-0.050000X0.387500X-0.050000X0.387500X0.050000X-0.387500X0.050000X0*%
G04 #@! TD*
G04 #@! TA.AperFunction,SMDPad,CuDef*
%ADD31RoundRect,0.050000X-0.050000X-0.387500X0.050000X-0.387500X0.050000X0.387500X-0.050000X0.387500X0*%
G04 #@! TD*
G04 #@! TA.AperFunction,HeatsinkPad*
%ADD32C,0.600000*%
G04 #@! TD*
G04 #@! TA.AperFunction,HeatsinkPad*
%ADD33R,3.200000X3.200000*%
G04 #@! TD*
G04 #@! TA.AperFunction,SMDPad,CuDef*
%ADD34RoundRect,0.140000X0.170000X-0.140000X0.170000X0.140000X-0.170000X0.140000X-0.170000X-0.140000X0*%
G04 #@! TD*
G04 #@! TA.AperFunction,SMDPad,CuDef*
%ADD35RoundRect,0.135000X0.135000X0.185000X-0.135000X0.185000X-0.135000X-0.185000X0.135000X-0.185000X0*%
G04 #@! TD*
G04 #@! TA.AperFunction,SMDPad,CuDef*
%ADD36R,1.250000X1.000000*%
G04 #@! TD*
G04 #@! TA.AperFunction,ViaPad*
%ADD37C,0.600000*%
G04 #@! TD*
G04 #@! TA.AperFunction,Conductor*
%ADD38C,0.200000*%
G04 #@! TD*
G04 #@! TA.AperFunction,Conductor*
%ADD39C,0.500000*%
G04 #@! TD*
G04 #@! TA.AperFunction,Conductor*
%ADD40C,1.000000*%
G04 #@! TD*
G04 APERTURE END LIST*
D10*
X160162500Y-84375000D03*
X162062500Y-84375000D03*
D11*
X155000000Y-98200000D03*
X159000000Y-98200000D03*
X159000000Y-95800000D03*
X155000000Y-95800000D03*
D12*
X148162500Y-83225000D03*
X148162500Y-82725000D03*
X148162500Y-82225000D03*
X148162500Y-81725000D03*
X145362500Y-81725000D03*
X145362500Y-82225000D03*
X145362500Y-82725000D03*
X145362500Y-83225000D03*
D13*
X146762500Y-82475000D03*
D14*
X169000000Y-81000000D03*
D15*
X175000000Y-81000000D03*
D16*
X175000000Y-117400000D03*
D17*
X175000000Y-112800000D03*
X175000000Y-108200000D03*
D18*
X135112500Y-81075000D03*
X130112500Y-81075000D03*
X125112500Y-81075000D03*
X132612500Y-98575000D03*
X127612500Y-98575000D03*
D19*
X137512500Y-91575000D03*
X122712500Y-91575000D03*
D16*
X171000000Y-102000000D03*
D17*
X171000000Y-97400000D03*
X171000000Y-92800000D03*
X171000000Y-88200000D03*
D20*
X163000000Y-123000000D03*
D21*
X165000000Y-123000000D03*
X167000000Y-123000000D03*
D16*
X175000000Y-102000000D03*
D17*
X175000000Y-97400000D03*
X175000000Y-92800000D03*
X175000000Y-88200000D03*
D22*
X129112500Y-74775000D03*
X129112500Y-76600000D03*
D23*
X158580000Y-93800000D03*
X159600000Y-93800000D03*
D24*
X127887500Y-102275000D03*
X129712500Y-102275000D03*
D10*
X145462500Y-86175000D03*
X147362500Y-86175000D03*
D25*
X159862500Y-89575000D03*
X160822500Y-89575000D03*
D26*
X141212500Y-115425000D03*
X141212500Y-117325000D03*
D27*
X152600000Y-97640000D03*
X152600000Y-98600000D03*
D25*
X145102500Y-84475000D03*
X146062500Y-84475000D03*
D28*
X126812500Y-76675000D03*
X126812500Y-74775000D03*
D25*
X159862500Y-85975000D03*
X160822500Y-85975000D03*
X159862500Y-90775000D03*
X160822500Y-90775000D03*
D29*
X137262500Y-116975000D03*
X122962500Y-116975000D03*
X137262500Y-111975000D03*
X122962500Y-111975000D03*
D30*
X149887500Y-86075000D03*
X149887500Y-86475000D03*
X149887500Y-86875000D03*
X149887500Y-87275000D03*
X149887500Y-87675000D03*
X149887500Y-88075000D03*
X149887500Y-88475000D03*
X149887500Y-88875000D03*
X149887500Y-89275000D03*
X149887500Y-89675000D03*
X149887500Y-90075000D03*
X149887500Y-90475000D03*
X149887500Y-90875000D03*
X149887500Y-91275000D03*
D31*
X150725000Y-92112500D03*
X151125000Y-92112500D03*
X151525000Y-92112500D03*
X151925000Y-92112500D03*
X152325000Y-92112500D03*
X152725000Y-92112500D03*
X153125000Y-92112500D03*
X153525000Y-92112500D03*
X153925000Y-92112500D03*
X154325000Y-92112500D03*
X154725000Y-92112500D03*
X155125000Y-92112500D03*
X155525000Y-92112500D03*
X155925000Y-92112500D03*
D30*
X156762500Y-91275000D03*
X156762500Y-90875000D03*
X156762500Y-90475000D03*
X156762500Y-90075000D03*
X156762500Y-89675000D03*
X156762500Y-89275000D03*
X156762500Y-88875000D03*
X156762500Y-88475000D03*
X156762500Y-88075000D03*
X156762500Y-87675000D03*
X156762500Y-87275000D03*
X156762500Y-86875000D03*
X156762500Y-86475000D03*
X156762500Y-86075000D03*
D31*
X155925000Y-85237500D03*
X155525000Y-85237500D03*
X155125000Y-85237500D03*
X154725000Y-85237500D03*
X154325000Y-85237500D03*
X153925000Y-85237500D03*
X153525000Y-85237500D03*
X153125000Y-85237500D03*
X152725000Y-85237500D03*
X152325000Y-85237500D03*
X151925000Y-85237500D03*
X151525000Y-85237500D03*
X151125000Y-85237500D03*
X150725000Y-85237500D03*
D32*
X151975000Y-87325000D03*
X151975000Y-90025000D03*
D33*
X153325000Y-88675000D03*
D32*
X154675000Y-87325000D03*
X154675000Y-90025000D03*
D22*
X141212500Y-111750000D03*
X141212500Y-113575000D03*
D28*
X131412500Y-76675000D03*
X131412500Y-74775000D03*
D34*
X153562500Y-82500000D03*
X153562500Y-81540000D03*
D28*
X158900000Y-82200000D03*
X158900000Y-80300000D03*
D10*
X131512500Y-102275000D03*
X133412500Y-102275000D03*
D35*
X146162500Y-88200000D03*
X145142500Y-88200000D03*
D34*
X154800000Y-82500000D03*
X154800000Y-81540000D03*
D22*
X133712500Y-74775000D03*
X133712500Y-76600000D03*
D25*
X159862500Y-88375000D03*
X160822500Y-88375000D03*
D36*
X164800000Y-103600000D03*
X157050000Y-103600000D03*
X146650000Y-103600000D03*
X154400000Y-103600000D03*
D34*
X152362500Y-82500000D03*
X152362500Y-81540000D03*
X156000000Y-82500000D03*
X156000000Y-81540000D03*
X157200000Y-82500000D03*
X157200000Y-81540000D03*
X161300000Y-96300000D03*
X161300000Y-95340000D03*
D25*
X159862500Y-87175000D03*
X160822500Y-87175000D03*
D37*
X146500000Y-87100000D03*
X132500000Y-73500000D03*
X147500000Y-112500000D03*
X152500000Y-122500000D03*
X137500000Y-122500000D03*
X122500000Y-97500000D03*
X137500000Y-77500000D03*
X152500000Y-117500000D03*
X127500000Y-107500000D03*
X167500000Y-107500000D03*
X147500000Y-122500000D03*
X127500000Y-127500000D03*
X153000000Y-100700000D03*
X162500000Y-97500000D03*
X147500000Y-77500000D03*
X137500000Y-102500000D03*
X122500000Y-102500000D03*
X157500000Y-112500000D03*
X157500000Y-77500000D03*
X147500000Y-107500000D03*
X167500000Y-72500000D03*
X152500000Y-112500000D03*
X127500000Y-72500000D03*
X122500000Y-77500000D03*
X132500000Y-127500000D03*
X142500000Y-107500000D03*
X132500000Y-122500000D03*
X167500000Y-77500000D03*
X152500000Y-77500000D03*
X157500000Y-127500000D03*
X122500000Y-107500000D03*
X152500000Y-127500000D03*
X130500000Y-73500000D03*
X147200000Y-84400000D03*
X162500000Y-77500000D03*
X172500000Y-122500000D03*
X162500000Y-72500000D03*
X142500000Y-102500000D03*
X167500000Y-102500000D03*
X142500000Y-127500000D03*
X127500000Y-82500000D03*
X122500000Y-82500000D03*
X152500000Y-107500000D03*
X165800000Y-82400000D03*
X147500000Y-127500000D03*
X122500000Y-87500000D03*
X172500000Y-107500000D03*
X165500000Y-85900000D03*
X162400000Y-90500000D03*
X151100000Y-80600000D03*
X127500000Y-117500000D03*
X165000000Y-88600000D03*
X132500000Y-117500000D03*
X127500000Y-122500000D03*
X162500000Y-107500000D03*
X157500000Y-122500000D03*
X142500000Y-122500000D03*
X147500000Y-117500000D03*
X127500000Y-87500000D03*
X162500000Y-102500000D03*
X165700000Y-93200000D03*
X152400000Y-96700000D03*
X122500000Y-122500000D03*
X173400000Y-83800000D03*
X137500000Y-127500000D03*
X158300000Y-88300000D03*
X158421681Y-90426486D03*
X153725000Y-93100000D03*
X158000000Y-92700000D03*
X164000000Y-82600000D03*
X158800000Y-82300000D03*
X155750735Y-93499265D03*
X154582212Y-93517788D03*
X146100000Y-92000000D03*
X147213235Y-91500000D03*
X148100000Y-89761765D03*
X144100000Y-89000000D03*
X148700000Y-91600000D03*
X151500000Y-93700000D03*
X151500000Y-100200000D03*
X150800000Y-99400000D03*
X150800000Y-94400000D03*
X150712607Y-87691040D03*
X148356239Y-87565642D03*
X148800000Y-89000000D03*
X148867342Y-88181091D03*
X150800000Y-88500000D03*
X148800000Y-86900000D03*
X156500000Y-101400000D03*
X156900000Y-93400000D03*
D38*
X146500000Y-87037500D02*
X147362500Y-86175000D01*
X146500000Y-87100000D02*
X146500000Y-87037500D01*
X146847244Y-88200000D02*
X148162500Y-86884744D01*
X146162500Y-88200000D02*
X146847244Y-88200000D01*
X148162500Y-86884744D02*
X148162500Y-83225000D01*
X151400000Y-89000000D02*
X150725000Y-89675000D01*
X150725000Y-89675000D02*
X149887500Y-89675000D01*
X151400000Y-87500000D02*
X151400000Y-89000000D01*
X151000000Y-86653640D02*
X151000000Y-87100000D01*
X150421360Y-86075000D02*
X151000000Y-86653640D01*
X151000000Y-87100000D02*
X151400000Y-87500000D01*
X156228640Y-89675000D02*
X156762500Y-89675000D01*
X155203640Y-90700000D02*
X156228640Y-89675000D01*
X154000000Y-90700000D02*
X155203640Y-90700000D01*
X153525000Y-92112500D02*
X153525000Y-91175000D01*
X153525000Y-91175000D02*
X154000000Y-90700000D01*
X146762500Y-83775000D02*
X146062500Y-84475000D01*
X148162500Y-81725000D02*
X147175000Y-81725000D01*
X146762500Y-82137500D02*
X146762500Y-82475000D01*
X152325000Y-92112500D02*
X152325000Y-90375000D01*
X152325000Y-90375000D02*
X151975000Y-90025000D01*
X146762500Y-82475000D02*
X146762500Y-83775000D01*
X146062500Y-84475000D02*
X146062500Y-84875000D01*
X146062500Y-84875000D02*
X147362500Y-86175000D01*
X147175000Y-81725000D02*
X146762500Y-82137500D01*
X153125000Y-85237500D02*
X153125000Y-82500000D01*
D39*
X164000000Y-82600000D02*
X164000000Y-91300000D01*
X152362500Y-82500000D02*
X157200000Y-82500000D01*
D38*
X155125000Y-82500000D02*
X154800000Y-82500000D01*
X155125000Y-85237500D02*
X155125000Y-82500000D01*
X153125000Y-82500000D02*
X153562500Y-82500000D01*
D39*
X164000000Y-91300000D02*
X163100000Y-92200000D01*
X158600000Y-82500000D02*
X158800000Y-82300000D01*
X162600000Y-92700000D02*
X158000000Y-92700000D01*
D38*
X153925000Y-92900000D02*
X153925000Y-92112500D01*
X153725000Y-93100000D02*
X153925000Y-92900000D01*
D39*
X158800000Y-82300000D02*
X158900000Y-82200000D01*
X163100000Y-92200000D02*
X162600000Y-92700000D01*
X157200000Y-82500000D02*
X158600000Y-82500000D01*
D38*
X152600000Y-98600000D02*
X154600000Y-98600000D01*
X152725000Y-95925000D02*
X155000000Y-98200000D01*
X152725000Y-92112500D02*
X152725000Y-95925000D01*
X154600000Y-98600000D02*
X155000000Y-98200000D01*
X159600000Y-93900000D02*
X159000000Y-94500000D01*
X159000000Y-94500000D02*
X159000000Y-95800000D01*
X159000000Y-95800000D02*
X160840000Y-95800000D01*
X159600000Y-93800000D02*
X159600000Y-93900000D01*
X160840000Y-95800000D02*
X161300000Y-95340000D01*
D39*
X125400000Y-99787500D02*
X127887500Y-102275000D01*
X143800000Y-72300000D02*
X154112500Y-72300000D01*
D38*
X155525000Y-86075000D02*
X155525000Y-85237500D01*
D39*
X137087500Y-83112500D02*
X125400000Y-94800000D01*
D38*
X150523180Y-86176820D02*
X153119540Y-86176820D01*
X153623180Y-86176820D02*
X155423180Y-86176820D01*
D39*
X132812500Y-107200000D02*
X136662500Y-107200000D01*
D38*
X156762500Y-89675000D02*
X159762500Y-89675000D01*
X153119540Y-86176820D02*
X153525000Y-85771360D01*
D39*
X142400000Y-72300000D02*
X142400000Y-83112500D01*
D40*
X168000000Y-99000000D02*
X171000000Y-102000000D01*
D39*
X125400000Y-94800000D02*
X125400000Y-99787500D01*
X130400000Y-72300000D02*
X132700000Y-72300000D01*
X142400000Y-83112500D02*
X145462500Y-86175000D01*
X142400000Y-83112500D02*
X137087500Y-83112500D01*
D38*
X145102500Y-83485000D02*
X145362500Y-83225000D01*
D39*
X136662500Y-107200000D02*
X141212500Y-111750000D01*
D38*
X145102500Y-85815000D02*
X145462500Y-86175000D01*
D40*
X162812500Y-81000000D02*
X160162500Y-83650000D01*
D38*
X159762500Y-89675000D02*
X159862500Y-89575000D01*
X155525000Y-86075000D02*
X156762500Y-86075000D01*
X155423180Y-86176820D02*
X155525000Y-86075000D01*
D40*
X169000000Y-81000000D02*
X168000000Y-82000000D01*
D39*
X143800000Y-72300000D02*
X142400000Y-72300000D01*
X133712500Y-73312500D02*
X133712500Y-74775000D01*
X132700000Y-72300000D02*
X143800000Y-72300000D01*
X132700000Y-72300000D02*
X133712500Y-73312500D01*
X154112500Y-72300000D02*
X162812500Y-81000000D01*
D38*
X153525000Y-85771360D02*
X153525000Y-85237500D01*
X153623180Y-86176820D02*
X153925000Y-85875000D01*
D40*
X169000000Y-81000000D02*
X162812500Y-81000000D01*
D38*
X153925000Y-85875000D02*
X153925000Y-85237500D01*
D40*
X160162500Y-83650000D02*
X160162500Y-84375000D01*
D39*
X129112500Y-73587500D02*
X130400000Y-72300000D01*
X127887500Y-102275000D02*
X132812500Y-107200000D01*
D40*
X168000000Y-82000000D02*
X168000000Y-99000000D01*
D38*
X145102500Y-84475000D02*
X145102500Y-85815000D01*
X153119540Y-86176820D02*
X153623180Y-86176820D01*
D39*
X129112500Y-74775000D02*
X129112500Y-73587500D01*
D38*
X150421360Y-86075000D02*
X149887500Y-86075000D01*
X145102500Y-84475000D02*
X145102500Y-83485000D01*
X150421360Y-86075000D02*
X150523180Y-86176820D01*
X155412219Y-93499265D02*
X155750735Y-93499265D01*
X154725000Y-92112500D02*
X154725000Y-92812046D01*
X154725000Y-92812046D02*
X155412219Y-93499265D01*
X154325000Y-92112500D02*
X154325000Y-93260576D01*
X154325000Y-93260576D02*
X154582212Y-93517788D01*
X158580000Y-93800000D02*
X157780000Y-94600000D01*
X153125000Y-93425000D02*
X153125000Y-92112500D01*
X157780000Y-94600000D02*
X154300000Y-94600000D01*
X154300000Y-94600000D02*
X153125000Y-93425000D01*
X146825000Y-90475000D02*
X146100000Y-91200000D01*
D40*
X129712500Y-102275000D02*
X131512500Y-102275000D01*
X129712500Y-100675000D02*
X129712500Y-102275000D01*
D38*
X146100000Y-91200000D02*
X146100000Y-92000000D01*
D40*
X127612500Y-98575000D02*
X129712500Y-100675000D01*
D38*
X149887500Y-90475000D02*
X146825000Y-90475000D01*
D40*
X129112500Y-76600000D02*
X126887500Y-76600000D01*
D38*
X147213235Y-91500000D02*
X147838235Y-90875000D01*
X147838235Y-90875000D02*
X149887500Y-90875000D01*
D40*
X126887500Y-76600000D02*
X126812500Y-76675000D01*
X129112500Y-80075000D02*
X130112500Y-81075000D01*
X129112500Y-76600000D02*
X129112500Y-80075000D01*
D38*
X148413235Y-90075000D02*
X149887500Y-90075000D01*
D40*
X122962500Y-111975000D02*
X137262500Y-111975000D01*
D38*
X141212500Y-113575000D02*
X144100000Y-110687500D01*
X144100000Y-110687500D02*
X144100000Y-89000000D01*
D40*
X138862500Y-113575000D02*
X141212500Y-113575000D01*
X141212500Y-115425000D02*
X141212500Y-113575000D01*
X137262500Y-111975000D02*
X138862500Y-113575000D01*
D38*
X148100000Y-89761765D02*
X148413235Y-90075000D01*
X149025000Y-91275000D02*
X149887500Y-91275000D01*
D40*
X133712500Y-79675000D02*
X135112500Y-81075000D01*
X133712500Y-76600000D02*
X133712500Y-79675000D01*
D38*
X148700000Y-91600000D02*
X149025000Y-91275000D01*
D40*
X133637500Y-76675000D02*
X133712500Y-76600000D01*
X131412500Y-76675000D02*
X133637500Y-76675000D01*
D38*
X145362500Y-81725000D02*
X145812500Y-81275000D01*
X151925000Y-84372268D02*
X151925000Y-85237500D01*
X145812500Y-81275000D02*
X148827732Y-81275000D01*
X148827732Y-81275000D02*
X151925000Y-84372268D01*
X148162500Y-82725000D02*
X149146360Y-82725000D01*
X151125000Y-84703640D02*
X151125000Y-85237500D01*
X149146360Y-82725000D02*
X151125000Y-84703640D01*
X149212046Y-82225000D02*
X151525000Y-84537954D01*
X151525000Y-84537954D02*
X151525000Y-85237500D01*
X148162500Y-82225000D02*
X149212046Y-82225000D01*
X145362500Y-82725000D02*
X144596814Y-82725000D01*
X152725000Y-84040896D02*
X152725000Y-85237500D01*
X144212500Y-81109314D02*
X144846814Y-80475000D01*
X149159104Y-80475000D02*
X152725000Y-84040896D01*
X144596814Y-82725000D02*
X144212500Y-82340686D01*
X144212500Y-82340686D02*
X144212500Y-81109314D01*
X144846814Y-80475000D02*
X149159104Y-80475000D01*
X145012500Y-80875000D02*
X148993418Y-80875000D01*
X152325000Y-84206582D02*
X152325000Y-85237500D01*
X144612500Y-81275000D02*
X145012500Y-80875000D01*
X144662500Y-82225000D02*
X144612500Y-82175000D01*
X148993418Y-80875000D02*
X152325000Y-84206582D01*
X144612500Y-82175000D02*
X144612500Y-81275000D01*
X145362500Y-82225000D02*
X144662500Y-82225000D01*
X150725000Y-84869326D02*
X150725000Y-85237500D01*
X149080674Y-83225000D02*
X150725000Y-84869326D01*
X148162500Y-83225000D02*
X149080674Y-83225000D01*
X151500000Y-100200000D02*
X151500000Y-102425000D01*
X151525000Y-93675000D02*
X151525000Y-92112500D01*
X151500000Y-102425000D02*
X161875000Y-112800000D01*
X151500000Y-93700000D02*
X151525000Y-93675000D01*
X161875000Y-112800000D02*
X175000000Y-112800000D01*
X150800000Y-93551471D02*
X151125000Y-93226471D01*
X150800000Y-94400000D02*
X150800000Y-93551471D01*
X150800000Y-99400000D02*
X150800000Y-102290686D01*
X165909314Y-117400000D02*
X175000000Y-117400000D01*
X151125000Y-93226471D02*
X151125000Y-92112500D01*
X150800000Y-102290686D02*
X165909314Y-117400000D01*
X149887500Y-87675000D02*
X150696567Y-87675000D01*
X150696567Y-87675000D02*
X150712607Y-87691040D01*
X149273529Y-87275000D02*
X148982887Y-87565642D01*
X149887500Y-87275000D02*
X149273529Y-87275000D01*
X148982887Y-87565642D02*
X148356239Y-87565642D01*
X148925000Y-88875000D02*
X148800000Y-89000000D01*
X149887500Y-88875000D02*
X148925000Y-88875000D01*
X149887500Y-88075000D02*
X148973433Y-88075000D01*
X148973433Y-88075000D02*
X148867342Y-88181091D01*
X150775000Y-88475000D02*
X150800000Y-88500000D01*
X149887500Y-88475000D02*
X150775000Y-88475000D01*
X148825000Y-86875000D02*
X148800000Y-86900000D01*
X149887500Y-86875000D02*
X148825000Y-86875000D01*
X157100000Y-103550000D02*
X157100000Y-101000000D01*
X155280000Y-99180000D02*
X152080000Y-99180000D01*
X157100000Y-101000000D02*
X155280000Y-99180000D01*
X157050000Y-103600000D02*
X157100000Y-103550000D01*
X145142500Y-92242500D02*
X145142500Y-87975000D01*
X152080000Y-99180000D02*
X145142500Y-92242500D01*
X155950000Y-92850000D02*
X156500000Y-93400000D01*
X155125000Y-92646360D02*
X155328640Y-92850000D01*
X155328640Y-92850000D02*
X155950000Y-92850000D01*
X154400000Y-103500000D02*
X154400000Y-103600000D01*
X156500000Y-93400000D02*
X156900000Y-93400000D01*
X156500000Y-101400000D02*
X154400000Y-103500000D01*
X155125000Y-92112500D02*
X155125000Y-92646360D01*
G04 #@! TA.AperFunction,Conductor*
G36*
X160959191Y-83518907D02*
G01*
X160995155Y-83568407D01*
X161000000Y-83599000D01*
X161000000Y-85201000D01*
X160981093Y-85259191D01*
X160931593Y-85295155D01*
X160901000Y-85300000D01*
X160300000Y-85300000D01*
X160300000Y-85300001D01*
X160300000Y-85550811D01*
X160290384Y-85589591D01*
X160291098Y-85589841D01*
X160244791Y-85722176D01*
X160244789Y-85722185D01*
X160242000Y-85751923D01*
X160242000Y-86198076D01*
X160244789Y-86227814D01*
X160244791Y-86227823D01*
X160291098Y-86360160D01*
X160290382Y-86360410D01*
X160300000Y-86399188D01*
X160300000Y-86750811D01*
X160290384Y-86789591D01*
X160291098Y-86789841D01*
X160244791Y-86922176D01*
X160244789Y-86922185D01*
X160242000Y-86951923D01*
X160242000Y-87398076D01*
X160244789Y-87427814D01*
X160244791Y-87427823D01*
X160291098Y-87560160D01*
X160290382Y-87560410D01*
X160300000Y-87599188D01*
X160300000Y-87950811D01*
X160290384Y-87989591D01*
X160291098Y-87989841D01*
X160244791Y-88122176D01*
X160244789Y-88122185D01*
X160242000Y-88151923D01*
X160242000Y-88598076D01*
X160244789Y-88627814D01*
X160244791Y-88627823D01*
X160291098Y-88760160D01*
X160290382Y-88760410D01*
X160300000Y-88799188D01*
X160300000Y-89150811D01*
X160290384Y-89189591D01*
X160291098Y-89189841D01*
X160244791Y-89322176D01*
X160244789Y-89322185D01*
X160242000Y-89351923D01*
X160242000Y-89798076D01*
X160244789Y-89827814D01*
X160244791Y-89827823D01*
X160291098Y-89960160D01*
X160290382Y-89960410D01*
X160300000Y-89999188D01*
X160300000Y-90350811D01*
X160290384Y-90389591D01*
X160291098Y-90389841D01*
X160244791Y-90522176D01*
X160244789Y-90522185D01*
X160242000Y-90551923D01*
X160242000Y-90998076D01*
X160244789Y-91027814D01*
X160244790Y-91027818D01*
X160258956Y-91068303D01*
X160260328Y-91129473D01*
X160225484Y-91179767D01*
X160167732Y-91199975D01*
X160165511Y-91200000D01*
X159499000Y-91200000D01*
X159440809Y-91181093D01*
X159404845Y-91131593D01*
X159400000Y-91101000D01*
X159400000Y-86200001D01*
X159400000Y-86200000D01*
X159399999Y-86200000D01*
X157461689Y-86200000D01*
X157403498Y-86181093D01*
X157391686Y-86171004D01*
X157356484Y-86135803D01*
X157356483Y-86135802D01*
X157347873Y-86131593D01*
X157251395Y-86084427D01*
X157224139Y-86080456D01*
X157183260Y-86074500D01*
X156341740Y-86074500D01*
X156307673Y-86079463D01*
X156273604Y-86084427D01*
X156168518Y-86135801D01*
X156168515Y-86135803D01*
X156133314Y-86171004D01*
X156078797Y-86198781D01*
X156063311Y-86200000D01*
X155499000Y-86200000D01*
X155440809Y-86181093D01*
X155404845Y-86131593D01*
X155400000Y-86101000D01*
X155400000Y-85936688D01*
X155418907Y-85878497D01*
X155428990Y-85866690D01*
X155464198Y-85831483D01*
X155515573Y-85726393D01*
X155525500Y-85658260D01*
X155525500Y-84816740D01*
X155525500Y-83599000D01*
X155544407Y-83540809D01*
X155593907Y-83504845D01*
X155624500Y-83500000D01*
X160901000Y-83500000D01*
X160959191Y-83518907D01*
G37*
G04 #@! TD.AperFunction*
G04 #@! TA.AperFunction,Conductor*
G36*
X142184757Y-83682962D02*
G01*
X142215616Y-83706641D01*
X144618359Y-86109384D01*
X144656923Y-86176179D01*
X144662000Y-86214743D01*
X144662000Y-86693105D01*
X144672622Y-86781563D01*
X144728138Y-86922341D01*
X144818819Y-87041922D01*
X144819578Y-87042922D01*
X144940158Y-87134361D01*
X145080936Y-87189877D01*
X145169398Y-87200500D01*
X145169399Y-87200500D01*
X145755601Y-87200500D01*
X145755602Y-87200500D01*
X145844064Y-87189877D01*
X145984842Y-87134361D01*
X146105422Y-87042922D01*
X146177247Y-86948206D01*
X146238166Y-86900908D01*
X146314575Y-86890405D01*
X146385999Y-86919514D01*
X146421247Y-86963179D01*
X146423587Y-86961736D01*
X146520180Y-87118340D01*
X146644159Y-87242319D01*
X146793379Y-87334358D01*
X146829300Y-87346261D01*
X146893740Y-87388643D01*
X146928355Y-87457567D01*
X146923870Y-87534565D01*
X146887792Y-87593056D01*
X146796454Y-87684395D01*
X146729660Y-87722960D01*
X146652532Y-87722960D01*
X146602617Y-87698922D01*
X146503294Y-87625619D01*
X146379379Y-87582259D01*
X146379376Y-87582258D01*
X146379374Y-87582258D01*
X146349957Y-87579500D01*
X145975047Y-87579500D01*
X145975024Y-87579502D01*
X145945621Y-87582258D01*
X145945614Y-87582260D01*
X145821707Y-87625617D01*
X145821706Y-87625618D01*
X145740979Y-87685198D01*
X145669183Y-87713376D01*
X145592916Y-87701881D01*
X145564021Y-87685198D01*
X145483295Y-87625619D01*
X145443857Y-87611819D01*
X145359379Y-87582259D01*
X145359376Y-87582258D01*
X145359374Y-87582258D01*
X145329966Y-87579500D01*
X145329957Y-87579500D01*
X145233504Y-87579500D01*
X145204916Y-87575736D01*
X145204911Y-87575775D01*
X145195228Y-87574500D01*
X145195227Y-87574500D01*
X145089773Y-87574500D01*
X145089769Y-87574500D01*
X145080089Y-87575774D01*
X145080084Y-87575737D01*
X145051495Y-87579500D01*
X144955048Y-87579500D01*
X144955024Y-87579502D01*
X144925621Y-87582258D01*
X144925614Y-87582260D01*
X144801707Y-87625617D01*
X144801705Y-87625618D01*
X144696080Y-87703574D01*
X144696074Y-87703580D01*
X144618120Y-87809203D01*
X144574758Y-87933125D01*
X144572000Y-87962534D01*
X144572000Y-88322538D01*
X144552038Y-88397038D01*
X144497500Y-88451576D01*
X144423000Y-88471538D01*
X144365981Y-88460196D01*
X144256762Y-88414956D01*
X144256760Y-88414955D01*
X144256756Y-88414954D01*
X144256759Y-88414954D01*
X144100003Y-88394318D01*
X144099997Y-88394318D01*
X143943242Y-88414954D01*
X143797159Y-88475463D01*
X143671718Y-88571717D01*
X143671717Y-88571718D01*
X143575463Y-88697159D01*
X143514954Y-88843242D01*
X143494318Y-88999997D01*
X143494318Y-89000002D01*
X143514954Y-89156757D01*
X143575462Y-89302838D01*
X143575463Y-89302840D01*
X143575464Y-89302841D01*
X143668711Y-89424364D01*
X143698225Y-89495617D01*
X143699500Y-89515066D01*
X143699500Y-110459889D01*
X143679538Y-110534389D01*
X143655859Y-110565248D01*
X142467359Y-111753748D01*
X142400564Y-111792312D01*
X142323436Y-111792312D01*
X142256641Y-111753748D01*
X142218077Y-111686953D01*
X142213000Y-111648389D01*
X142213000Y-111444399D01*
X142213000Y-111444398D01*
X142202377Y-111355936D01*
X142146861Y-111215158D01*
X142055422Y-111094578D01*
X142055420Y-111094576D01*
X141964329Y-111025500D01*
X141934842Y-111003139D01*
X141934841Y-111003138D01*
X141794063Y-110947622D01*
X141705605Y-110937000D01*
X141705602Y-110937000D01*
X141239743Y-110937000D01*
X141165243Y-110917038D01*
X141134384Y-110893359D01*
X137000515Y-106759490D01*
X136934376Y-106721305D01*
X136874985Y-106687016D01*
X136734975Y-106649500D01*
X133102243Y-106649500D01*
X133027743Y-106629538D01*
X132996884Y-106605859D01*
X129920675Y-103529650D01*
X129882111Y-103462855D01*
X129882111Y-103385727D01*
X129920675Y-103318932D01*
X129987470Y-103280368D01*
X130013691Y-103276117D01*
X130013681Y-103276031D01*
X130015786Y-103275778D01*
X130017157Y-103275556D01*
X130018093Y-103275500D01*
X130018102Y-103275500D01*
X130106564Y-103264877D01*
X130247342Y-103209361D01*
X130367922Y-103117922D01*
X130367921Y-103117922D01*
X130376043Y-103111764D01*
X130377089Y-103113144D01*
X130433498Y-103080577D01*
X130472062Y-103075500D01*
X130744444Y-103075500D01*
X130818944Y-103095462D01*
X130863164Y-103134464D01*
X130869578Y-103142922D01*
X130990158Y-103234361D01*
X131130936Y-103289877D01*
X131219398Y-103300500D01*
X131219399Y-103300500D01*
X131805601Y-103300500D01*
X131805602Y-103300500D01*
X131894064Y-103289877D01*
X132034842Y-103234361D01*
X132155422Y-103142922D01*
X132227247Y-103048206D01*
X132288166Y-103000908D01*
X132364575Y-102990405D01*
X132435999Y-103019514D01*
X132471247Y-103063179D01*
X132473587Y-103061736D01*
X132570180Y-103218340D01*
X132694159Y-103342319D01*
X132843378Y-103434357D01*
X133009802Y-103489505D01*
X133009811Y-103489507D01*
X133112516Y-103499999D01*
X133162500Y-103499999D01*
X133662500Y-103499999D01*
X133712474Y-103499999D01*
X133815196Y-103489505D01*
X133981621Y-103434357D01*
X134130840Y-103342319D01*
X134254819Y-103218340D01*
X134346857Y-103069121D01*
X134402005Y-102902697D01*
X134402007Y-102902688D01*
X134412499Y-102799989D01*
X134412500Y-102799979D01*
X134412500Y-102525000D01*
X133662500Y-102525000D01*
X133662500Y-103499999D01*
X133162500Y-103499999D01*
X133162500Y-102025000D01*
X133662500Y-102025000D01*
X134412499Y-102025000D01*
X134412499Y-101750026D01*
X134402005Y-101647303D01*
X134346857Y-101480878D01*
X134254819Y-101331659D01*
X134130840Y-101207680D01*
X133981621Y-101115642D01*
X133815197Y-101060494D01*
X133815188Y-101060492D01*
X133712489Y-101050000D01*
X133662500Y-101050000D01*
X133662500Y-102025000D01*
X133162500Y-102025000D01*
X133162500Y-101050000D01*
X133112525Y-101050000D01*
X133009803Y-101060494D01*
X132843378Y-101115642D01*
X132694159Y-101207680D01*
X132570180Y-101331659D01*
X132473587Y-101488264D01*
X132470997Y-101486666D01*
X132431411Y-101533828D01*
X132358930Y-101560195D01*
X132282976Y-101546789D01*
X132227245Y-101501791D01*
X132215775Y-101486666D01*
X132174379Y-101432076D01*
X132155423Y-101407079D01*
X132155420Y-101407076D01*
X132067809Y-101340639D01*
X132034842Y-101315639D01*
X132034841Y-101315638D01*
X131894063Y-101260122D01*
X131805605Y-101249500D01*
X131805602Y-101249500D01*
X131219398Y-101249500D01*
X131219394Y-101249500D01*
X131130936Y-101260122D01*
X130990158Y-101315638D01*
X130990158Y-101315639D01*
X130869581Y-101407075D01*
X130869579Y-101407077D01*
X130863166Y-101415534D01*
X130802244Y-101462832D01*
X130744444Y-101474500D01*
X130662000Y-101474500D01*
X130587500Y-101454538D01*
X130532962Y-101400000D01*
X130513000Y-101325500D01*
X130513000Y-100596157D01*
X130502619Y-100543968D01*
X130482237Y-100441502D01*
X130447136Y-100356762D01*
X130421894Y-100295821D01*
X130334289Y-100164711D01*
X130222789Y-100053211D01*
X128930070Y-98760492D01*
X128891506Y-98693697D01*
X128886996Y-98642151D01*
X128892872Y-98575000D01*
X128892872Y-98574998D01*
X131132445Y-98574998D01*
X131132445Y-98575001D01*
X131152631Y-98818610D01*
X131212638Y-99055575D01*
X131310827Y-99279422D01*
X131310829Y-99279425D01*
X131407125Y-99426818D01*
X132011457Y-98822486D01*
X132036478Y-98882890D01*
X132107612Y-98989351D01*
X132198149Y-99079888D01*
X132304610Y-99151022D01*
X132365011Y-99176041D01*
X131760258Y-99780794D01*
X131760258Y-99780795D01*
X131802982Y-99814048D01*
X131802988Y-99814052D01*
X132017968Y-99930394D01*
X132249162Y-100009764D01*
X132490280Y-100049999D01*
X132490280Y-100050000D01*
X132734720Y-100050000D01*
X132734719Y-100049999D01*
X132975837Y-100009764D01*
X133207031Y-99930394D01*
X133422013Y-99814051D01*
X133422022Y-99814045D01*
X133464740Y-99780796D01*
X133464741Y-99780794D01*
X132859988Y-99176041D01*
X132920390Y-99151022D01*
X133026851Y-99079888D01*
X133117388Y-98989351D01*
X133188522Y-98882890D01*
X133213541Y-98822488D01*
X133817872Y-99426819D01*
X133817873Y-99426818D01*
X133914169Y-99279429D01*
X133914174Y-99279419D01*
X134012360Y-99055578D01*
X134072368Y-98818610D01*
X134092555Y-98575001D01*
X134092555Y-98574998D01*
X134072368Y-98331389D01*
X134012361Y-98094424D01*
X133914172Y-97870577D01*
X133914166Y-97870565D01*
X133817873Y-97723180D01*
X133213541Y-98327510D01*
X133188522Y-98267110D01*
X133117388Y-98160649D01*
X133026851Y-98070112D01*
X132920390Y-97998978D01*
X132859986Y-97973957D01*
X133464740Y-97369204D01*
X133464740Y-97369203D01*
X133422014Y-97335949D01*
X133207031Y-97219605D01*
X132975837Y-97140235D01*
X132734719Y-97100000D01*
X132490280Y-97100000D01*
X132249162Y-97140235D01*
X132017970Y-97219604D01*
X131802989Y-97335946D01*
X131802986Y-97335948D01*
X131760258Y-97369203D01*
X132365012Y-97973958D01*
X132304610Y-97998978D01*
X132198149Y-98070112D01*
X132107612Y-98160649D01*
X132036478Y-98267110D01*
X132011458Y-98327512D01*
X131407125Y-97723180D01*
X131310829Y-97870574D01*
X131310827Y-97870577D01*
X131212638Y-98094424D01*
X131152631Y-98331389D01*
X131132445Y-98574998D01*
X128892872Y-98574998D01*
X128873420Y-98352666D01*
X128815656Y-98137087D01*
X128721335Y-97934814D01*
X128721332Y-97934809D01*
X128721330Y-97934806D01*
X128593323Y-97751994D01*
X128435505Y-97594176D01*
X128252693Y-97466169D01*
X128252680Y-97466162D01*
X128050413Y-97371844D01*
X128050411Y-97371843D01*
X127834834Y-97314080D01*
X127834835Y-97314080D01*
X127612501Y-97294628D01*
X127612499Y-97294628D01*
X127390165Y-97314080D01*
X127174588Y-97371843D01*
X127174586Y-97371844D01*
X126972319Y-97466162D01*
X126972306Y-97466169D01*
X126789494Y-97594176D01*
X126631676Y-97751994D01*
X126503669Y-97934806D01*
X126503662Y-97934819D01*
X126409344Y-98137086D01*
X126409343Y-98137088D01*
X126351580Y-98352665D01*
X126332128Y-98574999D01*
X126332128Y-98575000D01*
X126351580Y-98797334D01*
X126409343Y-99012911D01*
X126409344Y-99012913D01*
X126503662Y-99215180D01*
X126503669Y-99215193D01*
X126631676Y-99398005D01*
X126789494Y-99555823D01*
X126972306Y-99683830D01*
X126972309Y-99683832D01*
X126972314Y-99683835D01*
X127174587Y-99778156D01*
X127390166Y-99835920D01*
X127612500Y-99855372D01*
X127679648Y-99849496D01*
X127755600Y-99862888D01*
X127797992Y-99892570D01*
X128868359Y-100962937D01*
X128906923Y-101029732D01*
X128912000Y-101068296D01*
X128912000Y-101477429D01*
X128892038Y-101551929D01*
X128837500Y-101606467D01*
X128763000Y-101626429D01*
X128688500Y-101606467D01*
X128641823Y-101559790D01*
X128640519Y-101560779D01*
X128620081Y-101533828D01*
X128542922Y-101432078D01*
X128542920Y-101432076D01*
X128494158Y-101395099D01*
X128422342Y-101340639D01*
X128422341Y-101340638D01*
X128281563Y-101285122D01*
X128193105Y-101274500D01*
X128193102Y-101274500D01*
X127727243Y-101274500D01*
X127652743Y-101254538D01*
X127621884Y-101230859D01*
X125994141Y-99603116D01*
X125955577Y-99536321D01*
X125950500Y-99497757D01*
X125950500Y-95089743D01*
X125970462Y-95015243D01*
X125994141Y-94984384D01*
X129403528Y-91574997D01*
X134777510Y-91574997D01*
X134777510Y-91575002D01*
X134797450Y-91904660D01*
X134797453Y-91904684D01*
X134856982Y-92229521D01*
X134856984Y-92229530D01*
X134955238Y-92544836D01*
X134955240Y-92544841D01*
X135090786Y-92846011D01*
X135090796Y-92846030D01*
X135261642Y-93128643D01*
X135261646Y-93128649D01*
X135412607Y-93321337D01*
X136299432Y-92434511D01*
X136378585Y-92543455D01*
X136544045Y-92708915D01*
X136652986Y-92788065D01*
X135766161Y-93674891D01*
X135958850Y-93825853D01*
X135958856Y-93825857D01*
X136241469Y-93996703D01*
X136241488Y-93996713D01*
X136542658Y-94132259D01*
X136542663Y-94132261D01*
X136857969Y-94230515D01*
X136857978Y-94230517D01*
X137182815Y-94290046D01*
X137182839Y-94290049D01*
X137512497Y-94309990D01*
X137512503Y-94309990D01*
X137842160Y-94290049D01*
X137842184Y-94290046D01*
X138167021Y-94230517D01*
X138167030Y-94230515D01*
X138482336Y-94132261D01*
X138482341Y-94132259D01*
X138783511Y-93996713D01*
X138783530Y-93996703D01*
X139066143Y-93825857D01*
X139066159Y-93825846D01*
X139258837Y-93674892D01*
X139258837Y-93674891D01*
X138372012Y-92788066D01*
X138480955Y-92708915D01*
X138646415Y-92543455D01*
X138725566Y-92434512D01*
X139612391Y-93321337D01*
X139612392Y-93321337D01*
X139763346Y-93128659D01*
X139763357Y-93128643D01*
X139934203Y-92846030D01*
X139934213Y-92846011D01*
X140069759Y-92544841D01*
X140069761Y-92544836D01*
X140168015Y-92229530D01*
X140168017Y-92229521D01*
X140227546Y-91904684D01*
X140227549Y-91904660D01*
X140247490Y-91575002D01*
X140247490Y-91574997D01*
X140227549Y-91245339D01*
X140227546Y-91245315D01*
X140168017Y-90920478D01*
X140168015Y-90920469D01*
X140069761Y-90605163D01*
X140069759Y-90605158D01*
X139934213Y-90303988D01*
X139934203Y-90303969D01*
X139763357Y-90021356D01*
X139763353Y-90021350D01*
X139612391Y-89828661D01*
X138725565Y-90715486D01*
X138646415Y-90606545D01*
X138480955Y-90441085D01*
X138372011Y-90361932D01*
X139258837Y-89475107D01*
X139066149Y-89324146D01*
X139066143Y-89324142D01*
X138783530Y-89153296D01*
X138783511Y-89153286D01*
X138482341Y-89017740D01*
X138482336Y-89017738D01*
X138167030Y-88919484D01*
X138167021Y-88919482D01*
X137842184Y-88859953D01*
X137842160Y-88859950D01*
X137512503Y-88840010D01*
X137512497Y-88840010D01*
X137182839Y-88859950D01*
X137182815Y-88859953D01*
X136857978Y-88919482D01*
X136857969Y-88919484D01*
X136542663Y-89017738D01*
X136542658Y-89017740D01*
X136241488Y-89153286D01*
X136241469Y-89153296D01*
X135958856Y-89324142D01*
X135958850Y-89324146D01*
X135766161Y-89475107D01*
X136652987Y-90361933D01*
X136544045Y-90441085D01*
X136378585Y-90606545D01*
X136299433Y-90715487D01*
X135412607Y-89828661D01*
X135261646Y-90021350D01*
X135261642Y-90021356D01*
X135090796Y-90303969D01*
X135090786Y-90303988D01*
X134955240Y-90605158D01*
X134955238Y-90605163D01*
X134856984Y-90920469D01*
X134856982Y-90920478D01*
X134797453Y-91245315D01*
X134797450Y-91245339D01*
X134777510Y-91574997D01*
X129403528Y-91574997D01*
X137271884Y-83706641D01*
X137338679Y-83668077D01*
X137377243Y-83663000D01*
X142110257Y-83663000D01*
X142184757Y-83682962D01*
G37*
G04 #@! TD.AperFunction*
G04 #@! TA.AperFunction,Conductor*
G36*
X155126889Y-99600462D02*
G01*
X155157748Y-99624141D01*
X155698319Y-100164712D01*
X156196926Y-100663318D01*
X156235490Y-100730113D01*
X156235490Y-100807241D01*
X156196926Y-100874036D01*
X156182272Y-100886887D01*
X156071718Y-100971717D01*
X156071717Y-100971718D01*
X155975463Y-101097159D01*
X155914954Y-101243241D01*
X155894962Y-101395099D01*
X155865446Y-101466356D01*
X155852596Y-101481009D01*
X154577746Y-102755859D01*
X154510951Y-102794423D01*
X154472387Y-102799500D01*
X153730133Y-102799500D01*
X153705010Y-102802414D01*
X153705007Y-102802415D01*
X153602235Y-102847793D01*
X153522793Y-102927235D01*
X153477416Y-103030005D01*
X153477415Y-103030008D01*
X153477415Y-103030009D01*
X153474500Y-103055135D01*
X153474500Y-103055136D01*
X153474500Y-103055140D01*
X153474500Y-103473389D01*
X153454538Y-103547889D01*
X153400000Y-103602427D01*
X153325500Y-103622389D01*
X153251000Y-103602427D01*
X153220141Y-103578748D01*
X151944141Y-102302748D01*
X151905577Y-102235953D01*
X151900500Y-102197389D01*
X151900500Y-100715066D01*
X151920462Y-100640566D01*
X151931280Y-100624374D01*
X152024536Y-100502841D01*
X152085044Y-100356762D01*
X152093067Y-100295826D01*
X152105682Y-100200002D01*
X152105682Y-100199997D01*
X152085045Y-100043242D01*
X152085044Y-100043240D01*
X152085044Y-100043238D01*
X152024536Y-99897159D01*
X151965487Y-99820205D01*
X151935973Y-99748949D01*
X151946040Y-99672481D01*
X151992993Y-99611291D01*
X152064250Y-99581776D01*
X152083698Y-99580501D01*
X152141856Y-99580501D01*
X152141872Y-99580500D01*
X155052389Y-99580500D01*
X155126889Y-99600462D01*
G37*
G04 #@! TD.AperFunction*
G04 #@! TA.AperFunction,Conductor*
G36*
X148040740Y-91527386D02*
G01*
X148087693Y-91588575D01*
X148097760Y-91626148D01*
X148114954Y-91756757D01*
X148175463Y-91902840D01*
X148268844Y-92024536D01*
X148271718Y-92028282D01*
X148397159Y-92124536D01*
X148543238Y-92185044D01*
X148543241Y-92185044D01*
X148543243Y-92185045D01*
X148543240Y-92185045D01*
X148699997Y-92205682D01*
X148700000Y-92205682D01*
X148700003Y-92205682D01*
X148856757Y-92185045D01*
X148856758Y-92185044D01*
X148856762Y-92185044D01*
X149002841Y-92124536D01*
X149128282Y-92028282D01*
X149224536Y-91902841D01*
X149280604Y-91767478D01*
X149327556Y-91706291D01*
X149398813Y-91676775D01*
X149418262Y-91675500D01*
X150175500Y-91675500D01*
X150250000Y-91695462D01*
X150304538Y-91750000D01*
X150324500Y-91824500D01*
X150324500Y-92533268D01*
X150334426Y-92601393D01*
X150334426Y-92601394D01*
X150385800Y-92706481D01*
X150468518Y-92789199D01*
X150573605Y-92840573D01*
X150596982Y-92843979D01*
X150667825Y-92874473D01*
X150713931Y-92936304D01*
X150724500Y-92991422D01*
X150724500Y-92998860D01*
X150704538Y-93073360D01*
X150680859Y-93104219D01*
X150479518Y-93305560D01*
X150479515Y-93305564D01*
X150426794Y-93396879D01*
X150425957Y-93400002D01*
X150405131Y-93477727D01*
X150399500Y-93498744D01*
X150399500Y-93884932D01*
X150379538Y-93959432D01*
X150368710Y-93975637D01*
X150275463Y-94097159D01*
X150214954Y-94243242D01*
X150194318Y-94399997D01*
X150194318Y-94400002D01*
X150214954Y-94556757D01*
X150275463Y-94702840D01*
X150369200Y-94825000D01*
X150371718Y-94828282D01*
X150497159Y-94924536D01*
X150643238Y-94985044D01*
X150643241Y-94985044D01*
X150643243Y-94985045D01*
X150643240Y-94985045D01*
X150799997Y-95005682D01*
X150800000Y-95005682D01*
X150800003Y-95005682D01*
X150956757Y-94985045D01*
X150956758Y-94985044D01*
X150956762Y-94985044D01*
X151102841Y-94924536D01*
X151228282Y-94828282D01*
X151324536Y-94702841D01*
X151385044Y-94556762D01*
X151385576Y-94552727D01*
X151397238Y-94464140D01*
X151401731Y-94430008D01*
X151431246Y-94358752D01*
X151492435Y-94311798D01*
X151530007Y-94301731D01*
X151584897Y-94294505D01*
X151656757Y-94285045D01*
X151656758Y-94285044D01*
X151656762Y-94285044D01*
X151802841Y-94224536D01*
X151928282Y-94128282D01*
X152024536Y-94002841D01*
X152027074Y-93996713D01*
X152037842Y-93970718D01*
X152084794Y-93909528D01*
X152156051Y-93880012D01*
X152232519Y-93890079D01*
X152293709Y-93937031D01*
X152323225Y-94008288D01*
X152324500Y-94027737D01*
X152324500Y-95977729D01*
X152351794Y-96079591D01*
X152404515Y-96170906D01*
X152404518Y-96170910D01*
X152404520Y-96170913D01*
X152867639Y-96634032D01*
X152906202Y-96700825D01*
X152906202Y-96777953D01*
X152867638Y-96844748D01*
X152863421Y-96848803D01*
X152850000Y-96861209D01*
X152850000Y-97390000D01*
X153410888Y-97390000D01*
X153456063Y-97354579D01*
X153532422Y-97343711D01*
X153603984Y-97372479D01*
X153619880Y-97386273D01*
X153755860Y-97522253D01*
X153794423Y-97589045D01*
X153799500Y-97627610D01*
X153799500Y-98050500D01*
X153779538Y-98125000D01*
X153725000Y-98179538D01*
X153650500Y-98199500D01*
X153513037Y-98199500D01*
X153438537Y-98179538D01*
X153383999Y-98125000D01*
X153364037Y-98050500D01*
X153369953Y-98008931D01*
X153404505Y-97890000D01*
X151795495Y-97890000D01*
X151813402Y-97951638D01*
X151815017Y-98028749D01*
X151777860Y-98096337D01*
X151711887Y-98136291D01*
X151634776Y-98137906D01*
X151567188Y-98100749D01*
X151564959Y-98098566D01*
X150856392Y-97389999D01*
X151795494Y-97389999D01*
X151795495Y-97390000D01*
X152350000Y-97390000D01*
X152350000Y-96861210D01*
X152349999Y-96861209D01*
X152329082Y-96862855D01*
X152173806Y-96907968D01*
X152173805Y-96907968D01*
X152034625Y-96990279D01*
X152034623Y-96990280D01*
X151920280Y-97104623D01*
X151920279Y-97104625D01*
X151837966Y-97243809D01*
X151795494Y-97389999D01*
X150856392Y-97389999D01*
X146269255Y-92802862D01*
X146230691Y-92736067D01*
X146230691Y-92658939D01*
X146269255Y-92592144D01*
X146317589Y-92559848D01*
X146402841Y-92524536D01*
X146528282Y-92428282D01*
X146624536Y-92302841D01*
X146685044Y-92156762D01*
X146688033Y-92134050D01*
X146717546Y-92062795D01*
X146778734Y-92015840D01*
X146855202Y-92005770D01*
X146901138Y-92021362D01*
X146901372Y-92020799D01*
X146909959Y-92024355D01*
X146910257Y-92024457D01*
X146910391Y-92024534D01*
X146910394Y-92024536D01*
X147056473Y-92085044D01*
X147056476Y-92085044D01*
X147056478Y-92085045D01*
X147056475Y-92085045D01*
X147213232Y-92105682D01*
X147213235Y-92105682D01*
X147213238Y-92105682D01*
X147369992Y-92085045D01*
X147369993Y-92085044D01*
X147369997Y-92085044D01*
X147516076Y-92024536D01*
X147641517Y-91928282D01*
X147737771Y-91802841D01*
X147798279Y-91656762D01*
X147798280Y-91656757D01*
X147802310Y-91626148D01*
X147831825Y-91554891D01*
X147893014Y-91507938D01*
X147969483Y-91497871D01*
X148040740Y-91527386D01*
G37*
G04 #@! TD.AperFunction*
G04 #@! TA.AperFunction,Conductor*
G36*
X163691835Y-81820462D02*
G01*
X163746373Y-81875000D01*
X163766335Y-81949500D01*
X163746373Y-82024000D01*
X163703147Y-82067226D01*
X163704907Y-82069519D01*
X163571718Y-82171717D01*
X163571717Y-82171718D01*
X163475463Y-82297159D01*
X163414954Y-82443242D01*
X163394318Y-82599997D01*
X163394318Y-82600002D01*
X163414954Y-82756757D01*
X163438158Y-82812775D01*
X163449500Y-82869795D01*
X163449500Y-91010257D01*
X163429538Y-91084757D01*
X163405859Y-91115616D01*
X162415616Y-92105859D01*
X162348821Y-92144423D01*
X162310257Y-92149500D01*
X158269796Y-92149500D01*
X158212777Y-92138158D01*
X158156759Y-92114954D01*
X158000003Y-92094318D01*
X157999997Y-92094318D01*
X157843242Y-92114954D01*
X157697159Y-92175463D01*
X157571718Y-92271717D01*
X157571717Y-92271718D01*
X157475463Y-92397159D01*
X157414954Y-92543242D01*
X157394318Y-92699997D01*
X157394318Y-92699999D01*
X157396109Y-92713606D01*
X157386040Y-92790074D01*
X157339086Y-92851263D01*
X157267828Y-92880777D01*
X157191364Y-92870709D01*
X157056759Y-92814954D01*
X156900003Y-92794318D01*
X156899997Y-92794318D01*
X156743240Y-92814954D01*
X156650034Y-92853562D01*
X156573566Y-92863629D01*
X156502309Y-92834113D01*
X156487656Y-92821263D01*
X156362359Y-92695966D01*
X156323795Y-92629171D01*
X156320275Y-92569124D01*
X156325499Y-92533268D01*
X156325500Y-92533258D01*
X156325500Y-91824500D01*
X156345462Y-91750000D01*
X156400000Y-91695462D01*
X156474500Y-91675500D01*
X157183259Y-91675500D01*
X157183260Y-91675500D01*
X157183263Y-91675499D01*
X157183268Y-91675499D01*
X157251393Y-91665573D01*
X157251394Y-91665573D01*
X157356481Y-91614199D01*
X157356481Y-91614198D01*
X157356483Y-91614198D01*
X157439198Y-91531483D01*
X157448484Y-91512488D01*
X157490573Y-91426394D01*
X157490573Y-91426393D01*
X157500499Y-91358268D01*
X157500500Y-91358258D01*
X157500500Y-91191741D01*
X157500499Y-91191731D01*
X157490574Y-91123613D01*
X157490573Y-91123612D01*
X157490573Y-91123607D01*
X157490570Y-91123602D01*
X157489147Y-91118995D01*
X157486222Y-91041922D01*
X157489147Y-91031005D01*
X157490569Y-91026399D01*
X157490573Y-91026393D01*
X157498088Y-90974813D01*
X157500499Y-90958268D01*
X157500500Y-90958258D01*
X157500500Y-90791741D01*
X157500499Y-90791731D01*
X157490574Y-90723613D01*
X157490573Y-90723612D01*
X157490573Y-90723607D01*
X157490570Y-90723602D01*
X157489147Y-90718995D01*
X157486222Y-90641922D01*
X157489147Y-90631005D01*
X157490569Y-90626399D01*
X157490573Y-90626393D01*
X157500500Y-90558260D01*
X157500500Y-90391740D01*
X157498719Y-90379519D01*
X157490574Y-90323613D01*
X157490573Y-90323612D01*
X157490573Y-90323607D01*
X157490570Y-90323602D01*
X157489147Y-90318995D01*
X157486222Y-90241922D01*
X157489147Y-90231005D01*
X157490569Y-90226399D01*
X157490573Y-90226393D01*
X157493815Y-90204141D01*
X157493979Y-90203018D01*
X157524473Y-90132175D01*
X157586304Y-90086069D01*
X157641422Y-90075500D01*
X158945500Y-90075500D01*
X159020000Y-90095462D01*
X159074538Y-90150000D01*
X159094500Y-90224500D01*
X159094500Y-91101000D01*
X159096202Y-91122623D01*
X159098261Y-91148790D01*
X159103101Y-91179354D01*
X159103112Y-91179412D01*
X159109512Y-91209752D01*
X159109514Y-91209756D01*
X159157687Y-91311156D01*
X159157689Y-91311159D01*
X159157691Y-91311162D01*
X159173146Y-91332434D01*
X159193652Y-91360659D01*
X159193653Y-91360660D01*
X159193655Y-91360662D01*
X159247823Y-91417919D01*
X159346406Y-91471641D01*
X159346408Y-91471641D01*
X159346411Y-91471643D01*
X159404591Y-91490547D01*
X159404596Y-91490547D01*
X159404597Y-91490548D01*
X159499000Y-91505500D01*
X159499004Y-91505500D01*
X160165443Y-91505500D01*
X160165511Y-91505500D01*
X160168950Y-91505481D01*
X160171171Y-91505456D01*
X160268631Y-91488332D01*
X160268633Y-91488331D01*
X160272470Y-91487657D01*
X160349301Y-91494426D01*
X160374103Y-91506159D01*
X160426306Y-91537032D01*
X160426309Y-91537033D01*
X160572499Y-91579505D01*
X160572500Y-91579505D01*
X161072500Y-91579505D01*
X161218690Y-91537033D01*
X161357874Y-91454720D01*
X161357876Y-91454719D01*
X161472219Y-91340376D01*
X161472220Y-91340374D01*
X161554531Y-91201194D01*
X161554531Y-91201193D01*
X161599644Y-91045917D01*
X161601290Y-91025000D01*
X161072500Y-91025000D01*
X161072500Y-91579505D01*
X160572500Y-91579505D01*
X160572500Y-90535743D01*
X160574199Y-90525000D01*
X161072500Y-90525000D01*
X161601290Y-90525000D01*
X161599645Y-90504090D01*
X161599644Y-90504085D01*
X161554532Y-90348808D01*
X161554531Y-90348805D01*
X161496599Y-90250847D01*
X161475858Y-90176560D01*
X161495039Y-90101855D01*
X161496599Y-90099153D01*
X161554531Y-90001194D01*
X161554531Y-90001193D01*
X161599644Y-89845917D01*
X161601290Y-89825000D01*
X161072500Y-89825000D01*
X161072500Y-90525000D01*
X160574199Y-90525000D01*
X160579339Y-90492502D01*
X160578962Y-90492390D01*
X160582073Y-90481979D01*
X160587519Y-90463764D01*
X160587519Y-90463750D01*
X160588558Y-90457879D01*
X160590662Y-90447957D01*
X160596520Y-90424337D01*
X160605500Y-90350811D01*
X160605500Y-89999188D01*
X160596516Y-89925644D01*
X160587089Y-89887635D01*
X160576882Y-89846480D01*
X160572500Y-89810611D01*
X160572500Y-89335743D01*
X160574199Y-89325000D01*
X161072500Y-89325000D01*
X161601290Y-89325000D01*
X161599645Y-89304090D01*
X161599644Y-89304085D01*
X161554532Y-89148808D01*
X161554531Y-89148805D01*
X161496599Y-89050847D01*
X161475858Y-88976560D01*
X161495039Y-88901855D01*
X161496599Y-88899153D01*
X161554531Y-88801194D01*
X161554531Y-88801193D01*
X161599644Y-88645917D01*
X161601290Y-88625000D01*
X161072500Y-88625000D01*
X161072500Y-89325000D01*
X160574199Y-89325000D01*
X160579339Y-89292502D01*
X160578962Y-89292390D01*
X160582073Y-89281979D01*
X160587519Y-89263764D01*
X160587519Y-89263750D01*
X160588558Y-89257879D01*
X160590662Y-89247957D01*
X160596520Y-89224337D01*
X160605500Y-89150811D01*
X160605500Y-88799188D01*
X160596516Y-88725644D01*
X160596514Y-88725635D01*
X160576882Y-88646480D01*
X160572500Y-88610611D01*
X160572500Y-88135743D01*
X160574199Y-88125000D01*
X161072500Y-88125000D01*
X161601290Y-88125000D01*
X161599645Y-88104090D01*
X161599644Y-88104085D01*
X161554532Y-87948808D01*
X161554531Y-87948805D01*
X161496599Y-87850847D01*
X161475858Y-87776560D01*
X161495039Y-87701855D01*
X161496599Y-87699153D01*
X161554531Y-87601194D01*
X161554531Y-87601193D01*
X161599644Y-87445917D01*
X161601290Y-87425000D01*
X161072500Y-87425000D01*
X161072500Y-88125000D01*
X160574199Y-88125000D01*
X160579339Y-88092502D01*
X160578962Y-88092390D01*
X160582073Y-88081979D01*
X160587519Y-88063764D01*
X160587519Y-88063750D01*
X160588558Y-88057879D01*
X160590662Y-88047957D01*
X160596520Y-88024337D01*
X160605500Y-87950811D01*
X160605500Y-87599188D01*
X160596516Y-87525644D01*
X160596514Y-87525635D01*
X160576882Y-87446480D01*
X160572500Y-87410611D01*
X160572500Y-86935743D01*
X160574199Y-86925000D01*
X161072500Y-86925000D01*
X161601290Y-86925000D01*
X161599645Y-86904090D01*
X161599644Y-86904085D01*
X161554532Y-86748808D01*
X161554531Y-86748805D01*
X161496599Y-86650847D01*
X161475858Y-86576560D01*
X161495039Y-86501855D01*
X161496599Y-86499153D01*
X161554531Y-86401194D01*
X161554531Y-86401193D01*
X161599644Y-86245917D01*
X161601290Y-86225000D01*
X161072500Y-86225000D01*
X161072500Y-86925000D01*
X160574199Y-86925000D01*
X160579339Y-86892502D01*
X160578962Y-86892390D01*
X160587168Y-86864937D01*
X160587519Y-86863764D01*
X160587519Y-86863750D01*
X160588558Y-86857879D01*
X160590662Y-86847957D01*
X160596520Y-86824337D01*
X160605500Y-86750811D01*
X160605500Y-86399188D01*
X160596516Y-86325644D01*
X160593865Y-86314954D01*
X160576882Y-86246480D01*
X160572500Y-86210611D01*
X160572500Y-85874000D01*
X160592462Y-85799500D01*
X160647000Y-85744962D01*
X160721500Y-85725000D01*
X161601291Y-85725000D01*
X161612971Y-85712365D01*
X161618129Y-85684539D01*
X161668221Y-85625892D01*
X161740925Y-85600147D01*
X161760203Y-85599881D01*
X161762534Y-85599999D01*
X161812500Y-85599999D01*
X162312500Y-85599999D01*
X162362474Y-85599999D01*
X162465196Y-85589505D01*
X162631621Y-85534357D01*
X162780840Y-85442319D01*
X162904819Y-85318340D01*
X162996857Y-85169121D01*
X163052005Y-85002697D01*
X163052007Y-85002688D01*
X163062499Y-84899989D01*
X163062500Y-84899979D01*
X163062500Y-84625000D01*
X162312500Y-84625000D01*
X162312500Y-85599999D01*
X161812500Y-85599999D01*
X161812500Y-84125000D01*
X162312500Y-84125000D01*
X163062499Y-84125000D01*
X163062499Y-83850026D01*
X163052005Y-83747303D01*
X162996857Y-83580878D01*
X162904819Y-83431659D01*
X162780840Y-83307680D01*
X162631621Y-83215642D01*
X162465197Y-83160494D01*
X162465188Y-83160492D01*
X162362489Y-83150000D01*
X162312500Y-83150000D01*
X162312500Y-84125000D01*
X161812500Y-84125000D01*
X161812500Y-83193795D01*
X161832462Y-83119295D01*
X161856137Y-83088440D01*
X163100437Y-81844141D01*
X163167232Y-81805577D01*
X163205796Y-81800500D01*
X163617335Y-81800500D01*
X163691835Y-81820462D01*
G37*
G04 #@! TD.AperFunction*
G04 #@! TA.AperFunction,Conductor*
G36*
X155962449Y-86525462D02*
G01*
X156016987Y-86580000D01*
X156029424Y-86615829D01*
X156031011Y-86615339D01*
X156035854Y-86631013D01*
X156038775Y-86708086D01*
X156035854Y-86718987D01*
X156034426Y-86723605D01*
X156024500Y-86791731D01*
X156024500Y-86958268D01*
X156034426Y-87026394D01*
X156035854Y-87031013D01*
X156038775Y-87108086D01*
X156035854Y-87118987D01*
X156034426Y-87123605D01*
X156024500Y-87191731D01*
X156024500Y-87358268D01*
X156034426Y-87426394D01*
X156035854Y-87431013D01*
X156038775Y-87508086D01*
X156035854Y-87518987D01*
X156034426Y-87523605D01*
X156024500Y-87591731D01*
X156024500Y-87758268D01*
X156034426Y-87826394D01*
X156035854Y-87831013D01*
X156038775Y-87908086D01*
X156035854Y-87918987D01*
X156034426Y-87923605D01*
X156024500Y-87991731D01*
X156024500Y-88158268D01*
X156034426Y-88226394D01*
X156035854Y-88231013D01*
X156038775Y-88308086D01*
X156035854Y-88318987D01*
X156034426Y-88323605D01*
X156024500Y-88391731D01*
X156024500Y-88558268D01*
X156034426Y-88626394D01*
X156035854Y-88631013D01*
X156038775Y-88708086D01*
X156035854Y-88718987D01*
X156034426Y-88723605D01*
X156024500Y-88791731D01*
X156024500Y-88958268D01*
X156034426Y-89026394D01*
X156035854Y-89031013D01*
X156038775Y-89108086D01*
X156035854Y-89118987D01*
X156034426Y-89123605D01*
X156024500Y-89191731D01*
X156024500Y-89251029D01*
X156004538Y-89325529D01*
X155980859Y-89356388D01*
X155633248Y-89703998D01*
X155566453Y-89742562D01*
X155489325Y-89742562D01*
X155422530Y-89703998D01*
X155401729Y-89677916D01*
X155391660Y-89661892D01*
X154797694Y-90255859D01*
X154730899Y-90294423D01*
X154692335Y-90299500D01*
X154657665Y-90299500D01*
X154583165Y-90279538D01*
X154552306Y-90255859D01*
X154291610Y-89995163D01*
X154525000Y-89995163D01*
X154525000Y-90054837D01*
X154547836Y-90109968D01*
X154590032Y-90152164D01*
X154645163Y-90175000D01*
X154704837Y-90175000D01*
X154759968Y-90152164D01*
X154802164Y-90109968D01*
X154825000Y-90054837D01*
X154825000Y-89995163D01*
X154802164Y-89940032D01*
X154759968Y-89897836D01*
X154704837Y-89875000D01*
X154645163Y-89875000D01*
X154590032Y-89897836D01*
X154547836Y-89940032D01*
X154525000Y-89995163D01*
X154291610Y-89995163D01*
X153958338Y-89661892D01*
X153958337Y-89661892D01*
X153949666Y-89675692D01*
X153949664Y-89675696D01*
X153890122Y-89845859D01*
X153869938Y-90024999D01*
X153869938Y-90025001D01*
X153889444Y-90198122D01*
X153877949Y-90274389D01*
X153829860Y-90334690D01*
X153815890Y-90343838D01*
X153803815Y-90350810D01*
X153803813Y-90350811D01*
X153754087Y-90379519D01*
X153204518Y-90929089D01*
X153204515Y-90929093D01*
X153151793Y-91020410D01*
X153145093Y-91045411D01*
X153145094Y-91045412D01*
X153124500Y-91122267D01*
X153124500Y-91233577D01*
X153104538Y-91308077D01*
X153050000Y-91362615D01*
X152996986Y-91381020D01*
X152973604Y-91384427D01*
X152968987Y-91385854D01*
X152891914Y-91388775D01*
X152881013Y-91385854D01*
X152876394Y-91384427D01*
X152858744Y-91381855D01*
X152787901Y-91351359D01*
X152775597Y-91338824D01*
X152774776Y-91339646D01*
X152767564Y-91332434D01*
X152647095Y-91241079D01*
X152647096Y-91241079D01*
X152506443Y-91185613D01*
X152418060Y-91175000D01*
X152231939Y-91175000D01*
X152143556Y-91185613D01*
X152002903Y-91241079D01*
X151882435Y-91332434D01*
X151875224Y-91339646D01*
X151872542Y-91336964D01*
X151826780Y-91372074D01*
X151791256Y-91381855D01*
X151773604Y-91384427D01*
X151768987Y-91385854D01*
X151691914Y-91388775D01*
X151681013Y-91385854D01*
X151676394Y-91384426D01*
X151608268Y-91374500D01*
X151608260Y-91374500D01*
X151441740Y-91374500D01*
X151441731Y-91374500D01*
X151373605Y-91384426D01*
X151368987Y-91385854D01*
X151291914Y-91388775D01*
X151281013Y-91385854D01*
X151276394Y-91384426D01*
X151208268Y-91374500D01*
X151208260Y-91374500D01*
X151041740Y-91374500D01*
X151041731Y-91374500D01*
X150973605Y-91384426D01*
X150968987Y-91385854D01*
X150891914Y-91388775D01*
X150881013Y-91385854D01*
X150876394Y-91384426D01*
X150808268Y-91374500D01*
X150808260Y-91374500D01*
X150774500Y-91374500D01*
X150700000Y-91354538D01*
X150645462Y-91300000D01*
X150625500Y-91225500D01*
X150625500Y-91191741D01*
X150625499Y-91191731D01*
X150615574Y-91123613D01*
X150615573Y-91123612D01*
X150615573Y-91123607D01*
X150615570Y-91123602D01*
X150614147Y-91118995D01*
X150611222Y-91041922D01*
X150614147Y-91031005D01*
X150615569Y-91026399D01*
X150615573Y-91026393D01*
X150623088Y-90974813D01*
X150625499Y-90958268D01*
X150625500Y-90958258D01*
X150625500Y-90791741D01*
X150625499Y-90791731D01*
X150618204Y-90741661D01*
X151611891Y-90741661D01*
X151625697Y-90750336D01*
X151795858Y-90809877D01*
X151974999Y-90830062D01*
X151975001Y-90830062D01*
X152154140Y-90809877D01*
X152324303Y-90750335D01*
X152324306Y-90750333D01*
X152338107Y-90741661D01*
X152338107Y-90741660D01*
X151975000Y-90378553D01*
X151611891Y-90741661D01*
X150618204Y-90741661D01*
X150615574Y-90723613D01*
X150615573Y-90723612D01*
X150615573Y-90723607D01*
X150615570Y-90723602D01*
X150614147Y-90718995D01*
X150611222Y-90641922D01*
X150614147Y-90631005D01*
X150615569Y-90626399D01*
X150615573Y-90626393D01*
X150625500Y-90558260D01*
X150625500Y-90391740D01*
X150623719Y-90379519D01*
X150615574Y-90323613D01*
X150615573Y-90323612D01*
X150615573Y-90323607D01*
X150615570Y-90323602D01*
X150614147Y-90318995D01*
X150611222Y-90241922D01*
X150614147Y-90231005D01*
X150615569Y-90226399D01*
X150615573Y-90226393D01*
X150618815Y-90204141D01*
X150618979Y-90203018D01*
X150649473Y-90132175D01*
X150711304Y-90086069D01*
X150766422Y-90075500D01*
X150777725Y-90075500D01*
X150777727Y-90075500D01*
X150879588Y-90048207D01*
X150957575Y-90003181D01*
X151032075Y-89983218D01*
X151106575Y-90003180D01*
X151161113Y-90057717D01*
X151180139Y-90115535D01*
X151190122Y-90204140D01*
X151190122Y-90204141D01*
X151249664Y-90374304D01*
X151258337Y-90388106D01*
X151651282Y-89995163D01*
X151825000Y-89995163D01*
X151825000Y-90054837D01*
X151847836Y-90109968D01*
X151890032Y-90152164D01*
X151945163Y-90175000D01*
X152004837Y-90175000D01*
X152059968Y-90152164D01*
X152102164Y-90109968D01*
X152125000Y-90054837D01*
X152125000Y-90024999D01*
X152328553Y-90024999D01*
X152691660Y-90388107D01*
X152691661Y-90388107D01*
X152700333Y-90374306D01*
X152700335Y-90374303D01*
X152759877Y-90204140D01*
X152780062Y-90025000D01*
X152780062Y-90024999D01*
X152759877Y-89845859D01*
X152759877Y-89845858D01*
X152700336Y-89675697D01*
X152691660Y-89661891D01*
X152328553Y-90024999D01*
X152125000Y-90024999D01*
X152125000Y-89995163D01*
X152102164Y-89940032D01*
X152059968Y-89897836D01*
X152004837Y-89875000D01*
X151945163Y-89875000D01*
X151890032Y-89897836D01*
X151847836Y-89940032D01*
X151825000Y-89995163D01*
X151651282Y-89995163D01*
X151975000Y-89671447D01*
X152338107Y-89308337D01*
X154311892Y-89308337D01*
X154311892Y-89308338D01*
X154674999Y-89671445D01*
X155038106Y-89308337D01*
X155038107Y-89308337D01*
X155024303Y-89299664D01*
X155024305Y-89299664D01*
X154854140Y-89240122D01*
X154675001Y-89219938D01*
X154674999Y-89219938D01*
X154495859Y-89240122D01*
X154325696Y-89299664D01*
X154325692Y-89299666D01*
X154311892Y-89308337D01*
X152338107Y-89308337D01*
X152324303Y-89299664D01*
X152324305Y-89299664D01*
X152154140Y-89240122D01*
X151975001Y-89219938D01*
X151975000Y-89219938D01*
X151964791Y-89221088D01*
X151888525Y-89209590D01*
X151828225Y-89161499D01*
X151800049Y-89089702D01*
X151800389Y-89053568D01*
X151800500Y-89052725D01*
X151800500Y-88277131D01*
X151820462Y-88202631D01*
X151875000Y-88148093D01*
X151949500Y-88128131D01*
X151966189Y-88129069D01*
X151974999Y-88130062D01*
X151975001Y-88130062D01*
X152154140Y-88109877D01*
X152324303Y-88050335D01*
X152324306Y-88050333D01*
X152338107Y-88041661D01*
X154311891Y-88041661D01*
X154325697Y-88050336D01*
X154495858Y-88109877D01*
X154674999Y-88130062D01*
X154675001Y-88130062D01*
X154854140Y-88109877D01*
X155024303Y-88050335D01*
X155024306Y-88050333D01*
X155038107Y-88041661D01*
X155038107Y-88041660D01*
X154675000Y-87678553D01*
X154311891Y-88041661D01*
X152338107Y-88041661D01*
X152338107Y-88041660D01*
X151844141Y-87547694D01*
X151805577Y-87480899D01*
X151802413Y-87456867D01*
X151801774Y-87456952D01*
X151800500Y-87447278D01*
X151800500Y-87447273D01*
X151773207Y-87345413D01*
X151773205Y-87345410D01*
X151773205Y-87345408D01*
X151767352Y-87335270D01*
X151756606Y-87295163D01*
X151825000Y-87295163D01*
X151825000Y-87354837D01*
X151847836Y-87409968D01*
X151890032Y-87452164D01*
X151945163Y-87475000D01*
X152004837Y-87475000D01*
X152059968Y-87452164D01*
X152102164Y-87409968D01*
X152125000Y-87354837D01*
X152125000Y-87324999D01*
X152328553Y-87324999D01*
X152691660Y-87688107D01*
X152691661Y-87688107D01*
X152700333Y-87674306D01*
X152700335Y-87674303D01*
X152759877Y-87504140D01*
X152780062Y-87325000D01*
X152780062Y-87324999D01*
X153869938Y-87324999D01*
X153869938Y-87325000D01*
X153890122Y-87504140D01*
X153890122Y-87504141D01*
X153949664Y-87674304D01*
X153958337Y-87688106D01*
X154321445Y-87324999D01*
X154291609Y-87295163D01*
X154525000Y-87295163D01*
X154525000Y-87354837D01*
X154547836Y-87409968D01*
X154590032Y-87452164D01*
X154645163Y-87475000D01*
X154704837Y-87475000D01*
X154759968Y-87452164D01*
X154802164Y-87409968D01*
X154825000Y-87354837D01*
X154825000Y-87324999D01*
X155028553Y-87324999D01*
X155391660Y-87688107D01*
X155391661Y-87688107D01*
X155400333Y-87674306D01*
X155400335Y-87674303D01*
X155459877Y-87504140D01*
X155480062Y-87325000D01*
X155480062Y-87324999D01*
X155459877Y-87145859D01*
X155459877Y-87145858D01*
X155400336Y-86975697D01*
X155391660Y-86961891D01*
X155028553Y-87324999D01*
X154825000Y-87324999D01*
X154825000Y-87295163D01*
X154802164Y-87240032D01*
X154759968Y-87197836D01*
X154704837Y-87175000D01*
X154645163Y-87175000D01*
X154590032Y-87197836D01*
X154547836Y-87240032D01*
X154525000Y-87295163D01*
X154291609Y-87295163D01*
X153958338Y-86961892D01*
X153958337Y-86961892D01*
X153949666Y-86975692D01*
X153949664Y-86975696D01*
X153890122Y-87145859D01*
X153869938Y-87324999D01*
X152780062Y-87324999D01*
X152759877Y-87145859D01*
X152759877Y-87145858D01*
X152700336Y-86975697D01*
X152691660Y-86961891D01*
X152328553Y-87324999D01*
X152125000Y-87324999D01*
X152125000Y-87295163D01*
X152102164Y-87240032D01*
X152059968Y-87197836D01*
X152004837Y-87175000D01*
X151945163Y-87175000D01*
X151890032Y-87197836D01*
X151847836Y-87240032D01*
X151825000Y-87295163D01*
X151756606Y-87295163D01*
X151747391Y-87260770D01*
X151767355Y-87186270D01*
X151791032Y-87155414D01*
X151975000Y-86971447D01*
X152325484Y-86620961D01*
X152392279Y-86582397D01*
X152430843Y-86577320D01*
X154219156Y-86577320D01*
X154293656Y-86597282D01*
X154324515Y-86620961D01*
X154674999Y-86971445D01*
X155025483Y-86620961D01*
X155092278Y-86582397D01*
X155130842Y-86577320D01*
X155475905Y-86577320D01*
X155475907Y-86577320D01*
X155577768Y-86550027D01*
X155620313Y-86525462D01*
X155694813Y-86505500D01*
X155887949Y-86505500D01*
X155962449Y-86525462D01*
G37*
G04 #@! TD.AperFunction*
G04 #@! TA.AperFunction,Conductor*
G36*
X159020000Y-86525462D02*
G01*
X159074538Y-86580000D01*
X159094500Y-86654500D01*
X159094500Y-89125500D01*
X159074538Y-89200000D01*
X159020000Y-89254538D01*
X158945500Y-89274500D01*
X157641422Y-89274500D01*
X157566922Y-89254538D01*
X157512384Y-89200000D01*
X157493979Y-89146982D01*
X157490574Y-89123613D01*
X157490573Y-89123612D01*
X157490573Y-89123607D01*
X157490570Y-89123602D01*
X157489147Y-89118995D01*
X157486222Y-89041922D01*
X157489147Y-89031005D01*
X157490569Y-89026399D01*
X157490573Y-89026393D01*
X157494418Y-89000002D01*
X157500499Y-88958268D01*
X157500500Y-88958258D01*
X157500500Y-88791741D01*
X157500499Y-88791731D01*
X157490574Y-88723613D01*
X157490573Y-88723612D01*
X157490573Y-88723607D01*
X157490570Y-88723602D01*
X157489147Y-88718995D01*
X157486222Y-88641922D01*
X157489147Y-88631005D01*
X157490569Y-88626399D01*
X157490573Y-88626393D01*
X157499090Y-88567940D01*
X157500499Y-88558268D01*
X157500500Y-88558258D01*
X157500500Y-88391741D01*
X157500499Y-88391731D01*
X157490574Y-88323613D01*
X157490573Y-88323612D01*
X157490573Y-88323607D01*
X157490570Y-88323602D01*
X157489147Y-88318995D01*
X157486222Y-88241922D01*
X157489147Y-88231005D01*
X157490569Y-88226399D01*
X157490573Y-88226393D01*
X157494035Y-88202631D01*
X157500499Y-88158268D01*
X157500500Y-88158258D01*
X157500500Y-87991741D01*
X157500499Y-87991731D01*
X157490574Y-87923613D01*
X157490573Y-87923612D01*
X157490573Y-87923607D01*
X157490570Y-87923602D01*
X157489147Y-87918995D01*
X157486222Y-87841922D01*
X157489147Y-87831005D01*
X157490569Y-87826399D01*
X157490573Y-87826393D01*
X157500500Y-87758260D01*
X157500500Y-87591740D01*
X157499118Y-87582258D01*
X157490574Y-87523613D01*
X157490573Y-87523612D01*
X157490573Y-87523607D01*
X157490570Y-87523602D01*
X157489147Y-87518995D01*
X157486222Y-87441922D01*
X157489147Y-87431005D01*
X157490569Y-87426399D01*
X157490573Y-87426393D01*
X157500500Y-87358260D01*
X157500500Y-87191740D01*
X157495207Y-87155414D01*
X157490574Y-87123613D01*
X157490573Y-87123612D01*
X157490573Y-87123607D01*
X157490570Y-87123602D01*
X157489147Y-87118995D01*
X157486222Y-87041922D01*
X157489147Y-87031005D01*
X157490569Y-87026399D01*
X157490573Y-87026393D01*
X157497032Y-86982060D01*
X157500499Y-86958268D01*
X157500500Y-86958258D01*
X157500500Y-86791741D01*
X157500499Y-86791731D01*
X157490574Y-86723613D01*
X157490573Y-86723612D01*
X157490573Y-86723607D01*
X157490570Y-86723602D01*
X157489147Y-86718995D01*
X157486222Y-86641922D01*
X157489147Y-86631005D01*
X157490571Y-86626396D01*
X157490573Y-86626393D01*
X157490573Y-86626388D01*
X157493991Y-86615331D01*
X157496842Y-86616212D01*
X157520100Y-86562178D01*
X157581930Y-86516071D01*
X157637051Y-86505500D01*
X158945500Y-86505500D01*
X159020000Y-86525462D01*
G37*
G04 #@! TD.AperFunction*
G04 #@! TA.AperFunction,Conductor*
G36*
X147489361Y-83578977D02*
G01*
X147505428Y-83592899D01*
X147539735Y-83627206D01*
X147642506Y-83672584D01*
X147642507Y-83672584D01*
X147642509Y-83672585D01*
X147642510Y-83672585D01*
X147652120Y-83675200D01*
X147718765Y-83714022D01*
X147757071Y-83780965D01*
X147762000Y-83818973D01*
X147762000Y-84801000D01*
X147742038Y-84875500D01*
X147687500Y-84930038D01*
X147613000Y-84950000D01*
X147612500Y-84950000D01*
X147612500Y-86276000D01*
X147592538Y-86350500D01*
X147538000Y-86405038D01*
X147463500Y-86425000D01*
X147261500Y-86425000D01*
X147187000Y-86405038D01*
X147132462Y-86350500D01*
X147112500Y-86276000D01*
X147112500Y-84950000D01*
X147062524Y-84950000D01*
X146991614Y-84957244D01*
X146915471Y-84944955D01*
X146855673Y-84896242D01*
X146828244Y-84824156D01*
X146833390Y-84767442D01*
X146839644Y-84745917D01*
X146841290Y-84725000D01*
X145961500Y-84725000D01*
X145887000Y-84705038D01*
X145832462Y-84650500D01*
X145812500Y-84576000D01*
X145812500Y-84374000D01*
X145832462Y-84299500D01*
X145887000Y-84244962D01*
X145961500Y-84225000D01*
X146841290Y-84225000D01*
X146839645Y-84204090D01*
X146839644Y-84204085D01*
X146794532Y-84048808D01*
X146794530Y-84048803D01*
X146780363Y-84024848D01*
X146759621Y-83950561D01*
X146778802Y-83875856D01*
X146832765Y-83820750D01*
X146907052Y-83800008D01*
X146908613Y-83800000D01*
X146935323Y-83800000D01*
X146935342Y-83799998D01*
X146994877Y-83793598D01*
X147129584Y-83743354D01*
X147129594Y-83743349D01*
X147244687Y-83657190D01*
X147244688Y-83657189D01*
X147280788Y-83608966D01*
X147341415Y-83561288D01*
X147417758Y-83550312D01*
X147489361Y-83578977D01*
G37*
G04 #@! TD.AperFunction*
G04 #@! TA.AperFunction,Conductor*
G36*
X153897257Y-72870462D02*
G01*
X153928116Y-72894141D01*
X161751839Y-80717864D01*
X161790403Y-80784659D01*
X161790403Y-80861787D01*
X161751839Y-80928582D01*
X160179859Y-82500562D01*
X160113064Y-82539126D01*
X160035936Y-82539126D01*
X159969141Y-82500562D01*
X159930577Y-82433767D01*
X159925500Y-82395203D01*
X159925500Y-81906899D01*
X159925500Y-81906898D01*
X159914877Y-81818436D01*
X159859361Y-81677658D01*
X159831562Y-81641000D01*
X159767923Y-81557079D01*
X159767920Y-81557076D01*
X159673208Y-81485254D01*
X159625908Y-81424333D01*
X159615405Y-81347923D01*
X159644515Y-81276499D01*
X159688186Y-81241263D01*
X159686736Y-81238913D01*
X159843340Y-81142319D01*
X159967319Y-81018340D01*
X160059357Y-80869121D01*
X160114505Y-80702697D01*
X160114507Y-80702688D01*
X160124999Y-80599989D01*
X160125000Y-80599979D01*
X160125000Y-80550000D01*
X157675001Y-80550000D01*
X157675001Y-80599975D01*
X157675928Y-80609050D01*
X157663639Y-80685193D01*
X157614926Y-80744990D01*
X157542840Y-80772420D01*
X157486132Y-80767275D01*
X157470925Y-80762857D01*
X157470917Y-80762856D01*
X157450000Y-80761209D01*
X157450000Y-81641000D01*
X157430038Y-81715500D01*
X157375500Y-81770038D01*
X157301000Y-81790000D01*
X151557995Y-81790000D01*
X151600466Y-81936190D01*
X151604189Y-81944792D01*
X151602302Y-81945608D01*
X151619706Y-82007940D01*
X151600524Y-82082645D01*
X151546560Y-82137750D01*
X151472273Y-82158491D01*
X151397568Y-82139309D01*
X151365355Y-82114858D01*
X150540496Y-81289999D01*
X151557994Y-81289999D01*
X151557995Y-81290000D01*
X152112500Y-81290000D01*
X152112500Y-80761210D01*
X152112499Y-80761209D01*
X152612500Y-80761209D01*
X152612500Y-81290000D01*
X153312500Y-81290000D01*
X153312500Y-80761210D01*
X153312499Y-80761209D01*
X153812500Y-80761209D01*
X153812500Y-81290000D01*
X154550000Y-81290000D01*
X154550000Y-80761210D01*
X154549999Y-80761209D01*
X155050000Y-80761209D01*
X155050000Y-81290000D01*
X155750000Y-81290000D01*
X155750000Y-80761210D01*
X155749999Y-80761209D01*
X156250000Y-80761209D01*
X156250000Y-81290000D01*
X156950000Y-81290000D01*
X156950000Y-80761210D01*
X156949999Y-80761209D01*
X156929082Y-80762855D01*
X156773806Y-80807968D01*
X156773801Y-80807970D01*
X156675846Y-80865900D01*
X156601559Y-80886641D01*
X156526854Y-80867459D01*
X156524154Y-80865900D01*
X156426198Y-80807970D01*
X156426193Y-80807968D01*
X156270917Y-80762855D01*
X156250000Y-80761209D01*
X155749999Y-80761209D01*
X155729082Y-80762855D01*
X155573806Y-80807968D01*
X155573801Y-80807970D01*
X155475846Y-80865900D01*
X155401559Y-80886641D01*
X155326854Y-80867459D01*
X155324154Y-80865900D01*
X155226198Y-80807970D01*
X155226193Y-80807968D01*
X155070917Y-80762855D01*
X155050000Y-80761209D01*
X154549999Y-80761209D01*
X154529082Y-80762855D01*
X154373806Y-80807968D01*
X154373801Y-80807970D01*
X154257096Y-80876989D01*
X154182809Y-80897730D01*
X154108105Y-80878548D01*
X154105404Y-80876989D01*
X153988698Y-80807970D01*
X153988693Y-80807968D01*
X153833417Y-80762855D01*
X153812500Y-80761209D01*
X153312499Y-80761209D01*
X153291582Y-80762855D01*
X153136306Y-80807968D01*
X153136301Y-80807970D01*
X153038346Y-80865900D01*
X152964059Y-80886641D01*
X152889354Y-80867459D01*
X152886654Y-80865900D01*
X152788698Y-80807970D01*
X152788693Y-80807968D01*
X152633417Y-80762855D01*
X152612500Y-80761209D01*
X152112499Y-80761209D01*
X152091582Y-80762855D01*
X151936306Y-80807968D01*
X151936305Y-80807968D01*
X151797125Y-80890279D01*
X151797123Y-80890280D01*
X151682780Y-81004623D01*
X151682779Y-81004625D01*
X151600466Y-81143809D01*
X151557994Y-81289999D01*
X150540496Y-81289999D01*
X150389516Y-81139019D01*
X149405017Y-80154520D01*
X149405014Y-80154518D01*
X149405010Y-80154515D01*
X149313695Y-80101794D01*
X149313692Y-80101793D01*
X149285264Y-80094176D01*
X149211833Y-80074500D01*
X149211831Y-80074500D01*
X144794087Y-80074500D01*
X144692227Y-80101793D01*
X144602075Y-80153842D01*
X144601603Y-80154114D01*
X144600900Y-80154520D01*
X143892018Y-80863403D01*
X143892015Y-80863407D01*
X143839294Y-80954722D01*
X143819234Y-81029589D01*
X143812000Y-81056586D01*
X143812000Y-82393415D01*
X143839294Y-82495277D01*
X143892015Y-82586592D01*
X143892018Y-82586596D01*
X143892020Y-82586599D01*
X144350901Y-83045480D01*
X144350903Y-83045481D01*
X144350907Y-83045484D01*
X144442222Y-83098205D01*
X144442223Y-83098205D01*
X144442226Y-83098207D01*
X144501564Y-83114106D01*
X144568359Y-83152670D01*
X144606923Y-83219465D01*
X144612000Y-83258028D01*
X144612000Y-83419866D01*
X144614914Y-83444989D01*
X144614915Y-83444992D01*
X144660294Y-83547766D01*
X144668097Y-83559157D01*
X144666632Y-83560160D01*
X144696923Y-83612625D01*
X144702000Y-83651189D01*
X144702000Y-83874560D01*
X144682038Y-83949060D01*
X144653870Y-83980580D01*
X144655396Y-83982106D01*
X144647499Y-83990002D01*
X144568647Y-84096842D01*
X144568647Y-84096843D01*
X144541783Y-84173615D01*
X144498335Y-84237341D01*
X144428844Y-84270805D01*
X144351932Y-84265040D01*
X144295786Y-84229761D01*
X142994141Y-82928116D01*
X142955577Y-82861321D01*
X142950500Y-82822757D01*
X142950500Y-80000010D01*
X157675000Y-80000010D01*
X157675000Y-80050000D01*
X158650000Y-80050000D01*
X159150000Y-80050000D01*
X160124999Y-80050000D01*
X160124999Y-80000026D01*
X160114505Y-79897303D01*
X160059357Y-79730878D01*
X159967319Y-79581659D01*
X159843340Y-79457680D01*
X159694121Y-79365642D01*
X159527697Y-79310494D01*
X159527688Y-79310492D01*
X159424989Y-79300000D01*
X159150000Y-79300000D01*
X159150000Y-80050000D01*
X158650000Y-80050000D01*
X158650000Y-79300000D01*
X158375026Y-79300000D01*
X158272303Y-79310494D01*
X158105878Y-79365642D01*
X157956659Y-79457680D01*
X157832680Y-79581659D01*
X157740642Y-79730878D01*
X157685494Y-79897302D01*
X157685492Y-79897311D01*
X157675000Y-80000010D01*
X142950500Y-80000010D01*
X142950500Y-72999500D01*
X142970462Y-72925000D01*
X143025000Y-72870462D01*
X143099500Y-72850500D01*
X143727525Y-72850500D01*
X153822757Y-72850500D01*
X153897257Y-72870462D01*
G37*
G04 #@! TD.AperFunction*
G04 #@! TA.AperFunction,Conductor*
G36*
X132484757Y-72870462D02*
G01*
X132515616Y-72894141D01*
X133118359Y-73496884D01*
X133156923Y-73563679D01*
X133162000Y-73602243D01*
X133162000Y-73858964D01*
X133142038Y-73933464D01*
X133087500Y-73988002D01*
X133067662Y-73997575D01*
X132990158Y-74028138D01*
X132990158Y-74028139D01*
X132869579Y-74119576D01*
X132869575Y-74119580D01*
X132807430Y-74201530D01*
X132746508Y-74248830D01*
X132670098Y-74259331D01*
X132598675Y-74230221D01*
X132561890Y-74189718D01*
X132479822Y-74056662D01*
X132355840Y-73932680D01*
X132206621Y-73840642D01*
X132040197Y-73785494D01*
X132040188Y-73785492D01*
X131937489Y-73775000D01*
X131662500Y-73775000D01*
X131662500Y-74876000D01*
X131642538Y-74950500D01*
X131588000Y-75005038D01*
X131513500Y-75025000D01*
X131311500Y-75025000D01*
X131237000Y-75005038D01*
X131182462Y-74950500D01*
X131162500Y-74876000D01*
X131162500Y-73775000D01*
X130887526Y-73775000D01*
X130784803Y-73785494D01*
X130618378Y-73840642D01*
X130469159Y-73932680D01*
X130345180Y-74056659D01*
X130263109Y-74189719D01*
X130207008Y-74242648D01*
X130131959Y-74260435D01*
X130058071Y-74238315D01*
X130017568Y-74201529D01*
X129955423Y-74119579D01*
X129955420Y-74119576D01*
X129872451Y-74056659D01*
X129834842Y-74028139D01*
X129770446Y-74002744D01*
X129708464Y-73956842D01*
X129677737Y-73886099D01*
X129686498Y-73809470D01*
X129719748Y-73758776D01*
X130584384Y-72894141D01*
X130651179Y-72855577D01*
X130689743Y-72850500D01*
X132410257Y-72850500D01*
X132484757Y-72870462D01*
G37*
G04 #@! TD.AperFunction*
G04 #@! TA.AperFunction,Conductor*
G36*
X174116143Y-69975678D02*
G01*
X174448210Y-69991992D01*
X174462756Y-69993425D01*
X174787972Y-70041667D01*
X174802313Y-70044519D01*
X175121267Y-70124412D01*
X175135231Y-70128648D01*
X175444812Y-70239419D01*
X175458320Y-70245014D01*
X175755540Y-70385589D01*
X175768419Y-70392473D01*
X176050451Y-70561515D01*
X176062590Y-70569627D01*
X176282413Y-70732659D01*
X176326678Y-70765488D01*
X176337978Y-70774761D01*
X176581606Y-70995573D01*
X176591926Y-71005893D01*
X176812735Y-71249518D01*
X176822011Y-71260821D01*
X177017866Y-71524900D01*
X177025986Y-71537053D01*
X177175808Y-71787016D01*
X177195022Y-71819072D01*
X177201914Y-71831967D01*
X177342484Y-72129178D01*
X177348080Y-72142687D01*
X177458846Y-72452254D01*
X177463091Y-72466247D01*
X177542980Y-72785186D01*
X177545832Y-72799527D01*
X177594073Y-73124740D01*
X177595507Y-73139292D01*
X177611821Y-73471356D01*
X177612000Y-73478667D01*
X177612000Y-125471332D01*
X177611821Y-125478643D01*
X177595507Y-125810707D01*
X177594073Y-125825259D01*
X177545832Y-126150472D01*
X177542980Y-126164813D01*
X177463091Y-126483752D01*
X177458846Y-126497745D01*
X177348080Y-126807312D01*
X177342484Y-126820821D01*
X177201914Y-127118032D01*
X177195022Y-127130927D01*
X177025990Y-127412941D01*
X177017866Y-127425099D01*
X176822011Y-127689178D01*
X176812735Y-127700481D01*
X176591936Y-127944096D01*
X176581596Y-127954436D01*
X176337981Y-128175235D01*
X176326678Y-128184511D01*
X176062599Y-128380366D01*
X176050441Y-128388490D01*
X175768427Y-128557522D01*
X175755532Y-128564414D01*
X175458321Y-128704984D01*
X175444812Y-128710580D01*
X175135245Y-128821346D01*
X175121252Y-128825591D01*
X174802313Y-128905480D01*
X174787972Y-128908332D01*
X174462759Y-128956573D01*
X174448207Y-128958007D01*
X174116144Y-128974321D01*
X174108833Y-128974500D01*
X121116167Y-128974500D01*
X121108856Y-128974321D01*
X120776792Y-128958007D01*
X120762240Y-128956573D01*
X120437027Y-128908332D01*
X120422686Y-128905480D01*
X120103747Y-128825591D01*
X120089754Y-128821346D01*
X119780187Y-128710580D01*
X119766678Y-128704984D01*
X119469467Y-128564414D01*
X119456572Y-128557522D01*
X119391286Y-128518391D01*
X119174553Y-128388486D01*
X119162405Y-128380369D01*
X118898319Y-128184510D01*
X118887018Y-128175235D01*
X118643393Y-127954426D01*
X118633073Y-127944106D01*
X118412261Y-127700478D01*
X118402988Y-127689178D01*
X118303534Y-127555080D01*
X118207127Y-127425090D01*
X118199015Y-127412951D01*
X118029973Y-127130919D01*
X118023085Y-127118032D01*
X117984329Y-127036090D01*
X117882514Y-126820820D01*
X117876919Y-126807312D01*
X117766148Y-126497731D01*
X117761912Y-126483767D01*
X117682019Y-126164813D01*
X117679167Y-126150472D01*
X117630926Y-125825259D01*
X117629492Y-125810707D01*
X117613179Y-125478643D01*
X117613000Y-125471332D01*
X117613000Y-125349038D01*
X119512000Y-125349038D01*
X119512000Y-125600962D01*
X119551410Y-125849785D01*
X119629259Y-126089379D01*
X119743630Y-126313845D01*
X119891707Y-126517656D01*
X120069844Y-126695793D01*
X120273655Y-126843870D01*
X120498121Y-126958241D01*
X120737715Y-127036090D01*
X120986538Y-127075500D01*
X120986543Y-127075500D01*
X121238457Y-127075500D01*
X121238462Y-127075500D01*
X121487285Y-127036090D01*
X121726879Y-126958241D01*
X121951345Y-126843870D01*
X122155156Y-126695793D01*
X122333293Y-126517656D01*
X122481370Y-126313845D01*
X122595741Y-126089379D01*
X122673590Y-125849785D01*
X122713000Y-125600962D01*
X122713000Y-125349038D01*
X172512000Y-125349038D01*
X172512000Y-125600962D01*
X172551410Y-125849785D01*
X172629259Y-126089379D01*
X172743630Y-126313845D01*
X172891707Y-126517656D01*
X173069844Y-126695793D01*
X173273655Y-126843870D01*
X173498121Y-126958241D01*
X173737715Y-127036090D01*
X173986538Y-127075500D01*
X173986543Y-127075500D01*
X174238457Y-127075500D01*
X174238462Y-127075500D01*
X174487285Y-127036090D01*
X174726879Y-126958241D01*
X174951345Y-126843870D01*
X175155156Y-126695793D01*
X175333293Y-126517656D01*
X175481370Y-126313845D01*
X175595741Y-126089379D01*
X175673590Y-125849785D01*
X175713000Y-125600962D01*
X175713000Y-125349038D01*
X175673590Y-125100215D01*
X175595741Y-124860621D01*
X175481370Y-124636155D01*
X175333293Y-124432344D01*
X175155156Y-124254207D01*
X174951345Y-124106130D01*
X174726879Y-123991759D01*
X174487285Y-123913910D01*
X174238462Y-123874500D01*
X173986538Y-123874500D01*
X173779185Y-123907341D01*
X173737714Y-123913910D01*
X173551349Y-123974464D01*
X173498121Y-123991759D01*
X173498115Y-123991761D01*
X173498115Y-123991762D01*
X173273653Y-124106131D01*
X173273652Y-124106131D01*
X173069845Y-124254206D01*
X173069842Y-124254208D01*
X172891708Y-124432342D01*
X172891706Y-124432345D01*
X172743631Y-124636152D01*
X172743631Y-124636153D01*
X172743630Y-124636155D01*
X172629259Y-124860621D01*
X172551410Y-125100215D01*
X172512000Y-125349038D01*
X122713000Y-125349038D01*
X122673590Y-125100215D01*
X122595741Y-124860621D01*
X122481370Y-124636155D01*
X122333293Y-124432344D01*
X122155156Y-124254207D01*
X121951345Y-124106130D01*
X121726879Y-123991759D01*
X121487285Y-123913910D01*
X121238462Y-123874500D01*
X120986538Y-123874500D01*
X120779185Y-123907341D01*
X120737714Y-123913910D01*
X120551349Y-123974464D01*
X120498121Y-123991759D01*
X120498115Y-123991761D01*
X120498115Y-123991762D01*
X120273653Y-124106131D01*
X120273652Y-124106131D01*
X120069845Y-124254206D01*
X120069842Y-124254208D01*
X119891708Y-124432342D01*
X119891706Y-124432345D01*
X119743631Y-124636152D01*
X119743631Y-124636153D01*
X119743630Y-124636155D01*
X119629259Y-124860621D01*
X119551410Y-125100215D01*
X119512000Y-125349038D01*
X117613000Y-125349038D01*
X117613000Y-122331894D01*
X162099500Y-122331894D01*
X162099500Y-123668105D01*
X162110122Y-123756563D01*
X162165638Y-123897341D01*
X162237237Y-123991759D01*
X162257078Y-124017922D01*
X162377658Y-124109361D01*
X162518436Y-124164877D01*
X162606898Y-124175500D01*
X162606899Y-124175500D01*
X163393101Y-124175500D01*
X163393102Y-124175500D01*
X163481564Y-124164877D01*
X163622342Y-124109361D01*
X163742922Y-124017922D01*
X163834361Y-123897342D01*
X163889877Y-123756564D01*
X163897303Y-123694717D01*
X163926004Y-123623131D01*
X163986655Y-123575484D01*
X164063003Y-123564546D01*
X164134592Y-123593247D01*
X164182239Y-123653898D01*
X164182898Y-123655462D01*
X164201988Y-123701550D01*
X164300533Y-123849031D01*
X164300536Y-123849035D01*
X164425965Y-123974464D01*
X164425968Y-123974466D01*
X164573451Y-124073012D01*
X164573453Y-124073013D01*
X164737334Y-124140894D01*
X164911309Y-124175500D01*
X165088691Y-124175500D01*
X165262666Y-124140894D01*
X165426547Y-124073013D01*
X165574035Y-123974464D01*
X165699464Y-123849035D01*
X165761604Y-123756035D01*
X165819592Y-123705182D01*
X165895238Y-123690135D01*
X165968273Y-123714927D01*
X166018252Y-123771170D01*
X166059193Y-123851521D01*
X166059197Y-123851527D01*
X166160966Y-123991600D01*
X166160968Y-123991603D01*
X166283396Y-124114031D01*
X166283399Y-124114033D01*
X166423473Y-124215802D01*
X166577744Y-124294409D01*
X166742411Y-124347912D01*
X166750000Y-124349114D01*
X166750000Y-123280330D01*
X166769745Y-123300075D01*
X166855255Y-123349444D01*
X166950630Y-123375000D01*
X167049370Y-123375000D01*
X167144745Y-123349444D01*
X167230255Y-123300075D01*
X167250000Y-123280330D01*
X167250000Y-124349114D01*
X167257588Y-124347912D01*
X167422255Y-124294409D01*
X167576526Y-124215802D01*
X167576527Y-124215802D01*
X167716600Y-124114033D01*
X167716603Y-124114031D01*
X167839031Y-123991603D01*
X167839033Y-123991600D01*
X167940802Y-123851527D01*
X167940802Y-123851526D01*
X168019409Y-123697253D01*
X168072913Y-123532586D01*
X168100000Y-123361567D01*
X168100000Y-123250000D01*
X167280330Y-123250000D01*
X167300075Y-123230255D01*
X167349444Y-123144745D01*
X167375000Y-123049370D01*
X167375000Y-122950630D01*
X167349444Y-122855255D01*
X167300075Y-122769745D01*
X167280330Y-122750000D01*
X168100000Y-122750000D01*
X168100000Y-122638432D01*
X168072913Y-122467413D01*
X168019409Y-122302746D01*
X167940802Y-122148473D01*
X167940802Y-122148472D01*
X167839033Y-122008399D01*
X167839031Y-122008396D01*
X167716603Y-121885968D01*
X167716600Y-121885966D01*
X167576526Y-121784197D01*
X167422253Y-121705590D01*
X167257586Y-121652086D01*
X167250000Y-121650884D01*
X167250000Y-122719670D01*
X167230255Y-122699925D01*
X167144745Y-122650556D01*
X167049370Y-122625000D01*
X166950630Y-122625000D01*
X166855255Y-122650556D01*
X166769745Y-122699925D01*
X166750000Y-122719670D01*
X166750000Y-121650884D01*
X166749999Y-121650884D01*
X166742414Y-121652086D01*
X166742412Y-121652086D01*
X166577746Y-121705590D01*
X166423473Y-121784197D01*
X166423472Y-121784197D01*
X166283399Y-121885966D01*
X166283396Y-121885968D01*
X166160968Y-122008396D01*
X166160966Y-122008399D01*
X166059197Y-122148472D01*
X166059193Y-122148478D01*
X166018252Y-122228829D01*
X165966643Y-122286146D01*
X165893289Y-122309979D01*
X165817847Y-122293942D01*
X165761604Y-122243963D01*
X165699466Y-122150968D01*
X165699462Y-122150963D01*
X165574036Y-122025537D01*
X165574031Y-122025533D01*
X165426548Y-121926987D01*
X165426546Y-121926986D01*
X165262667Y-121859106D01*
X165262663Y-121859105D01*
X165088691Y-121824500D01*
X164911309Y-121824500D01*
X164737336Y-121859105D01*
X164737332Y-121859106D01*
X164573453Y-121926986D01*
X164573451Y-121926987D01*
X164425968Y-122025533D01*
X164425963Y-122025537D01*
X164300537Y-122150963D01*
X164300533Y-122150968D01*
X164201987Y-122298451D01*
X164201986Y-122298453D01*
X164182897Y-122344538D01*
X164135944Y-122405727D01*
X164064686Y-122435242D01*
X163988218Y-122425173D01*
X163927029Y-122378220D01*
X163897514Y-122306962D01*
X163897316Y-122305385D01*
X163889877Y-122243436D01*
X163834361Y-122102658D01*
X163775878Y-122025537D01*
X163742923Y-121982079D01*
X163742920Y-121982076D01*
X163670274Y-121926987D01*
X163622342Y-121890639D01*
X163622341Y-121890638D01*
X163481563Y-121835122D01*
X163393105Y-121824500D01*
X163393102Y-121824500D01*
X162606898Y-121824500D01*
X162606894Y-121824500D01*
X162518436Y-121835122D01*
X162377658Y-121890638D01*
X162377658Y-121890639D01*
X162257079Y-121982076D01*
X162257076Y-121982079D01*
X162165639Y-122102658D01*
X162165638Y-122102658D01*
X162110122Y-122243436D01*
X162099500Y-122331894D01*
X117613000Y-122331894D01*
X117613000Y-118222822D01*
X121312500Y-118222822D01*
X121312501Y-118222842D01*
X121318901Y-118282377D01*
X121369145Y-118417084D01*
X121369150Y-118417094D01*
X121455309Y-118532187D01*
X121455312Y-118532190D01*
X121570405Y-118618349D01*
X121570415Y-118618354D01*
X121705123Y-118668598D01*
X121705121Y-118668598D01*
X121764657Y-118674998D01*
X121764677Y-118675000D01*
X122712500Y-118675000D01*
X123212500Y-118675000D01*
X124160323Y-118675000D01*
X124160342Y-118674998D01*
X124219877Y-118668598D01*
X124354584Y-118618354D01*
X124354594Y-118618349D01*
X124469687Y-118532190D01*
X124469690Y-118532187D01*
X124555849Y-118417094D01*
X124555854Y-118417084D01*
X124606098Y-118282377D01*
X124612498Y-118222842D01*
X124612500Y-118222822D01*
X135612500Y-118222822D01*
X135612501Y-118222842D01*
X135618901Y-118282377D01*
X135669145Y-118417084D01*
X135669150Y-118417094D01*
X135755309Y-118532187D01*
X135755312Y-118532190D01*
X135870405Y-118618349D01*
X135870415Y-118618354D01*
X136005123Y-118668598D01*
X136005121Y-118668598D01*
X136064657Y-118674998D01*
X136064677Y-118675000D01*
X137012500Y-118675000D01*
X137512500Y-118675000D01*
X138460323Y-118675000D01*
X138460342Y-118674998D01*
X138519877Y-118668598D01*
X138654584Y-118618354D01*
X138654594Y-118618349D01*
X138769687Y-118532190D01*
X138769690Y-118532187D01*
X138855849Y-118417094D01*
X138855854Y-118417084D01*
X138906098Y-118282377D01*
X138912498Y-118222842D01*
X138912500Y-118222822D01*
X138912500Y-117624973D01*
X139987501Y-117624973D01*
X139997994Y-117727696D01*
X140053142Y-117894121D01*
X140145180Y-118043340D01*
X140269159Y-118167319D01*
X140418378Y-118259357D01*
X140584802Y-118314505D01*
X140584811Y-118314507D01*
X140687515Y-118324999D01*
X140962500Y-118324999D01*
X141462500Y-118324999D01*
X141737474Y-118324999D01*
X141840196Y-118314505D01*
X142006621Y-118259357D01*
X142155840Y-118167319D01*
X142279819Y-118043340D01*
X142371857Y-117894121D01*
X142427005Y-117727697D01*
X142427007Y-117727688D01*
X142437499Y-117624989D01*
X142437500Y-117624979D01*
X142437500Y-117575000D01*
X141462500Y-117575000D01*
X141462500Y-118324999D01*
X140962500Y-118324999D01*
X140962500Y-117575000D01*
X139987501Y-117575000D01*
X139987501Y-117624973D01*
X138912500Y-117624973D01*
X138912500Y-117225000D01*
X137512500Y-117225000D01*
X137512500Y-118675000D01*
X137012500Y-118675000D01*
X137012500Y-117225000D01*
X135612500Y-117225000D01*
X135612500Y-118222822D01*
X124612500Y-118222822D01*
X124612500Y-117225000D01*
X123212500Y-117225000D01*
X123212500Y-118675000D01*
X122712500Y-118675000D01*
X122712500Y-117225000D01*
X121312500Y-117225000D01*
X121312500Y-118222822D01*
X117613000Y-118222822D01*
X117613000Y-115727177D01*
X121312500Y-115727177D01*
X121312500Y-116725000D01*
X122712500Y-116725000D01*
X123212500Y-116725000D01*
X124612500Y-116725000D01*
X124612500Y-115727177D01*
X135612500Y-115727177D01*
X135612500Y-116725000D01*
X137012500Y-116725000D01*
X137512500Y-116725000D01*
X138912500Y-116725000D01*
X138912500Y-115727177D01*
X138912498Y-115727157D01*
X138906098Y-115667622D01*
X138855854Y-115532915D01*
X138855849Y-115532905D01*
X138769690Y-115417812D01*
X138769687Y-115417809D01*
X138654594Y-115331650D01*
X138654584Y-115331645D01*
X138519876Y-115281401D01*
X138519878Y-115281401D01*
X138460342Y-115275001D01*
X138460323Y-115275000D01*
X137512500Y-115275000D01*
X137512500Y-116725000D01*
X137012500Y-116725000D01*
X137012500Y-115275000D01*
X136064677Y-115275000D01*
X136064657Y-115275001D01*
X136005122Y-115281401D01*
X135870415Y-115331645D01*
X135870405Y-115331650D01*
X135755312Y-115417809D01*
X135755309Y-115417812D01*
X135669150Y-115532905D01*
X135669145Y-115532915D01*
X135618901Y-115667622D01*
X135612501Y-115727157D01*
X135612500Y-115727177D01*
X124612500Y-115727177D01*
X124612498Y-115727157D01*
X124606098Y-115667622D01*
X124555854Y-115532915D01*
X124555849Y-115532905D01*
X124469690Y-115417812D01*
X124469687Y-115417809D01*
X124354594Y-115331650D01*
X124354584Y-115331645D01*
X124219876Y-115281401D01*
X124219878Y-115281401D01*
X124160342Y-115275001D01*
X124160323Y-115275000D01*
X123212500Y-115275000D01*
X123212500Y-116725000D01*
X122712500Y-116725000D01*
X122712500Y-115275000D01*
X121764677Y-115275000D01*
X121764657Y-115275001D01*
X121705122Y-115281401D01*
X121570415Y-115331645D01*
X121570405Y-115331650D01*
X121455312Y-115417809D01*
X121455309Y-115417812D01*
X121369150Y-115532905D01*
X121369145Y-115532915D01*
X121318901Y-115667622D01*
X121312501Y-115727157D01*
X121312500Y-115727177D01*
X117613000Y-115727177D01*
X117613000Y-110730135D01*
X121512000Y-110730135D01*
X121512000Y-110730136D01*
X121512000Y-110730140D01*
X121512000Y-113219866D01*
X121514914Y-113244989D01*
X121514915Y-113244992D01*
X121560293Y-113347764D01*
X121560294Y-113347765D01*
X121639735Y-113427206D01*
X121742509Y-113472585D01*
X121767635Y-113475500D01*
X124157364Y-113475499D01*
X124157366Y-113475499D01*
X124169927Y-113474042D01*
X124182491Y-113472585D01*
X124285265Y-113427206D01*
X124364706Y-113347765D01*
X124410085Y-113244991D01*
X124413000Y-113219865D01*
X124413000Y-112924500D01*
X124432962Y-112850000D01*
X124487500Y-112795462D01*
X124562000Y-112775500D01*
X135663001Y-112775500D01*
X135737501Y-112795462D01*
X135792039Y-112850000D01*
X135812001Y-112924500D01*
X135812001Y-113219866D01*
X135814914Y-113244989D01*
X135814915Y-113244992D01*
X135860293Y-113347764D01*
X135860294Y-113347765D01*
X135939735Y-113427206D01*
X136042509Y-113472585D01*
X136067635Y-113475500D01*
X137569203Y-113475499D01*
X137643703Y-113495461D01*
X137674562Y-113519140D01*
X138352211Y-114196789D01*
X138483321Y-114284394D01*
X138483323Y-114284395D01*
X138483325Y-114284396D01*
X138520541Y-114299811D01*
X138629003Y-114344738D01*
X138783658Y-114375500D01*
X138941343Y-114375500D01*
X140263000Y-114375500D01*
X140337500Y-114395462D01*
X140392038Y-114450000D01*
X140412000Y-114524500D01*
X140412000Y-114656944D01*
X140392038Y-114731444D01*
X140353035Y-114775664D01*
X140344578Y-114782078D01*
X140344577Y-114782079D01*
X140344575Y-114782081D01*
X140253139Y-114902658D01*
X140253138Y-114902658D01*
X140197622Y-115043436D01*
X140187000Y-115131894D01*
X140187000Y-115718105D01*
X140197622Y-115806563D01*
X140253138Y-115947341D01*
X140338664Y-116060124D01*
X140344578Y-116067922D01*
X140439289Y-116139744D01*
X140439291Y-116139745D01*
X140486591Y-116200666D01*
X140497094Y-116277076D01*
X140467984Y-116348500D01*
X140424323Y-116383751D01*
X140425764Y-116386087D01*
X140269159Y-116482680D01*
X140145180Y-116606659D01*
X140053142Y-116755878D01*
X139997994Y-116922302D01*
X139997992Y-116922311D01*
X139987500Y-117025010D01*
X139987500Y-117075000D01*
X142437499Y-117075000D01*
X142437499Y-117025026D01*
X142427005Y-116922303D01*
X142371857Y-116755878D01*
X142279819Y-116606659D01*
X142155840Y-116482680D01*
X141999236Y-116386087D01*
X142000835Y-116383493D01*
X141953690Y-116343939D01*
X141927307Y-116271463D01*
X141940696Y-116195506D01*
X141985706Y-116139747D01*
X142080422Y-116067922D01*
X142171861Y-115947342D01*
X142227377Y-115806564D01*
X142238000Y-115718102D01*
X142238000Y-115131898D01*
X142227377Y-115043436D01*
X142171861Y-114902658D01*
X142080422Y-114782078D01*
X142071965Y-114775664D01*
X142024668Y-114714744D01*
X142013000Y-114656944D01*
X142013000Y-114334561D01*
X142032962Y-114260061D01*
X142049396Y-114238645D01*
X142049263Y-114238544D01*
X142055847Y-114229861D01*
X142146861Y-114109842D01*
X142202377Y-113969064D01*
X142213000Y-113880602D01*
X142213000Y-113269398D01*
X142207858Y-113226579D01*
X142218795Y-113150231D01*
X142250433Y-113103458D01*
X144333645Y-111020245D01*
X144333650Y-111020242D01*
X144345911Y-111007980D01*
X144345913Y-111007980D01*
X144420480Y-110933413D01*
X144473207Y-110842087D01*
X144500501Y-110740227D01*
X144500501Y-110634773D01*
X144500501Y-110625645D01*
X144500500Y-110625627D01*
X144500500Y-104147822D01*
X145525000Y-104147822D01*
X145525001Y-104147842D01*
X145531401Y-104207377D01*
X145581645Y-104342084D01*
X145581650Y-104342094D01*
X145667809Y-104457187D01*
X145667812Y-104457190D01*
X145782905Y-104543349D01*
X145782915Y-104543354D01*
X145917623Y-104593598D01*
X145917621Y-104593598D01*
X145977157Y-104599998D01*
X145977177Y-104600000D01*
X146400000Y-104600000D01*
X146900000Y-104600000D01*
X147322823Y-104600000D01*
X147322842Y-104599998D01*
X147382377Y-104593598D01*
X147517084Y-104543354D01*
X147517094Y-104543349D01*
X147632187Y-104457190D01*
X147632190Y-104457187D01*
X147718349Y-104342094D01*
X147718354Y-104342084D01*
X147768598Y-104207377D01*
X147774998Y-104147842D01*
X147775000Y-104147822D01*
X147775000Y-103850000D01*
X146900000Y-103850000D01*
X146900000Y-104600000D01*
X146400000Y-104600000D01*
X146400000Y-103850000D01*
X145525000Y-103850000D01*
X145525000Y-104147822D01*
X144500500Y-104147822D01*
X144500500Y-103052177D01*
X145525000Y-103052177D01*
X145525000Y-103350000D01*
X146400000Y-103350000D01*
X146900000Y-103350000D01*
X147775000Y-103350000D01*
X147775000Y-103052177D01*
X147774998Y-103052157D01*
X147768598Y-102992622D01*
X147718354Y-102857915D01*
X147718349Y-102857905D01*
X147632190Y-102742812D01*
X147632187Y-102742809D01*
X147517094Y-102656650D01*
X147517084Y-102656645D01*
X147382376Y-102606401D01*
X147382378Y-102606401D01*
X147322842Y-102600001D01*
X147322823Y-102600000D01*
X146900000Y-102600000D01*
X146900000Y-103350000D01*
X146400000Y-103350000D01*
X146400000Y-102600000D01*
X145977177Y-102600000D01*
X145977157Y-102600001D01*
X145917622Y-102606401D01*
X145782915Y-102656645D01*
X145782905Y-102656650D01*
X145667812Y-102742809D01*
X145667809Y-102742812D01*
X145581650Y-102857905D01*
X145581645Y-102857915D01*
X145531401Y-102992622D01*
X145525001Y-103052157D01*
X145525000Y-103052177D01*
X144500500Y-103052177D01*
X144500500Y-92487601D01*
X144520462Y-92413101D01*
X144575000Y-92358563D01*
X144649500Y-92338601D01*
X144724000Y-92358563D01*
X144778538Y-92413101D01*
X144822017Y-92488409D01*
X144822018Y-92488410D01*
X144822020Y-92488413D01*
X148311335Y-95977727D01*
X150876129Y-98542521D01*
X150914693Y-98609316D01*
X150914693Y-98686444D01*
X150876129Y-98753239D01*
X150809334Y-98791803D01*
X150790218Y-98795605D01*
X150643242Y-98814954D01*
X150497159Y-98875463D01*
X150371718Y-98971717D01*
X150371717Y-98971718D01*
X150275463Y-99097159D01*
X150214954Y-99243242D01*
X150194318Y-99399997D01*
X150194318Y-99400002D01*
X150214954Y-99556757D01*
X150275462Y-99702838D01*
X150275463Y-99702840D01*
X150275464Y-99702841D01*
X150368711Y-99824364D01*
X150398225Y-99895617D01*
X150399500Y-99915066D01*
X150399500Y-102343415D01*
X150426794Y-102445277D01*
X150479515Y-102536592D01*
X150479518Y-102536596D01*
X150479520Y-102536599D01*
X165588832Y-117645910D01*
X165588834Y-117645913D01*
X165663401Y-117720480D01*
X165709061Y-117746841D01*
X165709063Y-117746843D01*
X165747240Y-117768884D01*
X165754726Y-117773207D01*
X165856587Y-117800500D01*
X165962041Y-117800500D01*
X173500501Y-117800500D01*
X173575001Y-117820462D01*
X173629539Y-117875000D01*
X173649501Y-117949500D01*
X173649501Y-118243100D01*
X173660123Y-118331560D01*
X173660125Y-118331567D01*
X173715638Y-118472339D01*
X173715638Y-118472341D01*
X173715639Y-118472342D01*
X173807078Y-118592922D01*
X173927658Y-118684361D01*
X174068436Y-118739876D01*
X174156901Y-118750500D01*
X175843098Y-118750499D01*
X175931564Y-118739876D01*
X176072342Y-118684361D01*
X176192922Y-118592922D01*
X176284361Y-118472342D01*
X176339876Y-118331564D01*
X176350500Y-118243099D01*
X176350499Y-116556902D01*
X176339876Y-116468436D01*
X176284361Y-116327658D01*
X176192922Y-116207078D01*
X176192920Y-116207076D01*
X176104129Y-116139744D01*
X176072342Y-116115639D01*
X176072340Y-116115638D01*
X175931565Y-116060124D01*
X175931560Y-116060123D01*
X175859704Y-116051494D01*
X175843099Y-116049500D01*
X175843098Y-116049500D01*
X174156905Y-116049500D01*
X174156899Y-116049501D01*
X174068439Y-116060123D01*
X174068432Y-116060125D01*
X173927660Y-116115638D01*
X173927658Y-116115638D01*
X173807079Y-116207076D01*
X173807076Y-116207079D01*
X173715638Y-116327658D01*
X173715638Y-116327660D01*
X173660124Y-116468434D01*
X173660123Y-116468439D01*
X173649500Y-116556900D01*
X173649500Y-116850500D01*
X173629538Y-116925000D01*
X173575000Y-116979538D01*
X173500500Y-116999500D01*
X166136924Y-116999500D01*
X166062424Y-116979538D01*
X166031565Y-116955859D01*
X162530565Y-113454859D01*
X162492001Y-113388064D01*
X162492001Y-113310936D01*
X162530565Y-113244141D01*
X162597360Y-113205577D01*
X162635924Y-113200500D01*
X173601720Y-113200500D01*
X173676220Y-113220462D01*
X173730758Y-113275000D01*
X173736756Y-113286522D01*
X173825965Y-113477830D01*
X173961505Y-113671401D01*
X174128599Y-113838495D01*
X174322170Y-113974035D01*
X174536337Y-114073903D01*
X174764592Y-114135063D01*
X175000000Y-114155659D01*
X175235408Y-114135063D01*
X175463663Y-114073903D01*
X175677830Y-113974035D01*
X175871401Y-113838495D01*
X176038495Y-113671401D01*
X176174035Y-113477830D01*
X176273903Y-113263663D01*
X176335063Y-113035408D01*
X176355659Y-112800000D01*
X176335063Y-112564592D01*
X176273903Y-112336337D01*
X176174035Y-112122171D01*
X176038495Y-111928599D01*
X175871401Y-111761505D01*
X175677830Y-111625965D01*
X175463663Y-111526097D01*
X175463661Y-111526096D01*
X175235409Y-111464937D01*
X175000000Y-111444341D01*
X174764590Y-111464937D01*
X174536340Y-111526096D01*
X174536339Y-111526096D01*
X174536337Y-111526097D01*
X174322171Y-111625965D01*
X174322168Y-111625966D01*
X174322168Y-111625967D01*
X174128596Y-111761507D01*
X173961507Y-111928596D01*
X173825966Y-112122169D01*
X173825965Y-112122170D01*
X173815756Y-112144064D01*
X173736759Y-112313472D01*
X173687184Y-112372554D01*
X173614707Y-112398933D01*
X173601721Y-112399500D01*
X162102610Y-112399500D01*
X162028110Y-112379538D01*
X161997251Y-112355859D01*
X157841393Y-108200000D01*
X173445207Y-108200000D01*
X173464349Y-108443226D01*
X173464350Y-108443230D01*
X173521305Y-108680459D01*
X173614667Y-108905858D01*
X173614670Y-108905863D01*
X173738503Y-109107941D01*
X174476211Y-108370232D01*
X174487482Y-108412292D01*
X174559890Y-108537708D01*
X174662292Y-108640110D01*
X174787708Y-108712518D01*
X174829765Y-108723787D01*
X174092058Y-109461494D01*
X174294142Y-109585332D01*
X174294141Y-109585332D01*
X174519540Y-109678694D01*
X174756769Y-109735649D01*
X174756773Y-109735650D01*
X175000000Y-109754792D01*
X175243226Y-109735650D01*
X175243230Y-109735649D01*
X175480459Y-109678694D01*
X175705858Y-109585332D01*
X175907941Y-109461495D01*
X175170234Y-108723787D01*
X175212292Y-108712518D01*
X175337708Y-108640110D01*
X175440110Y-108537708D01*
X175512518Y-108412292D01*
X175523787Y-108370233D01*
X176261495Y-109107941D01*
X176385332Y-108905858D01*
X176478694Y-108680459D01*
X176535649Y-108443230D01*
X176535650Y-108443226D01*
X176554792Y-108200000D01*
X176535650Y-107956773D01*
X176535649Y-107956769D01*
X176478694Y-107719540D01*
X176385332Y-107494141D01*
X176261494Y-107292058D01*
X175523787Y-108029764D01*
X175512518Y-107987708D01*
X175440110Y-107862292D01*
X175337708Y-107759890D01*
X175212292Y-107687482D01*
X175170232Y-107676211D01*
X175907941Y-106938503D01*
X175705863Y-106814670D01*
X175705858Y-106814667D01*
X175480459Y-106721305D01*
X175243230Y-106664350D01*
X175243226Y-106664349D01*
X175000000Y-106645207D01*
X174756773Y-106664349D01*
X174756769Y-106664350D01*
X174519540Y-106721305D01*
X174294141Y-106814667D01*
X174294136Y-106814670D01*
X174092057Y-106938503D01*
X174829766Y-107676212D01*
X174787708Y-107687482D01*
X174662292Y-107759890D01*
X174559890Y-107862292D01*
X174487482Y-107987708D01*
X174476212Y-108029766D01*
X173738503Y-107292057D01*
X173614670Y-107494136D01*
X173614667Y-107494141D01*
X173521305Y-107719540D01*
X173464350Y-107956769D01*
X173464349Y-107956773D01*
X173445207Y-108200000D01*
X157841393Y-108200000D01*
X154296251Y-104654858D01*
X154257687Y-104588063D01*
X154257687Y-104510935D01*
X154296251Y-104444140D01*
X154363046Y-104405576D01*
X154401610Y-104400499D01*
X155069867Y-104400499D01*
X155084940Y-104398750D01*
X155094991Y-104397585D01*
X155197765Y-104352206D01*
X155277206Y-104272765D01*
X155322585Y-104169991D01*
X155325500Y-104144865D01*
X155325499Y-103202609D01*
X155345461Y-103128110D01*
X155369136Y-103097255D01*
X156418990Y-102047401D01*
X156485783Y-102008839D01*
X156504899Y-102005037D01*
X156531052Y-102001594D01*
X156607520Y-102011661D01*
X156668710Y-102058614D01*
X156698225Y-102129871D01*
X156699500Y-102149319D01*
X156699500Y-102650500D01*
X156679538Y-102725000D01*
X156625000Y-102779538D01*
X156550501Y-102799500D01*
X156380133Y-102799500D01*
X156355010Y-102802414D01*
X156355007Y-102802415D01*
X156252235Y-102847793D01*
X156172793Y-102927235D01*
X156127416Y-103030005D01*
X156127415Y-103030008D01*
X156127415Y-103030009D01*
X156124500Y-103055135D01*
X156124500Y-103055136D01*
X156124500Y-103055140D01*
X156124500Y-104144866D01*
X156127414Y-104169989D01*
X156127415Y-104169992D01*
X156172793Y-104272764D01*
X156172794Y-104272765D01*
X156252235Y-104352206D01*
X156355009Y-104397585D01*
X156380135Y-104400500D01*
X157719864Y-104400499D01*
X157719866Y-104400499D01*
X157732427Y-104399042D01*
X157744991Y-104397585D01*
X157847765Y-104352206D01*
X157927206Y-104272765D01*
X157972585Y-104169991D01*
X157975157Y-104147822D01*
X163675000Y-104147822D01*
X163675001Y-104147842D01*
X163681401Y-104207377D01*
X163731645Y-104342084D01*
X163731650Y-104342094D01*
X163817809Y-104457187D01*
X163817812Y-104457190D01*
X163932905Y-104543349D01*
X163932915Y-104543354D01*
X164067623Y-104593598D01*
X164067621Y-104593598D01*
X164127157Y-104599998D01*
X164127177Y-104600000D01*
X164550000Y-104600000D01*
X165050000Y-104600000D01*
X165472823Y-104600000D01*
X165472842Y-104599998D01*
X165532377Y-104593598D01*
X165667084Y-104543354D01*
X165667094Y-104543349D01*
X165782187Y-104457190D01*
X165782190Y-104457187D01*
X165868349Y-104342094D01*
X165868354Y-104342084D01*
X165918598Y-104207377D01*
X165924998Y-104147842D01*
X165925000Y-104147822D01*
X165925000Y-103850000D01*
X165050000Y-103850000D01*
X165050000Y-104600000D01*
X164550000Y-104600000D01*
X164550000Y-103850000D01*
X163675000Y-103850000D01*
X163675000Y-104147822D01*
X157975157Y-104147822D01*
X157975500Y-104144865D01*
X157975499Y-103055136D01*
X157975156Y-103052177D01*
X163675000Y-103052177D01*
X163675000Y-103350000D01*
X164550000Y-103350000D01*
X165050000Y-103350000D01*
X165925000Y-103350000D01*
X165925000Y-103052177D01*
X165924998Y-103052157D01*
X165918598Y-102992622D01*
X165868354Y-102857915D01*
X165868349Y-102857905D01*
X165782190Y-102742812D01*
X165782187Y-102742809D01*
X165667094Y-102656650D01*
X165667084Y-102656645D01*
X165532376Y-102606401D01*
X165532378Y-102606401D01*
X165472842Y-102600001D01*
X165472823Y-102600000D01*
X165050000Y-102600000D01*
X165050000Y-103350000D01*
X164550000Y-103350000D01*
X164550000Y-102600000D01*
X164127177Y-102600000D01*
X164127157Y-102600001D01*
X164067622Y-102606401D01*
X163932915Y-102656645D01*
X163932905Y-102656650D01*
X163817812Y-102742809D01*
X163817809Y-102742812D01*
X163731650Y-102857905D01*
X163731645Y-102857915D01*
X163681401Y-102992622D01*
X163675001Y-103052157D01*
X163675000Y-103052177D01*
X157975156Y-103052177D01*
X157972585Y-103030009D01*
X157927206Y-102927235D01*
X157847765Y-102847794D01*
X157847764Y-102847793D01*
X157744994Y-102802416D01*
X157744991Y-102802415D01*
X157744982Y-102802414D01*
X157719865Y-102799500D01*
X157719859Y-102799500D01*
X157649500Y-102799500D01*
X157575000Y-102779538D01*
X157520462Y-102725000D01*
X157500500Y-102650500D01*
X157500500Y-101064744D01*
X157500501Y-101064731D01*
X157500501Y-100947276D01*
X157500501Y-100947273D01*
X157473207Y-100845413D01*
X157420480Y-100754087D01*
X157345913Y-100679520D01*
X157345910Y-100679518D01*
X155980883Y-99314491D01*
X155942319Y-99247696D01*
X155942319Y-99170568D01*
X155980883Y-99103773D01*
X156026055Y-99072830D01*
X156072765Y-99052206D01*
X156152206Y-98972765D01*
X156197585Y-98869991D01*
X156200157Y-98847822D01*
X157600000Y-98847822D01*
X157600001Y-98847842D01*
X157606401Y-98907377D01*
X157656645Y-99042084D01*
X157656650Y-99042094D01*
X157742809Y-99157187D01*
X157742812Y-99157190D01*
X157857905Y-99243349D01*
X157857915Y-99243354D01*
X157992623Y-99293598D01*
X157992621Y-99293598D01*
X158052157Y-99299998D01*
X158052177Y-99300000D01*
X158750000Y-99300000D01*
X159250000Y-99300000D01*
X159947823Y-99300000D01*
X159947842Y-99299998D01*
X160007377Y-99293598D01*
X160142084Y-99243354D01*
X160142094Y-99243349D01*
X160257187Y-99157190D01*
X160257190Y-99157187D01*
X160343349Y-99042094D01*
X160343354Y-99042084D01*
X160393598Y-98907377D01*
X160399998Y-98847842D01*
X160400000Y-98847822D01*
X160400000Y-98450000D01*
X159250000Y-98450000D01*
X159250000Y-99300000D01*
X158750000Y-99300000D01*
X158750000Y-98450000D01*
X157600000Y-98450000D01*
X157600000Y-98847822D01*
X156200157Y-98847822D01*
X156200500Y-98844865D01*
X156200499Y-97555136D01*
X156200156Y-97552177D01*
X157600000Y-97552177D01*
X157600000Y-97950000D01*
X158750000Y-97950000D01*
X159250000Y-97950000D01*
X160400000Y-97950000D01*
X160400000Y-97552177D01*
X160399998Y-97552157D01*
X160393598Y-97492622D01*
X160343354Y-97357915D01*
X160343349Y-97357905D01*
X160257190Y-97242812D01*
X160257187Y-97242809D01*
X160142094Y-97156650D01*
X160142084Y-97156645D01*
X160007376Y-97106401D01*
X160007378Y-97106401D01*
X159947842Y-97100001D01*
X159947823Y-97100000D01*
X159250000Y-97100000D01*
X159250000Y-97950000D01*
X158750000Y-97950000D01*
X158750000Y-97100000D01*
X158052177Y-97100000D01*
X158052157Y-97100001D01*
X157992622Y-97106401D01*
X157857915Y-97156645D01*
X157857905Y-97156650D01*
X157742812Y-97242809D01*
X157742809Y-97242812D01*
X157656650Y-97357905D01*
X157656645Y-97357915D01*
X157606401Y-97492622D01*
X157600001Y-97552157D01*
X157600000Y-97552177D01*
X156200156Y-97552177D01*
X156197585Y-97530009D01*
X156152206Y-97427235D01*
X156072765Y-97347794D01*
X156072764Y-97347793D01*
X155969994Y-97302416D01*
X155969991Y-97302415D01*
X155944865Y-97299500D01*
X155944859Y-97299500D01*
X154727611Y-97299500D01*
X154653111Y-97279538D01*
X154622252Y-97255859D01*
X154520752Y-97154359D01*
X154482188Y-97087564D01*
X154482188Y-97010436D01*
X154520752Y-96943641D01*
X154587547Y-96905077D01*
X154626111Y-96900000D01*
X154750000Y-96900000D01*
X155250000Y-96900000D01*
X155947823Y-96900000D01*
X155947842Y-96899998D01*
X156007377Y-96893598D01*
X156142084Y-96843354D01*
X156142094Y-96843349D01*
X156257187Y-96757190D01*
X156257190Y-96757187D01*
X156343349Y-96642094D01*
X156343354Y-96642084D01*
X156393598Y-96507377D01*
X156399998Y-96447842D01*
X156400000Y-96447822D01*
X156400000Y-96050000D01*
X155250000Y-96050000D01*
X155250000Y-96900000D01*
X154750000Y-96900000D01*
X154750000Y-96050000D01*
X153590076Y-96050000D01*
X153546758Y-96075009D01*
X153469630Y-96075007D01*
X153402837Y-96036444D01*
X153169141Y-95802748D01*
X153130577Y-95735953D01*
X153125500Y-95697389D01*
X153125500Y-94351611D01*
X153145462Y-94277111D01*
X153200000Y-94222573D01*
X153274500Y-94202611D01*
X153349000Y-94222573D01*
X153379859Y-94246252D01*
X153754817Y-94621210D01*
X153793381Y-94688005D01*
X153793381Y-94765133D01*
X153754817Y-94831928D01*
X153746398Y-94839223D01*
X153742809Y-94842812D01*
X153656650Y-94957905D01*
X153656645Y-94957915D01*
X153606401Y-95092622D01*
X153600001Y-95152157D01*
X153600000Y-95152177D01*
X153600000Y-95550000D01*
X156400000Y-95550000D01*
X156400000Y-95149500D01*
X156419962Y-95075000D01*
X156474500Y-95020462D01*
X156549000Y-95000500D01*
X157650577Y-95000500D01*
X157725077Y-95020462D01*
X157779615Y-95075000D01*
X157799577Y-95149500D01*
X157799500Y-95152169D01*
X157799500Y-96444866D01*
X157802414Y-96469989D01*
X157802415Y-96469992D01*
X157847793Y-96572764D01*
X157847794Y-96572765D01*
X157927235Y-96652206D01*
X158030009Y-96697585D01*
X158055135Y-96700500D01*
X159944864Y-96700499D01*
X159944866Y-96700499D01*
X159957427Y-96699042D01*
X159969991Y-96697585D01*
X160072765Y-96652206D01*
X160152206Y-96572765D01*
X160182293Y-96504624D01*
X160202112Y-96459739D01*
X160203496Y-96460350D01*
X160236144Y-96404300D01*
X160303086Y-96365992D01*
X160380213Y-96366287D01*
X160446860Y-96405106D01*
X160485168Y-96472048D01*
X160489615Y-96501734D01*
X160489772Y-96501722D01*
X160489946Y-96503944D01*
X160489983Y-96504186D01*
X160490000Y-96504624D01*
X160492854Y-96540911D01*
X160537967Y-96696191D01*
X160537968Y-96696194D01*
X160620279Y-96835374D01*
X160620280Y-96835376D01*
X160734623Y-96949719D01*
X160734625Y-96949720D01*
X160873805Y-97032031D01*
X160873808Y-97032032D01*
X161029085Y-97077144D01*
X161029090Y-97077145D01*
X161050000Y-97078790D01*
X161550000Y-97078790D01*
X161570909Y-97077145D01*
X161570914Y-97077144D01*
X161726191Y-97032032D01*
X161726194Y-97032031D01*
X161865374Y-96949720D01*
X161865376Y-96949719D01*
X161979719Y-96835376D01*
X161979720Y-96835374D01*
X162062033Y-96696190D01*
X162104505Y-96550000D01*
X161550000Y-96550000D01*
X161550000Y-97078790D01*
X161050000Y-97078790D01*
X161050000Y-96218111D01*
X161069962Y-96143611D01*
X161093641Y-96112752D01*
X161112752Y-96093641D01*
X161179547Y-96055077D01*
X161218111Y-96050000D01*
X162104505Y-96050000D01*
X162104505Y-96049999D01*
X162062033Y-95903809D01*
X161979720Y-95764625D01*
X161979719Y-95764622D01*
X161940266Y-95725169D01*
X161901703Y-95658373D01*
X161901703Y-95581245D01*
X161904989Y-95570596D01*
X161905916Y-95567943D01*
X161907710Y-95562819D01*
X161910500Y-95533066D01*
X161910500Y-95146934D01*
X161907710Y-95117181D01*
X161863852Y-94991843D01*
X161784999Y-94885001D01*
X161678157Y-94806148D01*
X161552819Y-94762290D01*
X161552816Y-94762289D01*
X161552814Y-94762289D01*
X161523074Y-94759500D01*
X161523066Y-94759500D01*
X161076934Y-94759500D01*
X161076925Y-94759500D01*
X161047185Y-94762289D01*
X161047182Y-94762289D01*
X161047181Y-94762290D01*
X160921843Y-94806148D01*
X160815001Y-94885001D01*
X160736148Y-94991843D01*
X160731306Y-95005682D01*
X160692289Y-95117185D01*
X160689500Y-95146925D01*
X160689500Y-95250500D01*
X160669538Y-95325000D01*
X160615000Y-95379538D01*
X160540500Y-95399500D01*
X160349499Y-95399500D01*
X160274999Y-95379538D01*
X160220461Y-95325000D01*
X160200499Y-95250500D01*
X160200499Y-95155133D01*
X160197585Y-95130010D01*
X160197584Y-95130007D01*
X160152206Y-95027235D01*
X160072764Y-94947793D01*
X159969994Y-94902416D01*
X159969991Y-94902415D01*
X159944865Y-94899500D01*
X159944859Y-94899500D01*
X159549500Y-94899500D01*
X159475000Y-94879538D01*
X159420462Y-94825000D01*
X159400500Y-94750500D01*
X159400500Y-94727610D01*
X159420462Y-94653110D01*
X159444138Y-94622254D01*
X159602252Y-94464139D01*
X159669047Y-94425576D01*
X159707611Y-94420499D01*
X159787453Y-94420499D01*
X159787456Y-94420499D01*
X159816879Y-94417741D01*
X159867580Y-94400000D01*
X159940792Y-94374382D01*
X159940794Y-94374381D01*
X159971646Y-94351611D01*
X160046423Y-94296423D01*
X160124381Y-94190794D01*
X160167741Y-94066879D01*
X160170500Y-94037457D01*
X160170499Y-93562544D01*
X160167741Y-93533121D01*
X160148358Y-93477727D01*
X160138205Y-93448712D01*
X160132442Y-93371799D01*
X160165906Y-93302309D01*
X160229632Y-93258861D01*
X160278844Y-93250500D01*
X162672475Y-93250500D01*
X162812485Y-93212984D01*
X162841168Y-93196424D01*
X162938015Y-93140510D01*
X163540510Y-92538015D01*
X164440510Y-91638015D01*
X164512984Y-91512485D01*
X164516329Y-91500000D01*
X164550500Y-91372475D01*
X164550500Y-82869795D01*
X164561842Y-82812775D01*
X164585044Y-82756762D01*
X164589576Y-82722342D01*
X164605682Y-82600002D01*
X164605682Y-82599997D01*
X164585045Y-82443242D01*
X164585044Y-82443240D01*
X164585044Y-82443238D01*
X164524536Y-82297159D01*
X164428282Y-82171718D01*
X164402380Y-82151843D01*
X164295093Y-82069519D01*
X164296852Y-82067226D01*
X164253624Y-82023995D01*
X164233665Y-81949494D01*
X164253630Y-81874995D01*
X164308170Y-81820459D01*
X164382665Y-81800500D01*
X167000501Y-81800500D01*
X167075001Y-81820462D01*
X167129539Y-81875000D01*
X167149501Y-81949500D01*
X167149501Y-82343108D01*
X167160122Y-82431560D01*
X167160124Y-82431569D01*
X167177252Y-82475000D01*
X167187703Y-82501503D01*
X167189111Y-82505072D01*
X167199500Y-82559734D01*
X167199500Y-99078842D01*
X167230262Y-99233494D01*
X167230263Y-99233498D01*
X167290604Y-99379176D01*
X167290605Y-99379178D01*
X167290606Y-99379179D01*
X167378211Y-99510289D01*
X167378214Y-99510292D01*
X169605859Y-101737937D01*
X169644423Y-101804732D01*
X169649500Y-101843296D01*
X169649500Y-102843094D01*
X169649501Y-102843100D01*
X169660123Y-102931560D01*
X169660123Y-102931563D01*
X169660124Y-102931564D01*
X169708855Y-103055140D01*
X169715638Y-103072339D01*
X169715638Y-103072341D01*
X169807076Y-103192920D01*
X169807079Y-103192923D01*
X169828755Y-103209360D01*
X169927658Y-103284361D01*
X170068436Y-103339876D01*
X170156901Y-103350500D01*
X171843098Y-103350499D01*
X171931564Y-103339876D01*
X172072342Y-103284361D01*
X172192922Y-103192922D01*
X172284361Y-103072342D01*
X172339876Y-102931564D01*
X172350500Y-102843099D01*
X172350499Y-101156902D01*
X172350499Y-101156900D01*
X173649500Y-101156900D01*
X173649500Y-102843094D01*
X173649501Y-102843100D01*
X173660123Y-102931560D01*
X173660123Y-102931563D01*
X173660124Y-102931564D01*
X173708855Y-103055140D01*
X173715638Y-103072339D01*
X173715638Y-103072341D01*
X173807076Y-103192920D01*
X173807079Y-103192923D01*
X173828755Y-103209360D01*
X173927658Y-103284361D01*
X174068436Y-103339876D01*
X174156901Y-103350500D01*
X175843098Y-103350499D01*
X175931564Y-103339876D01*
X176072342Y-103284361D01*
X176192922Y-103192922D01*
X176284361Y-103072342D01*
X176339876Y-102931564D01*
X176350500Y-102843099D01*
X176350499Y-101156902D01*
X176339876Y-101068436D01*
X176284361Y-100927658D01*
X176243698Y-100874036D01*
X176192923Y-100807079D01*
X176192920Y-100807076D01*
X176123042Y-100754086D01*
X176072342Y-100715639D01*
X176072340Y-100715638D01*
X175931565Y-100660124D01*
X175931560Y-100660123D01*
X175859704Y-100651494D01*
X175843099Y-100649500D01*
X175843098Y-100649500D01*
X174156905Y-100649500D01*
X174156899Y-100649501D01*
X174068439Y-100660123D01*
X174068432Y-100660125D01*
X173927660Y-100715638D01*
X173927658Y-100715638D01*
X173807079Y-100807076D01*
X173807076Y-100807079D01*
X173715638Y-100927658D01*
X173715638Y-100927660D01*
X173660124Y-101068434D01*
X173660123Y-101068439D01*
X173649500Y-101156900D01*
X172350499Y-101156900D01*
X172339876Y-101068436D01*
X172284361Y-100927658D01*
X172243698Y-100874036D01*
X172192923Y-100807079D01*
X172192920Y-100807076D01*
X172123042Y-100754086D01*
X172072342Y-100715639D01*
X172072340Y-100715638D01*
X171931565Y-100660124D01*
X171931560Y-100660123D01*
X171843099Y-100649500D01*
X170843296Y-100649500D01*
X170768796Y-100629538D01*
X170737937Y-100605859D01*
X168844141Y-98712063D01*
X168805577Y-98645268D01*
X168800500Y-98606704D01*
X168800500Y-97400000D01*
X169445207Y-97400000D01*
X169464349Y-97643226D01*
X169464350Y-97643230D01*
X169521305Y-97880459D01*
X169614667Y-98105858D01*
X169614670Y-98105863D01*
X169738503Y-98307941D01*
X170476211Y-97570232D01*
X170487482Y-97612292D01*
X170559890Y-97737708D01*
X170662292Y-97840110D01*
X170787708Y-97912518D01*
X170829765Y-97923787D01*
X170092058Y-98661494D01*
X170294142Y-98785332D01*
X170294141Y-98785332D01*
X170519540Y-98878694D01*
X170756769Y-98935649D01*
X170756773Y-98935650D01*
X171000000Y-98954792D01*
X171243226Y-98935650D01*
X171243230Y-98935649D01*
X171480459Y-98878694D01*
X171705858Y-98785332D01*
X171907941Y-98661495D01*
X171170234Y-97923787D01*
X171212292Y-97912518D01*
X171337708Y-97840110D01*
X171440110Y-97737708D01*
X171512518Y-97612292D01*
X171523787Y-97570233D01*
X172261495Y-98307941D01*
X172385332Y-98105858D01*
X172478694Y-97880459D01*
X172535649Y-97643230D01*
X172535650Y-97643226D01*
X172554792Y-97400000D01*
X173644341Y-97400000D01*
X173664937Y-97635409D01*
X173696175Y-97751994D01*
X173726097Y-97863663D01*
X173825965Y-98077830D01*
X173961505Y-98271401D01*
X174128599Y-98438495D01*
X174322170Y-98574035D01*
X174536337Y-98673903D01*
X174764592Y-98735063D01*
X175000000Y-98755659D01*
X175235408Y-98735063D01*
X175463663Y-98673903D01*
X175677830Y-98574035D01*
X175871401Y-98438495D01*
X176038495Y-98271401D01*
X176174035Y-98077830D01*
X176273903Y-97863663D01*
X176335063Y-97635408D01*
X176355659Y-97400000D01*
X176335063Y-97164592D01*
X176273903Y-96936337D01*
X176174035Y-96722171D01*
X176038495Y-96528599D01*
X175871401Y-96361505D01*
X175677830Y-96225965D01*
X175463663Y-96126097D01*
X175463661Y-96126096D01*
X175235409Y-96064937D01*
X175000000Y-96044341D01*
X174764590Y-96064937D01*
X174536340Y-96126096D01*
X174536339Y-96126096D01*
X174536337Y-96126097D01*
X174322171Y-96225965D01*
X174322168Y-96225966D01*
X174322168Y-96225967D01*
X174128596Y-96361507D01*
X173961507Y-96528596D01*
X173840912Y-96700825D01*
X173825965Y-96722171D01*
X173740674Y-96905077D01*
X173726096Y-96936340D01*
X173664937Y-97164590D01*
X173644341Y-97400000D01*
X172554792Y-97400000D01*
X172535650Y-97156773D01*
X172535649Y-97156769D01*
X172478694Y-96919540D01*
X172385332Y-96694141D01*
X172261494Y-96492058D01*
X171523787Y-97229764D01*
X171512518Y-97187708D01*
X171440110Y-97062292D01*
X171337708Y-96959890D01*
X171212292Y-96887482D01*
X171170232Y-96876211D01*
X171907941Y-96138503D01*
X171705863Y-96014670D01*
X171705858Y-96014667D01*
X171480459Y-95921305D01*
X171243230Y-95864350D01*
X171243226Y-95864349D01*
X171000000Y-95845207D01*
X170756773Y-95864349D01*
X170756769Y-95864350D01*
X170519540Y-95921305D01*
X170294141Y-96014667D01*
X170294136Y-96014670D01*
X170092057Y-96138503D01*
X170829766Y-96876212D01*
X170787708Y-96887482D01*
X170662292Y-96959890D01*
X170559890Y-97062292D01*
X170487482Y-97187708D01*
X170476212Y-97229766D01*
X169738503Y-96492057D01*
X169614670Y-96694136D01*
X169614667Y-96694141D01*
X169521305Y-96919540D01*
X169464350Y-97156769D01*
X169464349Y-97156773D01*
X169445207Y-97400000D01*
X168800500Y-97400000D01*
X168800500Y-92800000D01*
X169644341Y-92800000D01*
X169664937Y-93035409D01*
X169722569Y-93250499D01*
X169726097Y-93263663D01*
X169825965Y-93477830D01*
X169961505Y-93671401D01*
X170128599Y-93838495D01*
X170322170Y-93974035D01*
X170536337Y-94073903D01*
X170764592Y-94135063D01*
X171000000Y-94155659D01*
X171235408Y-94135063D01*
X171463663Y-94073903D01*
X171677830Y-93974035D01*
X171871401Y-93838495D01*
X172038495Y-93671401D01*
X172174035Y-93477830D01*
X172273903Y-93263663D01*
X172335063Y-93035408D01*
X172355659Y-92800000D01*
X173644341Y-92800000D01*
X173664937Y-93035409D01*
X173722569Y-93250499D01*
X173726097Y-93263663D01*
X173825965Y-93477830D01*
X173961505Y-93671401D01*
X174128599Y-93838495D01*
X174322170Y-93974035D01*
X174536337Y-94073903D01*
X174764592Y-94135063D01*
X175000000Y-94155659D01*
X175235408Y-94135063D01*
X175463663Y-94073903D01*
X175677830Y-93974035D01*
X175871401Y-93838495D01*
X176038495Y-93671401D01*
X176174035Y-93477830D01*
X176273903Y-93263663D01*
X176335063Y-93035408D01*
X176355659Y-92800000D01*
X176335063Y-92564592D01*
X176273903Y-92336337D01*
X176174035Y-92122171D01*
X176038495Y-91928599D01*
X175871401Y-91761505D01*
X175677830Y-91625965D01*
X175463663Y-91526097D01*
X175463661Y-91526096D01*
X175235409Y-91464937D01*
X175000000Y-91444341D01*
X174764590Y-91464937D01*
X174536340Y-91526096D01*
X174536339Y-91526096D01*
X174536337Y-91526097D01*
X174322171Y-91625965D01*
X174322168Y-91625966D01*
X174322168Y-91625967D01*
X174128596Y-91761507D01*
X173961507Y-91928596D01*
X173891707Y-92028282D01*
X173825965Y-92122171D01*
X173756230Y-92271717D01*
X173726096Y-92336340D01*
X173664937Y-92564590D01*
X173644341Y-92800000D01*
X172355659Y-92800000D01*
X172335063Y-92564592D01*
X172273903Y-92336337D01*
X172174035Y-92122171D01*
X172038495Y-91928599D01*
X171871401Y-91761505D01*
X171677830Y-91625965D01*
X171463663Y-91526097D01*
X171463661Y-91526096D01*
X171235409Y-91464937D01*
X171000000Y-91444341D01*
X170764590Y-91464937D01*
X170536340Y-91526096D01*
X170536339Y-91526096D01*
X170536337Y-91526097D01*
X170322171Y-91625965D01*
X170322168Y-91625966D01*
X170322168Y-91625967D01*
X170128596Y-91761507D01*
X169961507Y-91928596D01*
X169891707Y-92028282D01*
X169825965Y-92122171D01*
X169756230Y-92271717D01*
X169726096Y-92336340D01*
X169664937Y-92564590D01*
X169644341Y-92800000D01*
X168800500Y-92800000D01*
X168800500Y-88200000D01*
X169644341Y-88200000D01*
X169664937Y-88435409D01*
X169725388Y-88661019D01*
X169726097Y-88663663D01*
X169825965Y-88877830D01*
X169961505Y-89071401D01*
X170128599Y-89238495D01*
X170322170Y-89374035D01*
X170536337Y-89473903D01*
X170764592Y-89535063D01*
X171000000Y-89555659D01*
X171235408Y-89535063D01*
X171463663Y-89473903D01*
X171677830Y-89374035D01*
X171871401Y-89238495D01*
X172038495Y-89071401D01*
X172174035Y-88877830D01*
X172273903Y-88663663D01*
X172335063Y-88435408D01*
X172355659Y-88200000D01*
X173644341Y-88200000D01*
X173664937Y-88435409D01*
X173725388Y-88661019D01*
X173726097Y-88663663D01*
X173825965Y-88877830D01*
X173961505Y-89071401D01*
X174128599Y-89238495D01*
X174322170Y-89374035D01*
X174536337Y-89473903D01*
X174764592Y-89535063D01*
X175000000Y-89555659D01*
X175235408Y-89535063D01*
X175463663Y-89473903D01*
X175677830Y-89374035D01*
X175871401Y-89238495D01*
X176038495Y-89071401D01*
X176174035Y-88877830D01*
X176273903Y-88663663D01*
X176335063Y-88435408D01*
X176355659Y-88200000D01*
X176335063Y-87964592D01*
X176273903Y-87736337D01*
X176174035Y-87522171D01*
X176038495Y-87328599D01*
X175871401Y-87161505D01*
X175677830Y-87025965D01*
X175463663Y-86926097D01*
X175463661Y-86926096D01*
X175235409Y-86864937D01*
X175000000Y-86844341D01*
X174764590Y-86864937D01*
X174536340Y-86926096D01*
X174536339Y-86926096D01*
X174536337Y-86926097D01*
X174322171Y-87025965D01*
X174322168Y-87025966D01*
X174322168Y-87025967D01*
X174128596Y-87161507D01*
X173961507Y-87328596D01*
X173894005Y-87425000D01*
X173825965Y-87522171D01*
X173741372Y-87703580D01*
X173726096Y-87736340D01*
X173664937Y-87964590D01*
X173644341Y-88200000D01*
X172355659Y-88200000D01*
X172335063Y-87964592D01*
X172273903Y-87736337D01*
X172174035Y-87522171D01*
X172038495Y-87328599D01*
X171871401Y-87161505D01*
X171677830Y-87025965D01*
X171463663Y-86926097D01*
X171463661Y-86926096D01*
X171235409Y-86864937D01*
X171000000Y-86844341D01*
X170764590Y-86864937D01*
X170536340Y-86926096D01*
X170536339Y-86926096D01*
X170536337Y-86926097D01*
X170322171Y-87025965D01*
X170322168Y-87025966D01*
X170322168Y-87025967D01*
X170128596Y-87161507D01*
X169961507Y-87328596D01*
X169894005Y-87425000D01*
X169825965Y-87522171D01*
X169741372Y-87703580D01*
X169726096Y-87736340D01*
X169664937Y-87964590D01*
X169644341Y-88200000D01*
X168800500Y-88200000D01*
X168800500Y-82999499D01*
X168820462Y-82924999D01*
X168875000Y-82870461D01*
X168949500Y-82850499D01*
X170343097Y-82850499D01*
X170343102Y-82850499D01*
X170431565Y-82839877D01*
X170572343Y-82784361D01*
X170692923Y-82692923D01*
X170784361Y-82572343D01*
X170839877Y-82431565D01*
X170850500Y-82343103D01*
X170850499Y-81000000D01*
X172945210Y-81000000D01*
X172964348Y-81279792D01*
X172964349Y-81279795D01*
X173021407Y-81554374D01*
X173115323Y-81818630D01*
X173244349Y-82067638D01*
X173382745Y-82263700D01*
X174101377Y-81545067D01*
X174184411Y-81669336D01*
X174330664Y-81815589D01*
X174454930Y-81898621D01*
X173737741Y-82615810D01*
X173815040Y-82678700D01*
X174054666Y-82824419D01*
X174311891Y-82936146D01*
X174581944Y-83011812D01*
X174581942Y-83011812D01*
X174859777Y-83050000D01*
X175140223Y-83050000D01*
X175418056Y-83011812D01*
X175688108Y-82936146D01*
X175945332Y-82824419D01*
X175945333Y-82824419D01*
X176184958Y-82678700D01*
X176262257Y-82615811D01*
X175545068Y-81898621D01*
X175669336Y-81815589D01*
X175815589Y-81669336D01*
X175898621Y-81545068D01*
X176617254Y-82263701D01*
X176755645Y-82067646D01*
X176755649Y-82067639D01*
X176884676Y-81818630D01*
X176978592Y-81554374D01*
X177035650Y-81279795D01*
X177035651Y-81279792D01*
X177054789Y-81000000D01*
X177035651Y-80720207D01*
X177035650Y-80720204D01*
X176978592Y-80445625D01*
X176884676Y-80181369D01*
X176755650Y-79932361D01*
X176617253Y-79736298D01*
X175898621Y-80454930D01*
X175815589Y-80330664D01*
X175669336Y-80184411D01*
X175545067Y-80101377D01*
X176262258Y-79384188D01*
X176262257Y-79384187D01*
X176184961Y-79321301D01*
X176184957Y-79321298D01*
X175945333Y-79175580D01*
X175688108Y-79063853D01*
X175418055Y-78988187D01*
X175418057Y-78988187D01*
X175140223Y-78950000D01*
X174859777Y-78950000D01*
X174581943Y-78988187D01*
X174311891Y-79063853D01*
X174054667Y-79175580D01*
X174054666Y-79175580D01*
X173815042Y-79321298D01*
X173815040Y-79321300D01*
X173737741Y-79384187D01*
X173737741Y-79384188D01*
X174454931Y-80101378D01*
X174330664Y-80184411D01*
X174184411Y-80330664D01*
X174101378Y-80454931D01*
X173382744Y-79736297D01*
X173244349Y-79932361D01*
X173115323Y-80181369D01*
X173021407Y-80445625D01*
X172964349Y-80720204D01*
X172964348Y-80720207D01*
X172945210Y-81000000D01*
X170850499Y-81000000D01*
X170850499Y-79656898D01*
X170839877Y-79568435D01*
X170784361Y-79427657D01*
X170692923Y-79307077D01*
X170572343Y-79215639D01*
X170572341Y-79215638D01*
X170572342Y-79215638D01*
X170431564Y-79160122D01*
X170343103Y-79149500D01*
X167656902Y-79149500D01*
X167656891Y-79149501D01*
X167568439Y-79160122D01*
X167568430Y-79160124D01*
X167427657Y-79215638D01*
X167307077Y-79307076D01*
X167307076Y-79307077D01*
X167215638Y-79427657D01*
X167160122Y-79568435D01*
X167149500Y-79656893D01*
X167149500Y-80050500D01*
X167129538Y-80125000D01*
X167075000Y-80179538D01*
X167000500Y-80199500D01*
X162852243Y-80199500D01*
X162777743Y-80179538D01*
X162746884Y-80155859D01*
X155940063Y-73349038D01*
X172512000Y-73349038D01*
X172512000Y-73600962D01*
X172551410Y-73849785D01*
X172629259Y-74089379D01*
X172743630Y-74313845D01*
X172891707Y-74517656D01*
X173069844Y-74695793D01*
X173273655Y-74843870D01*
X173498121Y-74958241D01*
X173737715Y-75036090D01*
X173986538Y-75075500D01*
X173986543Y-75075500D01*
X174238457Y-75075500D01*
X174238462Y-75075500D01*
X174487285Y-75036090D01*
X174726879Y-74958241D01*
X174951345Y-74843870D01*
X175155156Y-74695793D01*
X175333293Y-74517656D01*
X175481370Y-74313845D01*
X175595741Y-74089379D01*
X175673590Y-73849785D01*
X175713000Y-73600962D01*
X175713000Y-73349038D01*
X175673590Y-73100215D01*
X175595741Y-72860621D01*
X175481370Y-72636155D01*
X175333293Y-72432344D01*
X175155156Y-72254207D01*
X174951345Y-72106130D01*
X174726879Y-71991759D01*
X174487285Y-71913910D01*
X174238462Y-71874500D01*
X173986538Y-71874500D01*
X173779185Y-71907341D01*
X173737714Y-71913910D01*
X173498127Y-71991757D01*
X173498121Y-71991759D01*
X173498115Y-71991761D01*
X173498115Y-71991762D01*
X173273653Y-72106131D01*
X173273652Y-72106131D01*
X173069845Y-72254206D01*
X173069842Y-72254208D01*
X172891708Y-72432342D01*
X172891706Y-72432345D01*
X172743631Y-72636152D01*
X172743631Y-72636153D01*
X172629262Y-72860615D01*
X172629257Y-72860627D01*
X172608384Y-72924869D01*
X172551410Y-73100215D01*
X172512000Y-73349038D01*
X155940063Y-73349038D01*
X154450515Y-71859490D01*
X154380508Y-71819072D01*
X154324985Y-71787016D01*
X154184975Y-71749500D01*
X143872475Y-71749500D01*
X132772475Y-71749500D01*
X130327525Y-71749500D01*
X130187515Y-71787016D01*
X130187513Y-71787016D01*
X130187513Y-71787017D01*
X130061984Y-71859490D01*
X128671989Y-73249485D01*
X128614515Y-73349036D01*
X128614515Y-73349037D01*
X128599516Y-73375015D01*
X128599516Y-73375016D01*
X128562000Y-73515023D01*
X128562000Y-73858964D01*
X128542038Y-73933464D01*
X128487500Y-73988002D01*
X128467662Y-73997575D01*
X128390158Y-74028138D01*
X128390158Y-74028139D01*
X128269579Y-74119576D01*
X128269575Y-74119580D01*
X128207430Y-74201530D01*
X128146508Y-74248830D01*
X128070098Y-74259331D01*
X127998675Y-74230221D01*
X127961890Y-74189718D01*
X127879822Y-74056662D01*
X127755840Y-73932680D01*
X127606621Y-73840642D01*
X127440197Y-73785494D01*
X127440188Y-73785492D01*
X127337489Y-73775000D01*
X127062500Y-73775000D01*
X127062500Y-74876000D01*
X127042538Y-74950500D01*
X126988000Y-75005038D01*
X126913500Y-75025000D01*
X125587501Y-75025000D01*
X125587501Y-75074973D01*
X125597994Y-75177696D01*
X125653142Y-75344121D01*
X125745180Y-75493340D01*
X125869159Y-75617319D01*
X126025764Y-75713913D01*
X126024161Y-75716511D01*
X126071287Y-75756029D01*
X126097689Y-75828498D01*
X126084319Y-75904458D01*
X126039292Y-75960254D01*
X125944576Y-76032079D01*
X125853139Y-76152658D01*
X125853138Y-76152658D01*
X125797622Y-76293436D01*
X125787000Y-76381894D01*
X125787000Y-76968105D01*
X125797622Y-77056563D01*
X125853138Y-77197341D01*
X125919658Y-77285061D01*
X125944578Y-77317922D01*
X126065158Y-77409361D01*
X126205936Y-77464877D01*
X126294398Y-77475500D01*
X126294399Y-77475500D01*
X127330601Y-77475500D01*
X127330602Y-77475500D01*
X127419064Y-77464877D01*
X127555967Y-77410888D01*
X127610629Y-77400500D01*
X128163000Y-77400500D01*
X128237500Y-77420462D01*
X128292038Y-77475000D01*
X128312000Y-77549500D01*
X128312000Y-79996158D01*
X128312000Y-80153842D01*
X128318081Y-80184411D01*
X128342762Y-80308494D01*
X128342763Y-80308498D01*
X128403104Y-80454176D01*
X128403105Y-80454178D01*
X128403106Y-80454179D01*
X128490711Y-80585289D01*
X128490714Y-80585292D01*
X128794928Y-80889506D01*
X128833492Y-80956301D01*
X128838002Y-81007850D01*
X128832128Y-81074998D01*
X128832128Y-81075000D01*
X128851580Y-81297334D01*
X128909343Y-81512911D01*
X128909344Y-81512913D01*
X129003662Y-81715180D01*
X129003669Y-81715193D01*
X129131676Y-81898005D01*
X129289494Y-82055823D01*
X129472306Y-82183830D01*
X129472309Y-82183832D01*
X129472314Y-82183835D01*
X129674587Y-82278156D01*
X129890166Y-82335920D01*
X130091181Y-82353506D01*
X130112499Y-82355372D01*
X130112500Y-82355372D01*
X130112501Y-82355372D01*
X130130387Y-82353806D01*
X130334834Y-82335920D01*
X130550413Y-82278156D01*
X130752686Y-82183835D01*
X130935507Y-82055822D01*
X131093322Y-81898007D01*
X131221335Y-81715186D01*
X131315656Y-81512913D01*
X131373420Y-81297334D01*
X131392872Y-81075000D01*
X131373420Y-80852666D01*
X131315656Y-80637087D01*
X131221335Y-80434814D01*
X131221332Y-80434809D01*
X131221330Y-80434806D01*
X131093323Y-80251994D01*
X130935505Y-80094176D01*
X130752693Y-79966169D01*
X130752680Y-79966162D01*
X130550413Y-79871844D01*
X130550411Y-79871843D01*
X130334834Y-79814080D01*
X130334835Y-79814080D01*
X130112501Y-79794628D01*
X130112495Y-79794628D01*
X130074983Y-79797909D01*
X129999027Y-79784514D01*
X129939944Y-79734936D01*
X129913567Y-79662459D01*
X129913000Y-79649476D01*
X129913000Y-77359561D01*
X129932962Y-77285061D01*
X129949396Y-77263645D01*
X129949263Y-77263544D01*
X129955847Y-77254861D01*
X130046861Y-77134842D01*
X130102377Y-76994064D01*
X130102377Y-76994063D01*
X130105882Y-76985176D01*
X130108696Y-76986286D01*
X130138331Y-76933196D01*
X130204560Y-76893669D01*
X130281680Y-76892552D01*
X130349027Y-76930144D01*
X130388554Y-76996373D01*
X130393142Y-77019251D01*
X130397623Y-77056564D01*
X130453138Y-77197341D01*
X130519658Y-77285061D01*
X130544578Y-77317922D01*
X130665158Y-77409361D01*
X130805936Y-77464877D01*
X130894398Y-77475500D01*
X131333658Y-77475500D01*
X132763000Y-77475500D01*
X132837500Y-77495462D01*
X132892038Y-77550000D01*
X132912000Y-77624500D01*
X132912000Y-79753842D01*
X132942762Y-79908494D01*
X132942763Y-79908498D01*
X133003104Y-80054176D01*
X133003105Y-80054178D01*
X133003106Y-80054179D01*
X133090711Y-80185289D01*
X133090714Y-80185292D01*
X133794928Y-80889506D01*
X133833492Y-80956301D01*
X133838002Y-81007850D01*
X133832128Y-81074998D01*
X133832128Y-81075000D01*
X133851580Y-81297334D01*
X133909343Y-81512911D01*
X133909344Y-81512913D01*
X134003662Y-81715180D01*
X134003669Y-81715193D01*
X134131676Y-81898005D01*
X134289494Y-82055823D01*
X134472306Y-82183830D01*
X134472309Y-82183832D01*
X134472314Y-82183835D01*
X134674587Y-82278156D01*
X134890166Y-82335920D01*
X135091181Y-82353506D01*
X135112499Y-82355372D01*
X135112500Y-82355372D01*
X135112501Y-82355372D01*
X135130387Y-82353806D01*
X135334834Y-82335920D01*
X135550413Y-82278156D01*
X135752686Y-82183835D01*
X135935507Y-82055822D01*
X136093322Y-81898007D01*
X136221335Y-81715186D01*
X136315656Y-81512913D01*
X136373420Y-81297334D01*
X136392872Y-81075000D01*
X136373420Y-80852666D01*
X136315656Y-80637087D01*
X136221335Y-80434814D01*
X136221332Y-80434809D01*
X136221330Y-80434806D01*
X136093323Y-80251994D01*
X135935505Y-80094176D01*
X135752693Y-79966169D01*
X135752680Y-79966162D01*
X135550413Y-79871844D01*
X135550411Y-79871843D01*
X135334834Y-79814080D01*
X135334835Y-79814080D01*
X135112501Y-79794628D01*
X135112498Y-79794628D01*
X135045350Y-79800502D01*
X134969393Y-79787108D01*
X134927006Y-79757428D01*
X134556641Y-79387063D01*
X134518077Y-79320268D01*
X134513000Y-79281704D01*
X134513000Y-77359561D01*
X134532962Y-77285061D01*
X134549396Y-77263645D01*
X134549263Y-77263544D01*
X134555847Y-77254861D01*
X134646861Y-77134842D01*
X134702377Y-76994064D01*
X134713000Y-76905602D01*
X134713000Y-76294398D01*
X134702377Y-76205936D01*
X134646861Y-76065158D01*
X134555422Y-75944578D01*
X134555420Y-75944576D01*
X134439771Y-75856877D01*
X134434842Y-75853139D01*
X134366300Y-75826109D01*
X134304321Y-75780211D01*
X134273593Y-75709468D01*
X134282353Y-75632839D01*
X134328254Y-75570856D01*
X134366298Y-75548891D01*
X134434842Y-75521861D01*
X134555422Y-75430422D01*
X134646861Y-75309842D01*
X134702377Y-75169064D01*
X134713000Y-75080602D01*
X134713000Y-74469398D01*
X134702377Y-74380936D01*
X134646861Y-74240158D01*
X134555422Y-74119578D01*
X134555420Y-74119576D01*
X134472451Y-74056659D01*
X134434842Y-74028139D01*
X134434841Y-74028138D01*
X134357338Y-73997575D01*
X134295356Y-73951674D01*
X134264628Y-73880931D01*
X134263000Y-73858964D01*
X134263000Y-73240025D01*
X134225484Y-73100015D01*
X134210753Y-73074500D01*
X134210389Y-73073869D01*
X134190502Y-72999349D01*
X134210540Y-72924869D01*
X134265133Y-72870387D01*
X134339502Y-72850500D01*
X141700500Y-72850500D01*
X141775000Y-72870462D01*
X141829538Y-72925000D01*
X141849500Y-72999500D01*
X141849500Y-82413000D01*
X141829538Y-82487500D01*
X141775000Y-82542038D01*
X141700500Y-82562000D01*
X137015025Y-82562000D01*
X136879903Y-82598205D01*
X136879904Y-82598206D01*
X136875015Y-82599516D01*
X136749484Y-82671990D01*
X124959489Y-94461985D01*
X124907101Y-94552726D01*
X124907100Y-94552728D01*
X124887017Y-94587511D01*
X124849500Y-94727523D01*
X124849500Y-94727525D01*
X124849500Y-99715026D01*
X124849500Y-99859974D01*
X124887016Y-99999985D01*
X124915892Y-100050000D01*
X124959490Y-100125515D01*
X127030859Y-102196884D01*
X127069423Y-102263679D01*
X127074500Y-102302243D01*
X127074500Y-102768105D01*
X127085122Y-102856563D01*
X127140638Y-102997341D01*
X127228454Y-103113144D01*
X127232078Y-103117922D01*
X127352658Y-103209361D01*
X127493436Y-103264877D01*
X127581898Y-103275500D01*
X128047757Y-103275500D01*
X128122257Y-103295462D01*
X128153116Y-103319141D01*
X132474485Y-107640510D01*
X132600015Y-107712984D01*
X132740025Y-107750500D01*
X132740026Y-107750500D01*
X132884974Y-107750500D01*
X136372757Y-107750500D01*
X136447257Y-107770462D01*
X136478116Y-107794141D01*
X140168359Y-111484384D01*
X140206923Y-111551179D01*
X140212000Y-111589743D01*
X140212000Y-112055605D01*
X140222622Y-112144063D01*
X140278138Y-112284841D01*
X140369576Y-112405420D01*
X140369579Y-112405423D01*
X140498279Y-112503019D01*
X140497105Y-112504566D01*
X140543111Y-112549535D01*
X140563920Y-112623802D01*
X140544808Y-112698525D01*
X140490895Y-112753681D01*
X140416628Y-112774490D01*
X140414930Y-112774500D01*
X139255796Y-112774500D01*
X139181296Y-112754538D01*
X139150437Y-112730859D01*
X138756640Y-112337062D01*
X138718076Y-112270267D01*
X138712999Y-112231703D01*
X138712999Y-110730133D01*
X138710085Y-110705010D01*
X138710084Y-110705008D01*
X138664706Y-110602235D01*
X138585265Y-110522794D01*
X138585264Y-110522793D01*
X138482494Y-110477416D01*
X138482491Y-110477415D01*
X138482482Y-110477414D01*
X138457365Y-110474500D01*
X138457359Y-110474500D01*
X136067633Y-110474500D01*
X136042510Y-110477414D01*
X136042507Y-110477415D01*
X135939735Y-110522793D01*
X135860293Y-110602235D01*
X135814916Y-110705005D01*
X135814915Y-110705008D01*
X135814915Y-110705009D01*
X135812000Y-110730135D01*
X135812000Y-110730136D01*
X135812000Y-110730140D01*
X135812000Y-111025500D01*
X135792038Y-111100000D01*
X135737500Y-111154538D01*
X135663000Y-111174500D01*
X124561999Y-111174500D01*
X124487499Y-111154538D01*
X124432961Y-111100000D01*
X124412999Y-111025500D01*
X124412999Y-110730133D01*
X124410085Y-110705010D01*
X124410084Y-110705008D01*
X124364706Y-110602235D01*
X124285265Y-110522794D01*
X124285264Y-110522793D01*
X124182494Y-110477416D01*
X124182491Y-110477415D01*
X124182482Y-110477414D01*
X124157365Y-110474500D01*
X124157359Y-110474500D01*
X121767633Y-110474500D01*
X121742510Y-110477414D01*
X121742507Y-110477415D01*
X121639735Y-110522793D01*
X121560293Y-110602235D01*
X121514916Y-110705005D01*
X121514915Y-110705008D01*
X121514915Y-110705009D01*
X121512000Y-110730135D01*
X117613000Y-110730135D01*
X117613000Y-91574997D01*
X119977510Y-91574997D01*
X119977510Y-91575002D01*
X119997450Y-91904660D01*
X119997453Y-91904684D01*
X120056982Y-92229521D01*
X120056984Y-92229530D01*
X120155238Y-92544836D01*
X120155240Y-92544841D01*
X120290786Y-92846011D01*
X120290796Y-92846030D01*
X120461642Y-93128643D01*
X120461646Y-93128649D01*
X120612607Y-93321337D01*
X121499432Y-92434511D01*
X121578585Y-92543455D01*
X121744045Y-92708915D01*
X121852986Y-92788065D01*
X120966161Y-93674891D01*
X121158850Y-93825853D01*
X121158856Y-93825857D01*
X121441469Y-93996703D01*
X121441488Y-93996713D01*
X121742658Y-94132259D01*
X121742663Y-94132261D01*
X122057969Y-94230515D01*
X122057978Y-94230517D01*
X122382815Y-94290046D01*
X122382839Y-94290049D01*
X122712497Y-94309990D01*
X122712503Y-94309990D01*
X123042160Y-94290049D01*
X123042184Y-94290046D01*
X123367021Y-94230517D01*
X123367030Y-94230515D01*
X123682336Y-94132261D01*
X123682341Y-94132259D01*
X123983511Y-93996713D01*
X123983530Y-93996703D01*
X124266143Y-93825857D01*
X124266159Y-93825846D01*
X124458837Y-93674892D01*
X124458837Y-93674891D01*
X123572012Y-92788066D01*
X123680955Y-92708915D01*
X123846415Y-92543455D01*
X123925566Y-92434512D01*
X124812391Y-93321337D01*
X124812392Y-93321337D01*
X124963346Y-93128659D01*
X124963357Y-93128643D01*
X125134203Y-92846030D01*
X125134213Y-92846011D01*
X125269759Y-92544841D01*
X125269761Y-92544836D01*
X125368015Y-92229530D01*
X125368017Y-92229521D01*
X125427546Y-91904684D01*
X125427549Y-91904660D01*
X125447490Y-91575002D01*
X125447490Y-91574997D01*
X125427549Y-91245339D01*
X125427546Y-91245315D01*
X125368017Y-90920478D01*
X125368015Y-90920469D01*
X125269761Y-90605163D01*
X125269759Y-90605158D01*
X125134213Y-90303988D01*
X125134203Y-90303969D01*
X124963357Y-90021356D01*
X124963353Y-90021350D01*
X124812391Y-89828661D01*
X123925565Y-90715486D01*
X123846415Y-90606545D01*
X123680955Y-90441085D01*
X123572011Y-90361932D01*
X124458837Y-89475107D01*
X124266149Y-89324146D01*
X124266143Y-89324142D01*
X123983530Y-89153296D01*
X123983511Y-89153286D01*
X123682341Y-89017740D01*
X123682336Y-89017738D01*
X123367030Y-88919484D01*
X123367021Y-88919482D01*
X123042184Y-88859953D01*
X123042160Y-88859950D01*
X122712503Y-88840010D01*
X122712497Y-88840010D01*
X122382839Y-88859950D01*
X122382815Y-88859953D01*
X122057978Y-88919482D01*
X122057969Y-88919484D01*
X121742663Y-89017738D01*
X121742658Y-89017740D01*
X121441488Y-89153286D01*
X121441469Y-89153296D01*
X121158856Y-89324142D01*
X121158850Y-89324146D01*
X120966161Y-89475107D01*
X121852987Y-90361933D01*
X121744045Y-90441085D01*
X121578585Y-90606545D01*
X121499433Y-90715487D01*
X120612607Y-89828661D01*
X120461646Y-90021350D01*
X120461642Y-90021356D01*
X120290796Y-90303969D01*
X120290786Y-90303988D01*
X120155240Y-90605158D01*
X120155238Y-90605163D01*
X120056984Y-90920469D01*
X120056982Y-90920478D01*
X119997453Y-91245315D01*
X119997450Y-91245339D01*
X119977510Y-91574997D01*
X117613000Y-91574997D01*
X117613000Y-81074998D01*
X123632445Y-81074998D01*
X123632445Y-81075001D01*
X123652631Y-81318610D01*
X123712638Y-81555575D01*
X123810827Y-81779422D01*
X123810829Y-81779425D01*
X123907125Y-81926818D01*
X124511457Y-81322486D01*
X124536478Y-81382890D01*
X124607612Y-81489351D01*
X124698149Y-81579888D01*
X124804610Y-81651022D01*
X124865011Y-81676041D01*
X124260258Y-82280794D01*
X124260258Y-82280795D01*
X124302982Y-82314048D01*
X124302988Y-82314052D01*
X124517968Y-82430394D01*
X124749162Y-82509764D01*
X124990280Y-82549999D01*
X124990280Y-82550000D01*
X125234720Y-82550000D01*
X125234719Y-82549999D01*
X125475837Y-82509764D01*
X125707031Y-82430394D01*
X125922013Y-82314051D01*
X125922022Y-82314045D01*
X125964740Y-82280796D01*
X125964741Y-82280794D01*
X125359988Y-81676041D01*
X125420390Y-81651022D01*
X125526851Y-81579888D01*
X125617388Y-81489351D01*
X125688522Y-81382890D01*
X125713541Y-81322488D01*
X126317872Y-81926819D01*
X126317873Y-81926818D01*
X126414169Y-81779429D01*
X126414174Y-81779419D01*
X126512360Y-81555578D01*
X126572368Y-81318610D01*
X126592555Y-81075001D01*
X126592555Y-81074998D01*
X126572368Y-80831389D01*
X126512361Y-80594424D01*
X126414172Y-80370577D01*
X126414166Y-80370565D01*
X126317873Y-80223180D01*
X125713541Y-80827510D01*
X125688522Y-80767110D01*
X125617388Y-80660649D01*
X125526851Y-80570112D01*
X125420390Y-80498978D01*
X125359986Y-80473957D01*
X125964740Y-79869204D01*
X125964740Y-79869203D01*
X125922014Y-79835949D01*
X125707031Y-79719605D01*
X125475837Y-79640235D01*
X125234719Y-79600000D01*
X124990280Y-79600000D01*
X124749162Y-79640235D01*
X124517970Y-79719604D01*
X124302989Y-79835946D01*
X124302986Y-79835948D01*
X124260258Y-79869203D01*
X124865012Y-80473958D01*
X124804610Y-80498978D01*
X124698149Y-80570112D01*
X124607612Y-80660649D01*
X124536478Y-80767110D01*
X124511458Y-80827512D01*
X123907125Y-80223180D01*
X123810829Y-80370574D01*
X123810827Y-80370577D01*
X123712638Y-80594424D01*
X123652631Y-80831389D01*
X123632445Y-81074998D01*
X117613000Y-81074998D01*
X117613000Y-73478667D01*
X117613179Y-73471356D01*
X117619188Y-73349038D01*
X119512000Y-73349038D01*
X119512000Y-73600962D01*
X119551410Y-73849785D01*
X119629259Y-74089379D01*
X119743630Y-74313845D01*
X119891707Y-74517656D01*
X120069844Y-74695793D01*
X120273655Y-74843870D01*
X120498121Y-74958241D01*
X120737715Y-75036090D01*
X120986538Y-75075500D01*
X120986543Y-75075500D01*
X121238457Y-75075500D01*
X121238462Y-75075500D01*
X121487285Y-75036090D01*
X121726879Y-74958241D01*
X121951345Y-74843870D01*
X122155156Y-74695793D01*
X122333293Y-74517656D01*
X122364277Y-74475010D01*
X125587500Y-74475010D01*
X125587500Y-74525000D01*
X126562500Y-74525000D01*
X126562500Y-73775000D01*
X126287526Y-73775000D01*
X126184803Y-73785494D01*
X126018378Y-73840642D01*
X125869159Y-73932680D01*
X125745180Y-74056659D01*
X125653142Y-74205878D01*
X125597994Y-74372302D01*
X125597992Y-74372311D01*
X125587500Y-74475010D01*
X122364277Y-74475010D01*
X122481370Y-74313845D01*
X122595741Y-74089379D01*
X122673590Y-73849785D01*
X122713000Y-73600962D01*
X122713000Y-73349038D01*
X122673590Y-73100215D01*
X122595741Y-72860621D01*
X122481370Y-72636155D01*
X122333293Y-72432344D01*
X122155156Y-72254207D01*
X121951345Y-72106130D01*
X121726879Y-71991759D01*
X121487285Y-71913910D01*
X121238462Y-71874500D01*
X120986538Y-71874500D01*
X120779185Y-71907341D01*
X120737714Y-71913910D01*
X120498127Y-71991757D01*
X120498121Y-71991759D01*
X120498115Y-71991761D01*
X120498115Y-71991762D01*
X120273653Y-72106131D01*
X120273652Y-72106131D01*
X120069845Y-72254206D01*
X120069842Y-72254208D01*
X119891708Y-72432342D01*
X119891706Y-72432345D01*
X119743631Y-72636152D01*
X119743631Y-72636153D01*
X119629262Y-72860615D01*
X119629257Y-72860627D01*
X119608384Y-72924869D01*
X119551410Y-73100215D01*
X119512000Y-73349038D01*
X117619188Y-73349038D01*
X117624079Y-73249485D01*
X117629492Y-73139287D01*
X117630926Y-73124740D01*
X117638379Y-73074500D01*
X117679167Y-72799523D01*
X117682019Y-72785186D01*
X117719349Y-72636155D01*
X117761914Y-72466227D01*
X117766146Y-72452273D01*
X117876922Y-72142679D01*
X117882511Y-72129186D01*
X118023093Y-71831951D01*
X118029968Y-71819088D01*
X118199021Y-71537038D01*
X118207120Y-71524919D01*
X118402999Y-71260807D01*
X118412253Y-71249531D01*
X118633083Y-71005882D01*
X118643382Y-70995583D01*
X118887031Y-70774753D01*
X118898307Y-70765499D01*
X119162419Y-70569620D01*
X119174538Y-70561521D01*
X119456588Y-70392468D01*
X119469451Y-70385593D01*
X119766686Y-70245011D01*
X119780179Y-70239422D01*
X120089773Y-70128646D01*
X120103727Y-70124414D01*
X120422689Y-70044518D01*
X120437023Y-70041667D01*
X120762245Y-69993425D01*
X120776787Y-69991992D01*
X121108856Y-69975678D01*
X121116167Y-69975500D01*
X121178392Y-69975500D01*
X174046608Y-69975500D01*
X174108833Y-69975500D01*
X174116143Y-69975678D01*
G37*
G04 #@! TD.AperFunction*
M02*
