%TF.GenerationSoftware,KiCad,Pcbnew,8.0.6*%
%TF.CreationDate,2025-04-03T21:30:17+02:00*%
%TF.ProjectId,UV-Controller,55562d43-6f6e-4747-926f-6c6c65722e6b,v2.0*%
%TF.SameCoordinates,Original*%
%TF.FileFunction,Drillmap*%
%TF.FilePolarity,Positive*%
%FSLAX45Y45*%
G04 Gerber Fmt 4.5, Leading zero omitted, Abs format (unit mm)*
G04 Created by KiCad (PCBNEW 8.0.6) date 2025-04-03 21:30:17*
%MOMM*%
%LPD*%
G01*
G04 APERTURE LIST*
%ADD10C,0.050000*%
%ADD11C,0.200000*%
%ADD12C,0.270000*%
G04 APERTURE END LIST*
D10*
X12111250Y-12947500D02*
X17411250Y-12947500D01*
X17411250Y-6947500D02*
X12111250Y-6947500D01*
X12111250Y-12947500D02*
G75*
G02*
X11711250Y-12547500I0J400000D01*
G01*
X17811250Y-12547500D02*
G75*
G02*
X17411250Y-12947500I-400000J0D01*
G01*
X11711250Y-7347500D02*
X11711250Y-12547500D01*
X11711250Y-7347500D02*
G75*
G02*
X12111250Y-6947500I400000J0D01*
G01*
X17811250Y-12547500D02*
X17811250Y-7347500D01*
X17411250Y-6947500D02*
G75*
G02*
X17811250Y-7347500I0J-400000D01*
G01*
D11*
D12*
X11976250Y-7212500D02*
X12246250Y-7482500D01*
X12246250Y-7212500D02*
X11976250Y-7482500D01*
X11976250Y-12412500D02*
X12246250Y-12682500D01*
X12246250Y-12412500D02*
X11976250Y-12682500D01*
X17276250Y-7212500D02*
X17546250Y-7482500D01*
X17546250Y-7212500D02*
X17276250Y-7482500D01*
X17276250Y-12412500D02*
X17546250Y-12682500D01*
X17546250Y-12412500D02*
X17276250Y-12682500D01*
D11*
X11969527Y-13261484D02*
X11969527Y-13061484D01*
X11969527Y-13061484D02*
X12017146Y-13061484D01*
X12017146Y-13061484D02*
X12045717Y-13071008D01*
X12045717Y-13071008D02*
X12064765Y-13090055D01*
X12064765Y-13090055D02*
X12074289Y-13109103D01*
X12074289Y-13109103D02*
X12083812Y-13147198D01*
X12083812Y-13147198D02*
X12083812Y-13175769D01*
X12083812Y-13175769D02*
X12074289Y-13213865D01*
X12074289Y-13213865D02*
X12064765Y-13232912D01*
X12064765Y-13232912D02*
X12045717Y-13251960D01*
X12045717Y-13251960D02*
X12017146Y-13261484D01*
X12017146Y-13261484D02*
X11969527Y-13261484D01*
X12169527Y-13261484D02*
X12169527Y-13128150D01*
X12169527Y-13166246D02*
X12179051Y-13147198D01*
X12179051Y-13147198D02*
X12188574Y-13137674D01*
X12188574Y-13137674D02*
X12207622Y-13128150D01*
X12207622Y-13128150D02*
X12226670Y-13128150D01*
X12293336Y-13261484D02*
X12293336Y-13128150D01*
X12293336Y-13061484D02*
X12283812Y-13071008D01*
X12283812Y-13071008D02*
X12293336Y-13080531D01*
X12293336Y-13080531D02*
X12302860Y-13071008D01*
X12302860Y-13071008D02*
X12293336Y-13061484D01*
X12293336Y-13061484D02*
X12293336Y-13080531D01*
X12417146Y-13261484D02*
X12398098Y-13251960D01*
X12398098Y-13251960D02*
X12388574Y-13232912D01*
X12388574Y-13232912D02*
X12388574Y-13061484D01*
X12521908Y-13261484D02*
X12502860Y-13251960D01*
X12502860Y-13251960D02*
X12493336Y-13232912D01*
X12493336Y-13232912D02*
X12493336Y-13061484D01*
X12750479Y-13261484D02*
X12750479Y-13061484D01*
X12750479Y-13061484D02*
X12817146Y-13204341D01*
X12817146Y-13204341D02*
X12883812Y-13061484D01*
X12883812Y-13061484D02*
X12883812Y-13261484D01*
X13064765Y-13261484D02*
X13064765Y-13156722D01*
X13064765Y-13156722D02*
X13055241Y-13137674D01*
X13055241Y-13137674D02*
X13036193Y-13128150D01*
X13036193Y-13128150D02*
X12998098Y-13128150D01*
X12998098Y-13128150D02*
X12979051Y-13137674D01*
X13064765Y-13251960D02*
X13045717Y-13261484D01*
X13045717Y-13261484D02*
X12998098Y-13261484D01*
X12998098Y-13261484D02*
X12979051Y-13251960D01*
X12979051Y-13251960D02*
X12969527Y-13232912D01*
X12969527Y-13232912D02*
X12969527Y-13213865D01*
X12969527Y-13213865D02*
X12979051Y-13194817D01*
X12979051Y-13194817D02*
X12998098Y-13185293D01*
X12998098Y-13185293D02*
X13045717Y-13185293D01*
X13045717Y-13185293D02*
X13064765Y-13175769D01*
X13160003Y-13128150D02*
X13160003Y-13328150D01*
X13160003Y-13137674D02*
X13179051Y-13128150D01*
X13179051Y-13128150D02*
X13217146Y-13128150D01*
X13217146Y-13128150D02*
X13236193Y-13137674D01*
X13236193Y-13137674D02*
X13245717Y-13147198D01*
X13245717Y-13147198D02*
X13255241Y-13166246D01*
X13255241Y-13166246D02*
X13255241Y-13223388D01*
X13255241Y-13223388D02*
X13245717Y-13242436D01*
X13245717Y-13242436D02*
X13236193Y-13251960D01*
X13236193Y-13251960D02*
X13217146Y-13261484D01*
X13217146Y-13261484D02*
X13179051Y-13261484D01*
X13179051Y-13261484D02*
X13160003Y-13251960D01*
X13340955Y-13242436D02*
X13350479Y-13251960D01*
X13350479Y-13251960D02*
X13340955Y-13261484D01*
X13340955Y-13261484D02*
X13331432Y-13251960D01*
X13331432Y-13251960D02*
X13340955Y-13242436D01*
X13340955Y-13242436D02*
X13340955Y-13261484D01*
X13340955Y-13137674D02*
X13350479Y-13147198D01*
X13350479Y-13147198D02*
X13340955Y-13156722D01*
X13340955Y-13156722D02*
X13331432Y-13147198D01*
X13331432Y-13147198D02*
X13340955Y-13137674D01*
X13340955Y-13137674D02*
X13340955Y-13156722D01*
X11508750Y-13490000D02*
X11708750Y-13690000D01*
X11708750Y-13490000D02*
X11508750Y-13690000D01*
X11960003Y-13500531D02*
X11969527Y-13491008D01*
X11969527Y-13491008D02*
X11988574Y-13481484D01*
X11988574Y-13481484D02*
X12036193Y-13481484D01*
X12036193Y-13481484D02*
X12055241Y-13491008D01*
X12055241Y-13491008D02*
X12064765Y-13500531D01*
X12064765Y-13500531D02*
X12074289Y-13519579D01*
X12074289Y-13519579D02*
X12074289Y-13538627D01*
X12074289Y-13538627D02*
X12064765Y-13567198D01*
X12064765Y-13567198D02*
X11950479Y-13681484D01*
X11950479Y-13681484D02*
X12074289Y-13681484D01*
X12160003Y-13662436D02*
X12169527Y-13671960D01*
X12169527Y-13671960D02*
X12160003Y-13681484D01*
X12160003Y-13681484D02*
X12150479Y-13671960D01*
X12150479Y-13671960D02*
X12160003Y-13662436D01*
X12160003Y-13662436D02*
X12160003Y-13681484D01*
X12236193Y-13481484D02*
X12369527Y-13481484D01*
X12369527Y-13481484D02*
X12283812Y-13681484D01*
X12483812Y-13481484D02*
X12502860Y-13481484D01*
X12502860Y-13481484D02*
X12521908Y-13491008D01*
X12521908Y-13491008D02*
X12531432Y-13500531D01*
X12531432Y-13500531D02*
X12540955Y-13519579D01*
X12540955Y-13519579D02*
X12550479Y-13557674D01*
X12550479Y-13557674D02*
X12550479Y-13605293D01*
X12550479Y-13605293D02*
X12540955Y-13643388D01*
X12540955Y-13643388D02*
X12531432Y-13662436D01*
X12531432Y-13662436D02*
X12521908Y-13671960D01*
X12521908Y-13671960D02*
X12502860Y-13681484D01*
X12502860Y-13681484D02*
X12483812Y-13681484D01*
X12483812Y-13681484D02*
X12464765Y-13671960D01*
X12464765Y-13671960D02*
X12455241Y-13662436D01*
X12455241Y-13662436D02*
X12445717Y-13643388D01*
X12445717Y-13643388D02*
X12436193Y-13605293D01*
X12436193Y-13605293D02*
X12436193Y-13557674D01*
X12436193Y-13557674D02*
X12445717Y-13519579D01*
X12445717Y-13519579D02*
X12455241Y-13500531D01*
X12455241Y-13500531D02*
X12464765Y-13491008D01*
X12464765Y-13491008D02*
X12483812Y-13481484D01*
X12674289Y-13481484D02*
X12693336Y-13481484D01*
X12693336Y-13481484D02*
X12712384Y-13491008D01*
X12712384Y-13491008D02*
X12721908Y-13500531D01*
X12721908Y-13500531D02*
X12731432Y-13519579D01*
X12731432Y-13519579D02*
X12740955Y-13557674D01*
X12740955Y-13557674D02*
X12740955Y-13605293D01*
X12740955Y-13605293D02*
X12731432Y-13643388D01*
X12731432Y-13643388D02*
X12721908Y-13662436D01*
X12721908Y-13662436D02*
X12712384Y-13671960D01*
X12712384Y-13671960D02*
X12693336Y-13681484D01*
X12693336Y-13681484D02*
X12674289Y-13681484D01*
X12674289Y-13681484D02*
X12655241Y-13671960D01*
X12655241Y-13671960D02*
X12645717Y-13662436D01*
X12645717Y-13662436D02*
X12636193Y-13643388D01*
X12636193Y-13643388D02*
X12626670Y-13605293D01*
X12626670Y-13605293D02*
X12626670Y-13557674D01*
X12626670Y-13557674D02*
X12636193Y-13519579D01*
X12636193Y-13519579D02*
X12645717Y-13500531D01*
X12645717Y-13500531D02*
X12655241Y-13491008D01*
X12655241Y-13491008D02*
X12674289Y-13481484D01*
X12826670Y-13681484D02*
X12826670Y-13548150D01*
X12826670Y-13567198D02*
X12836193Y-13557674D01*
X12836193Y-13557674D02*
X12855241Y-13548150D01*
X12855241Y-13548150D02*
X12883813Y-13548150D01*
X12883813Y-13548150D02*
X12902860Y-13557674D01*
X12902860Y-13557674D02*
X12912384Y-13576722D01*
X12912384Y-13576722D02*
X12912384Y-13681484D01*
X12912384Y-13576722D02*
X12921908Y-13557674D01*
X12921908Y-13557674D02*
X12940955Y-13548150D01*
X12940955Y-13548150D02*
X12969527Y-13548150D01*
X12969527Y-13548150D02*
X12988574Y-13557674D01*
X12988574Y-13557674D02*
X12998098Y-13576722D01*
X12998098Y-13576722D02*
X12998098Y-13681484D01*
X13093336Y-13681484D02*
X13093336Y-13548150D01*
X13093336Y-13567198D02*
X13102860Y-13557674D01*
X13102860Y-13557674D02*
X13121908Y-13548150D01*
X13121908Y-13548150D02*
X13150479Y-13548150D01*
X13150479Y-13548150D02*
X13169527Y-13557674D01*
X13169527Y-13557674D02*
X13179051Y-13576722D01*
X13179051Y-13576722D02*
X13179051Y-13681484D01*
X13179051Y-13576722D02*
X13188574Y-13557674D01*
X13188574Y-13557674D02*
X13207622Y-13548150D01*
X13207622Y-13548150D02*
X13236193Y-13548150D01*
X13236193Y-13548150D02*
X13255241Y-13557674D01*
X13255241Y-13557674D02*
X13264765Y-13576722D01*
X13264765Y-13576722D02*
X13264765Y-13681484D01*
X13655241Y-13471960D02*
X13483813Y-13729103D01*
X13912384Y-13481484D02*
X13931432Y-13481484D01*
X13931432Y-13481484D02*
X13950479Y-13491008D01*
X13950479Y-13491008D02*
X13960003Y-13500531D01*
X13960003Y-13500531D02*
X13969527Y-13519579D01*
X13969527Y-13519579D02*
X13979051Y-13557674D01*
X13979051Y-13557674D02*
X13979051Y-13605293D01*
X13979051Y-13605293D02*
X13969527Y-13643388D01*
X13969527Y-13643388D02*
X13960003Y-13662436D01*
X13960003Y-13662436D02*
X13950479Y-13671960D01*
X13950479Y-13671960D02*
X13931432Y-13681484D01*
X13931432Y-13681484D02*
X13912384Y-13681484D01*
X13912384Y-13681484D02*
X13893336Y-13671960D01*
X13893336Y-13671960D02*
X13883813Y-13662436D01*
X13883813Y-13662436D02*
X13874289Y-13643388D01*
X13874289Y-13643388D02*
X13864765Y-13605293D01*
X13864765Y-13605293D02*
X13864765Y-13557674D01*
X13864765Y-13557674D02*
X13874289Y-13519579D01*
X13874289Y-13519579D02*
X13883813Y-13500531D01*
X13883813Y-13500531D02*
X13893336Y-13491008D01*
X13893336Y-13491008D02*
X13912384Y-13481484D01*
X14064765Y-13662436D02*
X14074289Y-13671960D01*
X14074289Y-13671960D02*
X14064765Y-13681484D01*
X14064765Y-13681484D02*
X14055241Y-13671960D01*
X14055241Y-13671960D02*
X14064765Y-13662436D01*
X14064765Y-13662436D02*
X14064765Y-13681484D01*
X14264765Y-13681484D02*
X14150479Y-13681484D01*
X14207622Y-13681484D02*
X14207622Y-13481484D01*
X14207622Y-13481484D02*
X14188575Y-13510055D01*
X14188575Y-13510055D02*
X14169527Y-13529103D01*
X14169527Y-13529103D02*
X14150479Y-13538627D01*
X14388575Y-13481484D02*
X14407622Y-13481484D01*
X14407622Y-13481484D02*
X14426670Y-13491008D01*
X14426670Y-13491008D02*
X14436194Y-13500531D01*
X14436194Y-13500531D02*
X14445717Y-13519579D01*
X14445717Y-13519579D02*
X14455241Y-13557674D01*
X14455241Y-13557674D02*
X14455241Y-13605293D01*
X14455241Y-13605293D02*
X14445717Y-13643388D01*
X14445717Y-13643388D02*
X14436194Y-13662436D01*
X14436194Y-13662436D02*
X14426670Y-13671960D01*
X14426670Y-13671960D02*
X14407622Y-13681484D01*
X14407622Y-13681484D02*
X14388575Y-13681484D01*
X14388575Y-13681484D02*
X14369527Y-13671960D01*
X14369527Y-13671960D02*
X14360003Y-13662436D01*
X14360003Y-13662436D02*
X14350479Y-13643388D01*
X14350479Y-13643388D02*
X14340956Y-13605293D01*
X14340956Y-13605293D02*
X14340956Y-13557674D01*
X14340956Y-13557674D02*
X14350479Y-13519579D01*
X14350479Y-13519579D02*
X14360003Y-13500531D01*
X14360003Y-13500531D02*
X14369527Y-13491008D01*
X14369527Y-13491008D02*
X14388575Y-13481484D01*
X14626670Y-13481484D02*
X14588575Y-13481484D01*
X14588575Y-13481484D02*
X14569527Y-13491008D01*
X14569527Y-13491008D02*
X14560003Y-13500531D01*
X14560003Y-13500531D02*
X14540956Y-13529103D01*
X14540956Y-13529103D02*
X14531432Y-13567198D01*
X14531432Y-13567198D02*
X14531432Y-13643388D01*
X14531432Y-13643388D02*
X14540956Y-13662436D01*
X14540956Y-13662436D02*
X14550479Y-13671960D01*
X14550479Y-13671960D02*
X14569527Y-13681484D01*
X14569527Y-13681484D02*
X14607622Y-13681484D01*
X14607622Y-13681484D02*
X14626670Y-13671960D01*
X14626670Y-13671960D02*
X14636194Y-13662436D01*
X14636194Y-13662436D02*
X14645717Y-13643388D01*
X14645717Y-13643388D02*
X14645717Y-13595769D01*
X14645717Y-13595769D02*
X14636194Y-13576722D01*
X14636194Y-13576722D02*
X14626670Y-13567198D01*
X14626670Y-13567198D02*
X14607622Y-13557674D01*
X14607622Y-13557674D02*
X14569527Y-13557674D01*
X14569527Y-13557674D02*
X14550479Y-13567198D01*
X14550479Y-13567198D02*
X14540956Y-13576722D01*
X14540956Y-13576722D02*
X14531432Y-13595769D01*
X14712384Y-13481484D02*
X14836194Y-13481484D01*
X14836194Y-13481484D02*
X14769527Y-13557674D01*
X14769527Y-13557674D02*
X14798098Y-13557674D01*
X14798098Y-13557674D02*
X14817146Y-13567198D01*
X14817146Y-13567198D02*
X14826670Y-13576722D01*
X14826670Y-13576722D02*
X14836194Y-13595769D01*
X14836194Y-13595769D02*
X14836194Y-13643388D01*
X14836194Y-13643388D02*
X14826670Y-13662436D01*
X14826670Y-13662436D02*
X14817146Y-13671960D01*
X14817146Y-13671960D02*
X14798098Y-13681484D01*
X14798098Y-13681484D02*
X14740956Y-13681484D01*
X14740956Y-13681484D02*
X14721908Y-13671960D01*
X14721908Y-13671960D02*
X14712384Y-13662436D01*
X14912384Y-13481484D02*
X14912384Y-13519579D01*
X14988575Y-13481484D02*
X14988575Y-13519579D01*
X15283813Y-13757674D02*
X15274289Y-13748150D01*
X15274289Y-13748150D02*
X15255241Y-13719579D01*
X15255241Y-13719579D02*
X15245718Y-13700531D01*
X15245718Y-13700531D02*
X15236194Y-13671960D01*
X15236194Y-13671960D02*
X15226670Y-13624341D01*
X15226670Y-13624341D02*
X15226670Y-13586246D01*
X15226670Y-13586246D02*
X15236194Y-13538627D01*
X15236194Y-13538627D02*
X15245718Y-13510055D01*
X15245718Y-13510055D02*
X15255241Y-13491008D01*
X15255241Y-13491008D02*
X15274289Y-13462436D01*
X15274289Y-13462436D02*
X15283813Y-13452912D01*
X15445718Y-13548150D02*
X15445718Y-13681484D01*
X15398098Y-13471960D02*
X15350479Y-13614817D01*
X15350479Y-13614817D02*
X15474289Y-13614817D01*
X15702860Y-13681484D02*
X15702860Y-13481484D01*
X15788575Y-13681484D02*
X15788575Y-13576722D01*
X15788575Y-13576722D02*
X15779051Y-13557674D01*
X15779051Y-13557674D02*
X15760003Y-13548150D01*
X15760003Y-13548150D02*
X15731432Y-13548150D01*
X15731432Y-13548150D02*
X15712384Y-13557674D01*
X15712384Y-13557674D02*
X15702860Y-13567198D01*
X15912384Y-13681484D02*
X15893337Y-13671960D01*
X15893337Y-13671960D02*
X15883813Y-13662436D01*
X15883813Y-13662436D02*
X15874289Y-13643388D01*
X15874289Y-13643388D02*
X15874289Y-13586246D01*
X15874289Y-13586246D02*
X15883813Y-13567198D01*
X15883813Y-13567198D02*
X15893337Y-13557674D01*
X15893337Y-13557674D02*
X15912384Y-13548150D01*
X15912384Y-13548150D02*
X15940956Y-13548150D01*
X15940956Y-13548150D02*
X15960003Y-13557674D01*
X15960003Y-13557674D02*
X15969527Y-13567198D01*
X15969527Y-13567198D02*
X15979051Y-13586246D01*
X15979051Y-13586246D02*
X15979051Y-13643388D01*
X15979051Y-13643388D02*
X15969527Y-13662436D01*
X15969527Y-13662436D02*
X15960003Y-13671960D01*
X15960003Y-13671960D02*
X15940956Y-13681484D01*
X15940956Y-13681484D02*
X15912384Y-13681484D01*
X16093337Y-13681484D02*
X16074289Y-13671960D01*
X16074289Y-13671960D02*
X16064765Y-13652912D01*
X16064765Y-13652912D02*
X16064765Y-13481484D01*
X16245718Y-13671960D02*
X16226670Y-13681484D01*
X16226670Y-13681484D02*
X16188575Y-13681484D01*
X16188575Y-13681484D02*
X16169527Y-13671960D01*
X16169527Y-13671960D02*
X16160003Y-13652912D01*
X16160003Y-13652912D02*
X16160003Y-13576722D01*
X16160003Y-13576722D02*
X16169527Y-13557674D01*
X16169527Y-13557674D02*
X16188575Y-13548150D01*
X16188575Y-13548150D02*
X16226670Y-13548150D01*
X16226670Y-13548150D02*
X16245718Y-13557674D01*
X16245718Y-13557674D02*
X16255241Y-13576722D01*
X16255241Y-13576722D02*
X16255241Y-13595769D01*
X16255241Y-13595769D02*
X16160003Y-13614817D01*
X16331432Y-13671960D02*
X16350480Y-13681484D01*
X16350480Y-13681484D02*
X16388575Y-13681484D01*
X16388575Y-13681484D02*
X16407622Y-13671960D01*
X16407622Y-13671960D02*
X16417146Y-13652912D01*
X16417146Y-13652912D02*
X16417146Y-13643388D01*
X16417146Y-13643388D02*
X16407622Y-13624341D01*
X16407622Y-13624341D02*
X16388575Y-13614817D01*
X16388575Y-13614817D02*
X16360003Y-13614817D01*
X16360003Y-13614817D02*
X16340956Y-13605293D01*
X16340956Y-13605293D02*
X16331432Y-13586246D01*
X16331432Y-13586246D02*
X16331432Y-13576722D01*
X16331432Y-13576722D02*
X16340956Y-13557674D01*
X16340956Y-13557674D02*
X16360003Y-13548150D01*
X16360003Y-13548150D02*
X16388575Y-13548150D01*
X16388575Y-13548150D02*
X16407622Y-13557674D01*
X16483813Y-13757674D02*
X16493337Y-13748150D01*
X16493337Y-13748150D02*
X16512384Y-13719579D01*
X16512384Y-13719579D02*
X16521908Y-13700531D01*
X16521908Y-13700531D02*
X16531432Y-13671960D01*
X16531432Y-13671960D02*
X16540956Y-13624341D01*
X16540956Y-13624341D02*
X16540956Y-13586246D01*
X16540956Y-13586246D02*
X16531432Y-13538627D01*
X16531432Y-13538627D02*
X16521908Y-13510055D01*
X16521908Y-13510055D02*
X16512384Y-13491008D01*
X16512384Y-13491008D02*
X16493337Y-13462436D01*
X16493337Y-13462436D02*
X16483813Y-13452912D01*
X16845718Y-13757674D02*
X16836194Y-13748150D01*
X16836194Y-13748150D02*
X16817146Y-13719579D01*
X16817146Y-13719579D02*
X16807623Y-13700531D01*
X16807623Y-13700531D02*
X16798099Y-13671960D01*
X16798099Y-13671960D02*
X16788575Y-13624341D01*
X16788575Y-13624341D02*
X16788575Y-13586246D01*
X16788575Y-13586246D02*
X16798099Y-13538627D01*
X16798099Y-13538627D02*
X16807623Y-13510055D01*
X16807623Y-13510055D02*
X16817146Y-13491008D01*
X16817146Y-13491008D02*
X16836194Y-13462436D01*
X16836194Y-13462436D02*
X16845718Y-13452912D01*
X16921908Y-13548150D02*
X16921908Y-13681484D01*
X16921908Y-13567198D02*
X16931432Y-13557674D01*
X16931432Y-13557674D02*
X16950480Y-13548150D01*
X16950480Y-13548150D02*
X16979051Y-13548150D01*
X16979051Y-13548150D02*
X16998099Y-13557674D01*
X16998099Y-13557674D02*
X17007623Y-13576722D01*
X17007623Y-13576722D02*
X17007623Y-13681484D01*
X17131432Y-13681484D02*
X17112384Y-13671960D01*
X17112384Y-13671960D02*
X17102861Y-13662436D01*
X17102861Y-13662436D02*
X17093337Y-13643388D01*
X17093337Y-13643388D02*
X17093337Y-13586246D01*
X17093337Y-13586246D02*
X17102861Y-13567198D01*
X17102861Y-13567198D02*
X17112384Y-13557674D01*
X17112384Y-13557674D02*
X17131432Y-13548150D01*
X17131432Y-13548150D02*
X17160004Y-13548150D01*
X17160004Y-13548150D02*
X17179051Y-13557674D01*
X17179051Y-13557674D02*
X17188575Y-13567198D01*
X17188575Y-13567198D02*
X17198099Y-13586246D01*
X17198099Y-13586246D02*
X17198099Y-13643388D01*
X17198099Y-13643388D02*
X17188575Y-13662436D01*
X17188575Y-13662436D02*
X17179051Y-13671960D01*
X17179051Y-13671960D02*
X17160004Y-13681484D01*
X17160004Y-13681484D02*
X17131432Y-13681484D01*
X17255242Y-13548150D02*
X17331432Y-13548150D01*
X17283813Y-13481484D02*
X17283813Y-13652912D01*
X17283813Y-13652912D02*
X17293337Y-13671960D01*
X17293337Y-13671960D02*
X17312384Y-13681484D01*
X17312384Y-13681484D02*
X17331432Y-13681484D01*
X17550480Y-13548150D02*
X17550480Y-13748150D01*
X17550480Y-13557674D02*
X17569527Y-13548150D01*
X17569527Y-13548150D02*
X17607623Y-13548150D01*
X17607623Y-13548150D02*
X17626670Y-13557674D01*
X17626670Y-13557674D02*
X17636194Y-13567198D01*
X17636194Y-13567198D02*
X17645718Y-13586246D01*
X17645718Y-13586246D02*
X17645718Y-13643388D01*
X17645718Y-13643388D02*
X17636194Y-13662436D01*
X17636194Y-13662436D02*
X17626670Y-13671960D01*
X17626670Y-13671960D02*
X17607623Y-13681484D01*
X17607623Y-13681484D02*
X17569527Y-13681484D01*
X17569527Y-13681484D02*
X17550480Y-13671960D01*
X17760004Y-13681484D02*
X17740956Y-13671960D01*
X17740956Y-13671960D02*
X17731432Y-13652912D01*
X17731432Y-13652912D02*
X17731432Y-13481484D01*
X17921908Y-13681484D02*
X17921908Y-13576722D01*
X17921908Y-13576722D02*
X17912385Y-13557674D01*
X17912385Y-13557674D02*
X17893337Y-13548150D01*
X17893337Y-13548150D02*
X17855242Y-13548150D01*
X17855242Y-13548150D02*
X17836194Y-13557674D01*
X17921908Y-13671960D02*
X17902861Y-13681484D01*
X17902861Y-13681484D02*
X17855242Y-13681484D01*
X17855242Y-13681484D02*
X17836194Y-13671960D01*
X17836194Y-13671960D02*
X17826670Y-13652912D01*
X17826670Y-13652912D02*
X17826670Y-13633865D01*
X17826670Y-13633865D02*
X17836194Y-13614817D01*
X17836194Y-13614817D02*
X17855242Y-13605293D01*
X17855242Y-13605293D02*
X17902861Y-13605293D01*
X17902861Y-13605293D02*
X17921908Y-13595769D01*
X17988575Y-13548150D02*
X18064765Y-13548150D01*
X18017146Y-13481484D02*
X18017146Y-13652912D01*
X18017146Y-13652912D02*
X18026670Y-13671960D01*
X18026670Y-13671960D02*
X18045718Y-13681484D01*
X18045718Y-13681484D02*
X18064765Y-13681484D01*
X18207623Y-13671960D02*
X18188575Y-13681484D01*
X18188575Y-13681484D02*
X18150480Y-13681484D01*
X18150480Y-13681484D02*
X18131432Y-13671960D01*
X18131432Y-13671960D02*
X18121908Y-13652912D01*
X18121908Y-13652912D02*
X18121908Y-13576722D01*
X18121908Y-13576722D02*
X18131432Y-13557674D01*
X18131432Y-13557674D02*
X18150480Y-13548150D01*
X18150480Y-13548150D02*
X18188575Y-13548150D01*
X18188575Y-13548150D02*
X18207623Y-13557674D01*
X18207623Y-13557674D02*
X18217146Y-13576722D01*
X18217146Y-13576722D02*
X18217146Y-13595769D01*
X18217146Y-13595769D02*
X18121908Y-13614817D01*
X18388575Y-13681484D02*
X18388575Y-13481484D01*
X18388575Y-13671960D02*
X18369527Y-13681484D01*
X18369527Y-13681484D02*
X18331432Y-13681484D01*
X18331432Y-13681484D02*
X18312385Y-13671960D01*
X18312385Y-13671960D02*
X18302861Y-13662436D01*
X18302861Y-13662436D02*
X18293337Y-13643388D01*
X18293337Y-13643388D02*
X18293337Y-13586246D01*
X18293337Y-13586246D02*
X18302861Y-13567198D01*
X18302861Y-13567198D02*
X18312385Y-13557674D01*
X18312385Y-13557674D02*
X18331432Y-13548150D01*
X18331432Y-13548150D02*
X18369527Y-13548150D01*
X18369527Y-13548150D02*
X18388575Y-13557674D01*
X18464766Y-13757674D02*
X18474289Y-13748150D01*
X18474289Y-13748150D02*
X18493337Y-13719579D01*
X18493337Y-13719579D02*
X18502861Y-13700531D01*
X18502861Y-13700531D02*
X18512385Y-13671960D01*
X18512385Y-13671960D02*
X18521908Y-13624341D01*
X18521908Y-13624341D02*
X18521908Y-13586246D01*
X18521908Y-13586246D02*
X18512385Y-13538627D01*
X18512385Y-13538627D02*
X18502861Y-13510055D01*
X18502861Y-13510055D02*
X18493337Y-13491008D01*
X18493337Y-13491008D02*
X18474289Y-13462436D01*
X18474289Y-13462436D02*
X18464766Y-13452912D01*
M02*
