G04 #@! TF.GenerationSoftware,KiCad,Pcbnew,8.0.6*
G04 #@! TF.CreationDate,2025-04-03T21:30:13+02:00*
G04 #@! TF.ProjectId,UV-Controller,55562d43-6f6e-4747-926f-6c6c65722e6b,v2.0*
G04 #@! TF.SameCoordinates,Original*
G04 #@! TF.FileFunction,Legend,Top*
G04 #@! TF.FilePolarity,Positive*
%FSLAX46Y46*%
G04 Gerber Fmt 4.6, Leading zero omitted, Abs format (unit mm)*
G04 Created by KiCad (PCBNEW 8.0.6) date 2025-04-03 21:30:13*
%MOMM*%
%LPD*%
G01*
G04 APERTURE LIST*
G04 Aperture macros list*
%AMRoundRect*
0 Rectangle with rounded corners*
0 $1 Rounding radius*
0 $2 $3 $4 $5 $6 $7 $8 $9 X,Y pos of 4 corners*
0 Add a 4 corners polygon primitive as box body*
4,1,4,$2,$3,$4,$5,$6,$7,$8,$9,$2,$3,0*
0 Add four circle primitives for the rounded corners*
1,1,$1+$1,$2,$3*
1,1,$1+$1,$4,$5*
1,1,$1+$1,$6,$7*
1,1,$1+$1,$8,$9*
0 Add four rect primitives between the rounded corners*
20,1,$1+$1,$2,$3,$4,$5,0*
20,1,$1+$1,$4,$5,$6,$7,0*
20,1,$1+$1,$6,$7,$8,$9,0*
20,1,$1+$1,$8,$9,$2,$3,0*%
G04 Aperture macros list end*
%ADD10C,0.150000*%
%ADD11C,0.254000*%
%ADD12C,0.000000*%
%ADD13C,0.120000*%
%ADD14C,0.250000*%
%ADD15C,0.100000*%
%ADD16C,0.200000*%
%ADD17RoundRect,0.250000X-0.250000X-0.475000X0.250000X-0.475000X0.250000X0.475000X-0.250000X0.475000X0*%
%ADD18R,1.800000X1.200000*%
%ADD19R,0.900000X0.300000*%
%ADD20R,0.250000X1.650000*%
%ADD21RoundRect,0.249999X-1.300001X-1.300001X1.300001X-1.300001X1.300001X1.300001X-1.300001X1.300001X0*%
%ADD22C,3.100000*%
%ADD23C,2.700000*%
%ADD24RoundRect,0.250001X0.799999X-0.799999X0.799999X0.799999X-0.799999X0.799999X-0.799999X-0.799999X0*%
%ADD25C,2.100000*%
%ADD26C,1.950000*%
%ADD27C,4.460000*%
%ADD28RoundRect,0.250000X-0.350000X-0.625000X0.350000X-0.625000X0.350000X0.625000X-0.350000X0.625000X0*%
%ADD29O,1.200000X1.750000*%
%ADD30RoundRect,0.250000X-0.450000X0.262500X-0.450000X-0.262500X0.450000X-0.262500X0.450000X0.262500X0*%
%ADD31RoundRect,0.135000X-0.135000X-0.185000X0.135000X-0.185000X0.135000X0.185000X-0.135000X0.185000X0*%
%ADD32RoundRect,0.250000X-0.262500X-0.450000X0.262500X-0.450000X0.262500X0.450000X-0.262500X0.450000X0*%
%ADD33RoundRect,0.140000X-0.140000X-0.170000X0.140000X-0.170000X0.140000X0.170000X-0.140000X0.170000X0*%
%ADD34RoundRect,0.250000X-0.475000X0.250000X-0.475000X-0.250000X0.475000X-0.250000X0.475000X0.250000X0*%
%ADD35RoundRect,0.140000X-0.170000X0.140000X-0.170000X-0.140000X0.170000X-0.140000X0.170000X0.140000X0*%
%ADD36RoundRect,0.250000X0.475000X-0.250000X0.475000X0.250000X-0.475000X0.250000X-0.475000X-0.250000X0*%
%ADD37R,2.300000X2.400000*%
%ADD38RoundRect,0.050000X-0.387500X-0.050000X0.387500X-0.050000X0.387500X0.050000X-0.387500X0.050000X0*%
%ADD39RoundRect,0.050000X-0.050000X-0.387500X0.050000X-0.387500X0.050000X0.387500X-0.050000X0.387500X0*%
%ADD40R,3.200000X3.200000*%
%ADD41RoundRect,0.140000X0.170000X-0.140000X0.170000X0.140000X-0.170000X0.140000X-0.170000X-0.140000X0*%
%ADD42RoundRect,0.135000X0.135000X0.185000X-0.135000X0.185000X-0.135000X-0.185000X0.135000X-0.185000X0*%
%ADD43R,1.250000X1.000000*%
G04 APERTURE END LIST*
G36*
X160900000Y-111600000D02*
G01*
X168900000Y-111600000D01*
X168900000Y-119600000D01*
X160900000Y-119600000D01*
X160900000Y-111600000D01*
G37*
D10*
X163719642Y-84734580D02*
X163672023Y-84782200D01*
X163672023Y-84782200D02*
X163529166Y-84829819D01*
X163529166Y-84829819D02*
X163433928Y-84829819D01*
X163433928Y-84829819D02*
X163291071Y-84782200D01*
X163291071Y-84782200D02*
X163195833Y-84686961D01*
X163195833Y-84686961D02*
X163148214Y-84591723D01*
X163148214Y-84591723D02*
X163100595Y-84401247D01*
X163100595Y-84401247D02*
X163100595Y-84258390D01*
X163100595Y-84258390D02*
X163148214Y-84067914D01*
X163148214Y-84067914D02*
X163195833Y-83972676D01*
X163195833Y-83972676D02*
X163291071Y-83877438D01*
X163291071Y-83877438D02*
X163433928Y-83829819D01*
X163433928Y-83829819D02*
X163529166Y-83829819D01*
X163529166Y-83829819D02*
X163672023Y-83877438D01*
X163672023Y-83877438D02*
X163719642Y-83925057D01*
X164672023Y-84829819D02*
X164100595Y-84829819D01*
X164386309Y-84829819D02*
X164386309Y-83829819D01*
X164386309Y-83829819D02*
X164291071Y-83972676D01*
X164291071Y-83972676D02*
X164195833Y-84067914D01*
X164195833Y-84067914D02*
X164100595Y-84115533D01*
X165624404Y-84829819D02*
X165052976Y-84829819D01*
X165338690Y-84829819D02*
X165338690Y-83829819D01*
X165338690Y-83829819D02*
X165243452Y-83972676D01*
X165243452Y-83972676D02*
X165148214Y-84067914D01*
X165148214Y-84067914D02*
X165052976Y-84115533D01*
X156523809Y-94178628D02*
X156523809Y-94654819D01*
X156190476Y-93654819D02*
X156523809Y-94178628D01*
X156523809Y-94178628D02*
X156857142Y-93654819D01*
X157714285Y-94654819D02*
X157142857Y-94654819D01*
X157428571Y-94654819D02*
X157428571Y-93654819D01*
X157428571Y-93654819D02*
X157333333Y-93797676D01*
X157333333Y-93797676D02*
X157238095Y-93892914D01*
X157238095Y-93892914D02*
X157142857Y-93940533D01*
X145786310Y-80529819D02*
X145786310Y-79529819D01*
X146833928Y-80434580D02*
X146786309Y-80482200D01*
X146786309Y-80482200D02*
X146643452Y-80529819D01*
X146643452Y-80529819D02*
X146548214Y-80529819D01*
X146548214Y-80529819D02*
X146405357Y-80482200D01*
X146405357Y-80482200D02*
X146310119Y-80386961D01*
X146310119Y-80386961D02*
X146262500Y-80291723D01*
X146262500Y-80291723D02*
X146214881Y-80101247D01*
X146214881Y-80101247D02*
X146214881Y-79958390D01*
X146214881Y-79958390D02*
X146262500Y-79767914D01*
X146262500Y-79767914D02*
X146310119Y-79672676D01*
X146310119Y-79672676D02*
X146405357Y-79577438D01*
X146405357Y-79577438D02*
X146548214Y-79529819D01*
X146548214Y-79529819D02*
X146643452Y-79529819D01*
X146643452Y-79529819D02*
X146786309Y-79577438D01*
X146786309Y-79577438D02*
X146833928Y-79625057D01*
X147786309Y-80529819D02*
X147214881Y-80529819D01*
X147500595Y-80529819D02*
X147500595Y-79529819D01*
X147500595Y-79529819D02*
X147405357Y-79672676D01*
X147405357Y-79672676D02*
X147310119Y-79767914D01*
X147310119Y-79767914D02*
X147214881Y-79815533D01*
X171666666Y-77704819D02*
X171666666Y-78419104D01*
X171666666Y-78419104D02*
X171619047Y-78561961D01*
X171619047Y-78561961D02*
X171523809Y-78657200D01*
X171523809Y-78657200D02*
X171380952Y-78704819D01*
X171380952Y-78704819D02*
X171285714Y-78704819D01*
X172095238Y-77800057D02*
X172142857Y-77752438D01*
X172142857Y-77752438D02*
X172238095Y-77704819D01*
X172238095Y-77704819D02*
X172476190Y-77704819D01*
X172476190Y-77704819D02*
X172571428Y-77752438D01*
X172571428Y-77752438D02*
X172619047Y-77800057D01*
X172619047Y-77800057D02*
X172666666Y-77895295D01*
X172666666Y-77895295D02*
X172666666Y-77990533D01*
X172666666Y-77990533D02*
X172619047Y-78133390D01*
X172619047Y-78133390D02*
X172047619Y-78704819D01*
X172047619Y-78704819D02*
X172666666Y-78704819D01*
X174666666Y-104654819D02*
X174666666Y-105369104D01*
X174666666Y-105369104D02*
X174619047Y-105511961D01*
X174619047Y-105511961D02*
X174523809Y-105607200D01*
X174523809Y-105607200D02*
X174380952Y-105654819D01*
X174380952Y-105654819D02*
X174285714Y-105654819D01*
X175047619Y-104654819D02*
X175666666Y-104654819D01*
X175666666Y-104654819D02*
X175333333Y-105035771D01*
X175333333Y-105035771D02*
X175476190Y-105035771D01*
X175476190Y-105035771D02*
X175571428Y-105083390D01*
X175571428Y-105083390D02*
X175619047Y-105131009D01*
X175619047Y-105131009D02*
X175666666Y-105226247D01*
X175666666Y-105226247D02*
X175666666Y-105464342D01*
X175666666Y-105464342D02*
X175619047Y-105559580D01*
X175619047Y-105559580D02*
X175571428Y-105607200D01*
X175571428Y-105607200D02*
X175476190Y-105654819D01*
X175476190Y-105654819D02*
X175190476Y-105654819D01*
X175190476Y-105654819D02*
X175095238Y-105607200D01*
X175095238Y-105607200D02*
X175047619Y-105559580D01*
D11*
X129144880Y-88779318D02*
X129144880Y-89807413D01*
X129144880Y-89807413D02*
X129205357Y-89928365D01*
X129205357Y-89928365D02*
X129265833Y-89988842D01*
X129265833Y-89988842D02*
X129386785Y-90049318D01*
X129386785Y-90049318D02*
X129628690Y-90049318D01*
X129628690Y-90049318D02*
X129749642Y-89988842D01*
X129749642Y-89988842D02*
X129810119Y-89928365D01*
X129810119Y-89928365D02*
X129870595Y-89807413D01*
X129870595Y-89807413D02*
X129870595Y-88779318D01*
X130414880Y-88900270D02*
X130475356Y-88839794D01*
X130475356Y-88839794D02*
X130596309Y-88779318D01*
X130596309Y-88779318D02*
X130898690Y-88779318D01*
X130898690Y-88779318D02*
X131019642Y-88839794D01*
X131019642Y-88839794D02*
X131080118Y-88900270D01*
X131080118Y-88900270D02*
X131140595Y-89021222D01*
X131140595Y-89021222D02*
X131140595Y-89142175D01*
X131140595Y-89142175D02*
X131080118Y-89323603D01*
X131080118Y-89323603D02*
X130354404Y-90049318D01*
X130354404Y-90049318D02*
X131140595Y-90049318D01*
D10*
X170666666Y-84654819D02*
X170666666Y-85369104D01*
X170666666Y-85369104D02*
X170619047Y-85511961D01*
X170619047Y-85511961D02*
X170523809Y-85607200D01*
X170523809Y-85607200D02*
X170380952Y-85654819D01*
X170380952Y-85654819D02*
X170285714Y-85654819D01*
X171571428Y-84988152D02*
X171571428Y-85654819D01*
X171333333Y-84607200D02*
X171095238Y-85321485D01*
X171095238Y-85321485D02*
X171714285Y-85321485D01*
X164666666Y-119904819D02*
X164666666Y-120619104D01*
X164666666Y-120619104D02*
X164619047Y-120761961D01*
X164619047Y-120761961D02*
X164523809Y-120857200D01*
X164523809Y-120857200D02*
X164380952Y-120904819D01*
X164380952Y-120904819D02*
X164285714Y-120904819D01*
X165666666Y-120904819D02*
X165095238Y-120904819D01*
X165380952Y-120904819D02*
X165380952Y-119904819D01*
X165380952Y-119904819D02*
X165285714Y-120047676D01*
X165285714Y-120047676D02*
X165190476Y-120142914D01*
X165190476Y-120142914D02*
X165095238Y-120190533D01*
X174666666Y-84654819D02*
X174666666Y-85369104D01*
X174666666Y-85369104D02*
X174619047Y-85511961D01*
X174619047Y-85511961D02*
X174523809Y-85607200D01*
X174523809Y-85607200D02*
X174380952Y-85654819D01*
X174380952Y-85654819D02*
X174285714Y-85654819D01*
X175619047Y-84654819D02*
X175142857Y-84654819D01*
X175142857Y-84654819D02*
X175095238Y-85131009D01*
X175095238Y-85131009D02*
X175142857Y-85083390D01*
X175142857Y-85083390D02*
X175238095Y-85035771D01*
X175238095Y-85035771D02*
X175476190Y-85035771D01*
X175476190Y-85035771D02*
X175571428Y-85083390D01*
X175571428Y-85083390D02*
X175619047Y-85131009D01*
X175619047Y-85131009D02*
X175666666Y-85226247D01*
X175666666Y-85226247D02*
X175666666Y-85464342D01*
X175666666Y-85464342D02*
X175619047Y-85559580D01*
X175619047Y-85559580D02*
X175571428Y-85607200D01*
X175571428Y-85607200D02*
X175476190Y-85654819D01*
X175476190Y-85654819D02*
X175238095Y-85654819D01*
X175238095Y-85654819D02*
X175142857Y-85607200D01*
X175142857Y-85607200D02*
X175095238Y-85559580D01*
X128645833Y-73629819D02*
X128312500Y-73153628D01*
X128074405Y-73629819D02*
X128074405Y-72629819D01*
X128074405Y-72629819D02*
X128455357Y-72629819D01*
X128455357Y-72629819D02*
X128550595Y-72677438D01*
X128550595Y-72677438D02*
X128598214Y-72725057D01*
X128598214Y-72725057D02*
X128645833Y-72820295D01*
X128645833Y-72820295D02*
X128645833Y-72963152D01*
X128645833Y-72963152D02*
X128598214Y-73058390D01*
X128598214Y-73058390D02*
X128550595Y-73106009D01*
X128550595Y-73106009D02*
X128455357Y-73153628D01*
X128455357Y-73153628D02*
X128074405Y-73153628D01*
X129550595Y-72629819D02*
X129074405Y-72629819D01*
X129074405Y-72629819D02*
X129026786Y-73106009D01*
X129026786Y-73106009D02*
X129074405Y-73058390D01*
X129074405Y-73058390D02*
X129169643Y-73010771D01*
X129169643Y-73010771D02*
X129407738Y-73010771D01*
X129407738Y-73010771D02*
X129502976Y-73058390D01*
X129502976Y-73058390D02*
X129550595Y-73106009D01*
X129550595Y-73106009D02*
X129598214Y-73201247D01*
X129598214Y-73201247D02*
X129598214Y-73439342D01*
X129598214Y-73439342D02*
X129550595Y-73534580D01*
X129550595Y-73534580D02*
X129502976Y-73582200D01*
X129502976Y-73582200D02*
X129407738Y-73629819D01*
X129407738Y-73629819D02*
X129169643Y-73629819D01*
X129169643Y-73629819D02*
X129074405Y-73582200D01*
X129074405Y-73582200D02*
X129026786Y-73534580D01*
X160933333Y-94254819D02*
X160600000Y-93778628D01*
X160361905Y-94254819D02*
X160361905Y-93254819D01*
X160361905Y-93254819D02*
X160742857Y-93254819D01*
X160742857Y-93254819D02*
X160838095Y-93302438D01*
X160838095Y-93302438D02*
X160885714Y-93350057D01*
X160885714Y-93350057D02*
X160933333Y-93445295D01*
X160933333Y-93445295D02*
X160933333Y-93588152D01*
X160933333Y-93588152D02*
X160885714Y-93683390D01*
X160885714Y-93683390D02*
X160838095Y-93731009D01*
X160838095Y-93731009D02*
X160742857Y-93778628D01*
X160742857Y-93778628D02*
X160361905Y-93778628D01*
X161266667Y-93254819D02*
X161885714Y-93254819D01*
X161885714Y-93254819D02*
X161552381Y-93635771D01*
X161552381Y-93635771D02*
X161695238Y-93635771D01*
X161695238Y-93635771D02*
X161790476Y-93683390D01*
X161790476Y-93683390D02*
X161838095Y-93731009D01*
X161838095Y-93731009D02*
X161885714Y-93826247D01*
X161885714Y-93826247D02*
X161885714Y-94064342D01*
X161885714Y-94064342D02*
X161838095Y-94159580D01*
X161838095Y-94159580D02*
X161790476Y-94207200D01*
X161790476Y-94207200D02*
X161695238Y-94254819D01*
X161695238Y-94254819D02*
X161409524Y-94254819D01*
X161409524Y-94254819D02*
X161314286Y-94207200D01*
X161314286Y-94207200D02*
X161266667Y-94159580D01*
X125645833Y-102729819D02*
X125312500Y-102253628D01*
X125074405Y-102729819D02*
X125074405Y-101729819D01*
X125074405Y-101729819D02*
X125455357Y-101729819D01*
X125455357Y-101729819D02*
X125550595Y-101777438D01*
X125550595Y-101777438D02*
X125598214Y-101825057D01*
X125598214Y-101825057D02*
X125645833Y-101920295D01*
X125645833Y-101920295D02*
X125645833Y-102063152D01*
X125645833Y-102063152D02*
X125598214Y-102158390D01*
X125598214Y-102158390D02*
X125550595Y-102206009D01*
X125550595Y-102206009D02*
X125455357Y-102253628D01*
X125455357Y-102253628D02*
X125074405Y-102253628D01*
X126502976Y-102063152D02*
X126502976Y-102729819D01*
X126264881Y-101682200D02*
X126026786Y-102396485D01*
X126026786Y-102396485D02*
X126645833Y-102396485D01*
X143395833Y-86634580D02*
X143348214Y-86682200D01*
X143348214Y-86682200D02*
X143205357Y-86729819D01*
X143205357Y-86729819D02*
X143110119Y-86729819D01*
X143110119Y-86729819D02*
X142967262Y-86682200D01*
X142967262Y-86682200D02*
X142872024Y-86586961D01*
X142872024Y-86586961D02*
X142824405Y-86491723D01*
X142824405Y-86491723D02*
X142776786Y-86301247D01*
X142776786Y-86301247D02*
X142776786Y-86158390D01*
X142776786Y-86158390D02*
X142824405Y-85967914D01*
X142824405Y-85967914D02*
X142872024Y-85872676D01*
X142872024Y-85872676D02*
X142967262Y-85777438D01*
X142967262Y-85777438D02*
X143110119Y-85729819D01*
X143110119Y-85729819D02*
X143205357Y-85729819D01*
X143205357Y-85729819D02*
X143348214Y-85777438D01*
X143348214Y-85777438D02*
X143395833Y-85825057D01*
X143967262Y-86158390D02*
X143872024Y-86110771D01*
X143872024Y-86110771D02*
X143824405Y-86063152D01*
X143824405Y-86063152D02*
X143776786Y-85967914D01*
X143776786Y-85967914D02*
X143776786Y-85920295D01*
X143776786Y-85920295D02*
X143824405Y-85825057D01*
X143824405Y-85825057D02*
X143872024Y-85777438D01*
X143872024Y-85777438D02*
X143967262Y-85729819D01*
X143967262Y-85729819D02*
X144157738Y-85729819D01*
X144157738Y-85729819D02*
X144252976Y-85777438D01*
X144252976Y-85777438D02*
X144300595Y-85825057D01*
X144300595Y-85825057D02*
X144348214Y-85920295D01*
X144348214Y-85920295D02*
X144348214Y-85967914D01*
X144348214Y-85967914D02*
X144300595Y-86063152D01*
X144300595Y-86063152D02*
X144252976Y-86110771D01*
X144252976Y-86110771D02*
X144157738Y-86158390D01*
X144157738Y-86158390D02*
X143967262Y-86158390D01*
X143967262Y-86158390D02*
X143872024Y-86206009D01*
X143872024Y-86206009D02*
X143824405Y-86253628D01*
X143824405Y-86253628D02*
X143776786Y-86348866D01*
X143776786Y-86348866D02*
X143776786Y-86539342D01*
X143776786Y-86539342D02*
X143824405Y-86634580D01*
X143824405Y-86634580D02*
X143872024Y-86682200D01*
X143872024Y-86682200D02*
X143967262Y-86729819D01*
X143967262Y-86729819D02*
X144157738Y-86729819D01*
X144157738Y-86729819D02*
X144252976Y-86682200D01*
X144252976Y-86682200D02*
X144300595Y-86634580D01*
X144300595Y-86634580D02*
X144348214Y-86539342D01*
X144348214Y-86539342D02*
X144348214Y-86348866D01*
X144348214Y-86348866D02*
X144300595Y-86253628D01*
X144300595Y-86253628D02*
X144252976Y-86206009D01*
X144252976Y-86206009D02*
X144157738Y-86158390D01*
X162319642Y-89934580D02*
X162272023Y-89982200D01*
X162272023Y-89982200D02*
X162129166Y-90029819D01*
X162129166Y-90029819D02*
X162033928Y-90029819D01*
X162033928Y-90029819D02*
X161891071Y-89982200D01*
X161891071Y-89982200D02*
X161795833Y-89886961D01*
X161795833Y-89886961D02*
X161748214Y-89791723D01*
X161748214Y-89791723D02*
X161700595Y-89601247D01*
X161700595Y-89601247D02*
X161700595Y-89458390D01*
X161700595Y-89458390D02*
X161748214Y-89267914D01*
X161748214Y-89267914D02*
X161795833Y-89172676D01*
X161795833Y-89172676D02*
X161891071Y-89077438D01*
X161891071Y-89077438D02*
X162033928Y-89029819D01*
X162033928Y-89029819D02*
X162129166Y-89029819D01*
X162129166Y-89029819D02*
X162272023Y-89077438D01*
X162272023Y-89077438D02*
X162319642Y-89125057D01*
X163272023Y-90029819D02*
X162700595Y-90029819D01*
X162986309Y-90029819D02*
X162986309Y-89029819D01*
X162986309Y-89029819D02*
X162891071Y-89172676D01*
X162891071Y-89172676D02*
X162795833Y-89267914D01*
X162795833Y-89267914D02*
X162700595Y-89315533D01*
X164176785Y-89029819D02*
X163700595Y-89029819D01*
X163700595Y-89029819D02*
X163652976Y-89506009D01*
X163652976Y-89506009D02*
X163700595Y-89458390D01*
X163700595Y-89458390D02*
X163795833Y-89410771D01*
X163795833Y-89410771D02*
X164033928Y-89410771D01*
X164033928Y-89410771D02*
X164129166Y-89458390D01*
X164129166Y-89458390D02*
X164176785Y-89506009D01*
X164176785Y-89506009D02*
X164224404Y-89601247D01*
X164224404Y-89601247D02*
X164224404Y-89839342D01*
X164224404Y-89839342D02*
X164176785Y-89934580D01*
X164176785Y-89934580D02*
X164129166Y-89982200D01*
X164129166Y-89982200D02*
X164033928Y-90029819D01*
X164033928Y-90029819D02*
X163795833Y-90029819D01*
X163795833Y-90029819D02*
X163700595Y-89982200D01*
X163700595Y-89982200D02*
X163652976Y-89934580D01*
X140769642Y-119534580D02*
X140722023Y-119582200D01*
X140722023Y-119582200D02*
X140579166Y-119629819D01*
X140579166Y-119629819D02*
X140483928Y-119629819D01*
X140483928Y-119629819D02*
X140341071Y-119582200D01*
X140341071Y-119582200D02*
X140245833Y-119486961D01*
X140245833Y-119486961D02*
X140198214Y-119391723D01*
X140198214Y-119391723D02*
X140150595Y-119201247D01*
X140150595Y-119201247D02*
X140150595Y-119058390D01*
X140150595Y-119058390D02*
X140198214Y-118867914D01*
X140198214Y-118867914D02*
X140245833Y-118772676D01*
X140245833Y-118772676D02*
X140341071Y-118677438D01*
X140341071Y-118677438D02*
X140483928Y-118629819D01*
X140483928Y-118629819D02*
X140579166Y-118629819D01*
X140579166Y-118629819D02*
X140722023Y-118677438D01*
X140722023Y-118677438D02*
X140769642Y-118725057D01*
X141722023Y-119629819D02*
X141150595Y-119629819D01*
X141436309Y-119629819D02*
X141436309Y-118629819D01*
X141436309Y-118629819D02*
X141341071Y-118772676D01*
X141341071Y-118772676D02*
X141245833Y-118867914D01*
X141245833Y-118867914D02*
X141150595Y-118915533D01*
X142198214Y-119629819D02*
X142388690Y-119629819D01*
X142388690Y-119629819D02*
X142483928Y-119582200D01*
X142483928Y-119582200D02*
X142531547Y-119534580D01*
X142531547Y-119534580D02*
X142626785Y-119391723D01*
X142626785Y-119391723D02*
X142674404Y-119201247D01*
X142674404Y-119201247D02*
X142674404Y-118820295D01*
X142674404Y-118820295D02*
X142626785Y-118725057D01*
X142626785Y-118725057D02*
X142579166Y-118677438D01*
X142579166Y-118677438D02*
X142483928Y-118629819D01*
X142483928Y-118629819D02*
X142293452Y-118629819D01*
X142293452Y-118629819D02*
X142198214Y-118677438D01*
X142198214Y-118677438D02*
X142150595Y-118725057D01*
X142150595Y-118725057D02*
X142102976Y-118820295D01*
X142102976Y-118820295D02*
X142102976Y-119058390D01*
X142102976Y-119058390D02*
X142150595Y-119153628D01*
X142150595Y-119153628D02*
X142198214Y-119201247D01*
X142198214Y-119201247D02*
X142293452Y-119248866D01*
X142293452Y-119248866D02*
X142483928Y-119248866D01*
X142483928Y-119248866D02*
X142579166Y-119201247D01*
X142579166Y-119201247D02*
X142626785Y-119153628D01*
X142626785Y-119153628D02*
X142674404Y-119058390D01*
X152433333Y-96659580D02*
X152385714Y-96707200D01*
X152385714Y-96707200D02*
X152242857Y-96754819D01*
X152242857Y-96754819D02*
X152147619Y-96754819D01*
X152147619Y-96754819D02*
X152004762Y-96707200D01*
X152004762Y-96707200D02*
X151909524Y-96611961D01*
X151909524Y-96611961D02*
X151861905Y-96516723D01*
X151861905Y-96516723D02*
X151814286Y-96326247D01*
X151814286Y-96326247D02*
X151814286Y-96183390D01*
X151814286Y-96183390D02*
X151861905Y-95992914D01*
X151861905Y-95992914D02*
X151909524Y-95897676D01*
X151909524Y-95897676D02*
X152004762Y-95802438D01*
X152004762Y-95802438D02*
X152147619Y-95754819D01*
X152147619Y-95754819D02*
X152242857Y-95754819D01*
X152242857Y-95754819D02*
X152385714Y-95802438D01*
X152385714Y-95802438D02*
X152433333Y-95850057D01*
X152766667Y-95754819D02*
X153385714Y-95754819D01*
X153385714Y-95754819D02*
X153052381Y-96135771D01*
X153052381Y-96135771D02*
X153195238Y-96135771D01*
X153195238Y-96135771D02*
X153290476Y-96183390D01*
X153290476Y-96183390D02*
X153338095Y-96231009D01*
X153338095Y-96231009D02*
X153385714Y-96326247D01*
X153385714Y-96326247D02*
X153385714Y-96564342D01*
X153385714Y-96564342D02*
X153338095Y-96659580D01*
X153338095Y-96659580D02*
X153290476Y-96707200D01*
X153290476Y-96707200D02*
X153195238Y-96754819D01*
X153195238Y-96754819D02*
X152909524Y-96754819D01*
X152909524Y-96754819D02*
X152814286Y-96707200D01*
X152814286Y-96707200D02*
X152766667Y-96659580D01*
X142419642Y-84834580D02*
X142372023Y-84882200D01*
X142372023Y-84882200D02*
X142229166Y-84929819D01*
X142229166Y-84929819D02*
X142133928Y-84929819D01*
X142133928Y-84929819D02*
X141991071Y-84882200D01*
X141991071Y-84882200D02*
X141895833Y-84786961D01*
X141895833Y-84786961D02*
X141848214Y-84691723D01*
X141848214Y-84691723D02*
X141800595Y-84501247D01*
X141800595Y-84501247D02*
X141800595Y-84358390D01*
X141800595Y-84358390D02*
X141848214Y-84167914D01*
X141848214Y-84167914D02*
X141895833Y-84072676D01*
X141895833Y-84072676D02*
X141991071Y-83977438D01*
X141991071Y-83977438D02*
X142133928Y-83929819D01*
X142133928Y-83929819D02*
X142229166Y-83929819D01*
X142229166Y-83929819D02*
X142372023Y-83977438D01*
X142372023Y-83977438D02*
X142419642Y-84025057D01*
X143372023Y-84929819D02*
X142800595Y-84929819D01*
X143086309Y-84929819D02*
X143086309Y-83929819D01*
X143086309Y-83929819D02*
X142991071Y-84072676D01*
X142991071Y-84072676D02*
X142895833Y-84167914D01*
X142895833Y-84167914D02*
X142800595Y-84215533D01*
X143991071Y-83929819D02*
X144086309Y-83929819D01*
X144086309Y-83929819D02*
X144181547Y-83977438D01*
X144181547Y-83977438D02*
X144229166Y-84025057D01*
X144229166Y-84025057D02*
X144276785Y-84120295D01*
X144276785Y-84120295D02*
X144324404Y-84310771D01*
X144324404Y-84310771D02*
X144324404Y-84548866D01*
X144324404Y-84548866D02*
X144276785Y-84739342D01*
X144276785Y-84739342D02*
X144229166Y-84834580D01*
X144229166Y-84834580D02*
X144181547Y-84882200D01*
X144181547Y-84882200D02*
X144086309Y-84929819D01*
X144086309Y-84929819D02*
X143991071Y-84929819D01*
X143991071Y-84929819D02*
X143895833Y-84882200D01*
X143895833Y-84882200D02*
X143848214Y-84834580D01*
X143848214Y-84834580D02*
X143800595Y-84739342D01*
X143800595Y-84739342D02*
X143752976Y-84548866D01*
X143752976Y-84548866D02*
X143752976Y-84310771D01*
X143752976Y-84310771D02*
X143800595Y-84120295D01*
X143800595Y-84120295D02*
X143848214Y-84025057D01*
X143848214Y-84025057D02*
X143895833Y-83977438D01*
X143895833Y-83977438D02*
X143991071Y-83929819D01*
X123469642Y-77334580D02*
X123422023Y-77382200D01*
X123422023Y-77382200D02*
X123279166Y-77429819D01*
X123279166Y-77429819D02*
X123183928Y-77429819D01*
X123183928Y-77429819D02*
X123041071Y-77382200D01*
X123041071Y-77382200D02*
X122945833Y-77286961D01*
X122945833Y-77286961D02*
X122898214Y-77191723D01*
X122898214Y-77191723D02*
X122850595Y-77001247D01*
X122850595Y-77001247D02*
X122850595Y-76858390D01*
X122850595Y-76858390D02*
X122898214Y-76667914D01*
X122898214Y-76667914D02*
X122945833Y-76572676D01*
X122945833Y-76572676D02*
X123041071Y-76477438D01*
X123041071Y-76477438D02*
X123183928Y-76429819D01*
X123183928Y-76429819D02*
X123279166Y-76429819D01*
X123279166Y-76429819D02*
X123422023Y-76477438D01*
X123422023Y-76477438D02*
X123469642Y-76525057D01*
X124422023Y-77429819D02*
X123850595Y-77429819D01*
X124136309Y-77429819D02*
X124136309Y-76429819D01*
X124136309Y-76429819D02*
X124041071Y-76572676D01*
X124041071Y-76572676D02*
X123945833Y-76667914D01*
X123945833Y-76667914D02*
X123850595Y-76715533D01*
X124993452Y-76858390D02*
X124898214Y-76810771D01*
X124898214Y-76810771D02*
X124850595Y-76763152D01*
X124850595Y-76763152D02*
X124802976Y-76667914D01*
X124802976Y-76667914D02*
X124802976Y-76620295D01*
X124802976Y-76620295D02*
X124850595Y-76525057D01*
X124850595Y-76525057D02*
X124898214Y-76477438D01*
X124898214Y-76477438D02*
X124993452Y-76429819D01*
X124993452Y-76429819D02*
X125183928Y-76429819D01*
X125183928Y-76429819D02*
X125279166Y-76477438D01*
X125279166Y-76477438D02*
X125326785Y-76525057D01*
X125326785Y-76525057D02*
X125374404Y-76620295D01*
X125374404Y-76620295D02*
X125374404Y-76667914D01*
X125374404Y-76667914D02*
X125326785Y-76763152D01*
X125326785Y-76763152D02*
X125279166Y-76810771D01*
X125279166Y-76810771D02*
X125183928Y-76858390D01*
X125183928Y-76858390D02*
X124993452Y-76858390D01*
X124993452Y-76858390D02*
X124898214Y-76906009D01*
X124898214Y-76906009D02*
X124850595Y-76953628D01*
X124850595Y-76953628D02*
X124802976Y-77048866D01*
X124802976Y-77048866D02*
X124802976Y-77239342D01*
X124802976Y-77239342D02*
X124850595Y-77334580D01*
X124850595Y-77334580D02*
X124898214Y-77382200D01*
X124898214Y-77382200D02*
X124993452Y-77429819D01*
X124993452Y-77429819D02*
X125183928Y-77429819D01*
X125183928Y-77429819D02*
X125279166Y-77382200D01*
X125279166Y-77382200D02*
X125326785Y-77334580D01*
X125326785Y-77334580D02*
X125374404Y-77239342D01*
X125374404Y-77239342D02*
X125374404Y-77048866D01*
X125374404Y-77048866D02*
X125326785Y-76953628D01*
X125326785Y-76953628D02*
X125279166Y-76906009D01*
X125279166Y-76906009D02*
X125183928Y-76858390D01*
X162319642Y-86334580D02*
X162272023Y-86382200D01*
X162272023Y-86382200D02*
X162129166Y-86429819D01*
X162129166Y-86429819D02*
X162033928Y-86429819D01*
X162033928Y-86429819D02*
X161891071Y-86382200D01*
X161891071Y-86382200D02*
X161795833Y-86286961D01*
X161795833Y-86286961D02*
X161748214Y-86191723D01*
X161748214Y-86191723D02*
X161700595Y-86001247D01*
X161700595Y-86001247D02*
X161700595Y-85858390D01*
X161700595Y-85858390D02*
X161748214Y-85667914D01*
X161748214Y-85667914D02*
X161795833Y-85572676D01*
X161795833Y-85572676D02*
X161891071Y-85477438D01*
X161891071Y-85477438D02*
X162033928Y-85429819D01*
X162033928Y-85429819D02*
X162129166Y-85429819D01*
X162129166Y-85429819D02*
X162272023Y-85477438D01*
X162272023Y-85477438D02*
X162319642Y-85525057D01*
X163272023Y-86429819D02*
X162700595Y-86429819D01*
X162986309Y-86429819D02*
X162986309Y-85429819D01*
X162986309Y-85429819D02*
X162891071Y-85572676D01*
X162891071Y-85572676D02*
X162795833Y-85667914D01*
X162795833Y-85667914D02*
X162700595Y-85715533D01*
X163605357Y-85429819D02*
X164224404Y-85429819D01*
X164224404Y-85429819D02*
X163891071Y-85810771D01*
X163891071Y-85810771D02*
X164033928Y-85810771D01*
X164033928Y-85810771D02*
X164129166Y-85858390D01*
X164129166Y-85858390D02*
X164176785Y-85906009D01*
X164176785Y-85906009D02*
X164224404Y-86001247D01*
X164224404Y-86001247D02*
X164224404Y-86239342D01*
X164224404Y-86239342D02*
X164176785Y-86334580D01*
X164176785Y-86334580D02*
X164129166Y-86382200D01*
X164129166Y-86382200D02*
X164033928Y-86429819D01*
X164033928Y-86429819D02*
X163748214Y-86429819D01*
X163748214Y-86429819D02*
X163652976Y-86382200D01*
X163652976Y-86382200D02*
X163605357Y-86334580D01*
X162319642Y-91134580D02*
X162272023Y-91182200D01*
X162272023Y-91182200D02*
X162129166Y-91229819D01*
X162129166Y-91229819D02*
X162033928Y-91229819D01*
X162033928Y-91229819D02*
X161891071Y-91182200D01*
X161891071Y-91182200D02*
X161795833Y-91086961D01*
X161795833Y-91086961D02*
X161748214Y-90991723D01*
X161748214Y-90991723D02*
X161700595Y-90801247D01*
X161700595Y-90801247D02*
X161700595Y-90658390D01*
X161700595Y-90658390D02*
X161748214Y-90467914D01*
X161748214Y-90467914D02*
X161795833Y-90372676D01*
X161795833Y-90372676D02*
X161891071Y-90277438D01*
X161891071Y-90277438D02*
X162033928Y-90229819D01*
X162033928Y-90229819D02*
X162129166Y-90229819D01*
X162129166Y-90229819D02*
X162272023Y-90277438D01*
X162272023Y-90277438D02*
X162319642Y-90325057D01*
X163272023Y-91229819D02*
X162700595Y-91229819D01*
X162986309Y-91229819D02*
X162986309Y-90229819D01*
X162986309Y-90229819D02*
X162891071Y-90372676D01*
X162891071Y-90372676D02*
X162795833Y-90467914D01*
X162795833Y-90467914D02*
X162700595Y-90515533D01*
X164129166Y-90229819D02*
X163938690Y-90229819D01*
X163938690Y-90229819D02*
X163843452Y-90277438D01*
X163843452Y-90277438D02*
X163795833Y-90325057D01*
X163795833Y-90325057D02*
X163700595Y-90467914D01*
X163700595Y-90467914D02*
X163652976Y-90658390D01*
X163652976Y-90658390D02*
X163652976Y-91039342D01*
X163652976Y-91039342D02*
X163700595Y-91134580D01*
X163700595Y-91134580D02*
X163748214Y-91182200D01*
X163748214Y-91182200D02*
X163843452Y-91229819D01*
X163843452Y-91229819D02*
X164033928Y-91229819D01*
X164033928Y-91229819D02*
X164129166Y-91182200D01*
X164129166Y-91182200D02*
X164176785Y-91134580D01*
X164176785Y-91134580D02*
X164224404Y-91039342D01*
X164224404Y-91039342D02*
X164224404Y-90801247D01*
X164224404Y-90801247D02*
X164176785Y-90706009D01*
X164176785Y-90706009D02*
X164129166Y-90658390D01*
X164129166Y-90658390D02*
X164033928Y-90610771D01*
X164033928Y-90610771D02*
X163843452Y-90610771D01*
X163843452Y-90610771D02*
X163748214Y-90658390D01*
X163748214Y-90658390D02*
X163700595Y-90706009D01*
X163700595Y-90706009D02*
X163652976Y-90801247D01*
D11*
X129144880Y-114988842D02*
X129326309Y-115049318D01*
X129326309Y-115049318D02*
X129628690Y-115049318D01*
X129628690Y-115049318D02*
X129749642Y-114988842D01*
X129749642Y-114988842D02*
X129810118Y-114928365D01*
X129810118Y-114928365D02*
X129870595Y-114807413D01*
X129870595Y-114807413D02*
X129870595Y-114686461D01*
X129870595Y-114686461D02*
X129810118Y-114565508D01*
X129810118Y-114565508D02*
X129749642Y-114505032D01*
X129749642Y-114505032D02*
X129628690Y-114444556D01*
X129628690Y-114444556D02*
X129386785Y-114384080D01*
X129386785Y-114384080D02*
X129265833Y-114323603D01*
X129265833Y-114323603D02*
X129205356Y-114263127D01*
X129205356Y-114263127D02*
X129144880Y-114142175D01*
X129144880Y-114142175D02*
X129144880Y-114021222D01*
X129144880Y-114021222D02*
X129205356Y-113900270D01*
X129205356Y-113900270D02*
X129265833Y-113839794D01*
X129265833Y-113839794D02*
X129386785Y-113779318D01*
X129386785Y-113779318D02*
X129689166Y-113779318D01*
X129689166Y-113779318D02*
X129870595Y-113839794D01*
X131080119Y-115049318D02*
X130354404Y-115049318D01*
X130717261Y-115049318D02*
X130717261Y-113779318D01*
X130717261Y-113779318D02*
X130596309Y-113960746D01*
X130596309Y-113960746D02*
X130475357Y-114081699D01*
X130475357Y-114081699D02*
X130354404Y-114142175D01*
D10*
X149300595Y-83229819D02*
X149300595Y-84039342D01*
X149300595Y-84039342D02*
X149348214Y-84134580D01*
X149348214Y-84134580D02*
X149395833Y-84182200D01*
X149395833Y-84182200D02*
X149491071Y-84229819D01*
X149491071Y-84229819D02*
X149681547Y-84229819D01*
X149681547Y-84229819D02*
X149776785Y-84182200D01*
X149776785Y-84182200D02*
X149824404Y-84134580D01*
X149824404Y-84134580D02*
X149872023Y-84039342D01*
X149872023Y-84039342D02*
X149872023Y-83229819D01*
X150872023Y-84229819D02*
X150300595Y-84229819D01*
X150586309Y-84229819D02*
X150586309Y-83229819D01*
X150586309Y-83229819D02*
X150491071Y-83372676D01*
X150491071Y-83372676D02*
X150395833Y-83467914D01*
X150395833Y-83467914D02*
X150300595Y-83515533D01*
X141145833Y-110529819D02*
X140812500Y-110053628D01*
X140574405Y-110529819D02*
X140574405Y-109529819D01*
X140574405Y-109529819D02*
X140955357Y-109529819D01*
X140955357Y-109529819D02*
X141050595Y-109577438D01*
X141050595Y-109577438D02*
X141098214Y-109625057D01*
X141098214Y-109625057D02*
X141145833Y-109720295D01*
X141145833Y-109720295D02*
X141145833Y-109863152D01*
X141145833Y-109863152D02*
X141098214Y-109958390D01*
X141098214Y-109958390D02*
X141050595Y-110006009D01*
X141050595Y-110006009D02*
X140955357Y-110053628D01*
X140955357Y-110053628D02*
X140574405Y-110053628D01*
X142002976Y-109529819D02*
X141812500Y-109529819D01*
X141812500Y-109529819D02*
X141717262Y-109577438D01*
X141717262Y-109577438D02*
X141669643Y-109625057D01*
X141669643Y-109625057D02*
X141574405Y-109767914D01*
X141574405Y-109767914D02*
X141526786Y-109958390D01*
X141526786Y-109958390D02*
X141526786Y-110339342D01*
X141526786Y-110339342D02*
X141574405Y-110434580D01*
X141574405Y-110434580D02*
X141622024Y-110482200D01*
X141622024Y-110482200D02*
X141717262Y-110529819D01*
X141717262Y-110529819D02*
X141907738Y-110529819D01*
X141907738Y-110529819D02*
X142002976Y-110482200D01*
X142002976Y-110482200D02*
X142050595Y-110434580D01*
X142050595Y-110434580D02*
X142098214Y-110339342D01*
X142098214Y-110339342D02*
X142098214Y-110101247D01*
X142098214Y-110101247D02*
X142050595Y-110006009D01*
X142050595Y-110006009D02*
X142002976Y-109958390D01*
X142002976Y-109958390D02*
X141907738Y-109910771D01*
X141907738Y-109910771D02*
X141717262Y-109910771D01*
X141717262Y-109910771D02*
X141622024Y-109958390D01*
X141622024Y-109958390D02*
X141574405Y-110006009D01*
X141574405Y-110006009D02*
X141526786Y-110101247D01*
X130969642Y-73534580D02*
X130922023Y-73582200D01*
X130922023Y-73582200D02*
X130779166Y-73629819D01*
X130779166Y-73629819D02*
X130683928Y-73629819D01*
X130683928Y-73629819D02*
X130541071Y-73582200D01*
X130541071Y-73582200D02*
X130445833Y-73486961D01*
X130445833Y-73486961D02*
X130398214Y-73391723D01*
X130398214Y-73391723D02*
X130350595Y-73201247D01*
X130350595Y-73201247D02*
X130350595Y-73058390D01*
X130350595Y-73058390D02*
X130398214Y-72867914D01*
X130398214Y-72867914D02*
X130445833Y-72772676D01*
X130445833Y-72772676D02*
X130541071Y-72677438D01*
X130541071Y-72677438D02*
X130683928Y-72629819D01*
X130683928Y-72629819D02*
X130779166Y-72629819D01*
X130779166Y-72629819D02*
X130922023Y-72677438D01*
X130922023Y-72677438D02*
X130969642Y-72725057D01*
X131350595Y-72725057D02*
X131398214Y-72677438D01*
X131398214Y-72677438D02*
X131493452Y-72629819D01*
X131493452Y-72629819D02*
X131731547Y-72629819D01*
X131731547Y-72629819D02*
X131826785Y-72677438D01*
X131826785Y-72677438D02*
X131874404Y-72725057D01*
X131874404Y-72725057D02*
X131922023Y-72820295D01*
X131922023Y-72820295D02*
X131922023Y-72915533D01*
X131922023Y-72915533D02*
X131874404Y-73058390D01*
X131874404Y-73058390D02*
X131302976Y-73629819D01*
X131302976Y-73629819D02*
X131922023Y-73629819D01*
X132541071Y-72629819D02*
X132636309Y-72629819D01*
X132636309Y-72629819D02*
X132731547Y-72677438D01*
X132731547Y-72677438D02*
X132779166Y-72725057D01*
X132779166Y-72725057D02*
X132826785Y-72820295D01*
X132826785Y-72820295D02*
X132874404Y-73010771D01*
X132874404Y-73010771D02*
X132874404Y-73248866D01*
X132874404Y-73248866D02*
X132826785Y-73439342D01*
X132826785Y-73439342D02*
X132779166Y-73534580D01*
X132779166Y-73534580D02*
X132731547Y-73582200D01*
X132731547Y-73582200D02*
X132636309Y-73629819D01*
X132636309Y-73629819D02*
X132541071Y-73629819D01*
X132541071Y-73629819D02*
X132445833Y-73582200D01*
X132445833Y-73582200D02*
X132398214Y-73534580D01*
X132398214Y-73534580D02*
X132350595Y-73439342D01*
X132350595Y-73439342D02*
X132302976Y-73248866D01*
X132302976Y-73248866D02*
X132302976Y-73010771D01*
X132302976Y-73010771D02*
X132350595Y-72820295D01*
X132350595Y-72820295D02*
X132398214Y-72725057D01*
X132398214Y-72725057D02*
X132445833Y-72677438D01*
X132445833Y-72677438D02*
X132541071Y-72629819D01*
X153922080Y-80066666D02*
X153969700Y-80114285D01*
X153969700Y-80114285D02*
X154017319Y-80257142D01*
X154017319Y-80257142D02*
X154017319Y-80352380D01*
X154017319Y-80352380D02*
X153969700Y-80495237D01*
X153969700Y-80495237D02*
X153874461Y-80590475D01*
X153874461Y-80590475D02*
X153779223Y-80638094D01*
X153779223Y-80638094D02*
X153588747Y-80685713D01*
X153588747Y-80685713D02*
X153445890Y-80685713D01*
X153445890Y-80685713D02*
X153255414Y-80638094D01*
X153255414Y-80638094D02*
X153160176Y-80590475D01*
X153160176Y-80590475D02*
X153064938Y-80495237D01*
X153064938Y-80495237D02*
X153017319Y-80352380D01*
X153017319Y-80352380D02*
X153017319Y-80257142D01*
X153017319Y-80257142D02*
X153064938Y-80114285D01*
X153064938Y-80114285D02*
X153112557Y-80066666D01*
X153017319Y-79733332D02*
X153017319Y-79066666D01*
X153017319Y-79066666D02*
X154017319Y-79495237D01*
X158733333Y-79059580D02*
X158685714Y-79107200D01*
X158685714Y-79107200D02*
X158542857Y-79154819D01*
X158542857Y-79154819D02*
X158447619Y-79154819D01*
X158447619Y-79154819D02*
X158304762Y-79107200D01*
X158304762Y-79107200D02*
X158209524Y-79011961D01*
X158209524Y-79011961D02*
X158161905Y-78916723D01*
X158161905Y-78916723D02*
X158114286Y-78726247D01*
X158114286Y-78726247D02*
X158114286Y-78583390D01*
X158114286Y-78583390D02*
X158161905Y-78392914D01*
X158161905Y-78392914D02*
X158209524Y-78297676D01*
X158209524Y-78297676D02*
X158304762Y-78202438D01*
X158304762Y-78202438D02*
X158447619Y-78154819D01*
X158447619Y-78154819D02*
X158542857Y-78154819D01*
X158542857Y-78154819D02*
X158685714Y-78202438D01*
X158685714Y-78202438D02*
X158733333Y-78250057D01*
X159209524Y-79154819D02*
X159400000Y-79154819D01*
X159400000Y-79154819D02*
X159495238Y-79107200D01*
X159495238Y-79107200D02*
X159542857Y-79059580D01*
X159542857Y-79059580D02*
X159638095Y-78916723D01*
X159638095Y-78916723D02*
X159685714Y-78726247D01*
X159685714Y-78726247D02*
X159685714Y-78345295D01*
X159685714Y-78345295D02*
X159638095Y-78250057D01*
X159638095Y-78250057D02*
X159590476Y-78202438D01*
X159590476Y-78202438D02*
X159495238Y-78154819D01*
X159495238Y-78154819D02*
X159304762Y-78154819D01*
X159304762Y-78154819D02*
X159209524Y-78202438D01*
X159209524Y-78202438D02*
X159161905Y-78250057D01*
X159161905Y-78250057D02*
X159114286Y-78345295D01*
X159114286Y-78345295D02*
X159114286Y-78583390D01*
X159114286Y-78583390D02*
X159161905Y-78678628D01*
X159161905Y-78678628D02*
X159209524Y-78726247D01*
X159209524Y-78726247D02*
X159304762Y-78773866D01*
X159304762Y-78773866D02*
X159495238Y-78773866D01*
X159495238Y-78773866D02*
X159590476Y-78726247D01*
X159590476Y-78726247D02*
X159638095Y-78678628D01*
X159638095Y-78678628D02*
X159685714Y-78583390D01*
X135169642Y-102634580D02*
X135122023Y-102682200D01*
X135122023Y-102682200D02*
X134979166Y-102729819D01*
X134979166Y-102729819D02*
X134883928Y-102729819D01*
X134883928Y-102729819D02*
X134741071Y-102682200D01*
X134741071Y-102682200D02*
X134645833Y-102586961D01*
X134645833Y-102586961D02*
X134598214Y-102491723D01*
X134598214Y-102491723D02*
X134550595Y-102301247D01*
X134550595Y-102301247D02*
X134550595Y-102158390D01*
X134550595Y-102158390D02*
X134598214Y-101967914D01*
X134598214Y-101967914D02*
X134645833Y-101872676D01*
X134645833Y-101872676D02*
X134741071Y-101777438D01*
X134741071Y-101777438D02*
X134883928Y-101729819D01*
X134883928Y-101729819D02*
X134979166Y-101729819D01*
X134979166Y-101729819D02*
X135122023Y-101777438D01*
X135122023Y-101777438D02*
X135169642Y-101825057D01*
X136122023Y-102729819D02*
X135550595Y-102729819D01*
X135836309Y-102729819D02*
X135836309Y-101729819D01*
X135836309Y-101729819D02*
X135741071Y-101872676D01*
X135741071Y-101872676D02*
X135645833Y-101967914D01*
X135645833Y-101967914D02*
X135550595Y-102015533D01*
X136455357Y-101729819D02*
X137122023Y-101729819D01*
X137122023Y-101729819D02*
X136693452Y-102729819D01*
X143295833Y-88654819D02*
X142962500Y-88178628D01*
X142724405Y-88654819D02*
X142724405Y-87654819D01*
X142724405Y-87654819D02*
X143105357Y-87654819D01*
X143105357Y-87654819D02*
X143200595Y-87702438D01*
X143200595Y-87702438D02*
X143248214Y-87750057D01*
X143248214Y-87750057D02*
X143295833Y-87845295D01*
X143295833Y-87845295D02*
X143295833Y-87988152D01*
X143295833Y-87988152D02*
X143248214Y-88083390D01*
X143248214Y-88083390D02*
X143200595Y-88131009D01*
X143200595Y-88131009D02*
X143105357Y-88178628D01*
X143105357Y-88178628D02*
X142724405Y-88178628D01*
X143629167Y-87654819D02*
X144295833Y-87654819D01*
X144295833Y-87654819D02*
X143867262Y-88654819D01*
X155159580Y-80186666D02*
X155207200Y-80234285D01*
X155207200Y-80234285D02*
X155254819Y-80377142D01*
X155254819Y-80377142D02*
X155254819Y-80472380D01*
X155254819Y-80472380D02*
X155207200Y-80615237D01*
X155207200Y-80615237D02*
X155111961Y-80710475D01*
X155111961Y-80710475D02*
X155016723Y-80758094D01*
X155016723Y-80758094D02*
X154826247Y-80805713D01*
X154826247Y-80805713D02*
X154683390Y-80805713D01*
X154683390Y-80805713D02*
X154492914Y-80758094D01*
X154492914Y-80758094D02*
X154397676Y-80710475D01*
X154397676Y-80710475D02*
X154302438Y-80615237D01*
X154302438Y-80615237D02*
X154254819Y-80472380D01*
X154254819Y-80472380D02*
X154254819Y-80377142D01*
X154254819Y-80377142D02*
X154302438Y-80234285D01*
X154302438Y-80234285D02*
X154350057Y-80186666D01*
X154350057Y-79805713D02*
X154302438Y-79758094D01*
X154302438Y-79758094D02*
X154254819Y-79662856D01*
X154254819Y-79662856D02*
X154254819Y-79424761D01*
X154254819Y-79424761D02*
X154302438Y-79329523D01*
X154302438Y-79329523D02*
X154350057Y-79281904D01*
X154350057Y-79281904D02*
X154445295Y-79234285D01*
X154445295Y-79234285D02*
X154540533Y-79234285D01*
X154540533Y-79234285D02*
X154683390Y-79281904D01*
X154683390Y-79281904D02*
X155254819Y-79853332D01*
X155254819Y-79853332D02*
X155254819Y-79234285D01*
X135545833Y-77229819D02*
X135212500Y-76753628D01*
X134974405Y-77229819D02*
X134974405Y-76229819D01*
X134974405Y-76229819D02*
X135355357Y-76229819D01*
X135355357Y-76229819D02*
X135450595Y-76277438D01*
X135450595Y-76277438D02*
X135498214Y-76325057D01*
X135498214Y-76325057D02*
X135545833Y-76420295D01*
X135545833Y-76420295D02*
X135545833Y-76563152D01*
X135545833Y-76563152D02*
X135498214Y-76658390D01*
X135498214Y-76658390D02*
X135450595Y-76706009D01*
X135450595Y-76706009D02*
X135355357Y-76753628D01*
X135355357Y-76753628D02*
X134974405Y-76753628D01*
X136117262Y-76658390D02*
X136022024Y-76610771D01*
X136022024Y-76610771D02*
X135974405Y-76563152D01*
X135974405Y-76563152D02*
X135926786Y-76467914D01*
X135926786Y-76467914D02*
X135926786Y-76420295D01*
X135926786Y-76420295D02*
X135974405Y-76325057D01*
X135974405Y-76325057D02*
X136022024Y-76277438D01*
X136022024Y-76277438D02*
X136117262Y-76229819D01*
X136117262Y-76229819D02*
X136307738Y-76229819D01*
X136307738Y-76229819D02*
X136402976Y-76277438D01*
X136402976Y-76277438D02*
X136450595Y-76325057D01*
X136450595Y-76325057D02*
X136498214Y-76420295D01*
X136498214Y-76420295D02*
X136498214Y-76467914D01*
X136498214Y-76467914D02*
X136450595Y-76563152D01*
X136450595Y-76563152D02*
X136402976Y-76610771D01*
X136402976Y-76610771D02*
X136307738Y-76658390D01*
X136307738Y-76658390D02*
X136117262Y-76658390D01*
X136117262Y-76658390D02*
X136022024Y-76706009D01*
X136022024Y-76706009D02*
X135974405Y-76753628D01*
X135974405Y-76753628D02*
X135926786Y-76848866D01*
X135926786Y-76848866D02*
X135926786Y-77039342D01*
X135926786Y-77039342D02*
X135974405Y-77134580D01*
X135974405Y-77134580D02*
X136022024Y-77182200D01*
X136022024Y-77182200D02*
X136117262Y-77229819D01*
X136117262Y-77229819D02*
X136307738Y-77229819D01*
X136307738Y-77229819D02*
X136402976Y-77182200D01*
X136402976Y-77182200D02*
X136450595Y-77134580D01*
X136450595Y-77134580D02*
X136498214Y-77039342D01*
X136498214Y-77039342D02*
X136498214Y-76848866D01*
X136498214Y-76848866D02*
X136450595Y-76753628D01*
X136450595Y-76753628D02*
X136402976Y-76706009D01*
X136402976Y-76706009D02*
X136307738Y-76658390D01*
X162279642Y-88734580D02*
X162232023Y-88782200D01*
X162232023Y-88782200D02*
X162089166Y-88829819D01*
X162089166Y-88829819D02*
X161993928Y-88829819D01*
X161993928Y-88829819D02*
X161851071Y-88782200D01*
X161851071Y-88782200D02*
X161755833Y-88686961D01*
X161755833Y-88686961D02*
X161708214Y-88591723D01*
X161708214Y-88591723D02*
X161660595Y-88401247D01*
X161660595Y-88401247D02*
X161660595Y-88258390D01*
X161660595Y-88258390D02*
X161708214Y-88067914D01*
X161708214Y-88067914D02*
X161755833Y-87972676D01*
X161755833Y-87972676D02*
X161851071Y-87877438D01*
X161851071Y-87877438D02*
X161993928Y-87829819D01*
X161993928Y-87829819D02*
X162089166Y-87829819D01*
X162089166Y-87829819D02*
X162232023Y-87877438D01*
X162232023Y-87877438D02*
X162279642Y-87925057D01*
X163232023Y-88829819D02*
X162660595Y-88829819D01*
X162946309Y-88829819D02*
X162946309Y-87829819D01*
X162946309Y-87829819D02*
X162851071Y-87972676D01*
X162851071Y-87972676D02*
X162755833Y-88067914D01*
X162755833Y-88067914D02*
X162660595Y-88115533D01*
X164089166Y-88163152D02*
X164089166Y-88829819D01*
X163851071Y-87782200D02*
X163612976Y-88496485D01*
X163612976Y-88496485D02*
X164232023Y-88496485D01*
X159591667Y-101007200D02*
X159734524Y-101054819D01*
X159734524Y-101054819D02*
X159972619Y-101054819D01*
X159972619Y-101054819D02*
X160067857Y-101007200D01*
X160067857Y-101007200D02*
X160115476Y-100959580D01*
X160115476Y-100959580D02*
X160163095Y-100864342D01*
X160163095Y-100864342D02*
X160163095Y-100769104D01*
X160163095Y-100769104D02*
X160115476Y-100673866D01*
X160115476Y-100673866D02*
X160067857Y-100626247D01*
X160067857Y-100626247D02*
X159972619Y-100578628D01*
X159972619Y-100578628D02*
X159782143Y-100531009D01*
X159782143Y-100531009D02*
X159686905Y-100483390D01*
X159686905Y-100483390D02*
X159639286Y-100435771D01*
X159639286Y-100435771D02*
X159591667Y-100340533D01*
X159591667Y-100340533D02*
X159591667Y-100245295D01*
X159591667Y-100245295D02*
X159639286Y-100150057D01*
X159639286Y-100150057D02*
X159686905Y-100102438D01*
X159686905Y-100102438D02*
X159782143Y-100054819D01*
X159782143Y-100054819D02*
X160020238Y-100054819D01*
X160020238Y-100054819D02*
X160163095Y-100102438D01*
X160496429Y-100054819D02*
X160734524Y-101054819D01*
X160734524Y-101054819D02*
X160925000Y-100340533D01*
X160925000Y-100340533D02*
X161115476Y-101054819D01*
X161115476Y-101054819D02*
X161353572Y-100054819D01*
X161686905Y-100150057D02*
X161734524Y-100102438D01*
X161734524Y-100102438D02*
X161829762Y-100054819D01*
X161829762Y-100054819D02*
X162067857Y-100054819D01*
X162067857Y-100054819D02*
X162163095Y-100102438D01*
X162163095Y-100102438D02*
X162210714Y-100150057D01*
X162210714Y-100150057D02*
X162258333Y-100245295D01*
X162258333Y-100245295D02*
X162258333Y-100340533D01*
X162258333Y-100340533D02*
X162210714Y-100483390D01*
X162210714Y-100483390D02*
X161639286Y-101054819D01*
X161639286Y-101054819D02*
X162258333Y-101054819D01*
X149191667Y-101007200D02*
X149334524Y-101054819D01*
X149334524Y-101054819D02*
X149572619Y-101054819D01*
X149572619Y-101054819D02*
X149667857Y-101007200D01*
X149667857Y-101007200D02*
X149715476Y-100959580D01*
X149715476Y-100959580D02*
X149763095Y-100864342D01*
X149763095Y-100864342D02*
X149763095Y-100769104D01*
X149763095Y-100769104D02*
X149715476Y-100673866D01*
X149715476Y-100673866D02*
X149667857Y-100626247D01*
X149667857Y-100626247D02*
X149572619Y-100578628D01*
X149572619Y-100578628D02*
X149382143Y-100531009D01*
X149382143Y-100531009D02*
X149286905Y-100483390D01*
X149286905Y-100483390D02*
X149239286Y-100435771D01*
X149239286Y-100435771D02*
X149191667Y-100340533D01*
X149191667Y-100340533D02*
X149191667Y-100245295D01*
X149191667Y-100245295D02*
X149239286Y-100150057D01*
X149239286Y-100150057D02*
X149286905Y-100102438D01*
X149286905Y-100102438D02*
X149382143Y-100054819D01*
X149382143Y-100054819D02*
X149620238Y-100054819D01*
X149620238Y-100054819D02*
X149763095Y-100102438D01*
X150096429Y-100054819D02*
X150334524Y-101054819D01*
X150334524Y-101054819D02*
X150525000Y-100340533D01*
X150525000Y-100340533D02*
X150715476Y-101054819D01*
X150715476Y-101054819D02*
X150953572Y-100054819D01*
X151858333Y-101054819D02*
X151286905Y-101054819D01*
X151572619Y-101054819D02*
X151572619Y-100054819D01*
X151572619Y-100054819D02*
X151477381Y-100197676D01*
X151477381Y-100197676D02*
X151382143Y-100292914D01*
X151382143Y-100292914D02*
X151286905Y-100340533D01*
X152722080Y-80066666D02*
X152769700Y-80114285D01*
X152769700Y-80114285D02*
X152817319Y-80257142D01*
X152817319Y-80257142D02*
X152817319Y-80352380D01*
X152817319Y-80352380D02*
X152769700Y-80495237D01*
X152769700Y-80495237D02*
X152674461Y-80590475D01*
X152674461Y-80590475D02*
X152579223Y-80638094D01*
X152579223Y-80638094D02*
X152388747Y-80685713D01*
X152388747Y-80685713D02*
X152245890Y-80685713D01*
X152245890Y-80685713D02*
X152055414Y-80638094D01*
X152055414Y-80638094D02*
X151960176Y-80590475D01*
X151960176Y-80590475D02*
X151864938Y-80495237D01*
X151864938Y-80495237D02*
X151817319Y-80352380D01*
X151817319Y-80352380D02*
X151817319Y-80257142D01*
X151817319Y-80257142D02*
X151864938Y-80114285D01*
X151864938Y-80114285D02*
X151912557Y-80066666D01*
X151817319Y-79161904D02*
X151817319Y-79638094D01*
X151817319Y-79638094D02*
X152293509Y-79685713D01*
X152293509Y-79685713D02*
X152245890Y-79638094D01*
X152245890Y-79638094D02*
X152198271Y-79542856D01*
X152198271Y-79542856D02*
X152198271Y-79304761D01*
X152198271Y-79304761D02*
X152245890Y-79209523D01*
X152245890Y-79209523D02*
X152293509Y-79161904D01*
X152293509Y-79161904D02*
X152388747Y-79114285D01*
X152388747Y-79114285D02*
X152626842Y-79114285D01*
X152626842Y-79114285D02*
X152722080Y-79161904D01*
X152722080Y-79161904D02*
X152769700Y-79209523D01*
X152769700Y-79209523D02*
X152817319Y-79304761D01*
X152817319Y-79304761D02*
X152817319Y-79542856D01*
X152817319Y-79542856D02*
X152769700Y-79638094D01*
X152769700Y-79638094D02*
X152722080Y-79685713D01*
X156359580Y-80166666D02*
X156407200Y-80214285D01*
X156407200Y-80214285D02*
X156454819Y-80357142D01*
X156454819Y-80357142D02*
X156454819Y-80452380D01*
X156454819Y-80452380D02*
X156407200Y-80595237D01*
X156407200Y-80595237D02*
X156311961Y-80690475D01*
X156311961Y-80690475D02*
X156216723Y-80738094D01*
X156216723Y-80738094D02*
X156026247Y-80785713D01*
X156026247Y-80785713D02*
X155883390Y-80785713D01*
X155883390Y-80785713D02*
X155692914Y-80738094D01*
X155692914Y-80738094D02*
X155597676Y-80690475D01*
X155597676Y-80690475D02*
X155502438Y-80595237D01*
X155502438Y-80595237D02*
X155454819Y-80452380D01*
X155454819Y-80452380D02*
X155454819Y-80357142D01*
X155454819Y-80357142D02*
X155502438Y-80214285D01*
X155502438Y-80214285D02*
X155550057Y-80166666D01*
X156454819Y-79214285D02*
X156454819Y-79785713D01*
X156454819Y-79499999D02*
X155454819Y-79499999D01*
X155454819Y-79499999D02*
X155597676Y-79595237D01*
X155597676Y-79595237D02*
X155692914Y-79690475D01*
X155692914Y-79690475D02*
X155740533Y-79785713D01*
X157559580Y-80166666D02*
X157607200Y-80214285D01*
X157607200Y-80214285D02*
X157654819Y-80357142D01*
X157654819Y-80357142D02*
X157654819Y-80452380D01*
X157654819Y-80452380D02*
X157607200Y-80595237D01*
X157607200Y-80595237D02*
X157511961Y-80690475D01*
X157511961Y-80690475D02*
X157416723Y-80738094D01*
X157416723Y-80738094D02*
X157226247Y-80785713D01*
X157226247Y-80785713D02*
X157083390Y-80785713D01*
X157083390Y-80785713D02*
X156892914Y-80738094D01*
X156892914Y-80738094D02*
X156797676Y-80690475D01*
X156797676Y-80690475D02*
X156702438Y-80595237D01*
X156702438Y-80595237D02*
X156654819Y-80452380D01*
X156654819Y-80452380D02*
X156654819Y-80357142D01*
X156654819Y-80357142D02*
X156702438Y-80214285D01*
X156702438Y-80214285D02*
X156750057Y-80166666D01*
X156654819Y-79309523D02*
X156654819Y-79499999D01*
X156654819Y-79499999D02*
X156702438Y-79595237D01*
X156702438Y-79595237D02*
X156750057Y-79642856D01*
X156750057Y-79642856D02*
X156892914Y-79738094D01*
X156892914Y-79738094D02*
X157083390Y-79785713D01*
X157083390Y-79785713D02*
X157464342Y-79785713D01*
X157464342Y-79785713D02*
X157559580Y-79738094D01*
X157559580Y-79738094D02*
X157607200Y-79690475D01*
X157607200Y-79690475D02*
X157654819Y-79595237D01*
X157654819Y-79595237D02*
X157654819Y-79404761D01*
X157654819Y-79404761D02*
X157607200Y-79309523D01*
X157607200Y-79309523D02*
X157559580Y-79261904D01*
X157559580Y-79261904D02*
X157464342Y-79214285D01*
X157464342Y-79214285D02*
X157226247Y-79214285D01*
X157226247Y-79214285D02*
X157131009Y-79261904D01*
X157131009Y-79261904D02*
X157083390Y-79309523D01*
X157083390Y-79309523D02*
X157035771Y-79404761D01*
X157035771Y-79404761D02*
X157035771Y-79595237D01*
X157035771Y-79595237D02*
X157083390Y-79690475D01*
X157083390Y-79690475D02*
X157131009Y-79738094D01*
X157131009Y-79738094D02*
X157226247Y-79785713D01*
X161133333Y-97959580D02*
X161085714Y-98007200D01*
X161085714Y-98007200D02*
X160942857Y-98054819D01*
X160942857Y-98054819D02*
X160847619Y-98054819D01*
X160847619Y-98054819D02*
X160704762Y-98007200D01*
X160704762Y-98007200D02*
X160609524Y-97911961D01*
X160609524Y-97911961D02*
X160561905Y-97816723D01*
X160561905Y-97816723D02*
X160514286Y-97626247D01*
X160514286Y-97626247D02*
X160514286Y-97483390D01*
X160514286Y-97483390D02*
X160561905Y-97292914D01*
X160561905Y-97292914D02*
X160609524Y-97197676D01*
X160609524Y-97197676D02*
X160704762Y-97102438D01*
X160704762Y-97102438D02*
X160847619Y-97054819D01*
X160847619Y-97054819D02*
X160942857Y-97054819D01*
X160942857Y-97054819D02*
X161085714Y-97102438D01*
X161085714Y-97102438D02*
X161133333Y-97150057D01*
X161990476Y-97388152D02*
X161990476Y-98054819D01*
X161752381Y-97007200D02*
X161514286Y-97721485D01*
X161514286Y-97721485D02*
X162133333Y-97721485D01*
X162279642Y-87534580D02*
X162232023Y-87582200D01*
X162232023Y-87582200D02*
X162089166Y-87629819D01*
X162089166Y-87629819D02*
X161993928Y-87629819D01*
X161993928Y-87629819D02*
X161851071Y-87582200D01*
X161851071Y-87582200D02*
X161755833Y-87486961D01*
X161755833Y-87486961D02*
X161708214Y-87391723D01*
X161708214Y-87391723D02*
X161660595Y-87201247D01*
X161660595Y-87201247D02*
X161660595Y-87058390D01*
X161660595Y-87058390D02*
X161708214Y-86867914D01*
X161708214Y-86867914D02*
X161755833Y-86772676D01*
X161755833Y-86772676D02*
X161851071Y-86677438D01*
X161851071Y-86677438D02*
X161993928Y-86629819D01*
X161993928Y-86629819D02*
X162089166Y-86629819D01*
X162089166Y-86629819D02*
X162232023Y-86677438D01*
X162232023Y-86677438D02*
X162279642Y-86725057D01*
X163232023Y-87629819D02*
X162660595Y-87629819D01*
X162946309Y-87629819D02*
X162946309Y-86629819D01*
X162946309Y-86629819D02*
X162851071Y-86772676D01*
X162851071Y-86772676D02*
X162755833Y-86867914D01*
X162755833Y-86867914D02*
X162660595Y-86915533D01*
X163612976Y-86725057D02*
X163660595Y-86677438D01*
X163660595Y-86677438D02*
X163755833Y-86629819D01*
X163755833Y-86629819D02*
X163993928Y-86629819D01*
X163993928Y-86629819D02*
X164089166Y-86677438D01*
X164089166Y-86677438D02*
X164136785Y-86725057D01*
X164136785Y-86725057D02*
X164184404Y-86820295D01*
X164184404Y-86820295D02*
X164184404Y-86915533D01*
X164184404Y-86915533D02*
X164136785Y-87058390D01*
X164136785Y-87058390D02*
X163565357Y-87629819D01*
X163565357Y-87629819D02*
X164184404Y-87629819D01*
D12*
G36*
X163199227Y-105919983D02*
G01*
X163275312Y-105931269D01*
X163349924Y-105949959D01*
X163422346Y-105975871D01*
X163491878Y-106008758D01*
X163557853Y-106048302D01*
X163619634Y-106094121D01*
X163676626Y-106145776D01*
X163728280Y-106202768D01*
X163774100Y-106264549D01*
X163813644Y-106330523D01*
X163846530Y-106400056D01*
X163872443Y-106472477D01*
X163891132Y-106547090D01*
X163902419Y-106623175D01*
X163906193Y-106700000D01*
X163902419Y-106776825D01*
X163891132Y-106852910D01*
X163872443Y-106927523D01*
X163846530Y-106999944D01*
X163813644Y-107069477D01*
X163774100Y-107135451D01*
X163728280Y-107197232D01*
X163676626Y-107254224D01*
X163619634Y-107305879D01*
X163557853Y-107351698D01*
X163491878Y-107391242D01*
X163422346Y-107424129D01*
X163349924Y-107450041D01*
X163275312Y-107468731D01*
X163199227Y-107480017D01*
X163122402Y-107483791D01*
X162853150Y-107483791D01*
X162610824Y-107483791D01*
X161749758Y-107483791D01*
X160841842Y-107483791D01*
X160134249Y-107483791D01*
X159649596Y-107483791D01*
X158946850Y-107483791D01*
X158677598Y-107483791D01*
X158600773Y-107480017D01*
X158524688Y-107468731D01*
X158450076Y-107450041D01*
X158377654Y-107424129D01*
X158308122Y-107391242D01*
X158242147Y-107351698D01*
X158180367Y-107305879D01*
X158123374Y-107254224D01*
X158071720Y-107197232D01*
X158025900Y-107135451D01*
X157986356Y-107069477D01*
X157953470Y-106999944D01*
X157927557Y-106927523D01*
X157908868Y-106852910D01*
X157897581Y-106776825D01*
X157893807Y-106700000D01*
X157897581Y-106623175D01*
X157908868Y-106547090D01*
X157927557Y-106472477D01*
X157953470Y-106400056D01*
X157986356Y-106330523D01*
X158025900Y-106264549D01*
X158065386Y-106211309D01*
X158946850Y-106211309D01*
X158946850Y-107196769D01*
X159145557Y-107196769D01*
X159145557Y-106828433D01*
X159248950Y-106828433D01*
X159303675Y-106919911D01*
X159354766Y-107010178D01*
X159401010Y-107101656D01*
X159441196Y-107196769D01*
X159649596Y-107196769D01*
X159603554Y-107090953D01*
X159547819Y-106979483D01*
X159488045Y-106872859D01*
X159457196Y-106823586D01*
X159717448Y-106823586D01*
X159724717Y-106914459D01*
X159746527Y-106993215D01*
X159781866Y-107060057D01*
X159829725Y-107115186D01*
X159889499Y-107158401D01*
X159960582Y-107189499D01*
X160042367Y-107208279D01*
X160134249Y-107214540D01*
X160265105Y-107202423D01*
X160374960Y-107172536D01*
X160371560Y-107151535D01*
X160562359Y-107151535D01*
X160673829Y-107191922D01*
X160750565Y-107208885D01*
X160841842Y-107214540D01*
X160931099Y-107210097D01*
X161005008Y-107196769D01*
X161112439Y-107148304D01*
X161171406Y-107075606D01*
X161189176Y-106986753D01*
X161164943Y-106885784D01*
X161107929Y-106823586D01*
X161332956Y-106823586D01*
X161340226Y-106914459D01*
X161362036Y-106993215D01*
X161397375Y-107060057D01*
X161445234Y-107115186D01*
X161505008Y-107158401D01*
X161576090Y-107189499D01*
X161657876Y-107208279D01*
X161749758Y-107214540D01*
X161880614Y-107202423D01*
X161990469Y-107172536D01*
X161963005Y-107002908D01*
X161871729Y-107028756D01*
X161757835Y-107041680D01*
X161669790Y-107030977D01*
X161599515Y-106998869D01*
X161553473Y-106948183D01*
X161538126Y-106881745D01*
X162030856Y-106881745D01*
X162033280Y-106847819D01*
X162034087Y-106807431D01*
X162024394Y-106690486D01*
X161995315Y-106593825D01*
X161946850Y-106517447D01*
X161879716Y-106462251D01*
X161816077Y-106437480D01*
X162148788Y-106437480D01*
X162148788Y-106602262D01*
X162321648Y-106602262D01*
X162321648Y-106914055D01*
X162326494Y-107000283D01*
X162341034Y-107068336D01*
X162397577Y-107159612D01*
X162488045Y-107203231D01*
X162610824Y-107214540D01*
X162734410Y-107204847D01*
X162853150Y-107172536D01*
X162825687Y-107001292D01*
X162774798Y-107022294D01*
X162729564Y-107034410D01*
X162684330Y-107040065D01*
X162633441Y-107041680D01*
X162586591Y-107036834D01*
X162551050Y-107017447D01*
X162528433Y-106977060D01*
X162520355Y-106909208D01*
X162520355Y-106602262D01*
X162838611Y-106602262D01*
X162838611Y-106437480D01*
X162520355Y-106437480D01*
X162520355Y-106214540D01*
X162321648Y-106246850D01*
X162321648Y-106437480D01*
X162148788Y-106437480D01*
X161816077Y-106437480D01*
X161794633Y-106429133D01*
X161691599Y-106418094D01*
X161624556Y-106424556D01*
X161559128Y-106443942D01*
X161498142Y-106476050D01*
X161444427Y-106520679D01*
X161399192Y-106577827D01*
X161363651Y-106647496D01*
X161340630Y-106729483D01*
X161332956Y-106823586D01*
X161107929Y-106823586D01*
X161102746Y-106817932D01*
X161017932Y-106773506D01*
X160927464Y-106741195D01*
X160870113Y-106721002D01*
X160823263Y-106699192D01*
X160790953Y-106674152D01*
X160778837Y-106642649D01*
X160805493Y-106603069D01*
X160908078Y-106584491D01*
X161038934Y-106603069D01*
X161124556Y-106629725D01*
X161155250Y-106461712D01*
X161044588Y-106429402D01*
X160978150Y-106420921D01*
X160906462Y-106418094D01*
X160826898Y-106422738D01*
X160759451Y-106436672D01*
X160658481Y-106488368D01*
X160600323Y-106564297D01*
X160581745Y-106655574D01*
X160605977Y-106754927D01*
X160667367Y-106820355D01*
X160749758Y-106863166D01*
X160838611Y-106893053D01*
X160897577Y-106912439D01*
X160947658Y-106932633D01*
X160981583Y-106957674D01*
X160993700Y-106993215D01*
X160954927Y-107036026D01*
X160843457Y-107046527D01*
X160713409Y-107027141D01*
X160593053Y-106985137D01*
X160562359Y-107151535D01*
X160371560Y-107151535D01*
X160347496Y-107002908D01*
X160256220Y-107028756D01*
X160142326Y-107041680D01*
X160054281Y-107030977D01*
X159984006Y-106998869D01*
X159937964Y-106948183D01*
X159922617Y-106881745D01*
X160415347Y-106881745D01*
X160417771Y-106847819D01*
X160418578Y-106807431D01*
X160408885Y-106690486D01*
X160379806Y-106593825D01*
X160331341Y-106517447D01*
X160264208Y-106462251D01*
X160179124Y-106429133D01*
X160076090Y-106418094D01*
X160009047Y-106424556D01*
X159943619Y-106443942D01*
X159882633Y-106476050D01*
X159828918Y-106520679D01*
X159783683Y-106577827D01*
X159748142Y-106647496D01*
X159725121Y-106729483D01*
X159717448Y-106823586D01*
X159457196Y-106823586D01*
X159429887Y-106779968D01*
X159500565Y-106734330D01*
X159547819Y-106671729D01*
X159574475Y-106596607D01*
X159583360Y-106513409D01*
X159576696Y-106434855D01*
X159556704Y-106367205D01*
X159479968Y-106264620D01*
X159425040Y-106229483D01*
X159360420Y-106204847D01*
X159286914Y-106190307D01*
X159205331Y-106185460D01*
X159148788Y-106187076D01*
X159080937Y-106191115D01*
X159010662Y-106199192D01*
X158946850Y-106211309D01*
X158065386Y-106211309D01*
X158071720Y-106202768D01*
X158123374Y-106145776D01*
X158180367Y-106094121D01*
X158242147Y-106048302D01*
X158308122Y-106008758D01*
X158377654Y-105975871D01*
X158450076Y-105949959D01*
X158524688Y-105931269D01*
X158600773Y-105919983D01*
X158677598Y-105916209D01*
X158946850Y-105916209D01*
X162853150Y-105916209D01*
X163122402Y-105916209D01*
X163199227Y-105919983D01*
G37*
G36*
X159276817Y-106367609D02*
G01*
X159332956Y-106395477D01*
X159369305Y-106443134D01*
X159381422Y-106511793D01*
X159336187Y-106624071D01*
X159276817Y-106653756D01*
X159189176Y-106663651D01*
X159145557Y-106663651D01*
X159145557Y-106363166D01*
X159177868Y-106359128D01*
X159205331Y-106358320D01*
X159276817Y-106367609D01*
G37*
G36*
X160147173Y-106598223D02*
G01*
X160192407Y-106634572D01*
X160218255Y-106685460D01*
X160226333Y-106744426D01*
X159922617Y-106744426D01*
X159936349Y-106684653D01*
X159965428Y-106632956D01*
X160012278Y-106597415D01*
X160079322Y-106584491D01*
X160147173Y-106598223D01*
G37*
G36*
X161762682Y-106598223D02*
G01*
X161807916Y-106634572D01*
X161833764Y-106685460D01*
X161841842Y-106744426D01*
X161538126Y-106744426D01*
X161551858Y-106684653D01*
X161580937Y-106632956D01*
X161627787Y-106597415D01*
X161694830Y-106584491D01*
X161762682Y-106598223D01*
G37*
G36*
X152772300Y-105865320D02*
G01*
X152853717Y-105877397D01*
X152933559Y-105897397D01*
X153011055Y-105925125D01*
X153085461Y-105960316D01*
X153156059Y-106002631D01*
X153222169Y-106051662D01*
X153283155Y-106106937D01*
X153338430Y-106167923D01*
X153387460Y-106234033D01*
X153429775Y-106304631D01*
X153464966Y-106379036D01*
X153492695Y-106456533D01*
X153512694Y-106536374D01*
X153524771Y-106617791D01*
X153528810Y-106700000D01*
X153524771Y-106782209D01*
X153512694Y-106863626D01*
X153492695Y-106943467D01*
X153464966Y-107020964D01*
X153429775Y-107095369D01*
X153387460Y-107165967D01*
X153338430Y-107232077D01*
X153283155Y-107293063D01*
X153222169Y-107348338D01*
X153156059Y-107397369D01*
X153085461Y-107439684D01*
X153011055Y-107474875D01*
X152933559Y-107502603D01*
X152853717Y-107522603D01*
X152772300Y-107534680D01*
X152690092Y-107538718D01*
X152420840Y-107538718D01*
X151810178Y-107538718D01*
X151267367Y-107538718D01*
X150483845Y-107538718D01*
X149816640Y-107538718D01*
X148579160Y-107538718D01*
X148309908Y-107538718D01*
X148227700Y-107534680D01*
X148146283Y-107522603D01*
X148066441Y-107502603D01*
X147988945Y-107474875D01*
X147914539Y-107439684D01*
X147843941Y-107397369D01*
X147777831Y-107348338D01*
X147716845Y-107293063D01*
X147679352Y-107251696D01*
X148579160Y-107251696D01*
X148777868Y-107251696D01*
X148777868Y-106823586D01*
X149139742Y-106823586D01*
X149139742Y-106658805D01*
X148777868Y-106658805D01*
X148777868Y-106416478D01*
X149191438Y-106416478D01*
X149191438Y-106305008D01*
X149343296Y-106305008D01*
X149553312Y-106305008D01*
X149553312Y-106949596D01*
X149569063Y-107087520D01*
X149616317Y-107187884D01*
X149697900Y-107249071D01*
X149816640Y-107269467D01*
X149906300Y-107263005D01*
X149973344Y-107247658D01*
X150017771Y-107230695D01*
X150039580Y-107219386D01*
X150013732Y-107059451D01*
X149960420Y-107080452D01*
X149860258Y-107096607D01*
X149782714Y-107069144D01*
X149768075Y-107019063D01*
X150163974Y-107019063D01*
X150186591Y-107136187D01*
X150251212Y-107213732D01*
X150352181Y-107256543D01*
X150483845Y-107269467D01*
X150585218Y-107266236D01*
X150676090Y-107256543D01*
X150805331Y-107233926D01*
X150805331Y-107206462D01*
X150987884Y-107206462D01*
X151099354Y-107246850D01*
X151176090Y-107263813D01*
X151267367Y-107269467D01*
X151356624Y-107265024D01*
X151430533Y-107251696D01*
X151537964Y-107203231D01*
X151596931Y-107130533D01*
X151614701Y-107041680D01*
X151590468Y-106940711D01*
X151528271Y-106872859D01*
X151443457Y-106828433D01*
X151352989Y-106796123D01*
X151295638Y-106775929D01*
X151248788Y-106754120D01*
X151216478Y-106729079D01*
X151204362Y-106697577D01*
X151231018Y-106657997D01*
X151333603Y-106639418D01*
X151464459Y-106657997D01*
X151550081Y-106684653D01*
X151580775Y-106516640D01*
X151470113Y-106484330D01*
X151403675Y-106475848D01*
X151331987Y-106473021D01*
X151252423Y-106477666D01*
X151184976Y-106491599D01*
X151084006Y-106543296D01*
X151025848Y-106619225D01*
X151007270Y-106710501D01*
X151031502Y-106809855D01*
X151092892Y-106875283D01*
X151175283Y-106918094D01*
X151264136Y-106947981D01*
X151323102Y-106967367D01*
X151373183Y-106987561D01*
X151407108Y-107012601D01*
X151419225Y-107048142D01*
X151380452Y-107090953D01*
X151268982Y-107101454D01*
X151138934Y-107082068D01*
X151018578Y-107040065D01*
X150987884Y-107206462D01*
X150805331Y-107206462D01*
X150805331Y-106781583D01*
X150789176Y-106653150D01*
X150735864Y-106556220D01*
X150636511Y-106494830D01*
X150566438Y-106478473D01*
X150480614Y-106473021D01*
X150409128Y-106475646D01*
X150340065Y-106483522D01*
X150235057Y-106506947D01*
X150262520Y-106666882D01*
X150347334Y-106647496D01*
X150456381Y-106639418D01*
X150530695Y-106648910D01*
X150579160Y-106677383D01*
X150614701Y-106771890D01*
X150614701Y-106796123D01*
X150550485Y-106786430D01*
X150477383Y-106783199D01*
X150359451Y-106795315D01*
X150259289Y-106834895D01*
X150189822Y-106907593D01*
X150163974Y-107019063D01*
X149768075Y-107019063D01*
X149752019Y-106964136D01*
X149752019Y-106164459D01*
X151810178Y-106164459D01*
X151810178Y-107251696D01*
X152008885Y-107251696D01*
X152008885Y-106666882D01*
X152051696Y-106655574D01*
X152105816Y-106649111D01*
X152197900Y-106695961D01*
X152216074Y-106757754D01*
X152222132Y-106849435D01*
X152222132Y-107251696D01*
X152420840Y-107251696D01*
X152420840Y-106823586D01*
X152417205Y-106749475D01*
X152406300Y-106682229D01*
X152357835Y-106572375D01*
X152267367Y-106501292D01*
X152203958Y-106482512D01*
X152126817Y-106476252D01*
X152067044Y-106483522D01*
X152008885Y-106498869D01*
X152008885Y-106130533D01*
X151810178Y-106164459D01*
X149752019Y-106164459D01*
X149752019Y-106140226D01*
X149343296Y-106140226D01*
X149343296Y-106305008D01*
X149191438Y-106305008D01*
X149191438Y-106251696D01*
X148579160Y-106251696D01*
X148579160Y-107251696D01*
X147679352Y-107251696D01*
X147661570Y-107232077D01*
X147612540Y-107165967D01*
X147570225Y-107095369D01*
X147535034Y-107020964D01*
X147507305Y-106943467D01*
X147487306Y-106863626D01*
X147475229Y-106782209D01*
X147471190Y-106700000D01*
X147475229Y-106617791D01*
X147487306Y-106536374D01*
X147507305Y-106456533D01*
X147535034Y-106379036D01*
X147570225Y-106304631D01*
X147612540Y-106234033D01*
X147661570Y-106167923D01*
X147716845Y-106106937D01*
X147777831Y-106051662D01*
X147843941Y-106002631D01*
X147914539Y-105960316D01*
X147988945Y-105925125D01*
X148066441Y-105897397D01*
X148146283Y-105877397D01*
X148227700Y-105865320D01*
X148309908Y-105861282D01*
X148579160Y-105861282D01*
X152420840Y-105861282D01*
X152690092Y-105861282D01*
X152772300Y-105865320D01*
G37*
G36*
X150567851Y-106924556D02*
G01*
X150614701Y-106930210D01*
X150614701Y-107104685D01*
X150561389Y-107108724D01*
X150498384Y-107109532D01*
X150398223Y-107087722D01*
X150359451Y-107014216D01*
X150372375Y-106967367D01*
X150407108Y-106939903D01*
X150457997Y-106926171D01*
X150517771Y-106922132D01*
X150567851Y-106924556D01*
G37*
D13*
X160851248Y-83640000D02*
X161373752Y-83640000D01*
X160851248Y-85110000D02*
X161373752Y-85110000D01*
X153900000Y-97400000D02*
X154300000Y-97400000D01*
X154300000Y-97400000D02*
X154300000Y-96600000D01*
X156100000Y-95200000D02*
X157900000Y-95200000D01*
X156100000Y-98800000D02*
X156100000Y-99040000D01*
X157900000Y-98800000D02*
X156100000Y-98800000D01*
X159700000Y-96600000D02*
X159700000Y-97400000D01*
D14*
X148737500Y-83875000D02*
G75*
G02*
X148487500Y-83875000I-125000J0D01*
G01*
X148487500Y-83875000D02*
G75*
G02*
X148737500Y-83875000I125000J0D01*
G01*
D15*
X122112500Y-79075000D02*
X122112500Y-88575000D01*
X122112500Y-94575000D02*
X122112500Y-99875000D01*
X122112500Y-99875000D02*
X138112500Y-99875000D01*
X135112500Y-78575000D02*
X135112500Y-78575000D01*
X135112500Y-78675000D02*
X135112500Y-78675000D01*
X138112500Y-79075000D02*
X122112500Y-79075000D01*
X138112500Y-88575000D02*
X138112500Y-79075000D01*
X138112500Y-99875000D02*
X138112500Y-94575000D01*
X135112500Y-78575000D02*
G75*
G02*
X135112500Y-78675000I0J-50000D01*
G01*
X135112500Y-78675000D02*
G75*
G02*
X135112500Y-78575000I0J50000D01*
G01*
D13*
X160940000Y-121540000D02*
X160940000Y-129360000D01*
X160940000Y-123140000D02*
X161860000Y-123140000D01*
X160940000Y-129360000D02*
X169060000Y-129360000D01*
X161700000Y-125500000D02*
X161700000Y-127100000D01*
X161700000Y-127100000D02*
X162700000Y-127100000D01*
X161860000Y-121540000D02*
X160940000Y-121540000D01*
X161860000Y-123140000D02*
X161860000Y-121540000D01*
X162140000Y-123140000D02*
X161860000Y-123140000D01*
X162140000Y-123140000D02*
X162140000Y-121925000D01*
X162200000Y-127100000D02*
X162200000Y-129360000D01*
X162700000Y-125500000D02*
X161700000Y-125500000D01*
X162700000Y-127100000D02*
X162700000Y-125500000D01*
X162700000Y-127100000D02*
X162700000Y-129360000D01*
X163500000Y-125000000D02*
X166500000Y-125000000D01*
X163500000Y-129360000D02*
X163500000Y-125000000D01*
X166500000Y-125000000D02*
X166500000Y-129360000D01*
X167300000Y-125500000D02*
X168300000Y-125500000D01*
X167300000Y-127100000D02*
X167300000Y-125500000D01*
X168140000Y-121540000D02*
X168140000Y-123140000D01*
X168140000Y-123140000D02*
X167860000Y-123140000D01*
X168300000Y-125500000D02*
X168300000Y-127100000D01*
X168300000Y-127100000D02*
X167300000Y-127100000D01*
X169060000Y-121540000D02*
X168140000Y-121540000D01*
X169060000Y-123140000D02*
X168140000Y-123140000D01*
X169060000Y-129360000D02*
X169060000Y-121540000D01*
X128377500Y-75460436D02*
X128377500Y-75914564D01*
X129847500Y-75460436D02*
X129847500Y-75914564D01*
X158936359Y-93420000D02*
X159243641Y-93420000D01*
X158936359Y-94180000D02*
X159243641Y-94180000D01*
X128572936Y-101540000D02*
X129027064Y-101540000D01*
X128572936Y-103010000D02*
X129027064Y-103010000D01*
X146151248Y-85440000D02*
X146673752Y-85440000D01*
X146151248Y-86910000D02*
X146673752Y-86910000D01*
X160234664Y-89215000D02*
X160450336Y-89215000D01*
X160234664Y-89935000D02*
X160450336Y-89935000D01*
X140477500Y-116113748D02*
X140477500Y-116636252D01*
X141947500Y-116113748D02*
X141947500Y-116636252D01*
X152240000Y-98012164D02*
X152240000Y-98227836D01*
X152960000Y-98012164D02*
X152960000Y-98227836D01*
X145474664Y-84115000D02*
X145690336Y-84115000D01*
X145474664Y-84835000D02*
X145690336Y-84835000D01*
X126077500Y-75986252D02*
X126077500Y-75463748D01*
X127547500Y-75986252D02*
X127547500Y-75463748D01*
X160234664Y-85615000D02*
X160450336Y-85615000D01*
X160234664Y-86335000D02*
X160450336Y-86335000D01*
X160234664Y-90415000D02*
X160450336Y-90415000D01*
X160234664Y-91135000D02*
X160450336Y-91135000D01*
D16*
X124112500Y-108475000D02*
X136112500Y-108475000D01*
X124112500Y-110275000D02*
X124112500Y-108475000D01*
X124112500Y-120475000D02*
X124112500Y-118675000D01*
X136112500Y-108475000D02*
X136112500Y-110275000D01*
X136112500Y-118675000D02*
X136112500Y-120475000D01*
X136112500Y-120475000D02*
X124112500Y-120475000D01*
D15*
X138912500Y-116975000D02*
X138912500Y-116975000D01*
X139012500Y-116975000D02*
X139012500Y-116975000D01*
X138912500Y-116975000D02*
G75*
G02*
X139012500Y-116975000I50000J0D01*
G01*
X139012500Y-116975000D02*
G75*
G02*
X138912500Y-116975000I-50000J0D01*
G01*
D13*
X149715000Y-85715000D02*
X149715000Y-85305000D01*
X149715000Y-92285000D02*
X149715000Y-91635000D01*
X150365000Y-85065000D02*
X150015000Y-85065000D01*
X150365000Y-92285000D02*
X149715000Y-92285000D01*
X156285000Y-85065000D02*
X156935000Y-85065000D01*
X156285000Y-92285000D02*
X156935000Y-92285000D01*
X156935000Y-85065000D02*
X156935000Y-85715000D01*
X156935000Y-92285000D02*
X156935000Y-91635000D01*
X149715000Y-85065000D02*
X149475000Y-84735000D01*
X149955000Y-84735000D01*
X149715000Y-85065000D01*
G36*
X149715000Y-85065000D02*
G01*
X149475000Y-84735000D01*
X149955000Y-84735000D01*
X149715000Y-85065000D01*
G37*
X140477500Y-112435436D02*
X140477500Y-112889564D01*
X141947500Y-112435436D02*
X141947500Y-112889564D01*
X130677500Y-75986252D02*
X130677500Y-75463748D01*
X132147500Y-75986252D02*
X132147500Y-75463748D01*
X153202500Y-82127836D02*
X153202500Y-81912164D01*
X153922500Y-82127836D02*
X153922500Y-81912164D01*
X158165000Y-81511252D02*
X158165000Y-80988748D01*
X159635000Y-81511252D02*
X159635000Y-80988748D01*
X132201248Y-101540000D02*
X132723752Y-101540000D01*
X132201248Y-103010000D02*
X132723752Y-103010000D01*
X145806141Y-87820000D02*
X145498859Y-87820000D01*
X145806141Y-88580000D02*
X145498859Y-88580000D01*
X154440000Y-82127836D02*
X154440000Y-81912164D01*
X155160000Y-82127836D02*
X155160000Y-81912164D01*
X132977500Y-75460436D02*
X132977500Y-75914564D01*
X134447500Y-75460436D02*
X134447500Y-75914564D01*
X160234664Y-88015000D02*
X160450336Y-88015000D01*
X160234664Y-88735000D02*
X160450336Y-88735000D01*
X157725000Y-101600000D02*
X157725000Y-102800000D01*
X157725000Y-104400000D02*
X157725000Y-105600000D01*
X157725000Y-105600000D02*
X164125000Y-105600000D01*
X164125000Y-101600000D02*
X157725000Y-101600000D01*
X164125000Y-102800000D02*
X164125000Y-101600000D01*
X164125000Y-105600000D02*
X164125000Y-104400000D01*
X147325000Y-101600000D02*
X147325000Y-102800000D01*
X147325000Y-104400000D02*
X147325000Y-105600000D01*
X147325000Y-105600000D02*
X153725000Y-105600000D01*
X153725000Y-101600000D02*
X147325000Y-101600000D01*
X153725000Y-102800000D02*
X153725000Y-101600000D01*
X153725000Y-105600000D02*
X153725000Y-104400000D01*
X152002500Y-82127836D02*
X152002500Y-81912164D01*
X152722500Y-82127836D02*
X152722500Y-81912164D01*
X155640000Y-82127836D02*
X155640000Y-81912164D01*
X156360000Y-82127836D02*
X156360000Y-81912164D01*
X156840000Y-82127836D02*
X156840000Y-81912164D01*
X157560000Y-82127836D02*
X157560000Y-81912164D01*
X160940000Y-95927836D02*
X160940000Y-95712164D01*
X161660000Y-95927836D02*
X161660000Y-95712164D01*
X160234664Y-86815000D02*
X160450336Y-86815000D01*
X160234664Y-87535000D02*
X160450336Y-87535000D01*
%LPC*%
D17*
X160162500Y-84375000D03*
X162062500Y-84375000D03*
D18*
X155000000Y-98200000D03*
X159000000Y-98200000D03*
X159000000Y-95800000D03*
X155000000Y-95800000D03*
D19*
X148162500Y-83225000D03*
X148162500Y-82725000D03*
X148162500Y-82225000D03*
X148162500Y-81725000D03*
X145362500Y-81725000D03*
X145362500Y-82225000D03*
X145362500Y-82725000D03*
X145362500Y-83225000D03*
D20*
X146762500Y-82475000D03*
D21*
X169000000Y-81000000D03*
D22*
X175000000Y-81000000D03*
D23*
X174112500Y-125475000D03*
D24*
X175000000Y-117400000D03*
D25*
X175000000Y-112800000D03*
X175000000Y-108200000D03*
D26*
X135112500Y-81075000D03*
X130112500Y-81075000D03*
X125112500Y-81075000D03*
X132612500Y-98575000D03*
X127612500Y-98575000D03*
D27*
X137512500Y-91575000D03*
X122712500Y-91575000D03*
D24*
X171000000Y-102000000D03*
D25*
X171000000Y-97400000D03*
X171000000Y-92800000D03*
X171000000Y-88200000D03*
D23*
X121112500Y-125475000D03*
D28*
X163000000Y-123000000D03*
D29*
X165000000Y-123000000D03*
X167000000Y-123000000D03*
D24*
X175000000Y-102000000D03*
D25*
X175000000Y-97400000D03*
X175000000Y-92800000D03*
X175000000Y-88200000D03*
D30*
X129112500Y-74775000D03*
X129112500Y-76600000D03*
D31*
X158580000Y-93800000D03*
X159600000Y-93800000D03*
D32*
X127887500Y-102275000D03*
X129712500Y-102275000D03*
D17*
X145462500Y-86175000D03*
X147362500Y-86175000D03*
D33*
X159862500Y-89575000D03*
X160822500Y-89575000D03*
D34*
X141212500Y-115425000D03*
X141212500Y-117325000D03*
D35*
X152600000Y-97640000D03*
X152600000Y-98600000D03*
D33*
X145102500Y-84475000D03*
X146062500Y-84475000D03*
D23*
X121112500Y-73475000D03*
D36*
X126812500Y-76675000D03*
X126812500Y-74775000D03*
D33*
X159862500Y-85975000D03*
X160822500Y-85975000D03*
X159862500Y-90775000D03*
X160822500Y-90775000D03*
D37*
X137262500Y-116975000D03*
X122962500Y-116975000D03*
X137262500Y-111975000D03*
X122962500Y-111975000D03*
D23*
X174112500Y-73475000D03*
D38*
X149887500Y-86075000D03*
X149887500Y-86475000D03*
X149887500Y-86875000D03*
X149887500Y-87275000D03*
X149887500Y-87675000D03*
X149887500Y-88075000D03*
X149887500Y-88475000D03*
X149887500Y-88875000D03*
X149887500Y-89275000D03*
X149887500Y-89675000D03*
X149887500Y-90075000D03*
X149887500Y-90475000D03*
X149887500Y-90875000D03*
X149887500Y-91275000D03*
D39*
X150725000Y-92112500D03*
X151125000Y-92112500D03*
X151525000Y-92112500D03*
X151925000Y-92112500D03*
X152325000Y-92112500D03*
X152725000Y-92112500D03*
X153125000Y-92112500D03*
X153525000Y-92112500D03*
X153925000Y-92112500D03*
X154325000Y-92112500D03*
X154725000Y-92112500D03*
X155125000Y-92112500D03*
X155525000Y-92112500D03*
X155925000Y-92112500D03*
D38*
X156762500Y-91275000D03*
X156762500Y-90875000D03*
X156762500Y-90475000D03*
X156762500Y-90075000D03*
X156762500Y-89675000D03*
X156762500Y-89275000D03*
X156762500Y-88875000D03*
X156762500Y-88475000D03*
X156762500Y-88075000D03*
X156762500Y-87675000D03*
X156762500Y-87275000D03*
X156762500Y-86875000D03*
X156762500Y-86475000D03*
X156762500Y-86075000D03*
D39*
X155925000Y-85237500D03*
X155525000Y-85237500D03*
X155125000Y-85237500D03*
X154725000Y-85237500D03*
X154325000Y-85237500D03*
X153925000Y-85237500D03*
X153525000Y-85237500D03*
X153125000Y-85237500D03*
X152725000Y-85237500D03*
X152325000Y-85237500D03*
X151925000Y-85237500D03*
X151525000Y-85237500D03*
X151125000Y-85237500D03*
X150725000Y-85237500D03*
D40*
X153325000Y-88675000D03*
D30*
X141212500Y-111750000D03*
X141212500Y-113575000D03*
D36*
X131412500Y-76675000D03*
X131412500Y-74775000D03*
D41*
X153562500Y-82500000D03*
X153562500Y-81540000D03*
D36*
X158900000Y-82200000D03*
X158900000Y-80300000D03*
D17*
X131512500Y-102275000D03*
X133412500Y-102275000D03*
D42*
X146162500Y-88200000D03*
X145142500Y-88200000D03*
D41*
X154800000Y-82500000D03*
X154800000Y-81540000D03*
D30*
X133712500Y-74775000D03*
X133712500Y-76600000D03*
D33*
X159862500Y-88375000D03*
X160822500Y-88375000D03*
D43*
X164800000Y-103600000D03*
X157050000Y-103600000D03*
X146650000Y-103600000D03*
X154400000Y-103600000D03*
D41*
X152362500Y-82500000D03*
X152362500Y-81540000D03*
X156000000Y-82500000D03*
X156000000Y-81540000D03*
X157200000Y-82500000D03*
X157200000Y-81540000D03*
X161300000Y-96300000D03*
X161300000Y-95340000D03*
D33*
X159862500Y-87175000D03*
X160822500Y-87175000D03*
%LPD*%
M02*
