M48
; DRILL file {KiCad 8.0.6} date 2025-04-03T21:30:16+0200
; FORMAT={-:-/ absolute / metric / decimal}
; #@! TF.CreationDate,2025-04-03T21:30:16+02:00
; #@! TF.GenerationSoftware,Kicad,Pcbnew,8.0.6
; #@! TF.FileFunction,Plated,1,2,PTH
FMAT,2
METRIC
; #@! TA.AperFunction,Plated,PTH,ViaDrill
T1C0.300
; #@! TA.AperFunction,Plated,PTH,ComponentDrill
T2C0.300
; #@! TA.AperFunction,Plated,PTH,ComponentDrill
T3C0.750
; #@! TA.AperFunction,Plated,PTH,ComponentDrill
T4C1.100
; #@! TA.AperFunction,Plated,PTH,ComponentDrill
T5C1.300
; #@! TA.AperFunction,Plated,PTH,ComponentDrill
T6C2.100
; #@! TA.AperFunction,Plated,PTH,ComponentDrill
T7C2.973
%
G90
G05
T1
X122.5Y-77.5
X122.5Y-82.5
X122.5Y-87.5
X122.5Y-97.5
X122.5Y-102.5
X122.5Y-107.5
X122.5Y-122.5
X127.5Y-72.5
X127.5Y-82.5
X127.5Y-87.5
X127.5Y-107.5
X127.5Y-117.5
X127.5Y-122.5
X127.5Y-127.5
X130.5Y-73.5
X132.5Y-73.5
X132.5Y-117.5
X132.5Y-122.5
X132.5Y-127.5
X137.5Y-77.5
X137.5Y-102.5
X137.5Y-122.5
X137.5Y-127.5
X142.5Y-102.5
X142.5Y-107.5
X142.5Y-122.5
X142.5Y-127.5
X144.1Y-89.0
X146.1Y-92.0
X146.5Y-87.1
X147.2Y-84.4
X147.213Y-91.5
X147.5Y-77.5
X147.5Y-107.5
X147.5Y-112.5
X147.5Y-117.5
X147.5Y-122.5
X147.5Y-127.5
X148.1Y-89.762
X148.356Y-87.566
X148.7Y-91.6
X148.8Y-86.9
X148.8Y-89.0
X148.867Y-88.181
X150.713Y-87.691
X150.8Y-88.5
X150.8Y-94.4
X150.8Y-99.4
X151.1Y-80.6
X151.5Y-93.7
X151.5Y-100.2
X152.4Y-96.7
X152.5Y-77.5
X152.5Y-107.5
X152.5Y-112.5
X152.5Y-117.5
X152.5Y-122.5
X152.5Y-127.5
X153.0Y-100.7
X153.725Y-93.1
X154.582Y-93.518
X155.751Y-93.499
X156.5Y-101.4
X156.9Y-93.4
X157.5Y-77.5
X157.5Y-112.5
X157.5Y-122.5
X157.5Y-127.5
X158.0Y-92.7
X158.3Y-88.3
X158.422Y-90.426
X158.8Y-82.3
X162.4Y-90.5
X162.5Y-72.5
X162.5Y-77.5
X162.5Y-97.5
X162.5Y-102.5
X162.5Y-107.5
X164.0Y-82.6
X165.0Y-88.6
X165.5Y-85.9
X165.7Y-93.2
X165.8Y-82.4
X167.5Y-72.5
X167.5Y-77.5
X167.5Y-102.5
X167.5Y-107.5
X172.5Y-107.5
X172.5Y-122.5
X173.4Y-83.8
T2
X151.975Y-87.325
X151.975Y-90.025
X154.675Y-87.325
X154.675Y-90.025
T3
X163.0Y-123.0
X165.0Y-123.0
X167.0Y-123.0
T4
X171.0Y-88.2
X171.0Y-92.8
X171.0Y-97.4
X171.0Y-102.0
X175.0Y-88.2
X175.0Y-92.8
X175.0Y-97.4
X175.0Y-102.0
X175.0Y-108.2
X175.0Y-112.8
X175.0Y-117.4
T5
X125.112Y-81.075
X127.612Y-98.575
X130.112Y-81.075
X132.612Y-98.575
X135.112Y-81.075
T6
X169.0Y-81.0
X175.0Y-81.0
T7
X122.712Y-91.575
X137.512Y-91.575
M30
