%TF.GenerationSoftware,KiCad,Pcbnew,8.0.6*%
%TF.CreationDate,2025-04-03T21:30:17+02:00*%
%TF.ProjectId,UV-Controller,55562d43-6f6e-4747-926f-6c6c65722e6b,v2.0*%
%TF.SameCoordinates,Original*%
%TF.FileFunction,Drillmap*%
%TF.FilePolarity,Positive*%
%FSLAX45Y45*%
G04 Gerber Fmt 4.5, Leading zero omitted, Abs format (unit mm)*
G04 Created by KiCad (PCBNEW 8.0.6) date 2025-04-03 21:30:17*
%MOMM*%
%LPD*%
G01*
G04 APERTURE LIST*
%ADD10C,0.050000*%
%ADD11C,0.200000*%
%ADD12C,0.100000*%
%ADD13C,0.110000*%
%ADD14C,0.130000*%
%ADD15C,0.210000*%
%ADD16C,0.297320*%
G04 APERTURE END LIST*
D10*
X12111250Y-12947500D02*
X17411250Y-12947500D01*
X17411250Y-6947500D02*
X12111250Y-6947500D01*
X12111250Y-12947500D02*
G75*
G02*
X11711250Y-12547500I0J400000D01*
G01*
X17811250Y-12547500D02*
G75*
G02*
X17411250Y-12947500I-400000J0D01*
G01*
X11711250Y-7347500D02*
X11711250Y-12547500D01*
X11711250Y-7347500D02*
G75*
G02*
X12111250Y-6947500I400000J0D01*
G01*
X17811250Y-12547500D02*
X17811250Y-7347500D01*
X17411250Y-6947500D02*
G75*
G02*
X17811250Y-7347500I0J-400000D01*
G01*
D11*
D12*
X12235000Y-7735000D02*
X12265000Y-7765000D01*
X12265000Y-7735000D02*
X12235000Y-7765000D01*
X12235000Y-8235000D02*
X12265000Y-8265000D01*
X12265000Y-8235000D02*
X12235000Y-8265000D01*
X12235000Y-8735000D02*
X12265000Y-8765000D01*
X12265000Y-8735000D02*
X12235000Y-8765000D01*
X12235000Y-9735000D02*
X12265000Y-9765000D01*
X12265000Y-9735000D02*
X12235000Y-9765000D01*
X12235000Y-10235000D02*
X12265000Y-10265000D01*
X12265000Y-10235000D02*
X12235000Y-10265000D01*
X12235000Y-10735000D02*
X12265000Y-10765000D01*
X12265000Y-10735000D02*
X12235000Y-10765000D01*
X12235000Y-12235000D02*
X12265000Y-12265000D01*
X12265000Y-12235000D02*
X12235000Y-12265000D01*
X12735000Y-7235000D02*
X12765000Y-7265000D01*
X12765000Y-7235000D02*
X12735000Y-7265000D01*
X12735000Y-8235000D02*
X12765000Y-8265000D01*
X12765000Y-8235000D02*
X12735000Y-8265000D01*
X12735000Y-8735000D02*
X12765000Y-8765000D01*
X12765000Y-8735000D02*
X12735000Y-8765000D01*
X12735000Y-10735000D02*
X12765000Y-10765000D01*
X12765000Y-10735000D02*
X12735000Y-10765000D01*
X12735000Y-11735000D02*
X12765000Y-11765000D01*
X12765000Y-11735000D02*
X12735000Y-11765000D01*
X12735000Y-12235000D02*
X12765000Y-12265000D01*
X12765000Y-12235000D02*
X12735000Y-12265000D01*
X12735000Y-12735000D02*
X12765000Y-12765000D01*
X12765000Y-12735000D02*
X12735000Y-12765000D01*
X13035000Y-7335000D02*
X13065000Y-7365000D01*
X13065000Y-7335000D02*
X13035000Y-7365000D01*
X13235000Y-7335000D02*
X13265000Y-7365000D01*
X13265000Y-7335000D02*
X13235000Y-7365000D01*
X13235000Y-11735000D02*
X13265000Y-11765000D01*
X13265000Y-11735000D02*
X13235000Y-11765000D01*
X13235000Y-12235000D02*
X13265000Y-12265000D01*
X13265000Y-12235000D02*
X13235000Y-12265000D01*
X13235000Y-12735000D02*
X13265000Y-12765000D01*
X13265000Y-12735000D02*
X13235000Y-12765000D01*
X13735000Y-7735000D02*
X13765000Y-7765000D01*
X13765000Y-7735000D02*
X13735000Y-7765000D01*
X13735000Y-10235000D02*
X13765000Y-10265000D01*
X13765000Y-10235000D02*
X13735000Y-10265000D01*
X13735000Y-12235000D02*
X13765000Y-12265000D01*
X13765000Y-12235000D02*
X13735000Y-12265000D01*
X13735000Y-12735000D02*
X13765000Y-12765000D01*
X13765000Y-12735000D02*
X13735000Y-12765000D01*
X14235000Y-10235000D02*
X14265000Y-10265000D01*
X14265000Y-10235000D02*
X14235000Y-10265000D01*
X14235000Y-10735000D02*
X14265000Y-10765000D01*
X14265000Y-10735000D02*
X14235000Y-10765000D01*
X14235000Y-12235000D02*
X14265000Y-12265000D01*
X14265000Y-12235000D02*
X14235000Y-12265000D01*
X14235000Y-12735000D02*
X14265000Y-12765000D01*
X14265000Y-12735000D02*
X14235000Y-12765000D01*
X14395000Y-8885000D02*
X14425000Y-8915000D01*
X14425000Y-8885000D02*
X14395000Y-8915000D01*
X14595000Y-9185000D02*
X14625000Y-9215000D01*
X14625000Y-9185000D02*
X14595000Y-9215000D01*
X14635000Y-8695000D02*
X14665000Y-8725000D01*
X14665000Y-8695000D02*
X14635000Y-8725000D01*
X14705000Y-8425000D02*
X14735000Y-8455000D01*
X14735000Y-8425000D02*
X14705000Y-8455000D01*
X14706323Y-9135000D02*
X14736323Y-9165000D01*
X14736323Y-9135000D02*
X14706323Y-9165000D01*
X14735000Y-7735000D02*
X14765000Y-7765000D01*
X14765000Y-7735000D02*
X14735000Y-7765000D01*
X14735000Y-10735000D02*
X14765000Y-10765000D01*
X14765000Y-10735000D02*
X14735000Y-10765000D01*
X14735000Y-11235000D02*
X14765000Y-11265000D01*
X14765000Y-11235000D02*
X14735000Y-11265000D01*
X14735000Y-11735000D02*
X14765000Y-11765000D01*
X14765000Y-11735000D02*
X14735000Y-11765000D01*
X14735000Y-12235000D02*
X14765000Y-12265000D01*
X14765000Y-12235000D02*
X14735000Y-12265000D01*
X14735000Y-12735000D02*
X14765000Y-12765000D01*
X14765000Y-12735000D02*
X14735000Y-12765000D01*
X14795000Y-8961177D02*
X14825000Y-8991177D01*
X14825000Y-8961177D02*
X14795000Y-8991177D01*
X14820624Y-8741564D02*
X14850624Y-8771564D01*
X14850624Y-8741564D02*
X14820624Y-8771564D01*
X14855000Y-9145000D02*
X14885000Y-9175000D01*
X14885000Y-9145000D02*
X14855000Y-9175000D01*
X14865000Y-8675000D02*
X14895000Y-8705000D01*
X14895000Y-8675000D02*
X14865000Y-8705000D01*
X14865000Y-8885000D02*
X14895000Y-8915000D01*
X14895000Y-8885000D02*
X14865000Y-8915000D01*
X14871734Y-8803109D02*
X14901734Y-8833109D01*
X14901734Y-8803109D02*
X14871734Y-8833109D01*
X15056261Y-8754104D02*
X15086261Y-8784104D01*
X15086261Y-8754104D02*
X15056261Y-8784104D01*
X15065000Y-8835000D02*
X15095000Y-8865000D01*
X15095000Y-8835000D02*
X15065000Y-8865000D01*
X15065000Y-9425000D02*
X15095000Y-9455000D01*
X15095000Y-9425000D02*
X15065000Y-9455000D01*
X15065000Y-9925000D02*
X15095000Y-9955000D01*
X15095000Y-9925000D02*
X15065000Y-9955000D01*
X15095000Y-8045000D02*
X15125000Y-8075000D01*
X15125000Y-8045000D02*
X15095000Y-8075000D01*
X15135000Y-9355000D02*
X15165000Y-9385000D01*
X15165000Y-9355000D02*
X15135000Y-9385000D01*
X15135000Y-10005000D02*
X15165000Y-10035000D01*
X15165000Y-10005000D02*
X15135000Y-10035000D01*
X15225000Y-9655000D02*
X15255000Y-9685000D01*
X15255000Y-9655000D02*
X15225000Y-9685000D01*
X15235000Y-7735000D02*
X15265000Y-7765000D01*
X15265000Y-7735000D02*
X15235000Y-7765000D01*
X15235000Y-10735000D02*
X15265000Y-10765000D01*
X15265000Y-10735000D02*
X15235000Y-10765000D01*
X15235000Y-11235000D02*
X15265000Y-11265000D01*
X15265000Y-11235000D02*
X15235000Y-11265000D01*
X15235000Y-11735000D02*
X15265000Y-11765000D01*
X15265000Y-11735000D02*
X15235000Y-11765000D01*
X15235000Y-12235000D02*
X15265000Y-12265000D01*
X15265000Y-12235000D02*
X15235000Y-12265000D01*
X15235000Y-12735000D02*
X15265000Y-12765000D01*
X15265000Y-12735000D02*
X15235000Y-12765000D01*
X15285000Y-10055000D02*
X15315000Y-10085000D01*
X15315000Y-10055000D02*
X15285000Y-10085000D01*
X15357500Y-9295000D02*
X15387500Y-9325000D01*
X15387500Y-9295000D02*
X15357500Y-9325000D01*
X15443221Y-9336779D02*
X15473221Y-9366779D01*
X15473221Y-9336779D02*
X15443221Y-9366779D01*
X15560073Y-9334927D02*
X15590073Y-9364927D01*
X15590073Y-9334927D02*
X15560073Y-9364927D01*
X15635000Y-10125000D02*
X15665000Y-10155000D01*
X15665000Y-10125000D02*
X15635000Y-10155000D01*
X15675000Y-9325000D02*
X15705000Y-9355000D01*
X15705000Y-9325000D02*
X15675000Y-9355000D01*
X15735000Y-7735000D02*
X15765000Y-7765000D01*
X15765000Y-7735000D02*
X15735000Y-7765000D01*
X15735000Y-11235000D02*
X15765000Y-11265000D01*
X15765000Y-11235000D02*
X15735000Y-11265000D01*
X15735000Y-12235000D02*
X15765000Y-12265000D01*
X15765000Y-12235000D02*
X15735000Y-12265000D01*
X15735000Y-12735000D02*
X15765000Y-12765000D01*
X15765000Y-12735000D02*
X15735000Y-12765000D01*
X15785000Y-9255000D02*
X15815000Y-9285000D01*
X15815000Y-9255000D02*
X15785000Y-9285000D01*
X15815000Y-8815000D02*
X15845000Y-8845000D01*
X15845000Y-8815000D02*
X15815000Y-8845000D01*
X15827168Y-9027649D02*
X15857168Y-9057649D01*
X15857168Y-9027649D02*
X15827168Y-9057649D01*
X15865000Y-8215000D02*
X15895000Y-8245000D01*
X15895000Y-8215000D02*
X15865000Y-8245000D01*
X16225000Y-9035000D02*
X16255000Y-9065000D01*
X16255000Y-9035000D02*
X16225000Y-9065000D01*
X16235000Y-7235000D02*
X16265000Y-7265000D01*
X16265000Y-7235000D02*
X16235000Y-7265000D01*
X16235000Y-7735000D02*
X16265000Y-7765000D01*
X16265000Y-7735000D02*
X16235000Y-7765000D01*
X16235000Y-9735000D02*
X16265000Y-9765000D01*
X16265000Y-9735000D02*
X16235000Y-9765000D01*
X16235000Y-10235000D02*
X16265000Y-10265000D01*
X16265000Y-10235000D02*
X16235000Y-10265000D01*
X16235000Y-10735000D02*
X16265000Y-10765000D01*
X16265000Y-10735000D02*
X16235000Y-10765000D01*
X16385000Y-8245000D02*
X16415000Y-8275000D01*
X16415000Y-8245000D02*
X16385000Y-8275000D01*
X16485000Y-8845000D02*
X16515000Y-8875000D01*
X16515000Y-8845000D02*
X16485000Y-8875000D01*
X16535000Y-8575000D02*
X16565000Y-8605000D01*
X16565000Y-8575000D02*
X16535000Y-8605000D01*
X16555000Y-9305000D02*
X16585000Y-9335000D01*
X16585000Y-9305000D02*
X16555000Y-9335000D01*
X16565000Y-8225000D02*
X16595000Y-8255000D01*
X16595000Y-8225000D02*
X16565000Y-8255000D01*
X16735000Y-7235000D02*
X16765000Y-7265000D01*
X16765000Y-7235000D02*
X16735000Y-7265000D01*
X16735000Y-7735000D02*
X16765000Y-7765000D01*
X16765000Y-7735000D02*
X16735000Y-7765000D01*
X16735000Y-10235000D02*
X16765000Y-10265000D01*
X16765000Y-10235000D02*
X16735000Y-10265000D01*
X16735000Y-10735000D02*
X16765000Y-10765000D01*
X16765000Y-10735000D02*
X16735000Y-10765000D01*
X17235000Y-10735000D02*
X17265000Y-10765000D01*
X17265000Y-10735000D02*
X17235000Y-10765000D01*
X17235000Y-12235000D02*
X17265000Y-12265000D01*
X17265000Y-12235000D02*
X17235000Y-12265000D01*
X17325000Y-8365000D02*
X17355000Y-8395000D01*
X17355000Y-8365000D02*
X17325000Y-8395000D01*
X15212500Y-8732500D02*
G75*
G02*
X15182500Y-8732500I-15000J0D01*
G01*
X15182500Y-8732500D02*
G75*
G02*
X15212500Y-8732500I15000J0D01*
G01*
X15212500Y-9002500D02*
G75*
G02*
X15182500Y-9002500I-15000J0D01*
G01*
X15182500Y-9002500D02*
G75*
G02*
X15212500Y-9002500I15000J0D01*
G01*
X15482500Y-8732500D02*
G75*
G02*
X15452500Y-8732500I-15000J0D01*
G01*
X15452500Y-8732500D02*
G75*
G02*
X15482500Y-8732500I15000J0D01*
G01*
X15482500Y-9002500D02*
G75*
G02*
X15452500Y-9002500I-15000J0D01*
G01*
X15452500Y-9002500D02*
G75*
G02*
X15482500Y-9002500I15000J0D01*
G01*
X16300000Y-12262500D02*
X16300000Y-12337500D01*
X16262500Y-12300000D02*
X16337500Y-12300000D01*
X16500000Y-12262500D02*
X16500000Y-12337500D01*
X16462500Y-12300000D02*
X16537500Y-12300000D01*
X16700000Y-12262500D02*
X16700000Y-12337500D01*
X16662500Y-12300000D02*
X16737500Y-12300000D01*
D13*
X17138891Y-8858891D02*
X17138891Y-8781109D01*
X17061109Y-8781109D01*
X17061109Y-8858891D01*
X17138891Y-8858891D01*
X17138891Y-9318891D02*
X17138891Y-9241109D01*
X17061109Y-9241109D01*
X17061109Y-9318891D01*
X17138891Y-9318891D01*
X17138891Y-9778891D02*
X17138891Y-9701109D01*
X17061109Y-9701109D01*
X17061109Y-9778891D01*
X17138891Y-9778891D01*
X17138891Y-10238891D02*
X17138891Y-10161109D01*
X17061109Y-10161109D01*
X17061109Y-10238891D01*
X17138891Y-10238891D01*
X17538891Y-8858891D02*
X17538891Y-8781109D01*
X17461109Y-8781109D01*
X17461109Y-8858891D01*
X17538891Y-8858891D01*
X17538891Y-9318891D02*
X17538891Y-9241109D01*
X17461109Y-9241109D01*
X17461109Y-9318891D01*
X17538891Y-9318891D01*
X17538891Y-9778891D02*
X17538891Y-9701109D01*
X17461109Y-9701109D01*
X17461109Y-9778891D01*
X17538891Y-9778891D01*
X17538891Y-10238891D02*
X17538891Y-10161109D01*
X17461109Y-10161109D01*
X17461109Y-10238891D01*
X17538891Y-10238891D01*
X17538891Y-10858891D02*
X17538891Y-10781109D01*
X17461109Y-10781109D01*
X17461109Y-10858891D01*
X17538891Y-10858891D01*
X17538891Y-11318891D02*
X17538891Y-11241109D01*
X17461109Y-11241109D01*
X17461109Y-11318891D01*
X17538891Y-11318891D01*
X17538891Y-11778891D02*
X17538891Y-11701109D01*
X17461109Y-11701109D01*
X17461109Y-11778891D01*
X17538891Y-11778891D01*
D14*
X12511250Y-8172500D02*
X12576250Y-8107500D01*
X12511250Y-8042500D01*
X12446250Y-8107500D01*
X12511250Y-8172500D01*
X12761250Y-9922500D02*
X12826250Y-9857500D01*
X12761250Y-9792500D01*
X12696250Y-9857500D01*
X12761250Y-9922500D01*
X13011250Y-8172500D02*
X13076250Y-8107500D01*
X13011250Y-8042500D01*
X12946250Y-8107500D01*
X13011250Y-8172500D01*
X13261250Y-9922500D02*
X13326250Y-9857500D01*
X13261250Y-9792500D01*
X13196250Y-9857500D01*
X13261250Y-9922500D01*
X13511250Y-8172500D02*
X13576250Y-8107500D01*
X13511250Y-8042500D01*
X13446250Y-8107500D01*
X13511250Y-8172500D01*
D15*
X16795000Y-7995000D02*
X17005000Y-8205000D01*
X17005000Y-7995000D02*
X16795000Y-8205000D01*
X17005000Y-8100000D02*
G75*
G02*
X16795000Y-8100000I-105000J0D01*
G01*
X16795000Y-8100000D02*
G75*
G02*
X17005000Y-8100000I105000J0D01*
G01*
X17395000Y-7995000D02*
X17605000Y-8205000D01*
X17605000Y-7995000D02*
X17395000Y-8205000D01*
X17605000Y-8100000D02*
G75*
G02*
X17395000Y-8100000I-105000J0D01*
G01*
X17395000Y-8100000D02*
G75*
G02*
X17605000Y-8100000I105000J0D01*
G01*
D16*
X12122590Y-9008840D02*
X12419910Y-9306160D01*
X12419910Y-9008840D02*
X12122590Y-9306160D01*
X12271250Y-9008840D02*
X12271250Y-9306160D01*
X12122590Y-9157500D02*
X12419910Y-9157500D01*
X13602590Y-9008840D02*
X13899910Y-9306160D01*
X13899910Y-9008840D02*
X13602590Y-9306160D01*
X13751250Y-9008840D02*
X13751250Y-9306160D01*
X13602590Y-9157500D02*
X13899910Y-9157500D01*
D11*
X11969527Y-13261484D02*
X11969527Y-13061484D01*
X11969527Y-13061484D02*
X12017146Y-13061484D01*
X12017146Y-13061484D02*
X12045717Y-13071008D01*
X12045717Y-13071008D02*
X12064765Y-13090055D01*
X12064765Y-13090055D02*
X12074289Y-13109103D01*
X12074289Y-13109103D02*
X12083812Y-13147198D01*
X12083812Y-13147198D02*
X12083812Y-13175769D01*
X12083812Y-13175769D02*
X12074289Y-13213865D01*
X12074289Y-13213865D02*
X12064765Y-13232912D01*
X12064765Y-13232912D02*
X12045717Y-13251960D01*
X12045717Y-13251960D02*
X12017146Y-13261484D01*
X12017146Y-13261484D02*
X11969527Y-13261484D01*
X12169527Y-13261484D02*
X12169527Y-13128150D01*
X12169527Y-13166246D02*
X12179051Y-13147198D01*
X12179051Y-13147198D02*
X12188574Y-13137674D01*
X12188574Y-13137674D02*
X12207622Y-13128150D01*
X12207622Y-13128150D02*
X12226670Y-13128150D01*
X12293336Y-13261484D02*
X12293336Y-13128150D01*
X12293336Y-13061484D02*
X12283812Y-13071008D01*
X12283812Y-13071008D02*
X12293336Y-13080531D01*
X12293336Y-13080531D02*
X12302860Y-13071008D01*
X12302860Y-13071008D02*
X12293336Y-13061484D01*
X12293336Y-13061484D02*
X12293336Y-13080531D01*
X12417146Y-13261484D02*
X12398098Y-13251960D01*
X12398098Y-13251960D02*
X12388574Y-13232912D01*
X12388574Y-13232912D02*
X12388574Y-13061484D01*
X12521908Y-13261484D02*
X12502860Y-13251960D01*
X12502860Y-13251960D02*
X12493336Y-13232912D01*
X12493336Y-13232912D02*
X12493336Y-13061484D01*
X12750479Y-13261484D02*
X12750479Y-13061484D01*
X12750479Y-13061484D02*
X12817146Y-13204341D01*
X12817146Y-13204341D02*
X12883812Y-13061484D01*
X12883812Y-13061484D02*
X12883812Y-13261484D01*
X13064765Y-13261484D02*
X13064765Y-13156722D01*
X13064765Y-13156722D02*
X13055241Y-13137674D01*
X13055241Y-13137674D02*
X13036193Y-13128150D01*
X13036193Y-13128150D02*
X12998098Y-13128150D01*
X12998098Y-13128150D02*
X12979051Y-13137674D01*
X13064765Y-13251960D02*
X13045717Y-13261484D01*
X13045717Y-13261484D02*
X12998098Y-13261484D01*
X12998098Y-13261484D02*
X12979051Y-13251960D01*
X12979051Y-13251960D02*
X12969527Y-13232912D01*
X12969527Y-13232912D02*
X12969527Y-13213865D01*
X12969527Y-13213865D02*
X12979051Y-13194817D01*
X12979051Y-13194817D02*
X12998098Y-13185293D01*
X12998098Y-13185293D02*
X13045717Y-13185293D01*
X13045717Y-13185293D02*
X13064765Y-13175769D01*
X13160003Y-13128150D02*
X13160003Y-13328150D01*
X13160003Y-13137674D02*
X13179051Y-13128150D01*
X13179051Y-13128150D02*
X13217146Y-13128150D01*
X13217146Y-13128150D02*
X13236193Y-13137674D01*
X13236193Y-13137674D02*
X13245717Y-13147198D01*
X13245717Y-13147198D02*
X13255241Y-13166246D01*
X13255241Y-13166246D02*
X13255241Y-13223388D01*
X13255241Y-13223388D02*
X13245717Y-13242436D01*
X13245717Y-13242436D02*
X13236193Y-13251960D01*
X13236193Y-13251960D02*
X13217146Y-13261484D01*
X13217146Y-13261484D02*
X13179051Y-13261484D01*
X13179051Y-13261484D02*
X13160003Y-13251960D01*
X13340955Y-13242436D02*
X13350479Y-13251960D01*
X13350479Y-13251960D02*
X13340955Y-13261484D01*
X13340955Y-13261484D02*
X13331432Y-13251960D01*
X13331432Y-13251960D02*
X13340955Y-13242436D01*
X13340955Y-13242436D02*
X13340955Y-13261484D01*
X13340955Y-13137674D02*
X13350479Y-13147198D01*
X13350479Y-13147198D02*
X13340955Y-13156722D01*
X13340955Y-13156722D02*
X13331432Y-13147198D01*
X13331432Y-13147198D02*
X13340955Y-13137674D01*
X13340955Y-13137674D02*
X13340955Y-13156722D01*
D12*
X11678750Y-13575000D02*
X11708750Y-13605000D01*
X11708750Y-13575000D02*
X11678750Y-13605000D01*
D11*
X12007622Y-13481484D02*
X12026670Y-13481484D01*
X12026670Y-13481484D02*
X12045717Y-13491008D01*
X12045717Y-13491008D02*
X12055241Y-13500531D01*
X12055241Y-13500531D02*
X12064765Y-13519579D01*
X12064765Y-13519579D02*
X12074289Y-13557674D01*
X12074289Y-13557674D02*
X12074289Y-13605293D01*
X12074289Y-13605293D02*
X12064765Y-13643388D01*
X12064765Y-13643388D02*
X12055241Y-13662436D01*
X12055241Y-13662436D02*
X12045717Y-13671960D01*
X12045717Y-13671960D02*
X12026670Y-13681484D01*
X12026670Y-13681484D02*
X12007622Y-13681484D01*
X12007622Y-13681484D02*
X11988574Y-13671960D01*
X11988574Y-13671960D02*
X11979051Y-13662436D01*
X11979051Y-13662436D02*
X11969527Y-13643388D01*
X11969527Y-13643388D02*
X11960003Y-13605293D01*
X11960003Y-13605293D02*
X11960003Y-13557674D01*
X11960003Y-13557674D02*
X11969527Y-13519579D01*
X11969527Y-13519579D02*
X11979051Y-13500531D01*
X11979051Y-13500531D02*
X11988574Y-13491008D01*
X11988574Y-13491008D02*
X12007622Y-13481484D01*
X12160003Y-13662436D02*
X12169527Y-13671960D01*
X12169527Y-13671960D02*
X12160003Y-13681484D01*
X12160003Y-13681484D02*
X12150479Y-13671960D01*
X12150479Y-13671960D02*
X12160003Y-13662436D01*
X12160003Y-13662436D02*
X12160003Y-13681484D01*
X12236193Y-13481484D02*
X12360003Y-13481484D01*
X12360003Y-13481484D02*
X12293336Y-13557674D01*
X12293336Y-13557674D02*
X12321908Y-13557674D01*
X12321908Y-13557674D02*
X12340955Y-13567198D01*
X12340955Y-13567198D02*
X12350479Y-13576722D01*
X12350479Y-13576722D02*
X12360003Y-13595769D01*
X12360003Y-13595769D02*
X12360003Y-13643388D01*
X12360003Y-13643388D02*
X12350479Y-13662436D01*
X12350479Y-13662436D02*
X12340955Y-13671960D01*
X12340955Y-13671960D02*
X12321908Y-13681484D01*
X12321908Y-13681484D02*
X12264765Y-13681484D01*
X12264765Y-13681484D02*
X12245717Y-13671960D01*
X12245717Y-13671960D02*
X12236193Y-13662436D01*
X12483812Y-13481484D02*
X12502860Y-13481484D01*
X12502860Y-13481484D02*
X12521908Y-13491008D01*
X12521908Y-13491008D02*
X12531432Y-13500531D01*
X12531432Y-13500531D02*
X12540955Y-13519579D01*
X12540955Y-13519579D02*
X12550479Y-13557674D01*
X12550479Y-13557674D02*
X12550479Y-13605293D01*
X12550479Y-13605293D02*
X12540955Y-13643388D01*
X12540955Y-13643388D02*
X12531432Y-13662436D01*
X12531432Y-13662436D02*
X12521908Y-13671960D01*
X12521908Y-13671960D02*
X12502860Y-13681484D01*
X12502860Y-13681484D02*
X12483812Y-13681484D01*
X12483812Y-13681484D02*
X12464765Y-13671960D01*
X12464765Y-13671960D02*
X12455241Y-13662436D01*
X12455241Y-13662436D02*
X12445717Y-13643388D01*
X12445717Y-13643388D02*
X12436193Y-13605293D01*
X12436193Y-13605293D02*
X12436193Y-13557674D01*
X12436193Y-13557674D02*
X12445717Y-13519579D01*
X12445717Y-13519579D02*
X12455241Y-13500531D01*
X12455241Y-13500531D02*
X12464765Y-13491008D01*
X12464765Y-13491008D02*
X12483812Y-13481484D01*
X12674289Y-13481484D02*
X12693336Y-13481484D01*
X12693336Y-13481484D02*
X12712384Y-13491008D01*
X12712384Y-13491008D02*
X12721908Y-13500531D01*
X12721908Y-13500531D02*
X12731432Y-13519579D01*
X12731432Y-13519579D02*
X12740955Y-13557674D01*
X12740955Y-13557674D02*
X12740955Y-13605293D01*
X12740955Y-13605293D02*
X12731432Y-13643388D01*
X12731432Y-13643388D02*
X12721908Y-13662436D01*
X12721908Y-13662436D02*
X12712384Y-13671960D01*
X12712384Y-13671960D02*
X12693336Y-13681484D01*
X12693336Y-13681484D02*
X12674289Y-13681484D01*
X12674289Y-13681484D02*
X12655241Y-13671960D01*
X12655241Y-13671960D02*
X12645717Y-13662436D01*
X12645717Y-13662436D02*
X12636193Y-13643388D01*
X12636193Y-13643388D02*
X12626670Y-13605293D01*
X12626670Y-13605293D02*
X12626670Y-13557674D01*
X12626670Y-13557674D02*
X12636193Y-13519579D01*
X12636193Y-13519579D02*
X12645717Y-13500531D01*
X12645717Y-13500531D02*
X12655241Y-13491008D01*
X12655241Y-13491008D02*
X12674289Y-13481484D01*
X12826670Y-13681484D02*
X12826670Y-13548150D01*
X12826670Y-13567198D02*
X12836193Y-13557674D01*
X12836193Y-13557674D02*
X12855241Y-13548150D01*
X12855241Y-13548150D02*
X12883813Y-13548150D01*
X12883813Y-13548150D02*
X12902860Y-13557674D01*
X12902860Y-13557674D02*
X12912384Y-13576722D01*
X12912384Y-13576722D02*
X12912384Y-13681484D01*
X12912384Y-13576722D02*
X12921908Y-13557674D01*
X12921908Y-13557674D02*
X12940955Y-13548150D01*
X12940955Y-13548150D02*
X12969527Y-13548150D01*
X12969527Y-13548150D02*
X12988574Y-13557674D01*
X12988574Y-13557674D02*
X12998098Y-13576722D01*
X12998098Y-13576722D02*
X12998098Y-13681484D01*
X13093336Y-13681484D02*
X13093336Y-13548150D01*
X13093336Y-13567198D02*
X13102860Y-13557674D01*
X13102860Y-13557674D02*
X13121908Y-13548150D01*
X13121908Y-13548150D02*
X13150479Y-13548150D01*
X13150479Y-13548150D02*
X13169527Y-13557674D01*
X13169527Y-13557674D02*
X13179051Y-13576722D01*
X13179051Y-13576722D02*
X13179051Y-13681484D01*
X13179051Y-13576722D02*
X13188574Y-13557674D01*
X13188574Y-13557674D02*
X13207622Y-13548150D01*
X13207622Y-13548150D02*
X13236193Y-13548150D01*
X13236193Y-13548150D02*
X13255241Y-13557674D01*
X13255241Y-13557674D02*
X13264765Y-13576722D01*
X13264765Y-13576722D02*
X13264765Y-13681484D01*
X13655241Y-13471960D02*
X13483813Y-13729103D01*
X13912384Y-13481484D02*
X13931432Y-13481484D01*
X13931432Y-13481484D02*
X13950479Y-13491008D01*
X13950479Y-13491008D02*
X13960003Y-13500531D01*
X13960003Y-13500531D02*
X13969527Y-13519579D01*
X13969527Y-13519579D02*
X13979051Y-13557674D01*
X13979051Y-13557674D02*
X13979051Y-13605293D01*
X13979051Y-13605293D02*
X13969527Y-13643388D01*
X13969527Y-13643388D02*
X13960003Y-13662436D01*
X13960003Y-13662436D02*
X13950479Y-13671960D01*
X13950479Y-13671960D02*
X13931432Y-13681484D01*
X13931432Y-13681484D02*
X13912384Y-13681484D01*
X13912384Y-13681484D02*
X13893336Y-13671960D01*
X13893336Y-13671960D02*
X13883813Y-13662436D01*
X13883813Y-13662436D02*
X13874289Y-13643388D01*
X13874289Y-13643388D02*
X13864765Y-13605293D01*
X13864765Y-13605293D02*
X13864765Y-13557674D01*
X13864765Y-13557674D02*
X13874289Y-13519579D01*
X13874289Y-13519579D02*
X13883813Y-13500531D01*
X13883813Y-13500531D02*
X13893336Y-13491008D01*
X13893336Y-13491008D02*
X13912384Y-13481484D01*
X14064765Y-13662436D02*
X14074289Y-13671960D01*
X14074289Y-13671960D02*
X14064765Y-13681484D01*
X14064765Y-13681484D02*
X14055241Y-13671960D01*
X14055241Y-13671960D02*
X14064765Y-13662436D01*
X14064765Y-13662436D02*
X14064765Y-13681484D01*
X14198098Y-13481484D02*
X14217146Y-13481484D01*
X14217146Y-13481484D02*
X14236194Y-13491008D01*
X14236194Y-13491008D02*
X14245717Y-13500531D01*
X14245717Y-13500531D02*
X14255241Y-13519579D01*
X14255241Y-13519579D02*
X14264765Y-13557674D01*
X14264765Y-13557674D02*
X14264765Y-13605293D01*
X14264765Y-13605293D02*
X14255241Y-13643388D01*
X14255241Y-13643388D02*
X14245717Y-13662436D01*
X14245717Y-13662436D02*
X14236194Y-13671960D01*
X14236194Y-13671960D02*
X14217146Y-13681484D01*
X14217146Y-13681484D02*
X14198098Y-13681484D01*
X14198098Y-13681484D02*
X14179051Y-13671960D01*
X14179051Y-13671960D02*
X14169527Y-13662436D01*
X14169527Y-13662436D02*
X14160003Y-13643388D01*
X14160003Y-13643388D02*
X14150479Y-13605293D01*
X14150479Y-13605293D02*
X14150479Y-13557674D01*
X14150479Y-13557674D02*
X14160003Y-13519579D01*
X14160003Y-13519579D02*
X14169527Y-13500531D01*
X14169527Y-13500531D02*
X14179051Y-13491008D01*
X14179051Y-13491008D02*
X14198098Y-13481484D01*
X14455241Y-13681484D02*
X14340956Y-13681484D01*
X14398098Y-13681484D02*
X14398098Y-13481484D01*
X14398098Y-13481484D02*
X14379051Y-13510055D01*
X14379051Y-13510055D02*
X14360003Y-13529103D01*
X14360003Y-13529103D02*
X14340956Y-13538627D01*
X14645717Y-13681484D02*
X14531432Y-13681484D01*
X14588575Y-13681484D02*
X14588575Y-13481484D01*
X14588575Y-13481484D02*
X14569527Y-13510055D01*
X14569527Y-13510055D02*
X14550479Y-13529103D01*
X14550479Y-13529103D02*
X14531432Y-13538627D01*
X14760003Y-13567198D02*
X14740956Y-13557674D01*
X14740956Y-13557674D02*
X14731432Y-13548150D01*
X14731432Y-13548150D02*
X14721908Y-13529103D01*
X14721908Y-13529103D02*
X14721908Y-13519579D01*
X14721908Y-13519579D02*
X14731432Y-13500531D01*
X14731432Y-13500531D02*
X14740956Y-13491008D01*
X14740956Y-13491008D02*
X14760003Y-13481484D01*
X14760003Y-13481484D02*
X14798098Y-13481484D01*
X14798098Y-13481484D02*
X14817146Y-13491008D01*
X14817146Y-13491008D02*
X14826670Y-13500531D01*
X14826670Y-13500531D02*
X14836194Y-13519579D01*
X14836194Y-13519579D02*
X14836194Y-13529103D01*
X14836194Y-13529103D02*
X14826670Y-13548150D01*
X14826670Y-13548150D02*
X14817146Y-13557674D01*
X14817146Y-13557674D02*
X14798098Y-13567198D01*
X14798098Y-13567198D02*
X14760003Y-13567198D01*
X14760003Y-13567198D02*
X14740956Y-13576722D01*
X14740956Y-13576722D02*
X14731432Y-13586246D01*
X14731432Y-13586246D02*
X14721908Y-13605293D01*
X14721908Y-13605293D02*
X14721908Y-13643388D01*
X14721908Y-13643388D02*
X14731432Y-13662436D01*
X14731432Y-13662436D02*
X14740956Y-13671960D01*
X14740956Y-13671960D02*
X14760003Y-13681484D01*
X14760003Y-13681484D02*
X14798098Y-13681484D01*
X14798098Y-13681484D02*
X14817146Y-13671960D01*
X14817146Y-13671960D02*
X14826670Y-13662436D01*
X14826670Y-13662436D02*
X14836194Y-13643388D01*
X14836194Y-13643388D02*
X14836194Y-13605293D01*
X14836194Y-13605293D02*
X14826670Y-13586246D01*
X14826670Y-13586246D02*
X14817146Y-13576722D01*
X14817146Y-13576722D02*
X14798098Y-13567198D01*
X14912384Y-13481484D02*
X14912384Y-13519579D01*
X14988575Y-13481484D02*
X14988575Y-13519579D01*
X15283813Y-13757674D02*
X15274289Y-13748150D01*
X15274289Y-13748150D02*
X15255241Y-13719579D01*
X15255241Y-13719579D02*
X15245718Y-13700531D01*
X15245718Y-13700531D02*
X15236194Y-13671960D01*
X15236194Y-13671960D02*
X15226670Y-13624341D01*
X15226670Y-13624341D02*
X15226670Y-13586246D01*
X15226670Y-13586246D02*
X15236194Y-13538627D01*
X15236194Y-13538627D02*
X15245718Y-13510055D01*
X15245718Y-13510055D02*
X15255241Y-13491008D01*
X15255241Y-13491008D02*
X15274289Y-13462436D01*
X15274289Y-13462436D02*
X15283813Y-13452912D01*
X15369527Y-13681484D02*
X15407622Y-13681484D01*
X15407622Y-13681484D02*
X15426670Y-13671960D01*
X15426670Y-13671960D02*
X15436194Y-13662436D01*
X15436194Y-13662436D02*
X15455241Y-13633865D01*
X15455241Y-13633865D02*
X15464765Y-13595769D01*
X15464765Y-13595769D02*
X15464765Y-13519579D01*
X15464765Y-13519579D02*
X15455241Y-13500531D01*
X15455241Y-13500531D02*
X15445718Y-13491008D01*
X15445718Y-13491008D02*
X15426670Y-13481484D01*
X15426670Y-13481484D02*
X15388575Y-13481484D01*
X15388575Y-13481484D02*
X15369527Y-13491008D01*
X15369527Y-13491008D02*
X15360003Y-13500531D01*
X15360003Y-13500531D02*
X15350479Y-13519579D01*
X15350479Y-13519579D02*
X15350479Y-13567198D01*
X15350479Y-13567198D02*
X15360003Y-13586246D01*
X15360003Y-13586246D02*
X15369527Y-13595769D01*
X15369527Y-13595769D02*
X15388575Y-13605293D01*
X15388575Y-13605293D02*
X15426670Y-13605293D01*
X15426670Y-13605293D02*
X15445718Y-13595769D01*
X15445718Y-13595769D02*
X15455241Y-13586246D01*
X15455241Y-13586246D02*
X15464765Y-13567198D01*
X15588575Y-13481484D02*
X15607622Y-13481484D01*
X15607622Y-13481484D02*
X15626670Y-13491008D01*
X15626670Y-13491008D02*
X15636194Y-13500531D01*
X15636194Y-13500531D02*
X15645718Y-13519579D01*
X15645718Y-13519579D02*
X15655241Y-13557674D01*
X15655241Y-13557674D02*
X15655241Y-13605293D01*
X15655241Y-13605293D02*
X15645718Y-13643388D01*
X15645718Y-13643388D02*
X15636194Y-13662436D01*
X15636194Y-13662436D02*
X15626670Y-13671960D01*
X15626670Y-13671960D02*
X15607622Y-13681484D01*
X15607622Y-13681484D02*
X15588575Y-13681484D01*
X15588575Y-13681484D02*
X15569527Y-13671960D01*
X15569527Y-13671960D02*
X15560003Y-13662436D01*
X15560003Y-13662436D02*
X15550479Y-13643388D01*
X15550479Y-13643388D02*
X15540956Y-13605293D01*
X15540956Y-13605293D02*
X15540956Y-13557674D01*
X15540956Y-13557674D02*
X15550479Y-13519579D01*
X15550479Y-13519579D02*
X15560003Y-13500531D01*
X15560003Y-13500531D02*
X15569527Y-13491008D01*
X15569527Y-13491008D02*
X15588575Y-13481484D01*
X15893337Y-13681484D02*
X15893337Y-13481484D01*
X15979051Y-13681484D02*
X15979051Y-13576722D01*
X15979051Y-13576722D02*
X15969527Y-13557674D01*
X15969527Y-13557674D02*
X15950480Y-13548150D01*
X15950480Y-13548150D02*
X15921908Y-13548150D01*
X15921908Y-13548150D02*
X15902860Y-13557674D01*
X15902860Y-13557674D02*
X15893337Y-13567198D01*
X16102860Y-13681484D02*
X16083813Y-13671960D01*
X16083813Y-13671960D02*
X16074289Y-13662436D01*
X16074289Y-13662436D02*
X16064765Y-13643388D01*
X16064765Y-13643388D02*
X16064765Y-13586246D01*
X16064765Y-13586246D02*
X16074289Y-13567198D01*
X16074289Y-13567198D02*
X16083813Y-13557674D01*
X16083813Y-13557674D02*
X16102860Y-13548150D01*
X16102860Y-13548150D02*
X16131432Y-13548150D01*
X16131432Y-13548150D02*
X16150480Y-13557674D01*
X16150480Y-13557674D02*
X16160003Y-13567198D01*
X16160003Y-13567198D02*
X16169527Y-13586246D01*
X16169527Y-13586246D02*
X16169527Y-13643388D01*
X16169527Y-13643388D02*
X16160003Y-13662436D01*
X16160003Y-13662436D02*
X16150480Y-13671960D01*
X16150480Y-13671960D02*
X16131432Y-13681484D01*
X16131432Y-13681484D02*
X16102860Y-13681484D01*
X16283813Y-13681484D02*
X16264765Y-13671960D01*
X16264765Y-13671960D02*
X16255241Y-13652912D01*
X16255241Y-13652912D02*
X16255241Y-13481484D01*
X16436194Y-13671960D02*
X16417146Y-13681484D01*
X16417146Y-13681484D02*
X16379051Y-13681484D01*
X16379051Y-13681484D02*
X16360003Y-13671960D01*
X16360003Y-13671960D02*
X16350480Y-13652912D01*
X16350480Y-13652912D02*
X16350480Y-13576722D01*
X16350480Y-13576722D02*
X16360003Y-13557674D01*
X16360003Y-13557674D02*
X16379051Y-13548150D01*
X16379051Y-13548150D02*
X16417146Y-13548150D01*
X16417146Y-13548150D02*
X16436194Y-13557674D01*
X16436194Y-13557674D02*
X16445718Y-13576722D01*
X16445718Y-13576722D02*
X16445718Y-13595769D01*
X16445718Y-13595769D02*
X16350480Y-13614817D01*
X16521908Y-13671960D02*
X16540956Y-13681484D01*
X16540956Y-13681484D02*
X16579051Y-13681484D01*
X16579051Y-13681484D02*
X16598099Y-13671960D01*
X16598099Y-13671960D02*
X16607622Y-13652912D01*
X16607622Y-13652912D02*
X16607622Y-13643388D01*
X16607622Y-13643388D02*
X16598099Y-13624341D01*
X16598099Y-13624341D02*
X16579051Y-13614817D01*
X16579051Y-13614817D02*
X16550480Y-13614817D01*
X16550480Y-13614817D02*
X16531432Y-13605293D01*
X16531432Y-13605293D02*
X16521908Y-13586246D01*
X16521908Y-13586246D02*
X16521908Y-13576722D01*
X16521908Y-13576722D02*
X16531432Y-13557674D01*
X16531432Y-13557674D02*
X16550480Y-13548150D01*
X16550480Y-13548150D02*
X16579051Y-13548150D01*
X16579051Y-13548150D02*
X16598099Y-13557674D01*
X16674289Y-13757674D02*
X16683813Y-13748150D01*
X16683813Y-13748150D02*
X16702861Y-13719579D01*
X16702861Y-13719579D02*
X16712384Y-13700531D01*
X16712384Y-13700531D02*
X16721908Y-13671960D01*
X16721908Y-13671960D02*
X16731432Y-13624341D01*
X16731432Y-13624341D02*
X16731432Y-13586246D01*
X16731432Y-13586246D02*
X16721908Y-13538627D01*
X16721908Y-13538627D02*
X16712384Y-13510055D01*
X16712384Y-13510055D02*
X16702861Y-13491008D01*
X16702861Y-13491008D02*
X16683813Y-13462436D01*
X16683813Y-13462436D02*
X16674289Y-13452912D01*
D12*
X11708750Y-13854000D02*
G75*
G02*
X11678750Y-13854000I-15000J0D01*
G01*
X11678750Y-13854000D02*
G75*
G02*
X11708750Y-13854000I15000J0D01*
G01*
D11*
X12007622Y-13745484D02*
X12026670Y-13745484D01*
X12026670Y-13745484D02*
X12045717Y-13755008D01*
X12045717Y-13755008D02*
X12055241Y-13764531D01*
X12055241Y-13764531D02*
X12064765Y-13783579D01*
X12064765Y-13783579D02*
X12074289Y-13821674D01*
X12074289Y-13821674D02*
X12074289Y-13869293D01*
X12074289Y-13869293D02*
X12064765Y-13907388D01*
X12064765Y-13907388D02*
X12055241Y-13926436D01*
X12055241Y-13926436D02*
X12045717Y-13935960D01*
X12045717Y-13935960D02*
X12026670Y-13945484D01*
X12026670Y-13945484D02*
X12007622Y-13945484D01*
X12007622Y-13945484D02*
X11988574Y-13935960D01*
X11988574Y-13935960D02*
X11979051Y-13926436D01*
X11979051Y-13926436D02*
X11969527Y-13907388D01*
X11969527Y-13907388D02*
X11960003Y-13869293D01*
X11960003Y-13869293D02*
X11960003Y-13821674D01*
X11960003Y-13821674D02*
X11969527Y-13783579D01*
X11969527Y-13783579D02*
X11979051Y-13764531D01*
X11979051Y-13764531D02*
X11988574Y-13755008D01*
X11988574Y-13755008D02*
X12007622Y-13745484D01*
X12160003Y-13926436D02*
X12169527Y-13935960D01*
X12169527Y-13935960D02*
X12160003Y-13945484D01*
X12160003Y-13945484D02*
X12150479Y-13935960D01*
X12150479Y-13935960D02*
X12160003Y-13926436D01*
X12160003Y-13926436D02*
X12160003Y-13945484D01*
X12236193Y-13745484D02*
X12360003Y-13745484D01*
X12360003Y-13745484D02*
X12293336Y-13821674D01*
X12293336Y-13821674D02*
X12321908Y-13821674D01*
X12321908Y-13821674D02*
X12340955Y-13831198D01*
X12340955Y-13831198D02*
X12350479Y-13840722D01*
X12350479Y-13840722D02*
X12360003Y-13859769D01*
X12360003Y-13859769D02*
X12360003Y-13907388D01*
X12360003Y-13907388D02*
X12350479Y-13926436D01*
X12350479Y-13926436D02*
X12340955Y-13935960D01*
X12340955Y-13935960D02*
X12321908Y-13945484D01*
X12321908Y-13945484D02*
X12264765Y-13945484D01*
X12264765Y-13945484D02*
X12245717Y-13935960D01*
X12245717Y-13935960D02*
X12236193Y-13926436D01*
X12483812Y-13745484D02*
X12502860Y-13745484D01*
X12502860Y-13745484D02*
X12521908Y-13755008D01*
X12521908Y-13755008D02*
X12531432Y-13764531D01*
X12531432Y-13764531D02*
X12540955Y-13783579D01*
X12540955Y-13783579D02*
X12550479Y-13821674D01*
X12550479Y-13821674D02*
X12550479Y-13869293D01*
X12550479Y-13869293D02*
X12540955Y-13907388D01*
X12540955Y-13907388D02*
X12531432Y-13926436D01*
X12531432Y-13926436D02*
X12521908Y-13935960D01*
X12521908Y-13935960D02*
X12502860Y-13945484D01*
X12502860Y-13945484D02*
X12483812Y-13945484D01*
X12483812Y-13945484D02*
X12464765Y-13935960D01*
X12464765Y-13935960D02*
X12455241Y-13926436D01*
X12455241Y-13926436D02*
X12445717Y-13907388D01*
X12445717Y-13907388D02*
X12436193Y-13869293D01*
X12436193Y-13869293D02*
X12436193Y-13821674D01*
X12436193Y-13821674D02*
X12445717Y-13783579D01*
X12445717Y-13783579D02*
X12455241Y-13764531D01*
X12455241Y-13764531D02*
X12464765Y-13755008D01*
X12464765Y-13755008D02*
X12483812Y-13745484D01*
X12674289Y-13745484D02*
X12693336Y-13745484D01*
X12693336Y-13745484D02*
X12712384Y-13755008D01*
X12712384Y-13755008D02*
X12721908Y-13764531D01*
X12721908Y-13764531D02*
X12731432Y-13783579D01*
X12731432Y-13783579D02*
X12740955Y-13821674D01*
X12740955Y-13821674D02*
X12740955Y-13869293D01*
X12740955Y-13869293D02*
X12731432Y-13907388D01*
X12731432Y-13907388D02*
X12721908Y-13926436D01*
X12721908Y-13926436D02*
X12712384Y-13935960D01*
X12712384Y-13935960D02*
X12693336Y-13945484D01*
X12693336Y-13945484D02*
X12674289Y-13945484D01*
X12674289Y-13945484D02*
X12655241Y-13935960D01*
X12655241Y-13935960D02*
X12645717Y-13926436D01*
X12645717Y-13926436D02*
X12636193Y-13907388D01*
X12636193Y-13907388D02*
X12626670Y-13869293D01*
X12626670Y-13869293D02*
X12626670Y-13821674D01*
X12626670Y-13821674D02*
X12636193Y-13783579D01*
X12636193Y-13783579D02*
X12645717Y-13764531D01*
X12645717Y-13764531D02*
X12655241Y-13755008D01*
X12655241Y-13755008D02*
X12674289Y-13745484D01*
X12826670Y-13945484D02*
X12826670Y-13812150D01*
X12826670Y-13831198D02*
X12836193Y-13821674D01*
X12836193Y-13821674D02*
X12855241Y-13812150D01*
X12855241Y-13812150D02*
X12883813Y-13812150D01*
X12883813Y-13812150D02*
X12902860Y-13821674D01*
X12902860Y-13821674D02*
X12912384Y-13840722D01*
X12912384Y-13840722D02*
X12912384Y-13945484D01*
X12912384Y-13840722D02*
X12921908Y-13821674D01*
X12921908Y-13821674D02*
X12940955Y-13812150D01*
X12940955Y-13812150D02*
X12969527Y-13812150D01*
X12969527Y-13812150D02*
X12988574Y-13821674D01*
X12988574Y-13821674D02*
X12998098Y-13840722D01*
X12998098Y-13840722D02*
X12998098Y-13945484D01*
X13093336Y-13945484D02*
X13093336Y-13812150D01*
X13093336Y-13831198D02*
X13102860Y-13821674D01*
X13102860Y-13821674D02*
X13121908Y-13812150D01*
X13121908Y-13812150D02*
X13150479Y-13812150D01*
X13150479Y-13812150D02*
X13169527Y-13821674D01*
X13169527Y-13821674D02*
X13179051Y-13840722D01*
X13179051Y-13840722D02*
X13179051Y-13945484D01*
X13179051Y-13840722D02*
X13188574Y-13821674D01*
X13188574Y-13821674D02*
X13207622Y-13812150D01*
X13207622Y-13812150D02*
X13236193Y-13812150D01*
X13236193Y-13812150D02*
X13255241Y-13821674D01*
X13255241Y-13821674D02*
X13264765Y-13840722D01*
X13264765Y-13840722D02*
X13264765Y-13945484D01*
X13655241Y-13735960D02*
X13483813Y-13993103D01*
X13912384Y-13745484D02*
X13931432Y-13745484D01*
X13931432Y-13745484D02*
X13950479Y-13755008D01*
X13950479Y-13755008D02*
X13960003Y-13764531D01*
X13960003Y-13764531D02*
X13969527Y-13783579D01*
X13969527Y-13783579D02*
X13979051Y-13821674D01*
X13979051Y-13821674D02*
X13979051Y-13869293D01*
X13979051Y-13869293D02*
X13969527Y-13907388D01*
X13969527Y-13907388D02*
X13960003Y-13926436D01*
X13960003Y-13926436D02*
X13950479Y-13935960D01*
X13950479Y-13935960D02*
X13931432Y-13945484D01*
X13931432Y-13945484D02*
X13912384Y-13945484D01*
X13912384Y-13945484D02*
X13893336Y-13935960D01*
X13893336Y-13935960D02*
X13883813Y-13926436D01*
X13883813Y-13926436D02*
X13874289Y-13907388D01*
X13874289Y-13907388D02*
X13864765Y-13869293D01*
X13864765Y-13869293D02*
X13864765Y-13821674D01*
X13864765Y-13821674D02*
X13874289Y-13783579D01*
X13874289Y-13783579D02*
X13883813Y-13764531D01*
X13883813Y-13764531D02*
X13893336Y-13755008D01*
X13893336Y-13755008D02*
X13912384Y-13745484D01*
X14064765Y-13926436D02*
X14074289Y-13935960D01*
X14074289Y-13935960D02*
X14064765Y-13945484D01*
X14064765Y-13945484D02*
X14055241Y-13935960D01*
X14055241Y-13935960D02*
X14064765Y-13926436D01*
X14064765Y-13926436D02*
X14064765Y-13945484D01*
X14198098Y-13745484D02*
X14217146Y-13745484D01*
X14217146Y-13745484D02*
X14236194Y-13755008D01*
X14236194Y-13755008D02*
X14245717Y-13764531D01*
X14245717Y-13764531D02*
X14255241Y-13783579D01*
X14255241Y-13783579D02*
X14264765Y-13821674D01*
X14264765Y-13821674D02*
X14264765Y-13869293D01*
X14264765Y-13869293D02*
X14255241Y-13907388D01*
X14255241Y-13907388D02*
X14245717Y-13926436D01*
X14245717Y-13926436D02*
X14236194Y-13935960D01*
X14236194Y-13935960D02*
X14217146Y-13945484D01*
X14217146Y-13945484D02*
X14198098Y-13945484D01*
X14198098Y-13945484D02*
X14179051Y-13935960D01*
X14179051Y-13935960D02*
X14169527Y-13926436D01*
X14169527Y-13926436D02*
X14160003Y-13907388D01*
X14160003Y-13907388D02*
X14150479Y-13869293D01*
X14150479Y-13869293D02*
X14150479Y-13821674D01*
X14150479Y-13821674D02*
X14160003Y-13783579D01*
X14160003Y-13783579D02*
X14169527Y-13764531D01*
X14169527Y-13764531D02*
X14179051Y-13755008D01*
X14179051Y-13755008D02*
X14198098Y-13745484D01*
X14455241Y-13945484D02*
X14340956Y-13945484D01*
X14398098Y-13945484D02*
X14398098Y-13745484D01*
X14398098Y-13745484D02*
X14379051Y-13774055D01*
X14379051Y-13774055D02*
X14360003Y-13793103D01*
X14360003Y-13793103D02*
X14340956Y-13802627D01*
X14645717Y-13945484D02*
X14531432Y-13945484D01*
X14588575Y-13945484D02*
X14588575Y-13745484D01*
X14588575Y-13745484D02*
X14569527Y-13774055D01*
X14569527Y-13774055D02*
X14550479Y-13793103D01*
X14550479Y-13793103D02*
X14531432Y-13802627D01*
X14760003Y-13831198D02*
X14740956Y-13821674D01*
X14740956Y-13821674D02*
X14731432Y-13812150D01*
X14731432Y-13812150D02*
X14721908Y-13793103D01*
X14721908Y-13793103D02*
X14721908Y-13783579D01*
X14721908Y-13783579D02*
X14731432Y-13764531D01*
X14731432Y-13764531D02*
X14740956Y-13755008D01*
X14740956Y-13755008D02*
X14760003Y-13745484D01*
X14760003Y-13745484D02*
X14798098Y-13745484D01*
X14798098Y-13745484D02*
X14817146Y-13755008D01*
X14817146Y-13755008D02*
X14826670Y-13764531D01*
X14826670Y-13764531D02*
X14836194Y-13783579D01*
X14836194Y-13783579D02*
X14836194Y-13793103D01*
X14836194Y-13793103D02*
X14826670Y-13812150D01*
X14826670Y-13812150D02*
X14817146Y-13821674D01*
X14817146Y-13821674D02*
X14798098Y-13831198D01*
X14798098Y-13831198D02*
X14760003Y-13831198D01*
X14760003Y-13831198D02*
X14740956Y-13840722D01*
X14740956Y-13840722D02*
X14731432Y-13850246D01*
X14731432Y-13850246D02*
X14721908Y-13869293D01*
X14721908Y-13869293D02*
X14721908Y-13907388D01*
X14721908Y-13907388D02*
X14731432Y-13926436D01*
X14731432Y-13926436D02*
X14740956Y-13935960D01*
X14740956Y-13935960D02*
X14760003Y-13945484D01*
X14760003Y-13945484D02*
X14798098Y-13945484D01*
X14798098Y-13945484D02*
X14817146Y-13935960D01*
X14817146Y-13935960D02*
X14826670Y-13926436D01*
X14826670Y-13926436D02*
X14836194Y-13907388D01*
X14836194Y-13907388D02*
X14836194Y-13869293D01*
X14836194Y-13869293D02*
X14826670Y-13850246D01*
X14826670Y-13850246D02*
X14817146Y-13840722D01*
X14817146Y-13840722D02*
X14798098Y-13831198D01*
X14912384Y-13745484D02*
X14912384Y-13783579D01*
X14988575Y-13745484D02*
X14988575Y-13783579D01*
X15283813Y-14021674D02*
X15274289Y-14012150D01*
X15274289Y-14012150D02*
X15255241Y-13983579D01*
X15255241Y-13983579D02*
X15245718Y-13964531D01*
X15245718Y-13964531D02*
X15236194Y-13935960D01*
X15236194Y-13935960D02*
X15226670Y-13888341D01*
X15226670Y-13888341D02*
X15226670Y-13850246D01*
X15226670Y-13850246D02*
X15236194Y-13802627D01*
X15236194Y-13802627D02*
X15245718Y-13774055D01*
X15245718Y-13774055D02*
X15255241Y-13755008D01*
X15255241Y-13755008D02*
X15274289Y-13726436D01*
X15274289Y-13726436D02*
X15283813Y-13716912D01*
X15445718Y-13812150D02*
X15445718Y-13945484D01*
X15398098Y-13735960D02*
X15350479Y-13878817D01*
X15350479Y-13878817D02*
X15474289Y-13878817D01*
X15702860Y-13945484D02*
X15702860Y-13745484D01*
X15788575Y-13945484D02*
X15788575Y-13840722D01*
X15788575Y-13840722D02*
X15779051Y-13821674D01*
X15779051Y-13821674D02*
X15760003Y-13812150D01*
X15760003Y-13812150D02*
X15731432Y-13812150D01*
X15731432Y-13812150D02*
X15712384Y-13821674D01*
X15712384Y-13821674D02*
X15702860Y-13831198D01*
X15912384Y-13945484D02*
X15893337Y-13935960D01*
X15893337Y-13935960D02*
X15883813Y-13926436D01*
X15883813Y-13926436D02*
X15874289Y-13907388D01*
X15874289Y-13907388D02*
X15874289Y-13850246D01*
X15874289Y-13850246D02*
X15883813Y-13831198D01*
X15883813Y-13831198D02*
X15893337Y-13821674D01*
X15893337Y-13821674D02*
X15912384Y-13812150D01*
X15912384Y-13812150D02*
X15940956Y-13812150D01*
X15940956Y-13812150D02*
X15960003Y-13821674D01*
X15960003Y-13821674D02*
X15969527Y-13831198D01*
X15969527Y-13831198D02*
X15979051Y-13850246D01*
X15979051Y-13850246D02*
X15979051Y-13907388D01*
X15979051Y-13907388D02*
X15969527Y-13926436D01*
X15969527Y-13926436D02*
X15960003Y-13935960D01*
X15960003Y-13935960D02*
X15940956Y-13945484D01*
X15940956Y-13945484D02*
X15912384Y-13945484D01*
X16093337Y-13945484D02*
X16074289Y-13935960D01*
X16074289Y-13935960D02*
X16064765Y-13916912D01*
X16064765Y-13916912D02*
X16064765Y-13745484D01*
X16245718Y-13935960D02*
X16226670Y-13945484D01*
X16226670Y-13945484D02*
X16188575Y-13945484D01*
X16188575Y-13945484D02*
X16169527Y-13935960D01*
X16169527Y-13935960D02*
X16160003Y-13916912D01*
X16160003Y-13916912D02*
X16160003Y-13840722D01*
X16160003Y-13840722D02*
X16169527Y-13821674D01*
X16169527Y-13821674D02*
X16188575Y-13812150D01*
X16188575Y-13812150D02*
X16226670Y-13812150D01*
X16226670Y-13812150D02*
X16245718Y-13821674D01*
X16245718Y-13821674D02*
X16255241Y-13840722D01*
X16255241Y-13840722D02*
X16255241Y-13859769D01*
X16255241Y-13859769D02*
X16160003Y-13878817D01*
X16331432Y-13935960D02*
X16350480Y-13945484D01*
X16350480Y-13945484D02*
X16388575Y-13945484D01*
X16388575Y-13945484D02*
X16407622Y-13935960D01*
X16407622Y-13935960D02*
X16417146Y-13916912D01*
X16417146Y-13916912D02*
X16417146Y-13907388D01*
X16417146Y-13907388D02*
X16407622Y-13888341D01*
X16407622Y-13888341D02*
X16388575Y-13878817D01*
X16388575Y-13878817D02*
X16360003Y-13878817D01*
X16360003Y-13878817D02*
X16340956Y-13869293D01*
X16340956Y-13869293D02*
X16331432Y-13850246D01*
X16331432Y-13850246D02*
X16331432Y-13840722D01*
X16331432Y-13840722D02*
X16340956Y-13821674D01*
X16340956Y-13821674D02*
X16360003Y-13812150D01*
X16360003Y-13812150D02*
X16388575Y-13812150D01*
X16388575Y-13812150D02*
X16407622Y-13821674D01*
X16483813Y-14021674D02*
X16493337Y-14012150D01*
X16493337Y-14012150D02*
X16512384Y-13983579D01*
X16512384Y-13983579D02*
X16521908Y-13964531D01*
X16521908Y-13964531D02*
X16531432Y-13935960D01*
X16531432Y-13935960D02*
X16540956Y-13888341D01*
X16540956Y-13888341D02*
X16540956Y-13850246D01*
X16540956Y-13850246D02*
X16531432Y-13802627D01*
X16531432Y-13802627D02*
X16521908Y-13774055D01*
X16521908Y-13774055D02*
X16512384Y-13755008D01*
X16512384Y-13755008D02*
X16493337Y-13726436D01*
X16493337Y-13726436D02*
X16483813Y-13716912D01*
D12*
X11671250Y-14080500D02*
X11671250Y-14155500D01*
X11633750Y-14118000D02*
X11708750Y-14118000D01*
D11*
X12007622Y-14009484D02*
X12026670Y-14009484D01*
X12026670Y-14009484D02*
X12045717Y-14019008D01*
X12045717Y-14019008D02*
X12055241Y-14028531D01*
X12055241Y-14028531D02*
X12064765Y-14047579D01*
X12064765Y-14047579D02*
X12074289Y-14085674D01*
X12074289Y-14085674D02*
X12074289Y-14133293D01*
X12074289Y-14133293D02*
X12064765Y-14171388D01*
X12064765Y-14171388D02*
X12055241Y-14190436D01*
X12055241Y-14190436D02*
X12045717Y-14199960D01*
X12045717Y-14199960D02*
X12026670Y-14209484D01*
X12026670Y-14209484D02*
X12007622Y-14209484D01*
X12007622Y-14209484D02*
X11988574Y-14199960D01*
X11988574Y-14199960D02*
X11979051Y-14190436D01*
X11979051Y-14190436D02*
X11969527Y-14171388D01*
X11969527Y-14171388D02*
X11960003Y-14133293D01*
X11960003Y-14133293D02*
X11960003Y-14085674D01*
X11960003Y-14085674D02*
X11969527Y-14047579D01*
X11969527Y-14047579D02*
X11979051Y-14028531D01*
X11979051Y-14028531D02*
X11988574Y-14019008D01*
X11988574Y-14019008D02*
X12007622Y-14009484D01*
X12160003Y-14190436D02*
X12169527Y-14199960D01*
X12169527Y-14199960D02*
X12160003Y-14209484D01*
X12160003Y-14209484D02*
X12150479Y-14199960D01*
X12150479Y-14199960D02*
X12160003Y-14190436D01*
X12160003Y-14190436D02*
X12160003Y-14209484D01*
X12236193Y-14009484D02*
X12369527Y-14009484D01*
X12369527Y-14009484D02*
X12283812Y-14209484D01*
X12540955Y-14009484D02*
X12445717Y-14009484D01*
X12445717Y-14009484D02*
X12436193Y-14104722D01*
X12436193Y-14104722D02*
X12445717Y-14095198D01*
X12445717Y-14095198D02*
X12464765Y-14085674D01*
X12464765Y-14085674D02*
X12512384Y-14085674D01*
X12512384Y-14085674D02*
X12531432Y-14095198D01*
X12531432Y-14095198D02*
X12540955Y-14104722D01*
X12540955Y-14104722D02*
X12550479Y-14123769D01*
X12550479Y-14123769D02*
X12550479Y-14171388D01*
X12550479Y-14171388D02*
X12540955Y-14190436D01*
X12540955Y-14190436D02*
X12531432Y-14199960D01*
X12531432Y-14199960D02*
X12512384Y-14209484D01*
X12512384Y-14209484D02*
X12464765Y-14209484D01*
X12464765Y-14209484D02*
X12445717Y-14199960D01*
X12445717Y-14199960D02*
X12436193Y-14190436D01*
X12674289Y-14009484D02*
X12693336Y-14009484D01*
X12693336Y-14009484D02*
X12712384Y-14019008D01*
X12712384Y-14019008D02*
X12721908Y-14028531D01*
X12721908Y-14028531D02*
X12731432Y-14047579D01*
X12731432Y-14047579D02*
X12740955Y-14085674D01*
X12740955Y-14085674D02*
X12740955Y-14133293D01*
X12740955Y-14133293D02*
X12731432Y-14171388D01*
X12731432Y-14171388D02*
X12721908Y-14190436D01*
X12721908Y-14190436D02*
X12712384Y-14199960D01*
X12712384Y-14199960D02*
X12693336Y-14209484D01*
X12693336Y-14209484D02*
X12674289Y-14209484D01*
X12674289Y-14209484D02*
X12655241Y-14199960D01*
X12655241Y-14199960D02*
X12645717Y-14190436D01*
X12645717Y-14190436D02*
X12636193Y-14171388D01*
X12636193Y-14171388D02*
X12626670Y-14133293D01*
X12626670Y-14133293D02*
X12626670Y-14085674D01*
X12626670Y-14085674D02*
X12636193Y-14047579D01*
X12636193Y-14047579D02*
X12645717Y-14028531D01*
X12645717Y-14028531D02*
X12655241Y-14019008D01*
X12655241Y-14019008D02*
X12674289Y-14009484D01*
X12826670Y-14209484D02*
X12826670Y-14076150D01*
X12826670Y-14095198D02*
X12836193Y-14085674D01*
X12836193Y-14085674D02*
X12855241Y-14076150D01*
X12855241Y-14076150D02*
X12883813Y-14076150D01*
X12883813Y-14076150D02*
X12902860Y-14085674D01*
X12902860Y-14085674D02*
X12912384Y-14104722D01*
X12912384Y-14104722D02*
X12912384Y-14209484D01*
X12912384Y-14104722D02*
X12921908Y-14085674D01*
X12921908Y-14085674D02*
X12940955Y-14076150D01*
X12940955Y-14076150D02*
X12969527Y-14076150D01*
X12969527Y-14076150D02*
X12988574Y-14085674D01*
X12988574Y-14085674D02*
X12998098Y-14104722D01*
X12998098Y-14104722D02*
X12998098Y-14209484D01*
X13093336Y-14209484D02*
X13093336Y-14076150D01*
X13093336Y-14095198D02*
X13102860Y-14085674D01*
X13102860Y-14085674D02*
X13121908Y-14076150D01*
X13121908Y-14076150D02*
X13150479Y-14076150D01*
X13150479Y-14076150D02*
X13169527Y-14085674D01*
X13169527Y-14085674D02*
X13179051Y-14104722D01*
X13179051Y-14104722D02*
X13179051Y-14209484D01*
X13179051Y-14104722D02*
X13188574Y-14085674D01*
X13188574Y-14085674D02*
X13207622Y-14076150D01*
X13207622Y-14076150D02*
X13236193Y-14076150D01*
X13236193Y-14076150D02*
X13255241Y-14085674D01*
X13255241Y-14085674D02*
X13264765Y-14104722D01*
X13264765Y-14104722D02*
X13264765Y-14209484D01*
X13655241Y-13999960D02*
X13483813Y-14257103D01*
X13912384Y-14009484D02*
X13931432Y-14009484D01*
X13931432Y-14009484D02*
X13950479Y-14019008D01*
X13950479Y-14019008D02*
X13960003Y-14028531D01*
X13960003Y-14028531D02*
X13969527Y-14047579D01*
X13969527Y-14047579D02*
X13979051Y-14085674D01*
X13979051Y-14085674D02*
X13979051Y-14133293D01*
X13979051Y-14133293D02*
X13969527Y-14171388D01*
X13969527Y-14171388D02*
X13960003Y-14190436D01*
X13960003Y-14190436D02*
X13950479Y-14199960D01*
X13950479Y-14199960D02*
X13931432Y-14209484D01*
X13931432Y-14209484D02*
X13912384Y-14209484D01*
X13912384Y-14209484D02*
X13893336Y-14199960D01*
X13893336Y-14199960D02*
X13883813Y-14190436D01*
X13883813Y-14190436D02*
X13874289Y-14171388D01*
X13874289Y-14171388D02*
X13864765Y-14133293D01*
X13864765Y-14133293D02*
X13864765Y-14085674D01*
X13864765Y-14085674D02*
X13874289Y-14047579D01*
X13874289Y-14047579D02*
X13883813Y-14028531D01*
X13883813Y-14028531D02*
X13893336Y-14019008D01*
X13893336Y-14019008D02*
X13912384Y-14009484D01*
X14064765Y-14190436D02*
X14074289Y-14199960D01*
X14074289Y-14199960D02*
X14064765Y-14209484D01*
X14064765Y-14209484D02*
X14055241Y-14199960D01*
X14055241Y-14199960D02*
X14064765Y-14190436D01*
X14064765Y-14190436D02*
X14064765Y-14209484D01*
X14198098Y-14009484D02*
X14217146Y-14009484D01*
X14217146Y-14009484D02*
X14236194Y-14019008D01*
X14236194Y-14019008D02*
X14245717Y-14028531D01*
X14245717Y-14028531D02*
X14255241Y-14047579D01*
X14255241Y-14047579D02*
X14264765Y-14085674D01*
X14264765Y-14085674D02*
X14264765Y-14133293D01*
X14264765Y-14133293D02*
X14255241Y-14171388D01*
X14255241Y-14171388D02*
X14245717Y-14190436D01*
X14245717Y-14190436D02*
X14236194Y-14199960D01*
X14236194Y-14199960D02*
X14217146Y-14209484D01*
X14217146Y-14209484D02*
X14198098Y-14209484D01*
X14198098Y-14209484D02*
X14179051Y-14199960D01*
X14179051Y-14199960D02*
X14169527Y-14190436D01*
X14169527Y-14190436D02*
X14160003Y-14171388D01*
X14160003Y-14171388D02*
X14150479Y-14133293D01*
X14150479Y-14133293D02*
X14150479Y-14085674D01*
X14150479Y-14085674D02*
X14160003Y-14047579D01*
X14160003Y-14047579D02*
X14169527Y-14028531D01*
X14169527Y-14028531D02*
X14179051Y-14019008D01*
X14179051Y-14019008D02*
X14198098Y-14009484D01*
X14340956Y-14028531D02*
X14350479Y-14019008D01*
X14350479Y-14019008D02*
X14369527Y-14009484D01*
X14369527Y-14009484D02*
X14417146Y-14009484D01*
X14417146Y-14009484D02*
X14436194Y-14019008D01*
X14436194Y-14019008D02*
X14445717Y-14028531D01*
X14445717Y-14028531D02*
X14455241Y-14047579D01*
X14455241Y-14047579D02*
X14455241Y-14066627D01*
X14455241Y-14066627D02*
X14445717Y-14095198D01*
X14445717Y-14095198D02*
X14331432Y-14209484D01*
X14331432Y-14209484D02*
X14455241Y-14209484D01*
X14550479Y-14209484D02*
X14588575Y-14209484D01*
X14588575Y-14209484D02*
X14607622Y-14199960D01*
X14607622Y-14199960D02*
X14617146Y-14190436D01*
X14617146Y-14190436D02*
X14636194Y-14161865D01*
X14636194Y-14161865D02*
X14645717Y-14123769D01*
X14645717Y-14123769D02*
X14645717Y-14047579D01*
X14645717Y-14047579D02*
X14636194Y-14028531D01*
X14636194Y-14028531D02*
X14626670Y-14019008D01*
X14626670Y-14019008D02*
X14607622Y-14009484D01*
X14607622Y-14009484D02*
X14569527Y-14009484D01*
X14569527Y-14009484D02*
X14550479Y-14019008D01*
X14550479Y-14019008D02*
X14540956Y-14028531D01*
X14540956Y-14028531D02*
X14531432Y-14047579D01*
X14531432Y-14047579D02*
X14531432Y-14095198D01*
X14531432Y-14095198D02*
X14540956Y-14114246D01*
X14540956Y-14114246D02*
X14550479Y-14123769D01*
X14550479Y-14123769D02*
X14569527Y-14133293D01*
X14569527Y-14133293D02*
X14607622Y-14133293D01*
X14607622Y-14133293D02*
X14626670Y-14123769D01*
X14626670Y-14123769D02*
X14636194Y-14114246D01*
X14636194Y-14114246D02*
X14645717Y-14095198D01*
X14826670Y-14009484D02*
X14731432Y-14009484D01*
X14731432Y-14009484D02*
X14721908Y-14104722D01*
X14721908Y-14104722D02*
X14731432Y-14095198D01*
X14731432Y-14095198D02*
X14750479Y-14085674D01*
X14750479Y-14085674D02*
X14798098Y-14085674D01*
X14798098Y-14085674D02*
X14817146Y-14095198D01*
X14817146Y-14095198D02*
X14826670Y-14104722D01*
X14826670Y-14104722D02*
X14836194Y-14123769D01*
X14836194Y-14123769D02*
X14836194Y-14171388D01*
X14836194Y-14171388D02*
X14826670Y-14190436D01*
X14826670Y-14190436D02*
X14817146Y-14199960D01*
X14817146Y-14199960D02*
X14798098Y-14209484D01*
X14798098Y-14209484D02*
X14750479Y-14209484D01*
X14750479Y-14209484D02*
X14731432Y-14199960D01*
X14731432Y-14199960D02*
X14721908Y-14190436D01*
X14912384Y-14009484D02*
X14912384Y-14047579D01*
X14988575Y-14009484D02*
X14988575Y-14047579D01*
X15283813Y-14285674D02*
X15274289Y-14276150D01*
X15274289Y-14276150D02*
X15255241Y-14247579D01*
X15255241Y-14247579D02*
X15245718Y-14228531D01*
X15245718Y-14228531D02*
X15236194Y-14199960D01*
X15236194Y-14199960D02*
X15226670Y-14152341D01*
X15226670Y-14152341D02*
X15226670Y-14114246D01*
X15226670Y-14114246D02*
X15236194Y-14066627D01*
X15236194Y-14066627D02*
X15245718Y-14038055D01*
X15245718Y-14038055D02*
X15255241Y-14019008D01*
X15255241Y-14019008D02*
X15274289Y-13990436D01*
X15274289Y-13990436D02*
X15283813Y-13980912D01*
X15340956Y-14009484D02*
X15464765Y-14009484D01*
X15464765Y-14009484D02*
X15398098Y-14085674D01*
X15398098Y-14085674D02*
X15426670Y-14085674D01*
X15426670Y-14085674D02*
X15445718Y-14095198D01*
X15445718Y-14095198D02*
X15455241Y-14104722D01*
X15455241Y-14104722D02*
X15464765Y-14123769D01*
X15464765Y-14123769D02*
X15464765Y-14171388D01*
X15464765Y-14171388D02*
X15455241Y-14190436D01*
X15455241Y-14190436D02*
X15445718Y-14199960D01*
X15445718Y-14199960D02*
X15426670Y-14209484D01*
X15426670Y-14209484D02*
X15369527Y-14209484D01*
X15369527Y-14209484D02*
X15350479Y-14199960D01*
X15350479Y-14199960D02*
X15340956Y-14190436D01*
X15702860Y-14209484D02*
X15702860Y-14009484D01*
X15788575Y-14209484D02*
X15788575Y-14104722D01*
X15788575Y-14104722D02*
X15779051Y-14085674D01*
X15779051Y-14085674D02*
X15760003Y-14076150D01*
X15760003Y-14076150D02*
X15731432Y-14076150D01*
X15731432Y-14076150D02*
X15712384Y-14085674D01*
X15712384Y-14085674D02*
X15702860Y-14095198D01*
X15912384Y-14209484D02*
X15893337Y-14199960D01*
X15893337Y-14199960D02*
X15883813Y-14190436D01*
X15883813Y-14190436D02*
X15874289Y-14171388D01*
X15874289Y-14171388D02*
X15874289Y-14114246D01*
X15874289Y-14114246D02*
X15883813Y-14095198D01*
X15883813Y-14095198D02*
X15893337Y-14085674D01*
X15893337Y-14085674D02*
X15912384Y-14076150D01*
X15912384Y-14076150D02*
X15940956Y-14076150D01*
X15940956Y-14076150D02*
X15960003Y-14085674D01*
X15960003Y-14085674D02*
X15969527Y-14095198D01*
X15969527Y-14095198D02*
X15979051Y-14114246D01*
X15979051Y-14114246D02*
X15979051Y-14171388D01*
X15979051Y-14171388D02*
X15969527Y-14190436D01*
X15969527Y-14190436D02*
X15960003Y-14199960D01*
X15960003Y-14199960D02*
X15940956Y-14209484D01*
X15940956Y-14209484D02*
X15912384Y-14209484D01*
X16093337Y-14209484D02*
X16074289Y-14199960D01*
X16074289Y-14199960D02*
X16064765Y-14180912D01*
X16064765Y-14180912D02*
X16064765Y-14009484D01*
X16245718Y-14199960D02*
X16226670Y-14209484D01*
X16226670Y-14209484D02*
X16188575Y-14209484D01*
X16188575Y-14209484D02*
X16169527Y-14199960D01*
X16169527Y-14199960D02*
X16160003Y-14180912D01*
X16160003Y-14180912D02*
X16160003Y-14104722D01*
X16160003Y-14104722D02*
X16169527Y-14085674D01*
X16169527Y-14085674D02*
X16188575Y-14076150D01*
X16188575Y-14076150D02*
X16226670Y-14076150D01*
X16226670Y-14076150D02*
X16245718Y-14085674D01*
X16245718Y-14085674D02*
X16255241Y-14104722D01*
X16255241Y-14104722D02*
X16255241Y-14123769D01*
X16255241Y-14123769D02*
X16160003Y-14142817D01*
X16331432Y-14199960D02*
X16350480Y-14209484D01*
X16350480Y-14209484D02*
X16388575Y-14209484D01*
X16388575Y-14209484D02*
X16407622Y-14199960D01*
X16407622Y-14199960D02*
X16417146Y-14180912D01*
X16417146Y-14180912D02*
X16417146Y-14171388D01*
X16417146Y-14171388D02*
X16407622Y-14152341D01*
X16407622Y-14152341D02*
X16388575Y-14142817D01*
X16388575Y-14142817D02*
X16360003Y-14142817D01*
X16360003Y-14142817D02*
X16340956Y-14133293D01*
X16340956Y-14133293D02*
X16331432Y-14114246D01*
X16331432Y-14114246D02*
X16331432Y-14104722D01*
X16331432Y-14104722D02*
X16340956Y-14085674D01*
X16340956Y-14085674D02*
X16360003Y-14076150D01*
X16360003Y-14076150D02*
X16388575Y-14076150D01*
X16388575Y-14076150D02*
X16407622Y-14085674D01*
X16483813Y-14285674D02*
X16493337Y-14276150D01*
X16493337Y-14276150D02*
X16512384Y-14247579D01*
X16512384Y-14247579D02*
X16521908Y-14228531D01*
X16521908Y-14228531D02*
X16531432Y-14199960D01*
X16531432Y-14199960D02*
X16540956Y-14152341D01*
X16540956Y-14152341D02*
X16540956Y-14114246D01*
X16540956Y-14114246D02*
X16531432Y-14066627D01*
X16531432Y-14066627D02*
X16521908Y-14038055D01*
X16521908Y-14038055D02*
X16512384Y-14019008D01*
X16512384Y-14019008D02*
X16493337Y-13990436D01*
X16493337Y-13990436D02*
X16483813Y-13980912D01*
D13*
X11692641Y-14420891D02*
X11692641Y-14343109D01*
X11614859Y-14343109D01*
X11614859Y-14420891D01*
X11692641Y-14420891D01*
D11*
X12074289Y-14473484D02*
X11960003Y-14473484D01*
X12017146Y-14473484D02*
X12017146Y-14273484D01*
X12017146Y-14273484D02*
X11998098Y-14302055D01*
X11998098Y-14302055D02*
X11979051Y-14321103D01*
X11979051Y-14321103D02*
X11960003Y-14330627D01*
X12160003Y-14454436D02*
X12169527Y-14463960D01*
X12169527Y-14463960D02*
X12160003Y-14473484D01*
X12160003Y-14473484D02*
X12150479Y-14463960D01*
X12150479Y-14463960D02*
X12160003Y-14454436D01*
X12160003Y-14454436D02*
X12160003Y-14473484D01*
X12360003Y-14473484D02*
X12245717Y-14473484D01*
X12302860Y-14473484D02*
X12302860Y-14273484D01*
X12302860Y-14273484D02*
X12283812Y-14302055D01*
X12283812Y-14302055D02*
X12264765Y-14321103D01*
X12264765Y-14321103D02*
X12245717Y-14330627D01*
X12483812Y-14273484D02*
X12502860Y-14273484D01*
X12502860Y-14273484D02*
X12521908Y-14283008D01*
X12521908Y-14283008D02*
X12531432Y-14292531D01*
X12531432Y-14292531D02*
X12540955Y-14311579D01*
X12540955Y-14311579D02*
X12550479Y-14349674D01*
X12550479Y-14349674D02*
X12550479Y-14397293D01*
X12550479Y-14397293D02*
X12540955Y-14435388D01*
X12540955Y-14435388D02*
X12531432Y-14454436D01*
X12531432Y-14454436D02*
X12521908Y-14463960D01*
X12521908Y-14463960D02*
X12502860Y-14473484D01*
X12502860Y-14473484D02*
X12483812Y-14473484D01*
X12483812Y-14473484D02*
X12464765Y-14463960D01*
X12464765Y-14463960D02*
X12455241Y-14454436D01*
X12455241Y-14454436D02*
X12445717Y-14435388D01*
X12445717Y-14435388D02*
X12436193Y-14397293D01*
X12436193Y-14397293D02*
X12436193Y-14349674D01*
X12436193Y-14349674D02*
X12445717Y-14311579D01*
X12445717Y-14311579D02*
X12455241Y-14292531D01*
X12455241Y-14292531D02*
X12464765Y-14283008D01*
X12464765Y-14283008D02*
X12483812Y-14273484D01*
X12674289Y-14273484D02*
X12693336Y-14273484D01*
X12693336Y-14273484D02*
X12712384Y-14283008D01*
X12712384Y-14283008D02*
X12721908Y-14292531D01*
X12721908Y-14292531D02*
X12731432Y-14311579D01*
X12731432Y-14311579D02*
X12740955Y-14349674D01*
X12740955Y-14349674D02*
X12740955Y-14397293D01*
X12740955Y-14397293D02*
X12731432Y-14435388D01*
X12731432Y-14435388D02*
X12721908Y-14454436D01*
X12721908Y-14454436D02*
X12712384Y-14463960D01*
X12712384Y-14463960D02*
X12693336Y-14473484D01*
X12693336Y-14473484D02*
X12674289Y-14473484D01*
X12674289Y-14473484D02*
X12655241Y-14463960D01*
X12655241Y-14463960D02*
X12645717Y-14454436D01*
X12645717Y-14454436D02*
X12636193Y-14435388D01*
X12636193Y-14435388D02*
X12626670Y-14397293D01*
X12626670Y-14397293D02*
X12626670Y-14349674D01*
X12626670Y-14349674D02*
X12636193Y-14311579D01*
X12636193Y-14311579D02*
X12645717Y-14292531D01*
X12645717Y-14292531D02*
X12655241Y-14283008D01*
X12655241Y-14283008D02*
X12674289Y-14273484D01*
X12826670Y-14473484D02*
X12826670Y-14340150D01*
X12826670Y-14359198D02*
X12836193Y-14349674D01*
X12836193Y-14349674D02*
X12855241Y-14340150D01*
X12855241Y-14340150D02*
X12883813Y-14340150D01*
X12883813Y-14340150D02*
X12902860Y-14349674D01*
X12902860Y-14349674D02*
X12912384Y-14368722D01*
X12912384Y-14368722D02*
X12912384Y-14473484D01*
X12912384Y-14368722D02*
X12921908Y-14349674D01*
X12921908Y-14349674D02*
X12940955Y-14340150D01*
X12940955Y-14340150D02*
X12969527Y-14340150D01*
X12969527Y-14340150D02*
X12988574Y-14349674D01*
X12988574Y-14349674D02*
X12998098Y-14368722D01*
X12998098Y-14368722D02*
X12998098Y-14473484D01*
X13093336Y-14473484D02*
X13093336Y-14340150D01*
X13093336Y-14359198D02*
X13102860Y-14349674D01*
X13102860Y-14349674D02*
X13121908Y-14340150D01*
X13121908Y-14340150D02*
X13150479Y-14340150D01*
X13150479Y-14340150D02*
X13169527Y-14349674D01*
X13169527Y-14349674D02*
X13179051Y-14368722D01*
X13179051Y-14368722D02*
X13179051Y-14473484D01*
X13179051Y-14368722D02*
X13188574Y-14349674D01*
X13188574Y-14349674D02*
X13207622Y-14340150D01*
X13207622Y-14340150D02*
X13236193Y-14340150D01*
X13236193Y-14340150D02*
X13255241Y-14349674D01*
X13255241Y-14349674D02*
X13264765Y-14368722D01*
X13264765Y-14368722D02*
X13264765Y-14473484D01*
X13655241Y-14263960D02*
X13483813Y-14521103D01*
X13912384Y-14273484D02*
X13931432Y-14273484D01*
X13931432Y-14273484D02*
X13950479Y-14283008D01*
X13950479Y-14283008D02*
X13960003Y-14292531D01*
X13960003Y-14292531D02*
X13969527Y-14311579D01*
X13969527Y-14311579D02*
X13979051Y-14349674D01*
X13979051Y-14349674D02*
X13979051Y-14397293D01*
X13979051Y-14397293D02*
X13969527Y-14435388D01*
X13969527Y-14435388D02*
X13960003Y-14454436D01*
X13960003Y-14454436D02*
X13950479Y-14463960D01*
X13950479Y-14463960D02*
X13931432Y-14473484D01*
X13931432Y-14473484D02*
X13912384Y-14473484D01*
X13912384Y-14473484D02*
X13893336Y-14463960D01*
X13893336Y-14463960D02*
X13883813Y-14454436D01*
X13883813Y-14454436D02*
X13874289Y-14435388D01*
X13874289Y-14435388D02*
X13864765Y-14397293D01*
X13864765Y-14397293D02*
X13864765Y-14349674D01*
X13864765Y-14349674D02*
X13874289Y-14311579D01*
X13874289Y-14311579D02*
X13883813Y-14292531D01*
X13883813Y-14292531D02*
X13893336Y-14283008D01*
X13893336Y-14283008D02*
X13912384Y-14273484D01*
X14064765Y-14454436D02*
X14074289Y-14463960D01*
X14074289Y-14463960D02*
X14064765Y-14473484D01*
X14064765Y-14473484D02*
X14055241Y-14463960D01*
X14055241Y-14463960D02*
X14064765Y-14454436D01*
X14064765Y-14454436D02*
X14064765Y-14473484D01*
X14198098Y-14273484D02*
X14217146Y-14273484D01*
X14217146Y-14273484D02*
X14236194Y-14283008D01*
X14236194Y-14283008D02*
X14245717Y-14292531D01*
X14245717Y-14292531D02*
X14255241Y-14311579D01*
X14255241Y-14311579D02*
X14264765Y-14349674D01*
X14264765Y-14349674D02*
X14264765Y-14397293D01*
X14264765Y-14397293D02*
X14255241Y-14435388D01*
X14255241Y-14435388D02*
X14245717Y-14454436D01*
X14245717Y-14454436D02*
X14236194Y-14463960D01*
X14236194Y-14463960D02*
X14217146Y-14473484D01*
X14217146Y-14473484D02*
X14198098Y-14473484D01*
X14198098Y-14473484D02*
X14179051Y-14463960D01*
X14179051Y-14463960D02*
X14169527Y-14454436D01*
X14169527Y-14454436D02*
X14160003Y-14435388D01*
X14160003Y-14435388D02*
X14150479Y-14397293D01*
X14150479Y-14397293D02*
X14150479Y-14349674D01*
X14150479Y-14349674D02*
X14160003Y-14311579D01*
X14160003Y-14311579D02*
X14169527Y-14292531D01*
X14169527Y-14292531D02*
X14179051Y-14283008D01*
X14179051Y-14283008D02*
X14198098Y-14273484D01*
X14436194Y-14340150D02*
X14436194Y-14473484D01*
X14388575Y-14263960D02*
X14340956Y-14406817D01*
X14340956Y-14406817D02*
X14464765Y-14406817D01*
X14521908Y-14273484D02*
X14645717Y-14273484D01*
X14645717Y-14273484D02*
X14579051Y-14349674D01*
X14579051Y-14349674D02*
X14607622Y-14349674D01*
X14607622Y-14349674D02*
X14626670Y-14359198D01*
X14626670Y-14359198D02*
X14636194Y-14368722D01*
X14636194Y-14368722D02*
X14645717Y-14387769D01*
X14645717Y-14387769D02*
X14645717Y-14435388D01*
X14645717Y-14435388D02*
X14636194Y-14454436D01*
X14636194Y-14454436D02*
X14626670Y-14463960D01*
X14626670Y-14463960D02*
X14607622Y-14473484D01*
X14607622Y-14473484D02*
X14550479Y-14473484D01*
X14550479Y-14473484D02*
X14531432Y-14463960D01*
X14531432Y-14463960D02*
X14521908Y-14454436D01*
X14712384Y-14273484D02*
X14836194Y-14273484D01*
X14836194Y-14273484D02*
X14769527Y-14349674D01*
X14769527Y-14349674D02*
X14798098Y-14349674D01*
X14798098Y-14349674D02*
X14817146Y-14359198D01*
X14817146Y-14359198D02*
X14826670Y-14368722D01*
X14826670Y-14368722D02*
X14836194Y-14387769D01*
X14836194Y-14387769D02*
X14836194Y-14435388D01*
X14836194Y-14435388D02*
X14826670Y-14454436D01*
X14826670Y-14454436D02*
X14817146Y-14463960D01*
X14817146Y-14463960D02*
X14798098Y-14473484D01*
X14798098Y-14473484D02*
X14740956Y-14473484D01*
X14740956Y-14473484D02*
X14721908Y-14463960D01*
X14721908Y-14463960D02*
X14712384Y-14454436D01*
X14912384Y-14273484D02*
X14912384Y-14311579D01*
X14988575Y-14273484D02*
X14988575Y-14311579D01*
X15283813Y-14549674D02*
X15274289Y-14540150D01*
X15274289Y-14540150D02*
X15255241Y-14511579D01*
X15255241Y-14511579D02*
X15245718Y-14492531D01*
X15245718Y-14492531D02*
X15236194Y-14463960D01*
X15236194Y-14463960D02*
X15226670Y-14416341D01*
X15226670Y-14416341D02*
X15226670Y-14378246D01*
X15226670Y-14378246D02*
X15236194Y-14330627D01*
X15236194Y-14330627D02*
X15245718Y-14302055D01*
X15245718Y-14302055D02*
X15255241Y-14283008D01*
X15255241Y-14283008D02*
X15274289Y-14254436D01*
X15274289Y-14254436D02*
X15283813Y-14244912D01*
X15464765Y-14473484D02*
X15350479Y-14473484D01*
X15407622Y-14473484D02*
X15407622Y-14273484D01*
X15407622Y-14273484D02*
X15388575Y-14302055D01*
X15388575Y-14302055D02*
X15369527Y-14321103D01*
X15369527Y-14321103D02*
X15350479Y-14330627D01*
X15655241Y-14473484D02*
X15540956Y-14473484D01*
X15598098Y-14473484D02*
X15598098Y-14273484D01*
X15598098Y-14273484D02*
X15579051Y-14302055D01*
X15579051Y-14302055D02*
X15560003Y-14321103D01*
X15560003Y-14321103D02*
X15540956Y-14330627D01*
X15893337Y-14473484D02*
X15893337Y-14273484D01*
X15979051Y-14473484D02*
X15979051Y-14368722D01*
X15979051Y-14368722D02*
X15969527Y-14349674D01*
X15969527Y-14349674D02*
X15950480Y-14340150D01*
X15950480Y-14340150D02*
X15921908Y-14340150D01*
X15921908Y-14340150D02*
X15902860Y-14349674D01*
X15902860Y-14349674D02*
X15893337Y-14359198D01*
X16102860Y-14473484D02*
X16083813Y-14463960D01*
X16083813Y-14463960D02*
X16074289Y-14454436D01*
X16074289Y-14454436D02*
X16064765Y-14435388D01*
X16064765Y-14435388D02*
X16064765Y-14378246D01*
X16064765Y-14378246D02*
X16074289Y-14359198D01*
X16074289Y-14359198D02*
X16083813Y-14349674D01*
X16083813Y-14349674D02*
X16102860Y-14340150D01*
X16102860Y-14340150D02*
X16131432Y-14340150D01*
X16131432Y-14340150D02*
X16150480Y-14349674D01*
X16150480Y-14349674D02*
X16160003Y-14359198D01*
X16160003Y-14359198D02*
X16169527Y-14378246D01*
X16169527Y-14378246D02*
X16169527Y-14435388D01*
X16169527Y-14435388D02*
X16160003Y-14454436D01*
X16160003Y-14454436D02*
X16150480Y-14463960D01*
X16150480Y-14463960D02*
X16131432Y-14473484D01*
X16131432Y-14473484D02*
X16102860Y-14473484D01*
X16283813Y-14473484D02*
X16264765Y-14463960D01*
X16264765Y-14463960D02*
X16255241Y-14444912D01*
X16255241Y-14444912D02*
X16255241Y-14273484D01*
X16436194Y-14463960D02*
X16417146Y-14473484D01*
X16417146Y-14473484D02*
X16379051Y-14473484D01*
X16379051Y-14473484D02*
X16360003Y-14463960D01*
X16360003Y-14463960D02*
X16350480Y-14444912D01*
X16350480Y-14444912D02*
X16350480Y-14368722D01*
X16350480Y-14368722D02*
X16360003Y-14349674D01*
X16360003Y-14349674D02*
X16379051Y-14340150D01*
X16379051Y-14340150D02*
X16417146Y-14340150D01*
X16417146Y-14340150D02*
X16436194Y-14349674D01*
X16436194Y-14349674D02*
X16445718Y-14368722D01*
X16445718Y-14368722D02*
X16445718Y-14387769D01*
X16445718Y-14387769D02*
X16350480Y-14406817D01*
X16521908Y-14463960D02*
X16540956Y-14473484D01*
X16540956Y-14473484D02*
X16579051Y-14473484D01*
X16579051Y-14473484D02*
X16598099Y-14463960D01*
X16598099Y-14463960D02*
X16607622Y-14444912D01*
X16607622Y-14444912D02*
X16607622Y-14435388D01*
X16607622Y-14435388D02*
X16598099Y-14416341D01*
X16598099Y-14416341D02*
X16579051Y-14406817D01*
X16579051Y-14406817D02*
X16550480Y-14406817D01*
X16550480Y-14406817D02*
X16531432Y-14397293D01*
X16531432Y-14397293D02*
X16521908Y-14378246D01*
X16521908Y-14378246D02*
X16521908Y-14368722D01*
X16521908Y-14368722D02*
X16531432Y-14349674D01*
X16531432Y-14349674D02*
X16550480Y-14340150D01*
X16550480Y-14340150D02*
X16579051Y-14340150D01*
X16579051Y-14340150D02*
X16598099Y-14349674D01*
X16674289Y-14549674D02*
X16683813Y-14540150D01*
X16683813Y-14540150D02*
X16702861Y-14511579D01*
X16702861Y-14511579D02*
X16712384Y-14492531D01*
X16712384Y-14492531D02*
X16721908Y-14463960D01*
X16721908Y-14463960D02*
X16731432Y-14416341D01*
X16731432Y-14416341D02*
X16731432Y-14378246D01*
X16731432Y-14378246D02*
X16721908Y-14330627D01*
X16721908Y-14330627D02*
X16712384Y-14302055D01*
X16712384Y-14302055D02*
X16702861Y-14283008D01*
X16702861Y-14283008D02*
X16683813Y-14254436D01*
X16683813Y-14254436D02*
X16674289Y-14244912D01*
D14*
X11643750Y-14711000D02*
X11708750Y-14646000D01*
X11643750Y-14581000D01*
X11578750Y-14646000D01*
X11643750Y-14711000D01*
D11*
X12074289Y-14737484D02*
X11960003Y-14737484D01*
X12017146Y-14737484D02*
X12017146Y-14537484D01*
X12017146Y-14537484D02*
X11998098Y-14566055D01*
X11998098Y-14566055D02*
X11979051Y-14585103D01*
X11979051Y-14585103D02*
X11960003Y-14594627D01*
X12160003Y-14718436D02*
X12169527Y-14727960D01*
X12169527Y-14727960D02*
X12160003Y-14737484D01*
X12160003Y-14737484D02*
X12150479Y-14727960D01*
X12150479Y-14727960D02*
X12160003Y-14718436D01*
X12160003Y-14718436D02*
X12160003Y-14737484D01*
X12236193Y-14537484D02*
X12360003Y-14537484D01*
X12360003Y-14537484D02*
X12293336Y-14613674D01*
X12293336Y-14613674D02*
X12321908Y-14613674D01*
X12321908Y-14613674D02*
X12340955Y-14623198D01*
X12340955Y-14623198D02*
X12350479Y-14632722D01*
X12350479Y-14632722D02*
X12360003Y-14651769D01*
X12360003Y-14651769D02*
X12360003Y-14699388D01*
X12360003Y-14699388D02*
X12350479Y-14718436D01*
X12350479Y-14718436D02*
X12340955Y-14727960D01*
X12340955Y-14727960D02*
X12321908Y-14737484D01*
X12321908Y-14737484D02*
X12264765Y-14737484D01*
X12264765Y-14737484D02*
X12245717Y-14727960D01*
X12245717Y-14727960D02*
X12236193Y-14718436D01*
X12483812Y-14537484D02*
X12502860Y-14537484D01*
X12502860Y-14537484D02*
X12521908Y-14547008D01*
X12521908Y-14547008D02*
X12531432Y-14556531D01*
X12531432Y-14556531D02*
X12540955Y-14575579D01*
X12540955Y-14575579D02*
X12550479Y-14613674D01*
X12550479Y-14613674D02*
X12550479Y-14661293D01*
X12550479Y-14661293D02*
X12540955Y-14699388D01*
X12540955Y-14699388D02*
X12531432Y-14718436D01*
X12531432Y-14718436D02*
X12521908Y-14727960D01*
X12521908Y-14727960D02*
X12502860Y-14737484D01*
X12502860Y-14737484D02*
X12483812Y-14737484D01*
X12483812Y-14737484D02*
X12464765Y-14727960D01*
X12464765Y-14727960D02*
X12455241Y-14718436D01*
X12455241Y-14718436D02*
X12445717Y-14699388D01*
X12445717Y-14699388D02*
X12436193Y-14661293D01*
X12436193Y-14661293D02*
X12436193Y-14613674D01*
X12436193Y-14613674D02*
X12445717Y-14575579D01*
X12445717Y-14575579D02*
X12455241Y-14556531D01*
X12455241Y-14556531D02*
X12464765Y-14547008D01*
X12464765Y-14547008D02*
X12483812Y-14537484D01*
X12674289Y-14537484D02*
X12693336Y-14537484D01*
X12693336Y-14537484D02*
X12712384Y-14547008D01*
X12712384Y-14547008D02*
X12721908Y-14556531D01*
X12721908Y-14556531D02*
X12731432Y-14575579D01*
X12731432Y-14575579D02*
X12740955Y-14613674D01*
X12740955Y-14613674D02*
X12740955Y-14661293D01*
X12740955Y-14661293D02*
X12731432Y-14699388D01*
X12731432Y-14699388D02*
X12721908Y-14718436D01*
X12721908Y-14718436D02*
X12712384Y-14727960D01*
X12712384Y-14727960D02*
X12693336Y-14737484D01*
X12693336Y-14737484D02*
X12674289Y-14737484D01*
X12674289Y-14737484D02*
X12655241Y-14727960D01*
X12655241Y-14727960D02*
X12645717Y-14718436D01*
X12645717Y-14718436D02*
X12636193Y-14699388D01*
X12636193Y-14699388D02*
X12626670Y-14661293D01*
X12626670Y-14661293D02*
X12626670Y-14613674D01*
X12626670Y-14613674D02*
X12636193Y-14575579D01*
X12636193Y-14575579D02*
X12645717Y-14556531D01*
X12645717Y-14556531D02*
X12655241Y-14547008D01*
X12655241Y-14547008D02*
X12674289Y-14537484D01*
X12826670Y-14737484D02*
X12826670Y-14604150D01*
X12826670Y-14623198D02*
X12836193Y-14613674D01*
X12836193Y-14613674D02*
X12855241Y-14604150D01*
X12855241Y-14604150D02*
X12883813Y-14604150D01*
X12883813Y-14604150D02*
X12902860Y-14613674D01*
X12902860Y-14613674D02*
X12912384Y-14632722D01*
X12912384Y-14632722D02*
X12912384Y-14737484D01*
X12912384Y-14632722D02*
X12921908Y-14613674D01*
X12921908Y-14613674D02*
X12940955Y-14604150D01*
X12940955Y-14604150D02*
X12969527Y-14604150D01*
X12969527Y-14604150D02*
X12988574Y-14613674D01*
X12988574Y-14613674D02*
X12998098Y-14632722D01*
X12998098Y-14632722D02*
X12998098Y-14737484D01*
X13093336Y-14737484D02*
X13093336Y-14604150D01*
X13093336Y-14623198D02*
X13102860Y-14613674D01*
X13102860Y-14613674D02*
X13121908Y-14604150D01*
X13121908Y-14604150D02*
X13150479Y-14604150D01*
X13150479Y-14604150D02*
X13169527Y-14613674D01*
X13169527Y-14613674D02*
X13179051Y-14632722D01*
X13179051Y-14632722D02*
X13179051Y-14737484D01*
X13179051Y-14632722D02*
X13188574Y-14613674D01*
X13188574Y-14613674D02*
X13207622Y-14604150D01*
X13207622Y-14604150D02*
X13236193Y-14604150D01*
X13236193Y-14604150D02*
X13255241Y-14613674D01*
X13255241Y-14613674D02*
X13264765Y-14632722D01*
X13264765Y-14632722D02*
X13264765Y-14737484D01*
X13655241Y-14527960D02*
X13483813Y-14785103D01*
X13912384Y-14537484D02*
X13931432Y-14537484D01*
X13931432Y-14537484D02*
X13950479Y-14547008D01*
X13950479Y-14547008D02*
X13960003Y-14556531D01*
X13960003Y-14556531D02*
X13969527Y-14575579D01*
X13969527Y-14575579D02*
X13979051Y-14613674D01*
X13979051Y-14613674D02*
X13979051Y-14661293D01*
X13979051Y-14661293D02*
X13969527Y-14699388D01*
X13969527Y-14699388D02*
X13960003Y-14718436D01*
X13960003Y-14718436D02*
X13950479Y-14727960D01*
X13950479Y-14727960D02*
X13931432Y-14737484D01*
X13931432Y-14737484D02*
X13912384Y-14737484D01*
X13912384Y-14737484D02*
X13893336Y-14727960D01*
X13893336Y-14727960D02*
X13883813Y-14718436D01*
X13883813Y-14718436D02*
X13874289Y-14699388D01*
X13874289Y-14699388D02*
X13864765Y-14661293D01*
X13864765Y-14661293D02*
X13864765Y-14613674D01*
X13864765Y-14613674D02*
X13874289Y-14575579D01*
X13874289Y-14575579D02*
X13883813Y-14556531D01*
X13883813Y-14556531D02*
X13893336Y-14547008D01*
X13893336Y-14547008D02*
X13912384Y-14537484D01*
X14064765Y-14718436D02*
X14074289Y-14727960D01*
X14074289Y-14727960D02*
X14064765Y-14737484D01*
X14064765Y-14737484D02*
X14055241Y-14727960D01*
X14055241Y-14727960D02*
X14064765Y-14718436D01*
X14064765Y-14718436D02*
X14064765Y-14737484D01*
X14198098Y-14537484D02*
X14217146Y-14537484D01*
X14217146Y-14537484D02*
X14236194Y-14547008D01*
X14236194Y-14547008D02*
X14245717Y-14556531D01*
X14245717Y-14556531D02*
X14255241Y-14575579D01*
X14255241Y-14575579D02*
X14264765Y-14613674D01*
X14264765Y-14613674D02*
X14264765Y-14661293D01*
X14264765Y-14661293D02*
X14255241Y-14699388D01*
X14255241Y-14699388D02*
X14245717Y-14718436D01*
X14245717Y-14718436D02*
X14236194Y-14727960D01*
X14236194Y-14727960D02*
X14217146Y-14737484D01*
X14217146Y-14737484D02*
X14198098Y-14737484D01*
X14198098Y-14737484D02*
X14179051Y-14727960D01*
X14179051Y-14727960D02*
X14169527Y-14718436D01*
X14169527Y-14718436D02*
X14160003Y-14699388D01*
X14160003Y-14699388D02*
X14150479Y-14661293D01*
X14150479Y-14661293D02*
X14150479Y-14613674D01*
X14150479Y-14613674D02*
X14160003Y-14575579D01*
X14160003Y-14575579D02*
X14169527Y-14556531D01*
X14169527Y-14556531D02*
X14179051Y-14547008D01*
X14179051Y-14547008D02*
X14198098Y-14537484D01*
X14445717Y-14537484D02*
X14350479Y-14537484D01*
X14350479Y-14537484D02*
X14340956Y-14632722D01*
X14340956Y-14632722D02*
X14350479Y-14623198D01*
X14350479Y-14623198D02*
X14369527Y-14613674D01*
X14369527Y-14613674D02*
X14417146Y-14613674D01*
X14417146Y-14613674D02*
X14436194Y-14623198D01*
X14436194Y-14623198D02*
X14445717Y-14632722D01*
X14445717Y-14632722D02*
X14455241Y-14651769D01*
X14455241Y-14651769D02*
X14455241Y-14699388D01*
X14455241Y-14699388D02*
X14445717Y-14718436D01*
X14445717Y-14718436D02*
X14436194Y-14727960D01*
X14436194Y-14727960D02*
X14417146Y-14737484D01*
X14417146Y-14737484D02*
X14369527Y-14737484D01*
X14369527Y-14737484D02*
X14350479Y-14727960D01*
X14350479Y-14727960D02*
X14340956Y-14718436D01*
X14645717Y-14737484D02*
X14531432Y-14737484D01*
X14588575Y-14737484D02*
X14588575Y-14537484D01*
X14588575Y-14537484D02*
X14569527Y-14566055D01*
X14569527Y-14566055D02*
X14550479Y-14585103D01*
X14550479Y-14585103D02*
X14531432Y-14594627D01*
X14721908Y-14556531D02*
X14731432Y-14547008D01*
X14731432Y-14547008D02*
X14750479Y-14537484D01*
X14750479Y-14537484D02*
X14798098Y-14537484D01*
X14798098Y-14537484D02*
X14817146Y-14547008D01*
X14817146Y-14547008D02*
X14826670Y-14556531D01*
X14826670Y-14556531D02*
X14836194Y-14575579D01*
X14836194Y-14575579D02*
X14836194Y-14594627D01*
X14836194Y-14594627D02*
X14826670Y-14623198D01*
X14826670Y-14623198D02*
X14712384Y-14737484D01*
X14712384Y-14737484D02*
X14836194Y-14737484D01*
X14912384Y-14537484D02*
X14912384Y-14575579D01*
X14988575Y-14537484D02*
X14988575Y-14575579D01*
X15283813Y-14813674D02*
X15274289Y-14804150D01*
X15274289Y-14804150D02*
X15255241Y-14775579D01*
X15255241Y-14775579D02*
X15245718Y-14756531D01*
X15245718Y-14756531D02*
X15236194Y-14727960D01*
X15236194Y-14727960D02*
X15226670Y-14680341D01*
X15226670Y-14680341D02*
X15226670Y-14642246D01*
X15226670Y-14642246D02*
X15236194Y-14594627D01*
X15236194Y-14594627D02*
X15245718Y-14566055D01*
X15245718Y-14566055D02*
X15255241Y-14547008D01*
X15255241Y-14547008D02*
X15274289Y-14518436D01*
X15274289Y-14518436D02*
X15283813Y-14508912D01*
X15455241Y-14537484D02*
X15360003Y-14537484D01*
X15360003Y-14537484D02*
X15350479Y-14632722D01*
X15350479Y-14632722D02*
X15360003Y-14623198D01*
X15360003Y-14623198D02*
X15379051Y-14613674D01*
X15379051Y-14613674D02*
X15426670Y-14613674D01*
X15426670Y-14613674D02*
X15445718Y-14623198D01*
X15445718Y-14623198D02*
X15455241Y-14632722D01*
X15455241Y-14632722D02*
X15464765Y-14651769D01*
X15464765Y-14651769D02*
X15464765Y-14699388D01*
X15464765Y-14699388D02*
X15455241Y-14718436D01*
X15455241Y-14718436D02*
X15445718Y-14727960D01*
X15445718Y-14727960D02*
X15426670Y-14737484D01*
X15426670Y-14737484D02*
X15379051Y-14737484D01*
X15379051Y-14737484D02*
X15360003Y-14727960D01*
X15360003Y-14727960D02*
X15350479Y-14718436D01*
X15702860Y-14737484D02*
X15702860Y-14537484D01*
X15788575Y-14737484D02*
X15788575Y-14632722D01*
X15788575Y-14632722D02*
X15779051Y-14613674D01*
X15779051Y-14613674D02*
X15760003Y-14604150D01*
X15760003Y-14604150D02*
X15731432Y-14604150D01*
X15731432Y-14604150D02*
X15712384Y-14613674D01*
X15712384Y-14613674D02*
X15702860Y-14623198D01*
X15912384Y-14737484D02*
X15893337Y-14727960D01*
X15893337Y-14727960D02*
X15883813Y-14718436D01*
X15883813Y-14718436D02*
X15874289Y-14699388D01*
X15874289Y-14699388D02*
X15874289Y-14642246D01*
X15874289Y-14642246D02*
X15883813Y-14623198D01*
X15883813Y-14623198D02*
X15893337Y-14613674D01*
X15893337Y-14613674D02*
X15912384Y-14604150D01*
X15912384Y-14604150D02*
X15940956Y-14604150D01*
X15940956Y-14604150D02*
X15960003Y-14613674D01*
X15960003Y-14613674D02*
X15969527Y-14623198D01*
X15969527Y-14623198D02*
X15979051Y-14642246D01*
X15979051Y-14642246D02*
X15979051Y-14699388D01*
X15979051Y-14699388D02*
X15969527Y-14718436D01*
X15969527Y-14718436D02*
X15960003Y-14727960D01*
X15960003Y-14727960D02*
X15940956Y-14737484D01*
X15940956Y-14737484D02*
X15912384Y-14737484D01*
X16093337Y-14737484D02*
X16074289Y-14727960D01*
X16074289Y-14727960D02*
X16064765Y-14708912D01*
X16064765Y-14708912D02*
X16064765Y-14537484D01*
X16245718Y-14727960D02*
X16226670Y-14737484D01*
X16226670Y-14737484D02*
X16188575Y-14737484D01*
X16188575Y-14737484D02*
X16169527Y-14727960D01*
X16169527Y-14727960D02*
X16160003Y-14708912D01*
X16160003Y-14708912D02*
X16160003Y-14632722D01*
X16160003Y-14632722D02*
X16169527Y-14613674D01*
X16169527Y-14613674D02*
X16188575Y-14604150D01*
X16188575Y-14604150D02*
X16226670Y-14604150D01*
X16226670Y-14604150D02*
X16245718Y-14613674D01*
X16245718Y-14613674D02*
X16255241Y-14632722D01*
X16255241Y-14632722D02*
X16255241Y-14651769D01*
X16255241Y-14651769D02*
X16160003Y-14670817D01*
X16331432Y-14727960D02*
X16350480Y-14737484D01*
X16350480Y-14737484D02*
X16388575Y-14737484D01*
X16388575Y-14737484D02*
X16407622Y-14727960D01*
X16407622Y-14727960D02*
X16417146Y-14708912D01*
X16417146Y-14708912D02*
X16417146Y-14699388D01*
X16417146Y-14699388D02*
X16407622Y-14680341D01*
X16407622Y-14680341D02*
X16388575Y-14670817D01*
X16388575Y-14670817D02*
X16360003Y-14670817D01*
X16360003Y-14670817D02*
X16340956Y-14661293D01*
X16340956Y-14661293D02*
X16331432Y-14642246D01*
X16331432Y-14642246D02*
X16331432Y-14632722D01*
X16331432Y-14632722D02*
X16340956Y-14613674D01*
X16340956Y-14613674D02*
X16360003Y-14604150D01*
X16360003Y-14604150D02*
X16388575Y-14604150D01*
X16388575Y-14604150D02*
X16407622Y-14613674D01*
X16483813Y-14813674D02*
X16493337Y-14804150D01*
X16493337Y-14804150D02*
X16512384Y-14775579D01*
X16512384Y-14775579D02*
X16521908Y-14756531D01*
X16521908Y-14756531D02*
X16531432Y-14727960D01*
X16531432Y-14727960D02*
X16540956Y-14680341D01*
X16540956Y-14680341D02*
X16540956Y-14642246D01*
X16540956Y-14642246D02*
X16531432Y-14594627D01*
X16531432Y-14594627D02*
X16521908Y-14566055D01*
X16521908Y-14566055D02*
X16512384Y-14547008D01*
X16512384Y-14547008D02*
X16493337Y-14518436D01*
X16493337Y-14518436D02*
X16483813Y-14508912D01*
X11508750Y-14810000D02*
X11708750Y-15010000D01*
X11708750Y-14810000D02*
X11508750Y-15010000D01*
X11708750Y-14910000D02*
G75*
G02*
X11508750Y-14910000I-100000J0D01*
G01*
X11508750Y-14910000D02*
G75*
G02*
X11708750Y-14910000I100000J0D01*
G01*
X11960003Y-14820531D02*
X11969527Y-14811008D01*
X11969527Y-14811008D02*
X11988574Y-14801484D01*
X11988574Y-14801484D02*
X12036193Y-14801484D01*
X12036193Y-14801484D02*
X12055241Y-14811008D01*
X12055241Y-14811008D02*
X12064765Y-14820531D01*
X12064765Y-14820531D02*
X12074289Y-14839579D01*
X12074289Y-14839579D02*
X12074289Y-14858627D01*
X12074289Y-14858627D02*
X12064765Y-14887198D01*
X12064765Y-14887198D02*
X11950479Y-15001484D01*
X11950479Y-15001484D02*
X12074289Y-15001484D01*
X12160003Y-14982436D02*
X12169527Y-14991960D01*
X12169527Y-14991960D02*
X12160003Y-15001484D01*
X12160003Y-15001484D02*
X12150479Y-14991960D01*
X12150479Y-14991960D02*
X12160003Y-14982436D01*
X12160003Y-14982436D02*
X12160003Y-15001484D01*
X12360003Y-15001484D02*
X12245717Y-15001484D01*
X12302860Y-15001484D02*
X12302860Y-14801484D01*
X12302860Y-14801484D02*
X12283812Y-14830055D01*
X12283812Y-14830055D02*
X12264765Y-14849103D01*
X12264765Y-14849103D02*
X12245717Y-14858627D01*
X12483812Y-14801484D02*
X12502860Y-14801484D01*
X12502860Y-14801484D02*
X12521908Y-14811008D01*
X12521908Y-14811008D02*
X12531432Y-14820531D01*
X12531432Y-14820531D02*
X12540955Y-14839579D01*
X12540955Y-14839579D02*
X12550479Y-14877674D01*
X12550479Y-14877674D02*
X12550479Y-14925293D01*
X12550479Y-14925293D02*
X12540955Y-14963388D01*
X12540955Y-14963388D02*
X12531432Y-14982436D01*
X12531432Y-14982436D02*
X12521908Y-14991960D01*
X12521908Y-14991960D02*
X12502860Y-15001484D01*
X12502860Y-15001484D02*
X12483812Y-15001484D01*
X12483812Y-15001484D02*
X12464765Y-14991960D01*
X12464765Y-14991960D02*
X12455241Y-14982436D01*
X12455241Y-14982436D02*
X12445717Y-14963388D01*
X12445717Y-14963388D02*
X12436193Y-14925293D01*
X12436193Y-14925293D02*
X12436193Y-14877674D01*
X12436193Y-14877674D02*
X12445717Y-14839579D01*
X12445717Y-14839579D02*
X12455241Y-14820531D01*
X12455241Y-14820531D02*
X12464765Y-14811008D01*
X12464765Y-14811008D02*
X12483812Y-14801484D01*
X12674289Y-14801484D02*
X12693336Y-14801484D01*
X12693336Y-14801484D02*
X12712384Y-14811008D01*
X12712384Y-14811008D02*
X12721908Y-14820531D01*
X12721908Y-14820531D02*
X12731432Y-14839579D01*
X12731432Y-14839579D02*
X12740955Y-14877674D01*
X12740955Y-14877674D02*
X12740955Y-14925293D01*
X12740955Y-14925293D02*
X12731432Y-14963388D01*
X12731432Y-14963388D02*
X12721908Y-14982436D01*
X12721908Y-14982436D02*
X12712384Y-14991960D01*
X12712384Y-14991960D02*
X12693336Y-15001484D01*
X12693336Y-15001484D02*
X12674289Y-15001484D01*
X12674289Y-15001484D02*
X12655241Y-14991960D01*
X12655241Y-14991960D02*
X12645717Y-14982436D01*
X12645717Y-14982436D02*
X12636193Y-14963388D01*
X12636193Y-14963388D02*
X12626670Y-14925293D01*
X12626670Y-14925293D02*
X12626670Y-14877674D01*
X12626670Y-14877674D02*
X12636193Y-14839579D01*
X12636193Y-14839579D02*
X12645717Y-14820531D01*
X12645717Y-14820531D02*
X12655241Y-14811008D01*
X12655241Y-14811008D02*
X12674289Y-14801484D01*
X12826670Y-15001484D02*
X12826670Y-14868150D01*
X12826670Y-14887198D02*
X12836193Y-14877674D01*
X12836193Y-14877674D02*
X12855241Y-14868150D01*
X12855241Y-14868150D02*
X12883813Y-14868150D01*
X12883813Y-14868150D02*
X12902860Y-14877674D01*
X12902860Y-14877674D02*
X12912384Y-14896722D01*
X12912384Y-14896722D02*
X12912384Y-15001484D01*
X12912384Y-14896722D02*
X12921908Y-14877674D01*
X12921908Y-14877674D02*
X12940955Y-14868150D01*
X12940955Y-14868150D02*
X12969527Y-14868150D01*
X12969527Y-14868150D02*
X12988574Y-14877674D01*
X12988574Y-14877674D02*
X12998098Y-14896722D01*
X12998098Y-14896722D02*
X12998098Y-15001484D01*
X13093336Y-15001484D02*
X13093336Y-14868150D01*
X13093336Y-14887198D02*
X13102860Y-14877674D01*
X13102860Y-14877674D02*
X13121908Y-14868150D01*
X13121908Y-14868150D02*
X13150479Y-14868150D01*
X13150479Y-14868150D02*
X13169527Y-14877674D01*
X13169527Y-14877674D02*
X13179051Y-14896722D01*
X13179051Y-14896722D02*
X13179051Y-15001484D01*
X13179051Y-14896722D02*
X13188574Y-14877674D01*
X13188574Y-14877674D02*
X13207622Y-14868150D01*
X13207622Y-14868150D02*
X13236193Y-14868150D01*
X13236193Y-14868150D02*
X13255241Y-14877674D01*
X13255241Y-14877674D02*
X13264765Y-14896722D01*
X13264765Y-14896722D02*
X13264765Y-15001484D01*
X13655241Y-14791960D02*
X13483813Y-15049103D01*
X13912384Y-14801484D02*
X13931432Y-14801484D01*
X13931432Y-14801484D02*
X13950479Y-14811008D01*
X13950479Y-14811008D02*
X13960003Y-14820531D01*
X13960003Y-14820531D02*
X13969527Y-14839579D01*
X13969527Y-14839579D02*
X13979051Y-14877674D01*
X13979051Y-14877674D02*
X13979051Y-14925293D01*
X13979051Y-14925293D02*
X13969527Y-14963388D01*
X13969527Y-14963388D02*
X13960003Y-14982436D01*
X13960003Y-14982436D02*
X13950479Y-14991960D01*
X13950479Y-14991960D02*
X13931432Y-15001484D01*
X13931432Y-15001484D02*
X13912384Y-15001484D01*
X13912384Y-15001484D02*
X13893336Y-14991960D01*
X13893336Y-14991960D02*
X13883813Y-14982436D01*
X13883813Y-14982436D02*
X13874289Y-14963388D01*
X13874289Y-14963388D02*
X13864765Y-14925293D01*
X13864765Y-14925293D02*
X13864765Y-14877674D01*
X13864765Y-14877674D02*
X13874289Y-14839579D01*
X13874289Y-14839579D02*
X13883813Y-14820531D01*
X13883813Y-14820531D02*
X13893336Y-14811008D01*
X13893336Y-14811008D02*
X13912384Y-14801484D01*
X14064765Y-14982436D02*
X14074289Y-14991960D01*
X14074289Y-14991960D02*
X14064765Y-15001484D01*
X14064765Y-15001484D02*
X14055241Y-14991960D01*
X14055241Y-14991960D02*
X14064765Y-14982436D01*
X14064765Y-14982436D02*
X14064765Y-15001484D01*
X14198098Y-14801484D02*
X14217146Y-14801484D01*
X14217146Y-14801484D02*
X14236194Y-14811008D01*
X14236194Y-14811008D02*
X14245717Y-14820531D01*
X14245717Y-14820531D02*
X14255241Y-14839579D01*
X14255241Y-14839579D02*
X14264765Y-14877674D01*
X14264765Y-14877674D02*
X14264765Y-14925293D01*
X14264765Y-14925293D02*
X14255241Y-14963388D01*
X14255241Y-14963388D02*
X14245717Y-14982436D01*
X14245717Y-14982436D02*
X14236194Y-14991960D01*
X14236194Y-14991960D02*
X14217146Y-15001484D01*
X14217146Y-15001484D02*
X14198098Y-15001484D01*
X14198098Y-15001484D02*
X14179051Y-14991960D01*
X14179051Y-14991960D02*
X14169527Y-14982436D01*
X14169527Y-14982436D02*
X14160003Y-14963388D01*
X14160003Y-14963388D02*
X14150479Y-14925293D01*
X14150479Y-14925293D02*
X14150479Y-14877674D01*
X14150479Y-14877674D02*
X14160003Y-14839579D01*
X14160003Y-14839579D02*
X14169527Y-14820531D01*
X14169527Y-14820531D02*
X14179051Y-14811008D01*
X14179051Y-14811008D02*
X14198098Y-14801484D01*
X14379051Y-14887198D02*
X14360003Y-14877674D01*
X14360003Y-14877674D02*
X14350479Y-14868150D01*
X14350479Y-14868150D02*
X14340956Y-14849103D01*
X14340956Y-14849103D02*
X14340956Y-14839579D01*
X14340956Y-14839579D02*
X14350479Y-14820531D01*
X14350479Y-14820531D02*
X14360003Y-14811008D01*
X14360003Y-14811008D02*
X14379051Y-14801484D01*
X14379051Y-14801484D02*
X14417146Y-14801484D01*
X14417146Y-14801484D02*
X14436194Y-14811008D01*
X14436194Y-14811008D02*
X14445717Y-14820531D01*
X14445717Y-14820531D02*
X14455241Y-14839579D01*
X14455241Y-14839579D02*
X14455241Y-14849103D01*
X14455241Y-14849103D02*
X14445717Y-14868150D01*
X14445717Y-14868150D02*
X14436194Y-14877674D01*
X14436194Y-14877674D02*
X14417146Y-14887198D01*
X14417146Y-14887198D02*
X14379051Y-14887198D01*
X14379051Y-14887198D02*
X14360003Y-14896722D01*
X14360003Y-14896722D02*
X14350479Y-14906246D01*
X14350479Y-14906246D02*
X14340956Y-14925293D01*
X14340956Y-14925293D02*
X14340956Y-14963388D01*
X14340956Y-14963388D02*
X14350479Y-14982436D01*
X14350479Y-14982436D02*
X14360003Y-14991960D01*
X14360003Y-14991960D02*
X14379051Y-15001484D01*
X14379051Y-15001484D02*
X14417146Y-15001484D01*
X14417146Y-15001484D02*
X14436194Y-14991960D01*
X14436194Y-14991960D02*
X14445717Y-14982436D01*
X14445717Y-14982436D02*
X14455241Y-14963388D01*
X14455241Y-14963388D02*
X14455241Y-14925293D01*
X14455241Y-14925293D02*
X14445717Y-14906246D01*
X14445717Y-14906246D02*
X14436194Y-14896722D01*
X14436194Y-14896722D02*
X14417146Y-14887198D01*
X14531432Y-14820531D02*
X14540956Y-14811008D01*
X14540956Y-14811008D02*
X14560003Y-14801484D01*
X14560003Y-14801484D02*
X14607622Y-14801484D01*
X14607622Y-14801484D02*
X14626670Y-14811008D01*
X14626670Y-14811008D02*
X14636194Y-14820531D01*
X14636194Y-14820531D02*
X14645717Y-14839579D01*
X14645717Y-14839579D02*
X14645717Y-14858627D01*
X14645717Y-14858627D02*
X14636194Y-14887198D01*
X14636194Y-14887198D02*
X14521908Y-15001484D01*
X14521908Y-15001484D02*
X14645717Y-15001484D01*
X14712384Y-14801484D02*
X14845717Y-14801484D01*
X14845717Y-14801484D02*
X14760003Y-15001484D01*
X14912384Y-14801484D02*
X14912384Y-14839579D01*
X14988575Y-14801484D02*
X14988575Y-14839579D01*
X15283813Y-15077674D02*
X15274289Y-15068150D01*
X15274289Y-15068150D02*
X15255241Y-15039579D01*
X15255241Y-15039579D02*
X15245718Y-15020531D01*
X15245718Y-15020531D02*
X15236194Y-14991960D01*
X15236194Y-14991960D02*
X15226670Y-14944341D01*
X15226670Y-14944341D02*
X15226670Y-14906246D01*
X15226670Y-14906246D02*
X15236194Y-14858627D01*
X15236194Y-14858627D02*
X15245718Y-14830055D01*
X15245718Y-14830055D02*
X15255241Y-14811008D01*
X15255241Y-14811008D02*
X15274289Y-14782436D01*
X15274289Y-14782436D02*
X15283813Y-14772912D01*
X15350479Y-14820531D02*
X15360003Y-14811008D01*
X15360003Y-14811008D02*
X15379051Y-14801484D01*
X15379051Y-14801484D02*
X15426670Y-14801484D01*
X15426670Y-14801484D02*
X15445718Y-14811008D01*
X15445718Y-14811008D02*
X15455241Y-14820531D01*
X15455241Y-14820531D02*
X15464765Y-14839579D01*
X15464765Y-14839579D02*
X15464765Y-14858627D01*
X15464765Y-14858627D02*
X15455241Y-14887198D01*
X15455241Y-14887198D02*
X15340956Y-15001484D01*
X15340956Y-15001484D02*
X15464765Y-15001484D01*
X15702860Y-15001484D02*
X15702860Y-14801484D01*
X15788575Y-15001484D02*
X15788575Y-14896722D01*
X15788575Y-14896722D02*
X15779051Y-14877674D01*
X15779051Y-14877674D02*
X15760003Y-14868150D01*
X15760003Y-14868150D02*
X15731432Y-14868150D01*
X15731432Y-14868150D02*
X15712384Y-14877674D01*
X15712384Y-14877674D02*
X15702860Y-14887198D01*
X15912384Y-15001484D02*
X15893337Y-14991960D01*
X15893337Y-14991960D02*
X15883813Y-14982436D01*
X15883813Y-14982436D02*
X15874289Y-14963388D01*
X15874289Y-14963388D02*
X15874289Y-14906246D01*
X15874289Y-14906246D02*
X15883813Y-14887198D01*
X15883813Y-14887198D02*
X15893337Y-14877674D01*
X15893337Y-14877674D02*
X15912384Y-14868150D01*
X15912384Y-14868150D02*
X15940956Y-14868150D01*
X15940956Y-14868150D02*
X15960003Y-14877674D01*
X15960003Y-14877674D02*
X15969527Y-14887198D01*
X15969527Y-14887198D02*
X15979051Y-14906246D01*
X15979051Y-14906246D02*
X15979051Y-14963388D01*
X15979051Y-14963388D02*
X15969527Y-14982436D01*
X15969527Y-14982436D02*
X15960003Y-14991960D01*
X15960003Y-14991960D02*
X15940956Y-15001484D01*
X15940956Y-15001484D02*
X15912384Y-15001484D01*
X16093337Y-15001484D02*
X16074289Y-14991960D01*
X16074289Y-14991960D02*
X16064765Y-14972912D01*
X16064765Y-14972912D02*
X16064765Y-14801484D01*
X16245718Y-14991960D02*
X16226670Y-15001484D01*
X16226670Y-15001484D02*
X16188575Y-15001484D01*
X16188575Y-15001484D02*
X16169527Y-14991960D01*
X16169527Y-14991960D02*
X16160003Y-14972912D01*
X16160003Y-14972912D02*
X16160003Y-14896722D01*
X16160003Y-14896722D02*
X16169527Y-14877674D01*
X16169527Y-14877674D02*
X16188575Y-14868150D01*
X16188575Y-14868150D02*
X16226670Y-14868150D01*
X16226670Y-14868150D02*
X16245718Y-14877674D01*
X16245718Y-14877674D02*
X16255241Y-14896722D01*
X16255241Y-14896722D02*
X16255241Y-14915769D01*
X16255241Y-14915769D02*
X16160003Y-14934817D01*
X16331432Y-14991960D02*
X16350480Y-15001484D01*
X16350480Y-15001484D02*
X16388575Y-15001484D01*
X16388575Y-15001484D02*
X16407622Y-14991960D01*
X16407622Y-14991960D02*
X16417146Y-14972912D01*
X16417146Y-14972912D02*
X16417146Y-14963388D01*
X16417146Y-14963388D02*
X16407622Y-14944341D01*
X16407622Y-14944341D02*
X16388575Y-14934817D01*
X16388575Y-14934817D02*
X16360003Y-14934817D01*
X16360003Y-14934817D02*
X16340956Y-14925293D01*
X16340956Y-14925293D02*
X16331432Y-14906246D01*
X16331432Y-14906246D02*
X16331432Y-14896722D01*
X16331432Y-14896722D02*
X16340956Y-14877674D01*
X16340956Y-14877674D02*
X16360003Y-14868150D01*
X16360003Y-14868150D02*
X16388575Y-14868150D01*
X16388575Y-14868150D02*
X16407622Y-14877674D01*
X16483813Y-15077674D02*
X16493337Y-15068150D01*
X16493337Y-15068150D02*
X16512384Y-15039579D01*
X16512384Y-15039579D02*
X16521908Y-15020531D01*
X16521908Y-15020531D02*
X16531432Y-14991960D01*
X16531432Y-14991960D02*
X16540956Y-14944341D01*
X16540956Y-14944341D02*
X16540956Y-14906246D01*
X16540956Y-14906246D02*
X16531432Y-14858627D01*
X16531432Y-14858627D02*
X16521908Y-14830055D01*
X16521908Y-14830055D02*
X16512384Y-14811008D01*
X16512384Y-14811008D02*
X16493337Y-14782436D01*
X16493337Y-14782436D02*
X16483813Y-14772912D01*
X11508750Y-15130000D02*
X11708750Y-15330000D01*
X11708750Y-15130000D02*
X11508750Y-15330000D01*
X11608750Y-15130000D02*
X11608750Y-15330000D01*
X11508750Y-15230000D02*
X11708750Y-15230000D01*
X11960003Y-15140531D02*
X11969527Y-15131008D01*
X11969527Y-15131008D02*
X11988574Y-15121484D01*
X11988574Y-15121484D02*
X12036193Y-15121484D01*
X12036193Y-15121484D02*
X12055241Y-15131008D01*
X12055241Y-15131008D02*
X12064765Y-15140531D01*
X12064765Y-15140531D02*
X12074289Y-15159579D01*
X12074289Y-15159579D02*
X12074289Y-15178627D01*
X12074289Y-15178627D02*
X12064765Y-15207198D01*
X12064765Y-15207198D02*
X11950479Y-15321484D01*
X11950479Y-15321484D02*
X12074289Y-15321484D01*
X12160003Y-15302436D02*
X12169527Y-15311960D01*
X12169527Y-15311960D02*
X12160003Y-15321484D01*
X12160003Y-15321484D02*
X12150479Y-15311960D01*
X12150479Y-15311960D02*
X12160003Y-15302436D01*
X12160003Y-15302436D02*
X12160003Y-15321484D01*
X12264765Y-15321484D02*
X12302860Y-15321484D01*
X12302860Y-15321484D02*
X12321908Y-15311960D01*
X12321908Y-15311960D02*
X12331432Y-15302436D01*
X12331432Y-15302436D02*
X12350479Y-15273865D01*
X12350479Y-15273865D02*
X12360003Y-15235769D01*
X12360003Y-15235769D02*
X12360003Y-15159579D01*
X12360003Y-15159579D02*
X12350479Y-15140531D01*
X12350479Y-15140531D02*
X12340955Y-15131008D01*
X12340955Y-15131008D02*
X12321908Y-15121484D01*
X12321908Y-15121484D02*
X12283812Y-15121484D01*
X12283812Y-15121484D02*
X12264765Y-15131008D01*
X12264765Y-15131008D02*
X12255241Y-15140531D01*
X12255241Y-15140531D02*
X12245717Y-15159579D01*
X12245717Y-15159579D02*
X12245717Y-15207198D01*
X12245717Y-15207198D02*
X12255241Y-15226246D01*
X12255241Y-15226246D02*
X12264765Y-15235769D01*
X12264765Y-15235769D02*
X12283812Y-15245293D01*
X12283812Y-15245293D02*
X12321908Y-15245293D01*
X12321908Y-15245293D02*
X12340955Y-15235769D01*
X12340955Y-15235769D02*
X12350479Y-15226246D01*
X12350479Y-15226246D02*
X12360003Y-15207198D01*
X12426670Y-15121484D02*
X12560003Y-15121484D01*
X12560003Y-15121484D02*
X12474289Y-15321484D01*
X12617146Y-15121484D02*
X12740955Y-15121484D01*
X12740955Y-15121484D02*
X12674289Y-15197674D01*
X12674289Y-15197674D02*
X12702860Y-15197674D01*
X12702860Y-15197674D02*
X12721908Y-15207198D01*
X12721908Y-15207198D02*
X12731432Y-15216722D01*
X12731432Y-15216722D02*
X12740955Y-15235769D01*
X12740955Y-15235769D02*
X12740955Y-15283388D01*
X12740955Y-15283388D02*
X12731432Y-15302436D01*
X12731432Y-15302436D02*
X12721908Y-15311960D01*
X12721908Y-15311960D02*
X12702860Y-15321484D01*
X12702860Y-15321484D02*
X12645717Y-15321484D01*
X12645717Y-15321484D02*
X12626670Y-15311960D01*
X12626670Y-15311960D02*
X12617146Y-15302436D01*
X12826670Y-15321484D02*
X12826670Y-15188150D01*
X12826670Y-15207198D02*
X12836193Y-15197674D01*
X12836193Y-15197674D02*
X12855241Y-15188150D01*
X12855241Y-15188150D02*
X12883813Y-15188150D01*
X12883813Y-15188150D02*
X12902860Y-15197674D01*
X12902860Y-15197674D02*
X12912384Y-15216722D01*
X12912384Y-15216722D02*
X12912384Y-15321484D01*
X12912384Y-15216722D02*
X12921908Y-15197674D01*
X12921908Y-15197674D02*
X12940955Y-15188150D01*
X12940955Y-15188150D02*
X12969527Y-15188150D01*
X12969527Y-15188150D02*
X12988574Y-15197674D01*
X12988574Y-15197674D02*
X12998098Y-15216722D01*
X12998098Y-15216722D02*
X12998098Y-15321484D01*
X13093336Y-15321484D02*
X13093336Y-15188150D01*
X13093336Y-15207198D02*
X13102860Y-15197674D01*
X13102860Y-15197674D02*
X13121908Y-15188150D01*
X13121908Y-15188150D02*
X13150479Y-15188150D01*
X13150479Y-15188150D02*
X13169527Y-15197674D01*
X13169527Y-15197674D02*
X13179051Y-15216722D01*
X13179051Y-15216722D02*
X13179051Y-15321484D01*
X13179051Y-15216722D02*
X13188574Y-15197674D01*
X13188574Y-15197674D02*
X13207622Y-15188150D01*
X13207622Y-15188150D02*
X13236193Y-15188150D01*
X13236193Y-15188150D02*
X13255241Y-15197674D01*
X13255241Y-15197674D02*
X13264765Y-15216722D01*
X13264765Y-15216722D02*
X13264765Y-15321484D01*
X13655241Y-15111960D02*
X13483813Y-15369103D01*
X13912384Y-15121484D02*
X13931432Y-15121484D01*
X13931432Y-15121484D02*
X13950479Y-15131008D01*
X13950479Y-15131008D02*
X13960003Y-15140531D01*
X13960003Y-15140531D02*
X13969527Y-15159579D01*
X13969527Y-15159579D02*
X13979051Y-15197674D01*
X13979051Y-15197674D02*
X13979051Y-15245293D01*
X13979051Y-15245293D02*
X13969527Y-15283388D01*
X13969527Y-15283388D02*
X13960003Y-15302436D01*
X13960003Y-15302436D02*
X13950479Y-15311960D01*
X13950479Y-15311960D02*
X13931432Y-15321484D01*
X13931432Y-15321484D02*
X13912384Y-15321484D01*
X13912384Y-15321484D02*
X13893336Y-15311960D01*
X13893336Y-15311960D02*
X13883813Y-15302436D01*
X13883813Y-15302436D02*
X13874289Y-15283388D01*
X13874289Y-15283388D02*
X13864765Y-15245293D01*
X13864765Y-15245293D02*
X13864765Y-15197674D01*
X13864765Y-15197674D02*
X13874289Y-15159579D01*
X13874289Y-15159579D02*
X13883813Y-15140531D01*
X13883813Y-15140531D02*
X13893336Y-15131008D01*
X13893336Y-15131008D02*
X13912384Y-15121484D01*
X14064765Y-15302436D02*
X14074289Y-15311960D01*
X14074289Y-15311960D02*
X14064765Y-15321484D01*
X14064765Y-15321484D02*
X14055241Y-15311960D01*
X14055241Y-15311960D02*
X14064765Y-15302436D01*
X14064765Y-15302436D02*
X14064765Y-15321484D01*
X14264765Y-15321484D02*
X14150479Y-15321484D01*
X14207622Y-15321484D02*
X14207622Y-15121484D01*
X14207622Y-15121484D02*
X14188575Y-15150055D01*
X14188575Y-15150055D02*
X14169527Y-15169103D01*
X14169527Y-15169103D02*
X14150479Y-15178627D01*
X14455241Y-15321484D02*
X14340956Y-15321484D01*
X14398098Y-15321484D02*
X14398098Y-15121484D01*
X14398098Y-15121484D02*
X14379051Y-15150055D01*
X14379051Y-15150055D02*
X14360003Y-15169103D01*
X14360003Y-15169103D02*
X14340956Y-15178627D01*
X14521908Y-15121484D02*
X14655241Y-15121484D01*
X14655241Y-15121484D02*
X14569527Y-15321484D01*
X14836194Y-15321484D02*
X14721908Y-15321484D01*
X14779051Y-15321484D02*
X14779051Y-15121484D01*
X14779051Y-15121484D02*
X14760003Y-15150055D01*
X14760003Y-15150055D02*
X14740956Y-15169103D01*
X14740956Y-15169103D02*
X14721908Y-15178627D01*
X14912384Y-15121484D02*
X14912384Y-15159579D01*
X14988575Y-15121484D02*
X14988575Y-15159579D01*
X15283813Y-15397674D02*
X15274289Y-15388150D01*
X15274289Y-15388150D02*
X15255241Y-15359579D01*
X15255241Y-15359579D02*
X15245718Y-15340531D01*
X15245718Y-15340531D02*
X15236194Y-15311960D01*
X15236194Y-15311960D02*
X15226670Y-15264341D01*
X15226670Y-15264341D02*
X15226670Y-15226246D01*
X15226670Y-15226246D02*
X15236194Y-15178627D01*
X15236194Y-15178627D02*
X15245718Y-15150055D01*
X15245718Y-15150055D02*
X15255241Y-15131008D01*
X15255241Y-15131008D02*
X15274289Y-15102436D01*
X15274289Y-15102436D02*
X15283813Y-15092912D01*
X15350479Y-15140531D02*
X15360003Y-15131008D01*
X15360003Y-15131008D02*
X15379051Y-15121484D01*
X15379051Y-15121484D02*
X15426670Y-15121484D01*
X15426670Y-15121484D02*
X15445718Y-15131008D01*
X15445718Y-15131008D02*
X15455241Y-15140531D01*
X15455241Y-15140531D02*
X15464765Y-15159579D01*
X15464765Y-15159579D02*
X15464765Y-15178627D01*
X15464765Y-15178627D02*
X15455241Y-15207198D01*
X15455241Y-15207198D02*
X15340956Y-15321484D01*
X15340956Y-15321484D02*
X15464765Y-15321484D01*
X15702860Y-15321484D02*
X15702860Y-15121484D01*
X15788575Y-15321484D02*
X15788575Y-15216722D01*
X15788575Y-15216722D02*
X15779051Y-15197674D01*
X15779051Y-15197674D02*
X15760003Y-15188150D01*
X15760003Y-15188150D02*
X15731432Y-15188150D01*
X15731432Y-15188150D02*
X15712384Y-15197674D01*
X15712384Y-15197674D02*
X15702860Y-15207198D01*
X15912384Y-15321484D02*
X15893337Y-15311960D01*
X15893337Y-15311960D02*
X15883813Y-15302436D01*
X15883813Y-15302436D02*
X15874289Y-15283388D01*
X15874289Y-15283388D02*
X15874289Y-15226246D01*
X15874289Y-15226246D02*
X15883813Y-15207198D01*
X15883813Y-15207198D02*
X15893337Y-15197674D01*
X15893337Y-15197674D02*
X15912384Y-15188150D01*
X15912384Y-15188150D02*
X15940956Y-15188150D01*
X15940956Y-15188150D02*
X15960003Y-15197674D01*
X15960003Y-15197674D02*
X15969527Y-15207198D01*
X15969527Y-15207198D02*
X15979051Y-15226246D01*
X15979051Y-15226246D02*
X15979051Y-15283388D01*
X15979051Y-15283388D02*
X15969527Y-15302436D01*
X15969527Y-15302436D02*
X15960003Y-15311960D01*
X15960003Y-15311960D02*
X15940956Y-15321484D01*
X15940956Y-15321484D02*
X15912384Y-15321484D01*
X16093337Y-15321484D02*
X16074289Y-15311960D01*
X16074289Y-15311960D02*
X16064765Y-15292912D01*
X16064765Y-15292912D02*
X16064765Y-15121484D01*
X16245718Y-15311960D02*
X16226670Y-15321484D01*
X16226670Y-15321484D02*
X16188575Y-15321484D01*
X16188575Y-15321484D02*
X16169527Y-15311960D01*
X16169527Y-15311960D02*
X16160003Y-15292912D01*
X16160003Y-15292912D02*
X16160003Y-15216722D01*
X16160003Y-15216722D02*
X16169527Y-15197674D01*
X16169527Y-15197674D02*
X16188575Y-15188150D01*
X16188575Y-15188150D02*
X16226670Y-15188150D01*
X16226670Y-15188150D02*
X16245718Y-15197674D01*
X16245718Y-15197674D02*
X16255241Y-15216722D01*
X16255241Y-15216722D02*
X16255241Y-15235769D01*
X16255241Y-15235769D02*
X16160003Y-15254817D01*
X16331432Y-15311960D02*
X16350480Y-15321484D01*
X16350480Y-15321484D02*
X16388575Y-15321484D01*
X16388575Y-15321484D02*
X16407622Y-15311960D01*
X16407622Y-15311960D02*
X16417146Y-15292912D01*
X16417146Y-15292912D02*
X16417146Y-15283388D01*
X16417146Y-15283388D02*
X16407622Y-15264341D01*
X16407622Y-15264341D02*
X16388575Y-15254817D01*
X16388575Y-15254817D02*
X16360003Y-15254817D01*
X16360003Y-15254817D02*
X16340956Y-15245293D01*
X16340956Y-15245293D02*
X16331432Y-15226246D01*
X16331432Y-15226246D02*
X16331432Y-15216722D01*
X16331432Y-15216722D02*
X16340956Y-15197674D01*
X16340956Y-15197674D02*
X16360003Y-15188150D01*
X16360003Y-15188150D02*
X16388575Y-15188150D01*
X16388575Y-15188150D02*
X16407622Y-15197674D01*
X16483813Y-15397674D02*
X16493337Y-15388150D01*
X16493337Y-15388150D02*
X16512384Y-15359579D01*
X16512384Y-15359579D02*
X16521908Y-15340531D01*
X16521908Y-15340531D02*
X16531432Y-15311960D01*
X16531432Y-15311960D02*
X16540956Y-15264341D01*
X16540956Y-15264341D02*
X16540956Y-15226246D01*
X16540956Y-15226246D02*
X16531432Y-15178627D01*
X16531432Y-15178627D02*
X16521908Y-15150055D01*
X16521908Y-15150055D02*
X16512384Y-15131008D01*
X16512384Y-15131008D02*
X16493337Y-15102436D01*
X16493337Y-15102436D02*
X16483813Y-15092912D01*
M02*
