G04 #@! TF.GenerationSoftware,KiCad,Pcbnew,8.0.6*
G04 #@! TF.CreationDate,2025-04-03T21:30:13+02:00*
G04 #@! TF.ProjectId,UV-Controller,55562d43-6f6e-4747-926f-6c6c65722e6b,v2.0*
G04 #@! TF.SameCoordinates,Original*
G04 #@! TF.FileFunction,Legend,Bot*
G04 #@! TF.FilePolarity,Positive*
%FSLAX46Y46*%
G04 Gerber Fmt 4.6, Leading zero omitted, Abs format (unit mm)*
G04 Created by KiCad (PCBNEW 8.0.6) date 2025-04-03 21:30:13*
%MOMM*%
%LPD*%
G01*
G04 APERTURE LIST*
G04 Aperture macros list*
%AMRoundRect*
0 Rectangle with rounded corners*
0 $1 Rounding radius*
0 $2 $3 $4 $5 $6 $7 $8 $9 X,Y pos of 4 corners*
0 Add a 4 corners polygon primitive as box body*
4,1,4,$2,$3,$4,$5,$6,$7,$8,$9,$2,$3,0*
0 Add four circle primitives for the rounded corners*
1,1,$1+$1,$2,$3*
1,1,$1+$1,$4,$5*
1,1,$1+$1,$6,$7*
1,1,$1+$1,$8,$9*
0 Add four rect primitives between the rounded corners*
20,1,$1+$1,$2,$3,$4,$5,0*
20,1,$1+$1,$4,$5,$6,$7,0*
20,1,$1+$1,$6,$7,$8,$9,0*
20,1,$1+$1,$8,$9,$2,$3,0*%
G04 Aperture macros list end*
%ADD10C,0.300000*%
%ADD11C,0.000000*%
%ADD12RoundRect,0.249999X-1.300001X-1.300001X1.300001X-1.300001X1.300001X1.300001X-1.300001X1.300001X0*%
%ADD13C,3.100000*%
%ADD14C,2.700000*%
%ADD15RoundRect,0.250001X0.799999X-0.799999X0.799999X0.799999X-0.799999X0.799999X-0.799999X-0.799999X0*%
%ADD16C,2.100000*%
%ADD17C,1.950000*%
%ADD18C,4.460000*%
%ADD19RoundRect,0.250000X-0.350000X-0.625000X0.350000X-0.625000X0.350000X0.625000X-0.350000X0.625000X0*%
%ADD20O,1.200000X1.750000*%
G04 APERTURE END LIST*
D10*
G36*
X156645459Y-81511352D02*
G01*
X156702337Y-81567110D01*
X156738401Y-81641969D01*
X156759834Y-81720443D01*
X156774671Y-81815437D01*
X156781472Y-81897525D01*
X156784563Y-81988905D01*
X156784769Y-82021430D01*
X156782950Y-82110343D01*
X156777492Y-82190510D01*
X156764555Y-82283796D01*
X156745149Y-82361533D01*
X156711795Y-82436842D01*
X156658429Y-82495146D01*
X156577773Y-82518953D01*
X156499116Y-82494409D01*
X156447073Y-82434303D01*
X156414545Y-82356665D01*
X156395620Y-82276523D01*
X156383004Y-82180352D01*
X156377681Y-82097705D01*
X156375907Y-82006043D01*
X156377645Y-81914315D01*
X156382862Y-81831609D01*
X156391556Y-81757926D01*
X156408557Y-81673716D01*
X156438503Y-81591011D01*
X156487190Y-81524846D01*
X156561572Y-81493268D01*
X156573743Y-81492766D01*
X156645459Y-81511352D01*
G37*
G36*
X148953275Y-78991352D02*
G01*
X149010153Y-79047110D01*
X149046217Y-79121969D01*
X149067649Y-79200443D01*
X149082487Y-79295437D01*
X149089288Y-79377525D01*
X149092379Y-79468905D01*
X149092585Y-79501430D01*
X149090766Y-79590343D01*
X149085308Y-79670510D01*
X149072371Y-79763796D01*
X149052965Y-79841533D01*
X149019611Y-79916842D01*
X148966245Y-79975146D01*
X148885589Y-79998953D01*
X148806932Y-79974409D01*
X148754888Y-79914303D01*
X148722361Y-79836665D01*
X148703436Y-79756523D01*
X148690819Y-79660352D01*
X148685497Y-79577705D01*
X148683722Y-79486043D01*
X148685461Y-79394315D01*
X148690678Y-79311609D01*
X148699372Y-79237926D01*
X148716373Y-79153716D01*
X148746319Y-79071011D01*
X148795006Y-79004846D01*
X148869388Y-78973268D01*
X148881559Y-78972766D01*
X148953275Y-78991352D01*
G37*
G36*
X153942149Y-79749825D02*
G01*
X154018833Y-79769364D01*
X154078476Y-79814969D01*
X154100785Y-79891974D01*
X154079146Y-79963484D01*
X154062316Y-79982466D01*
X153996105Y-80014203D01*
X153957536Y-80017637D01*
X153883916Y-80005646D01*
X153819510Y-79966185D01*
X153808426Y-79954989D01*
X153766877Y-79888668D01*
X153751049Y-79813695D01*
X153750540Y-79795987D01*
X153750540Y-79725279D01*
X153942149Y-79749825D01*
G37*
G36*
X157262349Y-79407889D02*
G01*
X157329829Y-79447559D01*
X157350802Y-79468457D01*
X157392313Y-79534652D01*
X157411848Y-79608635D01*
X157414916Y-79657501D01*
X157414916Y-79764846D01*
X157405241Y-79841320D01*
X157373185Y-79910963D01*
X157356297Y-79932641D01*
X157298445Y-79977971D01*
X157222609Y-79998370D01*
X157205722Y-79998953D01*
X157129472Y-79986949D01*
X157062682Y-79946851D01*
X157033531Y-79913590D01*
X156998488Y-79846504D01*
X156979254Y-79770942D01*
X156972222Y-79691067D01*
X156971981Y-79671789D01*
X156977455Y-79596277D01*
X156998476Y-79520302D01*
X157028035Y-79469190D01*
X157086268Y-79419101D01*
X157156793Y-79397706D01*
X157188136Y-79395917D01*
X157262349Y-79407889D01*
G37*
G36*
X158481585Y-79382087D02*
G01*
X158540458Y-79426732D01*
X158544050Y-79430722D01*
X158585504Y-79493313D01*
X158609847Y-79568246D01*
X158613660Y-79591922D01*
X158224947Y-79591922D01*
X158231400Y-79515101D01*
X158255240Y-79445566D01*
X158311703Y-79387950D01*
X158386269Y-79366758D01*
X158408496Y-79365875D01*
X158481585Y-79382087D01*
G37*
G36*
X154134124Y-77229825D02*
G01*
X154210808Y-77249364D01*
X154270451Y-77294969D01*
X154292759Y-77371974D01*
X154271121Y-77443484D01*
X154254291Y-77462466D01*
X154188079Y-77494203D01*
X154149511Y-77497637D01*
X154075890Y-77485646D01*
X154011485Y-77446185D01*
X154000401Y-77434989D01*
X153958852Y-77368668D01*
X153943024Y-77293695D01*
X153942515Y-77275987D01*
X153942515Y-77205279D01*
X154134124Y-77229825D01*
G37*
G36*
X158433416Y-76885225D02*
G01*
X158504392Y-76920224D01*
X158539654Y-76954685D01*
X158578500Y-77022932D01*
X158597176Y-77093815D01*
X158603339Y-77168500D01*
X158603401Y-77177435D01*
X158597418Y-77264298D01*
X158579466Y-77336438D01*
X158542127Y-77403573D01*
X158476784Y-77455102D01*
X158402105Y-77476303D01*
X158358304Y-77478953D01*
X158278744Y-77468069D01*
X158206729Y-77427860D01*
X158157118Y-77358024D01*
X158132427Y-77274583D01*
X158124426Y-77188421D01*
X158124197Y-77169375D01*
X158129957Y-77084834D01*
X158152076Y-77002299D01*
X158198849Y-76932087D01*
X158268202Y-76889960D01*
X158345620Y-76876204D01*
X158360136Y-76875917D01*
X158433416Y-76885225D01*
G37*
G36*
X146112212Y-74709825D02*
G01*
X146188896Y-74729364D01*
X146248539Y-74774969D01*
X146270847Y-74851974D01*
X146249209Y-74923484D01*
X146232379Y-74942466D01*
X146166167Y-74974203D01*
X146127599Y-74977637D01*
X146053978Y-74965646D01*
X145989573Y-74926185D01*
X145978489Y-74914989D01*
X145936940Y-74848668D01*
X145921112Y-74773695D01*
X145920603Y-74755987D01*
X145920603Y-74685279D01*
X146112212Y-74709825D01*
G37*
G36*
X140923028Y-74709825D02*
G01*
X140999712Y-74729364D01*
X141059356Y-74774969D01*
X141081664Y-74851974D01*
X141060025Y-74923484D01*
X141043196Y-74942466D01*
X140976984Y-74974203D01*
X140938415Y-74977637D01*
X140864795Y-74965646D01*
X140800389Y-74926185D01*
X140789305Y-74914989D01*
X140747756Y-74848668D01*
X140731928Y-74773695D01*
X140731420Y-74755987D01*
X140731420Y-74685279D01*
X140923028Y-74709825D01*
G37*
G36*
X142712351Y-74709825D02*
G01*
X142789035Y-74729364D01*
X142848679Y-74774969D01*
X142870987Y-74851974D01*
X142849349Y-74923484D01*
X142832519Y-74942466D01*
X142766307Y-74974203D01*
X142727739Y-74977637D01*
X142654118Y-74965646D01*
X142589713Y-74926185D01*
X142578628Y-74914989D01*
X142537080Y-74848668D01*
X142521251Y-74773695D01*
X142520743Y-74755987D01*
X142520743Y-74685279D01*
X142712351Y-74709825D01*
G37*
G36*
X151236556Y-74365225D02*
G01*
X151307532Y-74400224D01*
X151342794Y-74434685D01*
X151381640Y-74502932D01*
X151400316Y-74573815D01*
X151406479Y-74648500D01*
X151406542Y-74657435D01*
X151400558Y-74744298D01*
X151382606Y-74816438D01*
X151345267Y-74883573D01*
X151279924Y-74935102D01*
X151205246Y-74956303D01*
X151161444Y-74958953D01*
X151081884Y-74948069D01*
X151009869Y-74907860D01*
X150960259Y-74838024D01*
X150935568Y-74754583D01*
X150927566Y-74668421D01*
X150927337Y-74649375D01*
X150933097Y-74564834D01*
X150955217Y-74482299D01*
X151001990Y-74412087D01*
X151071343Y-74369960D01*
X151148760Y-74356204D01*
X151163276Y-74355917D01*
X151236556Y-74365225D01*
G37*
G36*
X159598080Y-74939902D02*
G01*
X159417829Y-74939902D01*
X159344419Y-74933451D01*
X159272955Y-74909196D01*
X159237212Y-74885314D01*
X159190141Y-74825019D01*
X159172209Y-74752911D01*
X159171632Y-74735471D01*
X159185800Y-74658904D01*
X159232146Y-74596222D01*
X159236113Y-74592955D01*
X159302029Y-74557642D01*
X159374157Y-74543114D01*
X159415631Y-74541297D01*
X159598080Y-74541297D01*
X159598080Y-74939902D01*
G37*
G36*
X159598080Y-74294002D02*
G01*
X159451901Y-74294002D01*
X159375274Y-74285960D01*
X159305041Y-74256695D01*
X159289602Y-74245275D01*
X159243292Y-74183267D01*
X159230251Y-74111552D01*
X159249493Y-74034868D01*
X159307222Y-73983280D01*
X159378728Y-73960507D01*
X159458550Y-73953071D01*
X159473517Y-73952916D01*
X159598080Y-73952916D01*
X159598080Y-74294002D01*
G37*
G36*
X151869006Y-71848312D02*
G01*
X151936486Y-71889385D01*
X151957187Y-71911022D01*
X151995810Y-71974202D01*
X152016607Y-72051087D01*
X152020568Y-72109958D01*
X152020568Y-72193489D01*
X152012480Y-72269206D01*
X151985461Y-72338559D01*
X151963049Y-72370443D01*
X151905527Y-72417276D01*
X151834261Y-72437882D01*
X151811374Y-72438953D01*
X151735125Y-72426949D01*
X151668335Y-72386851D01*
X151639183Y-72353590D01*
X151604141Y-72286504D01*
X151584907Y-72210942D01*
X151577874Y-72131067D01*
X151577634Y-72111789D01*
X151582911Y-72032315D01*
X151603176Y-71954725D01*
X151646027Y-71888721D01*
X151709564Y-71849118D01*
X151793789Y-71835917D01*
X151869006Y-71848312D01*
G37*
G36*
X142087517Y-71822087D02*
G01*
X142146389Y-71866732D01*
X142149982Y-71870722D01*
X142191436Y-71933313D01*
X142215779Y-72008246D01*
X142219591Y-72031922D01*
X141830879Y-72031922D01*
X141837332Y-71955101D01*
X141861171Y-71885566D01*
X141917634Y-71827950D01*
X141992201Y-71806758D01*
X142014427Y-71805875D01*
X142087517Y-71822087D01*
G37*
G36*
X144515970Y-71845225D02*
G01*
X144586946Y-71880224D01*
X144622208Y-71914685D01*
X144661054Y-71982932D01*
X144679730Y-72053815D01*
X144685893Y-72128500D01*
X144685956Y-72137435D01*
X144679972Y-72224298D01*
X144662020Y-72296438D01*
X144624681Y-72363573D01*
X144559338Y-72415102D01*
X144484659Y-72436303D01*
X144440858Y-72438953D01*
X144361298Y-72428069D01*
X144289283Y-72387860D01*
X144239672Y-72318024D01*
X144214981Y-72234583D01*
X144206980Y-72148421D01*
X144206751Y-72129375D01*
X144212511Y-72044834D01*
X144234631Y-71962299D01*
X144281404Y-71892087D01*
X144350757Y-71849960D01*
X144428174Y-71836204D01*
X144442690Y-71835917D01*
X144515970Y-71845225D01*
G37*
G36*
X148713039Y-71845225D02*
G01*
X148784015Y-71880224D01*
X148819277Y-71914685D01*
X148858123Y-71982932D01*
X148876799Y-72053815D01*
X148882962Y-72128500D01*
X148883025Y-72137435D01*
X148877041Y-72224298D01*
X148859089Y-72296438D01*
X148821750Y-72363573D01*
X148756407Y-72415102D01*
X148681729Y-72436303D01*
X148637927Y-72438953D01*
X148558367Y-72428069D01*
X148486352Y-72387860D01*
X148436741Y-72318024D01*
X148412050Y-72234583D01*
X148404049Y-72148421D01*
X148403820Y-72129375D01*
X148409580Y-72044834D01*
X148431700Y-71962299D01*
X148478473Y-71892087D01*
X148547826Y-71849960D01*
X148625243Y-71836204D01*
X148639759Y-71835917D01*
X148713039Y-71845225D01*
G37*
G36*
X155013398Y-72189825D02*
G01*
X155090082Y-72209364D01*
X155149726Y-72254969D01*
X155172034Y-72331974D01*
X155150395Y-72403484D01*
X155133565Y-72422466D01*
X155067354Y-72454203D01*
X155028785Y-72457637D01*
X154955165Y-72445646D01*
X154890759Y-72406185D01*
X154879675Y-72394989D01*
X154838126Y-72328668D01*
X154822298Y-72253695D01*
X154821789Y-72235987D01*
X154821789Y-72165279D01*
X155013398Y-72189825D01*
G37*
G36*
X160262636Y-82935114D02*
G01*
X140258838Y-82935114D01*
X140258838Y-81995785D01*
X156043981Y-81995785D01*
X156044229Y-82006043D01*
X156046179Y-82086568D01*
X156052773Y-82171891D01*
X156063764Y-82251753D01*
X156079152Y-82326154D01*
X156104568Y-82411475D01*
X156136854Y-82488263D01*
X156176009Y-82556518D01*
X156184665Y-82569145D01*
X156231607Y-82626561D01*
X156295801Y-82682615D01*
X156368573Y-82724655D01*
X156449923Y-82752682D01*
X156524267Y-82765333D01*
X156588032Y-82768447D01*
X156682313Y-82761952D01*
X156767321Y-82742468D01*
X156843055Y-82709994D01*
X156909516Y-82664531D01*
X156966703Y-82606078D01*
X156976485Y-82591493D01*
X157278262Y-82591493D01*
X157293565Y-82666158D01*
X157332484Y-82718988D01*
X157398908Y-82757579D01*
X157472801Y-82768447D01*
X157546624Y-82755716D01*
X157606891Y-82717522D01*
X157648627Y-82656408D01*
X157660380Y-82591493D01*
X157644870Y-82517892D01*
X157605425Y-82465830D01*
X157538995Y-82427524D01*
X157467672Y-82416737D01*
X157392018Y-82429193D01*
X157331385Y-82466563D01*
X157288430Y-82530435D01*
X157278262Y-82591493D01*
X156976485Y-82591493D01*
X157014617Y-82534636D01*
X157053257Y-82450205D01*
X157082623Y-82352784D01*
X157097049Y-82280620D01*
X157107353Y-82202683D01*
X157113535Y-82118973D01*
X157115596Y-82029490D01*
X157113369Y-81936537D01*
X157106689Y-81849285D01*
X157095555Y-81767734D01*
X157079967Y-81691885D01*
X157071436Y-81663126D01*
X157892288Y-81663126D01*
X157896719Y-81736542D01*
X157911519Y-81808750D01*
X157923796Y-81844476D01*
X157955041Y-81910984D01*
X157997390Y-81976173D01*
X158006960Y-81988457D01*
X158059275Y-82046916D01*
X158114493Y-82097266D01*
X158127128Y-82107526D01*
X158187665Y-82154018D01*
X158250026Y-82199248D01*
X158268178Y-82211939D01*
X158328571Y-82255302D01*
X158363433Y-82281182D01*
X158421380Y-82328189D01*
X158444399Y-82349326D01*
X158493318Y-82404543D01*
X158500087Y-82414539D01*
X158520603Y-82474989D01*
X157894120Y-82474989D01*
X157894120Y-82745000D01*
X158877442Y-82745000D01*
X158877442Y-82633625D01*
X158872940Y-82558566D01*
X158857758Y-82483003D01*
X158839340Y-82430659D01*
X158805178Y-82360516D01*
X158764606Y-82296540D01*
X158743719Y-82269092D01*
X158694933Y-82213530D01*
X158638473Y-82159915D01*
X158617323Y-82142330D01*
X158558459Y-82096279D01*
X158498502Y-82051451D01*
X158486898Y-82043046D01*
X158425806Y-81997891D01*
X158372958Y-81954752D01*
X158317746Y-81901915D01*
X158290526Y-81870488D01*
X158249654Y-81807428D01*
X158240334Y-81786224D01*
X158224428Y-81712941D01*
X158223848Y-81695000D01*
X158224560Y-81689870D01*
X158958408Y-81689870D01*
X159351151Y-82745000D01*
X159721912Y-82745000D01*
X160095969Y-81689870D01*
X159747557Y-81689870D01*
X159564009Y-82340167D01*
X159545881Y-82412085D01*
X159532272Y-82487033D01*
X159528105Y-82527745D01*
X159524075Y-82527745D01*
X159512054Y-82451405D01*
X159495018Y-82379320D01*
X159485973Y-82346395D01*
X159298394Y-81689870D01*
X158958408Y-81689870D01*
X158224560Y-81689870D01*
X158234086Y-81621199D01*
X158274046Y-81555529D01*
X158277337Y-81552484D01*
X158345023Y-81516214D01*
X158420924Y-81504549D01*
X158441102Y-81504124D01*
X158523804Y-81511890D01*
X158604893Y-81535189D01*
X158673114Y-81567522D01*
X158740150Y-81611267D01*
X158806001Y-81666423D01*
X158806001Y-81372233D01*
X158731997Y-81328780D01*
X158654515Y-81294317D01*
X158573556Y-81268845D01*
X158489119Y-81252363D01*
X158416098Y-81245495D01*
X158371127Y-81244371D01*
X158296780Y-81247835D01*
X158221896Y-81259513D01*
X158169993Y-81273681D01*
X158102133Y-81301666D01*
X158039061Y-81341136D01*
X158019050Y-81357578D01*
X157967525Y-81413826D01*
X157929041Y-81480217D01*
X157924895Y-81489836D01*
X157902605Y-81561232D01*
X157892798Y-81639501D01*
X157892288Y-81663126D01*
X157071436Y-81663126D01*
X157054220Y-81605092D01*
X157021514Y-81527208D01*
X156981849Y-81458232D01*
X156973080Y-81445505D01*
X156925299Y-81387562D01*
X156859697Y-81330993D01*
X156785079Y-81288566D01*
X156716010Y-81264013D01*
X156640680Y-81249282D01*
X156559089Y-81244371D01*
X156467033Y-81250976D01*
X156384033Y-81270788D01*
X156310086Y-81303809D01*
X156245195Y-81350039D01*
X156189358Y-81409477D01*
X156142576Y-81482123D01*
X156104848Y-81567978D01*
X156076175Y-81667041D01*
X156062090Y-81740422D01*
X156052029Y-81819672D01*
X156045993Y-81904793D01*
X156043981Y-81995785D01*
X140258838Y-81995785D01*
X140258838Y-79746894D01*
X146004867Y-79746894D01*
X146010264Y-79827029D01*
X146026454Y-79901471D01*
X146053437Y-79970220D01*
X146091214Y-80033276D01*
X146139785Y-80090640D01*
X146158374Y-80108496D01*
X146219777Y-80156057D01*
X146288856Y-80193778D01*
X146365613Y-80221659D01*
X146450045Y-80239700D01*
X146526270Y-80247217D01*
X146574563Y-80248447D01*
X146652140Y-80246141D01*
X146736622Y-80237624D01*
X146814618Y-80222830D01*
X146886127Y-80201760D01*
X146933234Y-80182868D01*
X146933234Y-79896737D01*
X146865947Y-79936565D01*
X146796802Y-79966611D01*
X146725798Y-79986875D01*
X146652937Y-79997356D01*
X146610467Y-79998953D01*
X146535570Y-79993121D01*
X146460145Y-79970727D01*
X146409333Y-79939235D01*
X146359495Y-79878528D01*
X146338207Y-79807589D01*
X146336427Y-79776570D01*
X146347336Y-79703609D01*
X146387640Y-79637567D01*
X146457642Y-79592071D01*
X146541280Y-79569428D01*
X146627646Y-79562090D01*
X146646737Y-79561880D01*
X146721613Y-79563598D01*
X146794874Y-79568080D01*
X146873700Y-79575344D01*
X146910519Y-79579466D01*
X146881302Y-79143126D01*
X147216434Y-79143126D01*
X147220864Y-79216542D01*
X147235664Y-79288750D01*
X147247941Y-79324476D01*
X147279186Y-79390984D01*
X147321535Y-79456173D01*
X147331106Y-79468457D01*
X147383420Y-79526916D01*
X147438638Y-79577266D01*
X147451273Y-79587526D01*
X147511810Y-79634018D01*
X147574171Y-79679248D01*
X147592323Y-79691939D01*
X147652716Y-79735302D01*
X147687578Y-79761182D01*
X147745525Y-79808189D01*
X147768545Y-79829326D01*
X147817463Y-79884543D01*
X147824232Y-79894539D01*
X147844748Y-79954989D01*
X147218265Y-79954989D01*
X147218265Y-80225000D01*
X148201587Y-80225000D01*
X148201587Y-80113625D01*
X148197085Y-80038566D01*
X148181904Y-79963003D01*
X148163485Y-79910659D01*
X148129323Y-79840516D01*
X148088751Y-79776540D01*
X148067864Y-79749092D01*
X148019079Y-79693530D01*
X147962618Y-79639915D01*
X147941468Y-79622330D01*
X147882604Y-79576279D01*
X147822648Y-79531451D01*
X147811043Y-79523046D01*
X147749952Y-79477891D01*
X147747372Y-79475785D01*
X148351796Y-79475785D01*
X148352044Y-79486043D01*
X148353995Y-79566568D01*
X148360589Y-79651891D01*
X148371580Y-79731753D01*
X148386967Y-79806154D01*
X148412384Y-79891475D01*
X148444670Y-79968263D01*
X148483825Y-80036518D01*
X148492480Y-80049145D01*
X148539423Y-80106561D01*
X148603616Y-80162615D01*
X148676388Y-80204655D01*
X148757738Y-80232682D01*
X148832083Y-80245333D01*
X148895847Y-80248447D01*
X148990129Y-80241952D01*
X149075137Y-80222468D01*
X149150871Y-80189994D01*
X149217332Y-80144531D01*
X149274519Y-80086078D01*
X149322433Y-80014636D01*
X149361073Y-79930205D01*
X149390439Y-79832784D01*
X149404865Y-79760620D01*
X149415169Y-79682683D01*
X149421351Y-79598973D01*
X149423412Y-79509490D01*
X149421185Y-79416537D01*
X149414505Y-79329285D01*
X149403371Y-79247734D01*
X149387783Y-79171885D01*
X149379252Y-79143126D01*
X149631507Y-79143126D01*
X149635938Y-79216542D01*
X149650737Y-79288750D01*
X149663014Y-79324476D01*
X149694260Y-79390984D01*
X149736608Y-79456173D01*
X149746179Y-79468457D01*
X149798493Y-79526916D01*
X149853711Y-79577266D01*
X149866346Y-79587526D01*
X149926884Y-79634018D01*
X149989244Y-79679248D01*
X150007397Y-79691939D01*
X150067789Y-79735302D01*
X150102651Y-79761182D01*
X150160598Y-79808189D01*
X150183618Y-79829326D01*
X150232536Y-79884543D01*
X150239305Y-79894539D01*
X150259822Y-79954989D01*
X149633339Y-79954989D01*
X149633339Y-80225000D01*
X150616660Y-80225000D01*
X150616660Y-80113625D01*
X150612158Y-80038566D01*
X150596977Y-79963003D01*
X150578558Y-79910659D01*
X150544396Y-79840516D01*
X150503824Y-79776540D01*
X150482937Y-79749092D01*
X150434152Y-79693530D01*
X150377692Y-79639915D01*
X150356542Y-79622330D01*
X150297677Y-79576279D01*
X150237721Y-79531451D01*
X150226116Y-79523046D01*
X150165025Y-79477891D01*
X150112177Y-79434752D01*
X150056965Y-79381915D01*
X150029745Y-79350488D01*
X149988872Y-79287428D01*
X149979553Y-79266224D01*
X149963646Y-79192941D01*
X149963066Y-79175000D01*
X149963778Y-79169870D01*
X151269155Y-79169870D01*
X151697801Y-80324284D01*
X151728165Y-80398727D01*
X151761278Y-80465848D01*
X151809707Y-80543953D01*
X151863024Y-80609039D01*
X151921231Y-80661109D01*
X151984325Y-80700161D01*
X152070069Y-80730671D01*
X152144163Y-80740434D01*
X152163450Y-80740840D01*
X152240036Y-80738070D01*
X152317598Y-80727651D01*
X152358356Y-80717393D01*
X152358356Y-80459473D01*
X152286148Y-80485200D01*
X152216939Y-80492445D01*
X152139551Y-80478246D01*
X152075666Y-80430367D01*
X152041817Y-80372278D01*
X151986130Y-80239288D01*
X152414776Y-79169870D01*
X152054274Y-79169870D01*
X151857536Y-79825296D01*
X151839182Y-79900786D01*
X151828593Y-79969277D01*
X151824563Y-79969277D01*
X151809094Y-79894187D01*
X151790491Y-79827128D01*
X151591556Y-79169870D01*
X151269155Y-79169870D01*
X149963778Y-79169870D01*
X149965303Y-79158879D01*
X152504169Y-79158879D01*
X152504169Y-79460031D01*
X152576374Y-79433962D01*
X152641189Y-79427791D01*
X152714331Y-79438816D01*
X152778800Y-79475644D01*
X152807152Y-79506193D01*
X152843543Y-79572654D01*
X152862146Y-79647516D01*
X152866870Y-79718684D01*
X152866870Y-80225000D01*
X153192568Y-80225000D01*
X153192568Y-79595586D01*
X153444626Y-79595586D01*
X153444626Y-79795987D01*
X153444626Y-80225000D01*
X153752739Y-80225000D01*
X153752739Y-80071493D01*
X153756769Y-80071493D01*
X153800191Y-80131630D01*
X153859902Y-80186064D01*
X153929360Y-80223563D01*
X154008566Y-80244127D01*
X154071109Y-80248447D01*
X154152298Y-80241579D01*
X154209322Y-80225000D01*
X154590247Y-80225000D01*
X154914846Y-80225000D01*
X154914846Y-80061601D01*
X154919975Y-80061601D01*
X154968048Y-80125099D01*
X155021864Y-80175460D01*
X155091911Y-80217610D01*
X155169777Y-80241878D01*
X155242742Y-80248447D01*
X155328694Y-80241520D01*
X155403187Y-80220741D01*
X155480186Y-80175285D01*
X155539278Y-80108184D01*
X155573659Y-80038918D01*
X155596580Y-79955799D01*
X155608040Y-79858827D01*
X155609473Y-79805146D01*
X155609473Y-79169870D01*
X155284874Y-79169870D01*
X155284874Y-79775837D01*
X155278640Y-79851661D01*
X155250934Y-79928357D01*
X155193270Y-79981304D01*
X155118463Y-79998735D01*
X155107554Y-79998953D01*
X155033193Y-79985509D01*
X154970911Y-79941534D01*
X154967602Y-79937770D01*
X154929735Y-79870832D01*
X154915670Y-79797321D01*
X154914846Y-79771807D01*
X154914846Y-79169870D01*
X154590247Y-79169870D01*
X154590247Y-80225000D01*
X154209322Y-80225000D01*
X154223170Y-80220974D01*
X154289817Y-80181969D01*
X154312909Y-80161618D01*
X154359277Y-80101698D01*
X154388472Y-80030472D01*
X154400064Y-79956701D01*
X154400837Y-79930076D01*
X154391955Y-79840793D01*
X154365310Y-79764139D01*
X154320900Y-79700115D01*
X154258728Y-79648720D01*
X154178791Y-79609955D01*
X154102052Y-79588036D01*
X154037037Y-79576901D01*
X153750540Y-79538799D01*
X153762264Y-79464107D01*
X153809891Y-79400751D01*
X153884080Y-79372242D01*
X153938119Y-79368073D01*
X154019771Y-79373175D01*
X154099635Y-79388480D01*
X154177711Y-79413987D01*
X154253999Y-79449698D01*
X154296789Y-79474685D01*
X154296789Y-79233618D01*
X154227627Y-79205027D01*
X154153163Y-79182977D01*
X154110676Y-79172801D01*
X154037819Y-79158879D01*
X155745760Y-79158879D01*
X155745760Y-79460031D01*
X155817965Y-79433962D01*
X155882780Y-79427791D01*
X155955922Y-79438816D01*
X156020391Y-79475644D01*
X156048743Y-79506193D01*
X156085134Y-79572654D01*
X156103737Y-79647516D01*
X156108461Y-79718684D01*
X156108461Y-80225000D01*
X156434159Y-80225000D01*
X156434159Y-79667759D01*
X156638224Y-79667759D01*
X156638383Y-79671789D01*
X156641372Y-79747317D01*
X156650817Y-79821811D01*
X156670464Y-79904522D01*
X156699177Y-79979943D01*
X156736959Y-80048074D01*
X156767184Y-80089445D01*
X156818459Y-80143481D01*
X156885996Y-80192392D01*
X156961843Y-80226087D01*
X157033469Y-80242857D01*
X157111200Y-80248447D01*
X157191788Y-80241329D01*
X157263330Y-80219976D01*
X157334015Y-80178142D01*
X157386173Y-80126285D01*
X157405757Y-80099703D01*
X157409787Y-80099703D01*
X157409787Y-80225000D01*
X157735484Y-80225000D01*
X157735484Y-79654937D01*
X157923063Y-79654937D01*
X157923063Y-79791957D01*
X158611461Y-79791957D01*
X158596263Y-79868653D01*
X158555741Y-79938076D01*
X158490676Y-79985901D01*
X158415371Y-80009703D01*
X158338842Y-80017417D01*
X158322034Y-80017637D01*
X158247915Y-80014096D01*
X158168145Y-80001376D01*
X158093641Y-79979406D01*
X158024404Y-79948185D01*
X158016120Y-79943632D01*
X158016120Y-80172243D01*
X158084263Y-80201936D01*
X158160786Y-80224335D01*
X158233047Y-80237731D01*
X158311465Y-80245768D01*
X158396039Y-80248447D01*
X158473153Y-80245003D01*
X158558298Y-80231780D01*
X158635381Y-80208639D01*
X158704400Y-80175580D01*
X158765357Y-80132604D01*
X158792812Y-80107397D01*
X158840747Y-80050587D01*
X158878764Y-79985947D01*
X158906864Y-79913475D01*
X158925046Y-79833173D01*
X158932622Y-79760272D01*
X158933862Y-79713921D01*
X158930141Y-79634833D01*
X158918978Y-79561057D01*
X158895760Y-79479540D01*
X158861826Y-79405673D01*
X158817175Y-79339457D01*
X158781454Y-79299563D01*
X158721829Y-79247520D01*
X158657257Y-79206244D01*
X158587739Y-79175735D01*
X158513276Y-79155994D01*
X158433866Y-79147021D01*
X158406297Y-79146423D01*
X158323428Y-79151240D01*
X158247925Y-79165692D01*
X158169150Y-79194728D01*
X158100403Y-79236878D01*
X158049459Y-79283443D01*
X158000209Y-79348053D01*
X157963055Y-79421989D01*
X157940837Y-79492786D01*
X157927507Y-79570435D01*
X157926377Y-79591922D01*
X157923063Y-79654937D01*
X157735484Y-79654937D01*
X157735484Y-79018928D01*
X159076744Y-79018928D01*
X159598080Y-79018928D01*
X159598080Y-79380896D01*
X159118876Y-79380896D01*
X159118876Y-79650907D01*
X159598080Y-79650907D01*
X159598080Y-80225000D01*
X159931106Y-80225000D01*
X159931106Y-78747819D01*
X159076744Y-78747819D01*
X159076744Y-79018928D01*
X157735484Y-79018928D01*
X157735484Y-78654030D01*
X157409787Y-78654030D01*
X157409787Y-79331071D01*
X157405757Y-79331071D01*
X157356963Y-79268319D01*
X157300982Y-79218551D01*
X157226588Y-79176897D01*
X157155035Y-79155259D01*
X157076295Y-79146603D01*
X157062473Y-79146423D01*
X156977826Y-79153102D01*
X156902119Y-79173140D01*
X156835353Y-79206537D01*
X156777528Y-79253293D01*
X156748499Y-79286008D01*
X156705530Y-79351985D01*
X156673115Y-79427779D01*
X156653731Y-79500560D01*
X156642100Y-79580553D01*
X156638224Y-79667759D01*
X156434159Y-79667759D01*
X156434159Y-79169870D01*
X156108461Y-79169870D01*
X156108461Y-79361845D01*
X156104431Y-79361845D01*
X156071089Y-79288635D01*
X156021185Y-79222368D01*
X155959431Y-79176717D01*
X155885825Y-79151682D01*
X155825994Y-79146423D01*
X155751383Y-79156653D01*
X155745760Y-79158879D01*
X154037819Y-79158879D01*
X154032083Y-79157783D01*
X153958512Y-79148999D01*
X153895987Y-79146423D01*
X153815324Y-79150371D01*
X153742595Y-79162214D01*
X153657965Y-79190287D01*
X153587440Y-79232396D01*
X153531019Y-79288541D01*
X153488704Y-79358723D01*
X153460494Y-79442941D01*
X153448593Y-79515315D01*
X153444626Y-79595586D01*
X153192568Y-79595586D01*
X153192568Y-79169870D01*
X152866870Y-79169870D01*
X152866870Y-79361845D01*
X152862840Y-79361845D01*
X152829498Y-79288635D01*
X152779594Y-79222368D01*
X152717840Y-79176717D01*
X152644234Y-79151682D01*
X152584403Y-79146423D01*
X152509792Y-79156653D01*
X152504169Y-79158879D01*
X149965303Y-79158879D01*
X149973305Y-79101199D01*
X150013265Y-79035529D01*
X150016556Y-79032484D01*
X150084241Y-78996214D01*
X150160143Y-78984549D01*
X150180321Y-78984124D01*
X150263022Y-78991890D01*
X150344111Y-79015189D01*
X150412332Y-79047522D01*
X150479368Y-79091267D01*
X150545219Y-79146423D01*
X150545219Y-78852233D01*
X150471215Y-78808780D01*
X150393733Y-78774317D01*
X150312774Y-78748845D01*
X150228337Y-78732363D01*
X150155317Y-78725495D01*
X150110345Y-78724371D01*
X150035998Y-78727835D01*
X149961114Y-78739513D01*
X149909211Y-78753681D01*
X149841351Y-78781666D01*
X149778279Y-78821136D01*
X149758269Y-78837578D01*
X149706744Y-78893826D01*
X149668259Y-78960217D01*
X149664113Y-78969836D01*
X149641824Y-79041232D01*
X149632016Y-79119501D01*
X149631507Y-79143126D01*
X149379252Y-79143126D01*
X149362036Y-79085092D01*
X149329329Y-79007208D01*
X149289664Y-78938232D01*
X149280896Y-78925505D01*
X149233115Y-78867562D01*
X149167513Y-78810993D01*
X149092895Y-78768566D01*
X149023826Y-78744013D01*
X148948496Y-78729282D01*
X148866905Y-78724371D01*
X148774849Y-78730976D01*
X148691848Y-78750788D01*
X148617902Y-78783809D01*
X148553011Y-78830039D01*
X148497174Y-78889477D01*
X148450391Y-78962123D01*
X148412664Y-79047978D01*
X148383991Y-79147041D01*
X148369906Y-79220422D01*
X148359845Y-79299672D01*
X148353809Y-79384793D01*
X148351796Y-79475785D01*
X147747372Y-79475785D01*
X147697103Y-79434752D01*
X147641891Y-79381915D01*
X147614672Y-79350488D01*
X147573799Y-79287428D01*
X147564480Y-79266224D01*
X147548573Y-79192941D01*
X147547993Y-79175000D01*
X147558231Y-79101199D01*
X147598192Y-79035529D01*
X147601482Y-79032484D01*
X147669168Y-78996214D01*
X147745070Y-78984549D01*
X147765247Y-78984124D01*
X147847949Y-78991890D01*
X147929038Y-79015189D01*
X147997259Y-79047522D01*
X148064295Y-79091267D01*
X148130146Y-79146423D01*
X148130146Y-78852233D01*
X148056142Y-78808780D01*
X147978660Y-78774317D01*
X147897701Y-78748845D01*
X147813264Y-78732363D01*
X147740243Y-78725495D01*
X147695272Y-78724371D01*
X147620925Y-78727835D01*
X147546041Y-78739513D01*
X147494138Y-78753681D01*
X147426278Y-78781666D01*
X147363206Y-78821136D01*
X147343196Y-78837578D01*
X147291670Y-78893826D01*
X147253186Y-78960217D01*
X147249040Y-78969836D01*
X147226750Y-79041232D01*
X147216943Y-79119501D01*
X147216434Y-79143126D01*
X146881302Y-79143126D01*
X146854832Y-78747819D01*
X146072644Y-78747819D01*
X146072644Y-79013799D01*
X146606437Y-79013799D01*
X146626953Y-79316782D01*
X146553131Y-79312111D01*
X146489933Y-79310554D01*
X146408094Y-79314715D01*
X146333209Y-79327195D01*
X146254635Y-79352272D01*
X146185527Y-79388674D01*
X146133827Y-79428890D01*
X146083578Y-79484554D01*
X146045671Y-79548001D01*
X146020105Y-79619233D01*
X146006882Y-79698248D01*
X146004867Y-79746894D01*
X140258838Y-79746894D01*
X140258838Y-77276353D01*
X148983042Y-77276353D01*
X148988374Y-77351598D01*
X149008074Y-77431635D01*
X149042290Y-77503327D01*
X149091021Y-77566675D01*
X149134717Y-77606814D01*
X149195528Y-77648150D01*
X149264479Y-77680934D01*
X149341570Y-77705166D01*
X149426801Y-77720845D01*
X149504045Y-77727378D01*
X149553105Y-77728447D01*
X149635833Y-77725884D01*
X149712559Y-77718194D01*
X149782524Y-77705000D01*
X152242585Y-77705000D01*
X152568283Y-77705000D01*
X152568283Y-76649870D01*
X152746702Y-76649870D01*
X152746702Y-76889839D01*
X152983740Y-76889839D01*
X152983740Y-77314822D01*
X152973394Y-77394162D01*
X152932649Y-77455872D01*
X152860995Y-77478792D01*
X152852948Y-77478953D01*
X152780534Y-77463887D01*
X152746702Y-77447079D01*
X152746702Y-77688147D01*
X152817436Y-77714239D01*
X152896179Y-77725928D01*
X152964323Y-77728447D01*
X153044951Y-77722877D01*
X153130619Y-77700249D01*
X153199490Y-77660216D01*
X153251563Y-77602776D01*
X153286838Y-77527931D01*
X153302963Y-77455523D01*
X153308339Y-77371974D01*
X153308339Y-77075586D01*
X153636601Y-77075586D01*
X153636601Y-77275987D01*
X153636601Y-77705000D01*
X153944713Y-77705000D01*
X153944713Y-77551493D01*
X153948743Y-77551493D01*
X153992166Y-77611630D01*
X154051877Y-77666064D01*
X154121335Y-77703563D01*
X154200541Y-77724127D01*
X154263084Y-77728447D01*
X154344273Y-77721579D01*
X154401297Y-77705000D01*
X154812264Y-77705000D01*
X155147854Y-77705000D01*
X155756751Y-76776999D01*
X155797313Y-76713296D01*
X155831123Y-76654267D01*
X155835153Y-76654267D01*
X155829934Y-76731512D01*
X155827731Y-76809365D01*
X155827101Y-76883187D01*
X155827093Y-76893136D01*
X155827093Y-77705000D01*
X156141434Y-77705000D01*
X156141434Y-76638879D01*
X156899075Y-76638879D01*
X156899075Y-76940031D01*
X156971280Y-76913962D01*
X157036095Y-76907791D01*
X157109236Y-76918816D01*
X157173705Y-76955644D01*
X157202058Y-76986193D01*
X157238448Y-77052654D01*
X157257052Y-77127516D01*
X157261775Y-77198684D01*
X157261775Y-77705000D01*
X157587473Y-77705000D01*
X157587473Y-77163147D01*
X157792271Y-77163147D01*
X157792568Y-77169375D01*
X157796037Y-77242217D01*
X157807333Y-77315939D01*
X157830831Y-77397345D01*
X157865173Y-77471049D01*
X157910360Y-77537050D01*
X157946510Y-77576772D01*
X158008218Y-77628318D01*
X158077938Y-77669199D01*
X158155669Y-77699415D01*
X158241411Y-77718967D01*
X158318982Y-77727114D01*
X158368196Y-77728447D01*
X158447873Y-77724851D01*
X158522040Y-77714064D01*
X158603768Y-77691627D01*
X158677562Y-77658835D01*
X158743421Y-77615687D01*
X158782920Y-77581168D01*
X158834217Y-77522242D01*
X158874900Y-77455923D01*
X158904971Y-77382211D01*
X158924428Y-77301106D01*
X158932535Y-77227871D01*
X158933862Y-77181465D01*
X158930043Y-77102827D01*
X158918585Y-77029717D01*
X158894753Y-76949282D01*
X158859921Y-76876806D01*
X158814090Y-76812290D01*
X158777424Y-76773702D01*
X158714759Y-76723650D01*
X158644366Y-76683954D01*
X158566244Y-76654613D01*
X158480395Y-76635628D01*
X158402950Y-76627718D01*
X158353907Y-76626423D01*
X158274583Y-76630019D01*
X158200786Y-76640806D01*
X158119526Y-76663243D01*
X158046226Y-76696035D01*
X157980886Y-76739183D01*
X157941748Y-76773702D01*
X157890949Y-76832267D01*
X157850660Y-76897504D01*
X157820882Y-76969413D01*
X157801613Y-77047994D01*
X157792855Y-77133247D01*
X157792271Y-77163147D01*
X157587473Y-77163147D01*
X157587473Y-76649870D01*
X157261775Y-76649870D01*
X157261775Y-76841845D01*
X157257745Y-76841845D01*
X157224403Y-76768635D01*
X157174500Y-76702368D01*
X157112745Y-76656717D01*
X157039140Y-76631682D01*
X156979309Y-76626423D01*
X156904698Y-76636653D01*
X156899075Y-76638879D01*
X156141434Y-76638879D01*
X156141434Y-76498928D01*
X159076744Y-76498928D01*
X159598080Y-76498928D01*
X159598080Y-76860896D01*
X159118876Y-76860896D01*
X159118876Y-77130907D01*
X159598080Y-77130907D01*
X159598080Y-77705000D01*
X159931106Y-77705000D01*
X159931106Y-76227819D01*
X159076744Y-76227819D01*
X159076744Y-76498928D01*
X156141434Y-76498928D01*
X156141434Y-76227819D01*
X155782763Y-76227819D01*
X155196580Y-77127243D01*
X155155519Y-77191550D01*
X155122208Y-77247777D01*
X155118178Y-77247777D01*
X155124223Y-77171207D01*
X155126041Y-77089662D01*
X155126238Y-77044811D01*
X155126238Y-76227819D01*
X154812264Y-76227819D01*
X154812264Y-77705000D01*
X154401297Y-77705000D01*
X154415145Y-77700974D01*
X154481792Y-77661969D01*
X154504884Y-77641618D01*
X154551252Y-77581698D01*
X154580447Y-77510472D01*
X154592039Y-77436701D01*
X154592812Y-77410076D01*
X154583930Y-77320793D01*
X154557284Y-77244139D01*
X154512875Y-77180115D01*
X154450703Y-77128720D01*
X154370766Y-77089955D01*
X154294027Y-77068036D01*
X154229012Y-77056901D01*
X153942515Y-77018799D01*
X153954239Y-76944107D01*
X154001866Y-76880751D01*
X154076055Y-76852242D01*
X154130094Y-76848073D01*
X154211746Y-76853175D01*
X154291610Y-76868480D01*
X154369686Y-76893987D01*
X154445974Y-76929698D01*
X154488764Y-76954685D01*
X154488764Y-76713618D01*
X154419602Y-76685027D01*
X154345138Y-76662977D01*
X154302651Y-76652801D01*
X154224058Y-76637783D01*
X154150487Y-76628999D01*
X154087962Y-76626423D01*
X154007299Y-76630371D01*
X153934570Y-76642214D01*
X153849940Y-76670287D01*
X153779414Y-76712396D01*
X153722994Y-76768541D01*
X153680679Y-76838723D01*
X153652469Y-76922941D01*
X153640568Y-76995315D01*
X153636601Y-77075586D01*
X153308339Y-77075586D01*
X153308339Y-76889839D01*
X153479431Y-76889839D01*
X153479431Y-76649870D01*
X153308339Y-76649870D01*
X153308339Y-76416496D01*
X152983740Y-76321608D01*
X152983740Y-76649870D01*
X152746702Y-76649870D01*
X152568283Y-76649870D01*
X152242585Y-76649870D01*
X152242585Y-77705000D01*
X149782524Y-77705000D01*
X149794487Y-77702744D01*
X149868245Y-77680317D01*
X149924965Y-77655540D01*
X149924965Y-77376737D01*
X149857683Y-77416565D01*
X149785667Y-77446611D01*
X149708919Y-77466875D01*
X149627437Y-77477356D01*
X149578750Y-77478953D01*
X149499606Y-77472546D01*
X149428079Y-77450942D01*
X149384577Y-77424731D01*
X149336993Y-77368762D01*
X149316056Y-77296383D01*
X149314968Y-77272690D01*
X149329177Y-77198746D01*
X149376261Y-77136155D01*
X149401064Y-77118084D01*
X149467830Y-77087005D01*
X149541676Y-77069946D01*
X149618843Y-77063709D01*
X149637369Y-77063496D01*
X149774389Y-77063496D01*
X149774389Y-76826824D01*
X150301587Y-76826824D01*
X150988154Y-77125411D01*
X150988154Y-77131639D01*
X150301587Y-77411175D01*
X150301587Y-77658105D01*
X151264026Y-77212606D01*
X151264026Y-77048475D01*
X150301587Y-76579528D01*
X150301587Y-76826824D01*
X149774389Y-76826824D01*
X149774389Y-76814002D01*
X149647627Y-76814002D01*
X149564563Y-76809458D01*
X149483471Y-76792010D01*
X149414486Y-76755114D01*
X149369435Y-76691138D01*
X149359298Y-76627889D01*
X149373151Y-76551273D01*
X149421854Y-76491245D01*
X149494583Y-76461146D01*
X149580949Y-76452766D01*
X149654611Y-76459224D01*
X149727219Y-76478595D01*
X149798775Y-76510881D01*
X149869277Y-76556081D01*
X149869277Y-76296695D01*
X152215840Y-76296695D01*
X152232301Y-76370073D01*
X152267864Y-76415764D01*
X152332032Y-76452068D01*
X152403419Y-76462292D01*
X152478432Y-76450293D01*
X152538607Y-76414298D01*
X152580970Y-76353466D01*
X152590997Y-76296695D01*
X152574421Y-76224258D01*
X152538607Y-76179459D01*
X152474178Y-76144012D01*
X152403419Y-76134030D01*
X152327765Y-76145387D01*
X152267864Y-76179459D01*
X152224426Y-76242705D01*
X152215840Y-76296695D01*
X149869277Y-76296695D01*
X149869277Y-76284239D01*
X149798702Y-76253119D01*
X149723218Y-76229642D01*
X149642825Y-76213809D01*
X149557524Y-76205619D01*
X149506577Y-76204371D01*
X149425076Y-76207913D01*
X149350660Y-76218539D01*
X149272794Y-76239890D01*
X149204571Y-76270882D01*
X149153768Y-76305122D01*
X149098470Y-76359069D01*
X149055145Y-76428737D01*
X149031816Y-76507910D01*
X149027372Y-76565973D01*
X149034546Y-76649849D01*
X149056066Y-76723331D01*
X149100828Y-76797790D01*
X149153912Y-76848407D01*
X149221342Y-76888630D01*
X149303119Y-76918459D01*
X149321196Y-76923178D01*
X149321196Y-76928307D01*
X149246939Y-76942916D01*
X149173307Y-76970627D01*
X149110166Y-77010278D01*
X149073900Y-77043346D01*
X149025987Y-77106873D01*
X148995819Y-77178843D01*
X148983397Y-77259257D01*
X148983042Y-77276353D01*
X140258838Y-77276353D01*
X140258838Y-74555586D01*
X140425505Y-74555586D01*
X140425505Y-74755987D01*
X140425505Y-75185000D01*
X140733618Y-75185000D01*
X140733618Y-75031493D01*
X140737648Y-75031493D01*
X140781071Y-75091630D01*
X140840781Y-75146064D01*
X140910240Y-75183563D01*
X140989445Y-75204127D01*
X141051988Y-75208447D01*
X141133177Y-75201579D01*
X141204050Y-75180974D01*
X141270696Y-75141969D01*
X141293789Y-75121618D01*
X141340157Y-75061698D01*
X141369351Y-74990472D01*
X141380943Y-74916701D01*
X141381716Y-74890076D01*
X141372834Y-74800793D01*
X141346189Y-74724139D01*
X141301780Y-74660115D01*
X141239607Y-74608720D01*
X141159670Y-74569955D01*
X141082931Y-74548036D01*
X141017916Y-74536901D01*
X140731420Y-74498799D01*
X140743143Y-74424107D01*
X140790771Y-74360751D01*
X140864959Y-74332242D01*
X140918998Y-74328073D01*
X141000650Y-74333175D01*
X141080515Y-74348480D01*
X141158591Y-74373987D01*
X141234879Y-74409698D01*
X141277669Y-74434685D01*
X141277669Y-74193618D01*
X141208506Y-74165027D01*
X141134042Y-74142977D01*
X141091556Y-74132801D01*
X141076217Y-74129870D01*
X141471109Y-74129870D01*
X141471109Y-74387791D01*
X141610327Y-74481580D01*
X141610327Y-75185000D01*
X141934926Y-75185000D01*
X141934926Y-74692606D01*
X142069748Y-74762948D01*
X142069748Y-74555586D01*
X142214829Y-74555586D01*
X142214829Y-74755987D01*
X142214829Y-75185000D01*
X142522941Y-75185000D01*
X142522941Y-75031493D01*
X142526971Y-75031493D01*
X142570394Y-75091630D01*
X142630105Y-75146064D01*
X142699563Y-75183563D01*
X142778768Y-75204127D01*
X142841311Y-75208447D01*
X142922500Y-75201579D01*
X142993373Y-75180974D01*
X143060019Y-75141969D01*
X143083112Y-75121618D01*
X143129480Y-75061698D01*
X143158674Y-74990472D01*
X143170266Y-74916701D01*
X143171039Y-74890076D01*
X143162157Y-74800793D01*
X143135512Y-74724139D01*
X143091103Y-74660115D01*
X143028930Y-74608720D01*
X142948994Y-74569955D01*
X142872255Y-74548036D01*
X142815800Y-74538367D01*
X143342864Y-74538367D01*
X143342864Y-75185000D01*
X143667463Y-75185000D01*
X143667463Y-74587093D01*
X143673401Y-74508529D01*
X143695337Y-74437416D01*
X143747292Y-74378493D01*
X143825966Y-74356143D01*
X143836357Y-74355917D01*
X143910250Y-74370166D01*
X143969815Y-74412911D01*
X143976674Y-74420764D01*
X144015067Y-74488942D01*
X144029693Y-74566519D01*
X144030163Y-74584895D01*
X144030163Y-75185000D01*
X144355861Y-75185000D01*
X144355861Y-74156249D01*
X144562857Y-74156249D01*
X144562857Y-74434685D01*
X144629032Y-74393147D01*
X144699786Y-74366994D01*
X144775119Y-74356225D01*
X144790736Y-74355917D01*
X144865057Y-74362351D01*
X144936827Y-74384590D01*
X145002633Y-74427401D01*
X145013119Y-74437250D01*
X145059633Y-74500439D01*
X145085164Y-74570506D01*
X145094499Y-74643845D01*
X145094818Y-74661465D01*
X145088616Y-74735023D01*
X145067178Y-74805605D01*
X145025910Y-74869692D01*
X145016416Y-74879818D01*
X144955588Y-74924872D01*
X144880907Y-74951225D01*
X144800994Y-74958953D01*
X144725474Y-74951261D01*
X144650956Y-74928184D01*
X144584747Y-74894261D01*
X144562857Y-74880184D01*
X144562857Y-75143967D01*
X144632625Y-75175136D01*
X144707632Y-75194279D01*
X144783294Y-75204417D01*
X144868317Y-75208384D01*
X144881228Y-75208447D01*
X144954985Y-75204869D01*
X145037520Y-75191130D01*
X145113538Y-75167088D01*
X145183039Y-75132741D01*
X145246022Y-75088090D01*
X145275069Y-75061901D01*
X145326117Y-75003821D01*
X145366603Y-74939764D01*
X145396528Y-74869732D01*
X145415891Y-74793722D01*
X145424692Y-74711737D01*
X145425279Y-74683080D01*
X145421343Y-74602162D01*
X145414047Y-74555586D01*
X145614689Y-74555586D01*
X145614689Y-74755987D01*
X145614689Y-75185000D01*
X145761967Y-75185000D01*
X145820325Y-75230715D01*
X145873390Y-75285819D01*
X145881036Y-75296008D01*
X145914958Y-75361810D01*
X145919504Y-75391995D01*
X145901919Y-75441088D01*
X145854658Y-75457575D01*
X145813258Y-75454277D01*
X145771127Y-75445118D01*
X145770027Y-75587634D01*
X145829378Y-75601189D01*
X145899720Y-75607051D01*
X145974161Y-75597150D01*
X146040038Y-75561988D01*
X146082400Y-75498838D01*
X146092428Y-75431929D01*
X146081071Y-75366716D01*
X146048098Y-75300038D01*
X146000495Y-75243647D01*
X145994609Y-75238122D01*
X145934301Y-75192672D01*
X145921702Y-75185000D01*
X145922801Y-75185000D01*
X145922801Y-75031493D01*
X145926831Y-75031493D01*
X145970254Y-75091630D01*
X146029965Y-75146064D01*
X146099423Y-75183563D01*
X146178629Y-75204127D01*
X146241172Y-75208447D01*
X146322361Y-75201579D01*
X146393233Y-75180974D01*
X146459880Y-75141969D01*
X146482972Y-75121618D01*
X146529340Y-75061698D01*
X146558535Y-74990472D01*
X146570127Y-74916701D01*
X146570900Y-74890076D01*
X146562018Y-74800793D01*
X146535372Y-74724139D01*
X146490963Y-74660115D01*
X146428790Y-74608720D01*
X146348854Y-74569955D01*
X146272115Y-74548036D01*
X146207100Y-74536901D01*
X145920603Y-74498799D01*
X145932327Y-74424107D01*
X145979954Y-74360751D01*
X146054143Y-74332242D01*
X146108182Y-74328073D01*
X146189834Y-74333175D01*
X146269698Y-74348480D01*
X146347774Y-74373987D01*
X146424062Y-74409698D01*
X146466852Y-74434685D01*
X146466852Y-74193618D01*
X146397690Y-74165027D01*
X146323226Y-74142977D01*
X146280739Y-74132801D01*
X146202146Y-74117783D01*
X146128575Y-74108999D01*
X146066050Y-74106423D01*
X145985387Y-74110371D01*
X145912658Y-74122214D01*
X145828027Y-74150287D01*
X145757502Y-74192396D01*
X145701082Y-74248541D01*
X145658767Y-74318723D01*
X145630557Y-74402941D01*
X145618656Y-74475315D01*
X145614689Y-74555586D01*
X145414047Y-74555586D01*
X145409536Y-74526789D01*
X145384979Y-74443661D01*
X145349086Y-74368520D01*
X145301860Y-74301363D01*
X145264078Y-74261029D01*
X145199803Y-74208487D01*
X145127877Y-74166816D01*
X145048300Y-74136016D01*
X144976141Y-74118653D01*
X144898670Y-74108839D01*
X144832868Y-74106423D01*
X144756209Y-74108807D01*
X144680664Y-74117371D01*
X144604328Y-74136834D01*
X144562857Y-74156249D01*
X144355861Y-74156249D01*
X144355861Y-73707819D01*
X146576029Y-73707819D01*
X146966573Y-75185000D01*
X147335502Y-75185000D01*
X147580600Y-74237215D01*
X147595685Y-74163971D01*
X147603519Y-74088637D01*
X147604413Y-74071618D01*
X147608443Y-74071618D01*
X147617453Y-74147552D01*
X147631003Y-74220443D01*
X147635188Y-74237215D01*
X147886880Y-75185000D01*
X148271196Y-75185000D01*
X148440712Y-74540198D01*
X149371388Y-74540198D01*
X149371388Y-75185000D01*
X149695987Y-75185000D01*
X149695987Y-74600282D01*
X149702144Y-74517236D01*
X149724889Y-74442065D01*
X149771406Y-74384792D01*
X149839813Y-74358065D01*
X149871109Y-74355917D01*
X149943849Y-74370166D01*
X150003387Y-74412911D01*
X150010327Y-74420764D01*
X150047644Y-74483916D01*
X150064063Y-74560532D01*
X150064916Y-74584895D01*
X150064916Y-75185000D01*
X150390614Y-75185000D01*
X150390614Y-74643147D01*
X150595411Y-74643147D01*
X150595708Y-74649375D01*
X150599177Y-74722217D01*
X150610474Y-74795939D01*
X150633971Y-74877345D01*
X150668313Y-74951049D01*
X150713501Y-75017050D01*
X150749651Y-75056772D01*
X150811359Y-75108318D01*
X150881078Y-75149199D01*
X150958809Y-75179415D01*
X151044551Y-75198967D01*
X151122122Y-75207114D01*
X151171336Y-75208447D01*
X151251013Y-75204851D01*
X151325180Y-75194064D01*
X151406908Y-75171627D01*
X151480702Y-75138835D01*
X151546562Y-75095687D01*
X151586060Y-75061168D01*
X151637357Y-75002242D01*
X151678041Y-74935923D01*
X151708111Y-74862211D01*
X151727568Y-74781106D01*
X151735676Y-74707871D01*
X151737002Y-74661465D01*
X151733183Y-74582827D01*
X151724894Y-74529940D01*
X151921650Y-74529940D01*
X151921650Y-75185000D01*
X152246249Y-75185000D01*
X152246249Y-74584895D01*
X152252186Y-74507078D01*
X152274123Y-74436641D01*
X152326077Y-74378278D01*
X152404752Y-74356141D01*
X152415143Y-74355917D01*
X152487957Y-74373136D01*
X152545935Y-74424794D01*
X152580496Y-74491512D01*
X152595259Y-74565018D01*
X152596493Y-74596252D01*
X152596493Y-75185000D01*
X152922191Y-75185000D01*
X152922191Y-74579033D01*
X152928025Y-74503208D01*
X152953957Y-74426512D01*
X153007927Y-74373566D01*
X153088154Y-74355917D01*
X153163075Y-74372404D01*
X153221510Y-74421863D01*
X153255571Y-74488291D01*
X153270119Y-74566173D01*
X153271336Y-74600282D01*
X153271336Y-75185000D01*
X153597034Y-75185000D01*
X153597034Y-74129870D01*
X153722330Y-74129870D01*
X154150976Y-75284284D01*
X154181340Y-75358727D01*
X154214453Y-75425848D01*
X154262882Y-75503953D01*
X154316200Y-75569039D01*
X154374406Y-75621109D01*
X154437501Y-75660161D01*
X154523244Y-75690671D01*
X154597338Y-75700434D01*
X154616625Y-75700840D01*
X154693211Y-75698070D01*
X154770773Y-75687651D01*
X154811531Y-75677393D01*
X154811531Y-75419473D01*
X154739323Y-75445200D01*
X154670115Y-75452445D01*
X154592726Y-75438246D01*
X154528841Y-75390367D01*
X154494993Y-75332278D01*
X154439305Y-75199288D01*
X154541217Y-74945031D01*
X154896528Y-74945031D01*
X154896528Y-75185000D01*
X155843579Y-75185000D01*
X155843579Y-75050177D01*
X155624200Y-74768443D01*
X155937369Y-74768443D01*
X155941948Y-74841745D01*
X155957564Y-74913451D01*
X155984263Y-74975806D01*
X156027928Y-75038475D01*
X156082718Y-75090744D01*
X156111758Y-75111360D01*
X156181301Y-75148732D01*
X156253223Y-75174535D01*
X156298604Y-75185732D01*
X156373285Y-75198664D01*
X156450737Y-75206229D01*
X156523551Y-75208447D01*
X156598427Y-75206479D01*
X156678146Y-75199769D01*
X156755094Y-75188297D01*
X156826941Y-75172063D01*
X156897421Y-75148922D01*
X156944870Y-75127847D01*
X156944870Y-74806179D01*
X156881386Y-74850383D01*
X156814352Y-74886275D01*
X156750331Y-74911692D01*
X156677783Y-74931716D01*
X156604715Y-74943428D01*
X156537840Y-74946863D01*
X156462398Y-74942129D01*
X156428297Y-74935872D01*
X156358012Y-74909545D01*
X156349895Y-74904731D01*
X156303000Y-74857470D01*
X156287613Y-74798485D01*
X156308073Y-74727952D01*
X156312526Y-74721549D01*
X156364506Y-74669810D01*
X156379937Y-74658900D01*
X156446164Y-74620143D01*
X156481420Y-74603213D01*
X156550379Y-74572778D01*
X156608182Y-74548625D01*
X156679628Y-74515684D01*
X156750978Y-74474302D01*
X156811336Y-74428936D01*
X156866102Y-74373136D01*
X156907189Y-74311219D01*
X156934830Y-74242520D01*
X156949023Y-74167040D01*
X156950743Y-74129870D01*
X157613119Y-74129870D01*
X158041765Y-75284284D01*
X158072129Y-75358727D01*
X158105242Y-75425848D01*
X158153671Y-75503953D01*
X158206988Y-75569039D01*
X158265194Y-75621109D01*
X158328289Y-75660161D01*
X158414032Y-75690671D01*
X158488127Y-75700434D01*
X158507414Y-75700840D01*
X158584000Y-75698070D01*
X158661562Y-75687651D01*
X158702320Y-75677393D01*
X158702320Y-75419473D01*
X158630112Y-75445200D01*
X158560903Y-75452445D01*
X158483514Y-75438246D01*
X158419630Y-75390367D01*
X158385781Y-75332278D01*
X158330094Y-75199288D01*
X158514534Y-74739134D01*
X158821388Y-74739134D01*
X158826502Y-74813095D01*
X158845393Y-74891863D01*
X158878203Y-74962531D01*
X158924934Y-75025099D01*
X158966835Y-75064832D01*
X159035391Y-75111655D01*
X159102247Y-75142636D01*
X159176573Y-75165167D01*
X159258370Y-75179249D01*
X159332240Y-75184530D01*
X159363241Y-75185000D01*
X159931106Y-75185000D01*
X159931106Y-73707819D01*
X159393283Y-73707819D01*
X159318794Y-73710001D01*
X159236774Y-73718382D01*
X159162791Y-73733048D01*
X159086636Y-73758102D01*
X159021420Y-73791712D01*
X159012997Y-73797212D01*
X158954813Y-73846488D01*
X158909228Y-73912871D01*
X158884682Y-73990847D01*
X158880006Y-74049270D01*
X158887681Y-74111552D01*
X158889574Y-74126911D01*
X158918276Y-74197625D01*
X158960973Y-74255900D01*
X159015942Y-74305824D01*
X159079641Y-74345230D01*
X159152069Y-74374117D01*
X159167602Y-74378632D01*
X159167602Y-74382662D01*
X159092795Y-74397454D01*
X159018108Y-74425809D01*
X158953447Y-74466568D01*
X158915910Y-74500631D01*
X158870218Y-74559045D01*
X158836988Y-74631903D01*
X158822865Y-74704633D01*
X158821545Y-74735471D01*
X158821388Y-74739134D01*
X158514534Y-74739134D01*
X158758740Y-74129870D01*
X158398237Y-74129870D01*
X158201500Y-74785296D01*
X158183146Y-74860786D01*
X158172557Y-74929277D01*
X158168527Y-74929277D01*
X158153058Y-74854187D01*
X158134455Y-74787128D01*
X157935519Y-74129870D01*
X157613119Y-74129870D01*
X156950743Y-74129870D01*
X156951099Y-74122177D01*
X156945644Y-74046897D01*
X156927251Y-73973464D01*
X156904937Y-73924340D01*
X156861630Y-73861904D01*
X156807319Y-73809141D01*
X156778541Y-73788053D01*
X156709477Y-73749309D01*
X156638319Y-73721917D01*
X156593527Y-73709651D01*
X156519810Y-73695258D01*
X156443236Y-73686840D01*
X156371144Y-73684371D01*
X156294920Y-73685973D01*
X156218877Y-73691374D01*
X156166713Y-73697927D01*
X156091229Y-73712593D01*
X156016423Y-73734532D01*
X156002215Y-73739692D01*
X156002215Y-74039745D01*
X156069613Y-74004351D01*
X156083182Y-73998712D01*
X156153091Y-73974464D01*
X156173307Y-73969036D01*
X156245435Y-73954520D01*
X156265631Y-73951817D01*
X156339520Y-73946099D01*
X156352459Y-73945956D01*
X156425692Y-73951150D01*
X156455774Y-73956946D01*
X156525618Y-73982271D01*
X156533810Y-73986988D01*
X156583269Y-74033517D01*
X156600854Y-74094333D01*
X156581437Y-74160645D01*
X156530175Y-74213024D01*
X156525750Y-74216332D01*
X156462895Y-74254938D01*
X156438189Y-74267623D01*
X156368465Y-74299480D01*
X156321685Y-74319281D01*
X156252672Y-74350132D01*
X156185112Y-74385114D01*
X156162683Y-74398049D01*
X156100821Y-74439356D01*
X156044596Y-74488918D01*
X156041416Y-74492205D01*
X155994419Y-74552108D01*
X155964113Y-74612006D01*
X155944055Y-74684637D01*
X155937395Y-74762878D01*
X155937369Y-74768443D01*
X155624200Y-74768443D01*
X155313817Y-74369839D01*
X155790823Y-74369839D01*
X155790823Y-74129870D01*
X154900558Y-74129870D01*
X154900558Y-74290704D01*
X155402477Y-74945031D01*
X154896528Y-74945031D01*
X154541217Y-74945031D01*
X154867951Y-74129870D01*
X154507449Y-74129870D01*
X154310711Y-74785296D01*
X154292357Y-74860786D01*
X154281769Y-74929277D01*
X154277739Y-74929277D01*
X154262270Y-74854187D01*
X154243667Y-74787128D01*
X154044731Y-74129870D01*
X153722330Y-74129870D01*
X153597034Y-74129870D01*
X153271336Y-74129870D01*
X153271336Y-74297299D01*
X153267306Y-74297299D01*
X153223668Y-74238257D01*
X153168594Y-74188077D01*
X153125523Y-74159546D01*
X153054734Y-74127174D01*
X152979206Y-74109743D01*
X152926221Y-74106423D01*
X152847374Y-74113353D01*
X152767920Y-74138953D01*
X152701966Y-74183417D01*
X152649510Y-74246744D01*
X152620307Y-74303527D01*
X152571114Y-74236543D01*
X152513935Y-74183417D01*
X152448771Y-74144150D01*
X152375621Y-74118742D01*
X152294486Y-74107193D01*
X152265666Y-74106423D01*
X152185037Y-74113041D01*
X152099369Y-74139924D01*
X152030499Y-74187487D01*
X151978426Y-74255729D01*
X151948862Y-74325213D01*
X151930049Y-74407931D01*
X151921986Y-74503884D01*
X151921650Y-74529940D01*
X151724894Y-74529940D01*
X151721725Y-74509717D01*
X151697893Y-74429282D01*
X151663061Y-74356806D01*
X151617230Y-74292290D01*
X151580565Y-74253702D01*
X151517899Y-74203650D01*
X151447506Y-74163954D01*
X151369384Y-74134613D01*
X151283535Y-74115628D01*
X151206090Y-74107718D01*
X151157048Y-74106423D01*
X151077723Y-74110019D01*
X151003926Y-74120806D01*
X150922666Y-74143243D01*
X150849366Y-74176035D01*
X150784026Y-74219183D01*
X150744888Y-74253702D01*
X150694089Y-74312267D01*
X150653801Y-74377504D01*
X150624022Y-74449413D01*
X150604754Y-74527994D01*
X150595995Y-74613247D01*
X150595411Y-74643147D01*
X150390614Y-74643147D01*
X150390614Y-74129870D01*
X150064916Y-74129870D01*
X150064916Y-74299497D01*
X150060886Y-74299497D01*
X150013462Y-74233882D01*
X149958567Y-74181843D01*
X149885082Y-74138288D01*
X149814001Y-74115662D01*
X149735451Y-74106612D01*
X149721632Y-74106423D01*
X149639544Y-74113201D01*
X149568401Y-74133534D01*
X149494863Y-74178013D01*
X149438427Y-74243672D01*
X149405592Y-74311450D01*
X149383701Y-74392783D01*
X149372756Y-74487671D01*
X149371388Y-74540198D01*
X148440712Y-74540198D01*
X148659542Y-73707819D01*
X148295743Y-73707819D01*
X148087648Y-74691507D01*
X148076016Y-74765238D01*
X148069397Y-74840925D01*
X148068230Y-74860401D01*
X148062002Y-74860401D01*
X148053212Y-74782992D01*
X148038040Y-74710695D01*
X148031960Y-74687477D01*
X147764148Y-73707819D01*
X147407676Y-73707819D01*
X147165509Y-74699933D01*
X147151302Y-74776994D01*
X147142340Y-74852114D01*
X147141695Y-74858569D01*
X147137665Y-74858569D01*
X147130909Y-74781836D01*
X147119228Y-74709348D01*
X147116050Y-74693705D01*
X146911985Y-73707819D01*
X146576029Y-73707819D01*
X144355861Y-73707819D01*
X144355861Y-73614030D01*
X144030163Y-73614030D01*
X144030163Y-74288872D01*
X144026133Y-74288872D01*
X143978220Y-74226868D01*
X143914767Y-74170744D01*
X143843180Y-74132080D01*
X143763459Y-74110877D01*
X143701535Y-74106423D01*
X143617471Y-74113172D01*
X143544616Y-74133420D01*
X143469310Y-74177711D01*
X143411516Y-74243093D01*
X143377891Y-74310584D01*
X143355474Y-74391573D01*
X143344265Y-74486061D01*
X143342864Y-74538367D01*
X142815800Y-74538367D01*
X142807240Y-74536901D01*
X142520743Y-74498799D01*
X142532466Y-74424107D01*
X142580094Y-74360751D01*
X142654282Y-74332242D01*
X142708321Y-74328073D01*
X142789974Y-74333175D01*
X142869838Y-74348480D01*
X142947914Y-74373987D01*
X143024202Y-74409698D01*
X143066992Y-74434685D01*
X143066992Y-74193618D01*
X142997829Y-74165027D01*
X142923366Y-74142977D01*
X142880879Y-74132801D01*
X142802286Y-74117783D01*
X142728715Y-74108999D01*
X142666189Y-74106423D01*
X142585526Y-74110371D01*
X142512797Y-74122214D01*
X142428167Y-74150287D01*
X142357642Y-74192396D01*
X142301222Y-74248541D01*
X142258907Y-74318723D01*
X142230697Y-74402941D01*
X142218796Y-74475315D01*
X142214829Y-74555586D01*
X142069748Y-74555586D01*
X142069748Y-74505027D01*
X141934926Y-74411238D01*
X141934926Y-73614030D01*
X141610327Y-73614030D01*
X141610327Y-74223660D01*
X141471109Y-74129870D01*
X141076217Y-74129870D01*
X141012963Y-74117783D01*
X140939391Y-74108999D01*
X140876866Y-74106423D01*
X140796203Y-74110371D01*
X140723474Y-74122214D01*
X140638844Y-74150287D01*
X140568319Y-74192396D01*
X140511899Y-74248541D01*
X140469584Y-74318723D01*
X140441374Y-74402941D01*
X140429472Y-74475315D01*
X140425505Y-74555586D01*
X140258838Y-74555586D01*
X140258838Y-71598879D01*
X140653018Y-71598879D01*
X140653018Y-71900031D01*
X140725223Y-71873962D01*
X140790038Y-71867791D01*
X140863179Y-71878816D01*
X140927648Y-71915644D01*
X140956001Y-71946193D01*
X140992391Y-72012654D01*
X141010995Y-72087516D01*
X141015718Y-72158684D01*
X141015718Y-72665000D01*
X141341416Y-72665000D01*
X141341416Y-72094937D01*
X141528995Y-72094937D01*
X141528995Y-72231957D01*
X142217393Y-72231957D01*
X142202195Y-72308653D01*
X142161673Y-72378076D01*
X142096607Y-72425901D01*
X142021302Y-72449703D01*
X141944774Y-72457417D01*
X141927965Y-72457637D01*
X141853846Y-72454096D01*
X141774076Y-72441376D01*
X141699573Y-72419406D01*
X141630335Y-72388185D01*
X141622051Y-72383632D01*
X141622051Y-72612243D01*
X141690195Y-72641936D01*
X141766718Y-72664335D01*
X141838979Y-72677731D01*
X141917397Y-72685768D01*
X142001971Y-72688447D01*
X142079084Y-72685003D01*
X142164230Y-72671780D01*
X142186814Y-72665000D01*
X142747889Y-72665000D01*
X143073586Y-72665000D01*
X143344330Y-72665000D01*
X143670027Y-72665000D01*
X143670027Y-72123147D01*
X143874825Y-72123147D01*
X143875122Y-72129375D01*
X143878591Y-72202217D01*
X143889887Y-72275939D01*
X143913385Y-72357345D01*
X143947727Y-72431049D01*
X143992915Y-72497050D01*
X144029064Y-72536772D01*
X144090772Y-72588318D01*
X144160492Y-72629199D01*
X144238223Y-72659415D01*
X144323965Y-72678967D01*
X144401536Y-72687114D01*
X144450750Y-72688447D01*
X144530427Y-72684851D01*
X144604594Y-72674064D01*
X144686322Y-72651627D01*
X144760116Y-72618835D01*
X144825975Y-72575687D01*
X144865474Y-72541168D01*
X144916771Y-72482242D01*
X144957454Y-72415923D01*
X144987525Y-72342211D01*
X145006982Y-72261106D01*
X145015089Y-72187871D01*
X145016416Y-72141465D01*
X145012597Y-72062827D01*
X145001139Y-71989717D01*
X144977307Y-71909282D01*
X144942475Y-71836806D01*
X144896644Y-71772290D01*
X144859979Y-71733702D01*
X144797313Y-71683650D01*
X144726920Y-71643954D01*
X144648798Y-71614613D01*
X144577650Y-71598879D01*
X145091887Y-71598879D01*
X145091887Y-71900031D01*
X145164092Y-71873962D01*
X145228907Y-71867791D01*
X145302049Y-71878816D01*
X145366518Y-71915644D01*
X145394870Y-71946193D01*
X145431261Y-72012654D01*
X145449864Y-72087516D01*
X145454588Y-72158684D01*
X145454588Y-72665000D01*
X145780286Y-72665000D01*
X145780286Y-71609870D01*
X145958705Y-71609870D01*
X145958705Y-71849839D01*
X146195743Y-71849839D01*
X146195743Y-72274822D01*
X146185397Y-72354162D01*
X146144652Y-72415872D01*
X146072997Y-72438792D01*
X146064951Y-72438953D01*
X145992536Y-72423887D01*
X145958705Y-72407079D01*
X145958705Y-72648147D01*
X146029439Y-72674239D01*
X146108182Y-72685928D01*
X146176325Y-72688447D01*
X146256954Y-72682877D01*
X146342622Y-72660249D01*
X146411493Y-72620216D01*
X146463565Y-72562776D01*
X146498840Y-72487931D01*
X146514966Y-72415523D01*
X146520341Y-72331974D01*
X146520341Y-72020198D01*
X146847871Y-72020198D01*
X146847871Y-72665000D01*
X147172470Y-72665000D01*
X147172470Y-72080282D01*
X147178626Y-71997236D01*
X147201372Y-71922065D01*
X147247889Y-71864792D01*
X147316296Y-71838065D01*
X147347592Y-71835917D01*
X147420332Y-71850166D01*
X147479870Y-71892911D01*
X147486810Y-71900764D01*
X147524127Y-71963916D01*
X147540546Y-72040532D01*
X147541399Y-72064895D01*
X147541399Y-72665000D01*
X147867096Y-72665000D01*
X147867096Y-72123147D01*
X148071894Y-72123147D01*
X148072191Y-72129375D01*
X148075660Y-72202217D01*
X148086957Y-72275939D01*
X148110454Y-72357345D01*
X148144796Y-72431049D01*
X148189984Y-72497050D01*
X148226133Y-72536772D01*
X148287842Y-72588318D01*
X148357561Y-72629199D01*
X148435292Y-72659415D01*
X148521034Y-72678967D01*
X148598605Y-72687114D01*
X148647819Y-72688447D01*
X148727496Y-72684851D01*
X148801663Y-72674064D01*
X148883391Y-72651627D01*
X148957185Y-72618835D01*
X149023044Y-72575687D01*
X149062543Y-72541168D01*
X149113840Y-72482242D01*
X149154523Y-72415923D01*
X149184594Y-72342211D01*
X149204051Y-72261106D01*
X149212159Y-72187871D01*
X149213485Y-72141465D01*
X149209666Y-72062827D01*
X149198208Y-71989717D01*
X149174376Y-71909282D01*
X149139544Y-71836806D01*
X149093713Y-71772290D01*
X149057048Y-71733702D01*
X148994382Y-71683650D01*
X148923989Y-71643954D01*
X148845867Y-71614613D01*
X148760018Y-71595628D01*
X148682573Y-71587718D01*
X148633531Y-71586423D01*
X148554206Y-71590019D01*
X148480409Y-71600806D01*
X148399149Y-71623243D01*
X148325849Y-71656035D01*
X148260509Y-71699183D01*
X148221371Y-71733702D01*
X148170572Y-71792267D01*
X148130283Y-71857504D01*
X148100505Y-71929413D01*
X148081236Y-72007994D01*
X148072478Y-72093247D01*
X148071894Y-72123147D01*
X147867096Y-72123147D01*
X147867096Y-71609870D01*
X147541399Y-71609870D01*
X147541399Y-71779497D01*
X147537369Y-71779497D01*
X147489945Y-71713882D01*
X147435050Y-71661843D01*
X147361565Y-71618288D01*
X147290484Y-71595662D01*
X147211933Y-71586612D01*
X147198115Y-71586423D01*
X147116027Y-71593201D01*
X147044883Y-71613534D01*
X146971346Y-71658013D01*
X146914910Y-71723672D01*
X146882075Y-71791450D01*
X146860184Y-71872783D01*
X146849239Y-71967671D01*
X146847871Y-72020198D01*
X146520341Y-72020198D01*
X146520341Y-71849839D01*
X146691434Y-71849839D01*
X146691434Y-71609870D01*
X146520341Y-71609870D01*
X146520341Y-71376496D01*
X146195743Y-71281608D01*
X146195743Y-71609870D01*
X145958705Y-71609870D01*
X145780286Y-71609870D01*
X145454588Y-71609870D01*
X145454588Y-71801845D01*
X145450558Y-71801845D01*
X145417216Y-71728635D01*
X145367312Y-71662368D01*
X145305558Y-71616717D01*
X145231952Y-71591682D01*
X145172121Y-71586423D01*
X145097510Y-71596653D01*
X145091887Y-71598879D01*
X144577650Y-71598879D01*
X144562949Y-71595628D01*
X144485504Y-71587718D01*
X144436461Y-71586423D01*
X144357137Y-71590019D01*
X144283340Y-71600806D01*
X144202080Y-71623243D01*
X144128780Y-71656035D01*
X144063440Y-71699183D01*
X144024302Y-71733702D01*
X143973503Y-71792267D01*
X143933214Y-71857504D01*
X143903436Y-71929413D01*
X143884167Y-72007994D01*
X143875409Y-72093247D01*
X143874825Y-72123147D01*
X143670027Y-72123147D01*
X143670027Y-71218960D01*
X149369556Y-71218960D01*
X149369556Y-71539528D01*
X149436453Y-71504982D01*
X149507311Y-71478921D01*
X149582131Y-71461345D01*
X149660913Y-71452254D01*
X149707711Y-71450868D01*
X149782925Y-71455454D01*
X149863546Y-71472394D01*
X149936488Y-71501816D01*
X150001751Y-71543720D01*
X150043667Y-71581294D01*
X150093488Y-71642630D01*
X150131072Y-71712837D01*
X150156419Y-71791915D01*
X150168406Y-71866757D01*
X150171528Y-71934103D01*
X150167290Y-72011022D01*
X150151635Y-72093078D01*
X150124444Y-72166859D01*
X150085718Y-72232365D01*
X150050994Y-72274089D01*
X149994263Y-72323481D01*
X149929538Y-72360743D01*
X149856819Y-72385872D01*
X149776106Y-72398870D01*
X149726395Y-72400851D01*
X149642702Y-72396661D01*
X149562164Y-72384091D01*
X149484782Y-72363141D01*
X149410555Y-72333812D01*
X149369556Y-72313290D01*
X149369556Y-72611510D01*
X149445118Y-72641489D01*
X149517392Y-72661324D01*
X149596595Y-72675749D01*
X149682728Y-72684765D01*
X149759799Y-72688146D01*
X149791974Y-72688447D01*
X149874790Y-72685333D01*
X149953060Y-72675990D01*
X150026785Y-72660420D01*
X150112550Y-72632198D01*
X150191213Y-72594245D01*
X150262774Y-72546561D01*
X150327233Y-72489145D01*
X150383277Y-72423625D01*
X150429822Y-72351629D01*
X150466868Y-72273158D01*
X150494415Y-72188211D01*
X150509613Y-72115590D01*
X150510543Y-72107759D01*
X151243876Y-72107759D01*
X151244037Y-72111789D01*
X151247060Y-72187317D01*
X151256613Y-72261811D01*
X151276482Y-72344522D01*
X151305522Y-72419943D01*
X151343733Y-72488074D01*
X151374302Y-72529445D01*
X151426114Y-72583481D01*
X151494244Y-72632392D01*
X151570650Y-72666087D01*
X151642726Y-72682857D01*
X151720882Y-72688447D01*
X151799900Y-72681329D01*
X151870257Y-72659976D01*
X151940061Y-72618142D01*
X151991861Y-72566285D01*
X152011409Y-72539703D01*
X152015439Y-72539703D01*
X152015439Y-73157393D01*
X152341137Y-73157393D01*
X152341137Y-72009940D01*
X152588433Y-72009940D01*
X152588433Y-72665000D01*
X152913032Y-72665000D01*
X152913032Y-72064895D01*
X152918969Y-71987078D01*
X152940906Y-71916641D01*
X152992860Y-71858278D01*
X153071535Y-71836141D01*
X153081926Y-71835917D01*
X153154740Y-71853136D01*
X153212718Y-71904794D01*
X153247279Y-71971512D01*
X153262042Y-72045018D01*
X153263276Y-72076252D01*
X153263276Y-72665000D01*
X153588974Y-72665000D01*
X153588974Y-72059033D01*
X153594808Y-71983208D01*
X153620740Y-71906512D01*
X153674710Y-71853566D01*
X153754937Y-71835917D01*
X153829858Y-71852404D01*
X153888293Y-71901863D01*
X153922354Y-71968291D01*
X153936902Y-72046173D01*
X153938119Y-72080282D01*
X153938119Y-72665000D01*
X154263817Y-72665000D01*
X154263817Y-72035586D01*
X154515875Y-72035586D01*
X154515875Y-72235987D01*
X154515875Y-72665000D01*
X154823988Y-72665000D01*
X154823988Y-72511493D01*
X154828018Y-72511493D01*
X154871440Y-72571630D01*
X154931151Y-72626064D01*
X155000610Y-72663563D01*
X155079815Y-72684127D01*
X155142358Y-72688447D01*
X155223547Y-72681579D01*
X155294419Y-72660974D01*
X155361066Y-72621969D01*
X155384159Y-72601618D01*
X155430527Y-72541698D01*
X155459721Y-72470472D01*
X155471313Y-72396701D01*
X155471363Y-72394989D01*
X155554518Y-72394989D01*
X155554518Y-72665000D01*
X156434525Y-72665000D01*
X156434525Y-71187819D01*
X157182641Y-71187819D01*
X157691521Y-72665000D01*
X158068876Y-72665000D01*
X158287041Y-72023862D01*
X158726500Y-72023862D01*
X158728923Y-72104339D01*
X158736191Y-72179624D01*
X158756180Y-72282816D01*
X158787072Y-72374327D01*
X158828866Y-72454155D01*
X158881564Y-72522301D01*
X158945164Y-72578764D01*
X159019667Y-72623546D01*
X159105073Y-72656645D01*
X159201382Y-72678063D01*
X159308594Y-72687798D01*
X159346755Y-72688447D01*
X159454327Y-72682744D01*
X159551319Y-72665636D01*
X159637730Y-72637123D01*
X159713560Y-72597205D01*
X159778809Y-72545881D01*
X159833477Y-72483153D01*
X159877564Y-72409019D01*
X159911070Y-72323479D01*
X159933995Y-72226535D01*
X159946340Y-72118185D01*
X159948691Y-72039616D01*
X159948691Y-71187819D01*
X159614567Y-71187819D01*
X159614567Y-72043279D01*
X159610188Y-72127085D01*
X159597050Y-72199717D01*
X159568312Y-72274793D01*
X159515761Y-72341838D01*
X159443504Y-72383741D01*
X159368237Y-72399454D01*
X159334298Y-72400851D01*
X159255034Y-72392416D01*
X159177651Y-72360027D01*
X159119614Y-72303347D01*
X159086028Y-72237557D01*
X159065876Y-72154898D01*
X159059427Y-72076625D01*
X159059159Y-72055369D01*
X159059159Y-71187819D01*
X158726500Y-71187819D01*
X158726500Y-72023862D01*
X158287041Y-72023862D01*
X158571528Y-71187819D01*
X158212857Y-71187819D01*
X157904745Y-72215837D01*
X157885999Y-72289800D01*
X157875069Y-72363115D01*
X157868841Y-72363115D01*
X157856196Y-72286108D01*
X157836967Y-72211807D01*
X157531053Y-71187819D01*
X157182641Y-71187819D01*
X156434525Y-71187819D01*
X156101500Y-71187819D01*
X156101500Y-72394989D01*
X155554518Y-72394989D01*
X155471363Y-72394989D01*
X155472086Y-72370076D01*
X155463204Y-72280793D01*
X155436559Y-72204139D01*
X155392150Y-72140115D01*
X155329977Y-72088720D01*
X155250040Y-72049955D01*
X155173301Y-72028036D01*
X155108286Y-72016901D01*
X154821789Y-71978799D01*
X154833513Y-71904107D01*
X154881140Y-71840751D01*
X154955329Y-71812242D01*
X155009368Y-71808073D01*
X155091020Y-71813175D01*
X155170885Y-71828480D01*
X155248961Y-71853987D01*
X155325248Y-71889698D01*
X155368039Y-71914685D01*
X155368039Y-71673618D01*
X155298876Y-71645027D01*
X155224412Y-71622977D01*
X155181926Y-71612801D01*
X155103333Y-71597783D01*
X155029761Y-71588999D01*
X154967236Y-71586423D01*
X154886573Y-71590371D01*
X154813844Y-71602214D01*
X154729214Y-71630287D01*
X154658689Y-71672396D01*
X154602269Y-71728541D01*
X154559953Y-71798723D01*
X154531743Y-71882941D01*
X154519842Y-71955315D01*
X154515875Y-72035586D01*
X154263817Y-72035586D01*
X154263817Y-71609870D01*
X153938119Y-71609870D01*
X153938119Y-71777299D01*
X153934089Y-71777299D01*
X153890451Y-71718257D01*
X153835377Y-71668077D01*
X153792306Y-71639546D01*
X153721517Y-71607174D01*
X153645989Y-71589743D01*
X153593004Y-71586423D01*
X153514157Y-71593353D01*
X153434703Y-71618953D01*
X153368749Y-71663417D01*
X153316293Y-71726744D01*
X153287090Y-71783527D01*
X153237897Y-71716543D01*
X153180718Y-71663417D01*
X153115554Y-71624150D01*
X153042404Y-71598742D01*
X152961269Y-71587193D01*
X152932449Y-71586423D01*
X152851820Y-71593041D01*
X152766152Y-71619924D01*
X152697282Y-71667487D01*
X152645209Y-71735729D01*
X152615645Y-71805213D01*
X152596832Y-71887931D01*
X152588769Y-71983884D01*
X152588433Y-72009940D01*
X152341137Y-72009940D01*
X152341137Y-71609870D01*
X152015439Y-71609870D01*
X152015439Y-71771071D01*
X152011409Y-71771071D01*
X151962770Y-71708319D01*
X151907253Y-71658551D01*
X151833790Y-71616897D01*
X151763371Y-71595259D01*
X151686074Y-71586603D01*
X151672522Y-71586423D01*
X151598870Y-71591356D01*
X151521245Y-71609581D01*
X151452561Y-71641235D01*
X151392817Y-71686317D01*
X151355617Y-71726741D01*
X151312077Y-71792808D01*
X151279232Y-71868552D01*
X151259590Y-71941178D01*
X151247804Y-72020914D01*
X151243876Y-72107759D01*
X150510543Y-72107759D01*
X150518732Y-72038826D01*
X150521772Y-71957916D01*
X150518349Y-71871620D01*
X150508079Y-71789503D01*
X150490963Y-71711565D01*
X150467001Y-71637806D01*
X150436192Y-71568225D01*
X150398536Y-71502823D01*
X150354034Y-71441600D01*
X150302686Y-71384556D01*
X150245883Y-71332951D01*
X150185015Y-71288225D01*
X150120082Y-71250381D01*
X150051086Y-71219418D01*
X149978024Y-71195335D01*
X149900899Y-71178133D01*
X149819709Y-71167812D01*
X149734455Y-71164371D01*
X149655655Y-71166291D01*
X149581647Y-71172048D01*
X149501359Y-71183616D01*
X149427594Y-71200408D01*
X149369556Y-71218960D01*
X143670027Y-71218960D01*
X143670027Y-71094030D01*
X143344330Y-71094030D01*
X143344330Y-72665000D01*
X143073586Y-72665000D01*
X143073586Y-71094030D01*
X142747889Y-71094030D01*
X142747889Y-72665000D01*
X142186814Y-72665000D01*
X142241312Y-72648639D01*
X142310332Y-72615580D01*
X142371289Y-72572604D01*
X142398743Y-72547397D01*
X142446678Y-72490587D01*
X142484696Y-72425947D01*
X142512796Y-72353475D01*
X142530978Y-72273173D01*
X142538554Y-72200272D01*
X142539794Y-72153921D01*
X142536073Y-72074833D01*
X142524910Y-72001057D01*
X142501692Y-71919540D01*
X142467757Y-71845673D01*
X142423107Y-71779457D01*
X142387386Y-71739563D01*
X142327760Y-71687520D01*
X142263189Y-71646244D01*
X142193671Y-71615735D01*
X142119207Y-71595994D01*
X142039798Y-71587021D01*
X142012229Y-71586423D01*
X141929359Y-71591240D01*
X141853857Y-71605692D01*
X141775082Y-71634728D01*
X141706335Y-71676878D01*
X141655390Y-71723443D01*
X141606140Y-71788053D01*
X141568987Y-71861989D01*
X141546769Y-71932786D01*
X141533438Y-72010435D01*
X141532308Y-72031922D01*
X141528995Y-72094937D01*
X141341416Y-72094937D01*
X141341416Y-71609870D01*
X141015718Y-71609870D01*
X141015718Y-71801845D01*
X141011688Y-71801845D01*
X140978346Y-71728635D01*
X140928443Y-71662368D01*
X140866688Y-71616717D01*
X140793083Y-71591682D01*
X140733251Y-71586423D01*
X140658641Y-71596653D01*
X140653018Y-71598879D01*
X140258838Y-71598879D01*
X140258838Y-70927363D01*
X160262636Y-70927363D01*
X160262636Y-82935114D01*
G37*
D11*
G36*
X176695372Y-114263713D02*
G01*
X176776946Y-114275813D01*
X176856941Y-114295851D01*
X176934587Y-114323633D01*
X177009135Y-114358892D01*
X177079869Y-114401288D01*
X177146107Y-114450413D01*
X177207211Y-114505794D01*
X177262592Y-114566898D01*
X177311717Y-114633136D01*
X177354113Y-114703869D01*
X177389372Y-114778418D01*
X177417154Y-114856064D01*
X177437192Y-114936059D01*
X177449292Y-115017633D01*
X177453339Y-115100000D01*
X177449292Y-115182367D01*
X177437192Y-115263941D01*
X177417154Y-115343936D01*
X177389372Y-115421582D01*
X177354113Y-115496131D01*
X177311717Y-115566864D01*
X177262592Y-115633102D01*
X177207211Y-115694206D01*
X177146107Y-115749587D01*
X177079869Y-115798712D01*
X177009135Y-115841108D01*
X176934587Y-115876367D01*
X176856941Y-115904149D01*
X176776946Y-115924187D01*
X176695372Y-115936287D01*
X176613005Y-115940334D01*
X176209128Y-115940334D01*
X175774556Y-115940334D01*
X175343215Y-115940334D01*
X173890872Y-115940334D01*
X173486995Y-115940334D01*
X173404628Y-115936287D01*
X173323054Y-115924187D01*
X173243059Y-115904149D01*
X173165413Y-115876367D01*
X173090865Y-115841108D01*
X173020131Y-115798712D01*
X172953893Y-115749587D01*
X172892789Y-115694206D01*
X172837408Y-115633102D01*
X172788283Y-115566864D01*
X172745887Y-115496131D01*
X172740764Y-115485299D01*
X173890872Y-115485299D01*
X173890872Y-115650081D01*
X174543538Y-115650081D01*
X174547577Y-115609693D01*
X174546769Y-115575767D01*
X174539297Y-115498223D01*
X174516882Y-115427141D01*
X174482956Y-115361914D01*
X174440953Y-115301939D01*
X174393296Y-115246607D01*
X174368854Y-115221971D01*
X174732552Y-115221971D01*
X174732552Y-115650081D01*
X174931260Y-115650081D01*
X174931260Y-115247819D01*
X174937318Y-115156139D01*
X174955493Y-115094346D01*
X175047577Y-115047496D01*
X175101696Y-115053958D01*
X175144507Y-115065267D01*
X175144507Y-115650081D01*
X175343215Y-115650081D01*
X175343215Y-115601616D01*
X175495073Y-115601616D01*
X175608966Y-115649273D01*
X175686309Y-115665630D01*
X175774556Y-115671082D01*
X175904514Y-115656004D01*
X176012215Y-115610770D01*
X176097657Y-115535380D01*
X176146426Y-115460359D01*
X176181260Y-115371002D01*
X176202161Y-115267306D01*
X176209128Y-115149273D01*
X176200646Y-115031745D01*
X176175202Y-114927948D01*
X176134612Y-114838489D01*
X176080695Y-114763974D01*
X176014459Y-114705008D01*
X175936914Y-114662197D01*
X175849879Y-114636147D01*
X175755170Y-114627464D01*
X175659047Y-114636349D01*
X175583926Y-114656543D01*
X175529806Y-114680775D01*
X175496688Y-114700162D01*
X175548384Y-114858481D01*
X175638045Y-114817286D01*
X175758401Y-114800323D01*
X175849677Y-114817286D01*
X175928837Y-114873829D01*
X175985380Y-114979645D01*
X176001737Y-115053958D01*
X176007189Y-115144426D01*
X176000637Y-115249704D01*
X175980982Y-115337211D01*
X175948223Y-115406947D01*
X175870477Y-115475404D01*
X175755170Y-115498223D01*
X175626737Y-115480452D01*
X175545153Y-115444911D01*
X175495073Y-115601616D01*
X175343215Y-115601616D01*
X175343215Y-114562843D01*
X175144507Y-114528918D01*
X175144507Y-114897254D01*
X175086349Y-114881906D01*
X175026575Y-114874637D01*
X174949435Y-114880897D01*
X174886026Y-114899677D01*
X174795557Y-114970759D01*
X174747092Y-115080614D01*
X174736187Y-115147859D01*
X174732552Y-115221971D01*
X174368854Y-115221971D01*
X174342407Y-115195315D01*
X174291519Y-115147052D01*
X174243861Y-115100808D01*
X174167932Y-115013570D01*
X174138045Y-114927948D01*
X174175202Y-114833441D01*
X174268901Y-114800323D01*
X174367447Y-114822940D01*
X174469225Y-114898869D01*
X174567771Y-114759935D01*
X174498102Y-114700969D01*
X174418336Y-114659774D01*
X174333724Y-114635541D01*
X174249515Y-114627464D01*
X174131583Y-114645234D01*
X174031422Y-114698546D01*
X173961955Y-114788207D01*
X173936107Y-114913409D01*
X173955493Y-115012763D01*
X174007189Y-115105654D01*
X174079887Y-115192892D01*
X174162278Y-115273667D01*
X174210743Y-115319709D01*
X174262439Y-115374637D01*
X174303635Y-115431987D01*
X174320598Y-115485299D01*
X173890872Y-115485299D01*
X172740764Y-115485299D01*
X172710628Y-115421582D01*
X172682846Y-115343936D01*
X172662808Y-115263941D01*
X172650708Y-115182367D01*
X172646661Y-115100000D01*
X172650708Y-115017633D01*
X172662808Y-114936059D01*
X172682846Y-114856064D01*
X172710628Y-114778418D01*
X172745887Y-114703869D01*
X172788283Y-114633136D01*
X172837408Y-114566898D01*
X172892789Y-114505794D01*
X172953893Y-114450413D01*
X173020131Y-114401288D01*
X173090865Y-114358892D01*
X173165413Y-114323633D01*
X173243059Y-114295851D01*
X173323054Y-114275813D01*
X173404628Y-114263713D01*
X173486995Y-114259666D01*
X173890872Y-114259666D01*
X176209128Y-114259666D01*
X176613005Y-114259666D01*
X176695372Y-114263713D01*
G37*
G36*
X176692949Y-109763713D02*
G01*
X176774523Y-109775813D01*
X176854518Y-109795851D01*
X176932163Y-109823633D01*
X177006712Y-109858892D01*
X177077446Y-109901288D01*
X177143684Y-109950413D01*
X177204787Y-110005794D01*
X177260168Y-110066898D01*
X177309294Y-110133136D01*
X177351690Y-110203869D01*
X177386949Y-110278418D01*
X177414731Y-110356064D01*
X177434769Y-110436059D01*
X177446869Y-110517633D01*
X177450915Y-110600000D01*
X177446869Y-110682367D01*
X177434769Y-110763941D01*
X177414731Y-110843936D01*
X177386949Y-110921582D01*
X177351690Y-110996131D01*
X177309294Y-111066864D01*
X177260168Y-111133102D01*
X177204787Y-111194206D01*
X177143684Y-111249587D01*
X177077446Y-111298712D01*
X177006712Y-111341108D01*
X176932163Y-111376367D01*
X176854518Y-111404149D01*
X176774523Y-111424187D01*
X176692949Y-111436287D01*
X176610582Y-111440334D01*
X176206704Y-111440334D01*
X175772132Y-111440334D01*
X175340792Y-111440334D01*
X173893296Y-111440334D01*
X173489418Y-111440334D01*
X173407051Y-111436287D01*
X173325477Y-111424187D01*
X173245482Y-111404149D01*
X173167837Y-111376367D01*
X173093288Y-111341108D01*
X173022554Y-111298712D01*
X172956316Y-111249587D01*
X172895213Y-111194206D01*
X172839832Y-111133102D01*
X172790706Y-111066864D01*
X172748310Y-110996131D01*
X172743187Y-110985299D01*
X173893296Y-110985299D01*
X173893296Y-111150081D01*
X174500727Y-111150081D01*
X174500727Y-110985299D01*
X174290711Y-110985299D01*
X174290711Y-110721971D01*
X174730129Y-110721971D01*
X174730129Y-111150081D01*
X174928837Y-111150081D01*
X174928837Y-110747819D01*
X174934895Y-110656139D01*
X174953069Y-110594346D01*
X175045153Y-110547496D01*
X175099273Y-110553958D01*
X175142084Y-110565267D01*
X175142084Y-111150081D01*
X175340792Y-111150081D01*
X175340792Y-111101616D01*
X175492649Y-111101616D01*
X175606543Y-111149273D01*
X175683885Y-111165630D01*
X175772132Y-111171082D01*
X175902091Y-111156004D01*
X176009792Y-111110770D01*
X176095234Y-111035380D01*
X176144002Y-110960359D01*
X176178837Y-110871002D01*
X176199737Y-110767306D01*
X176206704Y-110649273D01*
X176198223Y-110531745D01*
X176172779Y-110427948D01*
X176132189Y-110338489D01*
X176078271Y-110263974D01*
X176012036Y-110205008D01*
X175934491Y-110162197D01*
X175847456Y-110136147D01*
X175752746Y-110127464D01*
X175656624Y-110136349D01*
X175581502Y-110156543D01*
X175527383Y-110180775D01*
X175494265Y-110200162D01*
X175545961Y-110358481D01*
X175635622Y-110317286D01*
X175755977Y-110300323D01*
X175847254Y-110317286D01*
X175926414Y-110373829D01*
X175982956Y-110479645D01*
X175999313Y-110553958D01*
X176004766Y-110644426D01*
X175998214Y-110749704D01*
X175978559Y-110837211D01*
X175945800Y-110906947D01*
X175868053Y-110975404D01*
X175752746Y-110998223D01*
X175624313Y-110980452D01*
X175542730Y-110944911D01*
X175492649Y-111101616D01*
X175340792Y-111101616D01*
X175340792Y-110062843D01*
X175142084Y-110028918D01*
X175142084Y-110397254D01*
X175083926Y-110381906D01*
X175024152Y-110374637D01*
X174947011Y-110380897D01*
X174883603Y-110399677D01*
X174793134Y-110470759D01*
X174744669Y-110580614D01*
X174733764Y-110647859D01*
X174730129Y-110721971D01*
X174290711Y-110721971D01*
X174290711Y-110426333D01*
X174394103Y-110483683D01*
X174492649Y-110523263D01*
X174557270Y-110358481D01*
X174473263Y-110321325D01*
X174382795Y-110271244D01*
X174297173Y-110213086D01*
X174227706Y-110150081D01*
X174092003Y-110150081D01*
X174092003Y-110985299D01*
X173893296Y-110985299D01*
X172743187Y-110985299D01*
X172713051Y-110921582D01*
X172685269Y-110843936D01*
X172665231Y-110763941D01*
X172653131Y-110682367D01*
X172649085Y-110600000D01*
X172653131Y-110517633D01*
X172665231Y-110436059D01*
X172685269Y-110356064D01*
X172713051Y-110278418D01*
X172748310Y-110203869D01*
X172790706Y-110133136D01*
X172839832Y-110066898D01*
X172895213Y-110005794D01*
X172956316Y-109950413D01*
X173022554Y-109901288D01*
X173093288Y-109858892D01*
X173167837Y-109823633D01*
X173245482Y-109795851D01*
X173325477Y-109775813D01*
X173407051Y-109763713D01*
X173489418Y-109759666D01*
X173893296Y-109759666D01*
X176206704Y-109759666D01*
X176610582Y-109759666D01*
X176692949Y-109763713D01*
G37*
G36*
X176699428Y-105062748D02*
G01*
X176776218Y-105074139D01*
X176851523Y-105093002D01*
X176924616Y-105119155D01*
X176994794Y-105152347D01*
X177061380Y-105192257D01*
X177123734Y-105238502D01*
X177181255Y-105290636D01*
X177233388Y-105348156D01*
X177279633Y-105410510D01*
X177319544Y-105477096D01*
X177352735Y-105547274D01*
X177378888Y-105620367D01*
X177397751Y-105695672D01*
X177409142Y-105772462D01*
X177412951Y-105850000D01*
X177409142Y-105927538D01*
X177397751Y-106004328D01*
X177378888Y-106079633D01*
X177352735Y-106152726D01*
X177319544Y-106222904D01*
X177279633Y-106289490D01*
X177233388Y-106351844D01*
X177181255Y-106409364D01*
X177123734Y-106461498D01*
X177061380Y-106507743D01*
X176994794Y-106547653D01*
X176924616Y-106580845D01*
X176851523Y-106606998D01*
X176776218Y-106625861D01*
X176699428Y-106637252D01*
X176621890Y-106641061D01*
X176218013Y-106641061D01*
X175809289Y-106641061D01*
X174880372Y-106641061D01*
X174345638Y-106641061D01*
X173881987Y-106641061D01*
X173478110Y-106641061D01*
X173400572Y-106637252D01*
X173323782Y-106625861D01*
X173248477Y-106606998D01*
X173175384Y-106580845D01*
X173105206Y-106547653D01*
X173038620Y-106507743D01*
X172976266Y-106461498D01*
X172918745Y-106409364D01*
X172866612Y-106351844D01*
X172820367Y-106289490D01*
X172780456Y-106222904D01*
X172747265Y-106152726D01*
X172721112Y-106079633D01*
X172702249Y-106004328D01*
X172690858Y-105927538D01*
X172687049Y-105850000D01*
X173881987Y-105850000D01*
X173890670Y-105978635D01*
X173916721Y-106086672D01*
X173958118Y-106175323D01*
X174012843Y-106245800D01*
X174080089Y-106298910D01*
X174159047Y-106335460D01*
X174248102Y-106356664D01*
X174345638Y-106363732D01*
X174449838Y-106358078D01*
X174492508Y-106350808D01*
X174720436Y-106350808D01*
X174880372Y-106350808D01*
X174926952Y-106239966D01*
X174976225Y-106129304D01*
X175028191Y-106018821D01*
X175082849Y-105908338D01*
X175140199Y-105797675D01*
X175200242Y-105686834D01*
X175200242Y-106350808D01*
X175379564Y-106350808D01*
X175379564Y-105400889D01*
X175512036Y-105400889D01*
X175563732Y-105559208D01*
X175650969Y-105518821D01*
X175757593Y-105501050D01*
X175877141Y-105526898D01*
X175957108Y-105598788D01*
X176002342Y-105708643D01*
X176012641Y-105775889D01*
X176016074Y-105850000D01*
X176009792Y-105959047D01*
X175990944Y-106047092D01*
X175959532Y-106114136D01*
X175889661Y-106177746D01*
X175793134Y-106198950D01*
X175754362Y-106197334D01*
X175715590Y-106192488D01*
X175715590Y-105827383D01*
X175516882Y-105827383D01*
X175516882Y-106326575D01*
X175627544Y-106355654D01*
X175710541Y-106367771D01*
X175809289Y-106371809D01*
X175898344Y-106363530D01*
X175978110Y-106338691D01*
X176047779Y-106297496D01*
X176106543Y-106240145D01*
X176153796Y-106166640D01*
X176188934Y-106076979D01*
X176210743Y-105971365D01*
X176218013Y-105850000D01*
X176209532Y-105729847D01*
X176184087Y-105624637D01*
X176144103Y-105534774D01*
X176092003Y-105460662D01*
X176028595Y-105402706D01*
X175954685Y-105361309D01*
X175872698Y-105336470D01*
X175785057Y-105328191D01*
X175680856Y-105337076D01*
X175600889Y-105357270D01*
X175545153Y-105381502D01*
X175512036Y-105400889D01*
X175379564Y-105400889D01*
X175379564Y-105350808D01*
X175219628Y-105350808D01*
X175174394Y-105424919D01*
X175129160Y-105505089D01*
X175084532Y-105588086D01*
X175041115Y-105670679D01*
X174999919Y-105751858D01*
X174961955Y-105830614D01*
X174928231Y-105903312D01*
X174899758Y-105966317D01*
X174899758Y-105350808D01*
X174720436Y-105350808D01*
X174720436Y-106350808D01*
X174492508Y-106350808D01*
X174558885Y-106339499D01*
X174558885Y-105363732D01*
X174431260Y-105344346D01*
X174319790Y-105339499D01*
X174225485Y-105346769D01*
X174139661Y-105368578D01*
X174064338Y-105405937D01*
X174001535Y-105459855D01*
X173951252Y-105530533D01*
X173913489Y-105618174D01*
X173889863Y-105724192D01*
X173881987Y-105850000D01*
X172687049Y-105850000D01*
X172690858Y-105772462D01*
X172702249Y-105695672D01*
X172721112Y-105620367D01*
X172747265Y-105547274D01*
X172780456Y-105477096D01*
X172820367Y-105410510D01*
X172866612Y-105348156D01*
X172918745Y-105290636D01*
X172976266Y-105238502D01*
X173038620Y-105192257D01*
X173105206Y-105152347D01*
X173175384Y-105119155D01*
X173248477Y-105093002D01*
X173323782Y-105074139D01*
X173400572Y-105062748D01*
X173478110Y-105058939D01*
X173881987Y-105058939D01*
X176218013Y-105058939D01*
X176621890Y-105058939D01*
X176699428Y-105062748D01*
G37*
G36*
X174331099Y-105513166D02*
G01*
X174360178Y-105517205D01*
X174360178Y-106189257D01*
X174342407Y-106190872D01*
X174324637Y-106190872D01*
X174210743Y-106165024D01*
X174136430Y-106093942D01*
X174096042Y-105986511D01*
X174086955Y-105921284D01*
X174083926Y-105850000D01*
X174093619Y-105723990D01*
X174127544Y-105615751D01*
X174193780Y-105540630D01*
X174302019Y-105512359D01*
X174331099Y-105513166D01*
G37*
G36*
X175840462Y-77162748D02*
G01*
X175917252Y-77174139D01*
X175992557Y-77193002D01*
X176065650Y-77219155D01*
X176135828Y-77252347D01*
X176202414Y-77292257D01*
X176264768Y-77338502D01*
X176322289Y-77390636D01*
X176374422Y-77448156D01*
X176420667Y-77510510D01*
X176460577Y-77577096D01*
X176493769Y-77647274D01*
X176519922Y-77720367D01*
X176538785Y-77795672D01*
X176550176Y-77872462D01*
X176553985Y-77950000D01*
X176550176Y-78027538D01*
X176538785Y-78104328D01*
X176519922Y-78179633D01*
X176493769Y-78252726D01*
X176460577Y-78322904D01*
X176420667Y-78389490D01*
X176374422Y-78451844D01*
X176322289Y-78509364D01*
X176264768Y-78561498D01*
X176202414Y-78607743D01*
X176135828Y-78647653D01*
X176065650Y-78680845D01*
X175992557Y-78706998D01*
X175917252Y-78725861D01*
X175840462Y-78737252D01*
X175762924Y-78741061D01*
X175224421Y-78741061D01*
X174815697Y-78741061D01*
X173886780Y-78741061D01*
X173352046Y-78741061D01*
X172888395Y-78741061D01*
X171946015Y-78741061D01*
X171946015Y-77950000D01*
X172888395Y-77950000D01*
X172897079Y-78078635D01*
X172923129Y-78186672D01*
X172964526Y-78275323D01*
X173019251Y-78345800D01*
X173086497Y-78398910D01*
X173165455Y-78435460D01*
X173254510Y-78456664D01*
X173352046Y-78463732D01*
X173456247Y-78458078D01*
X173498917Y-78450808D01*
X173726844Y-78450808D01*
X173886780Y-78450808D01*
X173933360Y-78339966D01*
X173982633Y-78229304D01*
X174034599Y-78118821D01*
X174089257Y-78008338D01*
X174146607Y-77897675D01*
X174206651Y-77786834D01*
X174206651Y-78450808D01*
X174385972Y-78450808D01*
X174385972Y-77500889D01*
X174518444Y-77500889D01*
X174570140Y-77659208D01*
X174657377Y-77618821D01*
X174764001Y-77601050D01*
X174883549Y-77626898D01*
X174963516Y-77698788D01*
X175008751Y-77808643D01*
X175019050Y-77875889D01*
X175022482Y-77950000D01*
X175016200Y-78059047D01*
X174997352Y-78147092D01*
X174965940Y-78214136D01*
X174896069Y-78277746D01*
X174799542Y-78298950D01*
X174760770Y-78297334D01*
X174721998Y-78292488D01*
X174721998Y-77927383D01*
X174523290Y-77927383D01*
X174523290Y-78426575D01*
X174633953Y-78455654D01*
X174716949Y-78467771D01*
X174815697Y-78471809D01*
X174904752Y-78463530D01*
X174984518Y-78438691D01*
X175054187Y-78397496D01*
X175112951Y-78340145D01*
X175160205Y-78266640D01*
X175195342Y-78176979D01*
X175217151Y-78071365D01*
X175224421Y-77950000D01*
X175215940Y-77829847D01*
X175190495Y-77724637D01*
X175150512Y-77634774D01*
X175098411Y-77560662D01*
X175035003Y-77502706D01*
X174961093Y-77461309D01*
X174879106Y-77436470D01*
X174791465Y-77428191D01*
X174687264Y-77437076D01*
X174607297Y-77457270D01*
X174551562Y-77481502D01*
X174518444Y-77500889D01*
X174385972Y-77500889D01*
X174385972Y-77450808D01*
X174226037Y-77450808D01*
X174180802Y-77524919D01*
X174135568Y-77605089D01*
X174090940Y-77688086D01*
X174047523Y-77770679D01*
X174006327Y-77851858D01*
X173968363Y-77930614D01*
X173934639Y-78003312D01*
X173906166Y-78066317D01*
X173906166Y-77450808D01*
X173726844Y-77450808D01*
X173726844Y-78450808D01*
X173498917Y-78450808D01*
X173565293Y-78439499D01*
X173565293Y-77463732D01*
X173437668Y-77444346D01*
X173326198Y-77439499D01*
X173231893Y-77446769D01*
X173146069Y-77468578D01*
X173070746Y-77505937D01*
X173007943Y-77559855D01*
X172957660Y-77630533D01*
X172919898Y-77718174D01*
X172896271Y-77824192D01*
X172888395Y-77950000D01*
X171946015Y-77950000D01*
X171946015Y-77158939D01*
X172888395Y-77158939D01*
X175224421Y-77158939D01*
X175762924Y-77158939D01*
X175840462Y-77162748D01*
G37*
G36*
X173337507Y-77613166D02*
G01*
X173366586Y-77617205D01*
X173366586Y-78289257D01*
X173348815Y-78290872D01*
X173331045Y-78290872D01*
X173217151Y-78265024D01*
X173142838Y-78193942D01*
X173102450Y-78086511D01*
X173093363Y-78021284D01*
X173090334Y-77950000D01*
X173100027Y-77823990D01*
X173133953Y-77715751D01*
X173200188Y-77640630D01*
X173308428Y-77612359D01*
X173337507Y-77613166D01*
G37*
G36*
X171772106Y-78741061D02*
G01*
X171368228Y-78741061D01*
X171090361Y-78741061D01*
X170221217Y-78741061D01*
X169474852Y-78741061D01*
X168710716Y-78741061D01*
X168222833Y-78741061D01*
X167818955Y-78741061D01*
X167741418Y-78737252D01*
X167664627Y-78725861D01*
X167589322Y-78706998D01*
X167516229Y-78680845D01*
X167446052Y-78647653D01*
X167379465Y-78607743D01*
X167317112Y-78561498D01*
X167259591Y-78509364D01*
X167207457Y-78451844D01*
X167161212Y-78389490D01*
X167121302Y-78322903D01*
X167088110Y-78252726D01*
X167061957Y-78179633D01*
X167043094Y-78104328D01*
X167031704Y-78027538D01*
X167027894Y-77950000D01*
X167031704Y-77872462D01*
X167043094Y-77795672D01*
X167061957Y-77720367D01*
X167088110Y-77647274D01*
X167121302Y-77577097D01*
X167161212Y-77510510D01*
X167205490Y-77450808D01*
X168222833Y-77450808D01*
X168244440Y-77553393D01*
X168270490Y-77667286D01*
X168300781Y-77789863D01*
X168335110Y-77918498D01*
X168360151Y-78006812D01*
X168386807Y-78096204D01*
X168415078Y-78186672D01*
X168444516Y-78276692D01*
X168474672Y-78364737D01*
X168505547Y-78450808D01*
X168710716Y-78450808D01*
X168750700Y-78332068D01*
X168793107Y-78198788D01*
X168806899Y-78153554D01*
X169090361Y-78153554D01*
X169112978Y-78281179D01*
X169182445Y-78382149D01*
X169235757Y-78420113D01*
X169301992Y-78448384D01*
X169381556Y-78465953D01*
X169474852Y-78471809D01*
X169553204Y-78466155D01*
X169632364Y-78452423D01*
X169702639Y-78434653D01*
X169752719Y-78416882D01*
X169730886Y-78323183D01*
X170077437Y-78323183D01*
X170121055Y-78431422D01*
X170221217Y-78468578D01*
X170276144Y-78458885D01*
X170322186Y-78430614D01*
X170354496Y-78385380D01*
X170366613Y-78323183D01*
X170354496Y-78262601D01*
X170322186Y-78218174D01*
X170276144Y-78190711D01*
X170221217Y-78181018D01*
X170121055Y-78218174D01*
X170077437Y-78323183D01*
X169730886Y-78323183D01*
X169713947Y-78250485D01*
X169617824Y-78284410D01*
X169553002Y-78297738D01*
X169476467Y-78302181D01*
X169389836Y-78291276D01*
X169333495Y-78258562D01*
X169293529Y-78153554D01*
X170705870Y-78153554D01*
X170728487Y-78281179D01*
X170797954Y-78382149D01*
X170851265Y-78420113D01*
X170917501Y-78448384D01*
X170997065Y-78465953D01*
X171090361Y-78471809D01*
X171168713Y-78466155D01*
X171247873Y-78452423D01*
X171318148Y-78434653D01*
X171368228Y-78416882D01*
X171329456Y-78250485D01*
X171233333Y-78284410D01*
X171168511Y-78297738D01*
X171091976Y-78302181D01*
X171005345Y-78291276D01*
X170949004Y-78258562D01*
X170907808Y-78150323D01*
X170923559Y-78083078D01*
X170970813Y-78039661D01*
X171042299Y-78016034D01*
X171130748Y-78008158D01*
X171192138Y-78008158D01*
X171192138Y-77843376D01*
X171117824Y-77843376D01*
X171056435Y-77836914D01*
X171001508Y-77815913D01*
X170961928Y-77777141D01*
X170946580Y-77715751D01*
X170979698Y-77629321D01*
X171070975Y-77597819D01*
X171183253Y-77616397D01*
X171279375Y-77662439D01*
X171350458Y-77517044D01*
X171234949Y-77458078D01*
X171158414Y-77435662D01*
X171072590Y-77428191D01*
X170994036Y-77433441D01*
X170926387Y-77449192D01*
X170823802Y-77508158D01*
X170764028Y-77597819D01*
X170744642Y-77709289D01*
X170778568Y-77823990D01*
X170869036Y-77907997D01*
X170800175Y-77947981D01*
X170748681Y-78003312D01*
X170716572Y-78072375D01*
X170705870Y-78153554D01*
X169293529Y-78153554D01*
X169292299Y-78150323D01*
X169308051Y-78083078D01*
X169355304Y-78039661D01*
X169426791Y-78016034D01*
X169515240Y-78008158D01*
X169576629Y-78008158D01*
X169576629Y-77843376D01*
X169502316Y-77843376D01*
X169440926Y-77836914D01*
X169385999Y-77815913D01*
X169346419Y-77777141D01*
X169331072Y-77715751D01*
X169364190Y-77629321D01*
X169455466Y-77597819D01*
X169567744Y-77616397D01*
X169663866Y-77662439D01*
X169734949Y-77517044D01*
X169619440Y-77458078D01*
X169542905Y-77435662D01*
X169457081Y-77428191D01*
X169378527Y-77433441D01*
X169310878Y-77449192D01*
X169208293Y-77508158D01*
X169148519Y-77597819D01*
X169129133Y-77709289D01*
X169163059Y-77823990D01*
X169253527Y-77907997D01*
X169184666Y-77947981D01*
X169133172Y-78003312D01*
X169101064Y-78072375D01*
X169090361Y-78153554D01*
X168806899Y-78153554D01*
X168821648Y-78105179D01*
X168849111Y-78011748D01*
X168875498Y-77918498D01*
X168900449Y-77827042D01*
X168923604Y-77738997D01*
X168944965Y-77654362D01*
X168971621Y-77541276D01*
X168990199Y-77450808D01*
X168780183Y-77450808D01*
X168768067Y-77534612D01*
X168751104Y-77630937D01*
X168730708Y-77735137D01*
X168708293Y-77842569D01*
X168684060Y-77950808D01*
X168658212Y-78057431D01*
X168631758Y-78157795D01*
X168605708Y-78247254D01*
X168579860Y-78159006D01*
X168554012Y-78059047D01*
X168528971Y-77952423D01*
X168505547Y-77844184D01*
X168483737Y-77736551D01*
X168463543Y-77631745D01*
X168445773Y-77534814D01*
X168431233Y-77450808D01*
X168222833Y-77450808D01*
X167205490Y-77450808D01*
X167207457Y-77448156D01*
X167259591Y-77390636D01*
X167317112Y-77338502D01*
X167379465Y-77292257D01*
X167446052Y-77252347D01*
X167516229Y-77219155D01*
X167589322Y-77193002D01*
X167664627Y-77174139D01*
X167741418Y-77162748D01*
X167818955Y-77158939D01*
X168222833Y-77158939D01*
X171368228Y-77158939D01*
X171772106Y-77158939D01*
X171772106Y-78741061D01*
G37*
G36*
X172875417Y-91281368D02*
G01*
X172471540Y-91281368D01*
X172258293Y-91281368D01*
X171663786Y-91281368D01*
X170369763Y-91281368D01*
X170209828Y-91281368D01*
X169805950Y-91281368D01*
X169729363Y-91277605D01*
X169653513Y-91266354D01*
X169579131Y-91247722D01*
X169506934Y-91221890D01*
X169437616Y-91189105D01*
X169371846Y-91149684D01*
X169310256Y-91104005D01*
X169253440Y-91052510D01*
X169205115Y-90999192D01*
X170209828Y-90999192D01*
X170369763Y-90999192D01*
X170416344Y-90888350D01*
X170465617Y-90777688D01*
X170517582Y-90667205D01*
X170572240Y-90556722D01*
X170629591Y-90446060D01*
X170689634Y-90335218D01*
X170689634Y-90999192D01*
X170868955Y-90999192D01*
X170868955Y-90163974D01*
X171028891Y-90163974D01*
X171245369Y-90163974D01*
X171245369Y-90834410D01*
X171028891Y-90834410D01*
X171028891Y-90999192D01*
X171663786Y-90999192D01*
X171663786Y-90834410D01*
X171445692Y-90834410D01*
X171445692Y-90498384D01*
X171794642Y-90498384D01*
X171803325Y-90627019D01*
X171829375Y-90735057D01*
X171870773Y-90823708D01*
X171925498Y-90894184D01*
X171992744Y-90947294D01*
X172071702Y-90983845D01*
X172160757Y-91005048D01*
X172258293Y-91012116D01*
X172362493Y-91006462D01*
X172471540Y-90987884D01*
X172471540Y-90012116D01*
X172343915Y-89992730D01*
X172232445Y-89987884D01*
X172138139Y-89995153D01*
X172052316Y-90016963D01*
X171976992Y-90054321D01*
X171914190Y-90108239D01*
X171863907Y-90178918D01*
X171826144Y-90266559D01*
X171802517Y-90372577D01*
X171794642Y-90498384D01*
X171445692Y-90498384D01*
X171445692Y-90163974D01*
X171663786Y-90163974D01*
X171663786Y-89999192D01*
X171028891Y-89999192D01*
X171028891Y-90163974D01*
X170868955Y-90163974D01*
X170868955Y-89999192D01*
X170709020Y-89999192D01*
X170663786Y-90073304D01*
X170618551Y-90153473D01*
X170573923Y-90236470D01*
X170530506Y-90319063D01*
X170489311Y-90400242D01*
X170451346Y-90478998D01*
X170417622Y-90551696D01*
X170389149Y-90614701D01*
X170389149Y-89999192D01*
X170209828Y-89999192D01*
X170209828Y-90999192D01*
X169205115Y-90999192D01*
X169201945Y-90995694D01*
X169156267Y-90934105D01*
X169116846Y-90868334D01*
X169084061Y-90799017D01*
X169058228Y-90726819D01*
X169039596Y-90652437D01*
X169028345Y-90576587D01*
X169024583Y-90500000D01*
X169028345Y-90423413D01*
X169039596Y-90347563D01*
X169058228Y-90273181D01*
X169084061Y-90200983D01*
X169116846Y-90131666D01*
X169156267Y-90065895D01*
X169201945Y-90004306D01*
X169253440Y-89947490D01*
X169310256Y-89895995D01*
X169371846Y-89850316D01*
X169437616Y-89810895D01*
X169506934Y-89778110D01*
X169579131Y-89752278D01*
X169653513Y-89733646D01*
X169729363Y-89722395D01*
X169805950Y-89718632D01*
X170209828Y-89718632D01*
X172471540Y-89718632D01*
X172875417Y-89718632D01*
X172875417Y-91281368D01*
G37*
G36*
X172243753Y-90161551D02*
G01*
X172272833Y-90165590D01*
X172272833Y-90837641D01*
X172255062Y-90839257D01*
X172237291Y-90839257D01*
X172123398Y-90813409D01*
X172049085Y-90742326D01*
X172008697Y-90634895D01*
X171999610Y-90569669D01*
X171996580Y-90498384D01*
X172006274Y-90372375D01*
X172040199Y-90264136D01*
X172106435Y-90189015D01*
X172214674Y-90160743D01*
X172243753Y-90161551D01*
G37*
G36*
X175764519Y-89712748D02*
G01*
X175841310Y-89724139D01*
X175916615Y-89743002D01*
X175989708Y-89769155D01*
X176059885Y-89802347D01*
X176126472Y-89842257D01*
X176188825Y-89888502D01*
X176246346Y-89940636D01*
X176298480Y-89998156D01*
X176344725Y-90060510D01*
X176384635Y-90127096D01*
X176417827Y-90197274D01*
X176443980Y-90270367D01*
X176462843Y-90345672D01*
X176474233Y-90422462D01*
X176478043Y-90500000D01*
X176474233Y-90577538D01*
X176462843Y-90654328D01*
X176443980Y-90729633D01*
X176417827Y-90802726D01*
X176384635Y-90872904D01*
X176344725Y-90939490D01*
X176298480Y-91001844D01*
X176246346Y-91059364D01*
X176188825Y-91111498D01*
X176126472Y-91157743D01*
X176059885Y-91197653D01*
X175989708Y-91230845D01*
X175916615Y-91256998D01*
X175841310Y-91275861D01*
X175764519Y-91287252D01*
X175686982Y-91291061D01*
X175686847Y-91291061D01*
X174984101Y-91291061D01*
X174591532Y-91291061D01*
X173654537Y-91291061D01*
X173391209Y-91291061D01*
X173121957Y-91291061D01*
X173121957Y-90165590D01*
X173391209Y-90165590D01*
X173654537Y-90165590D01*
X173654537Y-91000808D01*
X173854860Y-91000808D01*
X173854860Y-90727787D01*
X174223196Y-90727787D01*
X174246015Y-90852383D01*
X174314472Y-90945073D01*
X174385824Y-90987704D01*
X174478177Y-91013283D01*
X174591532Y-91021809D01*
X174703406Y-91015145D01*
X174765678Y-91000808D01*
X174984101Y-91000808D01*
X175192501Y-91000808D01*
X175232687Y-90905695D01*
X175278931Y-90814216D01*
X175330022Y-90723950D01*
X175384747Y-90632472D01*
X175488139Y-90632472D01*
X175488139Y-91000808D01*
X175686847Y-91000808D01*
X175686847Y-90015347D01*
X175623034Y-90003231D01*
X175552760Y-89995153D01*
X175484908Y-89991115D01*
X175428366Y-89989499D01*
X175346782Y-89994346D01*
X175273277Y-90008885D01*
X175208656Y-90033522D01*
X175153729Y-90068659D01*
X175076992Y-90171244D01*
X175057001Y-90238893D01*
X175050337Y-90317447D01*
X175059222Y-90400646D01*
X175085878Y-90475767D01*
X175133131Y-90538368D01*
X175203810Y-90584006D01*
X175145652Y-90676898D01*
X175085878Y-90783522D01*
X175030143Y-90894992D01*
X174984101Y-91000808D01*
X174765678Y-91000808D01*
X174790240Y-90995153D01*
X174901710Y-90945880D01*
X174843551Y-90784330D01*
X174739351Y-90832795D01*
X174672106Y-90849758D01*
X174591532Y-90855412D01*
X174508333Y-90844911D01*
X174455829Y-90815832D01*
X174429173Y-90773829D01*
X174421904Y-90726171D01*
X174439674Y-90671244D01*
X174484908Y-90628433D01*
X174546298Y-90594507D01*
X174614149Y-90566236D01*
X174707849Y-90529079D01*
X174795894Y-90475767D01*
X174861322Y-90395800D01*
X174887170Y-90277060D01*
X174864351Y-90151858D01*
X174795894Y-90057351D01*
X174727414Y-90013373D01*
X174643677Y-89986986D01*
X174544682Y-89978191D01*
X174458454Y-89983441D01*
X174383939Y-89999192D01*
X174268430Y-90046042D01*
X174326589Y-90199515D01*
X174416249Y-90160743D01*
X174530143Y-90144588D01*
X174618098Y-90157333D01*
X174670871Y-90195566D01*
X174688463Y-90259289D01*
X174672307Y-90310178D01*
X174631112Y-90348950D01*
X174574569Y-90378837D01*
X174512372Y-90403069D01*
X174414634Y-90442649D01*
X174320934Y-90500808D01*
X174250660Y-90591276D01*
X174230062Y-90652464D01*
X174223196Y-90727787D01*
X173854860Y-90727787D01*
X173854860Y-90165590D01*
X174118188Y-90165590D01*
X174118188Y-90000808D01*
X173391209Y-90000808D01*
X173391209Y-90165590D01*
X173121957Y-90165590D01*
X173121957Y-89708939D01*
X173391209Y-89708939D01*
X175686847Y-89708939D01*
X175686982Y-89708939D01*
X175764519Y-89712748D01*
G37*
G36*
X175455829Y-90163166D02*
G01*
X175488139Y-90167205D01*
X175488139Y-90467690D01*
X175444521Y-90467690D01*
X175356879Y-90457795D01*
X175297509Y-90428110D01*
X175252275Y-90315832D01*
X175264391Y-90247173D01*
X175300740Y-90199515D01*
X175356879Y-90171648D01*
X175428366Y-90162359D01*
X175455829Y-90163166D01*
G37*
G36*
X176161544Y-94362748D02*
G01*
X176238335Y-94374139D01*
X176313639Y-94393002D01*
X176386732Y-94419155D01*
X176456910Y-94452347D01*
X176523496Y-94492257D01*
X176585850Y-94538502D01*
X176643371Y-94590636D01*
X176695505Y-94648156D01*
X176741750Y-94710510D01*
X176781660Y-94777096D01*
X176814851Y-94847274D01*
X176841004Y-94920367D01*
X176859867Y-94995672D01*
X176871258Y-95072462D01*
X176875067Y-95150000D01*
X176871258Y-95227538D01*
X176859867Y-95304328D01*
X176841004Y-95379633D01*
X176814851Y-95452726D01*
X176781660Y-95522904D01*
X176741750Y-95589490D01*
X176695505Y-95651844D01*
X176643371Y-95709364D01*
X176585850Y-95761498D01*
X176523496Y-95807743D01*
X176456910Y-95847653D01*
X176386732Y-95880845D01*
X176313639Y-95906998D01*
X176238335Y-95925861D01*
X176161544Y-95937252D01*
X176084006Y-95941061D01*
X175545504Y-95941061D01*
X175332256Y-95941061D01*
X174346796Y-95941061D01*
X174067313Y-95941061D01*
X173124933Y-95941061D01*
X173124933Y-95602342D01*
X174067313Y-95602342D01*
X174181206Y-95650000D01*
X174258549Y-95666357D01*
X174346796Y-95671809D01*
X174476755Y-95656731D01*
X174584455Y-95611497D01*
X174669898Y-95536107D01*
X174718666Y-95461086D01*
X174753500Y-95371729D01*
X174774401Y-95268033D01*
X174781368Y-95150000D01*
X174868605Y-95150000D01*
X174877289Y-95278635D01*
X174903339Y-95386672D01*
X174944736Y-95475323D01*
X174999461Y-95545800D01*
X175066707Y-95598910D01*
X175145665Y-95635460D01*
X175234720Y-95656664D01*
X175332256Y-95663732D01*
X175436457Y-95658078D01*
X175545504Y-95639499D01*
X175545504Y-94663732D01*
X175417878Y-94644346D01*
X175306408Y-94639499D01*
X175212103Y-94646769D01*
X175126279Y-94668578D01*
X175050956Y-94705937D01*
X174988153Y-94759855D01*
X174937870Y-94830533D01*
X174900108Y-94918174D01*
X174876481Y-95024192D01*
X174868605Y-95150000D01*
X174781368Y-95150000D01*
X174772886Y-95032472D01*
X174747442Y-94928675D01*
X174706852Y-94839216D01*
X174652935Y-94764701D01*
X174586699Y-94705735D01*
X174509155Y-94662924D01*
X174422119Y-94636874D01*
X174327410Y-94628191D01*
X174231287Y-94637076D01*
X174156166Y-94657270D01*
X174102046Y-94681502D01*
X174068928Y-94700889D01*
X174120625Y-94859208D01*
X174210285Y-94818013D01*
X174330641Y-94801050D01*
X174421917Y-94818013D01*
X174501077Y-94874556D01*
X174557620Y-94980372D01*
X174573977Y-95054685D01*
X174579429Y-95145153D01*
X174572877Y-95250431D01*
X174553222Y-95337938D01*
X174520463Y-95407674D01*
X174442717Y-95476131D01*
X174327410Y-95498950D01*
X174198977Y-95481179D01*
X174117394Y-95445638D01*
X174067313Y-95602342D01*
X173124933Y-95602342D01*
X173124933Y-94358939D01*
X174067313Y-94358939D01*
X175545504Y-94358939D01*
X176084006Y-94358939D01*
X176161544Y-94362748D01*
G37*
G36*
X175317717Y-94813166D02*
G01*
X175346796Y-94817205D01*
X175346796Y-95489257D01*
X175329025Y-95490872D01*
X175311255Y-95490872D01*
X175197361Y-95465024D01*
X175123048Y-95393942D01*
X175082660Y-95286511D01*
X175073573Y-95221284D01*
X175070544Y-95150000D01*
X175080237Y-95023990D01*
X175114163Y-94915751D01*
X175180398Y-94840630D01*
X175288638Y-94812359D01*
X175317717Y-94813166D01*
G37*
G36*
X172867421Y-95941061D02*
G01*
X172463543Y-95941061D01*
X172054820Y-95941061D01*
X171125902Y-95941061D01*
X170591169Y-95941061D01*
X170127518Y-95941061D01*
X169723640Y-95941061D01*
X169646103Y-95937252D01*
X169569312Y-95925861D01*
X169494007Y-95906998D01*
X169420914Y-95880845D01*
X169350737Y-95847653D01*
X169284150Y-95807743D01*
X169221797Y-95761498D01*
X169164276Y-95709364D01*
X169112142Y-95651844D01*
X169065897Y-95589490D01*
X169025987Y-95522904D01*
X168992795Y-95452726D01*
X168966642Y-95379633D01*
X168947779Y-95304328D01*
X168936389Y-95227538D01*
X168932579Y-95150000D01*
X170127518Y-95150000D01*
X170136201Y-95278635D01*
X170162251Y-95386672D01*
X170203648Y-95475323D01*
X170258374Y-95545800D01*
X170325619Y-95598910D01*
X170404577Y-95635460D01*
X170493632Y-95656664D01*
X170591169Y-95663732D01*
X170695369Y-95658078D01*
X170738039Y-95650808D01*
X170965967Y-95650808D01*
X171125902Y-95650808D01*
X171172482Y-95539966D01*
X171221756Y-95429304D01*
X171273721Y-95318821D01*
X171328379Y-95208338D01*
X171385730Y-95097675D01*
X171445773Y-94986834D01*
X171445773Y-95650808D01*
X171625094Y-95650808D01*
X171625094Y-94700889D01*
X171757566Y-94700889D01*
X171809262Y-94859208D01*
X171896500Y-94818821D01*
X172003123Y-94801050D01*
X172122671Y-94826898D01*
X172202639Y-94898788D01*
X172247873Y-95008643D01*
X172258172Y-95075889D01*
X172261605Y-95150000D01*
X172255322Y-95259047D01*
X172236475Y-95347092D01*
X172205062Y-95414136D01*
X172135191Y-95477746D01*
X172038665Y-95498950D01*
X171999892Y-95497334D01*
X171961120Y-95492488D01*
X171961120Y-95127383D01*
X171762412Y-95127383D01*
X171762412Y-95626575D01*
X171873075Y-95655654D01*
X171956072Y-95667771D01*
X172054820Y-95671809D01*
X172143875Y-95663530D01*
X172223640Y-95638691D01*
X172293309Y-95597496D01*
X172352073Y-95540145D01*
X172399327Y-95466640D01*
X172434464Y-95376979D01*
X172456274Y-95271365D01*
X172463543Y-95150000D01*
X172455062Y-95029847D01*
X172429618Y-94924637D01*
X172389634Y-94834774D01*
X172337534Y-94760662D01*
X172274125Y-94702706D01*
X172200215Y-94661309D01*
X172118228Y-94636470D01*
X172030587Y-94628191D01*
X171926387Y-94637076D01*
X171846419Y-94657270D01*
X171790684Y-94681502D01*
X171757566Y-94700889D01*
X171625094Y-94700889D01*
X171625094Y-94650808D01*
X171465159Y-94650808D01*
X171419925Y-94724919D01*
X171374690Y-94805089D01*
X171330062Y-94888086D01*
X171286645Y-94970679D01*
X171245450Y-95051858D01*
X171207485Y-95130614D01*
X171173761Y-95203312D01*
X171145288Y-95266317D01*
X171145288Y-94650808D01*
X170965967Y-94650808D01*
X170965967Y-95650808D01*
X170738039Y-95650808D01*
X170804416Y-95639499D01*
X170804416Y-94663732D01*
X170676791Y-94644346D01*
X170565320Y-94639499D01*
X170471015Y-94646769D01*
X170385191Y-94668578D01*
X170309868Y-94705937D01*
X170247065Y-94759855D01*
X170196782Y-94830533D01*
X170159020Y-94918174D01*
X170135393Y-95024192D01*
X170127518Y-95150000D01*
X168932579Y-95150000D01*
X168936389Y-95072462D01*
X168947779Y-94995672D01*
X168966642Y-94920367D01*
X168992795Y-94847274D01*
X169025987Y-94777096D01*
X169065897Y-94710510D01*
X169112142Y-94648156D01*
X169164276Y-94590636D01*
X169221797Y-94538502D01*
X169284150Y-94492257D01*
X169350737Y-94452347D01*
X169420914Y-94419155D01*
X169494007Y-94393002D01*
X169569312Y-94374139D01*
X169646103Y-94362748D01*
X169723640Y-94358939D01*
X170127518Y-94358939D01*
X172463543Y-94358939D01*
X172867421Y-94358939D01*
X172867421Y-95941061D01*
G37*
G36*
X170576629Y-94813166D02*
G01*
X170605708Y-94817205D01*
X170605708Y-95489257D01*
X170587938Y-95490872D01*
X170570167Y-95490872D01*
X170456274Y-95465024D01*
X170381960Y-95393942D01*
X170341572Y-95286511D01*
X170332485Y-95221284D01*
X170329456Y-95150000D01*
X170339149Y-95023990D01*
X170373075Y-94915751D01*
X170439311Y-94840630D01*
X170547550Y-94812359D01*
X170576629Y-94813166D01*
G37*
G36*
X172922106Y-100541061D02*
G01*
X172518228Y-100541061D01*
X172240361Y-100541061D01*
X171371217Y-100541061D01*
X170624852Y-100541061D01*
X169860716Y-100541061D01*
X169372833Y-100541061D01*
X168968955Y-100541061D01*
X168891418Y-100537252D01*
X168814627Y-100525861D01*
X168739322Y-100506998D01*
X168666229Y-100480845D01*
X168596052Y-100447653D01*
X168529465Y-100407743D01*
X168467112Y-100361498D01*
X168409591Y-100309364D01*
X168357457Y-100251844D01*
X168311212Y-100189490D01*
X168271302Y-100122903D01*
X168238110Y-100052726D01*
X168211957Y-99979633D01*
X168193094Y-99904328D01*
X168181704Y-99827538D01*
X168177894Y-99750000D01*
X168181704Y-99672462D01*
X168193094Y-99595672D01*
X168211957Y-99520367D01*
X168238110Y-99447274D01*
X168271302Y-99377097D01*
X168311212Y-99310510D01*
X168355490Y-99250808D01*
X169372833Y-99250808D01*
X169394440Y-99353393D01*
X169420490Y-99467286D01*
X169450781Y-99589863D01*
X169485110Y-99718498D01*
X169510151Y-99806812D01*
X169536807Y-99896204D01*
X169565078Y-99986672D01*
X169594516Y-100076692D01*
X169624672Y-100164737D01*
X169655547Y-100250808D01*
X169860716Y-100250808D01*
X169900700Y-100132068D01*
X169943107Y-99998788D01*
X169956899Y-99953554D01*
X170240361Y-99953554D01*
X170262978Y-100081179D01*
X170332445Y-100182149D01*
X170385757Y-100220113D01*
X170451992Y-100248384D01*
X170531556Y-100265953D01*
X170624852Y-100271809D01*
X170703204Y-100266155D01*
X170782364Y-100252423D01*
X170852639Y-100234653D01*
X170902719Y-100216882D01*
X170880886Y-100123183D01*
X171227437Y-100123183D01*
X171271055Y-100231422D01*
X171371217Y-100268578D01*
X171426144Y-100258885D01*
X171472186Y-100230614D01*
X171504496Y-100185380D01*
X171516613Y-100123183D01*
X171504496Y-100062601D01*
X171472186Y-100018174D01*
X171426144Y-99990711D01*
X171371217Y-99981018D01*
X171271055Y-100018174D01*
X171227437Y-100123183D01*
X170880886Y-100123183D01*
X170863947Y-100050485D01*
X170767824Y-100084410D01*
X170703002Y-100097738D01*
X170626467Y-100102181D01*
X170539836Y-100091276D01*
X170483495Y-100058562D01*
X170443529Y-99953554D01*
X171855870Y-99953554D01*
X171878487Y-100081179D01*
X171947954Y-100182149D01*
X172001265Y-100220113D01*
X172067501Y-100248384D01*
X172147065Y-100265953D01*
X172240361Y-100271809D01*
X172318713Y-100266155D01*
X172397873Y-100252423D01*
X172468148Y-100234653D01*
X172518228Y-100216882D01*
X172479456Y-100050485D01*
X172383333Y-100084410D01*
X172318511Y-100097738D01*
X172241976Y-100102181D01*
X172155345Y-100091276D01*
X172099004Y-100058562D01*
X172057808Y-99950323D01*
X172073559Y-99883078D01*
X172120813Y-99839661D01*
X172192299Y-99816034D01*
X172280748Y-99808158D01*
X172342138Y-99808158D01*
X172342138Y-99643376D01*
X172267824Y-99643376D01*
X172206435Y-99636914D01*
X172151508Y-99615913D01*
X172111928Y-99577141D01*
X172096580Y-99515751D01*
X172129698Y-99429321D01*
X172220975Y-99397819D01*
X172333253Y-99416397D01*
X172429375Y-99462439D01*
X172500458Y-99317044D01*
X172384949Y-99258078D01*
X172308414Y-99235662D01*
X172222590Y-99228191D01*
X172144036Y-99233441D01*
X172076387Y-99249192D01*
X171973802Y-99308158D01*
X171914028Y-99397819D01*
X171894642Y-99509289D01*
X171928568Y-99623990D01*
X172019036Y-99707997D01*
X171950175Y-99747981D01*
X171898681Y-99803312D01*
X171866572Y-99872375D01*
X171855870Y-99953554D01*
X170443529Y-99953554D01*
X170442299Y-99950323D01*
X170458051Y-99883078D01*
X170505304Y-99839661D01*
X170576791Y-99816034D01*
X170665240Y-99808158D01*
X170726629Y-99808158D01*
X170726629Y-99643376D01*
X170652316Y-99643376D01*
X170590926Y-99636914D01*
X170535999Y-99615913D01*
X170496419Y-99577141D01*
X170481072Y-99515751D01*
X170514190Y-99429321D01*
X170605466Y-99397819D01*
X170717744Y-99416397D01*
X170813866Y-99462439D01*
X170884949Y-99317044D01*
X170769440Y-99258078D01*
X170692905Y-99235662D01*
X170607081Y-99228191D01*
X170528527Y-99233441D01*
X170460878Y-99249192D01*
X170358293Y-99308158D01*
X170298519Y-99397819D01*
X170279133Y-99509289D01*
X170313059Y-99623990D01*
X170403527Y-99707997D01*
X170334666Y-99747981D01*
X170283172Y-99803312D01*
X170251064Y-99872375D01*
X170240361Y-99953554D01*
X169956899Y-99953554D01*
X169971648Y-99905179D01*
X169999111Y-99811748D01*
X170025498Y-99718498D01*
X170050449Y-99627042D01*
X170073604Y-99538997D01*
X170094965Y-99454362D01*
X170121621Y-99341276D01*
X170140199Y-99250808D01*
X169930183Y-99250808D01*
X169918067Y-99334612D01*
X169901104Y-99430937D01*
X169880708Y-99535137D01*
X169858293Y-99642569D01*
X169834060Y-99750808D01*
X169808212Y-99857431D01*
X169781758Y-99957795D01*
X169755708Y-100047254D01*
X169729860Y-99959006D01*
X169704012Y-99859047D01*
X169678971Y-99752423D01*
X169655547Y-99644184D01*
X169633737Y-99536551D01*
X169613543Y-99431745D01*
X169595773Y-99334814D01*
X169581233Y-99250808D01*
X169372833Y-99250808D01*
X168355490Y-99250808D01*
X168357457Y-99248156D01*
X168409591Y-99190636D01*
X168467112Y-99138502D01*
X168529465Y-99092257D01*
X168596052Y-99052347D01*
X168666229Y-99019155D01*
X168739322Y-98993002D01*
X168814627Y-98974139D01*
X168891418Y-98962748D01*
X168968955Y-98958939D01*
X169372833Y-98958939D01*
X172518228Y-98958939D01*
X172922106Y-98958939D01*
X172922106Y-100541061D01*
G37*
G36*
X176226084Y-98962748D02*
G01*
X176302874Y-98974139D01*
X176378179Y-98993002D01*
X176451272Y-99019155D01*
X176521450Y-99052347D01*
X176588036Y-99092257D01*
X176650390Y-99138502D01*
X176707911Y-99190636D01*
X176760044Y-99248156D01*
X176806289Y-99310510D01*
X176846199Y-99377096D01*
X176879391Y-99447274D01*
X176905544Y-99520367D01*
X176924407Y-99595672D01*
X176935798Y-99672462D01*
X176939607Y-99750000D01*
X176935798Y-99827538D01*
X176924407Y-99904328D01*
X176905544Y-99979633D01*
X176879391Y-100052726D01*
X176846199Y-100122904D01*
X176806289Y-100189490D01*
X176760044Y-100251844D01*
X176707911Y-100309364D01*
X176650390Y-100361498D01*
X176588036Y-100407743D01*
X176521450Y-100447653D01*
X176451272Y-100480845D01*
X176378179Y-100506998D01*
X176302874Y-100525861D01*
X176226084Y-100537252D01*
X176148546Y-100541061D01*
X175610043Y-100541061D01*
X175175471Y-100541061D01*
X174471109Y-100541061D01*
X174102773Y-100541061D01*
X173160393Y-100541061D01*
X173160393Y-99977787D01*
X174102773Y-99977787D01*
X174125592Y-100102383D01*
X174194050Y-100195073D01*
X174265401Y-100237704D01*
X174357754Y-100263283D01*
X174471109Y-100271809D01*
X174582983Y-100265145D01*
X174669817Y-100245153D01*
X174766668Y-100202342D01*
X174895988Y-100202342D01*
X175009882Y-100250000D01*
X175087224Y-100266357D01*
X175175471Y-100271809D01*
X175305430Y-100256731D01*
X175413130Y-100211497D01*
X175498573Y-100136107D01*
X175547341Y-100061086D01*
X175582176Y-99971729D01*
X175603076Y-99868033D01*
X175610043Y-99750000D01*
X175601562Y-99632472D01*
X175576117Y-99528675D01*
X175535528Y-99439216D01*
X175481610Y-99364701D01*
X175415374Y-99305735D01*
X175337830Y-99262924D01*
X175250794Y-99236874D01*
X175156085Y-99228191D01*
X175059962Y-99237076D01*
X174984841Y-99257270D01*
X174930722Y-99281502D01*
X174897604Y-99300889D01*
X174949300Y-99459208D01*
X175038961Y-99418013D01*
X175159316Y-99401050D01*
X175250592Y-99418013D01*
X175329752Y-99474556D01*
X175386295Y-99580372D01*
X175402652Y-99654685D01*
X175408104Y-99745153D01*
X175401553Y-99850431D01*
X175381897Y-99937938D01*
X175349138Y-100007674D01*
X175271392Y-100076131D01*
X175156085Y-100098950D01*
X175027652Y-100081179D01*
X174946069Y-100045638D01*
X174895988Y-100202342D01*
X174766668Y-100202342D01*
X174781287Y-100195880D01*
X174723129Y-100034330D01*
X174618928Y-100082795D01*
X174551683Y-100099758D01*
X174471109Y-100105412D01*
X174387911Y-100094911D01*
X174335407Y-100065832D01*
X174308751Y-100023829D01*
X174301481Y-99976171D01*
X174319251Y-99921244D01*
X174364486Y-99878433D01*
X174425875Y-99844507D01*
X174493726Y-99816236D01*
X174587426Y-99779079D01*
X174675471Y-99725767D01*
X174740899Y-99645800D01*
X174766747Y-99527060D01*
X174743928Y-99401858D01*
X174675471Y-99307351D01*
X174606992Y-99263373D01*
X174523254Y-99236986D01*
X174424260Y-99228191D01*
X174338032Y-99233441D01*
X174263516Y-99249192D01*
X174148008Y-99296042D01*
X174206166Y-99449515D01*
X174295827Y-99410743D01*
X174409720Y-99394588D01*
X174497675Y-99407333D01*
X174550449Y-99445566D01*
X174568040Y-99509289D01*
X174551885Y-99560178D01*
X174510689Y-99598950D01*
X174454146Y-99628837D01*
X174391949Y-99653069D01*
X174294211Y-99692649D01*
X174200512Y-99750808D01*
X174130237Y-99841276D01*
X174109639Y-99902464D01*
X174102773Y-99977787D01*
X173160393Y-99977787D01*
X173160393Y-98958939D01*
X174102773Y-98958939D01*
X175610043Y-98958939D01*
X176148546Y-98958939D01*
X176226084Y-98962748D01*
G37*
G36*
X176158171Y-85172395D02*
G01*
X176234020Y-85183646D01*
X176308402Y-85202278D01*
X176380600Y-85228110D01*
X176449917Y-85260895D01*
X176515688Y-85300316D01*
X176577278Y-85345995D01*
X176634094Y-85397490D01*
X176685589Y-85454306D01*
X176731267Y-85515895D01*
X176770688Y-85581666D01*
X176803473Y-85650983D01*
X176829306Y-85723181D01*
X176847937Y-85797563D01*
X176859188Y-85873413D01*
X176862951Y-85950000D01*
X176859188Y-86026587D01*
X176847937Y-86102437D01*
X176829306Y-86176819D01*
X176803473Y-86249017D01*
X176770688Y-86318334D01*
X176731267Y-86384105D01*
X176685589Y-86445694D01*
X176634094Y-86502510D01*
X176577278Y-86554005D01*
X176515688Y-86599684D01*
X176449917Y-86639105D01*
X176380600Y-86671890D01*
X176308402Y-86697722D01*
X176234020Y-86716354D01*
X176158171Y-86727605D01*
X176081583Y-86731368D01*
X175543080Y-86731368D01*
X175265213Y-86731368D01*
X174079429Y-86731368D01*
X173137049Y-86731368D01*
X173137049Y-86284410D01*
X174079429Y-86284410D01*
X174079429Y-86449192D01*
X174707862Y-86449192D01*
X174707862Y-86147092D01*
X174872644Y-86147092D01*
X174880318Y-86230089D01*
X174903339Y-86298142D01*
X174986537Y-86395073D01*
X175043888Y-86426171D01*
X175110932Y-86446769D01*
X175185447Y-86458279D01*
X175265213Y-86462116D01*
X175332660Y-86460299D01*
X175402531Y-86454847D01*
X175473209Y-86445759D01*
X175543080Y-86433037D01*
X175543080Y-85462116D01*
X175418686Y-85445153D01*
X175284599Y-85437884D01*
X175182014Y-85443740D01*
X175100431Y-85461309D01*
X174988961Y-85522698D01*
X174934033Y-85607512D01*
X174919494Y-85701212D01*
X174928177Y-85768255D01*
X174954227Y-85827221D01*
X175047119Y-85914459D01*
X174961699Y-85958078D01*
X174908993Y-86014620D01*
X174881731Y-86079241D01*
X174872644Y-86147092D01*
X174707862Y-86147092D01*
X174707862Y-85449192D01*
X174507539Y-85449192D01*
X174507539Y-86284410D01*
X174079429Y-86284410D01*
X173137049Y-86284410D01*
X173137049Y-85168632D01*
X174079429Y-85168632D01*
X175543080Y-85168632D01*
X176081583Y-85168632D01*
X176158171Y-85172395D01*
G37*
G36*
X175344373Y-86282795D02*
G01*
X175298331Y-86287641D01*
X175249058Y-86289257D01*
X175182822Y-86283603D01*
X175125471Y-86262601D01*
X175084276Y-86218982D01*
X175068121Y-86147092D01*
X175114163Y-86042892D01*
X175237749Y-86011389D01*
X175344373Y-86011389D01*
X175344373Y-86282795D01*
G37*
G36*
X175300754Y-85612359D02*
G01*
X175344373Y-85617205D01*
X175344373Y-85846607D01*
X175266828Y-85846607D01*
X175152127Y-85813489D01*
X175113355Y-85722213D01*
X175124663Y-85664863D01*
X175155358Y-85630937D01*
X175200592Y-85614782D01*
X175253904Y-85610743D01*
X175300754Y-85612359D01*
G37*
G36*
X172880345Y-86741061D02*
G01*
X172476467Y-86741061D01*
X172041896Y-86741061D01*
X170969198Y-86741061D01*
X170339149Y-86741061D01*
X170114593Y-86741061D01*
X169710716Y-86741061D01*
X169633179Y-86737252D01*
X169556388Y-86725861D01*
X169481083Y-86706998D01*
X169407990Y-86680845D01*
X169337813Y-86647653D01*
X169271226Y-86607743D01*
X169208873Y-86561498D01*
X169151352Y-86509364D01*
X169099218Y-86451844D01*
X169098450Y-86450808D01*
X170114593Y-86450808D01*
X170339149Y-86450808D01*
X170390038Y-86328837D01*
X170424973Y-86264216D01*
X170463543Y-86201212D01*
X170504941Y-86141034D01*
X170548358Y-86084895D01*
X170633172Y-85993619D01*
X170633172Y-86450808D01*
X170831879Y-86450808D01*
X170831879Y-86286026D01*
X170969198Y-86286026D01*
X170969198Y-86450808D01*
X171597631Y-86450808D01*
X171597631Y-86402342D01*
X171762412Y-86402342D01*
X171876306Y-86450000D01*
X171953648Y-86466357D01*
X172041896Y-86471809D01*
X172171854Y-86456731D01*
X172279555Y-86411497D01*
X172364997Y-86336107D01*
X172413765Y-86261086D01*
X172448600Y-86171729D01*
X172469501Y-86068033D01*
X172476467Y-85950000D01*
X172467986Y-85832472D01*
X172442542Y-85728675D01*
X172401952Y-85639216D01*
X172348034Y-85564701D01*
X172281799Y-85505735D01*
X172204254Y-85462924D01*
X172117219Y-85436874D01*
X172022509Y-85428191D01*
X171926387Y-85437076D01*
X171851265Y-85457270D01*
X171797146Y-85481502D01*
X171764028Y-85500889D01*
X171815724Y-85659208D01*
X171905385Y-85618013D01*
X172025740Y-85601050D01*
X172117017Y-85618013D01*
X172196177Y-85674556D01*
X172252719Y-85780372D01*
X172269076Y-85854685D01*
X172274529Y-85945153D01*
X172267977Y-86050431D01*
X172248322Y-86137938D01*
X172215563Y-86207674D01*
X172137816Y-86276131D01*
X172022509Y-86298950D01*
X171894076Y-86281179D01*
X171812493Y-86245638D01*
X171762412Y-86402342D01*
X171597631Y-86402342D01*
X171597631Y-85450808D01*
X171397307Y-85450808D01*
X171397307Y-86286026D01*
X170969198Y-86286026D01*
X170831879Y-86286026D01*
X170831879Y-85450808D01*
X170633172Y-85450808D01*
X170633172Y-85865994D01*
X170558858Y-85765832D01*
X170485353Y-85655977D01*
X170421540Y-85547738D01*
X170373075Y-85450808D01*
X170148519Y-85450808D01*
X170202639Y-85550162D01*
X170236362Y-85607108D01*
X170274529Y-85666478D01*
X170316330Y-85727666D01*
X170360959Y-85790065D01*
X170408010Y-85851858D01*
X170457081Y-85911228D01*
X170406597Y-85963328D01*
X170355304Y-86022698D01*
X170305022Y-86087924D01*
X170257566Y-86157593D01*
X170213745Y-86230291D01*
X170174367Y-86304604D01*
X170140845Y-86378716D01*
X170114593Y-86450808D01*
X169098450Y-86450808D01*
X169052973Y-86389490D01*
X169013063Y-86322904D01*
X168979871Y-86252726D01*
X168953718Y-86179633D01*
X168934855Y-86104328D01*
X168923465Y-86027538D01*
X168919655Y-85950000D01*
X168923465Y-85872462D01*
X168934855Y-85795672D01*
X168953718Y-85720367D01*
X168979871Y-85647274D01*
X169013063Y-85577096D01*
X169052973Y-85510510D01*
X169099218Y-85448156D01*
X169151352Y-85390636D01*
X169208873Y-85338502D01*
X169271226Y-85292257D01*
X169337813Y-85252347D01*
X169407990Y-85219155D01*
X169481083Y-85193002D01*
X169556388Y-85174139D01*
X169633179Y-85162748D01*
X169710716Y-85158939D01*
X170114593Y-85158939D01*
X172476467Y-85158939D01*
X172880345Y-85158939D01*
X172880345Y-86741061D01*
G37*
%LPC*%
D12*
X169000000Y-81000000D03*
D13*
X175000000Y-81000000D03*
D14*
X174112500Y-125475000D03*
D15*
X175000000Y-117400000D03*
D16*
X175000000Y-112800000D03*
X175000000Y-108200000D03*
D17*
X135112500Y-81075000D03*
X130112500Y-81075000D03*
X125112500Y-81075000D03*
X132612500Y-98575000D03*
X127612500Y-98575000D03*
D18*
X137512500Y-91575000D03*
X122712500Y-91575000D03*
D15*
X171000000Y-102000000D03*
D16*
X171000000Y-97400000D03*
X171000000Y-92800000D03*
X171000000Y-88200000D03*
D14*
X121112500Y-125475000D03*
D19*
X163000000Y-123000000D03*
D20*
X165000000Y-123000000D03*
X167000000Y-123000000D03*
D15*
X175000000Y-102000000D03*
D16*
X175000000Y-97400000D03*
X175000000Y-92800000D03*
X175000000Y-88200000D03*
D14*
X121112500Y-73475000D03*
X174112500Y-73475000D03*
%LPD*%
M02*
